<?xml version="1.0" encoding="utf-8"?>
<!-- Generator: Adobe Illustrator 25.0.0, SVG Export Plug-In . SVG Version: 6.00 Build 0)  -->
<svg version="1.1" id="Capa_1" xmlns="http://www.w3.org/2000/svg" xmlns:xlink="http://www.w3.org/1999/xlink" x="0px" y="0px"
	 viewBox="0 0 393 268.5" style="enable-background:new 0 0 393 268.5;" xml:space="preserve">
<style type="text/css">
	.st0{fill:#005FB6;}
	.st1{fill:#FFFFFF;}
	.st2{fill:#33BEF0;}
	.st3{fill:#4DCCEF;}
	.st4{fill:#E6E9ED;}
	.st5{fill:#F02B3C;}
	.st6{opacity:0.2;}
	.st7{fill:none;stroke:#4E2583;stroke-width:4.9318;stroke-linecap:round;stroke-linejoin:round;stroke-miterlimit:10;}
</style>
<rect class="st0" width="393" height="268.5"/>
<g>
	<circle class="st1" cx="183.34" cy="137.65" r="15"/>
	<path class="st2" d="M121.85,206.77c-3.45-0.15-6.76-0.3-9.86-0.5c-13.37-0.69-23.67-1.33-29.59-1.72c-2.42-0.2-4.09-0.3-4.93-0.35
		c-5.77-0.4-10.85-1.23-14.8-2.66v-0.05c-6.21-2.22-9.86-6.02-9.86-12.04c0,2.86,18.2,4.44,25.3,4.88l1.28,0.1
		c144.5,9.81,265.33,2.66,284.12-14.85c0,6.36-5.42,11.39-14.8,15.44c-2.91,1.23-6.21,2.42-9.86,3.45
		c-3.06,0.89-6.36,1.73-9.86,2.47c-6.02,1.29-12.62,2.42-19.73,3.36c-6.21,0.84-12.82,1.53-19.73,2.12
		c-3.21,0.29-6.51,0.54-9.86,0.79c-3.26,0.2-6.51,0.39-9.86,0.59c-3.26,0.2-6.56,0.34-9.86,0.49c-3.26,0.15-6.56,0.25-9.86,0.35
		c-3.26,0.1-6.56,0.2-9.86,0.25c-3.26,0.1-6.56,0.15-9.86,0.2c-3.26,0.05-6.56,0.05-9.86,0.05c-3.3,0.05-6.56,0.05-9.86,0.05
		c-3.3,0-6.61-0.05-9.86-0.05c-3.3-0.05-6.61-0.05-9.86-0.1c-3.3-0.05-6.61-0.15-9.86-0.2c-3.3-0.05-6.61-0.15-9.86-0.2
		c-3.35-0.1-6.61-0.2-9.86-0.3c-3.35-0.1-6.61-0.2-9.86-0.34c-3.35-0.1-6.66-0.2-9.86-0.35c-3.4-0.15-6.66-0.25-9.86-0.4
		C128.31,207.11,125.01,206.97,121.85,206.77z"/>
	<path class="st3" d="M83.43,167.56c35.31,3.3,72.1,6.9,107.46,9.37c71.51,4.93,137.15,5.03,172.61-12.13v9.86v4.93
		c-18.79,17.51-139.62,24.66-284.12,14.85l-1.28-0.1c-7.1-0.44-25.3-2.02-25.3-4.88v-4.93V164.8
		C62.82,165.69,73.08,166.62,83.43,167.56z"/>
	<path class="st4" d="M185.97,68.93c27.13,28.21,71.51,42.32,109.09,53.71l-0.59,2.71c0,0,0,7.55-9.86,4.93c0,0-9.82-0.59-25.6-5.08
		c-19.33-5.57-47.69-17.02-77.67-40.74h-0.05c-3.35-2.66-6.71-5.47-10.11-8.43l-3.9-3.45C175.95,67.99,182.86,65.72,185.97,68.93z"
		/>
	<path class="st5" d="M75.25,84.46l-2.71,6.36c-3.65,9.86-9.86,14.8-9.86,14.8l-6.61,4.2c1.53-13.42,3.65-25.2,6.61-28.85
		C65.18,77.85,69.57,80.32,75.25,84.46z"/>
	<path class="st1" d="M363.51,164.8c-35.46,17.16-101.1,17.06-172.61,12.13l14.8-7.2c24.95-10.35,21.6-41.33,39.45-44.39h13.81
		l0.05-0.14c15.78,4.48,25.6,5.08,25.6,5.08c9.86,2.62,9.86-4.93,9.86-4.93l0.59-2.71c37.63,11.34,68.45,19.97,68.45,37.23V164.8z"
		/>
	<path class="st5" d="M107.06,159.87c39.45-14.8,45.82-64.95,69.84-73.98h1.08l3.3-1.43h0.05c29.99,23.73,58.34,35.17,77.67,40.74
		l-0.05,0.14h-13.81c-17.85,3.06-14.5,34.03-39.45,44.39l-14.8,7.2c-35.36-2.47-72.15-6.06-107.46-9.37L107.06,159.87z
		 M200.76,137.67c0-9.52-7.74-17.26-17.26-17.26c-9.52,0-17.26,7.74-17.26,17.26c0,9.52,7.74,17.26,17.26,17.26
		C193.02,154.94,200.76,147.2,200.76,137.67z"/>
	<path class="st1" d="M75.25,84.46c9.37,6.81,22.34,18.15,36.74,16.23c15.24-2.07,38.57-19.28,55.29-28.11l3.9,3.45
		c3.4,2.96,6.76,5.77,10.11,8.43l-3.3,1.43h-1.08c-24.02,9.03-30.38,59.18-69.84,73.98l-23.62,7.7
		c-10.36-0.94-20.62-1.87-30.63-2.76v-4.93c0,0,0.74-27.32,3.26-50.06l6.61-4.2c0,0,6.21-4.93,9.86-14.8L75.25,84.46z"/>
	<path class="st6" d="M358.59,166.92v15.94c2.05-1.05,3.71-2.13,4.92-3.27v-4.93v-9.86C361.95,165.55,360.27,166.23,358.59,166.92z"
		/>
	<path class="st1" d="M57.99,191.93c-0.15-0.78-0.25-1.6-0.25-2.48v-4.93v-19.28c-1.64-0.15-3.31-0.3-4.93-0.44v19.73v4.93
		C52.81,190.43,54.93,191.25,57.99,191.93z"/>
	<g id="_x32_3._sneakers_x2C__shoes_x2C__style_x2C__look_x2C__fashion">
		<path class="st7" d="M52.81,189.45c0,9.86,9.86,13.76,24.66,14.75c14.21,0.94,286.05,20.4,286.05-24.61"/>
		<g>
			<path class="st7" d="M52.81,189.45c0,2.86,18.19,4.43,25.32,4.91l1.27,0.08c144.48,9.83,265.35,2.67,284.12-14.85"/>
		</g>
		<line class="st7" x1="363.51" y1="174.66" x2="363.51" y2="164.79"/>
		<line class="st7" x1="52.81" y1="184.52" x2="52.81" y2="164.79"/>
		<path class="st7" d="M52.81,164.79c113.43,9.86,252.55,28.15,310.7,0"/>
		<path class="st7" d="M363.51,159.86c0-34.52-123.3-34.52-177.55-90.93c-9.13-9.49-50.86,28.67-73.98,31.75
			c-23.12,3.08-42.6-28-49.32-19.73c-8.01,9.86-9.86,78.91-9.86,78.91"/>
		<path class="st7" d="M294.47,125.34c0,0,0,7.55-9.86,4.93"/>
		<path class="st7" d="M284.6,130.27c0,0-55.17-3.24-113.43-54.25"/>
		<path class="st7" d="M279.59,121.65c-0.69,2.63-3.38,4.22-6.01,3.54c-2.63-0.68-4.22-3.37-3.53-6.01"/>
		<path class="st7" d="M258.94,115.06c-0.93,2.56-3.76,3.89-6.31,2.96c-2.56-0.92-3.89-3.75-2.96-6.31"/>
		<path class="st7" d="M240.22,107.64c-0.91,2.57-3.72,3.92-6.29,3.01c-2.57-0.91-3.93-3.72-3.01-6.29"/>
		<path class="st7" d="M220.98,98.32c-1.21,2.44-4.17,3.44-6.61,2.23c-2.44-1.21-3.45-4.17-2.23-6.61"/>
		<path class="st7" d="M201.77,86.13c-1.52,2.26-4.59,2.86-6.85,1.34c-2.26-1.53-2.86-4.59-1.33-6.85"/>
		<line class="st7" x1="348.72" y1="195.04" x2="348.72" y2="192.38"/>
		<line class="st7" x1="338.85" y1="196" x2="338.85" y2="198.5"/>
		<line class="st7" x1="328.99" y1="198.5" x2="328.99" y2="200.97"/>
		<line class="st7" x1="319.12" y1="200.22" x2="319.12" y2="202.84"/>
		<line class="st7" x1="309.26" y1="201.86" x2="309.26" y2="204.32"/>
		<line class="st7" x1="299.4" y1="202.84" x2="299.4" y2="205.4"/>
		<line class="st7" x1="289.53" y1="204.12" x2="289.53" y2="206.45"/>
		<line class="st7" x1="279.67" y1="204.71" x2="279.67" y2="207.21"/>
		<line class="st7" x1="269.81" y1="205.33" x2="269.81" y2="207.82"/>
		<line class="st7" x1="259.94" y1="205.69" x2="259.94" y2="208.29"/>
		<line class="st7" x1="250.08" y1="205.96" x2="250.08" y2="208.65"/>
		<line class="st7" x1="240.22" y1="206.45" x2="240.22" y2="208.91"/>
		<line class="st7" x1="230.35" y1="206.45" x2="230.35" y2="209.07"/>
		<line class="st7" x1="220.49" y1="206.57" x2="220.49" y2="209.17"/>
		<line class="st7" x1="210.62" y1="206.57" x2="210.62" y2="209.18"/>
		<line class="st7" x1="200.76" y1="206.57" x2="200.76" y2="209.13"/>
		<line class="st7" x1="190.9" y1="206.45" x2="190.9" y2="209.02"/>
		<line class="st7" x1="181.03" y1="206.45" x2="181.03" y2="208.84"/>
		<line class="st7" x1="171.17" y1="206.1" x2="171.17" y2="208.62"/>
		<line class="st7" x1="161.31" y1="205.96" x2="161.31" y2="208.35"/>
		<line class="st7" x1="151.44" y1="205.69" x2="151.44" y2="208.02"/>
		<line class="st7" x1="141.58" y1="205.14" x2="141.58" y2="207.65"/>
		<line class="st7" x1="131.72" y1="204.79" x2="131.72" y2="207.24"/>
		<line class="st7" x1="121.85" y1="204.25" x2="121.85" y2="206.79"/>
		<line class="st7" x1="111.99" y1="203.79" x2="111.99" y2="206.29"/>
		<line class="st7" x1="102.12" y1="203.25" x2="102.12" y2="205.75"/>
		<line class="st7" x1="92.26" y1="202.71" x2="92.26" y2="205.16"/>
		<line class="st7" x1="82.4" y1="202.09" x2="82.4" y2="204.53"/>
		<line class="st7" x1="72.53" y1="201.27" x2="72.53" y2="203.73"/>
		<line class="st7" x1="62.67" y1="198.88" x2="62.67" y2="201.52"/>
		<path class="st7" d="M205.69,169.73c24.94-10.33,21.58-41.3,39.45-44.39"/>
		<path class="st7" d="M176.87,85.88c-23.99,9.04-30.36,59.18-69.82,73.98"/>
		<path class="st7" d="M72.53,90.82c-3.63,9.86-9.86,14.8-9.86,14.8"/>
		<g>
			<circle class="st7" cx="183.5" cy="137.67" r="17.26"/>
			<line class="st7" x1="190.9" y1="125.34" x2="176.1" y2="135.2"/>
			<line class="st7" x1="176.1" y1="135.2" x2="190.9" y2="140.13"/>
			<line class="st7" x1="190.9" y1="140.13" x2="176.1" y2="150"/>
		</g>
	</g>
</g>
</svg>
