<?xml version="1.0" encoding="utf-8"?>
<!-- Generator: Adobe Illustrator 25.4.1, SVG Export Plug-In . SVG Version: 6.00 Build 0)  -->
<svg version="1.1" id="Capa_1" xmlns="http://www.w3.org/2000/svg" xmlns:xlink="http://www.w3.org/1999/xlink" x="0px" y="0px"
	 viewBox="0 0 393 268.5" style="enable-background:new 0 0 393 268.5;" xml:space="preserve">
<style type="text/css">
	.st0{fill:#FFD200;}
	.st1{fill:#0F2861;}
	.st2{fill:#4E2583;}
</style>
<rect class="st0" width="393" height="268.5"/>
<g id="Jacket">
	<g id="XMLID_00000157265862773607174630000000793917812511461792_">
		<g>
			<path class="st1" d="M307.25,141.85c2.65,15.2-0.1,29.26-3.01,44.15c-4.72,24.15-10.73,44.6-18.36,62.45l-5.03-1.28
				c2.18-6.75,9.89-30.8,12.91-43.9c0.22-0.95-0.38-1.9-1.33-2.12c-0.95-0.22-1.91,0.37-2.13,1.33
				c-3.02,13.11-10.83,37.44-12.9,43.82l-17.91-4.54c0.57-2.5,1.74-7.61,3.22-14.24c0.01-0.01,0.01-0.02,0.01-0.03
				c1.46-6.51,2.84-12.79,4.13-18.8c1.3-6.02,2.51-11.77,3.64-17.23c0.09-0.21,0.14-0.45,0.14-0.7c9.91-48.32,8.59-53.28,8.15-54.91
				c-0.26-0.95-1.23-1.51-2.17-1.26c-0.95,0.26-1.51,1.23-1.26,2.18c0.55,2.02,0.32,10.76-6.69,45.88l-7.55-30.13
				c-0.24-0.95-1.2-1.53-2.15-1.29c-0.95,0.24-1.53,1.2-1.29,2.15l9.35,37.33c-2.16,10.52-4.67,22.17-7.46,34.65h-19.5h-1.77h-40.61
				l-7.87-84.49c0-0.05-0.01-0.11-0.02-0.16c-0.68-3.71-0.26-8.48,1.24-14.17c13.85-22.81,40.24-36.8,50.97-41.76
				c1.45-0.68,2.47-1.96,2.81-3.52c0.33-1.55-0.06-3.11-1.09-4.3c-4.62-5.37-13.37-11.72-17.78-14.78
				c8.15-2.2,24.55,2.05,30.88,4.13c0.53,0.17,1.11,0.08,1.57-0.24c0.46-0.33,0.74-0.85,0.75-1.41c0.23-11.15-2.16-18.72-4.33-23.23
				c5.54,2.6,14.56,7.2,22.4,12.82c1.79,1.28,3.24,3.03,4.19,5.06C293.85,85.83,302.06,112.06,307.25,141.85z"/>
			<path class="st1" d="M248.98,38.65c0.45,0.53,6.4,7.72,6.62,23.58c-2.61-0.77-7.14-2.01-12.18-2.95
				c-7.73-1.43-13.76-1.63-18.01-0.59c2.06-6.12,3.52-13.67,4.34-22.5c0.47-5.17,0.6-9.47,0.63-11.92
				C233.12,25.22,239.19,28.35,248.98,38.65z"/>
			<path class="st1" d="M241.34,80.51c-0.1,0.47-0.4,0.85-0.83,1.05c-4.82,2.23-14.4,7.05-24.54,14.31
				c-8.27,5.93-15.23,12.26-20.81,18.91c3.04-7.16,6.18-12.55,6.23-12.63c0.06-0.09,0.1-0.2,0.14-0.3c0.11-0.3,0.37-0.92,0.97-2.13
				c1.25-2.54,3.6-6.8,6.98-12.67c5.07-8.81,11.09-18.85,13.39-22.68c3.75,2.57,13.45,9.43,18.17,14.9
				C241.44,79.74,241.4,80.25,241.34,80.51z"/>
			<path class="st2" d="M240.06,225.36c0.98,0,1.78,0.79,1.78,1.77c0,0.98-0.8,1.78-1.78,1.78h-1.77c-0.98,0-1.77-0.8-1.77-1.78
				c0-0.98,0.79-1.77,1.77-1.77H240.06z"/>
			<path class="st1" d="M188.62,23.85h38.22c-0.02,2.07-0.12,5.82-0.48,10.34H189.1C188.73,29.67,188.64,25.92,188.62,23.85z"/>
			<path class="st1" d="M205.68,86.55c-2.41,4.21-4.21,7.46-5.47,9.85c-10.09-7.33-19.8-12.29-24.81-14.64
				c-0.14-0.06-0.27-0.12-0.45-0.2c-0.43-0.2-0.73-0.58-0.84-1.05c-0.05-0.26-0.09-0.77,0.31-1.24c0.21-0.23,0.42-0.48,0.66-0.73
				c4.9-5.34,13.93-11.72,17.51-14.17C194.85,68.13,200.68,77.87,205.68,86.55z"/>
			<path class="st1" d="M198.62,99.62c-0.15,0.33-0.27,0.63-0.37,0.87c-0.84,1.46-7.36,12.92-10.57,24.85
				c-1.69,6.29-2.16,11.65-1.39,15.93l1.94,20.9l-11.31-75.73C182.27,89.11,190.33,93.55,198.62,99.62z"/>
			<path class="st1" d="M173.06,84.56l21.03,140.8h-38.18c-2.82-12.67-5.31-24.24-7.43-34.55l9.38-37.43
				c0.24-0.95-0.34-1.91-1.29-2.15c-0.95-0.24-1.91,0.34-2.15,1.29l-7.57,30.23c-5.21-26.08-7.65-42.53-6.72-45.98
				c0.25-0.95-0.31-1.92-1.25-2.18c-0.95-0.25-1.92,0.31-2.17,1.26c-2.01,7.44,7.62,53.94,16.05,91.64c0,0.01,0,0.02,0,0.03
				c1.49,6.63,2.66,11.74,3.23,14.24l-17.91,4.54c-2.07-6.39-9.87-30.71-12.9-43.82c-0.22-0.96-1.17-1.55-2.13-1.33
				c-0.95,0.22-1.55,1.17-1.33,2.12c3.03,13.1,10.73,37.15,12.91,43.9l-5.03,1.28c-7.63-17.86-13.63-38.3-18.36-62.45
				c-2.91-14.88-5.65-28.95-3.01-44.15c1.51-8.68,3.32-17.2,5.38-25.35c0.06-0.04,0.1-0.11,0.13-0.19
				c3.71-10.78,15.33-46.33,20.34-57c0.95-2.04,2.4-3.79,4.19-5.06c7.84-5.61,16.84-10.21,22.37-12.82
				c-2.16,4.52-4.56,12.1-4.33,23.23c0.02,0.56,0.29,1.08,0.75,1.41c0.46,0.32,1.04,0.41,1.58,0.24c0.05-0.02,5.02-1.64,11.25-2.98
				l2.01,13.45c-0.05,0.06-0.11,0.12-0.16,0.18c-1.03,1.19-1.42,2.75-1.09,4.3C170.95,82.66,171.81,83.83,173.06,84.56z"/>
			<path class="st1" d="M185.71,36.13c0.58,6.32,1.8,14.96,4.35,22.56c-4.45-1.09-10.82-0.83-19.05,0.79
				c-4.63,0.91-8.73,2.03-11.16,2.75c0.23-15.19,5.71-22.47,6.55-23.49c0.03-0.03,0.06-0.05,0.08-0.08
				c9.76-10.26,15.82-13.41,18.59-14.38C185.11,26.73,185.23,31,185.71,36.13z"/>
			<path class="st1" d="M173.37,62.65c7.01-1.26,12.56-1.4,16.13-0.46c-3.51,2.44-9.77,6.96-14.49,11.41L173.37,62.65z"/>
			<path class="st2" d="M110.87,116.29c-0.93-0.32-0.44-1.06-0.13-1.98c0.19-0.55,0.4-1.17,0.63-1.84c0.4-0.22,0.92-0.23,1.46-0.09
				c0.95,0.24,1.52,1.21,1.27,2.16c-0.17,0.65-0.34,1.3-0.49,1.96c-0.42,0.4-1.52-0.11-2.17-0.11
				C111.25,116.39,111.06,116.36,110.87,116.29z"/>
			<path class="st2" d="M104.74,141.24c1.65-9.47,3.72-19.1,6-27.93c0.11-0.41,0.33-0.68,0.63-0.84c-0.23,0.67-0.44,1.29-0.63,1.84
				c-0.31,0.92-0.8,1.66,0.13,1.98c0.19,0.07,0.38,0.1,0.57,0.1c0.65,0,1.75,0.51,2.17,0.11c-2.06,8.15-3.87,16.67-5.38,25.35
				c-2.64,15.2,0.1,29.27,3.01,44.15c4.73,24.15,10.73,44.59,18.36,62.45l5.03-1.28c-2.18-6.75-9.88-30.8-12.91-43.9
				c-0.22-0.95,0.38-1.9,1.33-2.12c0.96-0.22,1.91,0.37,2.13,1.33c3.03,13.11,10.83,37.43,12.9,43.82l17.91-4.54
				c-0.57-2.5-1.74-7.61-3.23-14.24c0-0.01,0-0.02,0-0.03c-8.43-37.7-18.06-84.2-16.05-91.64c0.25-0.95,1.22-1.51,2.17-1.26
				c0.94,0.26,1.5,1.23,1.25,2.18c-0.93,3.45,1.51,19.9,6.72,45.98l7.57-30.23c0.24-0.95,1.2-1.53,2.15-1.29
				c0.95,0.24,1.53,1.2,1.29,2.15l-9.38,37.43c2.12,10.31,4.61,21.88,7.43,34.55h38.18l-21.03-140.8c-1.25-0.73-2.11-1.9-2.41-3.3
				c-0.33-1.55,0.06-3.11,1.09-4.3c0.05-0.06,0.11-0.12,0.16-0.18l-2.01-13.45c-6.23,1.34-11.2,2.96-11.25,2.98
				c-0.54,0.17-1.12,0.08-1.58-0.24c-0.46-0.33-0.73-0.85-0.75-1.41c-0.23-11.13,2.17-18.71,4.33-23.23
				c-5.53,2.61-14.53,7.21-22.37,12.82c-1.79,1.27-3.24,3.02-4.19,5.06c-5.01,10.67-16.63,46.22-20.34,57
				c-0.03,0.08-0.07,0.15-0.13,0.19c0.15-0.66,0.32-1.31,0.49-1.96c0.25-0.95-0.32-1.92-1.27-2.16c-0.54-0.14-1.06-0.13-1.46,0.09
				c4.26-12.54,14.69-44.43,19.5-54.67c1.21-2.58,3.06-4.81,5.34-6.44c11.6-8.3,25.66-14.43,27.97-15.41
				c14.3-14.97,21.4-15.65,22.68-15.64h41.73c1.07-0.03,8.19,0.43,22.72,15.65c2.38,1.01,16.37,7.1,27.96,15.4
				c2.29,1.64,4.14,3.87,5.34,6.44c12.59,26.81,20.89,53.33,26.13,83.44c2.76,15.85-0.18,30.89-3.02,45.44
				c-4.9,25.04-11.17,46.15-19.19,64.56c-0.28,0.66-0.93,1.07-1.62,1.07c-0.14,0-0.29-0.02-0.44-0.06l-29.54-7.48
				c-0.93-0.24-1.51-1.18-1.29-2.12c0.01-0.06,1.27-5.48,3.13-13.74h-18.71c0.98,0,1.78-0.8,1.78-1.78c0-0.98-0.8-1.77-1.78-1.77
				h19.5c2.79-12.48,5.3-24.13,7.46-34.65l-9.35-37.33c-0.24-0.95,0.34-1.91,1.29-2.15c0.95-0.24,1.91,0.34,2.15,1.29l7.55,30.13
				c7.01-35.12,7.24-43.86,6.69-45.88c-0.25-0.95,0.31-1.92,1.26-2.18c0.94-0.25,1.91,0.31,2.17,1.26
				c0.44,1.63,1.76,6.59-8.15,54.91c0,0.25-0.05,0.49-0.14,0.7c-1.13,5.46-2.34,11.21-3.64,17.23c-1.29,6.01-2.67,12.29-4.13,18.8
				c0,0.01,0,0.02-0.01,0.03c-1.48,6.63-2.65,11.74-3.22,14.24l17.91,4.54c2.07-6.38,9.88-30.71,12.9-43.82
				c0.22-0.96,1.18-1.55,2.13-1.33c0.95,0.22,1.55,1.17,1.33,2.12c-3.02,13.1-10.73,37.15-12.91,43.9l5.03,1.28
				c7.63-17.85,13.64-38.3,18.36-62.45c2.91-14.89,5.66-28.95,3.01-44.15c-5.19-29.79-13.4-56.02-25.85-82.54
				c-0.95-2.03-2.4-3.78-4.19-5.06c-7.84-5.62-16.86-10.22-22.4-12.82c2.17,4.51,4.56,12.08,4.33,23.23
				c-0.01,0.56-0.29,1.08-0.75,1.41c-0.46,0.32-1.04,0.41-1.57,0.24c-6.33-2.08-22.73-6.33-30.88-4.13
				c4.41,3.06,13.16,9.41,17.78,14.78c1.03,1.19,1.42,2.75,1.09,4.3c-0.34,1.56-1.36,2.84-2.81,3.52
				c-10.73,4.96-37.12,18.95-50.97,41.76c-1.5,5.69-1.92,10.46-1.24,14.17c0.01,0.05,0.02,0.11,0.02,0.16l7.87,84.49h40.61
				c-0.98,0-1.77,0.79-1.77,1.77c0,0.98,0.79,1.78,1.77,1.78h-81.58c1.85,8.26,3.11,13.68,3.13,13.74c0.21,0.94-0.36,1.88-1.3,2.12
				L129,252.25c-0.14,0.04-0.29,0.06-0.43,0.06c-0.69,0-1.34-0.41-1.63-1.07c-8.01-18.41-14.28-39.53-19.18-64.56
				C104.92,172.13,101.98,157.09,104.74,141.24z M255.6,62.23c-0.22-15.86-6.17-23.05-6.62-23.58c-9.79-10.3-15.86-13.43-18.6-14.38
				c-0.03,2.45-0.16,6.75-0.63,11.92c-0.82,8.83-2.28,16.38-4.34,22.5c4.25-1.04,10.28-0.84,18.01,0.59
				C248.46,60.22,252.99,61.46,255.6,62.23z M241.34,80.51c0.06-0.26,0.1-0.77-0.3-1.24c-4.72-5.47-14.42-12.33-18.17-14.9
				c-2.3,3.83-8.32,13.87-13.39,22.68c-3.38,5.87-5.73,10.13-6.98,12.67c-0.6,1.21-0.86,1.83-0.97,2.13
				c-0.04,0.1-0.08,0.21-0.14,0.3c-0.05,0.08-3.19,5.47-6.23,12.63c5.58-6.65,12.54-12.98,20.81-18.91
				c10.14-7.26,19.72-12.08,24.54-14.31C240.94,81.36,241.24,80.98,241.34,80.51z M226.84,23.85h-38.22
				c0.02,2.07,0.11,5.82,0.48,10.34h37.26C226.72,29.67,226.82,25.92,226.84,23.85z M226.03,37.74h-36.6
				c0.74,6.96,2.24,16.06,5.3,23.31c0.72,1.2,7.21,11.95,13,21.95c5.8-10,12.28-20.75,13-21.95
				C223.21,55.18,225.03,47.15,226.03,37.74z M200.21,96.4c1.26-2.39,3.06-5.64,5.47-9.85c-5-8.68-10.83-18.42-13.09-22.18
				c-3.58,2.45-12.61,8.83-17.51,14.17c-0.24,0.25-0.45,0.5-0.66,0.73c-0.4,0.47-0.36,0.98-0.31,1.24c0.11,0.47,0.41,0.85,0.84,1.05
				c0.18,0.08,0.31,0.14,0.45,0.2C180.41,84.11,190.12,89.07,200.21,96.4z M198.25,100.49c0.1-0.24,0.22-0.54,0.37-0.87
				c-8.29-6.07-16.35-10.51-21.7-13.18l11.31,75.73l-1.94-20.9c-0.77-4.28-0.3-9.64,1.39-15.93
				C190.89,113.41,197.41,101.95,198.25,100.49z M190.06,58.69c-2.55-7.6-3.77-16.24-4.35-22.56c-0.48-5.13-0.6-9.4-0.64-11.85
				c-2.77,0.97-8.83,4.12-18.59,14.38c-0.02,0.03-0.05,0.05-0.08,0.08c-0.84,1.02-6.32,8.3-6.55,23.49
				c2.43-0.72,6.53-1.84,11.16-2.75C179.24,57.86,185.61,57.6,190.06,58.69z M189.5,62.19c-3.57-0.94-9.12-0.8-16.13,0.46
				l1.64,10.95C179.73,69.15,185.99,64.63,189.5,62.19z"/>
		</g>
		<g>
		</g>
	</g>
	<circle class="st2" cx="246.94" cy="54.48" r="2.95"/>
	<circle class="st2" cx="231.16" cy="79.29" r="2.95"/>
	<circle class="st2" cx="178.7" cy="79.29" r="2.95"/>
	<path class="st2" d="M164.84,51.52c-1.63,0-2.95,1.32-2.95,2.95c0,1.63,1.32,2.95,2.95,2.95c1.63,0,2.95-1.32,2.95-2.95
		C167.8,52.85,166.47,51.52,164.84,51.52z"/>
	<path class="st2" d="M138.02,117.95c0.12,0.03,0.25,0.04,0.37,0.04c0.82,0,1.56-0.57,1.73-1.41c1.99-9.46,2.6-21.99,1.81-37.24
		c-0.59-11.32-1.77-20-1.79-20.09c-0.13-0.97-1.03-1.65-2-1.51c-0.97,0.13-1.65,1.03-1.51,2c0.05,0.34,4.63,34.22,0.02,56.11
		C136.45,116.81,137.06,117.75,138.02,117.95z"/>
	<path class="st2" d="M273.33,57.74c-0.97-0.14-1.86,0.54-2,1.51c-0.01,0.09-1.2,8.77-1.79,20.09c-0.79,15.25-0.18,27.77,1.81,37.24
		c0.18,0.83,0.91,1.41,1.73,1.41c0.12,0,0.24-0.01,0.37-0.04c0.96-0.2,1.57-1.14,1.37-2.1c-4.61-21.89-0.03-55.77,0.02-56.11
		C274.98,58.77,274.3,57.88,273.33,57.74z"/>
	<path class="st2" d="M254.9,88.45c-0.77-0.61-1.88-0.49-2.49,0.28l-27.18,34.03c-0.61,0.76-0.49,1.88,0.28,2.49
		c0.33,0.26,0.72,0.39,1.1,0.39c0.52,0,1.04-0.23,1.39-0.67l27.18-34.03C255.79,90.17,255.67,89.06,254.9,88.45z"/>
</g>
</svg>
