<?xml version="1.0" encoding="utf-8"?>
<!-- Generator: Adobe Illustrator 25.0.0, SVG Export Plug-In . SVG Version: 6.00 Build 0)  -->
<svg version="1.1" id="Capa_1" xmlns="http://www.w3.org/2000/svg" xmlns:xlink="http://www.w3.org/1999/xlink" x="0px" y="0px"
	 viewBox="0 0 393 268.5" style="enable-background:new 0 0 393 268.5;" xml:space="preserve">
<style type="text/css">
	.st0{fill:#0F2861;}
	.st1{fill:#005FB6;}
	.st2{fill:#33BEF0;}
	.st3{fill:#FFFFFF;}
</style>
<rect class="st0" width="393" height="268.5"/>
<path class="st1" d="M75.73,95.91c4.87-2.69,12.37-2.48,17.71-5.74c7.24-4.42,5.21-11.03-0.35-15.74
	c-10.11-8.55-7.05-23.24,4.3-28.59c4.63-2.18,9.9-1.05,10.92,4.52c0.92,5.04-2.3,10.91-2.18,16.07c0.17,7.2,6.91,6.48,11,2.68
	c3.98-3.69,5.98-9.21,10.41-12.47c6.55-4.83,11.08,1.54,16.02,5.48c4.92,3.93,12.24,2.01,17.77,0.8c2.7-0.59,7.58-2.52,10.18-0.93
	c2.51,1.53,1.99,5.21,1.85,7.75c-0.27,4.87,2.05,9.89,7.23,10.76c6.11,1.02,10.75-3.01,14.65-7.1c4.26-4.49,9.24-9.65,15.86-10.02
	c5.12-0.29,10.8,3.61,9.3,9.35c-1.12,4.28-5.78,5.35-9.31,6.95c-4.27,1.94-8.08,4.45-10.63,8.49c-3.5,5.54-2.8,12.61,3.95,15.04
	c6.16,2.21,16.75,0.59,20.65,7.03c2.34,3.85,1.56,9.58-3.53,10.31c-5.63,0.8-11.75-5.12-17.52-1.9c-9.61,5.37,8.01,14.04,9.66,18.91
	c2.35,6.94-5.37,7.55-10.04,6.65c-5.65-1.09-12.06-4.69-17.84-2.39c-5.15,2.04-6.89,7.62-5.92,12.77
	c2.52,13.43,20.6,17.18,23.67,30.45c1.41,6.1-2.95,11.72-9.15,10.72c-13.36-2.14-13.45-19.86-18.68-29.08
	c-1.39-2.45-3.47-5.26-6.63-5.08c-9.84,0.57-7.39,14.55-13.02,19.62c-8.67,7.8-12.17-13.54-20.44-9.5
	c-5.35,2.61-4.96,10.7-4.7,15.65c0.39,7.34,2.45,15.49-1.01,22.4c-3.16,6.3-12.02,9.28-16.06,1.61c-2.51-4.76-1.26-10.06,0.03-14.95
	c1.91-7.24,10.07-28.1-5.59-24.47c-9.61,2.23-11.01,14.23-19.54,17.82c-3.93,1.66-9.72,0.68-10.7-4.32
	c-2.12-10.82,18.16-15.55,14.31-28.02c-1.87-6.05-10.79-5.56-15.72-4.77c-7.24,1.17-13.65,5.26-20.53,7.6
	c-4.78,1.62-11.29,2.39-15.85-0.26c-6.03-3.52-5.77-12.21-0.27-16.42c6.91-5.29,18.43-4.69,26.73-5.88
	c6.85-0.98,16.1-4.65,14.97-13.31c-0.94-7.19-10.52-10.4-10.89-18.07C70.56,100.54,72.61,97.63,75.73,95.91z"/>
<path class="st2" d="M206.45,101.13c4.87-2.69,12.37-2.48,17.71-5.74c7.24-4.42,5.21-11.03-0.35-15.74
	c-10.11-8.55-7.05-23.24,4.3-28.59c4.63-2.18,9.9-1.05,10.92,4.52c0.92,5.04-2.3,10.91-2.18,16.07c0.17,7.2,6.91,6.48,11,2.68
	c3.98-3.69,5.98-9.21,10.41-12.47c6.55-4.83,11.08,1.54,16.02,5.48c4.92,3.93,12.24,2.01,17.77,0.8c2.7-0.59,7.58-2.52,10.18-0.93
	c2.51,1.53,1.99,5.21,1.85,7.75c-0.27,4.87,2.05,9.89,7.23,10.76c6.11,1.02,10.75-3.01,14.65-7.1c4.26-4.49,9.24-9.65,15.86-10.02
	c5.12-0.29,10.8,3.61,9.3,9.35c-1.12,4.28-5.78,5.35-9.31,6.95c-4.27,1.94-8.08,4.45-10.63,8.49c-3.5,5.54-2.8,12.61,3.95,15.04
	c6.16,2.21,16.75,0.59,20.65,7.03c2.34,3.85,1.56,9.58-3.53,10.31c-5.63,0.8-11.75-5.12-17.52-1.9c-9.61,5.37,8.01,14.04,9.66,18.91
	c2.35,6.94-5.37,7.55-10.04,6.65c-5.65-1.09-12.06-4.69-17.84-2.39c-5.15,2.04-6.89,7.62-5.92,12.77
	c2.52,13.43,20.6,17.18,23.67,30.45c1.41,6.1-2.95,11.72-9.15,10.72c-13.36-2.14-13.45-19.86-18.68-29.08
	c-1.39-2.45-3.47-5.26-6.63-5.08c-9.84,0.57-7.39,14.55-13.02,19.62c-8.67,7.8-12.17-13.54-20.44-9.5
	c-5.35,2.61-4.96,10.7-4.7,15.65c0.39,7.34,2.45,15.49-1.01,22.4c-3.16,6.3-12.02,9.28-16.06,1.61c-2.51-4.76-1.26-10.06,0.03-14.95
	c1.91-7.24,10.07-28.1-5.59-24.47c-9.61,2.23-11.01,14.23-19.54,17.82c-3.93,1.66-9.72,0.68-10.7-4.32
	c-2.12-10.82,18.16-15.55,14.31-28.02c-1.87-6.05-10.79-5.56-15.72-4.77c-7.24,1.17-13.65,5.26-20.53,7.6
	c-4.78,1.62-11.29,2.39-15.85-0.26c-6.03-3.52-5.77-12.21-0.27-16.42c6.91-5.29,18.43-4.69,26.73-5.88
	c6.85-0.98,16.1-4.65,14.97-13.31c-0.94-7.19-10.52-10.4-10.89-18.07C201.28,105.77,203.33,102.85,206.45,101.13z"/>
<g>
	<g>
		<path class="st3" d="M27.98,155.14l16.18-47.49c0.12-0.23,0.35-0.45,0.7-0.65c0.35-0.2,0.69-0.3,1.01-0.3h14.61
			c0.33,0,0.66,0.1,1.01,0.3c0.35,0.2,0.58,0.41,0.7,0.65l16.18,47.49c0.12,0.21,0.11,0.42-0.02,0.63
			c-0.13,0.21-0.33,0.31-0.61,0.31H63.55c-0.68,0-1.18-0.31-1.5-0.94l-2.13-7.51H46.46l-2.17,7.51c-0.33,0.63-0.83,0.94-1.5,0.94
			H28.64c-0.28,0-0.49-0.1-0.63-0.31S27.86,155.35,27.98,155.14z M49.33,137.39h7.72l-3.88-13.59L49.33,137.39z"/>
		<path class="st3" d="M70.78,118.59v-10.8c0-0.28,0.1-0.53,0.31-0.75c0.21-0.22,0.44-0.33,0.7-0.33h38.48c0.3,0,0.56,0.1,0.77,0.31
			c0.21,0.21,0.29,0.44,0.24,0.7l-1.08,10.87c-0.02,0.28-0.15,0.52-0.38,0.72c-0.23,0.2-0.48,0.3-0.73,0.3H98.43v35.47
			c0,0.26-0.1,0.49-0.3,0.7s-0.44,0.31-0.72,0.31H84.73c-0.28,0-0.52-0.1-0.73-0.31s-0.31-0.44-0.31-0.7V119.6H71.8
			c-0.26,0-0.49-0.1-0.7-0.3C70.89,119.11,70.78,118.87,70.78,118.59z"/>
		<path class="st3" d="M113.87,155.07v-47.28c0-0.28,0.1-0.53,0.31-0.75c0.21-0.22,0.45-0.33,0.73-0.33h18.89
			c5.49,0,9.92,1.48,13.27,4.44c3.35,2.96,5.03,6.87,5.03,11.74c0,2.89-0.8,5.6-2.39,8.14c-1.6,2.54-3.72,4.38-6.38,5.52
			l11.36,18.38c0.16,0.3,0.16,0.57-0.02,0.8c-0.17,0.23-0.43,0.35-0.75,0.35h-15.35c-0.75,0-1.3-0.38-1.65-1.15l-7.46-15.59h-0.84
			v15.73c0,0.26-0.12,0.49-0.35,0.7s-0.5,0.31-0.8,0.31h-12.56c-0.28,0-0.52-0.1-0.73-0.31
			C113.98,155.56,113.87,155.33,113.87,155.07z M128.62,127.19h4.21c1.24,0,2.23-0.35,2.98-1.05c0.75-0.7,1.12-1.62,1.12-2.76
			s-0.38-2.06-1.12-2.74c-0.75-0.69-1.74-1.03-2.98-1.03h-4.21V127.19z"/>
		<path class="st3" d="M157.31,155v-47.28c0-0.68,0.33-1.01,0.98-1.01h32.57c0.3,0,0.57,0.1,0.8,0.31c0.23,0.21,0.35,0.44,0.35,0.7
			v10.8c0,0.3-0.11,0.56-0.33,0.77c-0.22,0.21-0.49,0.31-0.82,0.31h-18.6v5.63h15.17c0.3,0,0.54,0.1,0.72,0.3
			c0.17,0.2,0.24,0.41,0.19,0.65l-0.98,10.03c-0.05,0.23-0.19,0.44-0.42,0.63c-0.23,0.19-0.5,0.28-0.8,0.28h-13.87v6.08h19.47
			c0.28,0,0.52,0.09,0.73,0.28c0.21,0.19,0.31,0.41,0.31,0.66v10.94c0,0.26-0.1,0.49-0.31,0.7s-0.45,0.31-0.73,0.31h-33.3
			c-0.23,0-0.46-0.12-0.68-0.35C157.53,155.5,157.38,155.26,157.31,155z"/>
		<path class="st3" d="M194.29,107.72c-0.09-0.23-0.06-0.46,0.09-0.68c0.15-0.22,0.37-0.33,0.65-0.33h15.94
			c0.3,0,0.59,0.1,0.86,0.31c0.27,0.21,0.44,0.44,0.51,0.7l7.51,29.39l7.51-29.39c0.07-0.26,0.24-0.49,0.51-0.7
			c0.27-0.21,0.55-0.31,0.86-0.31h15.97c0.28,0,0.5,0.1,0.65,0.31c0.15,0.21,0.17,0.44,0.05,0.7l-16.39,47.35
			c-0.07,0.26-0.23,0.49-0.49,0.7s-0.52,0.31-0.8,0.31h-15.72c-0.28,0-0.55-0.1-0.8-0.31s-0.42-0.44-0.49-0.7L194.29,107.72z"/>
		<path class="st3" d="M248.04,155.07v-47.28c0-0.28,0.1-0.53,0.3-0.75c0.2-0.22,0.42-0.33,0.68-0.33h12.69
			c0.3,0,0.56,0.11,0.77,0.33c0.21,0.22,0.31,0.47,0.31,0.75v47.28c0,0.26-0.11,0.49-0.31,0.7c-0.21,0.21-0.47,0.31-0.77,0.31
			h-12.69c-0.23,0-0.46-0.1-0.66-0.31C248.14,155.56,248.04,155.33,248.04,155.07z"/>
		<path class="st3" d="M267.92,155v-47.21c0-0.28,0.1-0.53,0.3-0.75c0.2-0.22,0.42-0.33,0.68-0.33h16.63
			c7.59,0,13.7,2.25,18.31,6.76c4.61,4.51,6.92,10.48,6.92,17.91c0,7.39-2.31,13.35-6.94,17.89c-4.62,4.54-10.72,6.81-18.29,6.81
			H268.9c-0.26,0-0.48-0.11-0.68-0.33C268.02,155.53,267.92,155.28,267.92,155z M282.67,143.19h3.7c2.77,0,5-1.08,6.69-3.25
			c1.69-2.17,2.53-5.02,2.53-8.56c0-3.54-0.85-6.39-2.53-8.54c-1.69-2.15-3.92-3.23-6.69-3.23h-3.7V143.19z"/>
		<path class="st3" d="M321.02,112.63c4.65-4.72,10.79-7.08,18.42-7.08s13.77,2.36,18.43,7.08c4.66,4.72,6.99,10.94,6.99,18.68
			c0,5.09-1.05,9.59-3.16,13.49c-2.11,3.9-5.09,6.93-8.93,9.08c-3.85,2.15-8.29,3.22-13.33,3.22s-9.48-1.08-13.32-3.22
			c-3.84-2.15-6.81-5.17-8.91-9.08c-2.11-3.9-3.16-8.4-3.16-13.49C314.05,123.57,316.37,117.35,321.02,112.63z M339.44,143.12
			c2.94,0,5.32-1.09,7.12-3.26c1.81-2.17,2.71-5.03,2.71-8.55s-0.9-6.37-2.71-8.53c-1.81-2.16-4.18-3.24-7.12-3.24
			s-5.31,1.08-7.11,3.24c-1.8,2.16-2.7,5.01-2.7,8.53s0.9,6.38,2.7,8.55C334.13,142.04,336.5,143.12,339.44,143.12z"/>
	</g>
</g>
</svg>
