<?xml version="1.0" encoding="utf-8"?>
<!-- Generator: Adobe Illustrator 26.5.0, SVG Export Plug-In . SVG Version: 6.00 Build 0)  -->
<svg version="1.1" id="Capa_1" xmlns="http://www.w3.org/2000/svg" xmlns:xlink="http://www.w3.org/1999/xlink" x="0px" y="0px"
	 viewBox="0 0 392 268" enable-background="new 0 0 392 268" xml:space="preserve">
<g>
	<rect x="-1.538" fill="#41D23D" width="393.538" height="268"/>
	<g>
		<g id="CphEfc.tif" opacity="0.61">
			<g>
				<g>
					<path fill="#1B7F50" d="M21.189,46.894c0.064-2.924,0.578-5.412,1.573-7.81c0.327-0.789,0.574-0.779,1.149-0.201
						c7.991,8.025,15.994,16.038,24.018,24.031c0.652,0.65,0.538,0.864-0.244,1.205C36.05,69.194,22.552,61.265,21.334,48.62
						C21.268,47.935,21.219,47.248,21.189,46.894z"/>
					<path fill="#1B7F50" d="M40.263,27.633C53.696,27.681,62.895,41.452,57.77,53.84c-0.534,1.291-0.536,1.292-1.485,0.343
						c-7.871-7.872-15.742-15.745-23.613-23.619c-0.949-0.949-0.95-0.956,0.328-1.488C35.324,28.108,37.754,27.67,40.263,27.633z"/>
					<path fill="#1B7F50" d="M69.047,35.721c0.113,0.599-0.199,0.602-0.379,0.677c-2.221,0.926-4.455,1.821-6.668,2.765
						c-0.538,0.23-0.664-0.036-0.817-0.43c-2.159-5.563-5.926-9.661-11.264-12.306c-0.485-0.24-0.452-0.484-0.268-0.887
						c1.874-4.102,3.747-8.205,5.593-12.32c0.282-0.629,0.499-0.619,0.939-0.153c0.867,0.918,1.775,1.797,2.671,2.687
						c2.057,2.041,3.098,4.521,3.139,7.407c0.056,3.917,1.528,7.205,4.297,9.94c0.789,0.78,1.565,1.574,2.36,2.349
						C68.814,35.611,69.033,35.712,69.047,35.721z"/>
					<path fill="#1B7F50" d="M24.631,80.599c-0.143-0.137-0.31-0.292-0.472-0.452c-0.84-0.837-1.67-1.685-2.519-2.513
						c-2.135-2.083-3.196-4.619-3.242-7.594c-0.057-3.691-1.397-6.852-3.953-9.5c-0.903-0.936-1.82-1.861-2.755-2.764
						c-0.431-0.416-0.566-0.649,0.14-0.926c2.168-0.852,4.325-1.733,6.459-2.666c0.633-0.276,0.779-0.006,0.97,0.481
						c2.14,5.479,5.871,9.515,11.115,12.144c0.562,0.282,0.584,0.526,0.351,1.034c-1.868,4.061-3.713,8.134-5.574,12.198
						C25.05,80.258,25.046,80.594,24.631,80.599z"/>
					<path fill="#1B7F50" d="M55.26,58.121c-0.163,0.237-0.276,0.432-0.418,0.604c-0.782,0.946-1.667,1.788-2.585,2.603
						c-0.459,0.408-0.757,0.316-1.144-0.09c-0.924-0.969-1.886-1.902-2.833-2.849c-7.468-7.468-14.927-14.945-22.421-22.387
						c-0.672-0.667-0.734-1.112-0.051-1.739c0.759-0.698,1.491-1.428,2.206-2.173c0.521-0.543,0.891-0.45,1.402,0.072
						c2.597,2.651,5.233,5.265,7.857,7.891c5.734,5.739,11.468,11.477,17.201,17.218C54.737,57.535,54.982,57.819,55.26,58.121z"/>
				</g>
			</g>
		</g>
		<g id="CphEfc.tif_00000137838728025243817220000014241801954754212778_" opacity="0.61">
			<g>
				<g>
					<path fill="#1B7F50" d="M21.189,134.887c0.064-2.924,0.578-5.412,1.573-7.81c0.327-0.789,0.574-0.779,1.149-0.201
						c7.991,8.025,15.994,16.038,24.018,24.031c0.652,0.65,0.538,0.864-0.244,1.205c-11.636,5.075-25.134-2.853-26.352-15.499
						C21.268,135.928,21.219,135.242,21.189,134.887z"/>
					<path fill="#1B7F50" d="M40.263,115.626c13.433,0.048,22.632,13.819,17.507,26.207c-0.534,1.291-0.536,1.292-1.485,0.343
						c-7.871-7.872-15.742-15.745-23.613-23.619c-0.949-0.949-0.95-0.956,0.328-1.488C35.324,116.101,37.754,115.663,40.263,115.626
						z"/>
					<path fill="#1B7F50" d="M69.047,123.714c0.113,0.599-0.199,0.602-0.379,0.677c-2.221,0.926-4.455,1.821-6.668,2.765
						c-0.538,0.23-0.664-0.036-0.817-0.43c-2.159-5.563-5.926-9.661-11.264-12.306c-0.485-0.24-0.452-0.484-0.268-0.887
						c1.874-4.102,3.747-8.205,5.593-12.32c0.282-0.629,0.499-0.619,0.939-0.153c0.867,0.918,1.775,1.797,2.671,2.687
						c2.057,2.041,3.098,4.521,3.139,7.407c0.056,3.917,1.528,7.205,4.297,9.94c0.789,0.78,1.565,1.574,2.36,2.349
						C68.814,123.604,69.033,123.705,69.047,123.714z"/>
					<path fill="#1B7F50" d="M24.631,168.592c-0.143-0.137-0.31-0.292-0.472-0.452c-0.84-0.837-1.67-1.685-2.519-2.513
						c-2.135-2.083-3.196-4.619-3.242-7.594c-0.057-3.691-1.397-6.852-3.953-9.5c-0.903-0.936-1.82-1.861-2.755-2.764
						c-0.431-0.416-0.566-0.649,0.14-0.926c2.168-0.852,4.325-1.733,6.459-2.666c0.633-0.276,0.779-0.006,0.97,0.481
						c2.14,5.479,5.871,9.515,11.115,12.144c0.562,0.282,0.584,0.526,0.351,1.034c-1.868,4.061-3.713,8.134-5.574,12.198
						C25.05,168.251,25.046,168.587,24.631,168.592z"/>
					<path fill="#1B7F50" d="M55.26,146.115c-0.163,0.237-0.276,0.432-0.418,0.604c-0.782,0.946-1.667,1.788-2.585,2.603
						c-0.459,0.408-0.757,0.316-1.144-0.09c-0.924-0.969-1.886-1.902-2.833-2.849c-7.468-7.468-14.927-14.945-22.421-22.387
						c-0.672-0.667-0.734-1.112-0.051-1.739c0.759-0.698,1.491-1.428,2.206-2.173c0.521-0.543,0.891-0.45,1.402,0.072
						c2.597,2.651,5.233,5.265,7.857,7.891c5.734,5.739,11.468,11.477,17.201,17.218C54.737,145.528,54.982,145.812,55.26,146.115z"
						/>
				</g>
			</g>
		</g>
		<g id="CphEfc.tif_00000165924336196055948090000014321462583895102630_" opacity="0.61">
			<g>
				<g>
					<path fill="#1B7F50" d="M21.189,222.88c0.064-2.924,0.578-5.412,1.573-7.81c0.327-0.789,0.574-0.779,1.149-0.201
						c7.991,8.025,15.994,16.038,24.018,24.031c0.652,0.65,0.538,0.864-0.244,1.205c-11.636,5.075-25.134-2.853-26.352-15.499
						C21.268,223.921,21.219,223.235,21.189,222.88z"/>
					<path fill="#1B7F50" d="M40.263,203.619c13.433,0.048,22.632,13.819,17.507,26.207c-0.534,1.291-0.536,1.292-1.485,0.343
						c-7.871-7.872-15.742-15.745-23.613-23.619c-0.949-0.949-0.95-0.956,0.328-1.488C35.324,204.095,37.754,203.656,40.263,203.619
						z"/>
					<path fill="#1B7F50" d="M69.047,211.708c0.113,0.599-0.199,0.602-0.379,0.677c-2.221,0.926-4.455,1.821-6.668,2.765
						c-0.538,0.23-0.664-0.036-0.817-0.43c-2.159-5.563-5.926-9.661-11.264-12.306c-0.485-0.24-0.452-0.484-0.268-0.887
						c1.874-4.102,3.747-8.205,5.593-12.32c0.282-0.629,0.499-0.619,0.939-0.153c0.867,0.918,1.775,1.797,2.671,2.687
						c2.057,2.041,3.098,4.521,3.139,7.407c0.056,3.917,1.528,7.205,4.297,9.94c0.789,0.78,1.565,1.574,2.36,2.349
						C68.814,211.597,69.033,211.698,69.047,211.708z"/>
					<path fill="#1B7F50" d="M24.631,256.586c-0.143-0.137-0.31-0.292-0.472-0.452c-0.84-0.837-1.67-1.685-2.519-2.513
						c-2.135-2.083-3.196-4.619-3.242-7.594c-0.057-3.691-1.397-6.852-3.953-9.5c-0.903-0.936-1.82-1.861-2.755-2.764
						c-0.431-0.416-0.566-0.649,0.14-0.926c2.168-0.852,4.325-1.733,6.459-2.666c0.633-0.276,0.779-0.006,0.97,0.481
						c2.14,5.479,5.871,9.515,11.115,12.144c0.562,0.282,0.584,0.526,0.351,1.034c-1.868,4.061-3.713,8.134-5.574,12.198
						C25.05,256.245,25.046,256.58,24.631,256.586z"/>
					<path fill="#1B7F50" d="M55.26,234.108c-0.163,0.237-0.276,0.432-0.418,0.604c-0.782,0.946-1.667,1.788-2.585,2.603
						c-0.459,0.408-0.757,0.316-1.144-0.09c-0.924-0.969-1.886-1.902-2.833-2.849c-7.468-7.468-14.927-14.945-22.421-22.387
						c-0.672-0.667-0.734-1.112-0.051-1.739c0.759-0.698,1.491-1.428,2.206-2.173c0.521-0.543,0.891-0.45,1.402,0.072
						c2.597,2.651,5.233,5.265,7.857,7.891c5.734,5.739,11.468,11.477,17.201,17.218C54.737,233.521,54.982,233.806,55.26,234.108z"
						/>
				</g>
			</g>
		</g>
	</g>
	<g>
		<g id="CphEfc.tif_00000030455713601883112440000014569631428052622486_" opacity="0.61">
			<g>
				<g>
					<path fill="#1B7F50" d="M96.097,46.894c0.064-2.924,0.578-5.412,1.573-7.81c0.327-0.789,0.574-0.779,1.149-0.201
						c7.991,8.025,15.994,16.038,24.018,24.031c0.652,0.65,0.538,0.864-0.244,1.205c-11.636,5.075-25.134-2.853-26.352-15.499
						C96.175,47.935,96.126,47.248,96.097,46.894z"/>
					<path fill="#1B7F50" d="M115.17,27.633c13.433,0.048,22.632,13.819,17.507,26.207c-0.534,1.291-0.536,1.292-1.485,0.343
						c-7.871-7.872-15.742-15.745-23.613-23.619c-0.949-0.949-0.95-0.956,0.328-1.488C110.231,28.108,112.661,27.67,115.17,27.633z"
						/>
					<path fill="#1B7F50" d="M143.954,35.721c0.113,0.599-0.199,0.602-0.379,0.677c-2.221,0.926-4.455,1.821-6.668,2.765
						c-0.538,0.23-0.664-0.036-0.817-0.43c-2.159-5.563-5.926-9.661-11.264-12.306c-0.485-0.24-0.452-0.484-0.268-0.887
						c1.874-4.102,3.747-8.205,5.593-12.32c0.282-0.629,0.499-0.619,0.939-0.153c0.867,0.918,1.775,1.797,2.671,2.687
						c2.057,2.041,3.098,4.521,3.139,7.407c0.056,3.917,1.528,7.205,4.297,9.94c0.789,0.78,1.565,1.574,2.36,2.349
						C143.721,35.611,143.94,35.712,143.954,35.721z"/>
					<path fill="#1B7F50" d="M99.538,80.599c-0.143-0.137-0.31-0.292-0.472-0.452c-0.84-0.837-1.67-1.685-2.519-2.513
						c-2.135-2.083-3.196-4.619-3.242-7.594c-0.057-3.691-1.397-6.852-3.953-9.5c-0.903-0.936-1.82-1.861-2.755-2.764
						c-0.431-0.416-0.566-0.649,0.14-0.926c2.168-0.852,4.325-1.733,6.459-2.666c0.633-0.276,0.779-0.006,0.97,0.481
						c2.14,5.479,5.871,9.515,11.115,12.144c0.562,0.282,0.584,0.526,0.351,1.034c-1.868,4.061-3.713,8.134-5.574,12.198
						C99.958,80.258,99.953,80.594,99.538,80.599z"/>
					<path fill="#1B7F50" d="M130.167,58.121c-0.163,0.237-0.276,0.432-0.418,0.604c-0.782,0.946-1.667,1.788-2.585,2.603
						c-0.459,0.408-0.757,0.316-1.144-0.09c-0.924-0.969-1.886-1.902-2.833-2.849c-7.468-7.468-14.927-14.945-22.421-22.387
						c-0.672-0.667-0.734-1.112-0.051-1.739c0.759-0.698,1.491-1.428,2.206-2.173c0.521-0.543,0.891-0.45,1.402,0.072
						c2.597,2.651,5.233,5.265,7.857,7.891c5.734,5.739,11.468,11.477,17.201,17.218C129.644,57.535,129.889,57.819,130.167,58.121z
						"/>
				</g>
			</g>
		</g>
		<g id="CphEfc.tif_00000134214319390497808710000014502206506284614790_" opacity="0.61">
			<g>
				<g>
					<path fill="#1B7F50" d="M96.097,134.887c0.064-2.924,0.578-5.412,1.573-7.81c0.327-0.789,0.574-0.779,1.149-0.201
						c7.991,8.025,15.994,16.038,24.018,24.031c0.652,0.65,0.538,0.864-0.244,1.205c-11.636,5.075-25.134-2.853-26.352-15.499
						C96.175,135.928,96.126,135.242,96.097,134.887z"/>
					<path fill="#1B7F50" d="M115.17,115.626c13.433,0.048,22.632,13.819,17.507,26.207c-0.534,1.291-0.536,1.292-1.485,0.343
						c-7.871-7.872-15.742-15.745-23.613-23.619c-0.949-0.949-0.95-0.956,0.328-1.488
						C110.231,116.101,112.661,115.663,115.17,115.626z"/>
					<path fill="#1B7F50" d="M143.954,123.714c0.113,0.599-0.199,0.602-0.379,0.677c-2.221,0.926-4.455,1.821-6.668,2.765
						c-0.538,0.23-0.664-0.036-0.817-0.43c-2.159-5.563-5.926-9.661-11.264-12.306c-0.485-0.24-0.452-0.484-0.268-0.887
						c1.874-4.102,3.747-8.205,5.593-12.32c0.282-0.629,0.499-0.619,0.939-0.153c0.867,0.918,1.775,1.797,2.671,2.687
						c2.057,2.041,3.098,4.521,3.139,7.407c0.056,3.917,1.528,7.205,4.297,9.94c0.789,0.78,1.565,1.574,2.36,2.349
						C143.721,123.604,143.94,123.705,143.954,123.714z"/>
					<path fill="#1B7F50" d="M99.538,168.592c-0.143-0.137-0.31-0.292-0.472-0.452c-0.84-0.837-1.67-1.685-2.519-2.513
						c-2.135-2.083-3.196-4.619-3.242-7.594c-0.057-3.691-1.397-6.852-3.953-9.5c-0.903-0.936-1.82-1.861-2.755-2.764
						c-0.431-0.416-0.566-0.649,0.14-0.926c2.168-0.852,4.325-1.733,6.459-2.666c0.633-0.276,0.779-0.006,0.97,0.481
						c2.14,5.479,5.871,9.515,11.115,12.144c0.562,0.282,0.584,0.526,0.351,1.034c-1.868,4.061-3.713,8.134-5.574,12.198
						C99.958,168.251,99.953,168.587,99.538,168.592z"/>
					<path fill="#1B7F50" d="M130.167,146.115c-0.163,0.237-0.276,0.432-0.418,0.604c-0.782,0.946-1.667,1.788-2.585,2.603
						c-0.459,0.408-0.757,0.316-1.144-0.09c-0.924-0.969-1.886-1.902-2.833-2.849c-7.468-7.468-14.927-14.945-22.421-22.387
						c-0.672-0.667-0.734-1.112-0.051-1.739c0.759-0.698,1.491-1.428,2.206-2.173c0.521-0.543,0.891-0.45,1.402,0.072
						c2.597,2.651,5.233,5.265,7.857,7.891c5.734,5.739,11.468,11.477,17.201,17.218
						C129.644,145.528,129.889,145.812,130.167,146.115z"/>
				</g>
			</g>
		</g>
		<g id="CphEfc.tif_00000146461733258053283060000001745941738628215993_" opacity="0.61">
			<g>
				<g>
					<path fill="#1B7F50" d="M96.097,222.88c0.064-2.924,0.578-5.412,1.573-7.81c0.327-0.789,0.574-0.779,1.149-0.201
						c7.991,8.025,15.994,16.038,24.018,24.031c0.652,0.65,0.538,0.864-0.244,1.205c-11.636,5.075-25.134-2.853-26.352-15.499
						C96.175,223.921,96.126,223.235,96.097,222.88z"/>
					<path fill="#1B7F50" d="M115.17,203.619c13.433,0.048,22.632,13.819,17.507,26.207c-0.534,1.291-0.536,1.292-1.485,0.343
						c-7.871-7.872-15.742-15.745-23.613-23.619c-0.949-0.949-0.95-0.956,0.328-1.488
						C110.231,204.095,112.661,203.656,115.17,203.619z"/>
					<path fill="#1B7F50" d="M143.954,211.708c0.113,0.599-0.199,0.602-0.379,0.677c-2.221,0.926-4.455,1.821-6.668,2.765
						c-0.538,0.23-0.664-0.036-0.817-0.43c-2.159-5.563-5.926-9.661-11.264-12.306c-0.485-0.24-0.452-0.484-0.268-0.887
						c1.874-4.102,3.747-8.205,5.593-12.32c0.282-0.629,0.499-0.619,0.939-0.153c0.867,0.918,1.775,1.797,2.671,2.687
						c2.057,2.041,3.098,4.521,3.139,7.407c0.056,3.917,1.528,7.205,4.297,9.94c0.789,0.78,1.565,1.574,2.36,2.349
						C143.721,211.597,143.94,211.698,143.954,211.708z"/>
					<path fill="#1B7F50" d="M99.538,256.586c-0.143-0.137-0.31-0.292-0.472-0.452c-0.84-0.837-1.67-1.685-2.519-2.513
						c-2.135-2.083-3.196-4.619-3.242-7.594c-0.057-3.691-1.397-6.852-3.953-9.5c-0.903-0.936-1.82-1.861-2.755-2.764
						c-0.431-0.416-0.566-0.649,0.14-0.926c2.168-0.852,4.325-1.733,6.459-2.666c0.633-0.276,0.779-0.006,0.97,0.481
						c2.14,5.479,5.871,9.515,11.115,12.144c0.562,0.282,0.584,0.526,0.351,1.034c-1.868,4.061-3.713,8.134-5.574,12.198
						C99.958,256.245,99.953,256.58,99.538,256.586z"/>
					<path fill="#1B7F50" d="M130.167,234.108c-0.163,0.237-0.276,0.432-0.418,0.604c-0.782,0.946-1.667,1.788-2.585,2.603
						c-0.459,0.408-0.757,0.316-1.144-0.09c-0.924-0.969-1.886-1.902-2.833-2.849c-7.468-7.468-14.927-14.945-22.421-22.387
						c-0.672-0.667-0.734-1.112-0.051-1.739c0.759-0.698,1.491-1.428,2.206-2.173c0.521-0.543,0.891-0.45,1.402,0.072
						c2.597,2.651,5.233,5.265,7.857,7.891c5.734,5.739,11.468,11.477,17.201,17.218
						C129.644,233.521,129.889,233.806,130.167,234.108z"/>
				</g>
			</g>
		</g>
	</g>
	<g>
		<g id="CphEfc.tif_00000156583926909074459490000018207379704095458482_" opacity="0.61">
			<g>
				<g>
					<path fill="#1B7F50" d="M171.004,46.894c0.064-2.924,0.578-5.412,1.573-7.81c0.327-0.789,0.574-0.779,1.149-0.201
						c7.991,8.025,15.994,16.038,24.018,24.031c0.652,0.65,0.538,0.864-0.244,1.205c-11.636,5.075-25.134-2.853-26.352-15.499
						C171.082,47.935,171.033,47.248,171.004,46.894z"/>
					<path fill="#1B7F50" d="M190.077,27.633c13.433,0.048,22.632,13.819,17.507,26.207c-0.534,1.291-0.536,1.292-1.485,0.343
						c-7.871-7.872-15.742-15.745-23.613-23.619c-0.949-0.949-0.95-0.956,0.328-1.488C185.138,28.108,187.568,27.67,190.077,27.633z
						"/>
					<path fill="#1B7F50" d="M218.861,35.721c0.113,0.599-0.199,0.602-0.379,0.677c-2.221,0.926-4.455,1.821-6.668,2.765
						c-0.538,0.23-0.664-0.036-0.817-0.43c-2.159-5.563-5.926-9.661-11.264-12.306c-0.485-0.24-0.452-0.484-0.268-0.887
						c1.874-4.102,3.747-8.205,5.593-12.32c0.282-0.629,0.499-0.619,0.939-0.153c0.867,0.918,1.775,1.797,2.671,2.687
						c2.057,2.041,3.098,4.521,3.139,7.407c0.056,3.917,1.528,7.205,4.297,9.94c0.789,0.78,1.565,1.574,2.36,2.349
						C218.628,35.611,218.847,35.712,218.861,35.721z"/>
					<path fill="#1B7F50" d="M174.445,80.599c-0.143-0.137-0.31-0.292-0.472-0.452c-0.84-0.837-1.67-1.685-2.519-2.513
						c-2.135-2.083-3.196-4.619-3.242-7.594c-0.057-3.691-1.397-6.852-3.953-9.5c-0.903-0.936-1.82-1.861-2.755-2.764
						c-0.431-0.416-0.566-0.649,0.14-0.926c2.168-0.852,4.325-1.733,6.459-2.666c0.633-0.276,0.779-0.006,0.97,0.481
						c2.14,5.479,5.871,9.515,11.115,12.144c0.562,0.282,0.584,0.526,0.351,1.034c-1.868,4.061-3.713,8.134-5.574,12.198
						C174.865,80.258,174.86,80.594,174.445,80.599z"/>
					<path fill="#1B7F50" d="M205.074,58.121c-0.163,0.237-0.276,0.432-0.418,0.604c-0.782,0.946-1.667,1.788-2.585,2.603
						c-0.459,0.408-0.757,0.316-1.144-0.09c-0.924-0.969-1.886-1.902-2.833-2.849c-7.468-7.468-14.927-14.945-22.421-22.387
						c-0.672-0.667-0.734-1.112-0.051-1.739c0.759-0.698,1.491-1.428,2.206-2.173c0.521-0.543,0.891-0.45,1.402,0.072
						c2.597,2.651,5.233,5.265,7.857,7.891c5.734,5.739,11.468,11.477,17.201,17.218C204.551,57.535,204.796,57.819,205.074,58.121z
						"/>
				</g>
			</g>
		</g>
		<g id="CphEfc.tif_00000030447690303082377100000015569066448688723615_" opacity="0.61">
			<g>
				<g>
					<path fill="#1B7F50" d="M171.004,134.887c0.064-2.924,0.578-5.412,1.573-7.81c0.327-0.789,0.574-0.779,1.149-0.201
						c7.991,8.025,15.994,16.038,24.018,24.031c0.652,0.65,0.538,0.864-0.244,1.205c-11.636,5.075-25.134-2.853-26.352-15.499
						C171.082,135.928,171.033,135.242,171.004,134.887z"/>
					<path fill="#1B7F50" d="M190.077,115.626c13.433,0.048,22.632,13.819,17.507,26.207c-0.534,1.291-0.536,1.292-1.485,0.343
						c-7.871-7.872-15.742-15.745-23.613-23.619c-0.949-0.949-0.95-0.956,0.328-1.488
						C185.138,116.101,187.568,115.663,190.077,115.626z"/>
					<path fill="#1B7F50" d="M218.861,123.714c0.113,0.599-0.199,0.602-0.379,0.677c-2.221,0.926-4.455,1.821-6.668,2.765
						c-0.538,0.23-0.664-0.036-0.817-0.43c-2.159-5.563-5.926-9.661-11.264-12.306c-0.485-0.24-0.452-0.484-0.268-0.887
						c1.874-4.102,3.747-8.205,5.593-12.32c0.282-0.629,0.499-0.619,0.939-0.153c0.867,0.918,1.775,1.797,2.671,2.687
						c2.057,2.041,3.098,4.521,3.139,7.407c0.056,3.917,1.528,7.205,4.297,9.94c0.789,0.78,1.565,1.574,2.36,2.349
						C218.628,123.604,218.847,123.705,218.861,123.714z"/>
					<path fill="#1B7F50" d="M174.445,168.592c-0.143-0.137-0.31-0.292-0.472-0.452c-0.84-0.837-1.67-1.685-2.519-2.513
						c-2.135-2.083-3.196-4.619-3.242-7.594c-0.057-3.691-1.397-6.852-3.953-9.5c-0.903-0.936-1.82-1.861-2.755-2.764
						c-0.431-0.416-0.566-0.649,0.14-0.926c2.168-0.852,4.325-1.733,6.459-2.666c0.633-0.276,0.779-0.006,0.97,0.481
						c2.14,5.479,5.871,9.515,11.115,12.144c0.562,0.282,0.584,0.526,0.351,1.034c-1.868,4.061-3.713,8.134-5.574,12.198
						C174.865,168.251,174.86,168.587,174.445,168.592z"/>
					<path fill="#1B7F50" d="M205.074,146.115c-0.163,0.237-0.276,0.432-0.418,0.604c-0.782,0.946-1.667,1.788-2.585,2.603
						c-0.459,0.408-0.757,0.316-1.144-0.09c-0.924-0.969-1.886-1.902-2.833-2.849c-7.468-7.468-14.927-14.945-22.421-22.387
						c-0.672-0.667-0.734-1.112-0.051-1.739c0.759-0.698,1.491-1.428,2.206-2.173c0.521-0.543,0.891-0.45,1.402,0.072
						c2.597,2.651,5.233,5.265,7.857,7.891c5.734,5.739,11.468,11.477,17.201,17.218
						C204.551,145.528,204.796,145.812,205.074,146.115z"/>
				</g>
			</g>
		</g>
		<g id="CphEfc.tif_00000026870447313626552570000011339879143572076206_" opacity="0.61">
			<g>
				<g>
					<path fill="#1B7F50" d="M171.004,222.88c0.064-2.924,0.578-5.412,1.573-7.81c0.327-0.789,0.574-0.779,1.149-0.201
						c7.991,8.025,15.994,16.038,24.018,24.031c0.652,0.65,0.538,0.864-0.244,1.205c-11.636,5.075-25.134-2.853-26.352-15.499
						C171.082,223.921,171.033,223.235,171.004,222.88z"/>
					<path fill="#1B7F50" d="M190.077,203.619c13.433,0.048,22.632,13.819,17.507,26.207c-0.534,1.291-0.536,1.292-1.485,0.343
						c-7.871-7.872-15.742-15.745-23.613-23.619c-0.949-0.949-0.95-0.956,0.328-1.488
						C185.138,204.095,187.568,203.656,190.077,203.619z"/>
					<path fill="#1B7F50" d="M218.861,211.708c0.113,0.599-0.199,0.602-0.379,0.677c-2.221,0.926-4.455,1.821-6.668,2.765
						c-0.538,0.23-0.664-0.036-0.817-0.43c-2.159-5.563-5.926-9.661-11.264-12.306c-0.485-0.24-0.452-0.484-0.268-0.887
						c1.874-4.102,3.747-8.205,5.593-12.32c0.282-0.629,0.499-0.619,0.939-0.153c0.867,0.918,1.775,1.797,2.671,2.687
						c2.057,2.041,3.098,4.521,3.139,7.407c0.056,3.917,1.528,7.205,4.297,9.94c0.789,0.78,1.565,1.574,2.36,2.349
						C218.628,211.597,218.847,211.698,218.861,211.708z"/>
					<path fill="#1B7F50" d="M174.445,256.586c-0.143-0.137-0.31-0.292-0.472-0.452c-0.84-0.837-1.67-1.685-2.519-2.513
						c-2.135-2.083-3.196-4.619-3.242-7.594c-0.057-3.691-1.397-6.852-3.953-9.5c-0.903-0.936-1.82-1.861-2.755-2.764
						c-0.431-0.416-0.566-0.649,0.14-0.926c2.168-0.852,4.325-1.733,6.459-2.666c0.633-0.276,0.779-0.006,0.97,0.481
						c2.14,5.479,5.871,9.515,11.115,12.144c0.562,0.282,0.584,0.526,0.351,1.034c-1.868,4.061-3.713,8.134-5.574,12.198
						C174.865,256.245,174.86,256.58,174.445,256.586z"/>
					<path fill="#1B7F50" d="M205.074,234.108c-0.163,0.237-0.276,0.432-0.418,0.604c-0.782,0.946-1.667,1.788-2.585,2.603
						c-0.459,0.408-0.757,0.316-1.144-0.09c-0.924-0.969-1.886-1.902-2.833-2.849c-7.468-7.468-14.927-14.945-22.421-22.387
						c-0.672-0.667-0.734-1.112-0.051-1.739c0.759-0.698,1.491-1.428,2.206-2.173c0.521-0.543,0.891-0.45,1.402,0.072
						c2.597,2.651,5.233,5.265,7.857,7.891c5.734,5.739,11.468,11.477,17.201,17.218
						C204.551,233.521,204.796,233.806,205.074,234.108z"/>
				</g>
			</g>
		</g>
	</g>
	<g>
		<g id="CphEfc.tif_00000034055942778297692290000009490280380240154782_" opacity="0.61">
			<g>
				<g>
					<path fill="#1B7F50" d="M245.911,46.894c0.064-2.924,0.578-5.412,1.573-7.81c0.327-0.789,0.574-0.779,1.149-0.201
						c7.991,8.025,15.994,16.038,24.018,24.031c0.652,0.65,0.538,0.864-0.244,1.205c-11.636,5.075-25.134-2.853-26.352-15.499
						C245.989,47.935,245.94,47.248,245.911,46.894z"/>
					<path fill="#1B7F50" d="M264.984,27.633c13.433,0.048,22.632,13.819,17.507,26.207c-0.534,1.291-0.536,1.292-1.485,0.343
						c-7.871-7.872-15.742-15.745-23.613-23.619c-0.949-0.949-0.95-0.956,0.328-1.488C260.046,28.108,262.475,27.67,264.984,27.633z
						"/>
					<path fill="#1B7F50" d="M293.768,35.721c0.113,0.599-0.199,0.602-0.379,0.677c-2.221,0.926-4.455,1.821-6.668,2.765
						c-0.538,0.23-0.664-0.036-0.817-0.43c-2.159-5.563-5.926-9.661-11.264-12.306c-0.485-0.24-0.452-0.484-0.268-0.887
						c1.874-4.102,3.747-8.205,5.593-12.32c0.282-0.629,0.499-0.619,0.939-0.153c0.867,0.918,1.775,1.797,2.671,2.687
						c2.057,2.041,3.098,4.521,3.139,7.407c0.056,3.917,1.528,7.205,4.297,9.94c0.789,0.78,1.565,1.574,2.36,2.349
						C293.535,35.611,293.754,35.712,293.768,35.721z"/>
					<path fill="#1B7F50" d="M249.352,80.599c-0.143-0.137-0.31-0.292-0.472-0.452c-0.84-0.837-1.67-1.685-2.519-2.513
						c-2.135-2.083-3.196-4.619-3.242-7.594c-0.057-3.691-1.397-6.852-3.953-9.5c-0.903-0.936-1.82-1.861-2.755-2.764
						c-0.431-0.416-0.566-0.649,0.14-0.926c2.168-0.852,4.325-1.733,6.459-2.666c0.633-0.276,0.779-0.006,0.97,0.481
						c2.14,5.479,5.871,9.515,11.115,12.144c0.562,0.282,0.584,0.526,0.351,1.034c-1.868,4.061-3.713,8.134-5.574,12.198
						C249.772,80.258,249.767,80.594,249.352,80.599z"/>
					<path fill="#1B7F50" d="M279.981,58.121c-0.163,0.237-0.276,0.432-0.418,0.604c-0.782,0.946-1.667,1.788-2.585,2.603
						c-0.459,0.408-0.757,0.316-1.144-0.09c-0.924-0.969-1.886-1.902-2.833-2.849c-7.468-7.468-14.927-14.945-22.421-22.387
						c-0.672-0.667-0.734-1.112-0.051-1.739c0.759-0.698,1.491-1.428,2.206-2.173c0.521-0.543,0.891-0.45,1.402,0.072
						c2.597,2.651,5.233,5.265,7.857,7.891c5.734,5.739,11.468,11.477,17.201,17.218C279.459,57.535,279.703,57.819,279.981,58.121z
						"/>
				</g>
			</g>
		</g>
		<g id="CphEfc.tif_00000117638372822216323630000014405018370469764541_" opacity="0.61">
			<g>
				<g>
					<path fill="#1B7F50" d="M245.911,134.887c0.064-2.924,0.578-5.412,1.573-7.81c0.327-0.789,0.574-0.779,1.149-0.201
						c7.991,8.025,15.994,16.038,24.018,24.031c0.652,0.65,0.538,0.864-0.244,1.205c-11.636,5.075-25.134-2.853-26.352-15.499
						C245.989,135.928,245.94,135.242,245.911,134.887z"/>
					<path fill="#1B7F50" d="M264.984,115.626c13.433,0.048,22.632,13.819,17.507,26.207c-0.534,1.291-0.536,1.292-1.485,0.343
						c-7.871-7.872-15.742-15.745-23.613-23.619c-0.949-0.949-0.95-0.956,0.328-1.488
						C260.046,116.101,262.475,115.663,264.984,115.626z"/>
					<path fill="#1B7F50" d="M293.768,123.714c0.113,0.599-0.199,0.602-0.379,0.677c-2.221,0.926-4.455,1.821-6.668,2.765
						c-0.538,0.23-0.664-0.036-0.817-0.43c-2.159-5.563-5.926-9.661-11.264-12.306c-0.485-0.24-0.452-0.484-0.268-0.887
						c1.874-4.102,3.747-8.205,5.593-12.32c0.282-0.629,0.499-0.619,0.939-0.153c0.867,0.918,1.775,1.797,2.671,2.687
						c2.057,2.041,3.098,4.521,3.139,7.407c0.056,3.917,1.528,7.205,4.297,9.94c0.789,0.78,1.565,1.574,2.36,2.349
						C293.535,123.604,293.754,123.705,293.768,123.714z"/>
					<path fill="#1B7F50" d="M249.352,168.592c-0.143-0.137-0.31-0.292-0.472-0.452c-0.84-0.837-1.67-1.685-2.519-2.513
						c-2.135-2.083-3.196-4.619-3.242-7.594c-0.057-3.691-1.397-6.852-3.953-9.5c-0.903-0.936-1.82-1.861-2.755-2.764
						c-0.431-0.416-0.566-0.649,0.14-0.926c2.168-0.852,4.325-1.733,6.459-2.666c0.633-0.276,0.779-0.006,0.97,0.481
						c2.14,5.479,5.871,9.515,11.115,12.144c0.562,0.282,0.584,0.526,0.351,1.034c-1.868,4.061-3.713,8.134-5.574,12.198
						C249.772,168.251,249.767,168.587,249.352,168.592z"/>
					<path fill="#1B7F50" d="M279.981,146.115c-0.163,0.237-0.276,0.432-0.418,0.604c-0.782,0.946-1.667,1.788-2.585,2.603
						c-0.459,0.408-0.757,0.316-1.144-0.09c-0.924-0.969-1.886-1.902-2.833-2.849c-7.468-7.468-14.927-14.945-22.421-22.387
						c-0.672-0.667-0.734-1.112-0.051-1.739c0.759-0.698,1.491-1.428,2.206-2.173c0.521-0.543,0.891-0.45,1.402,0.072
						c2.597,2.651,5.233,5.265,7.857,7.891c5.734,5.739,11.468,11.477,17.201,17.218
						C279.459,145.528,279.703,145.812,279.981,146.115z"/>
				</g>
			</g>
		</g>
		<g id="CphEfc.tif_00000170276628155828508990000004062307714192602271_" opacity="0.61">
			<g>
				<g>
					<path fill="#1B7F50" d="M245.911,222.88c0.064-2.924,0.578-5.412,1.573-7.81c0.327-0.789,0.574-0.779,1.149-0.201
						c7.991,8.025,15.994,16.038,24.018,24.031c0.652,0.65,0.538,0.864-0.244,1.205c-11.636,5.075-25.134-2.853-26.352-15.499
						C245.989,223.921,245.94,223.235,245.911,222.88z"/>
					<path fill="#1B7F50" d="M264.984,203.619c13.433,0.048,22.632,13.819,17.507,26.207c-0.534,1.291-0.536,1.292-1.485,0.343
						c-7.871-7.872-15.742-15.745-23.613-23.619c-0.949-0.949-0.95-0.956,0.328-1.488
						C260.046,204.095,262.475,203.656,264.984,203.619z"/>
					<path fill="#1B7F50" d="M293.768,211.708c0.113,0.599-0.199,0.602-0.379,0.677c-2.221,0.926-4.455,1.821-6.668,2.765
						c-0.538,0.23-0.664-0.036-0.817-0.43c-2.159-5.563-5.926-9.661-11.264-12.306c-0.485-0.24-0.452-0.484-0.268-0.887
						c1.874-4.102,3.747-8.205,5.593-12.32c0.282-0.629,0.499-0.619,0.939-0.153c0.867,0.918,1.775,1.797,2.671,2.687
						c2.057,2.041,3.098,4.521,3.139,7.407c0.056,3.917,1.528,7.205,4.297,9.94c0.789,0.78,1.565,1.574,2.36,2.349
						C293.535,211.597,293.754,211.698,293.768,211.708z"/>
					<path fill="#1B7F50" d="M249.352,256.586c-0.143-0.137-0.31-0.292-0.472-0.452c-0.84-0.837-1.67-1.685-2.519-2.513
						c-2.135-2.083-3.196-4.619-3.242-7.594c-0.057-3.691-1.397-6.852-3.953-9.5c-0.903-0.936-1.82-1.861-2.755-2.764
						c-0.431-0.416-0.566-0.649,0.14-0.926c2.168-0.852,4.325-1.733,6.459-2.666c0.633-0.276,0.779-0.006,0.97,0.481
						c2.14,5.479,5.871,9.515,11.115,12.144c0.562,0.282,0.584,0.526,0.351,1.034c-1.868,4.061-3.713,8.134-5.574,12.198
						C249.772,256.245,249.767,256.58,249.352,256.586z"/>
					<path fill="#1B7F50" d="M279.981,234.108c-0.163,0.237-0.276,0.432-0.418,0.604c-0.782,0.946-1.667,1.788-2.585,2.603
						c-0.459,0.408-0.757,0.316-1.144-0.09c-0.924-0.969-1.886-1.902-2.833-2.849c-7.468-7.468-14.927-14.945-22.421-22.387
						c-0.672-0.667-0.734-1.112-0.051-1.739c0.759-0.698,1.491-1.428,2.206-2.173c0.521-0.543,0.891-0.45,1.402,0.072
						c2.597,2.651,5.233,5.265,7.857,7.891c5.734,5.739,11.468,11.477,17.201,17.218
						C279.459,233.521,279.703,233.806,279.981,234.108z"/>
				</g>
			</g>
		</g>
	</g>
	<g>
		<g id="CphEfc.tif_00000075129150860160492950000014052639477278517925_" opacity="0.61">
			<g>
				<g>
					<path fill="#1B7F50" d="M320.818,46.894c0.064-2.924,0.578-5.412,1.573-7.81c0.327-0.789,0.574-0.779,1.149-0.201
						c7.991,8.025,15.994,16.038,24.018,24.031c0.652,0.65,0.538,0.864-0.244,1.205c-11.636,5.075-25.134-2.853-26.352-15.499
						C320.896,47.935,320.847,47.248,320.818,46.894z"/>
					<path fill="#1B7F50" d="M339.891,27.633c13.433,0.048,22.632,13.819,17.507,26.207c-0.534,1.291-0.535,1.292-1.485,0.343
						c-7.871-7.872-15.742-15.745-23.613-23.619c-0.949-0.949-0.95-0.956,0.328-1.488C334.953,28.108,337.383,27.67,339.891,27.633z
						"/>
					<path fill="#1B7F50" d="M368.675,35.721c0.113,0.599-0.199,0.602-0.379,0.677c-2.221,0.926-4.455,1.821-6.668,2.765
						c-0.538,0.23-0.664-0.036-0.817-0.43c-2.159-5.563-5.926-9.661-11.264-12.306c-0.485-0.24-0.452-0.484-0.268-0.887
						c1.874-4.102,3.747-8.205,5.593-12.32c0.282-0.629,0.499-0.619,0.939-0.153c0.867,0.918,1.775,1.797,2.671,2.687
						c2.057,2.041,3.098,4.521,3.139,7.407c0.056,3.917,1.528,7.205,4.297,9.94c0.789,0.78,1.565,1.574,2.36,2.349
						C368.442,35.611,368.661,35.712,368.675,35.721z"/>
					<path fill="#1B7F50" d="M324.26,80.599c-0.143-0.137-0.31-0.292-0.472-0.452c-0.84-0.837-1.67-1.685-2.519-2.513
						c-2.135-2.083-3.196-4.619-3.242-7.594c-0.057-3.691-1.397-6.852-3.953-9.5c-0.903-0.936-1.819-1.861-2.755-2.764
						c-0.431-0.416-0.566-0.649,0.14-0.926c2.168-0.852,4.325-1.733,6.459-2.666c0.633-0.276,0.779-0.006,0.97,0.481
						c2.14,5.479,5.871,9.515,11.115,12.144c0.562,0.282,0.584,0.526,0.351,1.034c-1.868,4.061-3.713,8.134-5.574,12.198
						C324.679,80.258,324.674,80.594,324.26,80.599z"/>
					<path fill="#1B7F50" d="M354.888,58.121c-0.163,0.237-0.276,0.432-0.418,0.604c-0.782,0.946-1.667,1.788-2.585,2.603
						c-0.459,0.408-0.757,0.316-1.144-0.09c-0.924-0.969-1.886-1.902-2.833-2.849c-7.468-7.468-14.927-14.945-22.421-22.387
						c-0.672-0.667-0.734-1.112-0.051-1.739c0.759-0.698,1.491-1.428,2.206-2.173c0.521-0.543,0.891-0.45,1.402,0.072
						c2.597,2.651,5.233,5.265,7.857,7.891c5.734,5.739,11.468,11.477,17.201,17.218C354.366,57.535,354.61,57.819,354.888,58.121z"
						/>
				</g>
			</g>
		</g>
		<g id="CphEfc.tif_00000042709330277949271390000006445273654278110876_" opacity="0.61">
			<g>
				<g>
					<path fill="#1B7F50" d="M320.818,134.887c0.064-2.924,0.578-5.412,1.573-7.81c0.327-0.789,0.574-0.779,1.149-0.201
						c7.991,8.025,15.994,16.038,24.018,24.031c0.652,0.65,0.538,0.864-0.244,1.205c-11.636,5.075-25.134-2.853-26.352-15.499
						C320.896,135.928,320.847,135.242,320.818,134.887z"/>
					<path fill="#1B7F50" d="M339.891,115.626c13.433,0.048,22.632,13.819,17.507,26.207c-0.534,1.291-0.535,1.292-1.485,0.343
						c-7.871-7.872-15.742-15.745-23.613-23.619c-0.949-0.949-0.95-0.956,0.328-1.488
						C334.953,116.101,337.383,115.663,339.891,115.626z"/>
					<path fill="#1B7F50" d="M368.675,123.714c0.113,0.599-0.199,0.602-0.379,0.677c-2.221,0.926-4.455,1.821-6.668,2.765
						c-0.538,0.23-0.664-0.036-0.817-0.43c-2.159-5.563-5.926-9.661-11.264-12.306c-0.485-0.24-0.452-0.484-0.268-0.887
						c1.874-4.102,3.747-8.205,5.593-12.32c0.282-0.629,0.499-0.619,0.939-0.153c0.867,0.918,1.775,1.797,2.671,2.687
						c2.057,2.041,3.098,4.521,3.139,7.407c0.056,3.917,1.528,7.205,4.297,9.94c0.789,0.78,1.565,1.574,2.36,2.349
						C368.442,123.604,368.661,123.705,368.675,123.714z"/>
					<path fill="#1B7F50" d="M324.26,168.592c-0.143-0.137-0.31-0.292-0.472-0.452c-0.84-0.837-1.67-1.685-2.519-2.513
						c-2.135-2.083-3.196-4.619-3.242-7.594c-0.057-3.691-1.397-6.852-3.953-9.5c-0.903-0.936-1.819-1.861-2.755-2.764
						c-0.431-0.416-0.566-0.649,0.14-0.926c2.168-0.852,4.325-1.733,6.459-2.666c0.633-0.276,0.779-0.006,0.97,0.481
						c2.14,5.479,5.871,9.515,11.115,12.144c0.562,0.282,0.584,0.526,0.351,1.034c-1.868,4.061-3.713,8.134-5.574,12.198
						C324.679,168.251,324.674,168.587,324.26,168.592z"/>
					<path fill="#1B7F50" d="M354.888,146.115c-0.163,0.237-0.276,0.432-0.418,0.604c-0.782,0.946-1.667,1.788-2.585,2.603
						c-0.459,0.408-0.757,0.316-1.144-0.09c-0.924-0.969-1.886-1.902-2.833-2.849c-7.468-7.468-14.927-14.945-22.421-22.387
						c-0.672-0.667-0.734-1.112-0.051-1.739c0.759-0.698,1.491-1.428,2.206-2.173c0.521-0.543,0.891-0.45,1.402,0.072
						c2.597,2.651,5.233,5.265,7.857,7.891c5.734,5.739,11.468,11.477,17.201,17.218
						C354.366,145.528,354.61,145.812,354.888,146.115z"/>
				</g>
			</g>
		</g>
		<g id="CphEfc.tif_00000091008059325767755630000012930988304069618823_" opacity="0.61">
			<g>
				<g>
					<path fill="#1B7F50" d="M320.818,222.88c0.064-2.924,0.578-5.412,1.573-7.81c0.327-0.789,0.574-0.779,1.149-0.201
						c7.991,8.025,15.994,16.038,24.018,24.031c0.652,0.65,0.538,0.864-0.244,1.205c-11.636,5.075-25.134-2.853-26.352-15.499
						C320.896,223.921,320.847,223.235,320.818,222.88z"/>
					<path fill="#1B7F50" d="M339.891,203.619c13.433,0.048,22.632,13.819,17.507,26.207c-0.534,1.291-0.535,1.292-1.485,0.343
						c-7.871-7.872-15.742-15.745-23.613-23.619c-0.949-0.949-0.95-0.956,0.328-1.488
						C334.953,204.095,337.383,203.656,339.891,203.619z"/>
					<path fill="#1B7F50" d="M368.675,211.708c0.113,0.599-0.199,0.602-0.379,0.677c-2.221,0.926-4.455,1.821-6.668,2.765
						c-0.538,0.23-0.664-0.036-0.817-0.43c-2.159-5.563-5.926-9.661-11.264-12.306c-0.485-0.24-0.452-0.484-0.268-0.887
						c1.874-4.102,3.747-8.205,5.593-12.32c0.282-0.629,0.499-0.619,0.939-0.153c0.867,0.918,1.775,1.797,2.671,2.687
						c2.057,2.041,3.098,4.521,3.139,7.407c0.056,3.917,1.528,7.205,4.297,9.94c0.789,0.78,1.565,1.574,2.36,2.349
						C368.442,211.597,368.661,211.698,368.675,211.708z"/>
					<path fill="#1B7F50" d="M324.26,256.586c-0.143-0.137-0.31-0.292-0.472-0.452c-0.84-0.837-1.67-1.685-2.519-2.513
						c-2.135-2.083-3.196-4.619-3.242-7.594c-0.057-3.691-1.397-6.852-3.953-9.5c-0.903-0.936-1.819-1.861-2.755-2.764
						c-0.431-0.416-0.566-0.649,0.14-0.926c2.168-0.852,4.325-1.733,6.459-2.666c0.633-0.276,0.779-0.006,0.97,0.481
						c2.14,5.479,5.871,9.515,11.115,12.144c0.562,0.282,0.584,0.526,0.351,1.034c-1.868,4.061-3.713,8.134-5.574,12.198
						C324.679,256.245,324.674,256.58,324.26,256.586z"/>
					<path fill="#1B7F50" d="M354.888,234.108c-0.163,0.237-0.276,0.432-0.418,0.604c-0.782,0.946-1.667,1.788-2.585,2.603
						c-0.459,0.408-0.757,0.316-1.144-0.09c-0.924-0.969-1.886-1.902-2.833-2.849c-7.468-7.468-14.927-14.945-22.421-22.387
						c-0.672-0.667-0.734-1.112-0.051-1.739c0.759-0.698,1.491-1.428,2.206-2.173c0.521-0.543,0.891-0.45,1.402,0.072
						c2.597,2.651,5.233,5.265,7.857,7.891c5.734,5.739,11.468,11.477,17.201,17.218
						C354.366,233.521,354.61,233.806,354.888,234.108z"/>
				</g>
			</g>
		</g>
	</g>
	<g>
		<g>
			<path fill="#1B7F50" d="M128.994,99.992l-15.016,71.623H94.867l-16.746-70.531l17.93-2.275l7.553,32.398l6.279-32.398
				L128.994,99.992z"/>
			<path fill="#1B7F50" d="M174.316,171.614h-39.68V99.992h37.859v18.383l-18.93,1.183l0.637,9.465h17.748v14.743h-16.564v8.282
				h18.93V171.614z"/>
			<path fill="#1B7F50" d="M225.736,168.702l-16.291,2.366l-12.104-18.565v17.929l-19.113,1.183l-2.002-71.805
				c-0.363-0.06-0.545-0.182-0.545-0.364c0-0.423,2.031-0.637,6.098-0.637c6.611,0,12.33,0.259,17.154,0.773
				c4.824,0.516,8.783,1.654,11.877,3.413c3.094,1.761,5.383,4.309,6.871,7.645c1.486,3.337,2.229,7.827,2.229,13.469
				c0,6.007-2.699,11.801-8.1,17.383L225.736,168.702z M195.611,129.933c4.611-0.91,6.918-3.063,6.918-6.461v-0.546
				c-0.184-1.759-0.941-3.276-2.275-4.55c-1.336-1.274-3.277-2.062-5.824-2.366L195.611,129.933z"/>
			<path fill="#1B7F50" d="M242.57,98.809c11.043,0,19.385,3.262,25.027,9.783c5.643,6.522,8.465,15.912,8.465,28.167
				c0,11.284-2.809,19.916-8.42,25.892c-5.611,5.977-13.969,8.964-25.072,8.964c-1.881,0-3.625-0.075-5.232-0.228
				c-1.609-0.15-3.08-0.378-4.414-0.683l-3.549-70.257C233.197,99.354,237.596,98.809,242.57,98.809z M248.85,148.862
				c1.457-0.424,2.76-1.106,3.914-2.048c1.152-0.939,2.139-2.047,2.957-3.321c0.82-1.274,1.457-2.669,1.912-4.187
				c0.455-1.516,0.682-3.062,0.682-4.641c0-1.577-0.242-3.094-0.727-4.55c-0.486-1.456-1.184-2.76-2.094-3.914
				c-0.91-1.152-1.973-2.123-3.186-2.912c-1.215-0.788-2.549-1.304-4.004-1.547L248.85,148.862z"/>
			<path fill="#1B7F50" d="M321.564,171.614h-39.68V99.992h37.859v18.383l-18.93,1.183l0.637,9.465h17.748v14.743h-16.564v8.282
				h18.93V171.614z"/>
		</g>
		<g>
			<path fill="#41D23D" stroke="#1B7F50" stroke-width="2" stroke-linejoin="round" stroke-miterlimit="10" d="M122.766,95.839
				l-15.016,71.623H88.638L71.893,96.931l17.929-2.275l7.554,32.398l6.279-32.398L122.766,95.839z"/>
			<path fill="#41D23D" stroke="#1B7F50" stroke-width="2" stroke-linejoin="round" stroke-miterlimit="10" d="M168.088,167.462
				h-39.68V95.839h37.859v18.383l-18.93,1.183l0.637,9.465h17.747v14.743h-16.563v8.282h18.93V167.462z"/>
			<path fill="#41D23D" stroke="#1B7F50" stroke-width="2" stroke-linejoin="round" stroke-miterlimit="10" d="M219.507,164.55
				l-16.291,2.366l-12.104-18.565v17.929L172,167.462l-2.002-71.805c-0.364-0.06-0.546-0.182-0.546-0.364
				c0-0.423,2.032-0.637,6.098-0.637c6.612,0,12.331,0.259,17.155,0.773c4.823,0.516,8.782,1.654,11.876,3.413
				c3.095,1.761,5.384,4.309,6.871,7.645c1.486,3.337,2.229,7.827,2.229,13.469c0,6.007-2.7,11.801-8.1,17.383L219.507,164.55z
				 M189.383,125.78c4.61-0.91,6.917-3.063,6.917-6.461v-0.546c-0.183-1.759-0.941-3.276-2.275-4.55
				c-1.335-1.274-3.276-2.062-5.824-2.366L189.383,125.78z"/>
			<path fill="#41D23D" stroke="#1B7F50" stroke-width="2" stroke-linejoin="round" stroke-miterlimit="10" d="M236.342,94.656
				c11.042,0,19.385,3.262,25.027,9.783c5.643,6.522,8.464,15.912,8.464,28.167c0,11.285-2.808,19.917-8.419,25.892
				c-5.612,5.977-13.97,8.964-25.072,8.964c-1.882,0-3.626-0.075-5.233-0.228c-1.608-0.15-3.08-0.378-4.414-0.683l-3.549-70.258
				C226.968,95.202,231.366,94.656,236.342,94.656z M242.621,144.71c1.456-0.424,2.76-1.106,3.913-2.048
				c1.152-0.939,2.139-2.047,2.958-3.321s1.456-2.669,1.911-4.187c0.455-1.516,0.683-3.063,0.683-4.642
				c0-1.577-0.243-3.094-0.728-4.55c-0.486-1.456-1.184-2.76-2.094-3.914c-0.91-1.152-1.973-2.123-3.186-2.912
				c-1.214-0.788-2.548-1.304-4.004-1.547L242.621,144.71z"/>
			<path fill="#41D23D" stroke="#1B7F50" stroke-width="2" stroke-linejoin="round" stroke-miterlimit="10" d="M315.336,167.462
				h-39.68V95.839h37.859v18.383l-18.93,1.183l0.637,9.465h17.747v14.743h-16.563v8.282h18.93V167.462z"/>
		</g>
	</g>
</g>
</svg>
