<?xml version="1.0" encoding="utf-8"?>
<!-- Generator: Adobe Illustrator 26.5.0, SVG Export Plug-In . SVG Version: 6.00 Build 0)  -->
<svg version="1.1" id="Capa_1" xmlns="http://www.w3.org/2000/svg" xmlns:xlink="http://www.w3.org/1999/xlink" x="0px" y="0px"
	 viewBox="0 0 392 268" enable-background="new 0 0 392 268" xml:space="preserve">
<g>
	<rect y="0" fill="#FD8A25" width="392" height="268"/>
	<g>
		<path fill="#FED130" d="M17.084,189.121c-5.695-1.16-11.389-3.058-17.084-5.906c0-5.695,0-11.389,0-17.084
			c5.695,0,11.389,0,17.084,0C17.084,174.451,17.084,182.115,17.084,189.121z"/>
		<path fill="#FED130" d="M34.168,210.142c-5.695,0.141-11.389-0.422-17.084-1.969c0-5.695,0-12.045,0-19.052
			c5.695,1.16,11.389,1.582,17.084,1.476C34.168,197.933,34.168,204.448,34.168,210.142z"/>
		<path fill="#FED130" d="M51.252,188.911c-5.695,0.949-11.389,1.582-17.084,1.687c0-7.335,0-15.49,0-24.466
			c5.694,0,11.389,0,17.084,0C51.252,174.358,51.252,181.95,51.252,188.911z"/>
		<path fill="#FED130" d="M68.336,203.112c-5.694,1.828-11.389,3.515-17.084,4.781c0-5.694,0-12.022,0-18.982
			c5.695-0.949,11.389-2.215,17.084-3.586C68.336,191.488,68.336,197.417,68.336,203.112z"/>
		<path fill="#FED130" d="M85.42,181.107c-5.695,1.371-11.389,2.847-17.084,4.218c0-6.163,0-12.561,0-19.193
			c5.695,0,11.389,0,17.084,0C85.42,170.889,85.42,175.881,85.42,181.107z"/>
		<path fill="#FED130" d="M102.503,192.707c-5.695,1.265-11.389,2.953-17.084,4.781c0-5.695,0-11.155,0-16.381
			c5.695-1.371,11.389-2.636,17.084-3.586C102.503,181.951,102.503,187.012,102.503,192.707z"/>
		<path fill="#FED130" d="M119.587,175.834c-5.695,0.105-11.389,0.738-17.084,1.687c0-4.429,0-8.226,0-11.389
			c5.695,0,11.389,0,17.084,0C119.587,168.546,119.587,171.78,119.587,175.834z"/>
		<path fill="#FED130" d="M136.671,192.426c-5.695-1.547-11.389-2.109-17.084-1.969c0-5.695,0-10.569,0-14.623
			c5.695-0.105,11.389,0.316,17.084,1.476C136.671,181.693,136.671,186.731,136.671,192.426z"/>
		<path fill="#FED130" d="M153.755,183.216c-5.695-2.847-11.389-4.746-17.084-5.906c0-4.382,0-8.108,0-11.178
			c5.695,0,11.389,0,17.084,0C153.755,171.826,153.755,177.521,153.755,183.216z"/>
		<path fill="#FED130" d="M17.084,223.289c-5.695-1.16-11.389-3.058-17.084-5.906c0-5.695,0-11.389,0-17.084
			c5.695,3.796,11.389,6.327,17.084,7.874C17.084,213.868,17.084,218.907,17.084,223.289z"/>
		<path fill="#FED130" d="M34.168,234.468c-5.695,0-11.389,0-17.084,0c0-3.07,0-6.796,0-11.178
			c5.695,1.16,11.389,1.582,17.084,1.476C34.168,228.82,34.168,232.054,34.168,234.468z"/>
		<path fill="#FED130" d="M51.252,223.078c-5.695,0.949-11.389,1.582-17.084,1.687c0-4.054,0-8.929,0-14.623
			c5.694-0.141,11.389-0.984,17.084-2.25C51.252,213.587,51.252,218.649,51.252,223.078z"/>
		<path fill="#FED130" d="M68.336,234.468c-5.694,0-11.389,0-17.084,0c0-3.164,0-6.96,0-11.389
			c5.695-0.949,11.389-2.215,17.084-3.585C68.336,224.719,68.336,229.71,68.336,234.468z"/>
		<path fill="#FED130" d="M85.42,215.275c-5.695,1.371-11.389,2.847-17.084,4.218c0-5.226,0-10.686,0-16.381
			c5.695-1.828,11.389-3.796,17.084-5.624C85.42,203.182,85.42,209.111,85.42,215.275z"/>
		<path fill="#FED130" d="M102.503,234.468c-5.695,0-11.389,0-17.084,0c0-6.632,0-13.03,0-19.193
			c5.695-1.371,11.389-2.636,17.084-3.585C102.503,218.649,102.503,226.242,102.503,234.468z"/>
		<path fill="#FED130" d="M119.587,210.002c-5.695,0.106-11.389,0.738-17.084,1.687c0-6.96,0-13.288,0-18.982
			c5.695-1.265,11.389-2.109,17.084-2.25C119.587,196.152,119.587,202.667,119.587,210.002z"/>
		<path fill="#FED130" d="M136.671,234.468c-5.695,0-11.389,0-17.084,0c0-8.976,0-17.131,0-24.466
			c5.695-0.105,11.389,0.316,17.084,1.476C136.671,218.485,136.671,226.148,136.671,234.468z"/>
		<path fill="#FED130" d="M153.755,217.384c-5.695-2.847-11.389-4.745-17.084-5.906c0-7.007,0-13.358,0-19.052
			c5.695,1.547,11.389,4.078,17.084,7.874C153.755,205.995,153.755,211.689,153.755,217.384z"/>
	</g>
	<g>
		<path fill="#FB3D2C" d="M255.329,67.719c-5.695-1.16-11.389-3.058-17.084-5.906c0-5.695,0-11.389,0-17.084
			c5.695,0,11.389,0,17.084,0C255.329,53.049,255.329,60.712,255.329,67.719z"/>
		<path fill="#FB3D2C" d="M272.413,88.74c-5.695,0.141-11.389-0.422-17.084-1.969c0-5.695,0-12.045,0-19.052
			c5.695,1.16,11.389,1.582,17.084,1.476C272.412,76.531,272.412,83.046,272.413,88.74z"/>
		<path fill="#FB3D2C" d="M289.496,67.509c-5.695,0.949-11.389,1.582-17.084,1.687c0-7.335,0-15.49,0-24.466
			c5.694,0,11.389,0,17.084,0C289.497,52.956,289.497,60.548,289.496,67.509z"/>
		<path fill="#FB3D2C" d="M306.58,81.71c-5.695,1.828-11.389,3.515-17.084,4.781c0-5.694,0-12.022,0-18.982
			c5.695-0.949,11.389-2.215,17.084-3.586C306.58,70.086,306.58,76.015,306.58,81.71z"/>
		<path fill="#FB3D2C" d="M323.664,59.705c-5.695,1.371-11.389,2.847-17.084,4.218c0-6.163,0-12.561,0-19.193
			c5.695,0,11.389,0,17.084,0C323.664,49.487,323.664,54.479,323.664,59.705z"/>
		<path fill="#FB3D2C" d="M340.748,71.305c-5.695,1.265-11.389,2.953-17.084,4.781c0-5.695,0-11.155,0-16.381
			c5.695-1.371,11.389-2.636,17.084-3.586C340.748,60.548,340.748,65.61,340.748,71.305z"/>
		<path fill="#FB3D2C" d="M357.832,54.432c-5.695,0.105-11.389,0.738-17.084,1.687c0-4.429,0-8.226,0-11.389
			c5.695,0,11.389,0,17.084,0C357.832,47.144,357.832,50.378,357.832,54.432z"/>
		<path fill="#FB3D2C" d="M374.916,71.024c-5.695-1.547-11.389-2.109-17.084-1.969c0-5.695,0-10.569,0-14.623
			c5.695-0.105,11.389,0.316,17.084,1.476C374.916,60.29,374.916,65.329,374.916,71.024z"/>
		<path fill="#FB3D2C" d="M392,61.814c-5.695-2.847-11.389-4.746-17.084-5.906c0-4.382,0-8.108,0-11.178c5.695,0,11.389,0,17.084,0
			C392,50.424,392,56.119,392,61.814z"/>
		<path fill="#FB3D2C" d="M255.329,101.887c-5.695-1.16-11.389-3.058-17.084-5.906c0-5.695,0-11.389,0-17.084
			c5.695,3.796,11.389,6.327,17.084,7.874C255.329,92.466,255.329,97.505,255.329,101.887z"/>
		<path fill="#FB3D2C" d="M272.413,113.065c-5.695,0-11.389,0-17.084,0c0-3.07,0-6.796,0-11.178
			c5.695,1.16,11.389,1.582,17.084,1.476C272.412,107.418,272.412,110.652,272.413,113.065z"/>
		<path fill="#FB3D2C" d="M289.496,101.676c-5.695,0.949-11.389,1.582-17.084,1.687c0-4.054,0-8.929,0-14.623
			c5.694-0.141,11.389-0.984,17.084-2.25C289.497,92.185,289.497,97.247,289.496,101.676z"/>
		<path fill="#FB3D2C" d="M306.58,113.065c-5.695,0-11.389,0-17.084,0c0-3.164,0-6.96,0-11.389
			c5.695-0.949,11.389-2.215,17.084-3.585C306.58,103.317,306.58,108.308,306.58,113.065z"/>
		<path fill="#FB3D2C" d="M323.664,93.873c-5.695,1.371-11.389,2.847-17.084,4.218c0-5.226,0-10.686,0-16.381
			c5.695-1.828,11.389-3.796,17.084-5.624C323.664,81.78,323.664,87.709,323.664,93.873z"/>
		<path fill="#FB3D2C" d="M340.748,113.065c-5.695,0-11.389,0-17.084,0c0-6.632,0-13.03,0-19.193
			c5.695-1.371,11.389-2.636,17.084-3.585C340.748,97.247,340.748,104.84,340.748,113.065z"/>
		<path fill="#FB3D2C" d="M357.832,88.6c-5.695,0.106-11.389,0.738-17.084,1.687c0-6.96,0-13.288,0-18.982
			c5.695-1.265,11.389-2.109,17.084-2.25C357.832,74.75,357.832,81.265,357.832,88.6z"/>
		<path fill="#FB3D2C" d="M374.916,113.065c-5.695,0-11.389,0-17.084,0c0-8.976,0-17.131,0-24.466
			c5.695-0.105,11.389,0.316,17.084,1.476C374.916,97.083,374.916,104.746,374.916,113.065z"/>
		<path fill="#FB3D2C" d="M392,95.982c-5.695-2.847-11.389-4.745-17.084-5.906c0-7.007,0-13.358,0-19.052
			c5.695,1.547,11.389,4.078,17.084,7.874C392,84.593,392,90.287,392,95.982z"/>
	</g>
	<g>
		<g>
			<path fill="#421D70" d="M139.101,96.361l-22.113,42.865v46.381H93.399v-46.381L67.658,97.042l23.587-2.155l12.134,19.278
				l11.453-19.278L139.101,96.361z"/>
			<path fill="#421D70" d="M171.759,94.887c5.141,0,9.79,1.361,13.948,4.083c4.157,2.722,7.692,6.464,10.604,11.227
				c2.909,4.763,5.141,10.396,6.69,16.897c1.549,6.503,2.325,13.534,2.325,21.093c0,5.822-0.7,11.039-2.099,15.649
				c-1.399,4.611-3.44,8.524-6.123,11.736c-2.685,3.215-6.011,5.689-9.979,7.428c-3.969,1.74-8.487,2.608-13.552,2.608
				c-11.113,0-19.524-3.969-25.231-11.907c-5.709-7.938-8.562-19.806-8.562-35.607c0-6.351,0.698-12.191,2.098-17.521
				c1.398-5.33,3.459-9.884,6.181-13.665c2.722-3.779,6.066-6.728,10.036-8.845C162.063,95.947,166.617,94.887,171.759,94.887z
				 M173.233,160.887c1.361,0,2.626-0.491,3.799-1.475c1.171-0.981,2.173-2.268,3.005-3.855c0.831-1.588,1.475-3.42,1.928-5.5
				c0.454-2.078,0.681-4.253,0.681-6.521c0-14.516-3.855-21.773-11.566-21.773c-5.369,0-8.052,5.557-8.052,16.67
				c0,3.328,0.227,6.37,0.681,9.129c0.453,2.761,1.134,5.123,2.041,7.088c0.907,1.967,1.984,3.498,3.231,4.593
				C170.229,160.339,171.646,160.887,173.233,160.887z"/>
			<path fill="#421D70" d="M257.035,185.607h-46.153V97.042l21.999-2.155v65.886h24.154V185.607z"/>
			<path fill="#421D70" d="M288.673,94.887c5.141,0,9.79,1.361,13.948,4.083c4.157,2.722,7.692,6.464,10.604,11.227
				c2.909,4.763,5.141,10.396,6.69,16.897c1.549,6.503,2.325,13.534,2.325,21.093c0,5.822-0.7,11.039-2.099,15.649
				c-1.399,4.611-3.44,8.524-6.123,11.736c-2.685,3.215-6.011,5.689-9.979,7.428c-3.969,1.74-8.487,2.608-13.552,2.608
				c-11.113,0-19.524-3.969-25.231-11.907c-5.709-7.938-8.562-19.806-8.562-35.607c0-6.351,0.698-12.191,2.098-17.521
				c1.398-5.33,3.459-9.884,6.181-13.665c2.722-3.779,6.066-6.728,10.036-8.845C278.978,95.947,283.531,94.887,288.673,94.887z
				 M290.147,160.887c1.361,0,2.626-0.491,3.799-1.475c1.171-0.981,2.173-2.268,3.005-3.855c0.831-1.588,1.475-3.42,1.928-5.5
				c0.454-2.078,0.681-4.253,0.681-6.521c0-14.516-3.855-21.773-11.566-21.773c-5.369,0-8.052,5.557-8.052,16.67
				c0,3.328,0.227,6.37,0.681,9.129c0.453,2.761,1.134,5.123,2.041,7.088c0.907,1.967,1.984,3.498,3.231,4.593
				C287.143,160.339,288.56,160.887,290.147,160.887z"/>
		</g>
	</g>
	<g>
		<g>
			<path fill="#FFFFFF" stroke="#421D70" stroke-width="3" stroke-miterlimit="10" d="M145.713,86.01L123.6,128.875v46.381h-23.588
				v-46.381L74.271,86.69l23.587-2.155l12.134,19.278l11.453-19.278L145.713,86.01z"/>
			<path fill="#FFFFFF" stroke="#421D70" stroke-width="3" stroke-miterlimit="10" d="M178.371,84.535
				c5.141,0,9.79,1.361,13.948,4.083c4.157,2.722,7.692,6.464,10.604,11.227c2.909,4.763,5.141,10.396,6.69,16.897
				c1.549,6.503,2.325,13.534,2.325,21.093c0,5.822-0.7,11.039-2.099,15.649c-1.399,4.611-3.44,8.524-6.123,11.736
				c-2.685,3.215-6.011,5.689-9.979,7.428c-3.969,1.74-8.487,2.608-13.552,2.608c-11.113,0-19.524-3.969-25.231-11.907
				c-5.709-7.938-8.562-19.806-8.562-35.607c0-6.351,0.698-12.191,2.098-17.521c1.398-5.33,3.459-9.884,6.181-13.665
				c2.722-3.779,6.066-6.728,10.036-8.845C168.676,85.595,173.229,84.535,178.371,84.535z M179.846,150.535
				c1.361,0,2.626-0.491,3.799-1.475c1.171-0.981,2.173-2.268,3.005-3.855c0.831-1.588,1.475-3.42,1.928-5.5
				c0.454-2.078,0.681-4.253,0.681-6.521c0-14.515-3.855-21.773-11.566-21.773c-5.369,0-8.052,5.557-8.052,16.67
				c0,3.328,0.227,6.37,0.681,9.129c0.453,2.761,1.134,5.123,2.041,7.088c0.907,1.967,1.984,3.498,3.231,4.593
				C176.841,149.987,178.258,150.535,179.846,150.535z"/>
			<path fill="#FFFFFF" stroke="#421D70" stroke-width="3" stroke-miterlimit="10" d="M263.647,175.256h-46.153V86.69l21.999-2.155
				v65.886h24.154V175.256z"/>
			<path fill="#FFFFFF" stroke="#421D70" stroke-width="3" stroke-miterlimit="10" d="M295.285,84.535
				c5.141,0,9.79,1.361,13.948,4.083c4.157,2.722,7.692,6.464,10.604,11.227c2.909,4.763,5.141,10.396,6.69,16.897
				c1.549,6.503,2.325,13.534,2.325,21.093c0,5.822-0.7,11.039-2.099,15.649c-1.399,4.611-3.44,8.524-6.123,11.736
				c-2.685,3.215-6.011,5.689-9.979,7.428c-3.969,1.74-8.487,2.608-13.552,2.608c-11.113,0-19.524-3.969-25.231-11.907
				c-5.709-7.938-8.562-19.806-8.562-35.607c0-6.351,0.698-12.191,2.098-17.521c1.398-5.33,3.459-9.884,6.181-13.665
				c2.722-3.779,6.066-6.728,10.036-8.845C285.59,85.595,290.144,84.535,295.285,84.535z M296.76,150.535
				c1.361,0,2.626-0.491,3.799-1.475c1.171-0.981,2.173-2.268,3.005-3.855c0.831-1.588,1.475-3.42,1.928-5.5
				c0.454-2.078,0.681-4.253,0.681-6.521c0-14.515-3.855-21.773-11.566-21.773c-5.369,0-8.052,5.557-8.052,16.67
				c0,3.328,0.227,6.37,0.681,9.129c0.453,2.761,1.134,5.123,2.041,7.088c0.907,1.967,1.984,3.498,3.231,4.593
				C293.755,149.987,295.172,150.535,296.76,150.535z"/>
		</g>
	</g>
</g>
</svg>
