<?xml version="1.0" encoding="utf-8"?>
<!-- Generator: Adobe Illustrator 26.5.0, SVG Export Plug-In . SVG Version: 6.00 Build 0)  -->
<svg version="1.1" id="Capa_1" xmlns="http://www.w3.org/2000/svg" xmlns:xlink="http://www.w3.org/1999/xlink" x="0px" y="0px"
	 viewBox="0 0 392 268" enable-background="new 0 0 392 268" xml:space="preserve">
<g>
	<defs>
		<rect id="SVGID_00000073698824211897104580000006098695070590471857_" x="-1.538" width="393.538" height="268"/>
	</defs>
	<clipPath id="SVGID_00000050660967719584200930000017044938669667487890_">
		<use xlink:href="#SVGID_00000073698824211897104580000006098695070590471857_"  overflow="visible"/>
	</clipPath>
	
		<rect x="-1.538" clip-path="url(#SVGID_00000050660967719584200930000017044938669667487890_)" fill="#FB3D2C" width="393.538" height="268"/>
	
		<g id="ssG007.tif_00000035495940440277782720000016187224065807782787_" clip-path="url(#SVGID_00000050660967719584200930000017044938669667487890_)">
		<g>
			<path fill="#DD3128" d="M38.281,81.434c6.377,0,12.754,0.035,19.13-0.027c1.417-0.014,1.787,0.224,1.486,1.767
				c-1.148,5.896-0.725,11.746,1.07,17.48c1.81,5.78,1.281,11.717,0.94,17.574c-0.24,4.116-3.809,6.608-8.568,6.653
				c-6.684,0.064-13.368,0.019-20.053,0.019c-2.843,0-5.687,0.047-8.528-0.016c-5.564-0.123-8.677-3.262-8.734-8.787
				c-0.062-6.05-0.121-12.056,1.769-17.973c1.534-4.8,1.43-9.84,0.483-14.797c-0.293-1.532,0.066-1.949,1.643-1.929
				C25.373,81.482,31.827,81.434,38.281,81.434z"/>
			<path fill="#DD3128" d="M38.011,74.53c-6.917,0-13.835-0.043-20.752,0.033c-1.544,0.017-2.107-0.431-2.301-1.998
				c-0.59-4.756-0.521-9.477,0.151-14.214c0.195-1.373,0.703-1.862,2.176-1.855c13.835,0.062,27.67,0.063,41.504,0.001
				c1.576-0.007,2.104,0.5,2.3,2.017c0.612,4.743,0.656,9.457,0.075,14.211c-0.189,1.544-0.779,1.842-2.171,1.831
				C52,74.499,45.006,74.53,38.011,74.53z"/>
			<path fill="#DD3128" d="M38.084,49.634c-6.294,0-12.589-0.043-18.883,0.031c-1.55,0.018-1.972-0.28-1.457-1.867
				c1.297-3.999,2.456-8.044,3.634-12.081c0.731-2.503,1.173-5.073,1.367-7.667c0.084-1.124,0.367-1.632,1.6-1.627
				c9.134,0.037,18.269,0.02,27.403,0.019c0.791,0,1.509-0.036,1.597,1.107c0.542,7.016,3.137,13.535,5.05,20.213
				c0.455,1.589,0.173,1.922-1.429,1.903C50.673,49.59,44.378,49.634,38.084,49.634z"/>
			<path fill="#DD3128" d="M37.978,19.535c-3.995,0-7.992-0.091-11.983,0.039c-1.942,0.063-2.917-0.271-2.393-2.493
				c0.313-1.326,0.107-2.743,0.499-4.093c1.017-3.509,3.796-5.665,7.429-5.673c4.379-0.01,8.757-0.011,13.136,0
				c3.842,0.009,6.871,2.561,7.586,6.364c1.102,5.856,1.102,5.856-4.825,5.856C44.278,19.535,41.128,19.535,37.978,19.535z"/>
		</g>
	</g>
	
		<g id="ssG007.tif_00000057847868053449332350000014329583423041025947_" clip-path="url(#SVGID_00000050660967719584200930000017044938669667487890_)">
		<g>
			<path fill="#DD3128" d="M38.281,219.693c6.377,0,12.754,0.035,19.13-0.027c1.417-0.014,1.787,0.224,1.486,1.767
				c-1.148,5.896-0.725,11.746,1.07,17.48c1.81,5.78,1.281,11.717,0.94,17.574c-0.24,4.116-3.809,6.608-8.568,6.653
				c-6.684,0.064-13.368,0.019-20.053,0.019c-2.843,0-5.687,0.047-8.528-0.016c-5.564-0.123-8.677-3.262-8.734-8.787
				c-0.062-6.05-0.121-12.056,1.769-17.973c1.534-4.8,1.43-9.84,0.483-14.797c-0.293-1.532,0.066-1.949,1.643-1.929
				C25.373,219.741,31.827,219.693,38.281,219.693z"/>
			<path fill="#DD3128" d="M38.011,212.789c-6.917,0-13.835-0.043-20.752,0.033c-1.544,0.017-2.107-0.431-2.301-1.998
				c-0.59-4.756-0.521-9.477,0.151-14.214c0.195-1.373,0.703-1.862,2.176-1.855c13.835,0.062,27.67,0.063,41.504,0.001
				c1.576-0.007,2.104,0.5,2.3,2.017c0.612,4.743,0.656,9.457,0.075,14.211c-0.189,1.544-0.779,1.842-2.171,1.831
				C52,212.758,45.006,212.789,38.011,212.789z"/>
			<path fill="#DD3128" d="M38.084,187.893c-6.294,0-12.589-0.043-18.883,0.031c-1.55,0.018-1.972-0.28-1.457-1.867
				c1.297-3.999,2.456-8.044,3.634-12.081c0.731-2.503,1.173-5.073,1.367-7.667c0.084-1.124,0.367-1.632,1.6-1.627
				c9.134,0.037,18.269,0.02,27.403,0.019c0.791,0,1.509-0.036,1.597,1.107c0.542,7.016,3.137,13.535,5.05,20.213
				c0.455,1.589,0.173,1.922-1.429,1.903C50.673,187.849,44.378,187.893,38.084,187.893z"/>
			<path fill="#DD3128" d="M37.978,157.794c-3.995,0-7.992-0.09-11.983,0.039c-1.942,0.063-2.917-0.271-2.393-2.493
				c0.313-1.326,0.107-2.743,0.499-4.093c1.017-3.509,3.796-5.665,7.429-5.673c4.379-0.01,8.757-0.011,13.136,0
				c3.842,0.009,6.871,2.561,7.586,6.364c1.102,5.856,1.102,5.856-4.825,5.856C44.278,157.794,41.128,157.794,37.978,157.794z"/>
		</g>
	</g>
	
		<g id="ssG007.tif_00000060727394642934699630000006688403335717197474_" clip-path="url(#SVGID_00000050660967719584200930000017044938669667487890_)">
		<g>
			<path fill="#DD3128" d="M101.376,144.529c6.377,0,12.754,0.035,19.13-0.027c1.417-0.014,1.787,0.224,1.486,1.767
				c-1.148,5.896-0.725,11.746,1.07,17.48c1.81,5.78,1.281,11.717,0.94,17.574c-0.24,4.116-3.809,6.608-8.568,6.653
				c-6.684,0.064-13.368,0.019-20.053,0.019c-2.843,0-5.687,0.047-8.528-0.016c-5.564-0.123-8.677-3.262-8.734-8.787
				c-0.062-6.05-0.121-12.056,1.769-17.973c1.534-4.8,1.43-9.84,0.483-14.797c-0.293-1.532,0.066-1.949,1.643-1.929
				C88.468,144.577,94.922,144.529,101.376,144.529z"/>
			<path fill="#DD3128" d="M101.106,137.625c-6.917,0-13.835-0.043-20.752,0.033c-1.544,0.017-2.107-0.431-2.301-1.998
				c-0.59-4.756-0.521-9.477,0.151-14.214c0.195-1.373,0.703-1.862,2.176-1.855c13.835,0.062,27.67,0.063,41.504,0.001
				c1.576-0.007,2.104,0.5,2.3,2.017c0.612,4.743,0.656,9.457,0.075,14.211c-0.189,1.544-0.779,1.842-2.171,1.831
				C115.095,137.594,108.101,137.625,101.106,137.625z"/>
			<path fill="#DD3128" d="M101.179,112.729c-6.294,0-12.589-0.043-18.883,0.031c-1.55,0.018-1.972-0.28-1.457-1.867
				c1.297-3.999,2.456-8.044,3.634-12.081c0.731-2.503,1.173-5.073,1.367-7.667c0.084-1.124,0.367-1.632,1.6-1.627
				c9.134,0.037,18.269,0.02,27.403,0.019c0.791,0,1.509-0.036,1.597,1.107c0.542,7.016,3.137,13.535,5.05,20.213
				c0.455,1.589,0.173,1.922-1.429,1.903C113.768,112.685,107.473,112.729,101.179,112.729z"/>
			<path fill="#DD3128" d="M101.073,82.63c-3.995,0-7.992-0.091-11.983,0.039c-1.942,0.063-2.917-0.271-2.393-2.493
				c0.313-1.326,0.107-2.743,0.499-4.093c1.017-3.509,3.796-5.665,7.429-5.673c4.379-0.01,8.757-0.011,13.136,0
				c3.842,0.009,6.871,2.561,7.586,6.364c1.102,5.856,1.102,5.856-4.825,5.856C107.373,82.63,104.223,82.63,101.073,82.63z"/>
		</g>
	</g>
	
		<g id="ssG007.tif_00000138547671817535460700000002797766341291510403_" clip-path="url(#SVGID_00000050660967719584200930000017044938669667487890_)">
		<g>
			<path fill="#DD3128" d="M101.106,275.884c-6.917,0-13.835-0.043-20.752,0.033c-1.544,0.017-2.107-0.431-2.301-1.998
				c-0.59-4.756-0.521-9.477,0.151-14.214c0.195-1.373,0.703-1.862,2.176-1.855c13.835,0.062,27.67,0.063,41.504,0.001
				c1.576-0.007,2.104,0.5,2.3,2.017c0.612,4.743,0.656,9.457,0.075,14.211c-0.189,1.544-0.779,1.842-2.171,1.831
				C115.095,275.853,108.101,275.884,101.106,275.884z"/>
			<path fill="#DD3128" d="M101.179,250.988c-6.294,0-12.589-0.043-18.883,0.031c-1.55,0.018-1.972-0.28-1.457-1.867
				c1.297-3.999,2.456-8.044,3.634-12.081c0.731-2.503,1.173-5.073,1.367-7.667c0.084-1.124,0.367-1.632,1.6-1.627
				c9.134,0.037,18.269,0.02,27.403,0.019c0.791,0,1.509-0.036,1.597,1.107c0.542,7.016,3.137,13.535,5.05,20.213
				c0.455,1.589,0.173,1.922-1.429,1.903C113.768,250.944,107.473,250.988,101.179,250.988z"/>
			<path fill="#DD3128" d="M101.073,220.889c-3.995,0-7.992-0.09-11.983,0.039c-1.942,0.063-2.917-0.271-2.393-2.493
				c0.313-1.326,0.107-2.743,0.499-4.093c1.017-3.509,3.796-5.665,7.429-5.673c4.379-0.01,8.757-0.011,13.136,0
				c3.842,0.009,6.871,2.561,7.586,6.364c1.102,5.856,1.102,5.856-4.825,5.856C107.373,220.889,104.223,220.889,101.073,220.889z"/>
		</g>
	</g>
	
		<g id="ssG007.tif_00000035492416033863891790000001280443585147980211_" clip-path="url(#SVGID_00000050660967719584200930000017044938669667487890_)">
		<g>
			<path fill="#DD3128" d="M101.449,6.269c6.377,0,12.754,0.035,19.131-0.027c1.417-0.014,1.787,0.224,1.486,1.767
				c-1.148,5.896-0.725,11.746,1.07,17.48c1.81,5.78,1.281,11.717,0.94,17.574c-0.24,4.116-3.809,6.608-8.568,6.653
				c-6.684,0.064-13.368,0.019-20.053,0.019c-2.843,0-5.687,0.047-8.528-0.016c-5.564-0.123-8.677-3.262-8.734-8.787
				c-0.062-6.05-0.121-12.056,1.769-17.973c1.534-4.8,1.43-9.84,0.483-14.797c-0.293-1.532,0.066-1.949,1.643-1.929
				C88.541,6.317,94.995,6.269,101.449,6.269z"/>
		</g>
	</g>
	
		<g id="ssG007.tif_00000086682627114618472850000009862017253254519941_" clip-path="url(#SVGID_00000050660967719584200930000017044938669667487890_)">
		<g>
			<path fill="#DD3128" d="M164.631,81.434c6.377,0,12.754,0.035,19.13-0.027c1.417-0.014,1.787,0.224,1.486,1.767
				c-1.148,5.896-0.725,11.746,1.07,17.48c1.81,5.78,1.281,11.717,0.94,17.574c-0.24,4.116-3.809,6.608-8.568,6.653
				c-6.684,0.064-13.368,0.019-20.053,0.019c-2.843,0-5.687,0.047-8.528-0.016c-5.564-0.123-8.677-3.262-8.734-8.787
				c-0.062-6.05-0.121-12.056,1.769-17.973c1.534-4.8,1.43-9.84,0.483-14.797c-0.293-1.532,0.066-1.949,1.643-1.929
				C151.723,81.482,158.177,81.434,164.631,81.434z"/>
			<path fill="#DD3128" d="M164.361,74.53c-6.917,0-13.835-0.043-20.752,0.033c-1.544,0.017-2.107-0.431-2.301-1.998
				c-0.59-4.756-0.521-9.477,0.151-14.214c0.195-1.373,0.703-1.862,2.176-1.855c13.835,0.062,27.67,0.063,41.504,0.001
				c1.576-0.007,2.104,0.5,2.3,2.017c0.612,4.743,0.656,9.457,0.075,14.211c-0.189,1.544-0.779,1.842-2.171,1.831
				C178.35,74.499,171.355,74.53,164.361,74.53z"/>
			<path fill="#DD3128" d="M164.434,49.634c-6.294,0-12.589-0.043-18.883,0.031c-1.55,0.018-1.972-0.28-1.457-1.867
				c1.297-3.999,2.456-8.044,3.634-12.081c0.731-2.503,1.173-5.073,1.367-7.667c0.084-1.124,0.367-1.632,1.6-1.627
				c9.134,0.037,18.269,0.02,27.403,0.019c0.791,0,1.509-0.036,1.597,1.107c0.542,7.016,3.137,13.535,5.05,20.213
				c0.455,1.589,0.173,1.922-1.429,1.903C177.023,49.59,170.728,49.634,164.434,49.634z"/>
			<path fill="#DD3128" d="M164.328,19.535c-3.995,0-7.992-0.091-11.983,0.039c-1.942,0.063-2.917-0.271-2.393-2.493
				c0.313-1.326,0.107-2.743,0.499-4.093c1.017-3.509,3.796-5.665,7.429-5.673c4.379-0.01,8.757-0.011,13.136,0
				c3.842,0.009,6.871,2.561,7.586,6.364c1.102,5.856,1.102,5.856-4.825,5.856C170.627,19.535,167.478,19.535,164.328,19.535z"/>
		</g>
	</g>
	
		<g id="ssG007.tif_00000171708514062355620700000011679776045363908996_" clip-path="url(#SVGID_00000050660967719584200930000017044938669667487890_)">
		<g>
			<path fill="#DD3128" d="M164.631,219.693c6.377,0,12.754,0.035,19.13-0.027c1.417-0.014,1.787,0.224,1.486,1.767
				c-1.148,5.896-0.725,11.746,1.07,17.48c1.81,5.78,1.281,11.717,0.94,17.574c-0.24,4.116-3.809,6.608-8.568,6.653
				c-6.684,0.064-13.368,0.019-20.053,0.019c-2.843,0-5.687,0.047-8.528-0.016c-5.564-0.123-8.677-3.262-8.734-8.787
				c-0.062-6.05-0.121-12.056,1.769-17.973c1.534-4.8,1.43-9.84,0.483-14.797c-0.293-1.532,0.066-1.949,1.643-1.929
				C151.723,219.741,158.177,219.693,164.631,219.693z"/>
			<path fill="#DD3128" d="M164.361,212.789c-6.917,0-13.835-0.043-20.752,0.033c-1.544,0.017-2.107-0.431-2.301-1.998
				c-0.59-4.756-0.521-9.477,0.151-14.214c0.195-1.373,0.703-1.862,2.176-1.855c13.835,0.062,27.67,0.063,41.504,0.001
				c1.576-0.007,2.104,0.5,2.3,2.017c0.612,4.743,0.656,9.457,0.075,14.211c-0.189,1.544-0.779,1.842-2.171,1.831
				C178.35,212.758,171.355,212.789,164.361,212.789z"/>
			<path fill="#DD3128" d="M164.434,187.893c-6.294,0-12.589-0.043-18.883,0.031c-1.55,0.018-1.972-0.28-1.457-1.867
				c1.297-3.999,2.456-8.044,3.634-12.081c0.731-2.503,1.173-5.073,1.367-7.667c0.084-1.124,0.367-1.632,1.6-1.627
				c9.134,0.037,18.269,0.02,27.403,0.019c0.791,0,1.509-0.036,1.597,1.107c0.542,7.016,3.137,13.535,5.05,20.213
				c0.455,1.589,0.173,1.922-1.429,1.903C177.023,187.849,170.728,187.893,164.434,187.893z"/>
			<path fill="#DD3128" d="M164.328,157.794c-3.995,0-7.992-0.09-11.983,0.039c-1.942,0.063-2.917-0.271-2.393-2.493
				c0.313-1.326,0.107-2.743,0.499-4.093c1.017-3.509,3.796-5.665,7.429-5.673c4.379-0.01,8.757-0.011,13.136,0
				c3.842,0.009,6.871,2.561,7.586,6.364c1.102,5.856,1.102,5.856-4.825,5.856C170.627,157.794,167.478,157.794,164.328,157.794z"/>
		</g>
	</g>
	
		<g id="ssG007.tif_00000142872653811483875290000016807355390005127094_" clip-path="url(#SVGID_00000050660967719584200930000017044938669667487890_)">
		<g>
			<path fill="#DD3128" d="M227.726,144.529c6.377,0,12.754,0.035,19.13-0.027c1.417-0.014,1.787,0.224,1.486,1.767
				c-1.148,5.896-0.725,11.746,1.07,17.48c1.81,5.78,1.281,11.717,0.94,17.574c-0.24,4.116-3.809,6.608-8.568,6.653
				c-6.684,0.064-13.368,0.019-20.053,0.019c-2.843,0-5.687,0.047-8.528-0.016c-5.564-0.123-8.677-3.262-8.734-8.787
				c-0.062-6.05-0.121-12.056,1.769-17.973c1.534-4.8,1.43-9.84,0.483-14.797c-0.293-1.532,0.066-1.949,1.643-1.929
				C214.818,144.577,221.272,144.529,227.726,144.529z"/>
			<path fill="#DD3128" d="M227.456,137.625c-6.917,0-13.835-0.043-20.752,0.033c-1.544,0.017-2.107-0.431-2.301-1.998
				c-0.59-4.756-0.521-9.477,0.151-14.214c0.195-1.373,0.703-1.862,2.176-1.855c13.835,0.062,27.67,0.063,41.504,0.001
				c1.576-0.007,2.104,0.5,2.3,2.017c0.612,4.743,0.656,9.457,0.075,14.211c-0.189,1.544-0.779,1.842-2.171,1.831
				C241.445,137.594,234.45,137.625,227.456,137.625z"/>
			<path fill="#DD3128" d="M227.529,112.729c-6.294,0-12.589-0.043-18.883,0.031c-1.55,0.018-1.972-0.28-1.457-1.867
				c1.297-3.999,2.456-8.044,3.634-12.081c0.731-2.503,1.173-5.073,1.367-7.667c0.084-1.124,0.367-1.632,1.6-1.627
				c9.134,0.037,18.269,0.02,27.403,0.019c0.791,0,1.509-0.036,1.597,1.107c0.542,7.016,3.137,13.535,5.05,20.213
				c0.455,1.589,0.173,1.922-1.429,1.903C240.118,112.685,233.823,112.729,227.529,112.729z"/>
			<path fill="#DD3128" d="M227.423,82.63c-3.995,0-7.992-0.091-11.983,0.039c-1.942,0.063-2.917-0.271-2.393-2.493
				c0.313-1.326,0.107-2.743,0.499-4.093c1.017-3.509,3.796-5.665,7.429-5.673c4.379-0.01,8.757-0.011,13.136,0
				c3.842,0.009,6.871,2.561,7.586,6.364c1.102,5.856,1.102,5.856-4.825,5.856C233.722,82.63,230.573,82.63,227.423,82.63z"/>
		</g>
	</g>
	
		<g id="ssG007.tif_00000065034168651142762520000003978465185327338880_" clip-path="url(#SVGID_00000050660967719584200930000017044938669667487890_)">
		<g>
			<path fill="#DD3128" d="M227.456,275.884c-6.917,0-13.835-0.043-20.752,0.033c-1.544,0.017-2.107-0.431-2.301-1.998
				c-0.59-4.756-0.521-9.477,0.151-14.214c0.195-1.373,0.703-1.862,2.176-1.855c13.835,0.062,27.67,0.063,41.504,0.001
				c1.576-0.007,2.104,0.5,2.3,2.017c0.612,4.743,0.656,9.457,0.075,14.211c-0.189,1.544-0.779,1.842-2.171,1.831
				C241.445,275.853,234.45,275.884,227.456,275.884z"/>
			<path fill="#DD3128" d="M227.529,250.988c-6.294,0-12.589-0.043-18.883,0.031c-1.55,0.018-1.972-0.28-1.457-1.867
				c1.297-3.999,2.456-8.044,3.634-12.081c0.731-2.503,1.173-5.073,1.367-7.667c0.084-1.124,0.367-1.632,1.6-1.627
				c9.134,0.037,18.269,0.02,27.403,0.019c0.791,0,1.509-0.036,1.597,1.107c0.542,7.016,3.137,13.535,5.05,20.213
				c0.455,1.589,0.173,1.922-1.429,1.903C240.118,250.944,233.823,250.988,227.529,250.988z"/>
			<path fill="#DD3128" d="M227.423,220.889c-3.995,0-7.992-0.09-11.983,0.039c-1.942,0.063-2.917-0.271-2.393-2.493
				c0.313-1.326,0.107-2.743,0.499-4.093c1.017-3.509,3.796-5.665,7.429-5.673c4.379-0.01,8.757-0.011,13.136,0
				c3.842,0.009,6.871,2.561,7.586,6.364c1.102,5.856,1.102,5.856-4.825,5.856C233.722,220.889,230.573,220.889,227.423,220.889z"/>
		</g>
	</g>
	
		<g id="ssG007.tif_00000043439954179853111270000009093086759201421490_" clip-path="url(#SVGID_00000050660967719584200930000017044938669667487890_)">
		<g>
			<path fill="#DD3128" d="M227.799,6.269c6.377,0,12.754,0.035,19.13-0.027c1.417-0.014,1.787,0.224,1.486,1.767
				c-1.148,5.896-0.725,11.746,1.07,17.48c1.81,5.78,1.281,11.717,0.94,17.574c-0.24,4.116-3.809,6.608-8.568,6.653
				c-6.684,0.064-13.368,0.019-20.053,0.019c-2.843,0-5.687,0.047-8.528-0.016c-5.564-0.123-8.677-3.262-8.734-8.787
				c-0.062-6.05-0.121-12.056,1.769-17.973c1.534-4.8,1.43-9.84,0.483-14.797c-0.293-1.532,0.066-1.949,1.643-1.929
				C214.891,6.317,221.345,6.269,227.799,6.269z"/>
		</g>
	</g>
	
		<g id="ssG007.tif_00000006673680017055543620000008150976431943220107_" clip-path="url(#SVGID_00000050660967719584200930000017044938669667487890_)">
		<g>
			<path fill="#DD3128" d="M292.447,81.434c6.377,0,12.754,0.035,19.13-0.027c1.417-0.014,1.787,0.224,1.486,1.767
				c-1.148,5.896-0.725,11.746,1.07,17.48c1.81,5.78,1.281,11.717,0.94,17.574c-0.24,4.116-3.809,6.608-8.568,6.653
				c-6.684,0.064-13.368,0.019-20.053,0.019c-2.843,0-5.687,0.047-8.528-0.016c-5.564-0.123-8.677-3.262-8.734-8.787
				c-0.062-6.05-0.121-12.056,1.769-17.973c1.534-4.8,1.43-9.84,0.483-14.797c-0.293-1.532,0.066-1.949,1.643-1.929
				C279.539,81.482,285.993,81.434,292.447,81.434z"/>
			<path fill="#DD3128" d="M292.177,74.53c-6.917,0-13.835-0.043-20.752,0.033c-1.544,0.017-2.107-0.431-2.301-1.998
				c-0.59-4.756-0.521-9.477,0.151-14.214c0.195-1.373,0.703-1.862,2.176-1.855c13.835,0.062,27.67,0.063,41.504,0.001
				c1.576-0.007,2.104,0.5,2.3,2.017c0.612,4.743,0.656,9.457,0.075,14.211c-0.189,1.544-0.779,1.842-2.171,1.831
				C306.166,74.499,299.171,74.53,292.177,74.53z"/>
			<path fill="#DD3128" d="M292.25,49.634c-6.294,0-12.589-0.043-18.883,0.031c-1.55,0.018-1.972-0.28-1.457-1.867
				c1.297-3.999,2.456-8.044,3.634-12.081c0.731-2.503,1.173-5.073,1.367-7.667c0.084-1.124,0.367-1.632,1.6-1.627
				c9.134,0.037,18.269,0.02,27.403,0.019c0.791,0,1.509-0.036,1.597,1.107c0.542,7.016,3.137,13.535,5.05,20.213
				c0.455,1.589,0.173,1.922-1.429,1.903C304.839,49.59,298.544,49.634,292.25,49.634z"/>
			<path fill="#DD3128" d="M292.144,19.535c-3.995,0-7.992-0.091-11.983,0.039c-1.942,0.063-2.917-0.271-2.393-2.493
				c0.313-1.326,0.107-2.743,0.499-4.093c1.017-3.509,3.796-5.665,7.429-5.673c4.379-0.01,8.757-0.011,13.136,0
				c3.842,0.009,6.871,2.561,7.586,6.364c1.102,5.856,1.102,5.856-4.825,5.856C298.443,19.535,295.294,19.535,292.144,19.535z"/>
		</g>
	</g>
	
		<g id="ssG007.tif_00000047029155720264016030000003762610706967554720_" clip-path="url(#SVGID_00000050660967719584200930000017044938669667487890_)">
		<g>
			<path fill="#DD3128" d="M292.447,219.693c6.377,0,12.754,0.035,19.13-0.027c1.417-0.014,1.787,0.224,1.486,1.767
				c-1.148,5.896-0.725,11.746,1.07,17.48c1.81,5.78,1.281,11.717,0.94,17.574c-0.24,4.116-3.809,6.608-8.568,6.653
				c-6.684,0.064-13.368,0.019-20.053,0.019c-2.843,0-5.687,0.047-8.528-0.016c-5.564-0.123-8.677-3.262-8.734-8.787
				c-0.062-6.05-0.121-12.056,1.769-17.973c1.534-4.8,1.43-9.84,0.483-14.797c-0.293-1.532,0.066-1.949,1.643-1.929
				C279.539,219.741,285.993,219.693,292.447,219.693z"/>
			<path fill="#DD3128" d="M292.177,212.789c-6.917,0-13.835-0.043-20.752,0.033c-1.544,0.017-2.107-0.431-2.301-1.998
				c-0.59-4.756-0.521-9.477,0.151-14.214c0.195-1.373,0.703-1.862,2.176-1.855c13.835,0.062,27.67,0.063,41.504,0.001
				c1.576-0.007,2.104,0.5,2.3,2.017c0.612,4.743,0.656,9.457,0.075,14.211c-0.189,1.544-0.779,1.842-2.171,1.831
				C306.166,212.758,299.171,212.789,292.177,212.789z"/>
			<path fill="#DD3128" d="M292.25,187.893c-6.294,0-12.589-0.043-18.883,0.031c-1.55,0.018-1.972-0.28-1.457-1.867
				c1.297-3.999,2.456-8.044,3.634-12.081c0.731-2.503,1.173-5.073,1.367-7.667c0.084-1.124,0.367-1.632,1.6-1.627
				c9.134,0.037,18.269,0.02,27.403,0.019c0.791,0,1.509-0.036,1.597,1.107c0.542,7.016,3.137,13.535,5.05,20.213
				c0.455,1.589,0.173,1.922-1.429,1.903C304.839,187.849,298.544,187.893,292.25,187.893z"/>
			<path fill="#DD3128" d="M292.144,157.794c-3.995,0-7.992-0.09-11.983,0.039c-1.942,0.063-2.917-0.271-2.393-2.493
				c0.313-1.326,0.107-2.743,0.499-4.093c1.017-3.509,3.796-5.665,7.429-5.673c4.379-0.01,8.757-0.011,13.136,0
				c3.842,0.009,6.871,2.561,7.586,6.364c1.102,5.856,1.102,5.856-4.825,5.856C298.443,157.794,295.294,157.794,292.144,157.794z"/>
		</g>
	</g>
	
		<g id="ssG007.tif_00000095321841076815183940000011975871657594462872_" clip-path="url(#SVGID_00000050660967719584200930000017044938669667487890_)">
		<g>
			<path fill="#DD3128" d="M355.542,144.529c6.377,0,12.754,0.035,19.13-0.027c1.417-0.014,1.787,0.224,1.486,1.767
				c-1.148,5.896-0.725,11.746,1.07,17.48c1.81,5.78,1.281,11.717,0.94,17.574c-0.24,4.116-3.809,6.608-8.568,6.653
				c-6.684,0.064-13.368,0.019-20.053,0.019c-2.843,0-5.687,0.047-8.528-0.016c-5.564-0.123-8.677-3.262-8.734-8.787
				c-0.062-6.05-0.121-12.056,1.769-17.973c1.534-4.8,1.43-9.84,0.483-14.797c-0.293-1.532,0.066-1.949,1.643-1.929
				C342.634,144.577,349.088,144.529,355.542,144.529z"/>
			<path fill="#DD3128" d="M355.272,137.625c-6.917,0-13.835-0.043-20.752,0.033c-1.544,0.017-2.107-0.431-2.301-1.998
				c-0.59-4.756-0.521-9.477,0.151-14.214c0.195-1.373,0.703-1.862,2.176-1.855c13.835,0.062,27.67,0.063,41.504,0.001
				c1.576-0.007,2.104,0.5,2.3,2.017c0.612,4.743,0.656,9.457,0.075,14.211c-0.189,1.544-0.779,1.842-2.171,1.831
				C369.261,137.594,362.266,137.625,355.272,137.625z"/>
			<path fill="#DD3128" d="M355.345,112.729c-6.294,0-12.589-0.043-18.883,0.031c-1.55,0.018-1.972-0.28-1.457-1.867
				c1.297-3.999,2.456-8.044,3.634-12.081c0.731-2.503,1.173-5.073,1.367-7.667c0.084-1.124,0.367-1.632,1.6-1.627
				c9.134,0.037,18.269,0.02,27.403,0.019c0.791,0,1.509-0.036,1.597,1.107c0.542,7.016,3.137,13.535,5.05,20.213
				c0.455,1.589,0.173,1.922-1.429,1.903C367.934,112.685,361.639,112.729,355.345,112.729z"/>
			<path fill="#DD3128" d="M355.239,82.63c-3.995,0-7.992-0.091-11.983,0.039c-1.942,0.063-2.917-0.271-2.393-2.493
				c0.313-1.326,0.107-2.743,0.499-4.093c1.017-3.509,3.796-5.665,7.429-5.673c4.379-0.01,8.757-0.011,13.136,0
				c3.842,0.009,6.871,2.561,7.586,6.364c1.102,5.856,1.102,5.856-4.825,5.856C361.538,82.63,358.389,82.63,355.239,82.63z"/>
		</g>
	</g>
	
		<g id="ssG007.tif_00000059271575375034430510000001649412554715435670_" clip-path="url(#SVGID_00000050660967719584200930000017044938669667487890_)">
		<g>
			<path fill="#DD3128" d="M355.272,275.884c-6.917,0-13.835-0.043-20.752,0.033c-1.544,0.017-2.107-0.431-2.301-1.998
				c-0.59-4.756-0.521-9.477,0.151-14.214c0.195-1.373,0.703-1.862,2.176-1.855c13.835,0.062,27.67,0.063,41.504,0.001
				c1.576-0.007,2.104,0.5,2.3,2.017c0.612,4.743,0.656,9.457,0.075,14.211c-0.189,1.544-0.779,1.842-2.171,1.831
				C369.261,275.853,362.266,275.884,355.272,275.884z"/>
			<path fill="#DD3128" d="M355.345,250.988c-6.294,0-12.589-0.043-18.883,0.031c-1.55,0.018-1.972-0.28-1.457-1.867
				c1.297-3.999,2.456-8.044,3.634-12.081c0.731-2.503,1.173-5.073,1.367-7.667c0.084-1.124,0.367-1.632,1.6-1.627
				c9.134,0.037,18.269,0.02,27.403,0.019c0.791,0,1.509-0.036,1.597,1.107c0.542,7.016,3.137,13.535,5.05,20.213
				c0.455,1.589,0.173,1.922-1.429,1.903C367.934,250.944,361.639,250.988,355.345,250.988z"/>
			<path fill="#DD3128" d="M355.239,220.889c-3.995,0-7.992-0.09-11.983,0.039c-1.942,0.063-2.917-0.271-2.393-2.493
				c0.313-1.326,0.107-2.743,0.499-4.093c1.017-3.509,3.796-5.665,7.429-5.673c4.379-0.01,8.757-0.011,13.136,0
				c3.842,0.009,6.871,2.561,7.586,6.364c1.102,5.856,1.102,5.856-4.825,5.856C361.538,220.889,358.389,220.889,355.239,220.889z"/>
		</g>
	</g>
	
		<g id="ssG007.tif_00000106148599090552460100000013636974294916122250_" clip-path="url(#SVGID_00000050660967719584200930000017044938669667487890_)">
		<g>
			<path fill="#DD3128" d="M355.615,6.269c6.377,0,12.754,0.035,19.13-0.027c1.417-0.014,1.787,0.224,1.486,1.767
				c-1.148,5.896-0.725,11.746,1.07,17.48c1.81,5.78,1.281,11.717,0.94,17.574c-0.24,4.116-3.809,6.608-8.568,6.653
				c-6.684,0.064-13.368,0.019-20.053,0.019c-2.843,0-5.687,0.047-8.528-0.016c-5.564-0.123-8.677-3.262-8.734-8.787
				c-0.062-6.05-0.121-12.056,1.769-17.973c1.534-4.8,1.43-9.84,0.483-14.797c-0.293-1.532,0.066-1.949,1.643-1.929
				C342.707,6.317,349.161,6.269,355.615,6.269z"/>
		</g>
	</g>
	<g clip-path="url(#SVGID_00000050660967719584200930000017044938669667487890_)">
		<g>
			<path fill="#0D5EB6" d="M141.69,168.702l-16.291,2.366l-12.104-18.565v17.929l-19.112,1.183L92.182,99.81
				c-0.364-0.06-0.546-0.182-0.546-0.364c0-0.423,2.032-0.637,6.098-0.637c6.612,0,12.331,0.259,17.155,0.773
				c4.823,0.516,8.782,1.654,11.876,3.413c3.095,1.761,5.384,4.309,6.871,7.645c1.486,3.337,2.229,7.827,2.229,13.469
				c0,6.007-2.7,11.801-8.1,17.383L141.69,168.702z M111.566,129.933c4.61-0.91,6.917-3.063,6.917-6.461v-0.546
				c-0.183-1.759-0.941-3.276-2.275-4.55c-1.335-1.274-3.276-2.062-5.824-2.366L111.566,129.933z"/>
			<path fill="#0D5EB6" d="M167.444,98.809c4.125,0,7.856,1.092,11.194,3.276c3.336,2.184,6.173,5.187,8.509,9.01
				c2.335,3.822,4.125,8.343,5.37,13.56c1.242,5.219,1.865,10.861,1.865,16.927c0,4.673-0.562,8.858-1.684,12.559
				c-1.123,3.701-2.762,6.842-4.914,9.42c-2.154,2.579-4.824,4.565-8.009,5.961c-3.186,1.396-6.812,2.093-10.876,2.093
				c-8.919,0-15.669-3.186-20.249-9.556c-4.582-6.371-6.871-15.895-6.871-28.576c0-5.096,0.561-9.783,1.684-14.061
				c1.122-4.277,2.775-7.932,4.96-10.967c2.185-3.033,4.869-5.399,8.055-7.099C159.663,99.659,163.317,98.809,167.444,98.809z
				 M168.628,151.774c1.092,0,2.107-0.394,3.049-1.183c0.939-0.788,1.743-1.82,2.411-3.095c0.667-1.273,1.184-2.744,1.547-4.413
				c0.364-1.668,0.547-3.413,0.547-5.233c0-11.649-3.095-17.473-9.283-17.473c-4.309,0-6.462,4.459-6.462,13.378
				c0,2.67,0.183,5.112,0.547,7.326c0.363,2.216,0.909,4.111,1.638,5.688c0.729,1.578,1.593,2.807,2.594,3.686
				C166.216,151.335,167.354,151.774,168.628,151.774z"/>
			<path fill="#0D5EB6" d="M249.26,99.354l-2.912,54.149c-3.458,12.074-11.043,18.11-22.752,18.11c-2.366,0-4.764-0.515-7.189-1.547
				c-2.428-1.031-4.673-2.412-6.734-4.142c-2.063-1.729-3.839-3.715-5.324-5.961c-1.487-2.243-2.443-4.58-2.867-7.007
				c-0.122-0.91-0.288-2.139-0.5-3.687c-0.214-1.547-0.441-3.412-0.683-5.597l17.474,0.546c0.12,2.185,0.683,4.096,1.684,5.733
				c1.001,1.639,2.198,2.457,3.595,2.457c1.577,0,2.941-0.546,4.095-1.638c1.152-1.092,1.729-2.426,1.729-4.004l-1.183-47.415
				H249.26z"/>
			<path fill="#0D5EB6" d="M276.927,98.809c4.125,0,7.856,1.092,11.194,3.276c3.336,2.184,6.173,5.187,8.509,9.01
				c2.335,3.822,4.125,8.343,5.37,13.56c1.242,5.219,1.865,10.861,1.865,16.927c0,4.673-0.562,8.858-1.684,12.559
				c-1.123,3.701-2.762,6.842-4.914,9.42c-2.154,2.579-4.824,4.565-8.009,5.961c-3.186,1.396-6.812,2.093-10.876,2.093
				c-8.919,0-15.669-3.186-20.249-9.556c-4.582-6.371-6.871-15.895-6.871-28.576c0-5.096,0.561-9.783,1.684-14.061
				c1.122-4.277,2.775-7.932,4.96-10.967c2.185-3.033,4.869-5.399,8.055-7.099C269.146,99.659,272.8,98.809,276.927,98.809z
				 M278.11,151.774c1.092,0,2.107-0.394,3.049-1.183c0.939-0.788,1.743-1.82,2.411-3.095c0.667-1.273,1.184-2.744,1.547-4.413
				c0.364-1.668,0.547-3.413,0.547-5.233c0-11.649-3.095-17.473-9.283-17.473c-4.309,0-6.462,4.459-6.462,13.378
				c0,2.67,0.183,5.112,0.547,7.326c0.363,2.216,0.909,4.111,1.638,5.688c0.729,1.578,1.593,2.807,2.594,3.686
				C275.698,151.335,276.836,151.774,278.11,151.774z"/>
		</g>
		<g>
			<path fill="#FB3D2C" stroke="#0D5EB6" stroke-width="2" stroke-linejoin="round" stroke-miterlimit="10" d="M135.461,164.55
				l-16.291,2.366l-12.104-18.565v17.929l-19.112,1.183l-2.002-71.805c-0.364-0.06-0.546-0.182-0.546-0.364
				c0-0.423,2.032-0.637,6.098-0.637c6.612,0,12.331,0.259,17.155,0.773c4.823,0.516,8.782,1.654,11.876,3.413
				c3.095,1.761,5.384,4.309,6.871,7.645c1.486,3.337,2.229,7.827,2.229,13.469c0,6.007-2.7,11.801-8.1,17.383L135.461,164.55z
				 M105.337,125.78c4.61-0.91,6.917-3.063,6.917-6.461v-0.546c-0.183-1.759-0.941-3.276-2.275-4.55
				c-1.335-1.274-3.276-2.062-5.824-2.366L105.337,125.78z"/>
			<path fill="#FB3D2C" stroke="#0D5EB6" stroke-width="2" stroke-linejoin="round" stroke-miterlimit="10" d="M161.215,94.656
				c4.125,0,7.856,1.092,11.194,3.276c3.336,2.184,6.173,5.187,8.509,9.01c2.335,3.822,4.125,8.343,5.37,13.56
				c1.242,5.219,1.865,10.861,1.865,16.928c0,4.673-0.562,8.858-1.684,12.559c-1.123,3.701-2.762,6.842-4.914,9.42
				c-2.154,2.579-4.824,4.565-8.009,5.961c-3.186,1.396-6.812,2.093-10.876,2.093c-8.919,0-15.669-3.186-20.249-9.556
				c-4.582-6.371-6.871-15.895-6.871-28.577c0-5.096,0.561-9.783,1.684-14.061c1.122-4.277,2.775-7.932,4.96-10.967
				c2.185-3.033,4.869-5.399,8.055-7.099C153.434,95.506,157.088,94.656,161.215,94.656z M162.398,147.622
				c1.092,0,2.107-0.394,3.049-1.183c0.939-0.788,1.743-1.82,2.411-3.095c0.667-1.273,1.184-2.744,1.547-4.413
				c0.364-1.668,0.547-3.413,0.547-5.234c0-11.649-3.095-17.473-9.283-17.473c-4.309,0-6.462,4.459-6.462,13.378
				c0,2.67,0.183,5.112,0.547,7.326c0.363,2.216,0.909,4.111,1.638,5.688c0.729,1.578,1.593,2.807,2.594,3.686
				C159.986,147.183,161.124,147.622,162.398,147.622z"/>
			<path fill="#FB3D2C" stroke="#0D5EB6" stroke-width="2" stroke-linejoin="round" stroke-miterlimit="10" d="M243.03,95.202
				l-2.912,54.15c-3.458,12.074-11.043,18.11-22.752,18.11c-2.366,0-4.764-0.515-7.189-1.547c-2.428-1.031-4.673-2.412-6.734-4.142
				c-2.063-1.729-3.839-3.715-5.324-5.961c-1.487-2.243-2.443-4.58-2.867-7.007c-0.122-0.91-0.288-2.139-0.5-3.687
				c-0.214-1.547-0.441-3.412-0.683-5.597l17.474,0.546c0.12,2.185,0.683,4.096,1.684,5.733c1.001,1.639,2.198,2.457,3.595,2.457
				c1.577,0,2.941-0.546,4.095-1.638c1.152-1.092,1.729-2.426,1.729-4.004l-1.183-47.416H243.03z"/>
			<path fill="#FB3D2C" stroke="#0D5EB6" stroke-width="2" stroke-linejoin="round" stroke-miterlimit="10" d="M270.697,94.656
				c4.125,0,7.856,1.092,11.194,3.276c3.336,2.184,6.173,5.187,8.509,9.01c2.335,3.822,4.125,8.343,5.37,13.56
				c1.242,5.219,1.865,10.861,1.865,16.928c0,4.673-0.562,8.858-1.684,12.559c-1.123,3.701-2.762,6.842-4.914,9.42
				c-2.154,2.579-4.824,4.565-8.009,5.961c-3.186,1.396-6.812,2.093-10.876,2.093c-8.919,0-15.669-3.186-20.249-9.556
				c-4.582-6.371-6.871-15.895-6.871-28.577c0-5.096,0.561-9.783,1.684-14.061c1.122-4.277,2.775-7.932,4.96-10.967
				c2.185-3.033,4.869-5.399,8.055-7.099C262.916,95.506,266.57,94.656,270.697,94.656z M271.881,147.622
				c1.092,0,2.107-0.394,3.049-1.183c0.939-0.788,1.743-1.82,2.411-3.095c0.667-1.273,1.184-2.744,1.547-4.413
				c0.364-1.668,0.547-3.413,0.547-5.234c0-11.649-3.095-17.473-9.283-17.473c-4.309,0-6.462,4.459-6.462,13.378
				c0,2.67,0.183,5.112,0.547,7.326c0.363,2.216,0.909,4.111,1.638,5.688c0.729,1.578,1.593,2.807,2.594,3.686
				C269.469,147.183,270.606,147.622,271.881,147.622z"/>
		</g>
	</g>
</g>
</svg>
