<?xml version="1.0" encoding="UTF-8"?><svg id="Capa_2" xmlns="http://www.w3.org/2000/svg" viewBox="0 0 393.54 268"><defs><style>.cls-1{fill:none;}.cls-2,.cls-3{fill:#fb3d2c;}.cls-4{fill:#dd3128;}.cls-5{fill:#0d5eb6;}.cls-3{stroke:#0d5eb6;stroke-linejoin:round;stroke-width:2px;}</style></defs><g id="Capa_1-2"><g><rect class="cls-2" width="393.54" height="268"/><g id="ssG007.tif"><g><path class="cls-4" d="M39.82,81.43c6.38,0,12.75,.03,19.13-.03,1.42-.01,1.79,.22,1.49,1.77-1.15,5.9-.73,11.75,1.07,17.48,1.81,5.78,1.28,11.72,.94,17.57-.24,4.12-3.81,6.61-8.57,6.65-6.68,.06-13.37,.02-20.05,.02-2.84,0-5.69,.05-8.53-.02-5.56-.12-8.68-3.26-8.73-8.79-.06-6.05-.12-12.06,1.77-17.97,1.53-4.8,1.43-9.84,.48-14.8-.29-1.53,.07-1.95,1.64-1.93,6.45,.08,12.91,.03,19.36,.03Z"/><path class="cls-4" d="M39.55,74.53c-6.92,0-13.84-.04-20.75,.03-1.54,.02-2.11-.43-2.3-2-.59-4.76-.52-9.48,.15-14.21,.19-1.37,.7-1.86,2.18-1.86,13.83,.06,27.67,.06,41.5,0,1.58,0,2.1,.5,2.3,2.02,.61,4.74,.66,9.46,.08,14.21-.19,1.54-.78,1.84-2.17,1.83-6.99-.06-13.99-.03-20.98-.03Z"/><path class="cls-4" d="M39.62,49.63c-6.29,0-12.59-.04-18.88,.03-1.55,.02-1.97-.28-1.46-1.87,1.3-4,2.46-8.04,3.63-12.08,.73-2.5,1.17-5.07,1.37-7.67,.08-1.12,.37-1.63,1.6-1.63,9.13,.04,18.27,.02,27.4,.02,.79,0,1.51-.04,1.6,1.11,.54,7.02,3.14,13.53,5.05,20.21,.46,1.59,.17,1.92-1.43,1.9-6.29-.08-12.59-.03-18.88-.03Z"/><path class="cls-4" d="M39.52,19.53c-3.99,0-7.99-.09-11.98,.04-1.94,.06-2.92-.27-2.39-2.49,.31-1.33,.11-2.74,.5-4.09,1.02-3.51,3.8-5.66,7.43-5.67,4.38,0,8.76-.01,13.14,0,3.84,0,6.87,2.56,7.59,6.36q1.1,5.86-4.83,5.86c-3.15,0-6.3,0-9.45,0Z"/></g></g><g id="ssG007.tif-2"><g><path class="cls-4" d="M39.82,219.69c6.38,0,12.75,.03,19.13-.03,1.42-.01,1.79,.22,1.49,1.77-1.15,5.9-.73,11.75,1.07,17.48,1.81,5.78,1.28,11.72,.94,17.57-.24,4.12-3.81,6.61-8.57,6.65-6.68,.06-13.37,.02-20.05,.02-2.84,0-5.69,.05-8.53-.02-5.56-.12-8.68-3.26-8.73-8.79-.06-6.05-.12-12.06,1.77-17.97,1.53-4.8,1.43-9.84,.48-14.8-.29-1.53,.07-1.95,1.64-1.93,6.45,.08,12.91,.03,19.36,.03Z"/><path class="cls-4" d="M39.55,212.79c-6.92,0-13.84-.04-20.75,.03-1.54,.02-2.11-.43-2.3-2-.59-4.76-.52-9.48,.15-14.21,.19-1.37,.7-1.86,2.18-1.86,13.83,.06,27.67,.06,41.5,0,1.58,0,2.1,.5,2.3,2.02,.61,4.74,.66,9.46,.08,14.21-.19,1.54-.78,1.84-2.17,1.83-6.99-.06-13.99-.03-20.98-.03Z"/><path class="cls-4" d="M39.62,187.89c-6.29,0-12.59-.04-18.88,.03-1.55,.02-1.97-.28-1.46-1.87,1.3-4,2.46-8.04,3.63-12.08,.73-2.5,1.17-5.07,1.37-7.67,.08-1.12,.37-1.63,1.6-1.63,9.13,.04,18.27,.02,27.4,.02,.79,0,1.51-.04,1.6,1.11,.54,7.02,3.14,13.53,5.05,20.21,.46,1.59,.17,1.92-1.43,1.9-6.29-.08-12.59-.03-18.88-.03Z"/><path class="cls-4" d="M39.52,157.79c-3.99,0-7.99-.09-11.98,.04-1.94,.06-2.92-.27-2.39-2.49,.31-1.33,.11-2.74,.5-4.09,1.02-3.51,3.8-5.66,7.43-5.67,4.38,0,8.76-.01,13.14,0,3.84,0,6.87,2.56,7.59,6.36q1.1,5.86-4.83,5.86c-3.15,0-6.3,0-9.45,0Z"/></g></g><g id="ssG007.tif-3"><g><path class="cls-4" d="M102.91,144.53c6.38,0,12.75,.03,19.13-.03,1.42-.01,1.79,.22,1.49,1.77-1.15,5.9-.73,11.75,1.07,17.48,1.81,5.78,1.28,11.72,.94,17.57-.24,4.12-3.81,6.61-8.57,6.65-6.68,.06-13.37,.02-20.05,.02-2.84,0-5.69,.05-8.53-.02-5.56-.12-8.68-3.26-8.73-8.79-.06-6.05-.12-12.06,1.77-17.97,1.53-4.8,1.43-9.84,.48-14.8-.29-1.53,.07-1.95,1.64-1.93,6.45,.08,12.91,.03,19.36,.03Z"/><path class="cls-4" d="M102.64,137.62c-6.92,0-13.84-.04-20.75,.03-1.54,.02-2.11-.43-2.3-2-.59-4.76-.52-9.48,.15-14.21,.19-1.37,.7-1.86,2.18-1.86,13.83,.06,27.67,.06,41.5,0,1.58,0,2.1,.5,2.3,2.02,.61,4.74,.66,9.46,.08,14.21-.19,1.54-.78,1.84-2.17,1.83-6.99-.06-13.99-.03-20.98-.03Z"/><path class="cls-4" d="M102.72,112.73c-6.29,0-12.59-.04-18.88,.03-1.55,.02-1.97-.28-1.46-1.87,1.3-4,2.46-8.04,3.63-12.08,.73-2.5,1.17-5.07,1.37-7.67,.08-1.12,.37-1.63,1.6-1.63,9.13,.04,18.27,.02,27.4,.02,.79,0,1.51-.04,1.6,1.11,.54,7.02,3.14,13.53,5.05,20.21,.46,1.59,.17,1.92-1.43,1.9-6.29-.08-12.59-.03-18.88-.03Z"/><path class="cls-4" d="M102.61,82.63c-3.99,0-7.99-.09-11.98,.04-1.94,.06-2.92-.27-2.39-2.49,.31-1.33,.11-2.74,.5-4.09,1.02-3.51,3.8-5.66,7.43-5.67,4.38,0,8.76-.01,13.14,0,3.84,0,6.87,2.56,7.59,6.36q1.1,5.86-4.83,5.86c-3.15,0-6.3,0-9.45,0Z"/></g></g><g id="ssG007.tif-4"><g><path class="cls-4" d="M102.72,250.99c-6.29,0-12.59-.04-18.88,.03-1.55,.02-1.97-.28-1.46-1.87,1.3-4,2.46-8.04,3.63-12.08,.73-2.5,1.17-5.07,1.37-7.67,.08-1.12,.37-1.63,1.6-1.63,9.13,.04,18.27,.02,27.4,.02,.79,0,1.51-.04,1.6,1.11,.54,7.02,3.14,13.53,5.05,20.21,.46,1.59,.17,1.92-1.43,1.9-6.29-.08-12.59-.03-18.88-.03Z"/><path class="cls-4" d="M102.61,220.89c-3.99,0-7.99-.09-11.98,.04-1.94,.06-2.92-.27-2.39-2.49,.31-1.33,.11-2.74,.5-4.09,1.02-3.51,3.8-5.66,7.43-5.67,4.38,0,8.76-.01,13.14,0,3.84,0,6.87,2.56,7.59,6.36q1.1,5.86-4.83,5.86c-3.15,0-6.3,0-9.45,0Z"/></g></g><g id="ssG007.tif-5"><path class="cls-4" d="M102.99,6.27c6.38,0,12.75,.03,19.13-.03,1.42-.01,1.79,.22,1.49,1.77-1.15,5.9-.73,11.75,1.07,17.48,1.81,5.78,1.28,11.72,.94,17.57-.24,4.12-3.81,6.61-8.57,6.65-6.68,.06-13.37,.02-20.05,.02-2.84,0-5.69,.05-8.53-.02-5.56-.12-8.68-3.26-8.73-8.79-.06-6.05-.12-12.06,1.77-17.97,1.53-4.8,1.43-9.84,.48-14.8-.29-1.53,.07-1.95,1.64-1.93,6.45,.08,12.91,.03,19.36,.03Z"/></g><g id="ssG007.tif-6"><path class="cls-4" d="M229.27,6.27c6.38,0,12.75,.03,19.13-.03,1.42-.01,1.79,.22,1.49,1.77-1.15,5.9-.73,11.75,1.07,17.48,1.81,5.78,1.28,11.72,.94,17.57-.24,4.12-3.81,6.61-8.57,6.65-6.68,.06-13.37,.02-20.05,.02-2.84,0-5.69,.05-8.53-.02-5.56-.12-8.68-3.26-8.73-8.79-.06-6.05-.12-12.06,1.77-17.97,1.53-4.8,1.43-9.84,.48-14.8-.29-1.53,.07-1.95,1.64-1.93,6.45,.08,12.91,.03,19.36,.03Z"/></g><g id="ssG007.tif-7"><path class="cls-4" d="M357.02,6.27c6.38,0,12.75,.03,19.13-.03,1.42-.01,1.79,.22,1.49,1.77-1.15,5.9-.73,11.75,1.07,17.48,1.81,5.78,1.28,11.72,.94,17.57-.24,4.12-3.81,6.61-8.57,6.65-6.68,.06-13.37,.02-20.05,.02-2.84,0-5.69,.05-8.53-.02-5.56-.12-8.68-3.26-8.73-8.79-.06-6.05-.12-12.06,1.77-17.97,1.53-4.8,1.43-9.84,.48-14.8-.29-1.53,.07-1.95,1.64-1.93,6.45,.08,12.91,.03,19.36,.03Z"/></g><g id="ssG007.tif-8"><g><path class="cls-4" d="M166.17,81.43c6.38,0,12.75,.03,19.13-.03,1.42-.01,1.79,.22,1.49,1.77-1.15,5.9-.73,11.75,1.07,17.48,1.81,5.78,1.28,11.72,.94,17.57-.24,4.12-3.81,6.61-8.57,6.65-6.68,.06-13.37,.02-20.05,.02-2.84,0-5.69,.05-8.53-.02-5.56-.12-8.68-3.26-8.73-8.79-.06-6.05-.12-12.06,1.77-17.97,1.53-4.8,1.43-9.84,.48-14.8-.29-1.53,.07-1.95,1.64-1.93,6.45,.08,12.91,.03,19.36,.03Z"/><path class="cls-4" d="M165.9,74.53c-6.92,0-13.84-.04-20.75,.03-1.54,.02-2.11-.43-2.3-2-.59-4.76-.52-9.48,.15-14.21,.19-1.37,.7-1.86,2.18-1.86,13.83,.06,27.67,.06,41.5,0,1.58,0,2.1,.5,2.3,2.02,.61,4.74,.66,9.46,.08,14.21-.19,1.54-.78,1.84-2.17,1.83-6.99-.06-13.99-.03-20.98-.03Z"/><path class="cls-4" d="M165.97,49.63c-6.29,0-12.59-.04-18.88,.03-1.55,.02-1.97-.28-1.46-1.87,1.3-4,2.46-8.04,3.63-12.08,.73-2.5,1.17-5.07,1.37-7.67,.08-1.12,.37-1.63,1.6-1.63,9.13,.04,18.27,.02,27.4,.02,.79,0,1.51-.04,1.6,1.11,.54,7.02,3.14,13.53,5.05,20.21,.46,1.59,.17,1.92-1.43,1.9-6.29-.08-12.59-.03-18.88-.03Z"/><path class="cls-4" d="M165.87,19.53c-3.99,0-7.99-.09-11.98,.04-1.94,.06-2.92-.27-2.39-2.49,.31-1.33,.11-2.74,.5-4.09,1.02-3.51,3.8-5.66,7.43-5.67,4.38,0,8.76-.01,13.14,0,3.84,0,6.87,2.56,7.59,6.36q1.1,5.86-4.83,5.86c-3.15,0-6.3,0-9.45,0Z"/></g></g><g id="ssG007.tif-9"><g><path class="cls-4" d="M166.17,219.69c6.38,0,12.75,.03,19.13-.03,1.42-.01,1.79,.22,1.49,1.77-1.15,5.9-.73,11.75,1.07,17.48,1.81,5.78,1.28,11.72,.94,17.57-.24,4.12-3.81,6.61-8.57,6.65-6.68,.06-13.37,.02-20.05,.02-2.84,0-5.69,.05-8.53-.02-5.56-.12-8.68-3.26-8.73-8.79-.06-6.05-.12-12.06,1.77-17.97,1.53-4.8,1.43-9.84,.48-14.8-.29-1.53,.07-1.95,1.64-1.93,6.45,.08,12.91,.03,19.36,.03Z"/><path class="cls-4" d="M165.9,212.79c-6.92,0-13.84-.04-20.75,.03-1.54,.02-2.11-.43-2.3-2-.59-4.76-.52-9.48,.15-14.21,.19-1.37,.7-1.86,2.18-1.86,13.83,.06,27.67,.06,41.5,0,1.58,0,2.1,.5,2.3,2.02,.61,4.74,.66,9.46,.08,14.21-.19,1.54-.78,1.84-2.17,1.83-6.99-.06-13.99-.03-20.98-.03Z"/><path class="cls-4" d="M165.97,187.89c-6.29,0-12.59-.04-18.88,.03-1.55,.02-1.97-.28-1.46-1.87,1.3-4,2.46-8.04,3.63-12.08,.73-2.5,1.17-5.07,1.37-7.67,.08-1.12,.37-1.63,1.6-1.63,9.13,.04,18.27,.02,27.4,.02,.79,0,1.51-.04,1.6,1.11,.54,7.02,3.14,13.53,5.05,20.21,.46,1.59,.17,1.92-1.43,1.9-6.29-.08-12.59-.03-18.88-.03Z"/><path class="cls-4" d="M165.87,157.79c-3.99,0-7.99-.09-11.98,.04-1.94,.06-2.92-.27-2.39-2.49,.31-1.33,.11-2.74,.5-4.09,1.02-3.51,3.8-5.66,7.43-5.67,4.38,0,8.76-.01,13.14,0,3.84,0,6.87,2.56,7.59,6.36q1.1,5.86-4.83,5.86c-3.15,0-6.3,0-9.45,0Z"/></g></g><g id="ssG007.tif-10"><g><path class="cls-4" d="M229.26,144.53c6.38,0,12.75,.03,19.13-.03,1.42-.01,1.79,.22,1.49,1.77-1.15,5.9-.73,11.75,1.07,17.48,1.81,5.78,1.28,11.72,.94,17.57-.24,4.12-3.81,6.61-8.57,6.65-6.68,.06-13.37,.02-20.05,.02-2.84,0-5.69,.05-8.53-.02-5.56-.12-8.68-3.26-8.73-8.79-.06-6.05-.12-12.06,1.77-17.97,1.53-4.8,1.43-9.84,.48-14.8-.29-1.53,.07-1.95,1.64-1.93,6.45,.08,12.91,.03,19.36,.03Z"/><path class="cls-4" d="M228.99,137.62c-6.92,0-13.84-.04-20.75,.03-1.54,.02-2.11-.43-2.3-2-.59-4.76-.52-9.48,.15-14.21,.19-1.37,.7-1.86,2.18-1.86,13.83,.06,27.67,.06,41.5,0,1.58,0,2.1,.5,2.3,2.02,.61,4.74,.66,9.46,.08,14.21-.19,1.54-.78,1.84-2.17,1.83-6.99-.06-13.99-.03-20.98-.03Z"/><path class="cls-4" d="M229.07,112.73c-6.29,0-12.59-.04-18.88,.03-1.55,.02-1.97-.28-1.46-1.87,1.3-4,2.46-8.04,3.63-12.08,.73-2.5,1.17-5.07,1.37-7.67,.08-1.12,.37-1.63,1.6-1.63,9.13,.04,18.27,.02,27.4,.02,.79,0,1.51-.04,1.6,1.11,.54,7.02,3.14,13.53,5.05,20.21,.46,1.59,.17,1.92-1.43,1.9-6.29-.08-12.59-.03-18.88-.03Z"/><path class="cls-4" d="M228.96,82.63c-3.99,0-7.99-.09-11.98,.04-1.94,.06-2.92-.27-2.39-2.49,.31-1.33,.11-2.74,.5-4.09,1.02-3.51,3.8-5.66,7.43-5.67,4.38,0,8.76-.01,13.14,0,3.84,0,6.87,2.56,7.59,6.36q1.1,5.86-4.83,5.86c-3.15,0-6.3,0-9.45,0Z"/></g></g><g id="ssG007.tif-11"><g><path class="cls-4" d="M229.07,250.99c-6.29,0-12.59-.04-18.88,.03-1.55,.02-1.97-.28-1.46-1.87,1.3-4,2.46-8.04,3.63-12.08,.73-2.5,1.17-5.07,1.37-7.67,.08-1.12,.37-1.63,1.6-1.63,9.13,.04,18.27,.02,27.4,.02,.79,0,1.51-.04,1.6,1.11,.54,7.02,3.14,13.53,5.05,20.21,.46,1.59,.17,1.92-1.43,1.9-6.29-.08-12.59-.03-18.88-.03Z"/><path class="cls-4" d="M228.96,220.89c-3.99,0-7.99-.09-11.98,.04-1.94,.06-2.92-.27-2.39-2.49,.31-1.33,.11-2.74,.5-4.09,1.02-3.51,3.8-5.66,7.43-5.67,4.38,0,8.76-.01,13.14,0,3.84,0,6.87,2.56,7.59,6.36q1.1,5.86-4.83,5.86c-3.15,0-6.3,0-9.45,0Z"/></g></g><g id="ssG007.tif-12"><g><path class="cls-4" d="M293.98,81.43c6.38,0,12.75,.03,19.13-.03,1.42-.01,1.79,.22,1.49,1.77-1.15,5.9-.73,11.75,1.07,17.48,1.81,5.78,1.28,11.72,.94,17.57-.24,4.12-3.81,6.61-8.57,6.65-6.68,.06-13.37,.02-20.05,.02-2.84,0-5.69,.05-8.53-.02-5.56-.12-8.68-3.26-8.73-8.79-.06-6.05-.12-12.06,1.77-17.97,1.53-4.8,1.43-9.84,.48-14.8-.29-1.53,.07-1.95,1.64-1.93,6.45,.08,12.91,.03,19.36,.03Z"/><path class="cls-4" d="M293.71,74.53c-6.92,0-13.84-.04-20.75,.03-1.54,.02-2.11-.43-2.3-2-.59-4.76-.52-9.48,.15-14.21,.19-1.37,.7-1.86,2.18-1.86,13.83,.06,27.67,.06,41.5,0,1.58,0,2.1,.5,2.3,2.02,.61,4.74,.66,9.46,.08,14.21-.19,1.54-.78,1.84-2.17,1.83-6.99-.06-13.99-.03-20.98-.03Z"/><path class="cls-4" d="M293.79,49.63c-6.29,0-12.59-.04-18.88,.03-1.55,.02-1.97-.28-1.46-1.87,1.3-4,2.46-8.04,3.63-12.08,.73-2.5,1.17-5.07,1.37-7.67,.08-1.12,.37-1.63,1.6-1.63,9.13,.04,18.27,.02,27.4,.02,.79,0,1.51-.04,1.6,1.11,.54,7.02,3.14,13.53,5.05,20.21,.46,1.59,.17,1.92-1.43,1.9-6.29-.08-12.59-.03-18.88-.03Z"/><path class="cls-4" d="M293.68,19.53c-3.99,0-7.99-.09-11.98,.04-1.94,.06-2.92-.27-2.39-2.49,.31-1.33,.11-2.74,.5-4.09,1.02-3.51,3.8-5.66,7.43-5.67,4.38,0,8.76-.01,13.14,0,3.84,0,6.87,2.56,7.59,6.36q1.1,5.86-4.83,5.86c-3.15,0-6.3,0-9.45,0Z"/></g></g><g id="ssG007.tif-13"><g><path class="cls-4" d="M293.98,219.69c6.38,0,12.75,.03,19.13-.03,1.42-.01,1.79,.22,1.49,1.77-1.15,5.9-.73,11.75,1.07,17.48,1.81,5.78,1.28,11.72,.94,17.57-.24,4.12-3.81,6.61-8.57,6.65-6.68,.06-13.37,.02-20.05,.02-2.84,0-5.69,.05-8.53-.02-5.56-.12-8.68-3.26-8.73-8.79-.06-6.05-.12-12.06,1.77-17.97,1.53-4.8,1.43-9.84,.48-14.8-.29-1.53,.07-1.95,1.64-1.93,6.45,.08,12.91,.03,19.36,.03Z"/><path class="cls-4" d="M293.71,212.79c-6.92,0-13.84-.04-20.75,.03-1.54,.02-2.11-.43-2.3-2-.59-4.76-.52-9.48,.15-14.21,.19-1.37,.7-1.86,2.18-1.86,13.83,.06,27.67,.06,41.5,0,1.58,0,2.1,.5,2.3,2.02,.61,4.74,.66,9.46,.08,14.21-.19,1.54-.78,1.84-2.17,1.83-6.99-.06-13.99-.03-20.98-.03Z"/><path class="cls-4" d="M293.79,187.89c-6.29,0-12.59-.04-18.88,.03-1.55,.02-1.97-.28-1.46-1.87,1.3-4,2.46-8.04,3.63-12.08,.73-2.5,1.17-5.07,1.37-7.67,.08-1.12,.37-1.63,1.6-1.63,9.13,.04,18.27,.02,27.4,.02,.79,0,1.51-.04,1.6,1.11,.54,7.02,3.14,13.53,5.05,20.21,.46,1.59,.17,1.92-1.43,1.9-6.29-.08-12.59-.03-18.88-.03Z"/><path class="cls-4" d="M293.68,157.79c-3.99,0-7.99-.09-11.98,.04-1.94,.06-2.92-.27-2.39-2.49,.31-1.33,.11-2.74,.5-4.09,1.02-3.51,3.8-5.66,7.43-5.67,4.38,0,8.76-.01,13.14,0,3.84,0,6.87,2.56,7.59,6.36q1.1,5.86-4.83,5.86c-3.15,0-6.3,0-9.45,0Z"/></g></g><g id="ssG007.tif-14"><g><path class="cls-4" d="M357.08,144.53c6.38,0,12.75,.03,19.13-.03,1.42-.01,1.79,.22,1.49,1.77-1.15,5.9-.73,11.75,1.07,17.48,1.81,5.78,1.28,11.72,.94,17.57-.24,4.12-3.81,6.61-8.57,6.65-6.68,.06-13.37,.02-20.05,.02-2.84,0-5.69,.05-8.53-.02-5.56-.12-8.68-3.26-8.73-8.79-.06-6.05-.12-12.06,1.77-17.97,1.53-4.8,1.43-9.84,.48-14.8-.29-1.53,.07-1.95,1.64-1.93,6.45,.08,12.91,.03,19.36,.03Z"/><path class="cls-4" d="M356.81,137.62c-6.92,0-13.84-.04-20.75,.03-1.54,.02-2.11-.43-2.3-2-.59-4.76-.52-9.48,.15-14.21,.19-1.37,.7-1.86,2.18-1.86,13.83,.06,27.67,.06,41.5,0,1.58,0,2.1,.5,2.3,2.02,.61,4.74,.66,9.46,.08,14.21-.19,1.54-.78,1.84-2.17,1.83-6.99-.06-13.99-.03-20.98-.03Z"/><path class="cls-4" d="M356.88,112.73c-6.29,0-12.59-.04-18.88,.03-1.55,.02-1.97-.28-1.46-1.87,1.3-4,2.46-8.04,3.63-12.08,.73-2.5,1.17-5.07,1.37-7.67,.08-1.12,.37-1.63,1.6-1.63,9.13,.04,18.27,.02,27.4,.02,.79,0,1.51-.04,1.6,1.11,.54,7.02,3.14,13.53,5.05,20.21,.46,1.59,.17,1.92-1.43,1.9-6.29-.08-12.59-.03-18.88-.03Z"/><path class="cls-4" d="M356.78,82.63c-3.99,0-7.99-.09-11.98,.04-1.94,.06-2.92-.27-2.39-2.49,.31-1.33,.11-2.74,.5-4.09,1.02-3.51,3.8-5.66,7.43-5.67,4.38,0,8.76-.01,13.14,0,3.84,0,6.87,2.56,7.59,6.36q1.1,5.86-4.83,5.86c-3.15,0-6.3,0-9.45,0Z"/></g></g><g id="ssG007.tif-15"><g><path class="cls-4" d="M356.88,250.99c-6.29,0-12.59-.04-18.88,.03-1.55,.02-1.97-.28-1.46-1.87,1.3-4,2.46-8.04,3.63-12.08,.73-2.5,1.17-5.07,1.37-7.67,.08-1.12,.37-1.63,1.6-1.63,9.13,.04,18.27,.02,27.4,.02,.79,0,1.51-.04,1.6,1.11,.54,7.02,3.14,13.53,5.05,20.21,.46,1.59,.17,1.92-1.43,1.9-6.29-.08-12.59-.03-18.88-.03Z"/><path class="cls-4" d="M356.78,220.89c-3.99,0-7.99-.09-11.98,.04-1.94,.06-2.92-.27-2.39-2.49,.31-1.33,.11-2.74,.5-4.09,1.02-3.51,3.8-5.66,7.43-5.67,4.38,0,8.76-.01,13.14,0,3.84,0,6.87,2.56,7.59,6.36q1.1,5.86-4.83,5.86c-3.15,0-6.3,0-9.45,0Z"/></g></g><rect class="cls-1" width="393.54" height="268"/><g><path class="cls-5" d="M169.29,168.79l-19.15,2.78-14.23-21.83v21.08l-22.47,1.39-2.35-84.42c-.43-.07-.64-.21-.64-.43,0-.5,2.39-.75,7.17-.75,7.77,0,14.5,.3,20.17,.91,5.67,.61,10.33,1.94,13.96,4.01,3.64,2.07,6.33,5.07,8.08,8.99,1.75,3.92,2.62,9.2,2.62,15.84,0,7.06-3.17,13.88-9.52,20.44l16.37,31.99Zm-35.42-45.58c5.42-1.07,8.13-3.6,8.13-7.6v-.64c-.21-2.07-1.11-3.85-2.68-5.35-1.57-1.5-3.85-2.42-6.85-2.78l1.39,16.37Z"/><path class="cls-5" d="M224.29,172.22h-46.65V88.01h44.51v21.61l-22.26,1.39,.75,11.13h20.86v17.33h-19.47v9.74h22.26v23Z"/><path class="cls-5" d="M244.09,86.62c12.98,0,22.79,3.84,29.43,11.5,6.63,7.67,9.95,18.71,9.95,33.12,0,13.27-3.3,23.42-9.9,30.44-6.6,7.03-16.42,10.54-29.48,10.54-2.21,0-4.26-.09-6.15-.27-1.89-.18-3.62-.44-5.19-.8l-4.17-82.6c4.49-1.28,9.67-1.93,15.51-1.93Zm7.38,58.85c1.71-.5,3.25-1.3,4.6-2.41,1.35-1.1,2.51-2.41,3.48-3.91s1.71-3.14,2.25-4.92c.54-1.78,.8-3.6,.8-5.46s-.29-3.64-.86-5.35c-.57-1.71-1.39-3.25-2.46-4.6-1.07-1.35-2.32-2.5-3.75-3.42-1.43-.93-3-1.53-4.71-1.82l.64,31.89Z"/></g><g><path class="cls-3" d="M164.29,164.79l-19.15,2.78-14.23-21.83v21.08l-22.47,1.39-2.35-84.42c-.43-.07-.64-.21-.64-.43,0-.5,2.39-.75,7.17-.75,7.77,0,14.5,.3,20.17,.91,5.67,.61,10.33,1.94,13.96,4.01,3.64,2.07,6.33,5.07,8.08,8.99,1.75,3.92,2.62,9.2,2.62,15.84,0,7.06-3.17,13.88-9.52,20.44l16.37,31.99Zm-35.42-45.58c5.42-1.07,8.13-3.6,8.13-7.6v-.64c-.21-2.07-1.11-3.85-2.68-5.35-1.57-1.5-3.85-2.42-6.85-2.78l1.39,16.37Z"/><path class="cls-3" d="M219.29,168.22h-46.65V84.01h44.51v21.61l-22.26,1.39,.75,11.13h20.86v17.33h-19.47v9.74h22.26v23Z"/><path class="cls-3" d="M239.09,82.62c12.98,0,22.79,3.84,29.43,11.5,6.63,7.67,9.95,18.71,9.95,33.12,0,13.27-3.3,23.42-9.9,30.44-6.6,7.03-16.42,10.54-29.48,10.54-2.21,0-4.26-.09-6.15-.27-1.89-.18-3.62-.44-5.19-.8l-4.17-82.6c4.49-1.28,9.67-1.93,15.51-1.93Zm7.38,58.85c1.71-.5,3.25-1.3,4.6-2.41,1.35-1.1,2.51-2.41,3.48-3.91s1.71-3.14,2.25-4.92c.54-1.78,.8-3.6,.8-5.46s-.29-3.64-.86-5.35c-.57-1.71-1.39-3.25-2.46-4.6-1.07-1.35-2.32-2.5-3.75-3.42-1.43-.93-3-1.53-4.71-1.82l.64,31.89Z"/></g></g></g></svg>