<?xml version="1.0" encoding="utf-8"?>
<!-- Generator: Adobe Illustrator 25.0.0, SVG Export Plug-In . SVG Version: 6.00 Build 0)  -->
<svg version="1.1" id="Capa_1" xmlns="http://www.w3.org/2000/svg" xmlns:xlink="http://www.w3.org/1999/xlink" x="0px" y="0px"
	 viewBox="0 0 393 268.5" style="enable-background:new 0 0 393 268.5;" xml:space="preserve">
<style type="text/css">
	.st0{fill:#38D430;}
	.st1{fill:#FFFFFF;}
	.st2{fill:#0097CE;}
	.st3{fill:#816DAF;}
	.st4{fill:#4E2583;}
	.st5{fill:none;stroke:#4E2583;stroke-width:7.9701;stroke-linecap:round;stroke-miterlimit:10;}
</style>
<rect class="st0" width="393" height="268.5"/>
<g>
	<polygon class="st1" points="179.53,164.82 215.53,164.82 218.53,186.82 201.53,192.82 178.98,183.24 	"/>
	<path class="st2" d="M139.12,225.15l117.02,0.06c0,0,3.23-27.59-11.31-37.21c-28.78-19.04-33.09,6.98-45.61,6.64
		c-23.66-0.65-15.05-22.14-52.69-2.21C138.59,196.63,139.12,225.15,139.12,225.15z"/>
	<g>
		<path class="st1" d="M230.08,86.48c-2.42-2.54-6.35-2.77-9.1-0.61c-4.36,3.42-11.9,7.65-22.54,7.65
			c-10.67,0-18.25-4.25-22.63-7.67c-2.75-2.15-6.68-1.91-9.09,0.62l-0.01,0.01c-3.39,3.56-5.28,8.28-5.28,13.19v31.03
			c0,20.33,16.64,36.97,36.97,36.97h0c20.33,0,36.97-16.64,36.97-36.97V99.67C235.36,94.76,233.47,90.04,230.08,86.48z"/>
	</g>
	<g>
		<path class="st1" d="M237.73,102.53c-0.81,0-1.6,0.07-2.37,0.19c0,3.93,0,22.14,0,27.99c0,0.83-0.04,1.66-0.09,2.48
			c0.8,0.13,1.62,0.22,2.47,0.22c8.52,0,15.44-6.91,15.44-15.44S246.26,102.53,237.73,102.53z"/>
	</g>
	<g>
		<path class="st1" d="M161.42,130.7c0-3.83,0-20.37,0-27.99c-0.77-0.12-1.56-0.19-2.37-0.19c-8.53,0-15.44,6.91-15.44,15.44
			s6.91,15.44,15.44,15.44c0.84,0,1.66-0.09,2.47-0.22v0C161.46,132.36,161.42,131.54,161.42,130.7z"/>
	</g>
	<g>
		<path class="st3" d="M235.22,70.99c-1.24,0-2.31-0.95-2.33-2.19c-0.28-20.6-23.81-24.47-47.24-20.43
			c-19.86,3.43-34.38,20.66-34.38,40.81v15.46c2.28-1.34,4.93-2.11,7.77-2.11c0.81,0,1.6,0.07,2.37,0.19v-3.04
			c0-4.91,1.89-9.64,5.28-13.19l0.01-0.01c2.41-2.53,6.34-2.77,9.09-0.62c4.38,3.42,11.95,7.67,22.63,7.67
			c10.65,0,18.19-4.23,22.54-7.65c2.76-2.16,6.69-1.93,9.1,0.61c3.39,3.56,5.28,8.28,5.28,13.19v3.04c0.77-0.12,1.56-0.19,2.37-0.19
			c2.87,0,5.55,0.8,7.85,2.16c0-4.31,0-8.74,0-12.69C245.59,73.55,238.92,70.99,235.22,70.99z"/>
	</g>
	<g>
		<path class="st4" d="M198.39,171.17c-22.32,0-40.47-18.16-40.47-40.47V99.67c0-5.84,2.22-11.38,6.25-15.61
			c3.67-3.85,9.59-4.26,13.79-0.97c4.04,3.16,10.87,6.93,20.47,6.93c9.58,0,16.37-3.75,20.38-6.9c4.21-3.3,10.14-2.9,13.8,0.94l0,0
			c4.03,4.22,6.25,9.77,6.25,15.61v31.03C238.86,153.02,220.71,171.17,198.39,171.17z M171.58,87.89c-0.86,0-1.7,0.34-2.33,1
			c-2.8,2.93-4.33,6.76-4.33,10.79v31.03c0,18.46,15.01,33.47,33.47,33.47s33.47-15.02,33.47-33.47V99.67
			c0-4.03-1.53-7.86-4.31-10.78l0,0c-1.16-1.21-3.05-1.33-4.41-0.27c-4.88,3.83-13.12,8.39-24.71,8.39
			c-11.6,0-19.88-4.58-24.79-8.42C173.03,88.13,172.3,87.89,171.58,87.89z"/>
	</g>
	<g>
		<path class="st4" d="M237.73,136.9c-0.59,0-1.18-0.03-1.81-0.1c-1.92-0.2-3.32-1.92-3.12-3.85c0.2-1.92,1.92-3.31,3.85-3.12
			c0.35,0.04,0.71,0.06,1.08,0.06c6.58,0,11.93-5.35,11.93-11.93s-5.35-11.93-11.93-11.93c-0.3,0-0.6,0.01-0.9,0.04
			c-1.92,0.17-3.62-1.28-3.77-3.21c-0.16-1.93,1.28-3.62,3.21-3.77c0.48-0.04,0.97-0.06,1.46-0.06c10.44,0,18.94,8.49,18.94,18.94
			S248.18,136.9,237.73,136.9z"/>
	</g>
	<g>
		<path class="st4" d="M159.05,136.9c-10.44,0-18.94-8.49-18.94-18.94c0-11.19,9.8-20.22,21.22-18.79c1.92,0.24,3.28,1.98,3.05,3.9
			c-0.24,1.92-1.98,3.29-3.9,3.05c-0.48-0.06-0.96-0.09-1.43-0.09c-6.58,0-11.93,5.35-11.93,11.93s5.35,11.93,11.93,11.93
			c0.41,0,0.81-0.03,1.21-0.07c1.92-0.23,3.66,1.16,3.88,3.08c0.22,1.92-1.16,3.66-3.08,3.88
			C160.36,136.86,159.7,136.9,159.05,136.9z"/>
	</g>
	<g>
		<path class="st4" d="M198.93,148.26c-5.04,0-9.79-2.07-12.7-5.54c-1.24-1.48-1.05-3.69,0.43-4.93c1.48-1.24,3.69-1.05,4.93,0.43
			c1.6,1.9,4.34,3.04,7.33,3.04c3,0,5.74-1.14,7.33-3.04c1.24-1.48,3.45-1.68,4.93-0.43c1.48,1.24,1.68,3.45,0.43,4.93
			C208.72,146.19,203.97,148.26,198.93,148.26z"/>
	</g>
	<g>
		<circle class="st4" cx="215.61" cy="119.67" r="4.97"/>
	</g>
	<g>
		<circle class="st4" cx="182.25" cy="119.67" r="4.97"/>
	</g>
	<g>
		<path class="st4" d="M151.28,107.22c-1.93,0-3.5-1.57-3.5-3.5V89.18c0-21.92,15.68-40.53,37.29-44.26
			c11.1-1.92,31.48-3.67,43.29,6.14c4.95,4.11,7.64,9.65,8.01,16.48c5.22,0.48,12.73,4.62,12.73,24.46v11.35
			c0,1.93-1.57,3.5-3.5,3.5s-3.5-1.57-3.5-3.5V92c0-10.96-2.56-17.51-6.86-17.51c-3.17,0-5.79-2.53-5.83-5.65
			c-0.07-5.32-1.88-9.37-5.52-12.4c-7.05-5.85-20.76-7.54-37.62-4.63c-18.24,3.15-31.48,18.86-31.48,37.36v14.54
			C154.78,105.66,153.21,107.22,151.28,107.22z"/>
	</g>
	<g>
		<g>
			<path class="st4" d="M255.94,225.21c-1.84,0-3.38-1.44-3.49-3.3l-1.24-21.39c-0.27-4.88-3.63-8.95-8.37-10.14l-20.02-5.04
				c-0.81-0.2-1.61-0.42-2.39-0.65c-1.86-0.53-2.93-2.47-2.4-4.33c0.53-1.86,2.47-2.94,4.33-2.4c0.71,0.2,1.43,0.4,2.17,0.59
				l20.02,5.04c7.72,1.94,13.2,8.59,13.65,16.54l1.24,21.38c0.11,1.93-1.36,3.59-3.29,3.7
				C256.08,225.21,256.01,225.21,255.94,225.21z"/>
		</g>
		<g>
			<path class="st4" d="M139.12,225.15c-0.07,0-0.14,0-0.21-0.01c-1.93-0.11-3.4-1.77-3.29-3.7l1.19-20.44
				c0.44-7.94,5.93-14.59,13.65-16.53l20.02-5.04c0.87-0.22,1.69-0.44,2.49-0.67c1.86-0.53,3.8,0.55,4.33,2.41
				c0.53,1.86-0.55,3.8-2.41,4.33c-0.87,0.25-1.76,0.49-2.7,0.73l-20.02,5.04c-4.73,1.19-8.09,5.27-8.37,10.14l-1.19,20.45
				C142.51,223.71,140.97,225.15,139.12,225.15z"/>
		</g>
	</g>
	<g>
		<path class="st4" d="M217.06,179.21c-1.23,0-2.42-0.64-3.06-1.79c-1.36-2.43-2.08-5.17-2.08-7.92v-5.12c0-1.93,1.57-3.5,3.5-3.5
			s3.5,1.57,3.5,3.5v5.12c0,1.56,0.41,3.11,1.19,4.5c0.95,1.69,0.34,3.82-1.34,4.77C218.23,179.06,217.64,179.21,217.06,179.21z"/>
	</g>
	<g>
		<path class="st4" d="M179.64,179.34c-0.59,0-1.19-0.15-1.74-0.47c-1.68-0.97-2.25-3.11-1.29-4.78c0.81-1.41,1.24-3,1.24-4.6v-5.38
			c0-1.93,1.57-3.5,3.5-3.5c1.93,0,3.5,1.57,3.5,3.5v5.38c0,2.82-0.75,5.62-2.18,8.09C182.03,178.71,180.85,179.34,179.64,179.34z"
			/>
	</g>
	<path class="st5" d="M177.09,180.47c0,0,21.25,26.57,42.51,0"/>
</g>
</svg>
