<?xml version="1.0" encoding="utf-8"?>
<!-- Generator: Adobe Illustrator 25.4.1, SVG Export Plug-In . SVG Version: 6.00 Build 0)  -->
<svg version="1.1" xmlns="http://www.w3.org/2000/svg" xmlns:xlink="http://www.w3.org/1999/xlink" x="0px" y="0px"
	 viewBox="0 0 100 100" style="enable-background:new 0 0 100 100;" xml:space="preserve">
<style type="text/css">
	.st0{fill:none;stroke:#AED180;stroke-width:4.6398;stroke-miterlimit:10;}
	.st1{opacity:0.5;}
	.st2{fill-rule:evenodd;clip-rule:evenodd;fill:#AED180;}
</style>
<g id="Capa_1">
</g>
<g id="ELEMENTS">
	<g>
		<ellipse class="st0" cx="50" cy="50" rx="46" ry="46.8"/>
		<g class="st1">
			<g>
				<path class="st2" d="M65.23,40.72c4.11,2.99,9.14,4.74,14.57,4.74V34.82c-1.03,0-2.05-0.11-3.06-0.33v8.37
					c-5.43,0-10.47-1.76-14.57-4.74v21.7c0,10.86-8.65,19.66-19.33,19.66c-3.98,0-7.69-1.22-10.76-3.32
					c3.51,3.65,8.41,5.91,13.82,5.91c10.68,0,19.33-8.8,19.33-19.66L65.23,40.72L65.23,40.72z M69.01,29.99
					c-2.1-2.33-3.48-5.35-3.78-8.68v-1.37h-2.9C63.06,24.18,65.55,27.79,69.01,29.99L69.01,29.99z M38.83,67.83
					c-1.17-1.56-1.81-3.48-1.8-5.44c0-4.97,3.96-8.99,8.84-8.99c0.91,0,1.81,0.14,2.68,0.42V42.94c-1.01-0.14-2.04-0.2-3.06-0.18
					v8.46c-0.87-0.28-1.77-0.42-2.68-0.42c-4.88,0-8.84,4.03-8.84,8.99C33.97,63.31,35.95,66.35,38.83,67.83z"/>
			</g>
		</g>
		<path class="st2" d="M62.17,38.13c4.11,2.99,9.14,4.74,14.57,4.74V34.5c-3.03-0.66-5.72-2.27-7.74-4.51
			c-3.46-2.19-5.95-5.81-6.68-10.05h-7.62v42.48c-0.02,4.95-3.97,8.96-8.84,8.96c-2.87,0-5.42-1.39-7.04-3.55
			c-2.89-1.48-4.86-4.52-4.86-8.03c0-4.97,3.96-8.99,8.84-8.99c0.94,0,1.84,0.15,2.68,0.42v-8.46
			c-10.49,0.22-18.92,8.93-18.92,19.65c0,5.35,2.1,10.2,5.51,13.74c3.08,2.1,6.78,3.32,10.76,3.32c10.68,0,19.33-8.8,19.33-19.66
			V38.13z"/>
		<g class="st1">
			<path class="st2" d="M76.75,34.5v-2.26c-2.74,0-5.42-0.77-7.74-2.25C71.06,32.27,73.77,33.85,76.75,34.5z M62.33,19.94
				c-0.07-0.4-0.12-0.81-0.16-1.22v-1.37H51.65v42.48c-0.02,4.95-3.97,8.96-8.84,8.96c-1.43,0-2.78-0.35-3.98-0.96
				c1.62,2.16,4.17,3.55,7.04,3.55c4.87,0,8.83-4.01,8.84-8.96V19.94H62.33z M45.5,42.77v-2.41c-0.88-0.12-1.77-0.18-2.65-0.18
				c-10.68,0-19.33,8.8-19.33,19.66c0,6.81,3.4,12.8,8.57,16.33c-3.41-3.54-5.51-8.39-5.51-13.74C26.57,51.7,35.01,42.99,45.5,42.77
				L45.5,42.77z"/>
		</g>
	</g>
</g>
</svg>
