<?xml version="1.0" encoding="utf-8"?>
<!-- Generator: Adobe Illustrator 25.4.1, SVG Export Plug-In . SVG Version: 6.00 Build 0)  -->
<svg version="1.1" id="Capa_1" xmlns="http://www.w3.org/2000/svg" xmlns:xlink="http://www.w3.org/1999/xlink" x="0px" y="0px"
	 viewBox="0 0 393 268.5" style="enable-background:new 0 0 393 268.5;" xml:space="preserve">
<style type="text/css">
	.st0{fill:#0F2861;}
	.st1{fill:#005FB6;}
	.st2{fill:#33BEF0;}
	.st3{fill:#FFFFFF;}
</style>
<rect class="st0" width="393" height="268.5"/>
<path class="st1" d="M75.73,95.91c4.87-2.69,12.37-2.48,17.71-5.74c7.24-4.42,5.21-11.03-0.35-15.74
	c-10.11-8.55-7.05-23.24,4.3-28.59c4.63-2.18,9.9-1.05,10.92,4.52c0.92,5.04-2.3,10.91-2.18,16.07c0.17,7.2,6.91,6.48,11,2.68
	c3.98-3.69,5.98-9.21,10.41-12.47c6.55-4.83,11.08,1.54,16.02,5.48c4.92,3.93,12.24,2.01,17.77,0.8c2.7-0.59,7.58-2.52,10.18-0.93
	c2.51,1.53,1.99,5.21,1.85,7.75c-0.27,4.87,2.05,9.89,7.23,10.76c6.11,1.02,10.75-3.01,14.65-7.1c4.26-4.49,9.24-9.65,15.86-10.02
	c5.12-0.29,10.8,3.61,9.3,9.35c-1.12,4.28-5.78,5.35-9.31,6.95c-4.27,1.94-8.08,4.45-10.63,8.49c-3.5,5.54-2.8,12.61,3.95,15.04
	c6.16,2.21,16.75,0.59,20.65,7.03c2.34,3.85,1.56,9.58-3.53,10.31c-5.63,0.8-11.75-5.12-17.52-1.9c-9.61,5.37,8.01,14.04,9.66,18.91
	c2.35,6.94-5.37,7.55-10.04,6.65c-5.65-1.09-12.06-4.69-17.84-2.39c-5.15,2.04-6.89,7.62-5.92,12.77
	c2.52,13.43,20.6,17.18,23.67,30.45c1.41,6.1-2.95,11.72-9.15,10.72c-13.36-2.14-13.45-19.86-18.68-29.08
	c-1.39-2.45-3.47-5.26-6.63-5.08c-9.84,0.57-7.39,14.55-13.02,19.62c-8.67,7.8-12.17-13.54-20.44-9.5
	c-5.35,2.61-4.96,10.7-4.7,15.65c0.39,7.34,2.45,15.49-1.01,22.4c-3.16,6.3-12.02,9.28-16.06,1.61c-2.51-4.76-1.26-10.06,0.03-14.95
	c1.91-7.24,10.07-28.1-5.59-24.47c-9.61,2.23-11.01,14.23-19.54,17.82c-3.93,1.66-9.72,0.68-10.7-4.32
	c-2.12-10.82,18.16-15.55,14.31-28.02c-1.87-6.05-10.79-5.56-15.72-4.77c-7.24,1.17-13.65,5.26-20.53,7.6
	c-4.78,1.62-11.29,2.39-15.85-0.26c-6.03-3.52-5.77-12.21-0.27-16.42c6.91-5.29,18.43-4.69,26.73-5.88
	c6.85-0.98,16.1-4.65,14.97-13.31c-0.94-7.19-10.52-10.4-10.89-18.07C70.56,100.54,72.61,97.63,75.73,95.91z"/>
<path class="st2" d="M206.45,101.13c4.87-2.69,12.37-2.48,17.71-5.74c7.24-4.42,5.21-11.03-0.35-15.74
	c-10.11-8.55-7.05-23.24,4.3-28.59c4.63-2.18,9.9-1.05,10.92,4.52c0.92,5.04-2.3,10.91-2.18,16.07c0.17,7.2,6.91,6.48,11,2.68
	c3.98-3.69,5.98-9.21,10.41-12.47c6.55-4.83,11.08,1.54,16.02,5.48c4.92,3.93,12.24,2.01,17.77,0.8c2.7-0.59,7.58-2.52,10.18-0.93
	c2.51,1.53,1.99,5.21,1.85,7.75c-0.27,4.87,2.05,9.89,7.23,10.76c6.11,1.02,10.75-3.01,14.65-7.1c4.26-4.49,9.24-9.65,15.86-10.02
	c5.12-0.29,10.8,3.61,9.3,9.35c-1.12,4.28-5.78,5.35-9.31,6.95c-4.27,1.94-8.08,4.45-10.63,8.49c-3.5,5.54-2.8,12.61,3.95,15.04
	c6.16,2.21,16.75,0.59,20.65,7.03c2.34,3.85,1.56,9.58-3.53,10.31c-5.63,0.8-11.75-5.12-17.52-1.9c-9.61,5.37,8.01,14.04,9.66,18.91
	c2.35,6.94-5.37,7.55-10.04,6.65c-5.65-1.09-12.06-4.69-17.84-2.39c-5.15,2.04-6.89,7.62-5.92,12.77
	c2.52,13.43,20.6,17.18,23.67,30.45c1.41,6.1-2.95,11.72-9.15,10.72c-13.36-2.14-13.45-19.86-18.68-29.08
	c-1.39-2.45-3.47-5.26-6.63-5.08c-9.84,0.57-7.39,14.55-13.02,19.62c-8.67,7.8-12.17-13.54-20.44-9.5
	c-5.35,2.61-4.96,10.7-4.7,15.65c0.39,7.34,2.45,15.49-1.01,22.4c-3.16,6.3-12.02,9.28-16.06,1.61c-2.51-4.76-1.26-10.06,0.03-14.95
	c1.91-7.24,10.07-28.1-5.59-24.47c-9.61,2.23-11.01,14.23-19.54,17.82c-3.93,1.66-9.72,0.68-10.7-4.32
	c-2.12-10.82,18.16-15.55,14.31-28.02c-1.87-6.05-10.79-5.56-15.72-4.77c-7.24,1.17-13.65,5.26-20.53,7.6
	c-4.78,1.62-11.29,2.39-15.85-0.26c-6.03-3.52-5.77-12.21-0.27-16.42c6.91-5.29,18.43-4.69,26.73-5.88
	c6.85-0.98,16.1-4.65,14.97-13.31c-0.94-7.19-10.52-10.4-10.89-18.07C201.28,105.77,203.33,102.85,206.45,101.13z"/>
<g>
	<g>
		<path class="st3" d="M107.68,157.93v-47.28c0-0.68,0.33-1.01,0.98-1.01h32.57c0.3,0,0.57,0.1,0.8,0.31
			c0.23,0.21,0.35,0.44,0.35,0.7v10.8c0,0.3-0.11,0.56-0.33,0.77c-0.22,0.21-0.49,0.31-0.82,0.31h-18.6v5.63h15.17
			c0.3,0,0.54,0.1,0.72,0.3c0.17,0.2,0.24,0.41,0.19,0.65l-0.98,10.03c-0.05,0.23-0.19,0.44-0.42,0.63c-0.23,0.19-0.5,0.28-0.8,0.28
			h-13.87v6.08h19.47c0.28,0,0.52,0.09,0.73,0.28c0.21,0.19,0.31,0.41,0.31,0.66V158c0,0.26-0.1,0.49-0.31,0.7
			c-0.21,0.21-0.45,0.31-0.73,0.31h-33.3c-0.23,0-0.46-0.12-0.68-0.35C107.89,158.43,107.75,158.18,107.68,157.93z"/>
		<path class="st3" d="M147.17,157.93v-47.21c0-0.28,0.1-0.53,0.3-0.75c0.2-0.22,0.42-0.33,0.68-0.33h16.63
			c7.59,0,13.7,2.25,18.31,6.76c4.61,4.51,6.92,10.48,6.92,17.91c0,7.39-2.31,13.35-6.94,17.89c-4.62,4.54-10.72,6.81-18.29,6.81
			h-16.63c-0.26,0-0.48-0.11-0.68-0.33C147.27,158.46,147.17,158.21,147.17,157.93z M161.92,146.11h3.7c2.77,0,5-1.08,6.69-3.25
			c1.69-2.17,2.53-5.02,2.53-8.56c0-3.54-0.84-6.39-2.53-8.54c-1.69-2.15-3.92-3.23-6.69-3.23h-3.7V146.11z"/>
		<path class="st3" d="M192.88,134.23c0-3.82,0.62-7.33,1.87-10.54c1.25-3.2,2.98-5.92,5.21-8.14c2.22-2.22,4.94-3.96,8.14-5.21
			c3.2-1.25,6.71-1.87,10.54-1.87c2.63,0,5.27,0.37,7.92,1.1c2.64,0.73,5.01,1.75,7.11,3.05c0.28,0.14,0.48,0.34,0.59,0.59
			c0.12,0.26,0.14,0.49,0.07,0.7l-3.6,10.49c-0.23,0.54-0.69,0.72-1.36,0.55c-3.1-1.67-6.52-2.51-10.27-2.51
			c-3.29,0-5.95,1.08-7.99,3.25c-2.04,2.17-3.06,5.01-3.06,8.52c0,3.54,1.02,6.4,3.06,8.56s4.7,3.25,7.99,3.25
			c2.63,0,4.37-0.45,5.21-1.35v-4.07h-6.57c-0.7,0-1.08-0.27-1.15-0.8l-0.94-9.85c-0.05-0.35,0.03-0.64,0.24-0.87
			c0.21-0.23,0.51-0.35,0.91-0.35h19.4c0.28,0,0.53,0.1,0.75,0.3c0.22,0.2,0.33,0.43,0.33,0.68v22.78c0,0.65-0.29,1.22-0.87,1.71
			c-2.14,1.82-4.78,3.24-7.92,4.26c-3.13,1.02-6.41,1.54-9.84,1.54c-7.71,0-13.93-2.36-18.66-7.09
			C195.24,148.2,192.88,141.97,192.88,134.23z"/>
		<path class="st3" d="M238.83,110.78c-0.16-0.3-0.16-0.57,0.02-0.8c0.17-0.23,0.43-0.35,0.75-0.35h14.89
			c0.75,0,1.29,0.38,1.64,1.15l5.87,12.86l5.87-12.86c0.35-0.77,0.9-1.15,1.64-1.15h14.89c0.33,0,0.58,0.12,0.77,0.35
			c0.19,0.23,0.2,0.5,0.04,0.8l-15.83,28.48V158c0,0.26-0.11,0.49-0.33,0.7c-0.22,0.21-0.47,0.31-0.75,0.31h-12.58
			c-0.28,0-0.53-0.1-0.75-0.31c-0.22-0.21-0.33-0.44-0.33-0.7v-18.73L238.83,110.78z"/>
	</g>
</g>
</svg>
