<?xml version="1.0" encoding="UTF-8"?><svg id="Capa_2" xmlns="http://www.w3.org/2000/svg" viewBox="0 0 393.54 268"><defs><style>.cls-1,.cls-2{fill:#41d23d;}.cls-3{fill:#1b7f50;}.cls-4{opacity:.61;}.cls-2{stroke:#1b7f50;stroke-linejoin:round;stroke-width:2px;}</style></defs><g id="Capa_1-2"><g><rect class="cls-1" width="393.54" height="268"/><g><g id="CphEfc.tif" class="cls-4"><path class="cls-3" d="M22.73,46.89c.06-2.92,.58-5.41,1.57-7.81,.33-.79,.57-.78,1.15-.2,7.99,8.03,15.99,16.04,24.02,24.03,.65,.65,.54,.86-.24,1.2-11.64,5.08-25.13-2.85-26.35-15.5-.07-.68-.12-1.37-.14-1.73Z"/><path class="cls-3" d="M41.8,27.63c13.43,.05,22.63,13.82,17.51,26.21q-.53,1.29-1.48,.34c-7.87-7.87-15.74-15.75-23.61-23.62-.95-.95-.95-.96,.33-1.49,2.32-.97,4.75-1.41,7.26-1.44Z"/><path class="cls-3" d="M70.58,35.72c.11,.6-.2,.6-.38,.68-2.22,.93-4.46,1.82-6.67,2.77-.54,.23-.66-.04-.82-.43-2.16-5.56-5.93-9.66-11.26-12.31-.49-.24-.45-.48-.27-.89,1.87-4.1,3.75-8.2,5.59-12.32,.28-.63,.5-.62,.94-.15,.87,.92,1.77,1.8,2.67,2.69,2.06,2.04,3.1,4.52,3.14,7.41,.06,3.92,1.53,7.2,4.3,9.94,.79,.78,1.57,1.57,2.36,2.35,.16,.16,.38,.26,.4,.27Z"/><path class="cls-3" d="M26.17,80.6c-.14-.14-.31-.29-.47-.45-.84-.84-1.67-1.69-2.52-2.51-2.14-2.08-3.2-4.62-3.24-7.59-.06-3.69-1.4-6.85-3.95-9.5-.9-.94-1.82-1.86-2.76-2.76-.43-.42-.57-.65,.14-.93,2.17-.85,4.33-1.73,6.46-2.67,.63-.28,.78,0,.97,.48,2.14,5.48,5.87,9.51,11.11,12.14,.56,.28,.58,.53,.35,1.03-1.87,4.06-3.71,8.13-5.57,12.2-.1,.22-.1,.55-.52,.56Z"/><path class="cls-3" d="M56.8,58.12c-.16,.24-.28,.43-.42,.6-.78,.95-1.67,1.79-2.58,2.6-.46,.41-.76,.32-1.14-.09-.92-.97-1.89-1.9-2.83-2.85-7.47-7.47-14.93-14.95-22.42-22.39-.67-.67-.73-1.11-.05-1.74,.76-.7,1.49-1.43,2.21-2.17,.52-.54,.89-.45,1.4,.07,2.6,2.65,5.23,5.26,7.86,7.89,5.73,5.74,11.47,11.48,17.2,17.22,.26,.26,.51,.55,.79,.85Z"/></g><g id="CphEfc.tif-2" class="cls-4"><path class="cls-3" d="M22.73,134.89c.06-2.92,.58-5.41,1.57-7.81,.33-.79,.57-.78,1.15-.2,7.99,8.03,15.99,16.04,24.02,24.03,.65,.65,.54,.86-.24,1.2-11.64,5.08-25.13-2.85-26.35-15.5-.07-.68-.12-1.37-.14-1.73Z"/><path class="cls-3" d="M41.8,115.63c13.43,.05,22.63,13.82,17.51,26.21q-.53,1.29-1.48,.34c-7.87-7.87-15.74-15.75-23.61-23.62-.95-.95-.95-.96,.33-1.49,2.32-.97,4.75-1.41,7.26-1.44Z"/><path class="cls-3" d="M70.58,123.71c.11,.6-.2,.6-.38,.68-2.22,.93-4.46,1.82-6.67,2.77-.54,.23-.66-.04-.82-.43-2.16-5.56-5.93-9.66-11.26-12.31-.49-.24-.45-.48-.27-.89,1.87-4.1,3.75-8.2,5.59-12.32,.28-.63,.5-.62,.94-.15,.87,.92,1.77,1.8,2.67,2.69,2.06,2.04,3.1,4.52,3.14,7.41,.06,3.92,1.53,7.2,4.3,9.94,.79,.78,1.57,1.57,2.36,2.35,.16,.16,.38,.26,.4,.27Z"/><path class="cls-3" d="M26.17,168.59c-.14-.14-.31-.29-.47-.45-.84-.84-1.67-1.69-2.52-2.51-2.14-2.08-3.2-4.62-3.24-7.59-.06-3.69-1.4-6.85-3.95-9.5-.9-.94-1.82-1.86-2.76-2.76-.43-.42-.57-.65,.14-.93,2.17-.85,4.33-1.73,6.46-2.67,.63-.28,.78,0,.97,.48,2.14,5.48,5.87,9.51,11.11,12.14,.56,.28,.58,.53,.35,1.03-1.87,4.06-3.71,8.13-5.57,12.2-.1,.22-.1,.55-.52,.56Z"/><path class="cls-3" d="M56.8,146.11c-.16,.24-.28,.43-.42,.6-.78,.95-1.67,1.79-2.58,2.6-.46,.41-.76,.32-1.14-.09-.92-.97-1.89-1.9-2.83-2.85-7.47-7.47-14.93-14.95-22.42-22.39-.67-.67-.73-1.11-.05-1.74,.76-.7,1.49-1.43,2.21-2.17,.52-.54,.89-.45,1.4,.07,2.6,2.65,5.23,5.26,7.86,7.89,5.73,5.74,11.47,11.48,17.2,17.22,.26,.26,.51,.55,.79,.85Z"/></g><g id="CphEfc.tif-3" class="cls-4"><path class="cls-3" d="M22.73,222.88c.06-2.92,.58-5.41,1.57-7.81,.33-.79,.57-.78,1.15-.2,7.99,8.03,15.99,16.04,24.02,24.03,.65,.65,.54,.86-.24,1.2-11.64,5.08-25.13-2.85-26.35-15.5-.07-.68-.12-1.37-.14-1.73Z"/><path class="cls-3" d="M41.8,203.62c13.43,.05,22.63,13.82,17.51,26.21q-.53,1.29-1.48,.34c-7.87-7.87-15.74-15.75-23.61-23.62-.95-.95-.95-.96,.33-1.49,2.32-.97,4.75-1.41,7.26-1.44Z"/><path class="cls-3" d="M70.58,211.71c.11,.6-.2,.6-.38,.68-2.22,.93-4.46,1.82-6.67,2.77-.54,.23-.66-.04-.82-.43-2.16-5.56-5.93-9.66-11.26-12.31-.49-.24-.45-.48-.27-.89,1.87-4.1,3.75-8.2,5.59-12.32,.28-.63,.5-.62,.94-.15,.87,.92,1.77,1.8,2.67,2.69,2.06,2.04,3.1,4.52,3.14,7.41,.06,3.92,1.53,7.2,4.3,9.94,.79,.78,1.57,1.57,2.36,2.35,.16,.16,.38,.26,.4,.27Z"/><path class="cls-3" d="M26.17,256.59c-.14-.14-.31-.29-.47-.45-.84-.84-1.67-1.69-2.52-2.51-2.14-2.08-3.2-4.62-3.24-7.59-.06-3.69-1.4-6.85-3.95-9.5-.9-.94-1.82-1.86-2.76-2.76-.43-.42-.57-.65,.14-.93,2.17-.85,4.33-1.73,6.46-2.67,.63-.28,.78,0,.97,.48,2.14,5.48,5.87,9.51,11.11,12.14,.56,.28,.58,.53,.35,1.03-1.87,4.06-3.71,8.13-5.57,12.2-.1,.22-.1,.55-.52,.56Z"/><path class="cls-3" d="M56.8,234.11c-.16,.24-.28,.43-.42,.6-.78,.95-1.67,1.79-2.58,2.6-.46,.41-.76,.32-1.14-.09-.92-.97-1.89-1.9-2.83-2.85-7.47-7.47-14.93-14.95-22.42-22.39-.67-.67-.73-1.11-.05-1.74,.76-.7,1.49-1.43,2.21-2.17,.52-.54,.89-.45,1.4,.07,2.6,2.65,5.23,5.26,7.86,7.89,5.73,5.74,11.47,11.48,17.2,17.22,.26,.26,.51,.55,.79,.85Z"/></g></g><g><g id="CphEfc.tif-4" class="cls-4"><path class="cls-3" d="M97.63,46.89c.06-2.92,.58-5.41,1.57-7.81,.33-.79,.57-.78,1.15-.2,7.99,8.03,15.99,16.04,24.02,24.03,.65,.65,.54,.86-.24,1.2-11.64,5.08-25.13-2.85-26.35-15.5-.07-.68-.12-1.37-.14-1.73Z"/><path class="cls-3" d="M116.71,27.63c13.43,.05,22.63,13.82,17.51,26.21q-.53,1.29-1.48,.34c-7.87-7.87-15.74-15.75-23.61-23.62-.95-.95-.95-.96,.33-1.49,2.32-.97,4.75-1.41,7.26-1.44Z"/><path class="cls-3" d="M145.49,35.72c.11,.6-.2,.6-.38,.68-2.22,.93-4.46,1.82-6.67,2.77-.54,.23-.66-.04-.82-.43-2.16-5.56-5.93-9.66-11.26-12.31-.49-.24-.45-.48-.27-.89,1.87-4.1,3.75-8.2,5.59-12.32,.28-.63,.5-.62,.94-.15,.87,.92,1.77,1.8,2.67,2.69,2.06,2.04,3.1,4.52,3.14,7.41,.06,3.92,1.53,7.2,4.3,9.94,.79,.78,1.57,1.57,2.36,2.35,.16,.16,.38,.26,.4,.27Z"/><path class="cls-3" d="M101.08,80.6c-.14-.14-.31-.29-.47-.45-.84-.84-1.67-1.69-2.52-2.51-2.14-2.08-3.2-4.62-3.24-7.59-.06-3.69-1.4-6.85-3.95-9.5-.9-.94-1.82-1.86-2.76-2.76-.43-.42-.57-.65,.14-.93,2.17-.85,4.33-1.73,6.46-2.67,.63-.28,.78,0,.97,.48,2.14,5.48,5.87,9.51,11.11,12.14,.56,.28,.58,.53,.35,1.03-1.87,4.06-3.71,8.13-5.57,12.2-.1,.22-.1,.55-.52,.56Z"/><path class="cls-3" d="M131.7,58.12c-.16,.24-.28,.43-.42,.6-.78,.95-1.67,1.79-2.58,2.6-.46,.41-.76,.32-1.14-.09-.92-.97-1.89-1.9-2.83-2.85-7.47-7.47-14.93-14.95-22.42-22.39-.67-.67-.73-1.11-.05-1.74,.76-.7,1.49-1.43,2.21-2.17,.52-.54,.89-.45,1.4,.07,2.6,2.65,5.23,5.26,7.86,7.89,5.73,5.74,11.47,11.48,17.2,17.22,.26,.26,.51,.55,.79,.85Z"/></g><g id="CphEfc.tif-5" class="cls-4"><path class="cls-3" d="M97.63,134.89c.06-2.92,.58-5.41,1.57-7.81,.33-.79,.57-.78,1.15-.2,7.99,8.03,15.99,16.04,24.02,24.03,.65,.65,.54,.86-.24,1.2-11.64,5.08-25.13-2.85-26.35-15.5-.07-.68-.12-1.37-.14-1.73Z"/><path class="cls-3" d="M116.71,115.63c13.43,.05,22.63,13.82,17.51,26.21q-.53,1.29-1.48,.34c-7.87-7.87-15.74-15.75-23.61-23.62-.95-.95-.95-.96,.33-1.49,2.32-.97,4.75-1.41,7.26-1.44Z"/><path class="cls-3" d="M145.49,123.71c.11,.6-.2,.6-.38,.68-2.22,.93-4.46,1.82-6.67,2.77-.54,.23-.66-.04-.82-.43-2.16-5.56-5.93-9.66-11.26-12.31-.49-.24-.45-.48-.27-.89,1.87-4.1,3.75-8.2,5.59-12.32,.28-.63,.5-.62,.94-.15,.87,.92,1.77,1.8,2.67,2.69,2.06,2.04,3.1,4.52,3.14,7.41,.06,3.92,1.53,7.2,4.3,9.94,.79,.78,1.57,1.57,2.36,2.35,.16,.16,.38,.26,.4,.27Z"/><path class="cls-3" d="M101.08,168.59c-.14-.14-.31-.29-.47-.45-.84-.84-1.67-1.69-2.52-2.51-2.14-2.08-3.2-4.62-3.24-7.59-.06-3.69-1.4-6.85-3.95-9.5-.9-.94-1.82-1.86-2.76-2.76-.43-.42-.57-.65,.14-.93,2.17-.85,4.33-1.73,6.46-2.67,.63-.28,.78,0,.97,.48,2.14,5.48,5.87,9.51,11.11,12.14,.56,.28,.58,.53,.35,1.03-1.87,4.06-3.71,8.13-5.57,12.2-.1,.22-.1,.55-.52,.56Z"/><path class="cls-3" d="M131.7,146.11c-.16,.24-.28,.43-.42,.6-.78,.95-1.67,1.79-2.58,2.6-.46,.41-.76,.32-1.14-.09-.92-.97-1.89-1.9-2.83-2.85-7.47-7.47-14.93-14.95-22.42-22.39-.67-.67-.73-1.11-.05-1.74,.76-.7,1.49-1.43,2.21-2.17,.52-.54,.89-.45,1.4,.07,2.6,2.65,5.23,5.26,7.86,7.89,5.73,5.74,11.47,11.48,17.2,17.22,.26,.26,.51,.55,.79,.85Z"/></g><g id="CphEfc.tif-6" class="cls-4"><path class="cls-3" d="M97.63,222.88c.06-2.92,.58-5.41,1.57-7.81,.33-.79,.57-.78,1.15-.2,7.99,8.03,15.99,16.04,24.02,24.03,.65,.65,.54,.86-.24,1.2-11.64,5.08-25.13-2.85-26.35-15.5-.07-.68-.12-1.37-.14-1.73Z"/><path class="cls-3" d="M116.71,203.62c13.43,.05,22.63,13.82,17.51,26.21q-.53,1.29-1.48,.34c-7.87-7.87-15.74-15.75-23.61-23.62-.95-.95-.95-.96,.33-1.49,2.32-.97,4.75-1.41,7.26-1.44Z"/><path class="cls-3" d="M145.49,211.71c.11,.6-.2,.6-.38,.68-2.22,.93-4.46,1.82-6.67,2.77-.54,.23-.66-.04-.82-.43-2.16-5.56-5.93-9.66-11.26-12.31-.49-.24-.45-.48-.27-.89,1.87-4.1,3.75-8.2,5.59-12.32,.28-.63,.5-.62,.94-.15,.87,.92,1.77,1.8,2.67,2.69,2.06,2.04,3.1,4.52,3.14,7.41,.06,3.92,1.53,7.2,4.3,9.94,.79,.78,1.57,1.57,2.36,2.35,.16,.16,.38,.26,.4,.27Z"/><path class="cls-3" d="M101.08,256.59c-.14-.14-.31-.29-.47-.45-.84-.84-1.67-1.69-2.52-2.51-2.14-2.08-3.2-4.62-3.24-7.59-.06-3.69-1.4-6.85-3.95-9.5-.9-.94-1.82-1.86-2.76-2.76-.43-.42-.57-.65,.14-.93,2.17-.85,4.33-1.73,6.46-2.67,.63-.28,.78,0,.97,.48,2.14,5.48,5.87,9.51,11.11,12.14,.56,.28,.58,.53,.35,1.03-1.87,4.06-3.71,8.13-5.57,12.2-.1,.22-.1,.55-.52,.56Z"/><path class="cls-3" d="M131.7,234.11c-.16,.24-.28,.43-.42,.6-.78,.95-1.67,1.79-2.58,2.6-.46,.41-.76,.32-1.14-.09-.92-.97-1.89-1.9-2.83-2.85-7.47-7.47-14.93-14.95-22.42-22.39-.67-.67-.73-1.11-.05-1.74,.76-.7,1.49-1.43,2.21-2.17,.52-.54,.89-.45,1.4,.07,2.6,2.65,5.23,5.26,7.86,7.89,5.73,5.74,11.47,11.48,17.2,17.22,.26,.26,.51,.55,.79,.85Z"/></g></g><g><g id="CphEfc.tif-7" class="cls-4"><path class="cls-3" d="M172.54,46.89c.06-2.92,.58-5.41,1.57-7.81,.33-.79,.57-.78,1.15-.2,7.99,8.03,15.99,16.04,24.02,24.03,.65,.65,.54,.86-.24,1.2-11.64,5.08-25.13-2.85-26.35-15.5-.07-.68-.12-1.37-.14-1.73Z"/><path class="cls-3" d="M191.61,27.63c13.43,.05,22.63,13.82,17.51,26.21q-.53,1.29-1.48,.34c-7.87-7.87-15.74-15.75-23.61-23.62-.95-.95-.95-.96,.33-1.49,2.32-.97,4.75-1.41,7.26-1.44Z"/><path class="cls-3" d="M220.4,35.72c.11,.6-.2,.6-.38,.68-2.22,.93-4.46,1.82-6.67,2.77-.54,.23-.66-.04-.82-.43-2.16-5.56-5.93-9.66-11.26-12.31-.49-.24-.45-.48-.27-.89,1.87-4.1,3.75-8.2,5.59-12.32,.28-.63,.5-.62,.94-.15,.87,.92,1.77,1.8,2.67,2.69,2.06,2.04,3.1,4.52,3.14,7.41,.06,3.92,1.53,7.2,4.3,9.94,.79,.78,1.57,1.57,2.36,2.35,.16,.16,.38,.26,.4,.27Z"/><path class="cls-3" d="M175.98,80.6c-.14-.14-.31-.29-.47-.45-.84-.84-1.67-1.69-2.52-2.51-2.14-2.08-3.2-4.62-3.24-7.59-.06-3.69-1.4-6.85-3.95-9.5-.9-.94-1.82-1.86-2.76-2.76-.43-.42-.57-.65,.14-.93,2.17-.85,4.33-1.73,6.46-2.67,.63-.28,.78,0,.97,.48,2.14,5.48,5.87,9.51,11.11,12.14,.56,.28,.58,.53,.35,1.03-1.87,4.06-3.71,8.13-5.57,12.2-.1,.22-.1,.55-.52,.56Z"/><path class="cls-3" d="M206.61,58.12c-.16,.24-.28,.43-.42,.6-.78,.95-1.67,1.79-2.58,2.6-.46,.41-.76,.32-1.14-.09-.92-.97-1.89-1.9-2.83-2.85-7.47-7.47-14.93-14.95-22.42-22.39-.67-.67-.73-1.11-.05-1.74,.76-.7,1.49-1.43,2.21-2.17,.52-.54,.89-.45,1.4,.07,2.6,2.65,5.23,5.26,7.86,7.89,5.73,5.74,11.47,11.48,17.2,17.22,.26,.26,.51,.55,.79,.85Z"/></g><g id="CphEfc.tif-8" class="cls-4"><path class="cls-3" d="M172.54,134.89c.06-2.92,.58-5.41,1.57-7.81,.33-.79,.57-.78,1.15-.2,7.99,8.03,15.99,16.04,24.02,24.03,.65,.65,.54,.86-.24,1.2-11.64,5.08-25.13-2.85-26.35-15.5-.07-.68-.12-1.37-.14-1.73Z"/><path class="cls-3" d="M191.61,115.63c13.43,.05,22.63,13.82,17.51,26.21q-.53,1.29-1.48,.34c-7.87-7.87-15.74-15.75-23.61-23.62-.95-.95-.95-.96,.33-1.49,2.32-.97,4.75-1.41,7.26-1.44Z"/><path class="cls-3" d="M220.4,123.71c.11,.6-.2,.6-.38,.68-2.22,.93-4.46,1.82-6.67,2.77-.54,.23-.66-.04-.82-.43-2.16-5.56-5.93-9.66-11.26-12.31-.49-.24-.45-.48-.27-.89,1.87-4.1,3.75-8.2,5.59-12.32,.28-.63,.5-.62,.94-.15,.87,.92,1.77,1.8,2.67,2.69,2.06,2.04,3.1,4.52,3.14,7.41,.06,3.92,1.53,7.2,4.3,9.94,.79,.78,1.57,1.57,2.36,2.35,.16,.16,.38,.26,.4,.27Z"/><path class="cls-3" d="M175.98,168.59c-.14-.14-.31-.29-.47-.45-.84-.84-1.67-1.69-2.52-2.51-2.14-2.08-3.2-4.62-3.24-7.59-.06-3.69-1.4-6.85-3.95-9.5-.9-.94-1.82-1.86-2.76-2.76-.43-.42-.57-.65,.14-.93,2.17-.85,4.33-1.73,6.46-2.67,.63-.28,.78,0,.97,.48,2.14,5.48,5.87,9.51,11.11,12.14,.56,.28,.58,.53,.35,1.03-1.87,4.06-3.71,8.13-5.57,12.2-.1,.22-.1,.55-.52,.56Z"/><path class="cls-3" d="M206.61,146.11c-.16,.24-.28,.43-.42,.6-.78,.95-1.67,1.79-2.58,2.6-.46,.41-.76,.32-1.14-.09-.92-.97-1.89-1.9-2.83-2.85-7.47-7.47-14.93-14.95-22.42-22.39-.67-.67-.73-1.11-.05-1.74,.76-.7,1.49-1.43,2.21-2.17,.52-.54,.89-.45,1.4,.07,2.6,2.65,5.23,5.26,7.86,7.89,5.73,5.74,11.47,11.48,17.2,17.22,.26,.26,.51,.55,.79,.85Z"/></g><g id="CphEfc.tif-9" class="cls-4"><path class="cls-3" d="M172.54,222.88c.06-2.92,.58-5.41,1.57-7.81,.33-.79,.57-.78,1.15-.2,7.99,8.03,15.99,16.04,24.02,24.03,.65,.65,.54,.86-.24,1.2-11.64,5.08-25.13-2.85-26.35-15.5-.07-.68-.12-1.37-.14-1.73Z"/><path class="cls-3" d="M191.61,203.62c13.43,.05,22.63,13.82,17.51,26.21q-.53,1.29-1.48,.34c-7.87-7.87-15.74-15.75-23.61-23.62-.95-.95-.95-.96,.33-1.49,2.32-.97,4.75-1.41,7.26-1.44Z"/><path class="cls-3" d="M220.4,211.71c.11,.6-.2,.6-.38,.68-2.22,.93-4.46,1.82-6.67,2.77-.54,.23-.66-.04-.82-.43-2.16-5.56-5.93-9.66-11.26-12.31-.49-.24-.45-.48-.27-.89,1.87-4.1,3.75-8.2,5.59-12.32,.28-.63,.5-.62,.94-.15,.87,.92,1.77,1.8,2.67,2.69,2.06,2.04,3.1,4.52,3.14,7.41,.06,3.92,1.53,7.2,4.3,9.94,.79,.78,1.57,1.57,2.36,2.35,.16,.16,.38,.26,.4,.27Z"/><path class="cls-3" d="M175.98,256.59c-.14-.14-.31-.29-.47-.45-.84-.84-1.67-1.69-2.52-2.51-2.14-2.08-3.2-4.62-3.24-7.59-.06-3.69-1.4-6.85-3.95-9.5-.9-.94-1.82-1.86-2.76-2.76-.43-.42-.57-.65,.14-.93,2.17-.85,4.33-1.73,6.46-2.67,.63-.28,.78,0,.97,.48,2.14,5.48,5.87,9.51,11.11,12.14,.56,.28,.58,.53,.35,1.03-1.87,4.06-3.71,8.13-5.57,12.2-.1,.22-.1,.55-.52,.56Z"/><path class="cls-3" d="M206.61,234.11c-.16,.24-.28,.43-.42,.6-.78,.95-1.67,1.79-2.58,2.6-.46,.41-.76,.32-1.14-.09-.92-.97-1.89-1.9-2.83-2.85-7.47-7.47-14.93-14.95-22.42-22.39-.67-.67-.73-1.11-.05-1.74,.76-.7,1.49-1.43,2.21-2.17,.52-.54,.89-.45,1.4,.07,2.6,2.65,5.23,5.26,7.86,7.89,5.73,5.74,11.47,11.48,17.2,17.22,.26,.26,.51,.55,.79,.85Z"/></g></g><g><g id="CphEfc.tif-10" class="cls-4"><path class="cls-3" d="M247.45,46.89c.06-2.92,.58-5.41,1.57-7.81,.33-.79,.57-.78,1.15-.2,7.99,8.03,15.99,16.04,24.02,24.03,.65,.65,.54,.86-.24,1.2-11.64,5.08-25.13-2.85-26.35-15.5-.07-.68-.12-1.37-.14-1.73Z"/><path class="cls-3" d="M266.52,27.63c13.43,.05,22.63,13.82,17.51,26.21q-.53,1.29-1.48,.34c-7.87-7.87-15.74-15.75-23.61-23.62-.95-.95-.95-.96,.33-1.49,2.32-.97,4.75-1.41,7.26-1.44Z"/><path class="cls-3" d="M295.31,35.72c.11,.6-.2,.6-.38,.68-2.22,.93-4.46,1.82-6.67,2.77-.54,.23-.66-.04-.82-.43-2.16-5.56-5.93-9.66-11.26-12.31-.49-.24-.45-.48-.27-.89,1.87-4.1,3.75-8.2,5.59-12.32,.28-.63,.5-.62,.94-.15,.87,.92,1.77,1.8,2.67,2.69,2.06,2.04,3.1,4.52,3.14,7.41,.06,3.92,1.53,7.2,4.3,9.94,.79,.78,1.57,1.57,2.36,2.35,.16,.16,.38,.26,.4,.27Z"/><path class="cls-3" d="M250.89,80.6c-.14-.14-.31-.29-.47-.45-.84-.84-1.67-1.69-2.52-2.51-2.14-2.08-3.2-4.62-3.24-7.59-.06-3.69-1.4-6.85-3.95-9.5-.9-.94-1.82-1.86-2.76-2.76-.43-.42-.57-.65,.14-.93,2.17-.85,4.33-1.73,6.46-2.67,.63-.28,.78,0,.97,.48,2.14,5.48,5.87,9.51,11.11,12.14,.56,.28,.58,.53,.35,1.03-1.87,4.06-3.71,8.13-5.57,12.2-.1,.22-.1,.55-.52,.56Z"/><path class="cls-3" d="M281.52,58.12c-.16,.24-.28,.43-.42,.6-.78,.95-1.67,1.79-2.58,2.6-.46,.41-.76,.32-1.14-.09-.92-.97-1.89-1.9-2.83-2.85-7.47-7.47-14.93-14.95-22.42-22.39-.67-.67-.73-1.11-.05-1.74,.76-.7,1.49-1.43,2.21-2.17,.52-.54,.89-.45,1.4,.07,2.6,2.65,5.23,5.26,7.86,7.89,5.73,5.74,11.47,11.48,17.2,17.22,.26,.26,.51,.55,.79,.85Z"/></g><g id="CphEfc.tif-11" class="cls-4"><path class="cls-3" d="M247.45,134.89c.06-2.92,.58-5.41,1.57-7.81,.33-.79,.57-.78,1.15-.2,7.99,8.03,15.99,16.04,24.02,24.03,.65,.65,.54,.86-.24,1.2-11.64,5.08-25.13-2.85-26.35-15.5-.07-.68-.12-1.37-.14-1.73Z"/><path class="cls-3" d="M266.52,115.63c13.43,.05,22.63,13.82,17.51,26.21q-.53,1.29-1.48,.34c-7.87-7.87-15.74-15.75-23.61-23.62-.95-.95-.95-.96,.33-1.49,2.32-.97,4.75-1.41,7.26-1.44Z"/><path class="cls-3" d="M295.31,123.71c.11,.6-.2,.6-.38,.68-2.22,.93-4.46,1.82-6.67,2.77-.54,.23-.66-.04-.82-.43-2.16-5.56-5.93-9.66-11.26-12.31-.49-.24-.45-.48-.27-.89,1.87-4.1,3.75-8.2,5.59-12.32,.28-.63,.5-.62,.94-.15,.87,.92,1.77,1.8,2.67,2.69,2.06,2.04,3.1,4.52,3.14,7.41,.06,3.92,1.53,7.2,4.3,9.94,.79,.78,1.57,1.57,2.36,2.35,.16,.16,.38,.26,.4,.27Z"/><path class="cls-3" d="M250.89,168.59c-.14-.14-.31-.29-.47-.45-.84-.84-1.67-1.69-2.52-2.51-2.14-2.08-3.2-4.62-3.24-7.59-.06-3.69-1.4-6.85-3.95-9.5-.9-.94-1.82-1.86-2.76-2.76-.43-.42-.57-.65,.14-.93,2.17-.85,4.33-1.73,6.46-2.67,.63-.28,.78,0,.97,.48,2.14,5.48,5.87,9.51,11.11,12.14,.56,.28,.58,.53,.35,1.03-1.87,4.06-3.71,8.13-5.57,12.2-.1,.22-.1,.55-.52,.56Z"/><path class="cls-3" d="M281.52,146.11c-.16,.24-.28,.43-.42,.6-.78,.95-1.67,1.79-2.58,2.6-.46,.41-.76,.32-1.14-.09-.92-.97-1.89-1.9-2.83-2.85-7.47-7.47-14.93-14.95-22.42-22.39-.67-.67-.73-1.11-.05-1.74,.76-.7,1.49-1.43,2.21-2.17,.52-.54,.89-.45,1.4,.07,2.6,2.65,5.23,5.26,7.86,7.89,5.73,5.74,11.47,11.48,17.2,17.22,.26,.26,.51,.55,.79,.85Z"/></g><g id="CphEfc.tif-12" class="cls-4"><path class="cls-3" d="M247.45,222.88c.06-2.92,.58-5.41,1.57-7.81,.33-.79,.57-.78,1.15-.2,7.99,8.03,15.99,16.04,24.02,24.03,.65,.65,.54,.86-.24,1.2-11.64,5.08-25.13-2.85-26.35-15.5-.07-.68-.12-1.37-.14-1.73Z"/><path class="cls-3" d="M266.52,203.62c13.43,.05,22.63,13.82,17.51,26.21q-.53,1.29-1.48,.34c-7.87-7.87-15.74-15.75-23.61-23.62-.95-.95-.95-.96,.33-1.49,2.32-.97,4.75-1.41,7.26-1.44Z"/><path class="cls-3" d="M295.31,211.71c.11,.6-.2,.6-.38,.68-2.22,.93-4.46,1.82-6.67,2.77-.54,.23-.66-.04-.82-.43-2.16-5.56-5.93-9.66-11.26-12.31-.49-.24-.45-.48-.27-.89,1.87-4.1,3.75-8.2,5.59-12.32,.28-.63,.5-.62,.94-.15,.87,.92,1.77,1.8,2.67,2.69,2.06,2.04,3.1,4.52,3.14,7.41,.06,3.92,1.53,7.2,4.3,9.94,.79,.78,1.57,1.57,2.36,2.35,.16,.16,.38,.26,.4,.27Z"/><path class="cls-3" d="M250.89,256.59c-.14-.14-.31-.29-.47-.45-.84-.84-1.67-1.69-2.52-2.51-2.14-2.08-3.2-4.62-3.24-7.59-.06-3.69-1.4-6.85-3.95-9.5-.9-.94-1.82-1.86-2.76-2.76-.43-.42-.57-.65,.14-.93,2.17-.85,4.33-1.73,6.46-2.67,.63-.28,.78,0,.97,.48,2.14,5.48,5.87,9.51,11.11,12.14,.56,.28,.58,.53,.35,1.03-1.87,4.06-3.71,8.13-5.57,12.2-.1,.22-.1,.55-.52,.56Z"/><path class="cls-3" d="M281.52,234.11c-.16,.24-.28,.43-.42,.6-.78,.95-1.67,1.79-2.58,2.6-.46,.41-.76,.32-1.14-.09-.92-.97-1.89-1.9-2.83-2.85-7.47-7.47-14.93-14.95-22.42-22.39-.67-.67-.73-1.11-.05-1.74,.76-.7,1.49-1.43,2.21-2.17,.52-.54,.89-.45,1.4,.07,2.6,2.65,5.23,5.26,7.86,7.89,5.73,5.74,11.47,11.48,17.2,17.22,.26,.26,.51,.55,.79,.85Z"/></g></g><g><g id="CphEfc.tif-13" class="cls-4"><path class="cls-3" d="M322.36,46.89c.06-2.92,.58-5.41,1.57-7.81,.33-.79,.57-.78,1.15-.2,7.99,8.03,15.99,16.04,24.02,24.03,.65,.65,.54,.86-.24,1.2-11.64,5.08-25.13-2.85-26.35-15.5-.07-.68-.12-1.37-.14-1.73Z"/><path class="cls-3" d="M341.43,27.63c13.43,.05,22.63,13.82,17.51,26.21q-.53,1.29-1.48,.34c-7.87-7.87-15.74-15.75-23.61-23.62-.95-.95-.95-.96,.33-1.49,2.32-.97,4.75-1.41,7.26-1.44Z"/><path class="cls-3" d="M370.21,35.72c.11,.6-.2,.6-.38,.68-2.22,.93-4.46,1.82-6.67,2.77-.54,.23-.66-.04-.82-.43-2.16-5.56-5.93-9.66-11.26-12.31-.49-.24-.45-.48-.27-.89,1.87-4.1,3.75-8.2,5.59-12.32,.28-.63,.5-.62,.94-.15,.87,.92,1.77,1.8,2.67,2.69,2.06,2.04,3.1,4.52,3.14,7.41,.06,3.92,1.53,7.2,4.3,9.94,.79,.78,1.57,1.57,2.36,2.35,.16,.16,.38,.26,.4,.27Z"/><path class="cls-3" d="M325.8,80.6c-.14-.14-.31-.29-.47-.45-.84-.84-1.67-1.69-2.52-2.51-2.14-2.08-3.2-4.62-3.24-7.59-.06-3.69-1.4-6.85-3.95-9.5-.9-.94-1.82-1.86-2.76-2.76-.43-.42-.57-.65,.14-.93,2.17-.85,4.33-1.73,6.46-2.67,.63-.28,.78,0,.97,.48,2.14,5.48,5.87,9.51,11.11,12.14,.56,.28,.58,.53,.35,1.03-1.87,4.06-3.71,8.13-5.57,12.2-.1,.22-.1,.55-.52,.56Z"/><path class="cls-3" d="M356.43,58.12c-.16,.24-.28,.43-.42,.6-.78,.95-1.67,1.79-2.58,2.6-.46,.41-.76,.32-1.14-.09-.92-.97-1.89-1.9-2.83-2.85-7.47-7.47-14.93-14.95-22.42-22.39-.67-.67-.73-1.11-.05-1.74,.76-.7,1.49-1.43,2.21-2.17,.52-.54,.89-.45,1.4,.07,2.6,2.65,5.23,5.26,7.86,7.89,5.73,5.74,11.47,11.48,17.2,17.22,.26,.26,.51,.55,.79,.85Z"/></g><g id="CphEfc.tif-14" class="cls-4"><path class="cls-3" d="M322.36,134.89c.06-2.92,.58-5.41,1.57-7.81,.33-.79,.57-.78,1.15-.2,7.99,8.03,15.99,16.04,24.02,24.03,.65,.65,.54,.86-.24,1.2-11.64,5.08-25.13-2.85-26.35-15.5-.07-.68-.12-1.37-.14-1.73Z"/><path class="cls-3" d="M341.43,115.63c13.43,.05,22.63,13.82,17.51,26.21q-.53,1.29-1.48,.34c-7.87-7.87-15.74-15.75-23.61-23.62-.95-.95-.95-.96,.33-1.49,2.32-.97,4.75-1.41,7.26-1.44Z"/><path class="cls-3" d="M370.21,123.71c.11,.6-.2,.6-.38,.68-2.22,.93-4.46,1.82-6.67,2.77-.54,.23-.66-.04-.82-.43-2.16-5.56-5.93-9.66-11.26-12.31-.49-.24-.45-.48-.27-.89,1.87-4.1,3.75-8.2,5.59-12.32,.28-.63,.5-.62,.94-.15,.87,.92,1.77,1.8,2.67,2.69,2.06,2.04,3.1,4.52,3.14,7.41,.06,3.92,1.53,7.2,4.3,9.94,.79,.78,1.57,1.57,2.36,2.35,.16,.16,.38,.26,.4,.27Z"/><path class="cls-3" d="M325.8,168.59c-.14-.14-.31-.29-.47-.45-.84-.84-1.67-1.69-2.52-2.51-2.14-2.08-3.2-4.62-3.24-7.59-.06-3.69-1.4-6.85-3.95-9.5-.9-.94-1.82-1.86-2.76-2.76-.43-.42-.57-.65,.14-.93,2.17-.85,4.33-1.73,6.46-2.67,.63-.28,.78,0,.97,.48,2.14,5.48,5.87,9.51,11.11,12.14,.56,.28,.58,.53,.35,1.03-1.87,4.06-3.71,8.13-5.57,12.2-.1,.22-.1,.55-.52,.56Z"/><path class="cls-3" d="M356.43,146.11c-.16,.24-.28,.43-.42,.6-.78,.95-1.67,1.79-2.58,2.6-.46,.41-.76,.32-1.14-.09-.92-.97-1.89-1.9-2.83-2.85-7.47-7.47-14.93-14.95-22.42-22.39-.67-.67-.73-1.11-.05-1.74,.76-.7,1.49-1.43,2.21-2.17,.52-.54,.89-.45,1.4,.07,2.6,2.65,5.23,5.26,7.86,7.89,5.73,5.74,11.47,11.48,17.2,17.22,.26,.26,.51,.55,.79,.85Z"/></g><g id="CphEfc.tif-15" class="cls-4"><path class="cls-3" d="M322.36,222.88c.06-2.92,.58-5.41,1.57-7.81,.33-.79,.57-.78,1.15-.2,7.99,8.03,15.99,16.04,24.02,24.03,.65,.65,.54,.86-.24,1.2-11.64,5.08-25.13-2.85-26.35-15.5-.07-.68-.12-1.37-.14-1.73Z"/><path class="cls-3" d="M341.43,203.62c13.43,.05,22.63,13.82,17.51,26.21q-.53,1.29-1.48,.34c-7.87-7.87-15.74-15.75-23.61-23.62-.95-.95-.95-.96,.33-1.49,2.32-.97,4.75-1.41,7.26-1.44Z"/><path class="cls-3" d="M370.21,211.71c.11,.6-.2,.6-.38,.68-2.22,.93-4.46,1.82-6.67,2.77-.54,.23-.66-.04-.82-.43-2.16-5.56-5.93-9.66-11.26-12.31-.49-.24-.45-.48-.27-.89,1.87-4.1,3.75-8.2,5.59-12.32,.28-.63,.5-.62,.94-.15,.87,.92,1.77,1.8,2.67,2.69,2.06,2.04,3.1,4.52,3.14,7.41,.06,3.92,1.53,7.2,4.3,9.94,.79,.78,1.57,1.57,2.36,2.35,.16,.16,.38,.26,.4,.27Z"/><path class="cls-3" d="M325.8,256.59c-.14-.14-.31-.29-.47-.45-.84-.84-1.67-1.69-2.52-2.51-2.14-2.08-3.2-4.62-3.24-7.59-.06-3.69-1.4-6.85-3.95-9.5-.9-.94-1.82-1.86-2.76-2.76-.43-.42-.57-.65,.14-.93,2.17-.85,4.33-1.73,6.46-2.67,.63-.28,.78,0,.97,.48,2.14,5.48,5.87,9.51,11.11,12.14,.56,.28,.58,.53,.35,1.03-1.87,4.06-3.71,8.13-5.57,12.2-.1,.22-.1,.55-.52,.56Z"/><path class="cls-3" d="M356.43,234.11c-.16,.24-.28,.43-.42,.6-.78,.95-1.67,1.79-2.58,2.6-.46,.41-.76,.32-1.14-.09-.92-.97-1.89-1.9-2.83-2.85-7.47-7.47-14.93-14.95-22.42-22.39-.67-.67-.73-1.11-.05-1.74,.76-.7,1.49-1.43,2.21-2.17,.52-.54,.89-.45,1.4,.07,2.6,2.65,5.23,5.26,7.86,7.89,5.73,5.74,11.47,11.48,17.2,17.22,.26,.26,.51,.55,.79,.85Z"/></g></g><g><path class="cls-3" d="M104.66,141.42c0,9.63-1.18,16.05-3.53,19.26-5.42,7.56-14.23,11.34-26.43,11.34-5.35,0-10.13-.96-14.34-2.89-4.21-1.93-7.76-4.72-10.65-8.4-2.89-3.67-5.08-8.17-6.58-13.48-1.5-5.31-2.25-11.36-2.25-18.14,0-20.26,7.24-33.49,21.72-39.7,4.42-2,9.09-3,14.02-3,8.56,0,17.19,2.57,25.89,7.7l-11.24,21.08c-2.35-3.28-7.24-4.92-14.66-4.92-4.28,0-7.53,1.69-9.74,5.08-2.21,3.39-3.32,8.12-3.32,14.18,0,3.14,.3,6.03,.91,8.67,.61,2.64,1.46,4.91,2.57,6.79,1.1,1.89,2.46,3.35,4.07,4.39,1.61,1.03,3.44,1.55,5.51,1.55,6.13,0,9.2-2.28,9.2-6.85,0-.5-.04-.78-.11-.86l-9.09-.75-1.39-20.97,28.03-.75c.5,3.42,.86,6.85,1.07,10.27s.32,6.88,.32,10.38Z"/><path class="cls-3" d="M166.51,168.6l-19.15,2.78-14.23-21.83v21.08l-22.47,1.39-2.35-84.42c-.43-.07-.64-.21-.64-.43,0-.5,2.39-.75,7.17-.75,7.77,0,14.5,.3,20.17,.91,5.67,.61,10.33,1.94,13.96,4.01,3.64,2.07,6.33,5.07,8.08,8.99,1.75,3.92,2.62,9.2,2.62,15.84,0,7.06-3.17,13.88-9.52,20.44l16.37,31.99Zm-35.42-45.58c5.42-1.07,8.13-3.6,8.13-7.6v-.64c-.21-2.07-1.11-3.85-2.68-5.35-1.57-1.5-3.85-2.42-6.85-2.78l1.39,16.37Z"/><path class="cls-3" d="M221.5,172.02h-46.65V87.81h44.51v21.61l-22.26,1.39,.75,11.13h20.86v17.33h-19.47v9.74h22.26v23Z"/><path class="cls-3" d="M276.39,172.02h-46.65V87.81h44.51v21.61l-22.26,1.39,.75,11.13h20.86v17.33h-19.47v9.74h22.26v23Z"/><path class="cls-3" d="M343.48,171.38l-20.22-1.28-16.37-27.5,2.03,29.42h-22.26V88.99h20.87l15.09,34.67v-37.24l20.86,1.28v83.67Z"/></g><g><path class="cls-2" d="M98.66,133.42c0,9.63-1.18,16.05-3.53,19.26-5.42,7.56-14.23,11.34-26.43,11.34-5.35,0-10.13-.96-14.34-2.89-4.21-1.93-7.76-4.72-10.65-8.4-2.89-3.67-5.08-8.17-6.58-13.48-1.5-5.31-2.25-11.36-2.25-18.14,0-20.26,7.24-33.49,21.72-39.7,4.42-2,9.09-3,14.02-3,8.56,0,17.19,2.57,25.89,7.7l-11.24,21.08c-2.35-3.28-7.24-4.92-14.66-4.92-4.28,0-7.53,1.69-9.74,5.08-2.21,3.39-3.32,8.12-3.32,14.18,0,3.14,.3,6.03,.91,8.67,.61,2.64,1.46,4.91,2.57,6.79,1.1,1.89,2.46,3.35,4.07,4.39,1.61,1.03,3.44,1.55,5.51,1.55,6.13,0,9.2-2.28,9.2-6.85,0-.5-.04-.78-.11-.86l-9.09-.75-1.39-20.97,28.03-.75c.5,3.42,.86,6.85,1.07,10.27s.32,6.88,.32,10.38Z"/><path class="cls-2" d="M160.51,160.6l-19.15,2.78-14.23-21.83v21.08l-22.47,1.39-2.35-84.42c-.43-.07-.64-.21-.64-.43,0-.5,2.39-.75,7.17-.75,7.77,0,14.5,.3,20.17,.91,5.67,.61,10.33,1.94,13.96,4.01,3.64,2.07,6.33,5.07,8.08,8.99,1.75,3.92,2.62,9.2,2.62,15.84,0,7.06-3.17,13.88-9.52,20.44l16.37,31.99Zm-35.42-45.58c5.42-1.07,8.13-3.6,8.13-7.6v-.64c-.21-2.07-1.11-3.85-2.68-5.35-1.57-1.5-3.85-2.42-6.85-2.78l1.39,16.37Z"/><path class="cls-2" d="M215.5,164.02h-46.65V79.81h44.51v21.61l-22.26,1.39,.75,11.13h20.86v17.33h-19.47v9.74h22.26v23Z"/><path class="cls-2" d="M270.39,164.02h-46.65V79.81h44.51v21.61l-22.26,1.39,.75,11.13h20.86v17.33h-19.47v9.74h22.26v23Z"/><path class="cls-2" d="M337.48,163.38l-20.22-1.28-16.37-27.5,2.03,29.42h-22.26V80.99h20.87l15.09,34.67v-37.24l20.86,1.28v83.67Z"/></g></g></g></svg>