<?xml version="1.0" encoding="utf-8"?>
<!-- Generator: Adobe Illustrator 25.4.1, SVG Export Plug-In . SVG Version: 6.00 Build 0)  -->
<svg version="1.1" id="Capa_1" xmlns="http://www.w3.org/2000/svg" xmlns:xlink="http://www.w3.org/1999/xlink" x="0px" y="0px"
	 viewBox="0 0 393 268.5" style="enable-background:new 0 0 393 268.5;" xml:space="preserve">
<style type="text/css">
	.st0{fill:#FFD200;}
	.st1{fill:#FFE700;}
	.st2{fill:#FFB900;}
	.st3{fill:#FFFFFF;}
	.st4{fill:#4E2583;}
</style>
<g id="Jacket">
</g>
<rect class="st0" width="393" height="268.5"/>
<g>
	<g>
		<g>
			<path class="st1" d="M-1.27,58.5c0.88-1.79,1.32-2.69,2.2-4.52c0.06-0.14,0.18-0.22,0.36-0.24c0.18-0.02,0.35,0.02,0.49,0.11
				c0.94,0.55,2.07,0.83,3.38,0.82c0.85-0.01,1.54-0.21,2.08-0.62c0.54-0.41,0.85-0.96,0.93-1.65c0-5.95,0-8.93,0-14.88
				c0-0.15,0.06-0.28,0.19-0.39c0.12-0.1,0.29-0.16,0.49-0.18c3.16-0.27,4.75-0.43,7.91-0.8c0.21-0.02,0.36,0.01,0.47,0.1
				c0.11,0.09,0.13,0.21,0.08,0.37c0,6.48,0,9.72,0,16.2c0,2.53-0.95,4.56-2.86,6.02c-1.9,1.46-4.54,2.18-7.91,2.15
				c-1.44-0.01-2.84-0.2-4.22-0.55s-2.48-0.79-3.29-1.32C-1.26,58.92-1.36,58.71-1.27,58.5z"/>
			<path class="st1" d="M16.26,59.9c4.07-9.42,6.1-14.34,10.17-24.56c0.07-0.13,0.22-0.26,0.44-0.39c0.22-0.13,0.43-0.22,0.64-0.25
				c3.67-0.56,5.51-0.87,9.18-1.52c0.21-0.04,0.42-0.02,0.64,0.04s0.37,0.15,0.44,0.26c4.07,9.27,6.1,14.04,10.17,23.87
				c0.07,0.11,0.07,0.22-0.01,0.34c-0.08,0.12-0.21,0.2-0.38,0.22c-3.57,0.43-5.35,0.63-8.92,0.98c-0.42,0.04-0.74-0.09-0.94-0.4
				c-0.54-1.53-0.8-2.29-1.34-3.81c-3.38,0.36-5.08,0.53-8.46,0.81c-0.55,1.58-0.82,2.36-1.36,3.92c-0.21,0.33-0.52,0.51-0.94,0.54
				c-3.56,0.22-5.34,0.3-8.9,0.41c-0.18,0.01-0.31-0.04-0.4-0.14C16.2,60.11,16.19,60.01,16.26,59.9z M29.69,50.09
				c1.94-0.21,2.91-0.32,4.86-0.55c-0.98-2.71-1.46-4.06-2.44-6.74C31.14,45.74,30.66,47.2,29.69,50.09z"/>
			<path class="st1" d="M47.95,55.75c0.88-2.27,1.32-3.41,2.2-5.72c0.06-0.18,0.18-0.29,0.36-0.34c0.18-0.05,0.35-0.03,0.49,0.05
				c0.94,0.51,2.07,0.66,3.38,0.46c0.85-0.13,1.54-0.48,2.08-1.04c0.54-0.56,0.85-1.25,0.93-2.07c0-7.02,0-10.52,0-17.54
				c0-0.18,0.06-0.34,0.19-0.48c0.12-0.14,0.29-0.23,0.49-0.28c3.16-0.72,4.75-1.09,7.91-1.84c0.21-0.05,0.36-0.03,0.47,0.07
				c0.11,0.09,0.13,0.23,0.08,0.42c0,7.6,0,11.4,0,19c0,2.97-0.95,5.45-2.86,7.4c-1.9,1.95-4.54,3.14-7.91,3.6
				c-1.44,0.19-2.84,0.19-4.22,0c-1.38-0.19-2.48-0.53-3.29-1.02C47.96,56.25,47.86,56.02,47.95,55.75z"/>
			<path class="st1" d="M65.48,54.89c3.49-9.88,6.88-19.8,10.17-29.74c0.07-0.16,0.22-0.32,0.44-0.49s0.43-0.28,0.64-0.34
				c3.67-0.92,5.51-1.4,9.18-2.34c0.21-0.05,0.42-0.05,0.64,0.02s0.37,0.16,0.44,0.28c3.49,9.04,6.88,18.12,10.17,27.23
				c0.07,0.12,0.07,0.25-0.01,0.4c-0.08,0.15-0.21,0.23-0.38,0.27c-3.57,0.63-5.35,0.94-8.92,1.56c-0.42,0.07-0.74-0.06-0.94-0.41
				c-0.54-1.74-0.8-2.61-1.34-4.34c-3.38,0.63-5.08,0.95-8.46,1.56c-0.54,1.88-0.82,2.82-1.36,4.69c-0.21,0.41-0.52,0.64-0.94,0.71
				c-3.56,0.59-5.34,0.87-8.9,1.42c-0.18,0.03-0.31-0.01-0.4-0.12C65.42,55.14,65.41,55.02,65.48,54.89z M78.91,42.1
				c1.94-0.39,2.91-0.59,4.86-0.98c-0.98-3.09-1.46-4.63-2.44-7.68C80.36,36.92,79.88,38.65,78.91,42.1z"/>
			<path class="st1" d="M97.17,47.66c0.88-2.65,1.32-3.99,2.2-6.67c0.06-0.21,0.18-0.34,0.36-0.4c0.18-0.06,0.35-0.04,0.49,0.04
				c0.94,0.56,2.07,0.72,3.38,0.46c0.85-0.17,1.54-0.57,2.08-1.22c0.54-0.65,0.85-1.45,0.93-2.39c0-8.08,0-12.12,0-20.2
				c0-0.21,0.06-0.39,0.19-0.55c0.12-0.16,0.29-0.27,0.49-0.32c3.16-0.82,4.75-1.23,7.91-2.03c0.21-0.05,0.36-0.02,0.47,0.09
				c0.11,0.11,0.13,0.27,0.08,0.49c0,8.72,0,13.08,0,21.8c0,3.4-0.95,6.24-2.86,8.47c-1.9,2.23-4.54,3.61-7.91,4.19
				c-1.44,0.25-2.84,0.28-4.22,0.09c-1.38-0.19-2.48-0.55-3.29-1.08C97.18,48.23,97.08,47.98,97.17,47.66z"/>
			<path class="st1" d="M114.7,46.43c3.46-11.25,6.85-22.52,10.17-33.82c0.07-0.18,0.22-0.36,0.44-0.54s0.43-0.31,0.64-0.36
				c3.67-0.89,5.51-1.33,9.18-2.17c0.21-0.05,0.42-0.03,0.64,0.06c0.22,0.09,0.37,0.2,0.44,0.35c3.45,10.55,6.84,21.11,10.17,31.7
				c0.07,0.14,0.07,0.29-0.01,0.45c-0.08,0.16-0.21,0.25-0.38,0.27c-3.57,0.44-5.35,0.67-8.92,1.17c-0.42,0.06-0.74-0.12-0.94-0.52
				c-0.54-2.01-0.8-3.02-1.34-5.02c-3.38,0.54-5.08,0.82-8.46,1.4c-0.54,2.13-0.82,3.2-1.36,5.32c-0.21,0.46-0.52,0.72-0.94,0.79
				c-3.56,0.57-5.34,0.86-8.9,1.46c-0.18,0.03-0.31-0.02-0.4-0.14C114.64,46.72,114.63,46.58,114.7,46.43z M128.13,32.12
				c1.94-0.36,2.91-0.54,4.86-0.89c-0.98-3.58-1.46-5.36-2.44-8.89C129.58,26.28,129.09,28.23,128.13,32.12z"/>
			<path class="st1" d="M146.39,39.57c0.88-2.94,1.32-4.42,2.2-7.39c0.06-0.23,0.18-0.37,0.36-0.42c0.18-0.05,0.35-0.02,0.49,0.09
				c0.94,0.72,2.07,1,3.38,0.83c0.85-0.11,1.54-0.5,2.08-1.18c0.54-0.68,0.85-1.55,0.93-2.61c0-9.14,0-13.71,0-22.85
				c0-0.24,0.06-0.44,0.19-0.6c0.12-0.17,0.29-0.27,0.49-0.31c3.16-0.58,4.75-0.85,7.91-1.35c0.21-0.03,0.36,0.02,0.47,0.16
				c0.11,0.14,0.13,0.32,0.08,0.56c0,9.84,0,14.76,0,24.6c0,3.84-0.95,6.92-2.86,9.23c-1.9,2.31-4.54,3.59-7.91,3.93
				c-1.44,0.15-2.84,0.05-4.22-0.28c-1.38-0.33-2.48-0.83-3.29-1.5C146.4,40.22,146.3,39.92,146.39,39.57z"/>
			<path class="st1" d="M163.92,39.88c3.45-12.25,6.84-24.51,10.17-36.78c0.07-0.19,0.22-0.37,0.44-0.55s0.43-0.28,0.64-0.31
				c3.67-0.46,5.51-0.66,9.18-0.99c0.21-0.02,0.42,0.04,0.64,0.18s0.37,0.29,0.44,0.47c3.48,12.4,6.87,24.82,10.17,37.27
				c0.07,0.17,0.07,0.34-0.01,0.5c-0.08,0.16-0.21,0.24-0.38,0.24c-3.57-0.14-5.35-0.18-8.92-0.18c-0.42,0-0.74-0.25-0.94-0.74
				c-0.54-2.34-0.8-3.51-1.34-5.84c-3.38,0.07-5.08,0.14-8.46,0.32c-0.54,2.32-0.82,3.48-1.36,5.8c-0.21,0.49-0.52,0.74-0.94,0.76
				c-3.56,0.16-5.34,0.27-8.9,0.54c-0.18,0.01-0.31-0.05-0.4-0.2C163.85,40.2,163.85,40.04,163.92,39.88z M177.35,25.51
				c1.94-0.12,2.91-0.18,4.86-0.27c-0.98-4.17-1.46-6.24-2.44-10.36C178.8,19.15,178.31,21.28,177.35,25.51z"/>
		</g>
	</g>
	<g>
		<g>
			<path class="st1" d="M198.73,36.82c0.88-3.2,1.32-4.78,2.2-7.94c0.06-0.24,0.18-0.38,0.36-0.41c0.18-0.03,0.35,0.03,0.49,0.18
				c0.94,0.93,2.07,1.4,3.38,1.41c0.85,0.01,1.54-0.32,2.08-0.97c0.54-0.65,0.85-1.54,0.93-2.66c0-9.8,0-14.69,0-24.49
				c0-0.25,0.06-0.45,0.19-0.6c0.12-0.14,0.29-0.21,0.49-0.19c3.16,0.27,4.75,0.43,7.91,0.8c0.21,0.02,0.36,0.12,0.47,0.3
				c0.11,0.17,0.13,0.37,0.08,0.59c0,10.11,0,15.17,0,25.29c0,3.95-0.95,6.97-2.86,9.15c-1.9,2.18-4.54,3.27-7.91,3.3
				c-1.44,0.01-2.84-0.22-4.22-0.72c-1.38-0.5-2.48-1.16-3.3-2C198.75,37.55,198.64,37.2,198.73,36.82z"/>
			<path class="st1" d="M216.27,39.1c3.3-11.75,6.69-23.47,10.17-35.16c0.07-0.16,0.22-0.3,0.44-0.42c0.22-0.12,0.43-0.16,0.64-0.13
				c3.67,0.56,5.51,0.87,9.18,1.52c0.21,0.04,0.42,0.15,0.64,0.33c0.22,0.18,0.37,0.37,0.44,0.55c3.33,11.97,6.72,23.92,10.17,35.85
				c0.07,0.16,0.07,0.31-0.01,0.45c-0.08,0.14-0.21,0.2-0.38,0.18c-3.57-0.43-5.35-0.63-8.92-0.98c-0.42-0.04-0.74-0.3-0.94-0.78
				c-0.54-2.25-0.8-3.38-1.34-5.64c-3.38-0.36-5.08-0.53-8.46-0.81c-0.54,2.2-0.82,3.31-1.36,5.53c-0.21,0.46-0.52,0.68-0.94,0.65
				c-3.56-0.22-5.34-0.3-8.9-0.41c-0.18-0.01-0.31-0.09-0.4-0.25C216.2,39.42,216.19,39.26,216.27,39.1z M229.69,26.6
				c1.94,0.21,2.91,0.32,4.86,0.55c-0.98-4.12-1.46-6.19-2.44-10.36C231.14,20.68,230.66,22.65,229.69,26.6z"/>
			<path class="st1" d="M247.95,39.57c0.88-2.72,1.32-4.07,2.2-6.75c0.06-0.21,0.18-0.31,0.36-0.31c0.18,0,0.35,0.08,0.49,0.23
				c0.94,0.98,2.07,1.57,3.38,1.77c0.85,0.13,1.54-0.05,2.08-0.56c0.54-0.5,0.85-1.25,0.93-2.23c0-8.73,0-13.1,0-21.83
				c0-0.23,0.06-0.39,0.19-0.5c0.12-0.11,0.29-0.14,0.49-0.09c3.16,0.72,4.75,1.09,7.91,1.84c0.21,0.05,0.36,0.16,0.47,0.33
				c0.11,0.17,0.13,0.35,0.08,0.54c0,8.99,0,13.49,0,22.49c0,3.51-0.95,6.08-2.86,7.77c-1.9,1.69-4.54,2.31-7.91,1.85
				c-1.44-0.19-2.84-0.61-4.22-1.27c-1.38-0.65-2.48-1.42-3.29-2.29C247.96,40.22,247.86,39.89,247.95,39.57z"/>
			<path class="st1" d="M265.48,44.12c3.33-10.01,6.68-20.02,10.17-29.98c0.07-0.14,0.22-0.24,0.44-0.32s0.43-0.09,0.64-0.04
				c3.67,0.92,5.51,1.4,9.18,2.34c0.21,0.05,0.42,0.17,0.64,0.36c0.22,0.18,0.37,0.36,0.44,0.53c3.34,10.85,6.73,21.68,10.17,32.49
				c0.07,0.14,0.07,0.28-0.01,0.39c-0.08,0.12-0.21,0.16-0.38,0.13c-3.57-0.63-5.35-0.94-8.92-1.56c-0.42-0.07-0.74-0.33-0.94-0.77
				c-0.54-2.04-0.8-3.06-1.34-5.11c-3.38-0.63-5.08-0.95-8.46-1.56c-0.54,1.89-0.82,2.85-1.36,4.76c-0.21,0.38-0.52,0.54-0.94,0.47
				c-3.56-0.59-5.34-0.87-8.9-1.42c-0.18-0.03-0.31-0.12-0.4-0.28S265.41,44.25,265.48,44.12z M278.91,34.58
				c1.94,0.39,2.91,0.59,4.86,0.98c-0.98-3.74-1.46-5.63-2.44-9.41C280.36,29.5,279.88,31.19,278.91,34.58z"/>
			<path class="st1" d="M297.17,47.66c0.88-2.33,1.32-3.49,2.2-5.79c0.06-0.18,0.18-0.26,0.36-0.25c0.18,0.01,0.35,0.09,0.49,0.24
				c0.94,0.92,2.07,1.51,3.38,1.77c0.85,0.17,1.54,0.04,2.08-0.37c0.54-0.41,0.85-1.05,0.93-1.91c0-7.67,0-11.51,0-19.18
				c0-0.2,0.06-0.34,0.19-0.43c0.12-0.09,0.29-0.11,0.49-0.05c3.16,0.82,4.75,1.23,7.91,2.03c0.21,0.05,0.36,0.15,0.47,0.31
				c0.11,0.15,0.13,0.31,0.08,0.48c0,7.88,0,11.81,0,19.69c0,3.07-0.95,5.29-2.86,6.7c-1.9,1.4-4.54,1.84-7.91,1.26
				c-1.44-0.25-2.84-0.7-4.22-1.36c-1.38-0.66-2.48-1.41-3.29-2.24C297.18,48.23,297.08,47.94,297.17,47.66z"/>
			<path class="st1" d="M314.7,52.57c4.07-10.68,6.11-15.85,10.17-25.91c0.07-0.12,0.22-0.21,0.44-0.27
				c0.22-0.06,0.43-0.07,0.64-0.02c3.67,0.89,5.51,1.33,9.18,2.17c0.21,0.05,0.42,0.15,0.64,0.31c0.22,0.16,0.37,0.32,0.44,0.46
				c3.28,9.38,6.67,18.73,10.17,28.02c0.07,0.12,0.07,0.24-0.01,0.34c-0.08,0.1-0.21,0.15-0.38,0.12c-3.57-0.44-5.35-0.67-8.92-1.17
				c-0.42-0.06-0.74-0.28-0.94-0.66c-0.54-1.76-0.8-2.65-1.34-4.43c-3.38-0.54-5.08-0.82-8.46-1.4c-0.55,1.65-0.82,2.47-1.36,4.13
				c-0.21,0.33-0.52,0.47-0.94,0.4c-3.56-0.57-5.34-0.86-8.9-1.46c-0.18-0.03-0.31-0.11-0.4-0.25S314.63,52.69,314.7,52.57z
				 M328.13,44.56c1.94,0.36,2.91,0.54,4.86,0.89c-0.98-3.26-1.46-4.9-2.44-8.21C329.58,40.15,329.1,41.61,328.13,44.56z"/>
			<path class="st1" d="M346.39,55.75c0.88-2.04,1.32-3.06,2.2-5.08c0.06-0.16,0.18-0.23,0.36-0.23c0.18,0.01,0.35,0.07,0.49,0.19
				c0.94,0.77,2.07,1.23,3.38,1.4c0.85,0.11,1.54-0.03,2.08-0.41c0.54-0.38,0.85-0.94,0.93-1.69c0-6.61,0-9.91,0-16.52
				c0-0.17,0.06-0.3,0.19-0.38c0.12-0.08,0.29-0.1,0.49-0.07c3.16,0.58,4.75,0.85,7.91,1.35c0.21,0.03,0.36,0.11,0.47,0.24
				c0.11,0.12,0.13,0.26,0.08,0.4c0,6.76,0,10.13,0,16.89c0,2.64-0.95,4.61-2.86,5.94c-1.9,1.33-4.54,1.86-7.91,1.52
				c-1.44-0.15-2.84-0.47-4.22-0.99c-1.38-0.52-2.48-1.13-3.29-1.82C346.4,56.25,346.3,56,346.39,55.75z"/>
			<path class="st1" d="M363.92,59.13c4.07-9.44,6.1-14.03,10.17-22.94c0.07-0.11,0.22-0.19,0.44-0.26
				c0.22-0.07,0.43-0.09,0.64-0.07c3.67,0.46,5.51,0.66,9.18,0.99c0.21,0.02,0.42,0.09,0.64,0.2c0.22,0.11,0.37,0.23,0.44,0.35
				c4.07,9.4,6.11,13.89,10.17,22.45c0.07,0.09,0.07,0.19-0.01,0.29c-0.08,0.1-0.21,0.15-0.38,0.16c-3.57,0.14-5.35,0.18-8.92,0.18
				c-0.42,0-0.74-0.15-0.94-0.45c-0.54-1.43-0.8-2.16-1.34-3.61c-3.38-0.07-5.08-0.14-8.46-0.32c-0.55,1.45-0.82,2.19-1.36,3.65
				c-0.21,0.3-0.52,0.45-0.94,0.43c-3.56-0.16-5.34-0.27-8.9-0.54c-0.18-0.01-0.31-0.08-0.4-0.19
				C363.85,59.34,363.85,59.23,363.92,59.13z M377.35,51.17c1.94,0.12,2.91,0.18,4.86,0.27c-0.98-2.67-1.46-4.01-2.44-6.74
				C378.8,47.27,378.31,48.56,377.35,51.17z"/>
		</g>
	</g>
	<g>
		<g>
			<path class="st1" d="M198.73,89.82c0.88-3.2,1.32-4.78,2.2-7.94c0.06-0.24,0.18-0.38,0.36-0.41c0.18-0.03,0.35,0.03,0.49,0.18
				c0.94,0.93,2.07,1.4,3.38,1.41c0.85,0.01,1.54-0.32,2.08-0.97c0.54-0.65,0.85-1.54,0.93-2.66c0-9.8,0-14.69,0-24.49
				c0-0.25,0.06-0.45,0.19-0.6c0.12-0.14,0.29-0.21,0.49-0.19c3.16,0.27,4.75,0.43,7.91,0.8c0.21,0.02,0.36,0.12,0.47,0.3
				c0.11,0.17,0.13,0.37,0.08,0.59c0,10.11,0,15.17,0,25.29c0,3.95-0.95,6.97-2.86,9.15c-1.9,2.18-4.54,3.27-7.91,3.3
				c-1.44,0.01-2.84-0.22-4.22-0.72c-1.38-0.5-2.48-1.16-3.3-2C198.75,90.55,198.64,90.2,198.73,89.82z"/>
			<path class="st1" d="M216.27,92.1c3.3-11.75,6.69-23.47,10.17-35.16c0.07-0.16,0.22-0.3,0.44-0.42c0.22-0.12,0.43-0.16,0.64-0.13
				c3.67,0.56,5.51,0.87,9.18,1.52c0.21,0.04,0.42,0.15,0.64,0.33c0.22,0.18,0.37,0.37,0.44,0.55c3.33,11.97,6.72,23.92,10.17,35.85
				c0.07,0.16,0.07,0.31-0.01,0.45c-0.08,0.14-0.21,0.2-0.38,0.18c-3.57-0.43-5.35-0.63-8.92-0.98c-0.42-0.04-0.74-0.3-0.94-0.78
				c-0.54-2.25-0.8-3.38-1.34-5.64c-3.38-0.36-5.08-0.53-8.46-0.81c-0.54,2.2-0.82,3.31-1.36,5.53c-0.21,0.46-0.52,0.68-0.94,0.65
				c-3.56-0.22-5.34-0.3-8.9-0.41c-0.18-0.01-0.31-0.09-0.4-0.25C216.2,92.42,216.19,92.26,216.27,92.1z M229.69,79.6
				c1.94,0.21,2.91,0.32,4.86,0.55c-0.98-4.12-1.46-6.19-2.44-10.36C231.14,73.68,230.66,75.65,229.69,79.6z"/>
			<path class="st1" d="M247.95,92.57c0.88-2.72,1.32-4.07,2.2-6.75c0.06-0.21,0.18-0.31,0.36-0.31c0.18,0,0.35,0.08,0.49,0.23
				c0.94,0.98,2.07,1.57,3.38,1.77c0.85,0.13,1.54-0.05,2.08-0.56c0.54-0.5,0.85-1.25,0.93-2.23c0-8.73,0-13.1,0-21.83
				c0-0.23,0.06-0.39,0.19-0.5c0.12-0.11,0.29-0.14,0.49-0.09c3.16,0.72,4.75,1.09,7.91,1.84c0.21,0.05,0.36,0.16,0.47,0.33
				c0.11,0.17,0.13,0.35,0.08,0.54c0,8.99,0,13.49,0,22.49c0,3.51-0.95,6.08-2.86,7.77c-1.9,1.69-4.54,2.31-7.91,1.85
				c-1.44-0.19-2.84-0.61-4.22-1.27c-1.38-0.65-2.48-1.42-3.29-2.29C247.96,93.22,247.86,92.89,247.95,92.57z"/>
			<path class="st1" d="M265.48,97.12c3.33-10.01,6.68-20.02,10.17-29.98c0.07-0.14,0.22-0.24,0.44-0.32s0.43-0.09,0.64-0.04
				c3.67,0.92,5.51,1.4,9.18,2.34c0.21,0.05,0.42,0.17,0.64,0.36s0.37,0.36,0.44,0.53c3.34,10.85,6.73,21.68,10.17,32.49
				c0.07,0.14,0.07,0.28-0.01,0.39c-0.08,0.12-0.21,0.16-0.38,0.13c-3.57-0.63-5.35-0.94-8.92-1.56c-0.42-0.07-0.74-0.33-0.94-0.77
				c-0.54-2.04-0.8-3.06-1.34-5.11c-3.38-0.63-5.08-0.95-8.46-1.56c-0.54,1.89-0.82,2.85-1.36,4.76c-0.21,0.38-0.52,0.54-0.94,0.47
				c-3.56-0.59-5.34-0.87-8.9-1.42c-0.18-0.03-0.31-0.12-0.4-0.28S265.41,97.25,265.48,97.12z M278.91,87.58
				c1.94,0.39,2.91,0.59,4.86,0.98c-0.98-3.74-1.46-5.63-2.44-9.41C280.36,82.5,279.88,84.19,278.91,87.58z"/>
			<path class="st1" d="M297.17,100.66c0.88-2.33,1.32-3.49,2.2-5.79c0.06-0.18,0.18-0.26,0.36-0.25c0.18,0.01,0.35,0.09,0.49,0.24
				c0.94,0.92,2.07,1.51,3.38,1.77c0.85,0.17,1.54,0.04,2.08-0.37c0.54-0.41,0.85-1.05,0.93-1.91c0-7.67,0-11.51,0-19.18
				c0-0.2,0.06-0.34,0.19-0.43c0.12-0.09,0.29-0.11,0.49-0.05c3.16,0.82,4.75,1.23,7.91,2.03c0.21,0.05,0.36,0.15,0.47,0.31
				c0.11,0.15,0.13,0.31,0.08,0.48c0,7.88,0,11.81,0,19.69c0,3.07-0.95,5.29-2.86,6.7c-1.9,1.4-4.54,1.84-7.91,1.26
				c-1.44-0.25-2.84-0.7-4.22-1.36c-1.38-0.66-2.48-1.41-3.29-2.24C297.18,101.23,297.08,100.94,297.17,100.66z"/>
			<path class="st1" d="M314.7,105.57c4.07-10.68,6.11-15.85,10.17-25.91c0.07-0.12,0.22-0.21,0.44-0.27
				c0.22-0.06,0.43-0.07,0.64-0.02c3.67,0.89,5.51,1.33,9.18,2.17c0.21,0.05,0.42,0.15,0.64,0.31c0.22,0.16,0.37,0.32,0.44,0.46
				c3.28,9.38,6.67,18.73,10.17,28.02c0.07,0.12,0.07,0.24-0.01,0.34c-0.08,0.1-0.21,0.15-0.38,0.12c-3.57-0.44-5.35-0.67-8.92-1.17
				c-0.42-0.06-0.74-0.28-0.94-0.66c-0.54-1.76-0.8-2.65-1.34-4.43c-3.38-0.54-5.08-0.82-8.46-1.4c-0.55,1.65-0.82,2.47-1.36,4.13
				c-0.21,0.33-0.52,0.47-0.94,0.4c-3.56-0.57-5.34-0.86-8.9-1.46c-0.18-0.03-0.31-0.11-0.4-0.25S314.63,105.69,314.7,105.57z
				 M328.13,97.56c1.94,0.36,2.91,0.54,4.86,0.89c-0.98-3.26-1.46-4.9-2.44-8.21C329.58,93.15,329.1,94.61,328.13,97.56z"/>
			<path class="st1" d="M346.39,108.75c0.88-2.04,1.32-3.06,2.2-5.08c0.06-0.16,0.18-0.23,0.36-0.23c0.18,0.01,0.35,0.07,0.49,0.19
				c0.94,0.77,2.07,1.23,3.38,1.4c0.85,0.11,1.54-0.03,2.08-0.41c0.54-0.38,0.85-0.94,0.93-1.69c0-6.61,0-9.91,0-16.52
				c0-0.17,0.06-0.3,0.19-0.38c0.12-0.08,0.29-0.1,0.49-0.07c3.16,0.58,4.75,0.85,7.91,1.35c0.21,0.03,0.36,0.11,0.47,0.24
				c0.11,0.12,0.13,0.26,0.08,0.4c0,6.76,0,10.13,0,16.89c0,2.64-0.95,4.61-2.86,5.94c-1.9,1.33-4.54,1.86-7.91,1.52
				c-1.44-0.15-2.84-0.47-4.22-0.99c-1.38-0.52-2.48-1.13-3.29-1.82C346.4,109.25,346.3,109,346.39,108.75z"/>
			<path class="st1" d="M363.92,112.13c4.07-9.44,6.1-14.03,10.17-22.94c0.07-0.11,0.22-0.19,0.44-0.26
				c0.22-0.07,0.43-0.09,0.64-0.07c3.67,0.46,5.51,0.66,9.18,0.99c0.21,0.02,0.42,0.09,0.64,0.2c0.22,0.11,0.37,0.23,0.44,0.35
				c4.07,9.4,6.11,13.89,10.17,22.45c0.07,0.09,0.07,0.19-0.01,0.29c-0.08,0.1-0.21,0.15-0.38,0.16c-3.57,0.14-5.35,0.18-8.92,0.18
				c-0.42,0-0.74-0.15-0.94-0.45c-0.54-1.43-0.8-2.16-1.34-3.61c-3.38-0.07-5.08-0.14-8.46-0.32c-0.55,1.45-0.82,2.19-1.36,3.65
				c-0.21,0.3-0.52,0.45-0.94,0.43c-3.56-0.16-5.34-0.27-8.9-0.54c-0.18-0.01-0.31-0.08-0.4-0.19
				C363.85,112.34,363.85,112.23,363.92,112.13z M377.35,104.17c1.94,0.12,2.91,0.18,4.86,0.27c-0.98-2.67-1.46-4.01-2.44-6.74
				C378.8,100.27,378.31,101.56,377.35,104.17z"/>
		</g>
	</g>
	<g>
		<g>
			<path class="st1" d="M198.73,138.82c0.88-3.2,1.32-4.78,2.2-7.94c0.06-0.24,0.18-0.38,0.36-0.41c0.18-0.03,0.35,0.03,0.49,0.18
				c0.94,0.93,2.07,1.4,3.38,1.41c0.85,0.01,1.54-0.32,2.08-0.97c0.54-0.65,0.85-1.54,0.93-2.66c0-9.8,0-14.69,0-24.49
				c0-0.25,0.06-0.45,0.19-0.6c0.12-0.14,0.29-0.21,0.49-0.19c3.16,0.27,4.75,0.43,7.91,0.8c0.21,0.02,0.36,0.12,0.47,0.3
				c0.11,0.17,0.13,0.37,0.08,0.59c0,10.11,0,15.17,0,25.29c0,3.95-0.95,6.97-2.86,9.15c-1.9,2.18-4.54,3.27-7.91,3.3
				c-1.44,0.01-2.84-0.22-4.22-0.72c-1.38-0.5-2.48-1.16-3.3-2C198.75,139.55,198.64,139.2,198.73,138.82z"/>
			<path class="st1" d="M216.27,141.1c3.3-11.75,6.69-23.47,10.17-35.16c0.07-0.16,0.22-0.3,0.44-0.42
				c0.22-0.12,0.43-0.16,0.64-0.13c3.67,0.56,5.51,0.87,9.18,1.52c0.21,0.04,0.42,0.15,0.64,0.33c0.22,0.18,0.37,0.37,0.44,0.55
				c3.33,11.97,6.72,23.92,10.17,35.85c0.07,0.16,0.07,0.31-0.01,0.45c-0.08,0.14-0.21,0.2-0.38,0.18
				c-3.57-0.43-5.35-0.63-8.92-0.98c-0.42-0.04-0.74-0.3-0.94-0.78c-0.54-2.25-0.8-3.38-1.34-5.64c-3.38-0.36-5.08-0.53-8.46-0.81
				c-0.54,2.2-0.82,3.31-1.36,5.53c-0.21,0.46-0.52,0.68-0.94,0.65c-3.56-0.22-5.34-0.3-8.9-0.41c-0.18-0.01-0.31-0.09-0.4-0.25
				C216.2,141.42,216.19,141.26,216.27,141.1z M229.69,128.59c1.94,0.21,2.91,0.32,4.86,0.55c-0.98-4.12-1.46-6.19-2.44-10.36
				C231.14,122.68,230.66,124.65,229.69,128.59z"/>
			<path class="st1" d="M247.95,141.57c0.88-2.72,1.32-4.07,2.2-6.75c0.06-0.21,0.18-0.31,0.36-0.31c0.18,0,0.35,0.08,0.49,0.23
				c0.94,0.98,2.07,1.57,3.38,1.77c0.85,0.13,1.54-0.05,2.08-0.56c0.54-0.5,0.85-1.25,0.93-2.23c0-8.73,0-13.1,0-21.83
				c0-0.23,0.06-0.39,0.19-0.5c0.12-0.11,0.29-0.14,0.49-0.09c3.16,0.72,4.75,1.09,7.91,1.84c0.21,0.05,0.36,0.16,0.47,0.33
				c0.11,0.17,0.13,0.35,0.08,0.54c0,8.99,0,13.49,0,22.49c0,3.51-0.95,6.08-2.86,7.77c-1.9,1.69-4.54,2.31-7.91,1.85
				c-1.44-0.19-2.84-0.62-4.22-1.27c-1.38-0.65-2.48-1.42-3.29-2.29C247.96,142.22,247.86,141.89,247.95,141.57z"/>
			<path class="st1" d="M265.48,146.11c3.33-10.01,6.68-20.02,10.17-29.98c0.07-0.14,0.22-0.24,0.44-0.32
				c0.22-0.08,0.43-0.09,0.64-0.04c3.67,0.92,5.51,1.4,9.18,2.34c0.21,0.05,0.42,0.17,0.64,0.36c0.22,0.18,0.37,0.36,0.44,0.53
				c3.34,10.85,6.73,21.68,10.17,32.49c0.07,0.15,0.07,0.28-0.01,0.39c-0.08,0.12-0.21,0.16-0.38,0.13
				c-3.57-0.63-5.35-0.94-8.92-1.56c-0.42-0.07-0.74-0.33-0.94-0.77c-0.54-2.04-0.8-3.06-1.34-5.11c-3.38-0.63-5.08-0.95-8.46-1.56
				c-0.54,1.89-0.82,2.85-1.36,4.75c-0.21,0.39-0.52,0.54-0.94,0.47c-3.56-0.59-5.34-0.87-8.9-1.42c-0.18-0.03-0.31-0.12-0.4-0.28
				C265.42,146.39,265.41,146.25,265.48,146.11z M278.91,136.58c1.94,0.39,2.91,0.59,4.86,0.98c-0.98-3.74-1.46-5.63-2.44-9.41
				C280.36,131.5,279.88,133.19,278.91,136.58z"/>
			<path class="st1" d="M297.17,149.66c0.88-2.33,1.32-3.49,2.2-5.79c0.06-0.18,0.18-0.26,0.36-0.25c0.18,0.02,0.35,0.09,0.49,0.24
				c0.94,0.92,2.07,1.51,3.38,1.77c0.85,0.17,1.54,0.04,2.08-0.37c0.54-0.41,0.85-1.05,0.93-1.91c0-7.67,0-11.51,0-19.18
				c0-0.2,0.06-0.34,0.19-0.43c0.12-0.09,0.29-0.11,0.49-0.05c3.16,0.82,4.75,1.23,7.91,2.03c0.21,0.05,0.36,0.15,0.47,0.31
				c0.11,0.15,0.13,0.31,0.08,0.48c0,7.88,0,11.81,0,19.69c0,3.07-0.95,5.29-2.86,6.7c-1.9,1.4-4.54,1.84-7.91,1.26
				c-1.44-0.25-2.84-0.7-4.22-1.36c-1.38-0.66-2.48-1.41-3.29-2.24C297.18,150.23,297.08,149.94,297.17,149.66z"/>
			<path class="st1" d="M314.7,154.57c4.07-10.68,6.11-15.85,10.17-25.91c0.07-0.12,0.22-0.21,0.44-0.27
				c0.22-0.06,0.43-0.07,0.64-0.02c3.67,0.89,5.51,1.33,9.18,2.17c0.21,0.05,0.42,0.15,0.64,0.31c0.22,0.16,0.37,0.32,0.44,0.46
				c3.28,9.38,6.67,18.73,10.17,28.02c0.07,0.12,0.07,0.24-0.01,0.34c-0.08,0.1-0.21,0.15-0.38,0.12c-3.57-0.44-5.35-0.67-8.92-1.17
				c-0.42-0.06-0.74-0.28-0.94-0.66c-0.54-1.76-0.8-2.65-1.34-4.43c-3.38-0.54-5.08-0.82-8.46-1.4c-0.55,1.65-0.82,2.47-1.36,4.13
				c-0.21,0.33-0.52,0.47-0.94,0.4c-3.56-0.57-5.34-0.86-8.9-1.46c-0.18-0.03-0.31-0.12-0.4-0.25
				C314.64,154.81,314.63,154.69,314.7,154.57z M328.13,146.56c1.94,0.36,2.91,0.54,4.86,0.89c-0.98-3.26-1.46-4.9-2.44-8.21
				C329.58,142.15,329.1,143.61,328.13,146.56z"/>
			<path class="st1" d="M346.39,157.75c0.88-2.04,1.32-3.06,2.2-5.08c0.06-0.16,0.18-0.23,0.36-0.23c0.18,0.01,0.35,0.07,0.49,0.19
				c0.94,0.77,2.07,1.23,3.38,1.4c0.85,0.11,1.54-0.03,2.08-0.41c0.54-0.38,0.85-0.94,0.93-1.69c0-6.61,0-9.91,0-16.52
				c0-0.17,0.06-0.3,0.19-0.38c0.12-0.08,0.29-0.1,0.49-0.07c3.16,0.58,4.75,0.85,7.91,1.35c0.21,0.03,0.36,0.11,0.47,0.24
				c0.11,0.12,0.13,0.26,0.08,0.4c0,6.76,0,10.13,0,16.89c0,2.64-0.95,4.61-2.86,5.94c-1.9,1.33-4.54,1.87-7.91,1.52
				c-1.44-0.15-2.84-0.47-4.22-0.99s-2.48-1.13-3.29-1.82C346.4,158.25,346.3,158,346.39,157.75z"/>
			<path class="st1" d="M363.92,161.12c4.07-9.44,6.1-14.03,10.17-22.94c0.07-0.11,0.22-0.19,0.44-0.26
				c0.22-0.07,0.43-0.09,0.64-0.07c3.67,0.46,5.51,0.66,9.18,0.99c0.21,0.02,0.42,0.09,0.64,0.2c0.22,0.11,0.37,0.23,0.44,0.35
				c4.07,9.4,6.11,13.89,10.17,22.45c0.07,0.09,0.07,0.19-0.01,0.29c-0.08,0.1-0.21,0.15-0.38,0.16c-3.57,0.14-5.35,0.18-8.92,0.18
				c-0.42,0-0.74-0.15-0.94-0.45c-0.54-1.43-0.8-2.16-1.34-3.61c-3.38-0.07-5.08-0.14-8.46-0.32c-0.55,1.45-0.82,2.18-1.36,3.65
				c-0.21,0.3-0.52,0.45-0.94,0.43c-3.56-0.16-5.34-0.27-8.9-0.54c-0.18-0.01-0.31-0.08-0.4-0.19
				C363.85,161.33,363.85,161.23,363.92,161.12z M377.35,153.17c1.94,0.12,2.91,0.18,4.86,0.27c-0.98-2.67-1.46-4.01-2.44-6.74
				C378.8,149.27,378.31,150.56,377.35,153.17z"/>
		</g>
	</g>
	<g>
		<g>
			<path class="st1" d="M198.73,188.82c0.88-3.2,1.32-4.78,2.2-7.94c0.06-0.24,0.18-0.38,0.36-0.41c0.18-0.03,0.35,0.03,0.49,0.18
				c0.94,0.93,2.07,1.4,3.38,1.41c0.85,0.01,1.54-0.32,2.08-0.97c0.54-0.65,0.85-1.54,0.93-2.66c0-9.8,0-14.69,0-24.49
				c0-0.25,0.06-0.45,0.19-0.6c0.12-0.14,0.29-0.21,0.49-0.19c3.16,0.27,4.75,0.43,7.91,0.8c0.21,0.02,0.36,0.12,0.47,0.29
				c0.11,0.17,0.13,0.37,0.08,0.59c0,10.11,0,15.17,0,25.29c0,3.95-0.95,6.97-2.86,9.15c-1.9,2.18-4.54,3.27-7.91,3.3
				c-1.44,0.01-2.84-0.22-4.22-0.72c-1.38-0.5-2.48-1.16-3.3-2C198.75,189.55,198.64,189.2,198.73,188.82z"/>
			<path class="st1" d="M216.27,191.1c3.3-11.75,6.69-23.47,10.17-35.16c0.07-0.16,0.22-0.3,0.44-0.42
				c0.22-0.12,0.43-0.16,0.64-0.13c3.67,0.56,5.51,0.87,9.18,1.52c0.21,0.04,0.42,0.15,0.64,0.33c0.22,0.18,0.37,0.37,0.44,0.55
				c3.33,11.97,6.72,23.92,10.17,35.85c0.07,0.16,0.07,0.31-0.01,0.45c-0.08,0.14-0.21,0.2-0.38,0.18
				c-3.57-0.43-5.35-0.63-8.92-0.98c-0.42-0.04-0.74-0.3-0.94-0.78c-0.54-2.25-0.8-3.38-1.34-5.64c-3.38-0.36-5.08-0.53-8.46-0.81
				c-0.54,2.2-0.82,3.31-1.36,5.53c-0.21,0.46-0.52,0.68-0.94,0.65c-3.56-0.22-5.34-0.3-8.9-0.41c-0.18-0.01-0.31-0.09-0.4-0.25
				C216.2,191.42,216.19,191.26,216.27,191.1z M229.69,178.59c1.94,0.21,2.91,0.32,4.86,0.55c-0.98-4.12-1.46-6.19-2.44-10.36
				C231.14,172.68,230.66,174.65,229.69,178.59z"/>
			<path class="st1" d="M247.95,191.57c0.88-2.72,1.32-4.07,2.2-6.75c0.06-0.21,0.18-0.31,0.36-0.31c0.18,0,0.35,0.08,0.49,0.23
				c0.94,0.98,2.07,1.57,3.38,1.77c0.85,0.13,1.54-0.05,2.08-0.56c0.54-0.5,0.85-1.25,0.93-2.23c0-8.73,0-13.1,0-21.83
				c0-0.23,0.06-0.39,0.19-0.5c0.12-0.11,0.29-0.14,0.49-0.09c3.16,0.72,4.75,1.09,7.91,1.84c0.21,0.05,0.36,0.16,0.47,0.33
				c0.11,0.17,0.13,0.35,0.08,0.54c0,8.99,0,13.49,0,22.49c0,3.51-0.95,6.08-2.86,7.77c-1.9,1.69-4.54,2.31-7.91,1.85
				c-1.44-0.19-2.84-0.62-4.22-1.27c-1.38-0.65-2.48-1.42-3.29-2.29C247.96,192.22,247.86,191.89,247.95,191.57z"/>
			<path class="st1" d="M265.48,196.11c3.33-10.01,6.68-20.02,10.17-29.98c0.07-0.14,0.22-0.24,0.44-0.32
				c0.22-0.08,0.43-0.09,0.64-0.04c3.67,0.92,5.51,1.4,9.18,2.34c0.21,0.05,0.42,0.17,0.64,0.36s0.37,0.36,0.44,0.53
				c3.34,10.85,6.73,21.68,10.17,32.49c0.07,0.15,0.07,0.28-0.01,0.39c-0.08,0.12-0.21,0.16-0.38,0.13
				c-3.57-0.63-5.35-0.94-8.92-1.56c-0.42-0.07-0.74-0.33-0.94-0.77c-0.54-2.04-0.8-3.06-1.34-5.11c-3.38-0.63-5.08-0.95-8.46-1.56
				c-0.54,1.89-0.82,2.85-1.36,4.75c-0.21,0.39-0.52,0.54-0.94,0.47c-3.56-0.59-5.34-0.87-8.9-1.42c-0.18-0.03-0.31-0.12-0.4-0.28
				C265.42,196.39,265.41,196.25,265.48,196.11z M278.91,186.58c1.94,0.39,2.91,0.59,4.86,0.98c-0.98-3.74-1.46-5.63-2.44-9.41
				C280.36,181.5,279.88,183.19,278.91,186.58z"/>
			<path class="st1" d="M297.17,199.66c0.88-2.33,1.32-3.49,2.2-5.79c0.06-0.18,0.18-0.26,0.36-0.25c0.18,0.02,0.35,0.09,0.49,0.24
				c0.94,0.92,2.07,1.51,3.38,1.77c0.85,0.17,1.54,0.04,2.08-0.37c0.54-0.41,0.85-1.05,0.93-1.91c0-7.67,0-11.51,0-19.18
				c0-0.2,0.06-0.34,0.19-0.43c0.12-0.09,0.29-0.11,0.49-0.05c3.16,0.82,4.75,1.23,7.91,2.03c0.21,0.05,0.36,0.15,0.47,0.31
				c0.11,0.15,0.13,0.31,0.08,0.48c0,7.88,0,11.81,0,19.69c0,3.07-0.95,5.29-2.86,6.7c-1.9,1.4-4.54,1.84-7.91,1.26
				c-1.44-0.25-2.84-0.7-4.22-1.36c-1.38-0.66-2.48-1.41-3.29-2.24C297.18,200.23,297.08,199.94,297.17,199.66z"/>
			<path class="st1" d="M314.7,204.57c4.07-10.68,6.11-15.85,10.17-25.91c0.07-0.12,0.22-0.21,0.44-0.27
				c0.22-0.06,0.43-0.07,0.64-0.02c3.67,0.89,5.51,1.33,9.18,2.17c0.21,0.05,0.42,0.15,0.64,0.31c0.22,0.16,0.37,0.32,0.44,0.46
				c3.28,9.38,6.67,18.73,10.17,28.02c0.07,0.12,0.07,0.24-0.01,0.34c-0.08,0.1-0.21,0.15-0.38,0.12c-3.57-0.44-5.35-0.67-8.92-1.17
				c-0.42-0.06-0.74-0.28-0.94-0.66c-0.54-1.76-0.8-2.65-1.34-4.43c-3.38-0.54-5.08-0.82-8.46-1.4c-0.55,1.65-0.82,2.47-1.36,4.13
				c-0.21,0.33-0.52,0.47-0.94,0.4c-3.56-0.57-5.34-0.86-8.9-1.46c-0.18-0.03-0.31-0.12-0.4-0.25
				C314.64,204.81,314.63,204.69,314.7,204.57z M328.13,196.56c1.94,0.36,2.91,0.54,4.86,0.89c-0.98-3.26-1.46-4.9-2.44-8.21
				C329.58,192.15,329.1,193.61,328.13,196.56z"/>
			<path class="st1" d="M346.39,207.75c0.88-2.04,1.32-3.06,2.2-5.08c0.06-0.16,0.18-0.23,0.36-0.23c0.18,0.01,0.35,0.07,0.49,0.19
				c0.94,0.77,2.07,1.23,3.38,1.4c0.85,0.11,1.54-0.03,2.08-0.41c0.54-0.38,0.85-0.94,0.93-1.69c0-6.61,0-9.91,0-16.52
				c0-0.17,0.06-0.3,0.19-0.38c0.12-0.08,0.29-0.1,0.49-0.07c3.16,0.58,4.75,0.85,7.91,1.35c0.21,0.03,0.36,0.11,0.47,0.23
				c0.11,0.12,0.13,0.26,0.08,0.4c0,6.76,0,10.13,0,16.89c0,2.64-0.95,4.61-2.86,5.94c-1.9,1.33-4.54,1.87-7.91,1.52
				c-1.44-0.15-2.84-0.47-4.22-0.99c-1.38-0.52-2.48-1.13-3.29-1.82C346.4,208.25,346.3,208,346.39,207.75z"/>
			<path class="st1" d="M363.92,211.12c4.07-9.44,6.1-14.03,10.17-22.94c0.07-0.11,0.22-0.19,0.44-0.26
				c0.22-0.07,0.43-0.09,0.64-0.07c3.67,0.46,5.51,0.66,9.18,0.99c0.21,0.02,0.42,0.09,0.64,0.2c0.22,0.11,0.37,0.23,0.44,0.35
				c4.07,9.4,6.11,13.89,10.17,22.45c0.07,0.09,0.07,0.19-0.01,0.29c-0.08,0.1-0.21,0.15-0.38,0.16c-3.57,0.14-5.35,0.18-8.92,0.18
				c-0.42,0-0.74-0.15-0.94-0.45c-0.54-1.43-0.8-2.16-1.34-3.61c-3.38-0.07-5.08-0.14-8.46-0.32c-0.55,1.45-0.82,2.18-1.36,3.65
				c-0.21,0.3-0.52,0.45-0.94,0.43c-3.56-0.16-5.34-0.27-8.9-0.54c-0.18-0.01-0.31-0.08-0.4-0.19
				C363.85,211.33,363.85,211.23,363.92,211.12z M377.35,203.17c1.94,0.12,2.91,0.18,4.86,0.27c-0.98-2.67-1.46-4.01-2.44-6.73
				C378.8,199.27,378.31,200.56,377.35,203.17z"/>
		</g>
	</g>
	<g>
		<g>
			<path class="st1" d="M198.73,240.82c0.88-3.2,1.32-4.78,2.2-7.94c0.06-0.24,0.18-0.38,0.36-0.41c0.18-0.03,0.35,0.03,0.49,0.18
				c0.94,0.93,2.07,1.4,3.38,1.41c0.85,0.01,1.54-0.32,2.08-0.97c0.54-0.65,0.85-1.54,0.93-2.66c0-9.8,0-14.69,0-24.49
				c0-0.25,0.06-0.45,0.19-0.6c0.12-0.14,0.29-0.21,0.49-0.19c3.16,0.27,4.75,0.43,7.91,0.8c0.21,0.02,0.36,0.12,0.47,0.29
				c0.11,0.17,0.13,0.37,0.08,0.59c0,10.11,0,15.17,0,25.29c0,3.95-0.95,6.97-2.86,9.15c-1.9,2.18-4.54,3.27-7.91,3.3
				c-1.44,0.01-2.84-0.22-4.22-0.72c-1.38-0.5-2.48-1.16-3.3-2C198.75,241.55,198.64,241.2,198.73,240.82z"/>
			<path class="st1" d="M216.27,243.1c3.3-11.75,6.69-23.47,10.17-35.16c0.07-0.16,0.22-0.3,0.44-0.42
				c0.22-0.12,0.43-0.16,0.64-0.13c3.67,0.56,5.51,0.87,9.18,1.52c0.21,0.04,0.42,0.15,0.64,0.33c0.22,0.18,0.37,0.37,0.44,0.55
				c3.33,11.97,6.72,23.92,10.17,35.85c0.07,0.16,0.07,0.31-0.01,0.45c-0.08,0.14-0.21,0.2-0.38,0.18
				c-3.57-0.43-5.35-0.63-8.92-0.98c-0.42-0.04-0.74-0.3-0.94-0.78c-0.54-2.25-0.8-3.38-1.34-5.64c-3.38-0.36-5.08-0.53-8.46-0.81
				c-0.54,2.2-0.82,3.31-1.36,5.53c-0.21,0.46-0.52,0.68-0.94,0.65c-3.56-0.22-5.34-0.3-8.9-0.41c-0.18-0.01-0.31-0.09-0.4-0.25
				C216.2,243.42,216.19,243.26,216.27,243.1z M229.69,230.59c1.94,0.21,2.91,0.32,4.86,0.55c-0.98-4.12-1.46-6.19-2.44-10.36
				C231.14,224.68,230.66,226.65,229.69,230.59z"/>
			<path class="st1" d="M247.95,243.57c0.88-2.72,1.32-4.07,2.2-6.75c0.06-0.21,0.18-0.31,0.36-0.31c0.18,0,0.35,0.08,0.49,0.23
				c0.94,0.98,2.07,1.57,3.38,1.77c0.85,0.13,1.54-0.05,2.08-0.56c0.54-0.5,0.85-1.25,0.93-2.23c0-8.73,0-13.1,0-21.83
				c0-0.23,0.06-0.39,0.19-0.5c0.12-0.11,0.29-0.14,0.49-0.09c3.16,0.72,4.75,1.09,7.91,1.84c0.21,0.05,0.36,0.16,0.47,0.33
				c0.11,0.17,0.13,0.35,0.08,0.54c0,8.99,0,13.49,0,22.49c0,3.51-0.95,6.08-2.86,7.77c-1.9,1.69-4.54,2.31-7.91,1.85
				c-1.44-0.19-2.84-0.62-4.22-1.27c-1.38-0.65-2.48-1.42-3.29-2.29C247.96,244.22,247.86,243.89,247.95,243.57z"/>
			<path class="st1" d="M265.48,248.11c3.33-10.01,6.68-20.02,10.17-29.98c0.07-0.14,0.22-0.24,0.44-0.32
				c0.22-0.08,0.43-0.09,0.64-0.04c3.67,0.92,5.51,1.4,9.18,2.34c0.21,0.05,0.42,0.17,0.64,0.36s0.37,0.36,0.44,0.53
				c3.34,10.85,6.73,21.68,10.17,32.49c0.07,0.15,0.07,0.28-0.01,0.39c-0.08,0.12-0.21,0.16-0.38,0.13
				c-3.57-0.63-5.35-0.94-8.92-1.56c-0.42-0.07-0.74-0.33-0.94-0.77c-0.54-2.04-0.8-3.06-1.34-5.11c-3.38-0.63-5.08-0.95-8.46-1.56
				c-0.54,1.89-0.82,2.85-1.36,4.75c-0.21,0.39-0.52,0.54-0.94,0.47c-3.56-0.59-5.34-0.87-8.9-1.42c-0.18-0.03-0.31-0.12-0.4-0.28
				C265.42,248.39,265.41,248.25,265.48,248.11z M278.91,238.58c1.94,0.39,2.91,0.59,4.86,0.98c-0.98-3.74-1.46-5.63-2.44-9.41
				C280.36,233.5,279.88,235.19,278.91,238.58z"/>
			<path class="st1" d="M297.17,251.66c0.88-2.33,1.32-3.49,2.2-5.79c0.06-0.18,0.18-0.26,0.36-0.25c0.18,0.02,0.35,0.09,0.49,0.24
				c0.94,0.92,2.07,1.51,3.38,1.77c0.85,0.17,1.54,0.04,2.08-0.37c0.54-0.41,0.85-1.05,0.93-1.91c0-7.67,0-11.51,0-19.18
				c0-0.2,0.06-0.34,0.19-0.43c0.12-0.09,0.29-0.11,0.49-0.05c3.16,0.82,4.75,1.23,7.91,2.03c0.21,0.05,0.36,0.15,0.47,0.31
				c0.11,0.15,0.13,0.31,0.08,0.48c0,7.88,0,11.81,0,19.69c0,3.07-0.95,5.29-2.86,6.7c-1.9,1.4-4.54,1.84-7.91,1.26
				c-1.44-0.25-2.84-0.7-4.22-1.36c-1.38-0.66-2.48-1.41-3.29-2.24C297.18,252.23,297.08,251.94,297.17,251.66z"/>
			<path class="st1" d="M314.7,256.57c4.07-10.68,6.11-15.85,10.17-25.91c0.07-0.12,0.22-0.21,0.44-0.27
				c0.22-0.06,0.43-0.07,0.64-0.02c3.67,0.89,5.51,1.33,9.18,2.17c0.21,0.05,0.42,0.15,0.64,0.31c0.22,0.16,0.37,0.32,0.44,0.46
				c3.28,9.38,6.67,18.73,10.17,28.02c0.07,0.12,0.07,0.24-0.01,0.34c-0.08,0.1-0.21,0.15-0.38,0.12c-3.57-0.44-5.35-0.67-8.92-1.17
				c-0.42-0.06-0.74-0.28-0.94-0.66c-0.54-1.76-0.8-2.65-1.34-4.43c-3.38-0.54-5.08-0.82-8.46-1.4c-0.55,1.65-0.82,2.47-1.36,4.13
				c-0.21,0.33-0.52,0.47-0.94,0.4c-3.56-0.57-5.34-0.86-8.9-1.46c-0.18-0.03-0.31-0.12-0.4-0.25
				C314.64,256.81,314.63,256.69,314.7,256.57z M328.13,248.56c1.94,0.36,2.91,0.54,4.86,0.89c-0.98-3.26-1.46-4.9-2.44-8.21
				C329.58,244.15,329.1,245.61,328.13,248.56z"/>
			<path class="st1" d="M346.39,259.75c0.88-2.04,1.32-3.06,2.2-5.08c0.06-0.16,0.18-0.23,0.36-0.23c0.18,0.01,0.35,0.07,0.49,0.19
				c0.94,0.77,2.07,1.23,3.38,1.4c0.85,0.11,1.54-0.03,2.08-0.41c0.54-0.38,0.85-0.94,0.93-1.69c0-6.61,0-9.91,0-16.52
				c0-0.17,0.06-0.3,0.19-0.38c0.12-0.08,0.29-0.1,0.49-0.07c3.16,0.58,4.75,0.85,7.91,1.35c0.21,0.03,0.36,0.11,0.47,0.23
				c0.11,0.12,0.13,0.26,0.08,0.4c0,6.76,0,10.13,0,16.89c0,2.64-0.95,4.61-2.86,5.94c-1.9,1.33-4.54,1.87-7.91,1.52
				c-1.44-0.15-2.84-0.47-4.22-0.99c-1.38-0.52-2.48-1.13-3.29-1.82C346.4,260.25,346.3,260,346.39,259.75z"/>
			<path class="st1" d="M363.92,263.12c4.07-9.44,6.1-14.03,10.17-22.94c0.07-0.11,0.22-0.19,0.44-0.26
				c0.22-0.07,0.43-0.09,0.64-0.07c3.67,0.46,5.51,0.66,9.18,0.99c0.21,0.02,0.42,0.09,0.64,0.2c0.22,0.11,0.37,0.23,0.44,0.35
				c4.07,9.4,6.11,13.89,10.17,22.45c0.07,0.09,0.07,0.19-0.01,0.29c-0.08,0.1-0.21,0.15-0.38,0.16c-3.57,0.14-5.35,0.18-8.92,0.18
				c-0.42,0-0.74-0.15-0.94-0.45c-0.54-1.43-0.8-2.16-1.34-3.61c-3.38-0.07-5.08-0.14-8.46-0.32c-0.55,1.45-0.82,2.18-1.36,3.65
				c-0.21,0.3-0.52,0.45-0.94,0.43c-3.56-0.16-5.34-0.27-8.9-0.54c-0.18-0.01-0.31-0.08-0.4-0.19
				C363.85,263.33,363.85,263.23,363.92,263.12z M377.35,255.17c1.94,0.12,2.91,0.18,4.86,0.27c-0.98-2.67-1.46-4.01-2.44-6.73
				C378.8,251.27,378.31,252.56,377.35,255.17z"/>
		</g>
	</g>
	<g>
		<g>
			<path class="st1" d="M-1.27,111.5c0.88-1.79,1.32-2.69,2.2-4.52c0.06-0.14,0.18-0.22,0.36-0.24c0.18-0.02,0.35,0.02,0.49,0.11
				c0.94,0.55,2.07,0.83,3.38,0.82c0.85-0.01,1.54-0.21,2.08-0.62c0.54-0.41,0.85-0.96,0.93-1.65c0-5.95,0-8.93,0-14.88
				c0-0.15,0.06-0.28,0.19-0.39c0.12-0.1,0.29-0.16,0.49-0.18c3.16-0.27,4.75-0.43,7.91-0.8c0.21-0.02,0.36,0.01,0.47,0.1
				c0.11,0.09,0.13,0.21,0.08,0.37c0,6.48,0,9.72,0,16.2c0,2.53-0.95,4.56-2.86,6.02c-1.9,1.46-4.54,2.18-7.91,2.15
				c-1.44-0.01-2.84-0.2-4.22-0.55c-1.38-0.35-2.48-0.79-3.29-1.32C-1.26,111.92-1.36,111.71-1.27,111.5z"/>
			<path class="st1" d="M16.26,112.9c4.07-9.42,6.1-14.34,10.17-24.56c0.07-0.13,0.22-0.26,0.44-0.39s0.43-0.22,0.64-0.25
				c3.67-0.56,5.51-0.87,9.18-1.52c0.21-0.04,0.42-0.02,0.64,0.04s0.37,0.15,0.44,0.26c4.07,9.27,6.1,14.04,10.17,23.87
				c0.07,0.11,0.07,0.22-0.01,0.34c-0.08,0.12-0.21,0.2-0.38,0.22c-3.57,0.43-5.35,0.63-8.92,0.98c-0.42,0.04-0.74-0.09-0.94-0.4
				c-0.54-1.53-0.8-2.29-1.34-3.81c-3.38,0.36-5.08,0.53-8.46,0.81c-0.55,1.58-0.82,2.36-1.36,3.92c-0.21,0.33-0.52,0.51-0.94,0.54
				c-3.56,0.22-5.34,0.3-8.9,0.41c-0.18,0.01-0.31-0.04-0.4-0.14C16.2,113.11,16.19,113.01,16.26,112.9z M29.69,103.09
				c1.94-0.21,2.91-0.32,4.86-0.55c-0.98-2.71-1.46-4.06-2.44-6.74C31.14,98.74,30.66,100.2,29.69,103.09z"/>
			<path class="st1" d="M47.95,108.75c0.88-2.27,1.32-3.41,2.2-5.72c0.06-0.18,0.18-0.29,0.36-0.34c0.18-0.05,0.35-0.03,0.49,0.05
				c0.94,0.51,2.07,0.66,3.38,0.46c0.85-0.13,1.54-0.48,2.08-1.04c0.54-0.56,0.85-1.25,0.93-2.07c0-7.02,0-10.52,0-17.54
				c0-0.18,0.06-0.34,0.19-0.48c0.12-0.14,0.29-0.23,0.49-0.28c3.16-0.72,4.75-1.09,7.91-1.84c0.21-0.05,0.36-0.03,0.47,0.07
				c0.11,0.09,0.13,0.23,0.08,0.42c0,7.6,0,11.4,0,19c0,2.97-0.95,5.45-2.86,7.4c-1.9,1.95-4.54,3.14-7.91,3.6
				c-1.44,0.19-2.84,0.19-4.22,0s-2.48-0.53-3.29-1.02C47.96,109.25,47.86,109.02,47.95,108.75z"/>
			<path class="st1" d="M65.48,107.89c3.49-9.88,6.88-19.8,10.17-29.74c0.07-0.16,0.22-0.32,0.44-0.49s0.43-0.28,0.64-0.34
				c3.67-0.92,5.51-1.4,9.18-2.34c0.21-0.05,0.42-0.05,0.64,0.02s0.37,0.16,0.44,0.28c3.49,9.04,6.88,18.12,10.17,27.23
				c0.07,0.12,0.07,0.25-0.01,0.4c-0.08,0.15-0.21,0.23-0.38,0.27c-3.57,0.63-5.35,0.94-8.92,1.56c-0.42,0.07-0.74-0.06-0.94-0.41
				c-0.54-1.74-0.8-2.61-1.34-4.34c-3.38,0.63-5.08,0.95-8.46,1.56c-0.54,1.88-0.82,2.82-1.36,4.69c-0.21,0.41-0.52,0.64-0.94,0.71
				c-3.56,0.59-5.34,0.87-8.9,1.42c-0.18,0.03-0.31-0.01-0.4-0.12C65.42,108.14,65.41,108.02,65.48,107.89z M78.91,95.1
				c1.94-0.39,2.91-0.59,4.86-0.98c-0.98-3.09-1.46-4.63-2.44-7.68C80.36,89.92,79.88,91.65,78.91,95.1z"/>
			<path class="st1" d="M97.17,100.66c0.88-2.65,1.32-3.99,2.2-6.67c0.06-0.21,0.18-0.34,0.36-0.4c0.18-0.06,0.35-0.04,0.49,0.04
				c0.94,0.56,2.07,0.72,3.38,0.46c0.85-0.17,1.54-0.57,2.08-1.22c0.54-0.65,0.85-1.45,0.93-2.39c0-8.08,0-12.12,0-20.2
				c0-0.21,0.06-0.39,0.19-0.55c0.12-0.16,0.29-0.27,0.49-0.32c3.16-0.82,4.75-1.23,7.91-2.03c0.21-0.05,0.36-0.02,0.47,0.09
				c0.11,0.11,0.13,0.27,0.08,0.49c0,8.72,0,13.08,0,21.8c0,3.4-0.95,6.24-2.86,8.47c-1.9,2.23-4.54,3.61-7.91,4.19
				c-1.44,0.25-2.84,0.28-4.22,0.09c-1.38-0.19-2.48-0.55-3.29-1.08C97.18,101.23,97.08,100.98,97.17,100.66z"/>
			<path class="st1" d="M114.7,99.43c3.46-11.25,6.85-22.52,10.17-33.82c0.07-0.18,0.22-0.36,0.44-0.54
				c0.22-0.19,0.43-0.31,0.64-0.36c3.67-0.89,5.51-1.33,9.18-2.17c0.21-0.05,0.42-0.03,0.64,0.06c0.22,0.09,0.37,0.2,0.44,0.35
				c3.45,10.55,6.84,21.11,10.17,31.7c0.07,0.14,0.07,0.29-0.01,0.45c-0.08,0.16-0.21,0.25-0.38,0.27
				c-3.57,0.44-5.35,0.67-8.92,1.17c-0.42,0.06-0.74-0.12-0.94-0.52c-0.54-2.01-0.8-3.02-1.34-5.02c-3.38,0.54-5.08,0.82-8.46,1.4
				c-0.54,2.13-0.82,3.2-1.36,5.32c-0.21,0.46-0.52,0.72-0.94,0.79c-3.56,0.57-5.34,0.86-8.9,1.46c-0.18,0.03-0.31-0.02-0.4-0.14
				C114.64,99.72,114.63,99.58,114.7,99.43z M128.13,85.12c1.94-0.36,2.91-0.54,4.86-0.89c-0.98-3.58-1.46-5.36-2.44-8.89
				C129.58,79.28,129.09,81.23,128.13,85.12z"/>
			<path class="st1" d="M146.39,92.57c0.88-2.94,1.32-4.42,2.2-7.39c0.06-0.23,0.18-0.37,0.36-0.42c0.18-0.05,0.35-0.02,0.49,0.09
				c0.94,0.72,2.07,1,3.38,0.83c0.85-0.11,1.54-0.5,2.08-1.18c0.54-0.68,0.85-1.55,0.93-2.61c0-9.14,0-13.71,0-22.85
				c0-0.24,0.06-0.44,0.19-0.6c0.12-0.17,0.29-0.27,0.49-0.31c3.16-0.58,4.75-0.85,7.91-1.35c0.21-0.03,0.36,0.02,0.47,0.16
				c0.11,0.14,0.13,0.32,0.08,0.56c0,9.84,0,14.76,0,24.6c0,3.84-0.95,6.92-2.86,9.23c-1.9,2.31-4.54,3.59-7.91,3.93
				c-1.44,0.15-2.84,0.05-4.22-0.28c-1.38-0.33-2.48-0.83-3.29-1.5C146.4,93.22,146.3,92.92,146.39,92.57z"/>
			<path class="st1" d="M163.92,92.88c3.45-12.25,6.84-24.51,10.17-36.78c0.07-0.19,0.22-0.37,0.44-0.55s0.43-0.28,0.64-0.31
				c3.67-0.46,5.51-0.66,9.18-0.99c0.21-0.02,0.42,0.04,0.64,0.18s0.37,0.29,0.44,0.47c3.48,12.4,6.87,24.82,10.17,37.27
				c0.07,0.17,0.07,0.34-0.01,0.5c-0.08,0.16-0.21,0.24-0.38,0.24c-3.57-0.14-5.35-0.18-8.92-0.18c-0.42,0-0.74-0.25-0.94-0.74
				c-0.54-2.34-0.8-3.51-1.34-5.84c-3.38,0.07-5.08,0.14-8.46,0.32c-0.54,2.32-0.82,3.48-1.36,5.8c-0.21,0.49-0.52,0.74-0.94,0.76
				c-3.56,0.16-5.34,0.27-8.9,0.54c-0.18,0.01-0.31-0.05-0.4-0.2C163.85,93.2,163.85,93.04,163.92,92.88z M177.35,78.51
				c1.94-0.12,2.91-0.18,4.86-0.27c-0.98-4.17-1.46-6.24-2.44-10.36C178.8,72.15,178.31,74.28,177.35,78.51z"/>
		</g>
	</g>
	<g>
		<g>
			<path class="st1" d="M-1.27,160.5c0.88-1.79,1.32-2.69,2.2-4.52c0.06-0.14,0.18-0.22,0.36-0.23c0.18-0.01,0.35,0.02,0.49,0.11
				c0.94,0.55,2.07,0.83,3.38,0.82c0.85-0.01,1.54-0.21,2.08-0.62c0.54-0.41,0.85-0.96,0.93-1.65c0-5.95,0-8.93,0-14.88
				c0-0.15,0.06-0.28,0.19-0.39c0.12-0.1,0.29-0.16,0.49-0.18c3.16-0.27,4.75-0.43,7.91-0.8c0.21-0.02,0.36,0.01,0.47,0.1
				c0.11,0.09,0.13,0.21,0.08,0.37c0,6.48,0,9.72,0,16.2c0,2.53-0.95,4.56-2.86,6.02c-1.9,1.46-4.54,2.18-7.91,2.15
				c-1.44-0.01-2.84-0.2-4.22-0.55s-2.48-0.79-3.29-1.32C-1.26,160.92-1.36,160.71-1.27,160.5z"/>
			<path class="st1" d="M16.26,161.9c4.07-9.42,6.1-14.33,10.17-24.56c0.07-0.13,0.22-0.26,0.44-0.39c0.22-0.13,0.43-0.22,0.64-0.25
				c3.67-0.56,5.51-0.87,9.18-1.52c0.21-0.04,0.42-0.02,0.64,0.04s0.37,0.15,0.44,0.26c4.07,9.27,6.1,14.04,10.17,23.87
				c0.07,0.11,0.07,0.22-0.01,0.34c-0.08,0.12-0.21,0.2-0.38,0.22c-3.57,0.43-5.35,0.63-8.92,0.98c-0.42,0.04-0.74-0.09-0.94-0.4
				c-0.54-1.53-0.8-2.29-1.34-3.81c-3.38,0.36-5.08,0.53-8.46,0.81c-0.55,1.58-0.82,2.36-1.36,3.92c-0.21,0.33-0.52,0.51-0.94,0.54
				c-3.56,0.22-5.34,0.3-8.9,0.41c-0.18,0.01-0.31-0.04-0.4-0.14C16.2,162.11,16.19,162.01,16.26,161.9z M29.69,152.09
				c1.94-0.21,2.91-0.32,4.86-0.55c-0.98-2.71-1.46-4.06-2.44-6.74C31.14,147.74,30.66,149.2,29.69,152.09z"/>
			<path class="st1" d="M47.95,157.75c0.88-2.27,1.32-3.41,2.2-5.72c0.06-0.18,0.18-0.29,0.36-0.34c0.18-0.05,0.35-0.03,0.49,0.05
				c0.94,0.51,2.07,0.66,3.38,0.46c0.85-0.13,1.54-0.48,2.08-1.04c0.54-0.56,0.85-1.25,0.93-2.07c0-7.02,0-10.52,0-17.54
				c0-0.18,0.06-0.34,0.19-0.48c0.12-0.14,0.29-0.23,0.49-0.28c3.16-0.72,4.75-1.09,7.91-1.84c0.21-0.05,0.36-0.03,0.47,0.07
				c0.11,0.09,0.13,0.23,0.08,0.42c0,7.6,0,11.4,0,19c0,2.97-0.95,5.45-2.86,7.4c-1.9,1.95-4.54,3.15-7.91,3.6
				c-1.44,0.19-2.84,0.19-4.22,0c-1.38-0.19-2.48-0.53-3.29-1.02C47.96,158.25,47.86,158.02,47.95,157.75z"/>
			<path class="st1" d="M65.48,156.89c3.49-9.88,6.88-19.8,10.17-29.74c0.07-0.16,0.22-0.32,0.44-0.49
				c0.22-0.17,0.43-0.28,0.64-0.34c3.67-0.92,5.51-1.4,9.18-2.34c0.21-0.05,0.42-0.05,0.64,0.02s0.37,0.16,0.44,0.28
				c3.49,9.04,6.88,18.12,10.17,27.23c0.07,0.12,0.07,0.25-0.01,0.4c-0.08,0.14-0.21,0.23-0.38,0.26c-3.57,0.63-5.35,0.94-8.92,1.56
				c-0.42,0.07-0.74-0.06-0.94-0.41c-0.54-1.74-0.8-2.61-1.34-4.34c-3.38,0.63-5.08,0.95-8.46,1.56c-0.54,1.88-0.82,2.82-1.36,4.69
				c-0.21,0.41-0.52,0.64-0.94,0.71c-3.56,0.59-5.34,0.87-8.9,1.42c-0.18,0.03-0.31-0.01-0.4-0.12
				C65.42,157.14,65.41,157.02,65.48,156.89z M78.91,144.1c1.94-0.39,2.91-0.59,4.86-0.98c-0.98-3.09-1.46-4.63-2.44-7.68
				C80.36,138.92,79.88,140.65,78.91,144.1z"/>
			<path class="st1" d="M97.17,149.66c0.88-2.65,1.32-3.99,2.2-6.67c0.06-0.21,0.18-0.34,0.36-0.4c0.18-0.06,0.35-0.04,0.49,0.04
				c0.94,0.56,2.07,0.72,3.38,0.46c0.85-0.17,1.54-0.57,2.08-1.22c0.54-0.65,0.85-1.45,0.93-2.39c0-8.08,0-12.12,0-20.2
				c0-0.21,0.06-0.39,0.19-0.55c0.12-0.16,0.29-0.27,0.49-0.32c3.16-0.82,4.75-1.23,7.91-2.03c0.21-0.05,0.36-0.02,0.47,0.09
				c0.11,0.11,0.13,0.27,0.08,0.49c0,8.72,0,13.08,0,21.8c0,3.4-0.95,6.24-2.86,8.47c-1.9,2.23-4.54,3.61-7.91,4.19
				c-1.44,0.25-2.84,0.28-4.22,0.09c-1.38-0.19-2.48-0.55-3.29-1.08C97.18,150.23,97.08,149.97,97.17,149.66z"/>
			<path class="st1" d="M114.7,148.43c3.46-11.25,6.85-22.52,10.17-33.81c0.07-0.18,0.22-0.36,0.44-0.54
				c0.22-0.19,0.43-0.31,0.64-0.36c3.67-0.89,5.51-1.33,9.18-2.17c0.21-0.05,0.42-0.03,0.64,0.06c0.22,0.09,0.37,0.2,0.44,0.35
				c3.45,10.55,6.84,21.11,10.17,31.7c0.07,0.14,0.07,0.29-0.01,0.45c-0.08,0.16-0.21,0.25-0.38,0.27
				c-3.57,0.44-5.35,0.67-8.92,1.17c-0.42,0.06-0.74-0.11-0.94-0.52c-0.54-2.01-0.8-3.02-1.34-5.02c-3.38,0.54-5.08,0.82-8.46,1.4
				c-0.54,2.13-0.82,3.2-1.36,5.32c-0.21,0.46-0.52,0.72-0.94,0.79c-3.56,0.57-5.34,0.86-8.9,1.46c-0.18,0.03-0.31-0.02-0.4-0.14
				C114.64,148.72,114.63,148.58,114.7,148.43z M128.13,134.12c1.94-0.36,2.91-0.54,4.86-0.89c-0.98-3.58-1.46-5.36-2.44-8.89
				C129.58,128.28,129.09,130.23,128.13,134.12z"/>
			<path class="st1" d="M146.39,141.57c0.88-2.94,1.32-4.42,2.2-7.39c0.06-0.23,0.18-0.37,0.36-0.42c0.18-0.05,0.35-0.02,0.49,0.09
				c0.94,0.72,2.07,1,3.38,0.83c0.85-0.11,1.54-0.5,2.08-1.18c0.54-0.68,0.85-1.55,0.93-2.61c0-9.14,0-13.71,0-22.85
				c0-0.24,0.06-0.44,0.19-0.6c0.12-0.17,0.29-0.27,0.49-0.31c3.16-0.58,4.75-0.85,7.91-1.35c0.21-0.03,0.36,0.02,0.47,0.16
				c0.11,0.14,0.13,0.32,0.08,0.56c0,9.84,0,14.76,0,24.6c0,3.84-0.95,6.92-2.86,9.23c-1.9,2.31-4.54,3.59-7.91,3.93
				c-1.44,0.15-2.84,0.05-4.22-0.28c-1.38-0.33-2.48-0.83-3.29-1.5C146.4,142.22,146.3,141.92,146.39,141.57z"/>
			<path class="st1" d="M163.92,141.88c3.45-12.24,6.84-24.51,10.17-36.78c0.07-0.19,0.22-0.37,0.44-0.55s0.43-0.28,0.64-0.31
				c3.67-0.46,5.51-0.66,9.18-0.99c0.21-0.02,0.42,0.04,0.64,0.18s0.37,0.29,0.44,0.47c3.48,12.4,6.87,24.82,10.17,37.27
				c0.07,0.17,0.07,0.34-0.01,0.5c-0.08,0.16-0.21,0.24-0.38,0.23c-3.57-0.14-5.35-0.18-8.92-0.18c-0.42,0-0.74-0.25-0.94-0.74
				c-0.54-2.34-0.8-3.51-1.34-5.84c-3.38,0.07-5.08,0.14-8.46,0.32c-0.54,2.32-0.82,3.48-1.36,5.8c-0.21,0.49-0.52,0.74-0.94,0.76
				c-3.56,0.16-5.34,0.27-8.9,0.54c-0.18,0.01-0.31-0.06-0.4-0.2C163.85,142.2,163.85,142.04,163.92,141.88z M177.35,127.51
				c1.94-0.12,2.91-0.18,4.86-0.27c-0.98-4.17-1.46-6.24-2.44-10.36C178.8,121.15,178.31,123.28,177.35,127.51z"/>
		</g>
	</g>
	<g>
		<g>
			<path class="st1" d="M-1.27,210.5c0.88-1.79,1.32-2.69,2.2-4.52c0.06-0.14,0.18-0.22,0.36-0.23c0.18-0.01,0.35,0.02,0.49,0.11
				c0.94,0.55,2.07,0.83,3.38,0.82c0.85-0.01,1.54-0.21,2.08-0.62c0.54-0.41,0.85-0.96,0.93-1.65c0-5.95,0-8.93,0-14.88
				c0-0.15,0.06-0.28,0.19-0.39c0.12-0.1,0.29-0.16,0.49-0.18c3.16-0.27,4.75-0.43,7.91-0.8c0.21-0.02,0.36,0.01,0.47,0.1
				c0.11,0.09,0.13,0.21,0.08,0.37c0,6.48,0,9.72,0,16.2c0,2.53-0.95,4.56-2.86,6.02c-1.9,1.46-4.54,2.18-7.91,2.15
				c-1.44-0.01-2.84-0.2-4.22-0.55c-1.38-0.35-2.48-0.79-3.29-1.32C-1.26,210.92-1.36,210.71-1.27,210.5z"/>
			<path class="st1" d="M16.26,211.9c4.07-9.42,6.1-14.33,10.17-24.56c0.07-0.13,0.22-0.26,0.44-0.39s0.43-0.22,0.64-0.25
				c3.67-0.56,5.51-0.87,9.18-1.52c0.21-0.04,0.42-0.02,0.64,0.04s0.37,0.15,0.44,0.26c4.07,9.27,6.1,14.04,10.17,23.87
				c0.07,0.11,0.07,0.22-0.01,0.34c-0.08,0.12-0.21,0.2-0.38,0.22c-3.57,0.43-5.35,0.63-8.92,0.98c-0.42,0.04-0.74-0.09-0.94-0.4
				c-0.54-1.53-0.8-2.29-1.34-3.81c-3.38,0.36-5.08,0.53-8.46,0.81c-0.55,1.58-0.82,2.36-1.36,3.92c-0.21,0.33-0.52,0.51-0.94,0.54
				c-3.56,0.22-5.34,0.3-8.9,0.41c-0.18,0.01-0.31-0.04-0.4-0.14C16.2,212.11,16.19,212.01,16.26,211.9z M29.69,202.08
				c1.94-0.21,2.91-0.32,4.86-0.55c-0.98-2.71-1.46-4.06-2.44-6.74C31.14,197.74,30.66,199.2,29.69,202.08z"/>
			<path class="st1" d="M47.95,207.75c0.88-2.27,1.32-3.41,2.2-5.72c0.06-0.18,0.18-0.29,0.36-0.34c0.18-0.05,0.35-0.03,0.49,0.05
				c0.94,0.51,2.07,0.66,3.38,0.46c0.85-0.13,1.54-0.48,2.08-1.04c0.54-0.56,0.85-1.25,0.93-2.07c0-7.02,0-10.52,0-17.54
				c0-0.18,0.06-0.34,0.19-0.48c0.12-0.14,0.29-0.23,0.49-0.28c3.16-0.72,4.75-1.09,7.91-1.84c0.21-0.05,0.36-0.03,0.47,0.07
				c0.11,0.09,0.13,0.24,0.08,0.42c0,7.6,0,11.4,0,19c0,2.97-0.95,5.45-2.86,7.4c-1.9,1.95-4.54,3.15-7.91,3.6
				c-1.44,0.19-2.84,0.19-4.22,0s-2.48-0.53-3.29-1.02C47.96,208.25,47.86,208.02,47.95,207.75z"/>
			<path class="st1" d="M65.48,206.89c3.49-9.88,6.88-19.8,10.17-29.74c0.07-0.16,0.22-0.32,0.44-0.49
				c0.22-0.17,0.43-0.28,0.64-0.34c3.67-0.92,5.51-1.4,9.18-2.34c0.21-0.05,0.42-0.05,0.64,0.02s0.37,0.16,0.44,0.28
				c3.49,9.04,6.88,18.12,10.17,27.23c0.07,0.12,0.07,0.25-0.01,0.4c-0.08,0.14-0.21,0.23-0.38,0.26c-3.57,0.63-5.35,0.94-8.92,1.56
				c-0.42,0.07-0.74-0.06-0.94-0.41c-0.54-1.74-0.8-2.61-1.34-4.34c-3.38,0.63-5.08,0.95-8.46,1.56c-0.54,1.88-0.82,2.82-1.36,4.69
				c-0.21,0.41-0.52,0.65-0.94,0.71c-3.56,0.59-5.34,0.87-8.9,1.42c-0.18,0.03-0.31-0.01-0.4-0.12
				C65.42,207.14,65.41,207.02,65.48,206.89z M78.91,194.1c1.94-0.39,2.91-0.59,4.86-0.98c-0.98-3.09-1.46-4.63-2.44-7.68
				C80.36,188.92,79.88,190.65,78.91,194.1z"/>
			<path class="st1" d="M97.17,199.66c0.88-2.65,1.32-3.99,2.2-6.67c0.06-0.21,0.18-0.34,0.36-0.4c0.18-0.06,0.35-0.04,0.49,0.04
				c0.94,0.56,2.07,0.72,3.38,0.46c0.85-0.17,1.54-0.57,2.08-1.22c0.54-0.65,0.85-1.45,0.93-2.39c0-8.08,0-12.12,0-20.2
				c0-0.21,0.06-0.39,0.19-0.55c0.12-0.16,0.29-0.27,0.49-0.32c3.16-0.82,4.75-1.23,7.91-2.03c0.21-0.05,0.36-0.02,0.47,0.09
				c0.11,0.11,0.13,0.27,0.08,0.49c0,8.72,0,13.08,0,21.8c0,3.4-0.95,6.24-2.86,8.47c-1.9,2.23-4.54,3.61-7.91,4.19
				c-1.44,0.25-2.84,0.28-4.22,0.09c-1.38-0.19-2.48-0.55-3.29-1.08C97.18,200.23,97.08,199.97,97.17,199.66z"/>
			<path class="st1" d="M114.7,198.43c3.46-11.25,6.85-22.52,10.17-33.81c0.07-0.18,0.22-0.36,0.44-0.54
				c0.22-0.19,0.43-0.31,0.64-0.36c3.67-0.89,5.51-1.33,9.18-2.17c0.21-0.05,0.42-0.03,0.64,0.06c0.22,0.09,0.37,0.2,0.44,0.35
				c3.45,10.55,6.84,21.11,10.17,31.7c0.07,0.14,0.07,0.29-0.01,0.45c-0.08,0.16-0.21,0.25-0.38,0.27
				c-3.57,0.44-5.35,0.67-8.92,1.17c-0.42,0.06-0.74-0.11-0.94-0.52c-0.54-2.01-0.8-3.02-1.34-5.02c-3.38,0.54-5.08,0.82-8.46,1.4
				c-0.54,2.13-0.82,3.2-1.36,5.32c-0.21,0.46-0.52,0.72-0.94,0.79c-3.56,0.57-5.34,0.86-8.9,1.46c-0.18,0.03-0.31-0.02-0.4-0.14
				C114.64,198.72,114.63,198.58,114.7,198.43z M128.13,184.12c1.94-0.36,2.91-0.54,4.86-0.89c-0.98-3.58-1.46-5.36-2.44-8.89
				C129.58,178.28,129.09,180.23,128.13,184.12z"/>
			<path class="st1" d="M146.39,191.57c0.88-2.94,1.32-4.42,2.2-7.39c0.06-0.23,0.18-0.37,0.36-0.42c0.18-0.05,0.35-0.02,0.49,0.09
				c0.94,0.72,2.07,1,3.38,0.83c0.85-0.11,1.54-0.5,2.08-1.18c0.54-0.68,0.85-1.56,0.93-2.61c0-9.14,0-13.71,0-22.85
				c0-0.24,0.06-0.44,0.19-0.6c0.12-0.17,0.29-0.27,0.49-0.31c3.16-0.58,4.75-0.85,7.91-1.35c0.21-0.03,0.36,0.02,0.47,0.16
				c0.11,0.14,0.13,0.33,0.08,0.56c0,9.84,0,14.76,0,24.6c0,3.84-0.95,6.92-2.86,9.23c-1.9,2.31-4.54,3.59-7.91,3.93
				c-1.44,0.15-2.84,0.05-4.22-0.28c-1.38-0.33-2.48-0.83-3.29-1.5C146.4,192.22,146.3,191.92,146.39,191.57z"/>
			<path class="st1" d="M163.92,191.88c3.45-12.25,6.84-24.51,10.17-36.78c0.07-0.19,0.22-0.37,0.44-0.55s0.43-0.28,0.64-0.31
				c3.67-0.46,5.51-0.66,9.18-0.99c0.21-0.02,0.42,0.04,0.64,0.17c0.22,0.13,0.37,0.29,0.44,0.47c3.48,12.4,6.87,24.82,10.17,37.27
				c0.07,0.17,0.07,0.34-0.01,0.5c-0.08,0.16-0.21,0.24-0.38,0.23c-3.57-0.14-5.35-0.18-8.92-0.18c-0.42,0-0.74-0.25-0.94-0.74
				c-0.54-2.34-0.8-3.51-1.34-5.84c-3.38,0.07-5.08,0.14-8.46,0.32c-0.54,2.32-0.82,3.48-1.36,5.8c-0.21,0.49-0.52,0.74-0.94,0.76
				c-3.56,0.16-5.34,0.27-8.9,0.54c-0.18,0.01-0.31-0.06-0.4-0.2C163.85,192.2,163.85,192.04,163.92,191.88z M177.35,177.51
				c1.94-0.12,2.91-0.18,4.86-0.27c-0.98-4.17-1.46-6.24-2.44-10.36C178.8,171.15,178.31,173.28,177.35,177.51z"/>
		</g>
	</g>
	<g>
		<g>
			<path class="st1" d="M-1.27,262.5c0.88-1.79,1.32-2.69,2.2-4.52c0.06-0.14,0.18-0.22,0.36-0.23c0.18-0.01,0.35,0.02,0.49,0.11
				c0.94,0.55,2.07,0.83,3.38,0.82c0.85-0.01,1.54-0.21,2.08-0.62c0.54-0.41,0.85-0.96,0.93-1.65c0-5.95,0-8.93,0-14.88
				c0-0.15,0.06-0.28,0.19-0.39c0.12-0.1,0.29-0.16,0.49-0.18c3.16-0.27,4.75-0.43,7.91-0.8c0.21-0.02,0.36,0.01,0.47,0.1
				c0.11,0.09,0.13,0.21,0.08,0.37c0,6.48,0,9.72,0,16.2c0,2.53-0.95,4.56-2.86,6.02c-1.9,1.46-4.54,2.18-7.91,2.15
				c-1.44-0.01-2.84-0.2-4.22-0.55c-1.38-0.35-2.48-0.79-3.29-1.32C-1.26,262.92-1.36,262.71-1.27,262.5z"/>
			<path class="st1" d="M16.26,263.9c4.07-9.42,6.1-14.33,10.17-24.56c0.07-0.13,0.22-0.26,0.44-0.39s0.43-0.22,0.64-0.25
				c3.67-0.56,5.51-0.87,9.18-1.52c0.21-0.04,0.42-0.02,0.64,0.04s0.37,0.15,0.44,0.26c4.07,9.27,6.1,14.04,10.17,23.87
				c0.07,0.11,0.07,0.22-0.01,0.34c-0.08,0.12-0.21,0.2-0.38,0.22c-3.57,0.43-5.35,0.63-8.92,0.98c-0.42,0.04-0.74-0.09-0.94-0.4
				c-0.54-1.53-0.8-2.29-1.34-3.81c-3.38,0.36-5.08,0.53-8.46,0.81c-0.55,1.58-0.82,2.36-1.36,3.92c-0.21,0.33-0.52,0.51-0.94,0.54
				c-3.56,0.22-5.34,0.3-8.9,0.41c-0.18,0.01-0.31-0.04-0.4-0.14C16.2,264.11,16.19,264.01,16.26,263.9z M29.69,254.08
				c1.94-0.21,2.91-0.32,4.86-0.55c-0.98-2.71-1.46-4.06-2.44-6.74C31.14,249.74,30.66,251.2,29.69,254.08z"/>
			<path class="st1" d="M47.95,259.75c0.88-2.27,1.32-3.41,2.2-5.72c0.06-0.18,0.18-0.29,0.36-0.34c0.18-0.05,0.35-0.03,0.49,0.05
				c0.94,0.51,2.07,0.66,3.38,0.46c0.85-0.13,1.54-0.48,2.08-1.04c0.54-0.56,0.85-1.25,0.93-2.07c0-7.02,0-10.52,0-17.54
				c0-0.18,0.06-0.34,0.19-0.48c0.12-0.14,0.29-0.23,0.49-0.28c3.16-0.72,4.75-1.09,7.91-1.84c0.21-0.05,0.36-0.03,0.47,0.07
				c0.11,0.09,0.13,0.24,0.08,0.42c0,7.6,0,11.4,0,19c0,2.97-0.95,5.45-2.86,7.4c-1.9,1.95-4.54,3.15-7.91,3.6
				c-1.44,0.19-2.84,0.19-4.22,0c-1.38-0.19-2.48-0.53-3.29-1.02C47.96,260.25,47.86,260.02,47.95,259.75z"/>
			<path class="st1" d="M65.48,258.89c3.49-9.88,6.88-19.8,10.17-29.74c0.07-0.16,0.22-0.32,0.44-0.49
				c0.22-0.17,0.43-0.28,0.64-0.34c3.67-0.92,5.51-1.4,9.18-2.34c0.21-0.05,0.42-0.05,0.64,0.02s0.37,0.16,0.44,0.28
				c3.49,9.04,6.88,18.12,10.17,27.23c0.07,0.12,0.07,0.25-0.01,0.4c-0.08,0.14-0.21,0.23-0.38,0.26c-3.57,0.63-5.35,0.94-8.92,1.56
				c-0.42,0.07-0.74-0.06-0.94-0.41c-0.54-1.74-0.8-2.61-1.34-4.34c-3.38,0.63-5.08,0.95-8.46,1.56c-0.54,1.88-0.82,2.82-1.36,4.69
				c-0.21,0.41-0.52,0.64-0.94,0.71c-3.56,0.59-5.34,0.87-8.9,1.42c-0.18,0.03-0.31-0.01-0.4-0.12
				C65.42,259.14,65.41,259.02,65.48,258.89z M78.91,246.1c1.94-0.39,2.91-0.59,4.86-0.98c-0.98-3.09-1.46-4.63-2.44-7.68
				C80.36,240.92,79.88,242.65,78.91,246.1z"/>
			<path class="st1" d="M97.17,251.66c0.88-2.65,1.32-3.99,2.2-6.67c0.06-0.21,0.18-0.34,0.36-0.4c0.18-0.06,0.35-0.04,0.49,0.04
				c0.94,0.56,2.07,0.72,3.38,0.46c0.85-0.17,1.54-0.57,2.08-1.22c0.54-0.65,0.85-1.45,0.93-2.39c0-8.08,0-12.12,0-20.2
				c0-0.21,0.06-0.39,0.19-0.55c0.12-0.16,0.29-0.27,0.49-0.32c3.16-0.82,4.75-1.23,7.91-2.03c0.21-0.05,0.36-0.02,0.47,0.09
				c0.11,0.11,0.13,0.27,0.08,0.49c0,8.72,0,13.08,0,21.8c0,3.4-0.95,6.24-2.86,8.47c-1.9,2.23-4.54,3.61-7.91,4.19
				c-1.44,0.25-2.84,0.28-4.22,0.09c-1.38-0.19-2.48-0.55-3.29-1.08C97.18,252.23,97.08,251.97,97.17,251.66z"/>
			<path class="st1" d="M114.7,250.43c3.46-11.25,6.85-22.52,10.17-33.81c0.07-0.18,0.22-0.36,0.44-0.54
				c0.22-0.19,0.43-0.31,0.64-0.36c3.67-0.89,5.51-1.33,9.18-2.17c0.21-0.05,0.42-0.03,0.64,0.06c0.22,0.09,0.37,0.2,0.44,0.35
				c3.45,10.55,6.84,21.11,10.17,31.7c0.07,0.14,0.07,0.29-0.01,0.45c-0.08,0.16-0.21,0.25-0.38,0.27
				c-3.57,0.44-5.35,0.67-8.92,1.17c-0.42,0.06-0.74-0.11-0.94-0.52c-0.54-2.01-0.8-3.02-1.34-5.02c-3.38,0.54-5.08,0.82-8.46,1.4
				c-0.54,2.13-0.82,3.2-1.36,5.32c-0.21,0.46-0.52,0.72-0.94,0.79c-3.56,0.57-5.34,0.86-8.9,1.46c-0.18,0.03-0.31-0.02-0.4-0.14
				C114.64,250.72,114.63,250.58,114.7,250.43z M128.13,236.12c1.94-0.36,2.91-0.54,4.86-0.89c-0.98-3.58-1.46-5.36-2.44-8.89
				C129.58,230.28,129.09,232.23,128.13,236.12z"/>
			<path class="st1" d="M146.39,243.57c0.88-2.94,1.32-4.42,2.2-7.39c0.06-0.23,0.18-0.37,0.36-0.42c0.18-0.05,0.35-0.02,0.49,0.09
				c0.94,0.72,2.07,1,3.38,0.83c0.85-0.11,1.54-0.5,2.08-1.18c0.54-0.68,0.85-1.56,0.93-2.61c0-9.14,0-13.71,0-22.85
				c0-0.24,0.06-0.44,0.19-0.6c0.12-0.17,0.29-0.27,0.49-0.31c3.16-0.58,4.75-0.85,7.91-1.35c0.21-0.03,0.36,0.02,0.47,0.16
				c0.11,0.14,0.13,0.33,0.08,0.56c0,9.84,0,14.76,0,24.6c0,3.84-0.95,6.92-2.86,9.23c-1.9,2.31-4.54,3.59-7.91,3.93
				c-1.44,0.15-2.84,0.05-4.22-0.28c-1.38-0.33-2.48-0.83-3.29-1.5C146.4,244.22,146.3,243.92,146.39,243.57z"/>
			<path class="st1" d="M163.92,243.88c3.45-12.25,6.84-24.51,10.17-36.78c0.07-0.19,0.22-0.37,0.44-0.55s0.43-0.28,0.64-0.31
				c3.67-0.46,5.51-0.66,9.18-0.99c0.21-0.02,0.42,0.04,0.64,0.17c0.22,0.13,0.37,0.29,0.44,0.47c3.48,12.4,6.87,24.82,10.17,37.27
				c0.07,0.17,0.07,0.34-0.01,0.5c-0.08,0.16-0.21,0.24-0.38,0.23c-3.57-0.14-5.35-0.18-8.92-0.18c-0.42,0-0.74-0.25-0.94-0.74
				c-0.54-2.34-0.8-3.51-1.34-5.84c-3.38,0.07-5.08,0.14-8.46,0.32c-0.54,2.32-0.82,3.48-1.36,5.8c-0.21,0.49-0.52,0.74-0.94,0.76
				c-3.56,0.16-5.34,0.27-8.9,0.54c-0.18,0.01-0.31-0.06-0.4-0.2C163.85,244.2,163.85,244.04,163.92,243.88z M177.35,229.51
				c1.94-0.12,2.91-0.18,4.86-0.27c-0.98-4.17-1.46-6.24-2.44-10.36C178.8,223.15,178.31,225.28,177.35,229.51z"/>
		</g>
	</g>
</g>
<g id="OBJECTS">
	<g>
		<polygon class="st2" points="274.28,155.93 286.96,188.94 240.75,173.6 221.84,210.81 200.97,178.18 167.68,200.72 156.94,167.91 
			120.99,189.94 122.84,149.48 83.18,154.71 107.48,122.11 84.7,91.94 121.74,95.99 125.25,61.62 150.15,89.47 179.98,55.32 
			195.79,88.31 226.18,64.82 238.96,103.67 287.8,88.26 279.29,123.04 311.18,139.09 		"/>
		<g>
			<g>
				<polygon class="st2" points="100.92,163.19 105.53,168.4 119.01,154.39 				"/>
				<polygon class="st2" points="113.2,169.38 117.7,170.44 119.63,157.67 				"/>
			</g>
			<polygon class="st2" points="120.44,93.25 115.14,74.18 108.45,78.58 			"/>
			<g>
				<polygon class="st2" points="242.81,97.96 253.94,81.57 260.32,86.52 				"/>
				<polygon class="st2" points="241.58,96.21 241.2,69.31 251.9,70 				"/>
			</g>
			<g>
				<polygon class="st2" points="243.83,178.23 261.27,195.53 253.82,201.22 				"/>
				<polygon class="st2" points="242.55,180.13 244.85,196.66 238.48,196.67 				"/>
			</g>
			<polygon class="st2" points="276.98,157 304.55,158.76 302.16,166.44 			"/>
		</g>
	</g>
</g>
<g>
	<g>
		<path class="st3" d="M38.31,153v-42.88c0-0.25,0.09-0.48,0.27-0.68c0.18-0.2,0.39-0.3,0.62-0.3H54.3c6.9,0,12.44,2.05,16.63,6.14
			c4.19,4.09,6.28,9.52,6.28,16.27c0,6.71-2.1,12.12-6.3,16.25c-4.2,4.13-9.74,6.19-16.62,6.19H39.19c-0.23,0-0.44-0.1-0.62-0.3
			C38.4,153.49,38.31,153.26,38.31,153z M51.7,142.28h3.36c2.52,0,4.54-0.98,6.08-2.95c1.53-1.97,2.3-4.56,2.3-7.78
			c0-3.22-0.77-5.8-2.3-7.76c-1.53-1.96-3.56-2.94-6.08-2.94H51.7V142.28z"/>
		<path class="st3" d="M80.87,153.07v-42.94c0-0.25,0.09-0.48,0.27-0.68c0.18-0.2,0.39-0.3,0.62-0.3h11.52c0.28,0,0.51,0.1,0.7,0.3
			c0.19,0.2,0.29,0.43,0.29,0.68v42.94c0,0.23-0.1,0.44-0.29,0.63c-0.19,0.19-0.42,0.29-0.7,0.29H81.76c-0.21,0-0.41-0.09-0.6-0.29
			C80.96,153.51,80.87,153.3,80.87,153.07z"/>
		<path class="st3" d="M96.64,110.06c-0.08-0.21-0.06-0.42,0.08-0.62c0.14-0.2,0.33-0.3,0.59-0.3h14.47c0.27,0,0.53,0.1,0.78,0.29
			c0.24,0.19,0.4,0.4,0.46,0.63l6.82,26.69l6.82-26.69c0.06-0.23,0.22-0.44,0.46-0.63s0.5-0.29,0.78-0.29h14.5
			c0.25,0,0.45,0.1,0.59,0.29s0.15,0.4,0.05,0.63l-14.88,43.01c-0.06,0.23-0.21,0.44-0.45,0.63c-0.23,0.19-0.48,0.29-0.73,0.29
			H112.7c-0.25,0-0.5-0.09-0.73-0.29c-0.23-0.19-0.38-0.4-0.44-0.63L96.64,110.06z"/>
		<path class="st3" d="M145.33,153v-42.94c0-0.61,0.3-0.92,0.89-0.92h29.58c0.27,0,0.52,0.1,0.73,0.29c0.21,0.19,0.32,0.4,0.32,0.63
			v9.81c0,0.28-0.1,0.51-0.3,0.7s-0.45,0.29-0.74,0.29h-16.89v5.11h13.77c0.27,0,0.49,0.09,0.65,0.27c0.16,0.18,0.22,0.38,0.17,0.59
			l-0.89,9.11c-0.04,0.21-0.17,0.4-0.38,0.57c-0.21,0.17-0.46,0.25-0.73,0.25h-12.6v5.52h17.68c0.25,0,0.47,0.08,0.66,0.25
			s0.28,0.37,0.28,0.6v9.93c0,0.23-0.09,0.44-0.29,0.63s-0.41,0.29-0.67,0.29h-30.25c-0.21,0-0.42-0.11-0.62-0.32
			C145.52,153.46,145.39,153.24,145.33,153z"/>
		<path class="st3" d="M181.19,153.07v-42.94c0-0.25,0.09-0.48,0.29-0.68c0.19-0.2,0.41-0.3,0.67-0.3h17.15
			c4.99,0,9.01,1.34,12.05,4.03c3.04,2.69,4.57,6.24,4.57,10.66c0,2.62-0.72,5.09-2.17,7.4c-1.45,2.31-3.38,3.98-5.79,5.02
			l10.32,16.69c0.15,0.28,0.14,0.52-0.02,0.73c-0.16,0.21-0.39,0.32-0.68,0.32h-13.94c-0.68,0-1.18-0.35-1.49-1.05l-6.78-14.16
			h-0.76v14.28c0,0.23-0.11,0.44-0.32,0.63c-0.21,0.19-0.45,0.29-0.73,0.29h-11.4c-0.25,0-0.47-0.09-0.66-0.29
			S181.19,153.3,181.19,153.07z M194.58,127.74h3.82c1.13,0,2.03-0.32,2.71-0.95c0.68-0.63,1.02-1.47,1.02-2.51
			c0-1.04-0.34-1.87-1.02-2.49c-0.68-0.62-1.58-0.94-2.71-0.94h-3.82V127.74z"/>
		<path class="st3" d="M218.42,119.93v-9.81c0-0.25,0.1-0.48,0.29-0.68c0.19-0.2,0.4-0.3,0.63-0.3h34.95c0.27,0,0.51,0.1,0.7,0.29
			c0.19,0.19,0.27,0.4,0.22,0.63l-0.98,9.87c-0.02,0.25-0.14,0.47-0.35,0.65c-0.21,0.18-0.43,0.27-0.67,0.27h-9.68v32.21
			c0,0.23-0.09,0.44-0.27,0.63s-0.4,0.29-0.65,0.29h-11.52c-0.25,0-0.48-0.09-0.67-0.29c-0.19-0.19-0.29-0.4-0.29-0.63v-32.21
			h-10.79c-0.23,0-0.44-0.09-0.63-0.27C218.52,120.4,218.42,120.19,218.42,119.93z"/>
		<path class="st3" d="M257.55,153.07v-42.94c0-0.25,0.09-0.48,0.27-0.68c0.18-0.2,0.39-0.3,0.62-0.3h11.52c0.28,0,0.51,0.1,0.7,0.3
			c0.19,0.2,0.29,0.43,0.29,0.68v42.94c0,0.23-0.1,0.44-0.29,0.63c-0.19,0.19-0.42,0.29-0.7,0.29h-11.52c-0.21,0-0.41-0.09-0.6-0.29
			C257.65,153.51,257.55,153.3,257.55,153.07z"/>
		<path class="st3" d="M275.61,153v-42.88c0-0.25,0.09-0.48,0.27-0.68c0.18-0.2,0.38-0.3,0.62-0.3h15.11
			c6.9,0,12.44,2.05,16.63,6.14c4.19,4.09,6.28,9.52,6.28,16.27c0,6.71-2.1,12.12-6.3,16.25c-4.2,4.13-9.74,6.19-16.62,6.19H276.5
			c-0.23,0-0.44-0.1-0.62-0.3C275.7,153.49,275.61,153.26,275.61,153z M289.01,142.28h3.37c2.52,0,4.54-0.98,6.08-2.95
			c1.53-1.97,2.3-4.56,2.3-7.78c0-3.22-0.77-5.8-2.3-7.76c-1.54-1.96-3.56-2.94-6.08-2.94h-3.37V142.28z"/>
		<path class="st3" d="M323.84,114.52c4.22-4.28,9.8-6.43,16.73-6.43s12.51,2.14,16.74,6.43s6.35,9.94,6.35,16.97
			c0,4.63-0.96,8.71-2.87,12.25c-1.91,3.54-4.62,6.29-8.11,8.24c-3.49,1.95-7.53,2.93-12.11,2.93s-8.61-0.98-12.1-2.93
			c-3.48-1.95-6.18-4.7-8.09-8.24c-1.91-3.54-2.87-7.63-2.87-12.25C317.51,124.46,319.62,118.8,323.84,114.52z M340.56,142.21
			c2.67,0,4.83-0.99,6.47-2.96s2.46-4.56,2.46-7.77s-0.82-5.79-2.46-7.75c-1.64-1.96-3.8-2.95-6.47-2.95s-4.82,0.98-6.45,2.95
			c-1.63,1.96-2.45,4.55-2.45,7.75s0.82,5.79,2.45,7.77C335.74,141.23,337.89,142.21,340.56,142.21z"/>
	</g>
	<g>
		<path class="st4" d="M31.31,151v-42.88c0-0.25,0.09-0.48,0.27-0.68c0.18-0.2,0.39-0.3,0.62-0.3H47.3c6.9,0,12.44,2.05,16.63,6.14
			c4.19,4.09,6.28,9.52,6.28,16.27c0,6.71-2.1,12.12-6.3,16.25c-4.2,4.13-9.74,6.19-16.62,6.19H32.19c-0.23,0-0.44-0.1-0.62-0.3
			C31.4,151.49,31.31,151.26,31.31,151z M44.7,140.28h3.36c2.52,0,4.54-0.98,6.08-2.95c1.53-1.97,2.3-4.56,2.3-7.78
			c0-3.22-0.77-5.8-2.3-7.76c-1.53-1.96-3.56-2.94-6.08-2.94H44.7V140.28z"/>
		<path class="st4" d="M73.87,151.07v-42.94c0-0.25,0.09-0.48,0.27-0.68c0.18-0.2,0.39-0.3,0.62-0.3h11.52c0.28,0,0.51,0.1,0.7,0.3
			c0.19,0.2,0.29,0.43,0.29,0.68v42.94c0,0.23-0.1,0.44-0.29,0.63c-0.19,0.19-0.42,0.29-0.7,0.29H74.76c-0.21,0-0.41-0.09-0.6-0.29
			C73.96,151.51,73.87,151.3,73.87,151.07z"/>
		<path class="st4" d="M89.64,108.06c-0.08-0.21-0.06-0.42,0.08-0.62c0.14-0.2,0.33-0.3,0.59-0.3h14.47c0.27,0,0.53,0.1,0.78,0.29
			c0.24,0.19,0.4,0.4,0.46,0.63l6.82,26.69l6.82-26.69c0.06-0.23,0.22-0.44,0.46-0.63s0.5-0.29,0.78-0.29h14.5
			c0.25,0,0.45,0.1,0.59,0.29s0.15,0.4,0.05,0.63l-14.88,43.01c-0.06,0.23-0.21,0.44-0.45,0.63c-0.23,0.19-0.48,0.29-0.73,0.29
			H105.7c-0.25,0-0.5-0.09-0.73-0.29c-0.23-0.19-0.38-0.4-0.44-0.63L89.64,108.06z"/>
		<path class="st4" d="M138.33,151v-42.94c0-0.61,0.3-0.92,0.89-0.92h29.58c0.27,0,0.52,0.1,0.73,0.29c0.21,0.19,0.32,0.4,0.32,0.63
			v9.81c0,0.28-0.1,0.51-0.3,0.7s-0.45,0.29-0.74,0.29h-16.89v5.11h13.77c0.27,0,0.49,0.09,0.65,0.27c0.16,0.18,0.22,0.38,0.17,0.59
			l-0.89,9.11c-0.04,0.21-0.17,0.4-0.38,0.57c-0.21,0.17-0.46,0.25-0.73,0.25h-12.6v5.52h17.68c0.25,0,0.47,0.08,0.66,0.25
			s0.28,0.37,0.28,0.6v9.93c0,0.23-0.09,0.44-0.29,0.63s-0.41,0.29-0.67,0.29h-30.25c-0.21,0-0.42-0.11-0.62-0.32
			C138.52,151.46,138.39,151.24,138.33,151z"/>
		<path class="st4" d="M174.19,151.07v-42.94c0-0.25,0.09-0.48,0.29-0.68c0.19-0.2,0.41-0.3,0.67-0.3h17.16
			c4.99,0,9.01,1.34,12.05,4.03c3.04,2.69,4.57,6.24,4.57,10.66c0,2.62-0.72,5.09-2.17,7.4c-1.45,2.31-3.38,3.98-5.79,5.01
			l10.32,16.69c0.15,0.28,0.14,0.52-0.02,0.73c-0.16,0.21-0.39,0.32-0.68,0.32h-13.94c-0.68,0-1.18-0.35-1.5-1.05l-6.78-14.16h-0.76
			v14.28c0,0.23-0.11,0.44-0.32,0.63c-0.21,0.19-0.45,0.29-0.73,0.29h-11.4c-0.25,0-0.47-0.09-0.66-0.29S174.19,151.3,174.19,151.07
			z M187.58,125.74h3.82c1.13,0,2.03-0.32,2.71-0.95c0.68-0.63,1.02-1.47,1.02-2.51c0-1.04-0.34-1.87-1.02-2.49
			c-0.68-0.62-1.58-0.94-2.71-0.94h-3.82V125.74z"/>
		<path class="st4" d="M211.42,117.93v-9.81c0-0.25,0.1-0.48,0.29-0.68c0.19-0.2,0.4-0.3,0.63-0.3h34.95c0.27,0,0.51,0.1,0.7,0.29
			c0.19,0.19,0.27,0.4,0.22,0.63l-0.98,9.87c-0.02,0.25-0.14,0.47-0.35,0.65c-0.21,0.18-0.43,0.27-0.67,0.27h-9.68v32.21
			c0,0.23-0.09,0.44-0.27,0.63s-0.4,0.29-0.65,0.29h-11.52c-0.25,0-0.48-0.09-0.67-0.29c-0.19-0.19-0.29-0.4-0.29-0.63v-32.21
			h-10.79c-0.23,0-0.44-0.09-0.63-0.27C211.52,118.4,211.42,118.19,211.42,117.93z"/>
		<path class="st4" d="M250.55,151.07v-42.94c0-0.25,0.09-0.48,0.27-0.68c0.18-0.2,0.39-0.3,0.62-0.3h11.52c0.28,0,0.51,0.1,0.7,0.3
			c0.19,0.2,0.29,0.43,0.29,0.68v42.94c0,0.23-0.1,0.44-0.29,0.63c-0.19,0.19-0.42,0.29-0.7,0.29h-11.52c-0.21,0-0.41-0.09-0.6-0.29
			C250.65,151.51,250.55,151.3,250.55,151.07z"/>
		<path class="st4" d="M268.61,151v-42.88c0-0.25,0.09-0.48,0.27-0.68c0.18-0.2,0.38-0.3,0.62-0.3h15.11
			c6.9,0,12.44,2.05,16.63,6.14c4.19,4.09,6.28,9.52,6.28,16.27c0,6.71-2.1,12.12-6.3,16.25c-4.2,4.13-9.74,6.19-16.62,6.19H269.5
			c-0.23,0-0.44-0.1-0.62-0.3C268.7,151.49,268.61,151.26,268.61,151z M282.01,140.28h3.37c2.52,0,4.54-0.98,6.08-2.95
			c1.53-1.97,2.3-4.56,2.3-7.78c0-3.22-0.77-5.8-2.3-7.76c-1.54-1.96-3.56-2.94-6.08-2.94h-3.37V140.28z"/>
		<path class="st4" d="M316.84,112.52c4.22-4.28,9.8-6.43,16.73-6.43s12.51,2.14,16.74,6.43s6.35,9.94,6.35,16.97
			c0,4.63-0.96,8.71-2.87,12.25c-1.91,3.54-4.62,6.29-8.11,8.24c-3.49,1.95-7.53,2.93-12.11,2.93s-8.61-0.98-12.1-2.93
			c-3.48-1.95-6.18-4.7-8.09-8.24c-1.91-3.54-2.87-7.63-2.87-12.25C310.51,122.46,312.62,116.8,316.84,112.52z M333.56,140.21
			c2.67,0,4.83-0.99,6.47-2.96s2.46-4.56,2.46-7.77s-0.82-5.79-2.46-7.75c-1.64-1.96-3.8-2.95-6.47-2.95s-4.82,0.98-6.45,2.95
			c-1.63,1.96-2.45,4.55-2.45,7.75s0.82,5.79,2.45,7.77C328.74,139.23,330.89,140.21,333.56,140.21z"/>
	</g>
</g>
</svg>
