<?xml version="1.0" encoding="utf-8"?>
<!-- Generator: Adobe Illustrator 26.5.0, SVG Export Plug-In . SVG Version: 6.00 Build 0)  -->
<svg version="1.1" id="Capa_1" xmlns="http://www.w3.org/2000/svg" xmlns:xlink="http://www.w3.org/1999/xlink" x="0px" y="0px"
	 viewBox="0 0 392 268" enable-background="new 0 0 392 268" xml:space="preserve">
<g>
	<defs>
		<rect id="SVGID_00000001646219085466256910000010200437056704497558_" x="-1.538" width="393.538" height="268"/>
	</defs>
	<clipPath id="SVGID_00000077313443764999846750000002872278155856122263_">
		<use xlink:href="#SVGID_00000001646219085466256910000010200437056704497558_"  overflow="visible"/>
	</clipPath>
	
		<rect x="-1.538" clip-path="url(#SVGID_00000077313443764999846750000002872278155856122263_)" fill="#3DBFEE" width="393.538" height="268"/>
	
		<g id="Iuv72F_00000098923432406982994850000005717378440726987404_" opacity="0.6" clip-path="url(#SVGID_00000077313443764999846750000002872278155856122263_)">
		<g>
			<g>
				<path fill="#112A60" d="M78.345,57.03c0.005,5.471-1.105,10.739-2.916,15.874c-2.03,5.754-4.928,11.036-8.647,15.876
					c-3.317,4.317-7.134,8.127-11.471,11.41c-4.93,3.731-10.295,6.637-16.244,8.4c-3.494,1.036-7.056,1.6-10.713,1.565
					c-3.438-0.034-6.733-0.779-9.965-1.872c-2.069-0.699-4.085-1.529-6.018-2.554c-2.105-1.117-4.078-2.424-5.868-4.001
					c-0.144-0.127-0.274-0.265-0.468-0.31c-2.291-0.542-3.947-2.032-5.492-3.684c-4.315-4.614-6.722-10.137-7.73-16.315
					c-0.762-4.676-0.606-9.335,0.205-13.999c1.156-6.645,3.601-12.798,7.008-18.578c3.145-5.337,7.049-10.074,11.659-14.217
					c4.827-4.338,10.198-7.827,16.224-10.274c3.281-1.332,6.675-2.279,10.18-2.779c4.442-0.633,8.868-0.512,13.229,0.607
					c5.096,1.309,9.525,3.795,13.161,7.64c0.89,0.941,2.029,1.589,3.008,2.432c2.968,2.558,5.385,5.547,7.196,9.022
					C77.257,46.21,78.362,51.49,78.345,57.03z M9.353,101.905c0.051,0.194,0.251,0.253,0.397,0.357
					c3.108,2.213,6.561,3.699,10.169,4.884c5.434,1.785,10.92,1.876,16.451,0.592c3.414-0.792,6.677-2.021,9.802-3.608
					c6.287-3.191,11.722-7.492,16.426-12.719c3.754-4.173,6.861-8.787,9.245-13.882c2.34-5.001,3.98-10.21,4.646-15.698
					c0.559-4.602,0.363-9.169-0.84-13.675c-1.103-4.133-2.987-7.857-5.696-11.163c-0.286-0.348-0.53-0.755-1.063-1.087
					c0.196,0.686,0.61,1.055,0.947,1.467c0.778,0.951,1.404,1.99,1.73,3.177c0.563,2.05,0.584,4.03-0.707,5.887
					c-1.017,1.463-1.133,3.098-0.679,4.802c0.295,1.107,0.763,2.143,1.203,3.192c0.853,2.034,0.85,3.996-0.599,5.779
					c-0.415,0.51-1.012,0.871-1.43,1.38c-1.649,2.004-2.222,4.32-1.829,6.872c0.309,2.006-0.307,3.707-1.657,5.167
					c-0.758,0.821-1.781,1.286-2.685,1.91c-1.611,1.111-2.668,2.562-2.932,4.541c-0.2,1.502-0.378,3.009-0.653,4.498
					c-0.392,2.117-1.649,3.649-3.809,4.11c-1.183,0.252-2.384,0.431-3.585,0.581c-1.478,0.184-2.591,0.901-3.402,2.126
					c-1.089,1.646-2.189,3.285-3.262,4.942c-1.198,1.849-2.825,3.015-5.032,3.374c-1.613,0.262-3.231,0.472-4.855,0.628
					c-2.021,0.194-3.993,0.504-5.688,1.757c-1.157,0.856-2.363,1.648-3.502,2.528c-1.817,1.403-3.718,1.756-5.848,0.747
					c-1.56-0.739-3.111-1.497-4.651-2.276C13.879,102.041,11.74,101.301,9.353,101.905z M26.782,74.937
					c3.677,0.02,6.793-1.329,9.456-3.829c2.168-2.035,3.705-4.496,4.943-7.165c1.26-2.716,1.927-5.541,1.567-8.559
					c-0.153-1.276-0.13-1.28-1.382-1.42c-0.207-0.023-0.417-0.027-0.626-0.03c-3.373-0.051-6.33,1.155-8.959,3.149
					c-3.758,2.85-6.241,6.574-7.238,11.222c-0.436,2.035-0.418,4.069,0.18,6.081c0.083,0.28,0.198,0.442,0.525,0.475
					C25.76,74.914,26.269,74.936,26.782,74.937z M41.981,52.475c-0.351-0.892-0.759-1.653-1.31-2.333
					c-0.167-0.206-0.395-0.274-0.664-0.14c-0.186,0.092-0.392,0.143-0.587,0.217c-2.04,0.77-4.002,0.761-5.855-0.542
					c-0.29-0.204-0.641-0.33-0.977-0.457c-0.964-0.365-1.602-0.193-2.286,0.589c-0.604,0.69-1.051,1.487-1.533,2.259
					c-1.591,2.55-3.296,4.941-6.545,5.567c-0.875,0.169-1.263,0.898-1.38,1.762c-0.156,1.155-0.181,2.312-0.049,3.467
					c0.208,1.827,0.313,3.632-0.492,5.369c-0.375,0.809-0.648,1.659-0.895,2.517c-0.213,0.74-0.204,1.433,0.345,2.025
					c0.338,0.365,0.774,0.616,1.21,0.842c0.674,0.348,1.352,0.705,2.149,0.833c-0.901-3.857-0.238-7.458,1.406-10.906
					c1.488-3.12,3.645-5.715,6.437-7.765c2.493-1.83,5.229-3.053,8.344-3.343C40.17,52.353,41.036,52.401,41.981,52.475z"/>
			</g>
		</g>
	</g>
	
		<g id="Iuv72F_00000086663570484618725230000006904780826797424821_" opacity="0.6" clip-path="url(#SVGID_00000077313443764999846750000002872278155856122263_)">
		<g>
			<g>
				<path fill="#112A60" d="M78.345,180.754c0.005,5.471-1.105,10.739-2.916,15.874c-2.03,5.754-4.928,11.036-8.647,15.876
					c-3.317,4.317-7.134,8.127-11.471,11.41c-4.93,3.731-10.295,6.637-16.244,8.4c-3.494,1.036-7.056,1.6-10.713,1.565
					c-3.438-0.034-6.733-0.779-9.965-1.872c-2.069-0.699-4.085-1.529-6.018-2.554c-2.105-1.117-4.078-2.424-5.868-4.001
					c-0.144-0.127-0.274-0.265-0.468-0.31c-2.291-0.542-3.947-2.032-5.492-3.684c-4.315-4.614-6.722-10.137-7.73-16.315
					c-0.762-4.676-0.606-9.335,0.205-13.999c1.156-6.645,3.601-12.798,7.008-18.578c3.145-5.337,7.049-10.074,11.659-14.217
					c4.827-4.338,10.198-7.827,16.224-10.274c3.281-1.332,6.675-2.279,10.18-2.779c4.442-0.633,8.868-0.512,13.229,0.607
					c5.096,1.309,9.525,3.795,13.161,7.64c0.89,0.941,2.029,1.589,3.008,2.432c2.968,2.558,5.385,5.547,7.196,9.022
					C77.257,169.934,78.362,175.214,78.345,180.754z M9.353,225.628c0.051,0.194,0.251,0.253,0.397,0.357
					c3.108,2.213,6.561,3.699,10.169,4.884c5.434,1.785,10.92,1.876,16.451,0.592c3.414-0.792,6.677-2.021,9.802-3.608
					c6.287-3.191,11.722-7.492,16.426-12.719c3.754-4.173,6.861-8.787,9.245-13.882c2.34-5.001,3.98-10.21,4.646-15.698
					c0.559-4.602,0.363-9.169-0.84-13.675c-1.103-4.133-2.987-7.857-5.696-11.163c-0.286-0.348-0.53-0.755-1.063-1.087
					c0.196,0.686,0.61,1.055,0.947,1.467c0.778,0.951,1.404,1.99,1.73,3.177c0.563,2.05,0.584,4.03-0.707,5.887
					c-1.017,1.463-1.133,3.098-0.679,4.802c0.295,1.107,0.763,2.143,1.203,3.192c0.853,2.034,0.85,3.996-0.599,5.779
					c-0.415,0.51-1.012,0.871-1.43,1.38c-1.649,2.004-2.222,4.32-1.829,6.872c0.309,2.006-0.307,3.707-1.657,5.167
					c-0.758,0.821-1.781,1.286-2.685,1.91c-1.611,1.111-2.668,2.562-2.932,4.541c-0.2,1.502-0.378,3.009-0.653,4.498
					c-0.392,2.117-1.649,3.649-3.809,4.11c-1.183,0.252-2.384,0.431-3.585,0.581c-1.478,0.184-2.591,0.901-3.402,2.126
					c-1.089,1.646-2.189,3.285-3.262,4.942c-1.198,1.849-2.825,3.015-5.032,3.374c-1.613,0.262-3.231,0.472-4.855,0.628
					c-2.021,0.194-3.993,0.504-5.688,1.757c-1.157,0.856-2.363,1.648-3.502,2.528c-1.817,1.403-3.718,1.756-5.848,0.747
					c-1.56-0.739-3.111-1.497-4.651-2.276C13.879,225.765,11.74,225.025,9.353,225.628z M26.782,198.661
					c3.677,0.02,6.793-1.329,9.456-3.829c2.168-2.035,3.705-4.496,4.943-7.165c1.26-2.716,1.927-5.541,1.567-8.559
					c-0.153-1.276-0.13-1.28-1.382-1.42c-0.207-0.023-0.417-0.027-0.626-0.03c-3.373-0.051-6.33,1.155-8.959,3.149
					c-3.758,2.85-6.241,6.574-7.238,11.222c-0.436,2.035-0.418,4.069,0.18,6.081c0.083,0.28,0.198,0.442,0.525,0.475
					C25.76,198.638,26.269,198.66,26.782,198.661z M41.981,176.199c-0.351-0.892-0.759-1.653-1.31-2.333
					c-0.167-0.206-0.395-0.274-0.664-0.14c-0.186,0.092-0.392,0.143-0.587,0.217c-2.04,0.77-4.002,0.761-5.855-0.542
					c-0.29-0.204-0.641-0.33-0.977-0.457c-0.964-0.365-1.602-0.193-2.286,0.589c-0.604,0.69-1.051,1.487-1.533,2.259
					c-1.591,2.55-3.296,4.941-6.545,5.567c-0.875,0.169-1.263,0.898-1.38,1.762c-0.156,1.155-0.181,2.312-0.049,3.467
					c0.208,1.827,0.313,3.632-0.492,5.369c-0.375,0.809-0.648,1.659-0.895,2.517c-0.213,0.74-0.204,1.433,0.345,2.025
					c0.338,0.365,0.774,0.616,1.21,0.842c0.674,0.348,1.352,0.705,2.149,0.833c-0.901-3.857-0.238-7.458,1.406-10.906
					c1.488-3.12,3.645-5.715,6.437-7.765c2.493-1.83,5.229-3.053,8.344-3.343C40.17,176.077,41.036,176.125,41.981,176.199z"/>
			</g>
		</g>
	</g>
	
		<g id="Iuv72F_00000112623969565524031530000011607937239951785117_" opacity="0.6" clip-path="url(#SVGID_00000077313443764999846750000002872278155856122263_)">
		<g>
			<g>
				<path fill="#112A60" d="M296.058,57.03c0.005,5.471-1.105,10.739-2.916,15.874c-2.03,5.754-4.928,11.036-8.647,15.876
					c-3.317,4.317-7.134,8.127-11.471,11.41c-4.93,3.731-10.295,6.637-16.244,8.4c-3.494,1.036-7.056,1.6-10.713,1.565
					c-3.438-0.034-6.733-0.779-9.965-1.872c-2.069-0.699-4.085-1.529-6.018-2.554c-2.105-1.117-4.078-2.424-5.868-4.001
					c-0.144-0.127-0.274-0.265-0.468-0.31c-2.291-0.542-3.947-2.032-5.492-3.684c-4.315-4.614-6.722-10.137-7.73-16.315
					c-0.762-4.676-0.606-9.335,0.205-13.999c1.156-6.645,3.601-12.798,7.008-18.578c3.145-5.337,7.049-10.074,11.659-14.217
					c4.827-4.338,10.198-7.827,16.224-10.274c3.281-1.332,6.675-2.279,10.18-2.779c4.442-0.633,8.868-0.512,13.229,0.607
					c5.096,1.309,9.525,3.795,13.161,7.64c0.89,0.941,2.029,1.589,3.008,2.432c2.968,2.558,5.385,5.547,7.196,9.022
					C294.97,46.21,296.076,51.49,296.058,57.03z M227.067,101.905c0.051,0.194,0.251,0.253,0.397,0.357
					c3.108,2.213,6.561,3.699,10.169,4.884c5.434,1.785,10.92,1.876,16.451,0.592c3.414-0.792,6.677-2.021,9.802-3.608
					c6.287-3.191,11.723-7.492,16.426-12.719c3.754-4.173,6.861-8.787,9.245-13.882c2.34-5.001,3.98-10.21,4.646-15.698
					c0.559-4.602,0.363-9.169-0.84-13.675c-1.103-4.133-2.987-7.857-5.696-11.163c-0.286-0.348-0.53-0.755-1.062-1.087
					c0.196,0.686,0.61,1.055,0.947,1.467c0.778,0.951,1.404,1.99,1.73,3.177c0.563,2.05,0.584,4.03-0.707,5.887
					c-1.017,1.463-1.133,3.098-0.679,4.802c0.295,1.107,0.763,2.143,1.203,3.192c0.853,2.034,0.85,3.996-0.599,5.779
					c-0.415,0.51-1.012,0.871-1.43,1.38c-1.649,2.004-2.222,4.32-1.829,6.872c0.309,2.006-0.307,3.707-1.657,5.167
					c-0.758,0.821-1.781,1.286-2.685,1.91c-1.611,1.111-2.668,2.562-2.932,4.541c-0.2,1.502-0.378,3.009-0.653,4.498
					c-0.392,2.117-1.649,3.649-3.809,4.11c-1.183,0.252-2.384,0.431-3.585,0.581c-1.478,0.184-2.591,0.901-3.402,2.126
					c-1.089,1.646-2.189,3.285-3.262,4.942c-1.198,1.849-2.825,3.015-5.032,3.374c-1.613,0.262-3.231,0.472-4.855,0.628
					c-2.021,0.194-3.993,0.504-5.688,1.757c-1.158,0.856-2.363,1.648-3.502,2.528c-1.817,1.403-3.718,1.756-5.848,0.747
					c-1.56-0.739-3.111-1.497-4.651-2.276C231.592,102.041,229.453,101.301,227.067,101.905z M244.495,74.937
					c3.677,0.02,6.793-1.329,9.456-3.829c2.168-2.035,3.705-4.496,4.943-7.165c1.26-2.716,1.927-5.541,1.567-8.559
					c-0.153-1.276-0.13-1.28-1.382-1.42c-0.207-0.023-0.417-0.027-0.626-0.03c-3.373-0.051-6.33,1.155-8.959,3.149
					c-3.758,2.85-6.241,6.574-7.238,11.222c-0.436,2.035-0.418,4.069,0.18,6.081c0.083,0.28,0.198,0.442,0.525,0.475
					C243.473,74.914,243.982,74.936,244.495,74.937z M259.695,52.475c-0.351-0.892-0.759-1.653-1.31-2.333
					c-0.167-0.206-0.395-0.274-0.664-0.14c-0.186,0.092-0.392,0.143-0.587,0.217c-2.04,0.77-4.002,0.761-5.855-0.542
					c-0.29-0.204-0.641-0.33-0.977-0.457c-0.964-0.365-1.602-0.193-2.286,0.589c-0.604,0.69-1.051,1.487-1.533,2.259
					c-1.591,2.55-3.296,4.941-6.545,5.567c-0.875,0.169-1.263,0.898-1.38,1.762c-0.156,1.155-0.181,2.312-0.049,3.467
					c0.208,1.827,0.313,3.632-0.492,5.369c-0.375,0.809-0.648,1.659-0.895,2.517c-0.213,0.74-0.204,1.433,0.345,2.025
					c0.338,0.365,0.774,0.616,1.21,0.842c0.674,0.348,1.352,0.705,2.149,0.833c-0.901-3.857-0.238-7.458,1.406-10.906
					c1.488-3.12,3.645-5.715,6.437-7.765c2.493-1.83,5.229-3.053,8.344-3.343C257.884,52.353,258.749,52.401,259.695,52.475z"/>
			</g>
		</g>
	</g>
	
		<g id="Iuv72F_00000031197977567483120110000000804112770311223459_" opacity="0.6" clip-path="url(#SVGID_00000077313443764999846750000002872278155856122263_)">
		<g>
			<g>
				<path fill="#112A60" d="M296.058,180.754c0.005,5.471-1.105,10.739-2.916,15.874c-2.03,5.754-4.928,11.036-8.647,15.876
					c-3.317,4.317-7.134,8.127-11.471,11.41c-4.93,3.731-10.295,6.637-16.244,8.4c-3.494,1.036-7.056,1.6-10.713,1.565
					c-3.438-0.034-6.733-0.779-9.965-1.872c-2.069-0.699-4.085-1.529-6.018-2.554c-2.105-1.117-4.078-2.424-5.868-4.001
					c-0.144-0.127-0.274-0.265-0.468-0.31c-2.291-0.542-3.947-2.032-5.492-3.684c-4.315-4.614-6.722-10.137-7.73-16.315
					c-0.762-4.676-0.606-9.335,0.205-13.999c1.156-6.645,3.601-12.798,7.008-18.578c3.145-5.337,7.049-10.074,11.659-14.217
					c4.827-4.338,10.198-7.827,16.224-10.274c3.281-1.332,6.675-2.279,10.18-2.779c4.442-0.633,8.868-0.512,13.229,0.607
					c5.096,1.309,9.525,3.795,13.161,7.64c0.89,0.941,2.029,1.589,3.008,2.432c2.968,2.558,5.385,5.547,7.196,9.022
					C294.97,169.934,296.076,175.214,296.058,180.754z M227.067,225.628c0.051,0.194,0.251,0.253,0.397,0.357
					c3.108,2.213,6.561,3.699,10.169,4.884c5.434,1.785,10.92,1.876,16.451,0.592c3.414-0.792,6.677-2.021,9.802-3.608
					c6.287-3.191,11.723-7.492,16.426-12.719c3.754-4.173,6.861-8.787,9.245-13.882c2.34-5.001,3.98-10.21,4.646-15.698
					c0.559-4.602,0.363-9.169-0.84-13.675c-1.103-4.133-2.987-7.857-5.696-11.163c-0.286-0.348-0.53-0.755-1.062-1.087
					c0.196,0.686,0.61,1.055,0.947,1.467c0.778,0.951,1.404,1.99,1.73,3.177c0.563,2.05,0.584,4.03-0.707,5.887
					c-1.017,1.463-1.133,3.098-0.679,4.802c0.295,1.107,0.763,2.143,1.203,3.192c0.853,2.034,0.85,3.996-0.599,5.779
					c-0.415,0.51-1.012,0.871-1.43,1.38c-1.649,2.004-2.222,4.32-1.829,6.872c0.309,2.006-0.307,3.707-1.657,5.167
					c-0.758,0.821-1.781,1.286-2.685,1.91c-1.611,1.111-2.668,2.562-2.932,4.541c-0.2,1.502-0.378,3.009-0.653,4.498
					c-0.392,2.117-1.649,3.649-3.809,4.11c-1.183,0.252-2.384,0.431-3.585,0.581c-1.478,0.184-2.591,0.901-3.402,2.126
					c-1.089,1.646-2.189,3.285-3.262,4.942c-1.198,1.849-2.825,3.015-5.032,3.374c-1.613,0.262-3.231,0.472-4.855,0.628
					c-2.021,0.194-3.993,0.504-5.688,1.757c-1.158,0.856-2.363,1.648-3.502,2.528c-1.817,1.403-3.718,1.756-5.848,0.747
					c-1.56-0.739-3.111-1.497-4.651-2.276C231.592,225.765,229.453,225.025,227.067,225.628z M244.495,198.661
					c3.677,0.02,6.793-1.329,9.456-3.829c2.168-2.035,3.705-4.496,4.943-7.165c1.26-2.716,1.927-5.541,1.567-8.559
					c-0.153-1.276-0.13-1.28-1.382-1.42c-0.207-0.023-0.417-0.027-0.626-0.03c-3.373-0.051-6.33,1.155-8.959,3.149
					c-3.758,2.85-6.241,6.574-7.238,11.222c-0.436,2.035-0.418,4.069,0.18,6.081c0.083,0.28,0.198,0.442,0.525,0.475
					C243.473,198.638,243.982,198.66,244.495,198.661z M259.695,176.199c-0.351-0.892-0.759-1.653-1.31-2.333
					c-0.167-0.206-0.395-0.274-0.664-0.14c-0.186,0.092-0.392,0.143-0.587,0.217c-2.04,0.77-4.002,0.761-5.855-0.542
					c-0.29-0.204-0.641-0.33-0.977-0.457c-0.964-0.365-1.602-0.193-2.286,0.589c-0.604,0.69-1.051,1.487-1.533,2.259
					c-1.591,2.55-3.296,4.941-6.545,5.567c-0.875,0.169-1.263,0.898-1.38,1.762c-0.156,1.155-0.181,2.312-0.049,3.467
					c0.208,1.827,0.313,3.632-0.492,5.369c-0.375,0.809-0.648,1.659-0.895,2.517c-0.213,0.74-0.204,1.433,0.345,2.025
					c0.338,0.365,0.774,0.616,1.21,0.842c0.674,0.348,1.352,0.705,2.149,0.833c-0.901-3.857-0.238-7.458,1.406-10.906
					c1.488-3.12,3.645-5.715,6.437-7.765c2.493-1.83,5.229-3.053,8.344-3.343C257.884,176.077,258.749,176.125,259.695,176.199z"/>
			</g>
		</g>
	</g>
	
		<g id="Iuv72F_00000079480316016553414320000012068880430084288916_" opacity="0.6" clip-path="url(#SVGID_00000077313443764999846750000002872278155856122263_)">
		<g>
			<g>
				<path fill="#112A60" d="M179.115,107.152c0.005,5.471-1.105,10.739-2.916,15.874c-2.03,5.754-4.928,11.036-8.647,15.876
					c-3.317,4.317-7.134,8.127-11.471,11.41c-4.93,3.731-10.295,6.637-16.244,8.4c-3.494,1.036-7.056,1.6-10.713,1.565
					c-3.438-0.034-6.733-0.779-9.965-1.872c-2.069-0.699-4.085-1.529-6.018-2.554c-2.105-1.117-4.078-2.424-5.868-4.001
					c-0.144-0.127-0.274-0.265-0.468-0.31c-2.291-0.542-3.947-2.032-5.492-3.684c-4.315-4.614-6.722-10.137-7.73-16.315
					c-0.762-4.676-0.606-9.335,0.205-13.999c1.156-6.645,3.601-12.798,7.008-18.578c3.145-5.337,7.049-10.074,11.659-14.217
					c4.827-4.338,10.198-7.827,16.224-10.274c3.281-1.332,6.675-2.279,10.18-2.779c4.442-0.633,8.868-0.512,13.229,0.607
					c5.096,1.309,9.525,3.795,13.161,7.64c0.89,0.941,2.029,1.589,3.008,2.432c2.968,2.558,5.385,5.547,7.196,9.022
					C178.027,96.332,179.133,101.612,179.115,107.152z M110.124,152.026c0.051,0.194,0.251,0.253,0.397,0.357
					c3.108,2.213,6.561,3.699,10.169,4.884c5.434,1.785,10.92,1.876,16.451,0.592c3.414-0.792,6.677-2.021,9.802-3.608
					c6.287-3.191,11.722-7.492,16.426-12.719c3.754-4.173,6.861-8.787,9.245-13.882c2.34-5.001,3.98-10.21,4.646-15.698
					c0.559-4.602,0.363-9.169-0.84-13.675c-1.103-4.133-2.987-7.857-5.696-11.163c-0.286-0.348-0.53-0.755-1.062-1.087
					c0.196,0.686,0.61,1.055,0.947,1.467c0.778,0.951,1.404,1.99,1.73,3.177c0.563,2.05,0.584,4.03-0.707,5.887
					c-1.017,1.463-1.133,3.098-0.679,4.802c0.295,1.107,0.763,2.143,1.203,3.192c0.853,2.034,0.85,3.996-0.599,5.779
					c-0.415,0.51-1.012,0.871-1.43,1.38c-1.649,2.004-2.222,4.32-1.829,6.872c0.309,2.006-0.307,3.707-1.657,5.167
					c-0.758,0.821-1.781,1.286-2.685,1.91c-1.611,1.111-2.668,2.562-2.932,4.541c-0.2,1.502-0.378,3.009-0.653,4.498
					c-0.392,2.117-1.649,3.649-3.809,4.11c-1.183,0.252-2.384,0.431-3.585,0.581c-1.478,0.184-2.591,0.901-3.402,2.126
					c-1.089,1.646-2.189,3.285-3.262,4.942c-1.198,1.849-2.825,3.015-5.032,3.374c-1.613,0.262-3.231,0.472-4.855,0.628
					c-2.021,0.194-3.993,0.504-5.688,1.757c-1.157,0.856-2.363,1.648-3.502,2.528c-1.817,1.403-3.718,1.756-5.848,0.747
					c-1.56-0.739-3.111-1.497-4.651-2.276C114.649,152.163,112.51,151.423,110.124,152.026z M127.552,125.058
					c3.677,0.02,6.793-1.329,9.456-3.829c2.168-2.035,3.705-4.496,4.943-7.165c1.26-2.716,1.927-5.541,1.567-8.559
					c-0.153-1.276-0.13-1.28-1.382-1.42c-0.207-0.023-0.417-0.027-0.626-0.03c-3.373-0.051-6.33,1.155-8.959,3.149
					c-3.758,2.85-6.241,6.574-7.238,11.222c-0.436,2.035-0.418,4.069,0.18,6.081c0.083,0.28,0.198,0.442,0.525,0.475
					C126.53,125.036,127.039,125.058,127.552,125.058z M142.752,102.596c-0.351-0.892-0.759-1.653-1.31-2.333
					c-0.167-0.206-0.395-0.274-0.664-0.14c-0.186,0.092-0.392,0.143-0.587,0.217c-2.04,0.77-4.002,0.761-5.855-0.542
					c-0.29-0.204-0.641-0.33-0.977-0.457c-0.964-0.365-1.602-0.193-2.286,0.589c-0.604,0.69-1.051,1.487-1.533,2.259
					c-1.591,2.55-3.296,4.941-6.545,5.567c-0.875,0.169-1.263,0.898-1.38,1.762c-0.156,1.155-0.181,2.312-0.049,3.467
					c0.208,1.827,0.313,3.632-0.492,5.369c-0.375,0.809-0.648,1.659-0.895,2.517c-0.213,0.74-0.204,1.433,0.345,2.025
					c0.338,0.365,0.774,0.616,1.21,0.842c0.674,0.348,1.352,0.705,2.149,0.833c-0.901-3.857-0.238-7.458,1.406-10.906
					c1.488-3.12,3.645-5.715,6.437-7.765c2.493-1.83,5.229-3.053,8.344-3.343C140.941,102.474,141.806,102.523,142.752,102.596z"/>
			</g>
		</g>
	</g>
	
		<g id="Iuv72F_00000121987664566776308080000002781986185603713947_" opacity="0.6" clip-path="url(#SVGID_00000077313443764999846750000002872278155856122263_)">
		<g>
			<g>
				<path fill="#112A60" d="M179.115,230.876c0.005,5.471-1.105,10.739-2.916,15.874c-2.03,5.754-4.928,11.036-8.647,15.876
					c-3.317,4.317-7.134,8.127-11.471,11.41c-4.93,3.731-10.295,6.637-16.244,8.4c-3.494,1.036-7.056,1.6-10.713,1.565
					c-3.438-0.034-6.733-0.779-9.965-1.872c-2.069-0.699-4.085-1.529-6.018-2.554c-2.105-1.117-4.078-2.424-5.868-4.001
					c-0.144-0.127-0.274-0.265-0.468-0.31c-2.291-0.542-3.947-2.032-5.492-3.684c-4.315-4.614-6.722-10.137-7.73-16.315
					c-0.762-4.676-0.606-9.335,0.205-13.999c1.156-6.645,3.601-12.798,7.008-18.578c3.145-5.337,7.049-10.074,11.659-14.217
					c4.827-4.338,10.198-7.827,16.224-10.274c3.281-1.332,6.675-2.279,10.18-2.779c4.442-0.633,8.868-0.512,13.229,0.607
					c5.096,1.309,9.525,3.795,13.161,7.64c0.89,0.941,2.029,1.589,3.008,2.432c2.968,2.558,5.385,5.547,7.196,9.022
					C178.027,220.056,179.133,225.336,179.115,230.876z M110.124,275.75c0.051,0.194,0.251,0.253,0.397,0.357
					c3.108,2.213,6.561,3.699,10.169,4.884c5.434,1.785,10.92,1.876,16.451,0.592c3.414-0.792,6.677-2.021,9.802-3.608
					c6.287-3.191,11.722-7.492,16.426-12.719c3.754-4.173,6.861-8.787,9.245-13.882c2.34-5.001,3.98-10.21,4.646-15.698
					c0.559-4.602,0.363-9.169-0.84-13.675c-1.103-4.133-2.987-7.857-5.696-11.163c-0.286-0.348-0.53-0.755-1.062-1.087
					c0.196,0.686,0.61,1.055,0.947,1.467c0.778,0.951,1.404,1.99,1.73,3.177c0.563,2.05,0.584,4.03-0.707,5.887
					c-1.017,1.463-1.133,3.098-0.679,4.802c0.295,1.107,0.763,2.143,1.203,3.192c0.853,2.034,0.85,3.996-0.599,5.779
					c-0.415,0.51-1.012,0.871-1.43,1.38c-1.649,2.004-2.222,4.32-1.829,6.872c0.309,2.006-0.307,3.707-1.657,5.167
					c-0.758,0.821-1.781,1.286-2.685,1.91c-1.611,1.111-2.668,2.562-2.932,4.541c-0.2,1.502-0.378,3.009-0.653,4.498
					c-0.392,2.117-1.649,3.649-3.809,4.11c-1.183,0.252-2.384,0.431-3.585,0.581c-1.478,0.184-2.591,0.901-3.402,2.126
					c-1.089,1.646-2.189,3.285-3.262,4.942c-1.198,1.849-2.825,3.015-5.032,3.374c-1.613,0.262-3.231,0.472-4.855,0.628
					c-2.021,0.194-3.993,0.504-5.688,1.757c-1.157,0.856-2.363,1.648-3.502,2.528c-1.817,1.403-3.718,1.756-5.848,0.747
					c-1.56-0.739-3.111-1.497-4.651-2.276C114.649,275.887,112.51,275.147,110.124,275.75z M127.552,248.782
					c3.677,0.02,6.793-1.329,9.456-3.829c2.168-2.035,3.705-4.496,4.943-7.165c1.26-2.716,1.927-5.541,1.567-8.559
					c-0.153-1.276-0.13-1.28-1.382-1.42c-0.207-0.023-0.417-0.027-0.626-0.03c-3.373-0.051-6.33,1.155-8.959,3.149
					c-3.758,2.85-6.241,6.574-7.238,11.222c-0.436,2.035-0.418,4.069,0.18,6.081c0.083,0.28,0.198,0.442,0.525,0.475
					C126.53,248.76,127.039,248.782,127.552,248.782z M142.752,226.32c-0.351-0.892-0.759-1.653-1.31-2.333
					c-0.167-0.206-0.395-0.274-0.664-0.14c-0.186,0.092-0.392,0.143-0.587,0.217c-2.04,0.77-4.002,0.761-5.855-0.542
					c-0.29-0.204-0.641-0.33-0.977-0.457c-0.964-0.365-1.602-0.193-2.286,0.589c-0.604,0.69-1.051,1.487-1.533,2.259
					c-1.591,2.55-3.296,4.941-6.545,5.567c-0.875,0.169-1.263,0.898-1.38,1.762c-0.156,1.155-0.181,2.312-0.049,3.467
					c0.208,1.827,0.313,3.632-0.492,5.369c-0.375,0.809-0.648,1.659-0.895,2.517c-0.213,0.74-0.204,1.433,0.345,2.025
					c0.338,0.365,0.774,0.616,1.21,0.842c0.674,0.348,1.352,0.705,2.149,0.833c-0.901-3.857-0.238-7.458,1.406-10.906
					c1.488-3.12,3.645-5.715,6.437-7.765c2.493-1.83,5.229-3.053,8.344-3.343C140.941,226.198,141.806,226.247,142.752,226.32z"/>
			</g>
		</g>
	</g>
	
		<g id="Iuv72F_00000092454538410123096770000009079358943681666487_" opacity="0.6" clip-path="url(#SVGID_00000077313443764999846750000002872278155856122263_)">
		<g>
			<g>
				<path fill="#112A60" d="M179.115-11.881c0.005,5.471-1.105,10.739-2.916,15.874c-2.03,5.754-4.928,11.036-8.647,15.876
					c-3.317,4.317-7.134,8.127-11.471,11.41c-4.93,3.731-10.295,6.637-16.244,8.4c-3.494,1.036-7.056,1.6-10.713,1.565
					c-3.438-0.034-6.733-0.779-9.965-1.872c-2.069-0.699-4.085-1.529-6.018-2.554c-2.105-1.117-4.078-2.424-5.868-4.001
					c-0.144-0.127-0.274-0.265-0.468-0.31c-2.291-0.542-3.947-2.032-5.492-3.684c-4.315-4.614-6.722-10.137-7.73-16.315
					c-0.762-4.676-0.606-9.335,0.205-13.999c1.156-6.645,3.601-12.798,7.008-18.578c3.145-5.337,7.049-10.074,11.659-14.217
					c4.827-4.338,10.198-7.827,16.224-10.274c3.281-1.332,6.675-2.279,10.18-2.779c4.442-0.633,8.868-0.512,13.229,0.607
					c5.096,1.309,9.525,3.795,13.161,7.64c0.89,0.941,2.029,1.589,3.008,2.432c2.968,2.558,5.385,5.547,7.196,9.022
					C178.027-22.701,179.133-17.421,179.115-11.881z M110.124,32.993c0.051,0.194,0.251,0.253,0.397,0.357
					c3.108,2.213,6.561,3.699,10.169,4.884c5.434,1.785,10.92,1.876,16.451,0.592c3.414-0.792,6.677-2.021,9.802-3.608
					c6.287-3.191,11.722-7.492,16.426-12.719c3.754-4.173,6.861-8.787,9.245-13.882c2.34-5.001,3.98-10.21,4.646-15.698
					c0.559-4.602,0.363-9.169-0.84-13.675c-1.103-4.133-2.987-7.857-5.696-11.163c-0.286-0.348-0.53-0.755-1.062-1.087
					c0.196,0.686,0.61,1.055,0.947,1.467c0.778,0.951,1.404,1.99,1.73,3.177c0.563,2.05,0.584,4.03-0.707,5.887
					c-1.017,1.463-1.133,3.098-0.679,4.802c0.295,1.107,0.763,2.143,1.203,3.192c0.853,2.034,0.85,3.996-0.599,5.779
					c-0.415,0.51-1.012,0.871-1.43,1.38c-1.649,2.004-2.222,4.32-1.829,6.872c0.309,2.006-0.307,3.707-1.657,5.167
					c-0.758,0.821-1.781,1.286-2.685,1.91c-1.611,1.111-2.668,2.562-2.932,4.541c-0.2,1.502-0.378,3.009-0.653,4.498
					c-0.392,2.117-1.649,3.649-3.809,4.11c-1.183,0.252-2.384,0.431-3.585,0.581c-1.478,0.184-2.591,0.901-3.402,2.126
					c-1.089,1.646-2.189,3.285-3.262,4.942c-1.198,1.849-2.825,3.015-5.032,3.374c-1.613,0.262-3.231,0.472-4.855,0.628
					c-2.021,0.194-3.993,0.504-5.688,1.757c-1.157,0.856-2.363,1.648-3.502,2.528c-1.817,1.403-3.718,1.756-5.848,0.747
					c-1.56-0.739-3.111-1.497-4.651-2.276C114.649,33.13,112.51,32.39,110.124,32.993z M127.552,6.026
					c3.677,0.02,6.793-1.329,9.456-3.829c2.168-2.035,3.705-4.496,4.943-7.165c1.26-2.716,1.927-5.541,1.567-8.559
					c-0.153-1.276-0.13-1.28-1.382-1.42c-0.207-0.023-0.417-0.027-0.626-0.03c-3.373-0.051-6.33,1.155-8.959,3.149
					c-3.758,2.85-6.241,6.574-7.238,11.222c-0.436,2.035-0.418,4.069,0.18,6.081c0.083,0.28,0.198,0.442,0.525,0.475
					C126.53,6.003,127.039,6.025,127.552,6.026z M142.752-16.437c-0.351-0.892-0.759-1.653-1.31-2.333
					c-0.167-0.206-0.395-0.274-0.664-0.14c-0.186,0.092-0.392,0.143-0.587,0.217c-2.04,0.77-4.002,0.761-5.855-0.542
					c-0.29-0.204-0.641-0.33-0.977-0.457c-0.964-0.365-1.602-0.193-2.286,0.589c-0.604,0.69-1.051,1.487-1.533,2.259
					c-1.591,2.55-3.296,4.941-6.545,5.567c-0.875,0.169-1.263,0.898-1.38,1.762c-0.156,1.155-0.181,2.312-0.049,3.467
					c0.208,1.827,0.313,3.632-0.492,5.369c-0.375,0.809-0.648,1.659-0.895,2.517c-0.213,0.74-0.204,1.433,0.345,2.025
					c0.338,0.365,0.774,0.616,1.21,0.842c0.674,0.348,1.352,0.705,2.149,0.833c-0.901-3.857-0.238-7.458,1.406-10.906
					c1.488-3.12,3.645-5.715,6.437-7.765c2.493-1.83,5.229-3.053,8.344-3.343C140.941-16.558,141.806-16.51,142.752-16.437z"/>
			</g>
		</g>
	</g>
	
		<g id="Iuv72F_00000135691899769658119490000012446583420530171012_" opacity="0.6" clip-path="url(#SVGID_00000077313443764999846750000002872278155856122263_)">
		<g>
			<g>
				<path fill="#112A60" d="M402.317,107.152c0.005,5.471-1.105,10.739-2.916,15.874c-2.03,5.754-4.928,11.036-8.647,15.876
					c-3.317,4.317-7.134,8.127-11.471,11.41c-4.93,3.731-10.295,6.637-16.244,8.4c-3.494,1.036-7.056,1.6-10.713,1.565
					c-3.438-0.034-6.733-0.779-9.965-1.872c-2.069-0.699-4.085-1.529-6.018-2.554c-2.105-1.117-4.078-2.424-5.868-4.001
					c-0.144-0.127-0.274-0.265-0.468-0.31c-2.291-0.542-3.947-2.032-5.492-3.684c-4.315-4.614-6.722-10.137-7.73-16.315
					c-0.762-4.676-0.606-9.335,0.205-13.999c1.156-6.645,3.601-12.798,7.008-18.578c3.145-5.337,7.049-10.074,11.659-14.217
					c4.827-4.338,10.198-7.827,16.224-10.274c3.281-1.332,6.675-2.279,10.18-2.779c4.442-0.633,8.868-0.512,13.229,0.607
					c5.096,1.309,9.525,3.795,13.161,7.64c0.89,0.941,2.029,1.589,3.008,2.432c2.968,2.558,5.385,5.547,7.196,9.022
					C401.229,96.332,402.334,101.612,402.317,107.152z M333.325,152.026c0.051,0.194,0.251,0.253,0.397,0.357
					c3.108,2.213,6.561,3.699,10.169,4.884c5.434,1.785,10.92,1.876,16.451,0.592c3.414-0.792,6.677-2.021,9.802-3.608
					c6.287-3.191,11.722-7.492,16.426-12.719c3.754-4.173,6.861-8.787,9.245-13.882c2.34-5.001,3.98-10.21,4.646-15.698
					c0.559-4.602,0.363-9.169-0.84-13.675c-1.103-4.133-2.987-7.857-5.696-11.163c-0.286-0.348-0.53-0.755-1.062-1.087
					c0.196,0.686,0.61,1.055,0.947,1.467c0.778,0.951,1.404,1.99,1.729,3.177c0.563,2.05,0.584,4.03-0.707,5.887
					c-1.017,1.463-1.133,3.098-0.679,4.802c0.295,1.107,0.763,2.143,1.203,3.192c0.853,2.034,0.85,3.996-0.599,5.779
					c-0.415,0.51-1.012,0.871-1.43,1.38c-1.649,2.004-2.222,4.32-1.829,6.872c0.309,2.006-0.307,3.707-1.657,5.167
					c-0.758,0.821-1.781,1.286-2.685,1.91c-1.611,1.111-2.668,2.562-2.932,4.541c-0.2,1.502-0.378,3.009-0.653,4.498
					c-0.392,2.117-1.649,3.649-3.809,4.11c-1.183,0.252-2.384,0.431-3.585,0.581c-1.478,0.184-2.591,0.901-3.402,2.126
					c-1.089,1.646-2.189,3.285-3.262,4.942c-1.198,1.849-2.825,3.015-5.032,3.374c-1.613,0.262-3.231,0.472-4.855,0.628
					c-2.021,0.194-3.993,0.504-5.688,1.757c-1.158,0.856-2.363,1.648-3.502,2.528c-1.817,1.403-3.718,1.756-5.848,0.747
					c-1.56-0.739-3.111-1.497-4.651-2.276C337.851,152.163,335.712,151.423,333.325,152.026z M350.754,125.058
					c3.677,0.02,6.793-1.329,9.456-3.829c2.168-2.035,3.705-4.496,4.943-7.165c1.26-2.716,1.927-5.541,1.567-8.559
					c-0.153-1.276-0.13-1.28-1.382-1.42c-0.207-0.023-0.417-0.027-0.626-0.03c-3.373-0.051-6.33,1.155-8.959,3.149
					c-3.758,2.85-6.241,6.574-7.238,11.222c-0.436,2.035-0.418,4.069,0.18,6.081c0.083,0.28,0.198,0.442,0.525,0.475
					C349.732,125.036,350.241,125.058,350.754,125.058z M365.953,102.596c-0.351-0.892-0.759-1.653-1.31-2.333
					c-0.167-0.206-0.395-0.274-0.664-0.14c-0.186,0.092-0.392,0.143-0.587,0.217c-2.04,0.77-4.002,0.761-5.855-0.542
					c-0.29-0.204-0.641-0.33-0.977-0.457c-0.964-0.365-1.602-0.193-2.285,0.589c-0.604,0.69-1.051,1.487-1.533,2.259
					c-1.591,2.55-3.296,4.941-6.545,5.567c-0.875,0.169-1.263,0.898-1.38,1.762c-0.156,1.155-0.181,2.312-0.049,3.467
					c0.208,1.827,0.313,3.632-0.492,5.369c-0.375,0.809-0.648,1.659-0.895,2.517c-0.213,0.74-0.204,1.433,0.345,2.025
					c0.338,0.365,0.774,0.616,1.21,0.842c0.674,0.348,1.352,0.705,2.149,0.833c-0.901-3.857-0.238-7.458,1.406-10.906
					c1.488-3.12,3.645-5.715,6.437-7.765c2.493-1.83,5.229-3.053,8.344-3.343C364.142,102.474,365.008,102.523,365.953,102.596z"/>
			</g>
		</g>
	</g>
	
		<g id="Iuv72F_00000061453570560067666230000007984101093550661538_" opacity="0.6" clip-path="url(#SVGID_00000077313443764999846750000002872278155856122263_)">
		<g>
			<g>
				<path fill="#112A60" d="M402.317,230.876c0.005,5.471-1.105,10.739-2.916,15.874c-2.03,5.754-4.928,11.036-8.647,15.876
					c-3.317,4.317-7.134,8.127-11.471,11.41c-4.93,3.731-10.295,6.637-16.244,8.4c-3.494,1.036-7.056,1.6-10.713,1.565
					c-3.438-0.034-6.733-0.779-9.965-1.872c-2.069-0.699-4.085-1.529-6.018-2.554c-2.105-1.117-4.078-2.424-5.868-4.001
					c-0.144-0.127-0.274-0.265-0.468-0.31c-2.291-0.542-3.947-2.032-5.492-3.684c-4.315-4.614-6.722-10.137-7.73-16.315
					c-0.762-4.676-0.606-9.335,0.205-13.999c1.156-6.645,3.601-12.798,7.008-18.578c3.145-5.337,7.049-10.074,11.659-14.217
					c4.827-4.338,10.198-7.827,16.224-10.274c3.281-1.332,6.675-2.279,10.18-2.779c4.442-0.633,8.868-0.512,13.229,0.607
					c5.096,1.309,9.525,3.795,13.161,7.64c0.89,0.941,2.029,1.589,3.008,2.432c2.968,2.558,5.385,5.547,7.196,9.022
					C401.229,220.056,402.334,225.336,402.317,230.876z M333.325,275.75c0.051,0.194,0.251,0.253,0.397,0.357
					c3.108,2.213,6.561,3.699,10.169,4.884c5.434,1.785,10.92,1.876,16.451,0.592c3.414-0.792,6.677-2.021,9.802-3.608
					c6.287-3.191,11.722-7.492,16.426-12.719c3.754-4.173,6.861-8.787,9.245-13.882c2.34-5.001,3.98-10.21,4.646-15.698
					c0.559-4.602,0.363-9.169-0.84-13.675c-1.103-4.133-2.987-7.857-5.696-11.163c-0.286-0.348-0.53-0.755-1.062-1.087
					c0.196,0.686,0.61,1.055,0.947,1.467c0.778,0.951,1.404,1.99,1.729,3.177c0.563,2.05,0.584,4.03-0.707,5.887
					c-1.017,1.463-1.133,3.098-0.679,4.802c0.295,1.107,0.763,2.143,1.203,3.192c0.853,2.034,0.85,3.996-0.599,5.779
					c-0.415,0.51-1.012,0.871-1.43,1.38c-1.649,2.004-2.222,4.32-1.829,6.872c0.309,2.006-0.307,3.707-1.657,5.167
					c-0.758,0.821-1.781,1.286-2.685,1.91c-1.611,1.111-2.668,2.562-2.932,4.541c-0.2,1.502-0.378,3.009-0.653,4.498
					c-0.392,2.117-1.649,3.649-3.809,4.11c-1.183,0.252-2.384,0.431-3.585,0.581c-1.478,0.184-2.591,0.901-3.402,2.126
					c-1.089,1.646-2.189,3.285-3.262,4.942c-1.198,1.849-2.825,3.015-5.032,3.374c-1.613,0.262-3.231,0.472-4.855,0.628
					c-2.021,0.194-3.993,0.504-5.688,1.757c-1.158,0.856-2.363,1.648-3.502,2.528c-1.817,1.403-3.718,1.756-5.848,0.747
					c-1.56-0.739-3.111-1.497-4.651-2.276C337.851,275.887,335.712,275.147,333.325,275.75z M350.754,248.782
					c3.677,0.02,6.793-1.329,9.456-3.829c2.168-2.035,3.705-4.496,4.943-7.165c1.26-2.716,1.927-5.541,1.567-8.559
					c-0.153-1.276-0.13-1.28-1.382-1.42c-0.207-0.023-0.417-0.027-0.626-0.03c-3.373-0.051-6.33,1.155-8.959,3.149
					c-3.758,2.85-6.241,6.574-7.238,11.222c-0.436,2.035-0.418,4.069,0.18,6.081c0.083,0.28,0.198,0.442,0.525,0.475
					C349.732,248.76,350.241,248.782,350.754,248.782z M365.953,226.32c-0.351-0.892-0.759-1.653-1.31-2.333
					c-0.167-0.206-0.395-0.274-0.664-0.14c-0.186,0.092-0.392,0.143-0.587,0.217c-2.04,0.77-4.002,0.761-5.855-0.542
					c-0.29-0.204-0.641-0.33-0.977-0.457c-0.964-0.365-1.602-0.193-2.285,0.589c-0.604,0.69-1.051,1.487-1.533,2.259
					c-1.591,2.55-3.296,4.941-6.545,5.567c-0.875,0.169-1.263,0.898-1.38,1.762c-0.156,1.155-0.181,2.312-0.049,3.467
					c0.208,1.827,0.313,3.632-0.492,5.369c-0.375,0.809-0.648,1.659-0.895,2.517c-0.213,0.74-0.204,1.433,0.345,2.025
					c0.338,0.365,0.774,0.616,1.21,0.842c0.674,0.348,1.352,0.705,2.149,0.833c-0.901-3.857-0.238-7.458,1.406-10.906
					c1.488-3.12,3.645-5.715,6.437-7.765c2.493-1.83,5.229-3.053,8.344-3.343C364.142,226.198,365.008,226.247,365.953,226.32z"/>
			</g>
		</g>
	</g>
	
		<g id="Iuv72F_00000155121989002092428890000002215977920715851178_" opacity="0.6" clip-path="url(#SVGID_00000077313443764999846750000002872278155856122263_)">
		<g>
			<g>
				<path fill="#112A60" d="M402.317-11.881c0.005,5.471-1.105,10.739-2.916,15.874c-2.03,5.754-4.928,11.036-8.647,15.876
					c-3.317,4.317-7.134,8.127-11.471,11.41c-4.93,3.731-10.295,6.637-16.244,8.4c-3.494,1.036-7.056,1.6-10.713,1.565
					c-3.438-0.034-6.733-0.779-9.965-1.872c-2.069-0.699-4.085-1.529-6.018-2.554c-2.105-1.117-4.078-2.424-5.868-4.001
					c-0.144-0.127-0.274-0.265-0.468-0.31c-2.291-0.542-3.947-2.032-5.492-3.684c-4.315-4.614-6.722-10.137-7.73-16.315
					c-0.762-4.676-0.606-9.335,0.205-13.999c1.156-6.645,3.601-12.798,7.008-18.578c3.145-5.337,7.049-10.074,11.659-14.217
					c4.827-4.338,10.198-7.827,16.224-10.274c3.281-1.332,6.675-2.279,10.18-2.779c4.442-0.633,8.868-0.512,13.229,0.607
					c5.096,1.309,9.525,3.795,13.161,7.64c0.89,0.941,2.029,1.589,3.008,2.432c2.968,2.558,5.385,5.547,7.196,9.022
					C401.229-22.701,402.334-17.421,402.317-11.881z M333.325,32.993c0.051,0.194,0.251,0.253,0.397,0.357
					c3.108,2.213,6.561,3.699,10.169,4.884c5.434,1.785,10.92,1.876,16.451,0.592c3.414-0.792,6.677-2.021,9.802-3.608
					c6.287-3.191,11.722-7.492,16.426-12.719c3.754-4.173,6.861-8.787,9.245-13.882c2.34-5.001,3.98-10.21,4.646-15.698
					c0.559-4.602,0.363-9.169-0.84-13.675c-1.103-4.133-2.987-7.857-5.696-11.163c-0.286-0.348-0.53-0.755-1.062-1.087
					c0.196,0.686,0.61,1.055,0.947,1.467c0.778,0.951,1.404,1.99,1.729,3.177c0.563,2.05,0.584,4.03-0.707,5.887
					c-1.017,1.463-1.133,3.098-0.679,4.802c0.295,1.107,0.763,2.143,1.203,3.192c0.853,2.034,0.85,3.996-0.599,5.779
					c-0.415,0.51-1.012,0.871-1.43,1.38c-1.649,2.004-2.222,4.32-1.829,6.872c0.309,2.006-0.307,3.707-1.657,5.167
					c-0.758,0.821-1.781,1.286-2.685,1.91c-1.611,1.111-2.668,2.562-2.932,4.541c-0.2,1.502-0.378,3.009-0.653,4.498
					c-0.392,2.117-1.649,3.649-3.809,4.11c-1.183,0.252-2.384,0.431-3.585,0.581c-1.478,0.184-2.591,0.901-3.402,2.126
					c-1.089,1.646-2.189,3.285-3.262,4.942c-1.198,1.849-2.825,3.015-5.032,3.374c-1.613,0.262-3.231,0.472-4.855,0.628
					c-2.021,0.194-3.993,0.504-5.688,1.757c-1.158,0.856-2.363,1.648-3.502,2.528c-1.817,1.403-3.718,1.756-5.848,0.747
					c-1.56-0.739-3.111-1.497-4.651-2.276C337.851,33.13,335.712,32.39,333.325,32.993z M350.754,6.026
					c3.677,0.02,6.793-1.329,9.456-3.829c2.168-2.035,3.705-4.496,4.943-7.165c1.26-2.716,1.927-5.541,1.567-8.559
					c-0.153-1.276-0.13-1.28-1.382-1.42c-0.207-0.023-0.417-0.027-0.626-0.03c-3.373-0.051-6.33,1.155-8.959,3.149
					c-3.758,2.85-6.241,6.574-7.238,11.222c-0.436,2.035-0.418,4.069,0.18,6.081c0.083,0.28,0.198,0.442,0.525,0.475
					C349.732,6.003,350.241,6.025,350.754,6.026z M365.953-16.437c-0.351-0.892-0.759-1.653-1.31-2.333
					c-0.167-0.206-0.395-0.274-0.664-0.14c-0.186,0.092-0.392,0.143-0.587,0.217c-2.04,0.77-4.002,0.761-5.855-0.542
					c-0.29-0.204-0.641-0.33-0.977-0.457c-0.964-0.365-1.602-0.193-2.285,0.589c-0.604,0.69-1.051,1.487-1.533,2.259
					c-1.591,2.55-3.296,4.941-6.545,5.567c-0.875,0.169-1.263,0.898-1.38,1.762c-0.156,1.155-0.181,2.312-0.049,3.467
					c0.208,1.827,0.313,3.632-0.492,5.369c-0.375,0.809-0.648,1.659-0.895,2.517c-0.213,0.74-0.204,1.433,0.345,2.025
					c0.338,0.365,0.774,0.616,1.21,0.842c0.674,0.348,1.352,0.705,2.149,0.833c-0.901-3.857-0.238-7.458,1.406-10.906
					c1.488-3.12,3.645-5.715,6.437-7.765c2.493-1.83,5.229-3.053,8.344-3.343C364.142-16.558,365.008-16.51,365.953-16.437z"/>
			</g>
		</g>
	</g>
	<g clip-path="url(#SVGID_00000077313443764999846750000002872278155856122263_)">
		<g>
			<path fill="#112A60" d="M157.297,169.521h-21.842l-2.821-12.65h-11.467l-2.366,14.743H97.596l16.654-72.806h27.575
				L157.297,169.521z M131.269,137.76l-3.822-20.021l-4.004,20.021H131.269z"/>
			<path fill="#112A60" d="M205.985,116.555l-23.025,35.493h19.294v19.566h-39.225V153.23l18.93-35.492h-16.654V99.354h38.77
				L205.985,116.555z"/>
			<path fill="#112A60" d="M258.131,98.809l-0.637,46.231c-0.062,3.641-0.592,7.068-1.593,10.284s-2.382,6.021-4.141,8.418
				c-1.761,2.397-3.884,4.309-6.371,5.733c-2.488,1.426-5.248,2.139-8.281,2.139c-3.581,0-6.933-0.621-10.057-1.865
				c-3.126-1.243-5.855-2.973-8.19-5.188c-2.337-2.215-4.187-4.838-5.552-7.872c-1.365-3.033-2.079-6.34-2.139-9.92l-0.729-47.779
				l18.293,0.273c0.729,26.938,1.092,42.106,1.092,45.504c0,4.064,1.577,6.097,4.732,6.097c2.608,0,3.974-2.73,4.096-8.19
				l0.729-43.865H258.131z"/>
			<path fill="#112A60" d="M300.632,171.614h-37.041v-71.077l17.656-1.729v52.875h19.385V171.614z"/>
		</g>
		<g>
			<path fill="#31C1F4" stroke="#112A60" stroke-width="2" stroke-linejoin="round" stroke-miterlimit="10" d="M151.068,165.369
				h-21.842l-2.821-12.65h-11.467l-2.366,14.743H91.367l16.654-72.806h27.575L151.068,165.369z M125.04,133.607l-3.822-20.021
				l-4.004,20.021H125.04z"/>
			<path fill="#31C1F4" stroke="#112A60" stroke-width="2" stroke-linejoin="round" stroke-miterlimit="10" d="M199.757,112.403
				l-23.025,35.493h19.294v19.566h-39.225v-18.384l18.93-35.492h-16.654V95.202h38.77L199.757,112.403z"/>
			<path fill="#31C1F4" stroke="#112A60" stroke-width="2" stroke-linejoin="round" stroke-miterlimit="10" d="M251.902,94.656
				l-0.637,46.231c-0.062,3.641-0.592,7.068-1.593,10.284s-2.382,6.021-4.141,8.418c-1.761,2.397-3.884,4.309-6.371,5.733
				c-2.488,1.426-5.248,2.139-8.281,2.139c-3.581,0-6.933-0.621-10.057-1.865c-3.126-1.243-5.855-2.973-8.19-5.188
				c-2.337-2.215-4.187-4.838-5.552-7.872c-1.365-3.033-2.079-6.34-2.139-9.92l-0.729-47.779l18.293,0.273
				c0.729,26.938,1.092,42.106,1.092,45.504c0,4.064,1.577,6.097,4.732,6.097c2.608,0,3.974-2.73,4.096-8.19l0.729-43.865H251.902z"
				/>
			<path fill="#31C1F4" stroke="#112A60" stroke-width="2" stroke-linejoin="round" stroke-miterlimit="10" d="M294.403,167.462
				h-37.041V96.385l17.656-1.729v52.875h19.385V167.462z"/>
		</g>
	</g>
</g>
</svg>
