<?xml version="1.0" encoding="utf-8"?>
<!-- Generator: Adobe Illustrator 25.0.0, SVG Export Plug-In . SVG Version: 6.00 Build 0)  -->
<svg version="1.1" id="Capa_1" xmlns="http://www.w3.org/2000/svg" xmlns:xlink="http://www.w3.org/1999/xlink" x="0px" y="0px"
	 viewBox="0 0 393 268.5" style="enable-background:new 0 0 393 268.5;" xml:space="preserve">
<style type="text/css">
	.st0{fill:#F02B3C;}
	.st1{fill:#03814F;}
	.st2{fill:#816DAF;}
	.st3{fill:#38D430;}
	.st4{fill:#4E2583;}
</style>
<rect class="st0" width="393" height="268.5"/>
<g>
	<path class="st1" d="M247.95,43.41c-6.84-1.33-13.46,3.13-14.79,9.96l24.76,4.83C259.25,51.37,254.79,44.74,247.95,43.41z"/>
	<path class="st2" d="M158.8,137.29c0,0-37.94,27.05-45.64,36.47c-4.11,5.02-4.1,14.02,2.42,18.72
		c14.24,10.25,28.27-4.67,37.53-14.14c25.53,6.58,43.88,26.82,55.68,33.03c23.93,12.61,39.15-25.7,49.36-38.48
		C215.81,147.15,188.85,140.48,158.8,137.29z"/>
	<path class="st3" d="M315.8,154.18c-1.35,9.61-9.45,16.84-19.16,16.94c-4.3,0.03-8.91,0.02-13.16-0.17
		c-3.35-0.15-6.59,1.3-8.7,3.93c-8.12,10.18-30.05,35.32-50.73,38.73c-5.26,0.88-10.47,0.34-15.32-2.22
		c-11.8-6.22-30.17-26.46-55.68-33.05c-19.08-4.9-33.3-2.24-42.5,6.51c-0.83-3.96,0.17-8.19,2.54-11.07
		c7.7-9.42,35.31-41.84,35.31-41.84c4.13-56.88,43.11-87.9,97.07-79.48c26.17,4.08,46.78,18.03,57.16,33.18
		C317.71,107.6,319.43,128.53,315.8,154.18z"/>
	<path class="st1" d="M279.1,171.69c-1.67,0.66-3.17,1.74-4.31,3.19c-8.12,10.18-30.05,35.32-50.73,38.73
		c-5.26,0.88-10.47,0.34-15.32-2.22c-11.8-6.22-30.17-26.46-55.68-33.05c-19.08-4.9-33.3-2.24-42.5,6.51
		c-0.83-3.96,0.17-8.19,2.54-11.07c7.7-9.42,35.31-41.84,35.31-41.84s18.3-6.49,41.24-1.11
		C222.51,138.52,241.52,159.08,279.1,171.69z"/>
	<path class="st4" d="M304.73,84.2c-9.45-13.79-25.69-24.9-44.25-30.79c-0.97-6.23-5.7-11.24-12.04-12.48
		c-6.59-1.28-13.13,1.92-16.23,7.7c-21.33-0.79-40.14,4.85-54.95,16.62c-18.43,14.65-29.28,37.64-31.38,66.49
		c-0.13,1.83-0.86,3.55-2.01,4.8c-1.02,1.07-25.06,26.23-32.73,35.61c-2.61,3.19-3.83,7.67-3.26,11.99
		c0.56,4.23,2.74,7.92,6.16,10.38c15.45,11.13,30.57-3.94,39.78-13.36c16.24,4.56,29.41,14.69,40.06,22.88
		c5.21,4.01,9.72,7.48,13.67,9.56c3.88,2.04,7.91,2.94,12,2.94c22.42,0,46.68-26.92,57.2-40.09c1.58-1.97,4.04-3.1,6.61-2.98
		c3.81,0.16,8.28,0.22,13.29,0.16c11-0.11,20.1-8.15,21.65-19.11C322.51,124.79,318.58,104.41,304.73,84.2z M247.47,45.89
		c3.35,0.66,5.98,2.9,7.26,5.87c-2.92-0.74-5.88-1.35-8.87-1.81c-2.6-0.41-5.17-0.7-7.71-0.93
		C240.46,46.49,243.94,45.21,247.47,45.89z M313.31,153.82c-1.2,8.47-8.22,14.67-16.69,14.76c-4.92,0.05-9.3,0-13.02-0.16
		c-4.2-0.16-8.2,1.65-10.77,4.87c-9.1,11.39-40.52,47.63-62.9,35.84c-3.57-1.88-7.92-5.22-12.95-9.09
		c-11.15-8.58-24.99-19.22-42.5-23.95c-0.23-0.06-0.99-0.26-1.08-0.28c-17.33-4.41-31.34-3-37.51,3.79
		c-0.94,1.03-0.86,2.63,0.17,3.57c1.03,0.94,2.63,0.86,3.57-0.17c3.33-3.67,12.69-6.47,28.47-3.23
		c-10.43,10.37-20.7,18.13-31.08,10.65c-2.92-2.1-3.84-4.93-4.1-6.94c-0.39-2.96,0.42-6,2.16-8.13
		c7.56-9.23,32.23-35.06,32.51-35.35c1.95-2.12,3.15-4.93,3.36-7.9c1.99-27.4,12.19-49.15,29.48-62.9
		c16.76-13.32,39.12-18.26,64.67-14.27c23.12,3.61,44.38,15.91,55.48,32.12C315.82,109.33,316.69,129.86,313.31,153.82z"/>
	<path class="st4" d="M268.55,170.3c-0.32,0-0.64-0.06-0.95-0.19c-12.96-5.28-23.63-11.34-33.95-17.2
		c-14.18-8.05-27.58-15.65-44.57-19.64c-13.73-3.22-25.73-2.1-33.38-0.6c-1.37,0.27-2.7-0.62-2.97-1.99s0.62-2.7,1.99-2.97
		c8.14-1.6,20.9-2.79,35.51,0.64c17.7,4.15,31.4,11.93,45.91,20.17c10.18,5.78,20.71,11.76,33.37,16.92c1.29,0.53,1.91,2,1.39,3.29
		C270.5,169.71,269.55,170.3,268.55,170.3z"/>
</g>
</svg>
