<?xml version="1.0" encoding="utf-8"?>
<!-- Generator: Adobe Illustrator 26.5.0, SVG Export Plug-In . SVG Version: 6.00 Build 0)  -->
<svg version="1.1" id="Capa_1" xmlns="http://www.w3.org/2000/svg" xmlns:xlink="http://www.w3.org/1999/xlink" x="0px" y="0px"
	 viewBox="0 0 392 268" enable-background="new 0 0 392 268" xml:space="preserve">
<g>
	<g>
		<defs>
			<rect id="SVGID_1_" x="-1.538" width="393.538" height="268"/>
		</defs>
		<clipPath id="SVGID_00000106123682967825362160000012288850507723802527_">
			<use xlink:href="#SVGID_1_"  overflow="visible"/>
		</clipPath>
		<rect clip-path="url(#SVGID_00000106123682967825362160000012288850507723802527_)" fill="#0D5EB6" width="392" height="268"/>
	</g>
	<g>
		<defs>
			<rect id="SVGID_00000107565299747498936840000000955152281259261059_" x="-1.538" width="393.538" height="268"/>
		</defs>
		<clipPath id="SVGID_00000126314489701905260140000000001949095837729677_">
			<use xlink:href="#SVGID_00000107565299747498936840000000955152281259261059_"  overflow="visible"/>
		</clipPath>
		
			<path clip-path="url(#SVGID_00000126314489701905260140000000001949095837729677_)" fill="#FED130" stroke="#421D70" stroke-width="2" stroke-linejoin="round" stroke-miterlimit="10" d="
			M353.135-10.195C244.773-10.894,112.641,132.423,42.032,251.971c11.483,5.971,24.234,9.088,37.177,9.088h2.672v2.672
			c0,12.943,3.117,25.694,9.088,37.177C210.516,230.298,353.834,98.167,353.135-10.195z"/>
	</g>
	<g>
		<defs>
			<rect id="SVGID_00000031194753161313136300000010807148165707935160_" x="-1.538" width="393.538" height="268"/>
		</defs>
		<clipPath id="SVGID_00000119796597941991527150000008345100963339741320_">
			<use xlink:href="#SVGID_00000031194753161313136300000010807148165707935160_"  overflow="visible"/>
		</clipPath>
		
			<path clip-path="url(#SVGID_00000119796597941991527150000008345100963339741320_)" fill="#FB3D2C" stroke="#421D70" stroke-width="2" stroke-linejoin="round" stroke-miterlimit="10" d="
			M94.295,290.259c-3.282-8.429-4.989-17.471-4.989-26.522v-10.101h-3.204h-4.674h-2.223c-9.051,0-18.093-1.707-26.522-4.989
			c37.385-61.701,86.542-122.343,135.753-167.369c53.665-49.08,104.565-77.501,148.392-83.042c1.75-0.228,3.492-0.412,5.226-0.551
			c1.155-0.105,2.311-0.193,3.458-0.254c-0.062,1.146-0.149,2.302-0.254,3.458c-0.14,1.733-0.324,3.475-0.552,5.226
			c-5.541,43.827-33.962,94.727-83.041,148.393C216.638,203.717,155.988,252.866,94.295,290.259z"/>
	</g>
	<g>
		<defs>
			<rect id="SVGID_00000162345997115428625750000017203803643578222767_" x="-1.538" width="393.538" height="268"/>
		</defs>
		<clipPath id="SVGID_00000101821595285920405320000013227313228060171186_">
			<use xlink:href="#SVGID_00000162345997115428625750000017203803643578222767_"  overflow="visible"/>
		</clipPath>
		<g clip-path="url(#SVGID_00000101821595285920405320000013227313228060171186_)">
			<path fill="#FD8A25" d="M342.054-2.316L86.102,253.636h-4.674l255.4-255.4C338.579-1.992,340.321-2.176,342.054-2.316z"/>
			<path fill="#FD8A25" d="M344.706,6.114l-255.4,255.4v-4.674L345.258,0.888C345.117,2.621,344.934,4.363,344.706,6.114z"/>
		</g>
	</g>
	<g>
		<defs>
			<rect id="SVGID_00000080180372866116660560000003411832186130716300_" x="-1.538" width="393.538" height="268"/>
		</defs>
		<clipPath id="SVGID_00000094580485280664103980000002896520832796062887_">
			<use xlink:href="#SVGID_00000080180372866116660560000003411832186130716300_"  overflow="visible"/>
		</clipPath>
		<g clip-path="url(#SVGID_00000094580485280664103980000002896520832796062887_)">
			<circle fill="#421D70" cx="95.076" cy="204.944" r="2.277"/>
			<circle fill="#421D70" cx="89.683" cy="210.336" r="2.277"/>
		</g>
	</g>
	<g>
		<defs>
			<rect id="SVGID_00000065069978212580846800000001042547990044385966_" x="-1.538" width="393.538" height="268"/>
		</defs>
		<clipPath id="SVGID_00000072999032866249264510000005546444749177447851_">
			<use xlink:href="#SVGID_00000065069978212580846800000001042547990044385966_"  overflow="visible"/>
		</clipPath>
		<g clip-path="url(#SVGID_00000072999032866249264510000005546444749177447851_)">
			<path fill="#421D70" d="M81.86,228.349c-0.889,0.889-0.889,2.331,0,3.221c0.889,0.889,2.331,0.889,3.221,0
				c0.889-0.889,0.889-2.331,0-3.221C84.191,227.46,82.749,227.46,81.86,228.349z"/>
			<path fill="#421D70" d="M76.468,233.741c-0.889,0.889-0.889,2.331,0,3.221c0.889,0.889,2.331,0.889,3.221,0
				c0.889-0.889,0.889-2.331,0-3.221C78.799,232.852,77.357,232.852,76.468,233.741z"/>
		</g>
	</g>
	<g>
		<defs>
			<rect id="SVGID_00000169534998323804319390000010349093701215818371_" x="-1.538" width="393.538" height="268"/>
		</defs>
		<clipPath id="SVGID_00000032618162971333248080000009454879579737948570_">
			<use xlink:href="#SVGID_00000169534998323804319390000010349093701215818371_"  overflow="visible"/>
		</clipPath>
		<g clip-path="url(#SVGID_00000032618162971333248080000009454879579737948570_)">
			<circle fill="#421D70" cx="137.999" cy="247.867" r="2.277"/>
			<circle fill="#421D70" cx="132.606" cy="253.259" r="2.277"/>
		</g>
	</g>
	<g>
		<defs>
			<rect id="SVGID_00000034781966215145310680000008375219166331114418_" x="-1.538" width="393.538" height="268"/>
		</defs>
		<clipPath id="SVGID_00000063607070660416683620000007609768979992548284_">
			<use xlink:href="#SVGID_00000034781966215145310680000008375219166331114418_"  overflow="visible"/>
		</clipPath>
		<g clip-path="url(#SVGID_00000063607070660416683620000007609768979992548284_)">
			<circle fill="#421D70" cx="112.983" cy="259.472" r="2.277"/>
			<path fill="#421D70" d="M109.201,266.474c-0.889,0.889-2.331,0.889-3.221,0c-0.889-0.889-0.889-2.331,0-3.221
				c0.889-0.889,2.331-0.889,3.221,0C110.09,264.143,110.09,265.585,109.201,266.474z"/>
		</g>
	</g>
	<g>
		<defs>
			<rect id="SVGID_00000042001768774748945150000006868742757071496839_" x="-1.538" width="393.538" height="268"/>
		</defs>
		<clipPath id="SVGID_00000051364326454848507860000013127328417801467067_">
			<use xlink:href="#SVGID_00000042001768774748945150000006868742757071496839_"  overflow="visible"/>
		</clipPath>
		<g clip-path="url(#SVGID_00000051364326454848507860000013127328417801467067_)">
			<g>
				<path fill="#FFFFFF" d="M109.953,71.885c3.49,0,6.647,0.924,9.471,2.772c2.823,1.848,5.224,4.389,7.2,7.623
					c1.976,3.234,3.49,7.059,4.543,11.473c1.052,4.416,1.578,9.189,1.578,14.322c0,3.954-0.475,7.496-1.425,10.626
					c-0.95,3.132-2.336,5.788-4.157,7.97c-1.823,2.183-4.081,3.863-6.776,5.043c-2.695,1.182-5.763,1.771-9.201,1.771
					c-7.546,0-13.258-2.695-17.133-8.085c-3.876-5.39-5.813-13.448-5.813-24.178c0-4.312,0.474-8.277,1.425-11.896
					c0.949-3.619,2.349-6.711,4.196-9.278c1.848-2.566,4.119-4.568,6.814-6.006C103.37,72.604,106.462,71.885,109.953,71.885z
					 M110.954,116.699c0.924,0,1.783-0.333,2.58-1.001c0.795-0.666,1.475-1.54,2.04-2.618c0.564-1.078,1.001-2.321,1.309-3.734
					c0.309-1.411,0.463-2.887,0.463-4.427c0-9.856-2.618-14.784-7.854-14.784c-3.646,0-5.467,3.773-5.467,11.319
					c0,2.26,0.154,4.326,0.462,6.199c0.308,1.875,0.77,3.478,1.386,4.812c0.616,1.336,1.348,2.375,2.194,3.119
					C108.914,116.327,109.876,116.699,110.954,116.699z"/>
				<path fill="#FFFFFF" d="M176.865,71.885L176.326,111c-0.051,3.08-0.5,5.981-1.347,8.701c-0.848,2.722-2.016,5.096-3.504,7.123
					c-1.489,2.028-3.286,3.646-5.39,4.851c-2.105,1.207-4.441,1.81-7.007,1.81c-3.03,0-5.865-0.525-8.509-1.578
					c-2.645-1.052-4.955-2.515-6.93-4.39c-1.978-1.873-3.542-4.093-4.697-6.66c-1.155-2.566-1.759-5.363-1.81-8.394l-0.616-40.424
					l15.478,0.231c0.615,22.792,0.924,35.625,0.924,38.5c0,3.439,1.334,5.159,4.004,5.159c2.206,0,3.361-2.311,3.465-6.93
					l0.616-37.114H176.865z"/>
				<path fill="#FFFFFF" d="M221.757,89.903h-11.474v43.582H194.19V90.904h-12.089l-1.386-17.017h41.041v16.016H221.757z"/>
				<path fill="#FFFFFF" d="M260.256,133.485h-33.572V72.886h32.032V88.44l-16.017,1.001l0.539,8.008h15.016v12.474h-14.015v7.008
					h16.017L260.256,133.485L260.256,133.485z"/>
				<path fill="#FFFFFF" d="M303.761,131.021l-13.782,2.002l-10.241-15.708v15.169l-16.17,1.001l-1.694-60.753
					c-0.308-0.051-0.462-0.154-0.462-0.308c0-0.358,1.72-0.539,5.159-0.539c5.595,0,10.434,0.219,14.515,0.655
					c4.081,0.437,7.43,1.399,10.048,2.887c2.618,1.49,4.556,3.646,5.813,6.468c1.258,2.824,1.887,6.622,1.887,11.396
					c0,5.082-2.284,9.984-6.853,14.707L303.761,131.021z M278.274,98.219c3.9-0.77,5.852-2.591,5.852-5.467V92.29
					c-0.154-1.488-0.796-2.772-1.925-3.85c-1.13-1.078-2.772-1.745-4.928-2.002L278.274,98.219z"/>
				<path fill="#FFFFFF" d="M118.967,167.421c1.119,0.326,2.157,0.934,3.114,1.819c0.956,0.887,1.772,1.96,2.449,3.22
					c0.676,1.26,1.213,2.684,1.61,4.269c0.396,1.587,0.595,3.267,0.595,5.039c0,2.054-0.49,3.92-1.47,5.6s-2.334,3.126-4.06,4.339
					c-1.727,1.214-3.769,2.146-6.124,2.8c-2.356,0.653-4.888,0.979-7.594,0.979H92.371l-1.819-55.5
					c5.505-0.186,9.611-0.314,12.317-0.385s4.013-0.105,3.92-0.105c5.599,0,9.973,1.272,13.122,3.814
					c3.149,2.544,4.725,6.148,4.725,10.813c0,1.634-0.14,3.185-0.42,4.654s-0.677,2.799-1.189,3.989
					c-0.515,1.189-1.109,2.193-1.785,3.009C120.564,166.593,119.807,167.141,118.967,167.421z M105.389,160.771
					c0.233,0.047,0.479,0.082,0.735,0.105c0.256,0.023,0.548,0.034,0.875,0.034c3.172,0,4.759-1.399,4.759-4.199
					c0-1.632-0.56-2.88-1.68-3.744c-1.12-0.862-2.566-1.295-4.339-1.295h-0.84L105.389,160.771z M106.719,184.147
					c4.385,0,6.579-1.68,6.579-5.039s-2.24-5.039-6.719-5.039c-0.607,0-0.957,0.024-1.05,0.07v10.008H106.719z"/>
				<path fill="#FFFFFF" d="M174.187,193.876h-16.798l-2.169-9.729h-8.818l-1.82,11.338h-16.307l12.808-55.99h21.206
					L174.187,193.876z M154.17,169.45l-2.939-15.397l-3.08,15.397H154.17z"/>
				<path fill="#FFFFFF" d="M215.339,195.065l-13.229-0.84l-10.708-17.986l1.33,19.246h-14.558v-54.311h13.647l9.868,22.676v-24.355
					l13.648,0.84v54.73H215.339z"/>
				<path fill="#FFFFFF" d="M259.29,139.915l-12.808,25.126l12.317,29.534h-14.487l-8.398-15.396v15.396l-13.298,0.91v-54.66
					l12.388-0.91v16.308l9.309-16.308L259.29,139.915L259.29,139.915z"/>
				<path fill="#FFFFFF" d="M299.742,182.048c0,1.54-0.409,3.114-1.225,4.724c-0.817,1.61-1.867,3.057-3.149,4.34
					c-1.284,1.283-2.719,2.333-4.305,3.149c-1.587,0.816-3.149,1.225-4.689,1.225c-10.452,0-18.57-4.479-24.355-13.438l12.178-6.509
					c0.466,0.747,1.05,1.505,1.75,2.274s1.435,1.47,2.205,2.1s1.55,1.155,2.344,1.575c0.793,0.42,1.516,0.63,2.17,0.63
					c1.445,0,2.17-1.073,2.17-3.22c0-0.513-0.21-1.025-0.63-1.54c-0.42-0.513-0.969-1.015-1.645-1.505
					c-0.678-0.489-1.447-0.979-2.31-1.47c-0.864-0.489-1.739-0.968-2.625-1.435c-1.727-1.025-3.313-2.216-4.759-3.569
					c-1.447-1.353-2.684-2.799-3.71-4.339s-1.831-3.138-2.414-4.794c-0.584-1.656-0.875-3.325-0.875-5.005
					c0-2.332,0.408-4.467,1.225-6.403c0.816-1.936,1.936-3.593,3.359-4.969c1.423-1.376,3.126-2.45,5.109-3.22
					c1.982-0.77,4.14-1.155,6.474-1.155c1.819,0,3.615,0.21,5.389,0.63s3.43,1.016,4.97,1.785s2.915,1.691,4.129,2.765
					c1.213,1.073,2.17,2.239,2.87,3.499l-8.679,9.519c-0.42-0.746-0.945-1.458-1.575-2.135c-0.63-0.676-1.295-1.271-1.994-1.785
					c-0.7-0.513-1.424-0.92-2.17-1.225c-0.747-0.303-1.446-0.455-2.1-0.455c-2.334,0-3.499,1.284-3.499,3.85
					c0,1.727,1.749,3.64,5.249,5.739c2.52,1.539,4.572,2.894,6.159,4.06c1.585,1.166,2.799,2.169,3.639,3.009
					C297.969,172.437,299.742,176.869,299.742,182.048z"/>
			</g>
		</g>
	</g>
</g>
</svg>
