<?xml version="1.0" encoding="utf-8"?>
<!-- Generator: Adobe Illustrator 25.0.0, SVG Export Plug-In . SVG Version: 6.00 Build 0)  -->
<svg version="1.1" id="Capa_1" xmlns="http://www.w3.org/2000/svg" xmlns:xlink="http://www.w3.org/1999/xlink" x="0px" y="0px"
	 viewBox="0 0 393 268.5" style="enable-background:new 0 0 393 268.5;" xml:space="preserve">
<style type="text/css">
	.st0{fill:#816DAA;}
	.st1{fill:#005FB6;}
	.st2{fill:#077DD6;}
	.st3{fill:none;stroke:#4E2583;stroke-width:3.6978;stroke-linecap:round;stroke-linejoin:round;stroke-miterlimit:10;}
	.st4{fill:#FFFFFF;}
</style>
<rect class="st0" width="393" height="268.5"/>
<g>
	<g>
		<path class="st1" d="M293.89,35.99c-8.25-7.4-55.47-18.49-55.47-18.49c0,7.4-7.4,22.19-31.43,22.19s-31.43-14.79-31.43-22.19
			c0,0-47.22,11.09-55.47,18.49c-6.43,5.77-22.82,46.79-28.85,61.91l2.11,2.04l35.09,20.04l10.14-24.82v151.61
			c0,2.03,1.66,3.7,3.7,3.7H271.7c2.03,0,3.7-1.66,3.7-3.7V95.15l12.14,26.82l37.2-22.07C318.71,84.77,300.32,41.76,293.89,35.99z"
			/>
		<path class="st2" d="M175.56,17.5h62.86c0,7.4-7.4,22.19-31.43,22.19S175.56,24.89,175.56,17.5z"/>
		<line class="st3" x1="183.14" y1="17.5" x2="231.21" y2="17.5"/>
		<path class="st3" d="M238.61,17.5c0,7.4-7.4,22.19-31.43,22.19s-31.43-14.79-31.43-22.19"/>
		<g>
			<line class="st3" x1="275.58" y1="246.76" x2="275.58" y2="95.15"/>
			<path class="st3" d="M323.66,98.85c0,0-21.34-55.47-29.58-62.86c-8.24-7.4-55.47-18.49-55.47-18.49"/>
			<line class="st3" x1="323.66" y1="98.85" x2="286.68" y2="120.81"/>
			<line class="st3" x1="286.68" y1="120.81" x2="275.58" y2="95.15"/>
			<path class="st3" d="M275.58,246.76c0,2.04-1.65,3.7-3.7,3.7"/>
		</g>
		<g>
			<line class="st3" x1="138.77" y1="246.76" x2="138.77" y2="95.15"/>
			<path class="st3" d="M90.69,98.85c0,0,21.34-55.47,29.58-62.86c8.24-7.4,55.47-18.49,55.47-18.49"/>
			<line class="st3" x1="90.69" y1="98.85" x2="127.67" y2="120.81"/>
			<line class="st3" x1="127.67" y1="120.81" x2="138.77" y2="95.15"/>
			<path class="st3" d="M138.77,246.76c0,2.04,1.65,3.7,3.7,3.7"/>
		</g>
		<line class="st3" x1="142.46" y1="250.46" x2="271.89" y2="250.46"/>
		<line class="st3" x1="146.16" y1="243.06" x2="268.19" y2="243.06"/>
		<line class="st3" x1="201.62" y1="24.89" x2="212.72" y2="24.89"/>
	</g>
	<g>
		<path class="st4" d="M199.1,127.23c1.59,0,3.03-0.68,4.04-1.77c1.01,1.09,2.44,1.77,4.04,1.77c1.6,0,3.03-0.68,4.04-1.77
			c1,1.09,2.44,1.77,4.04,1.77c3.03,0,5.5-2.47,5.5-5.5v-2.99c7.12-1.33,12.52-7.7,12.52-15.05v-3.92
			c0-11.64-9.48-21.12-21.12-21.12h-9.95c-11.65,0-21.12,9.48-21.12,21.12v3.92c0,7.35,5.4,13.71,12.52,15.05v2.99
			C193.59,124.76,196.06,127.23,199.1,127.23L199.1,127.23z M184,103.69v-3.92c0-10.03,8.16-18.2,18.2-18.2h9.95
			c10.04,0,18.2,8.16,18.2,18.2v3.92c0,6.31-4.92,11.72-11.2,12.32c-0.75,0.07-1.32,0.7-1.32,1.45v4.26c0,1.42-1.16,2.58-2.58,2.58
			s-2.58-1.16-2.58-2.58c0-0.73-0.54-1.34-1.26-1.45c-0.07-0.01-0.14-0.01-0.21-0.01c-0.35,0-0.69,0.13-0.96,0.36
			c-0.32,0.28-0.5,0.68-0.5,1.1c0,1.42-1.16,2.58-2.58,2.58c-1.42,0-2.57-1.15-2.58-2.57c0-0.81-0.65-1.46-1.46-1.46
			s-1.46,0.65-1.46,1.46c0,1.42-1.16,2.57-2.58,2.57c-1.42,0-2.58-1.16-2.58-2.58v-4.26c0-0.75-0.57-1.38-1.32-1.45
			C188.92,115.41,184,110,184,103.69L184,103.69z"/>
		<path class="st4" d="M203.98,103.76c0-4.07-3.31-7.37-7.37-7.37c-4.07,0-7.37,3.31-7.37,7.37c0,4.07,3.31,7.37,7.37,7.37
			C200.67,111.14,203.98,107.83,203.98,103.76z M192.15,103.76c0-2.46,2-4.45,4.45-4.45s4.45,2,4.45,4.45c0,2.45-2,4.45-4.45,4.45
			S192.15,106.22,192.15,103.76L192.15,103.76z"/>
		<path class="st4" d="M217.74,111.14c4.07,0,7.37-3.31,7.37-7.37c0-4.07-3.31-7.37-7.37-7.37c-4.07,0-7.37,3.31-7.37,7.37
			C210.37,107.83,213.68,111.14,217.74,111.14z M217.74,99.31c2.46,0,4.45,2,4.45,4.45s-2,4.45-4.45,4.45c-2.45,0-4.45-2-4.45-4.45
			C213.29,101.31,215.29,99.31,217.74,99.31L217.74,99.31z"/>
		<path class="st4" d="M233,142.25c0.97,0,1.94-0.23,2.81-0.67c1.48-0.75,2.58-2.04,3.09-3.61c0.51-1.58,0.38-3.26-0.37-4.74
			c-0.85-1.66-2.36-2.83-4.13-3.24c0.07-0.16,0.13-0.33,0.18-0.5c0.51-1.58,0.38-3.26-0.37-4.74c-1.07-2.1-3.19-3.4-5.55-3.4
			c-0.97,0-1.94,0.23-2.81,0.67c-1.48,0.75-2.58,2.04-3.09,3.61c-0.49,1.51-0.39,3.13,0.28,4.56l-15.88,8.07l-15.89-8.07
			c1.41-3.02,0.17-6.65-2.82-8.17c-1.48-0.76-3.16-0.89-4.74-0.37c-1.58,0.51-2.86,1.61-3.62,3.1c-0.75,1.48-0.88,3.17-0.36,4.74
			c0.06,0.17,0.12,0.34,0.19,0.5c-1.73,0.4-3.27,1.54-4.12,3.23c-0.75,1.48-0.89,3.16-0.38,4.74c0.51,1.58,1.61,2.87,3.1,3.63
			c3,1.52,6.67,0.37,8.26-2.55l9.43,4.8l-9.43,4.79c-1.09-1.99-3.16-3.22-5.45-3.22c-0.97,0-1.94,0.23-2.81,0.67
			c-1.48,0.75-2.58,2.04-3.09,3.61c-0.51,1.58-0.38,3.26,0.37,4.74c0.85,1.67,2.36,2.83,4.13,3.24c-0.07,0.16-0.13,0.33-0.18,0.5
			c-0.51,1.58-0.38,3.26,0.37,4.74c1.07,2.1,3.19,3.4,5.55,3.4c0.97,0,1.94-0.23,2.81-0.67c1.48-0.75,2.58-2.04,3.09-3.61
			c0.49-1.51,0.39-3.13-0.28-4.56l15.89-8.07l15.88,8.07c-1.41,3.01-0.18,6.65,2.81,8.18c0.89,0.45,1.85,0.68,2.81,0.68
			c0.65,0,1.3-0.1,1.93-0.31c1.58-0.51,2.86-1.61,3.61-3.09c0.75-1.48,0.89-3.17,0.37-4.75c-0.06-0.17-0.12-0.34-0.19-0.5
			c1.72-0.41,3.27-1.54,4.13-3.23c1.56-3.05,0.34-6.8-2.73-8.36c-3-1.51-6.67-0.36-8.26,2.55l-9.44-4.79l9.43-4.79
			C228.65,141.02,230.72,142.25,233,142.25L233,142.25z M186.65,135.67c-0.41-0.21-0.88-0.21-1.3-0.01c-0.41,0.2-0.71,0.58-0.8,1.02
			c-0.07,0.36-0.16,0.62-0.27,0.84c-0.82,1.62-2.81,2.27-4.43,1.45c-0.79-0.4-1.37-1.08-1.64-1.92c-0.27-0.83-0.2-1.72,0.2-2.51
			c0.82-1.62,2.8-2.27,4.43-1.45c0.72,0.36,1.6,0.07,1.96-0.65c0.11-0.21,0.16-0.44,0.16-0.66c0-0.53-0.29-1.05-0.8-1.31
			c-0.78-0.4-1.37-1.07-1.64-1.91c-0.27-0.84-0.2-1.73,0.19-2.52c0.4-0.78,1.08-1.37,1.92-1.64c0.84-0.27,1.73-0.2,2.51,0.2
			c1.62,0.82,2.27,2.81,1.46,4.42c-0.11,0.22-0.28,0.45-0.53,0.73c-0.3,0.34-0.43,0.8-0.35,1.24c0.08,0.45,0.37,0.83,0.77,1.03
			l15.45,7.85l-4.51,2.29L186.65,135.67z M188.5,155.6c-0.41,0.21-0.69,0.59-0.78,1.04c-0.08,0.45,0.05,0.91,0.36,1.25
			c0.24,0.26,0.4,0.49,0.51,0.71c0.4,0.78,0.47,1.68,0.19,2.51c-0.27,0.84-0.86,1.52-1.64,1.92c-0.47,0.24-0.97,0.36-1.49,0.36
			c-1.25,0-2.38-0.69-2.94-1.8c-0.4-0.78-0.47-1.68-0.2-2.52c0.27-0.84,0.86-1.52,1.64-1.92c0.51-0.26,0.8-0.77,0.8-1.3
			c0-0.22-0.05-0.45-0.16-0.66c-0.37-0.72-1.25-1.01-1.96-0.64c-0.47,0.24-0.97,0.36-1.49,0.36c-1.25,0-2.38-0.69-2.94-1.8
			c-0.4-0.78-0.47-1.68-0.2-2.52c0.27-0.84,0.86-1.52,1.64-1.92c0.47-0.24,0.97-0.36,1.49-0.36c1.25,0,2.38,0.69,2.94,1.8
			c0.11,0.22,0.2,0.49,0.27,0.84c0.09,0.45,0.39,0.82,0.8,1.02c0.41,0.2,0.89,0.19,1.3-0.01l13.53-6.87
			c0.01-0.01,0.03-0.01,0.04-0.02l25.63-13.03c0.41-0.21,0.69-0.59,0.78-1.04c0.08-0.45-0.05-0.91-0.36-1.25
			c-0.24-0.26-0.4-0.49-0.51-0.71c-0.4-0.78-0.47-1.68-0.19-2.51c0.27-0.84,0.86-1.52,1.64-1.92c0.47-0.24,0.97-0.36,1.49-0.36
			c1.25,0,2.38,0.69,2.94,1.8c0.4,0.78,0.47,1.68,0.2,2.52c-0.27,0.84-0.86,1.52-1.64,1.92c-0.51,0.26-0.8,0.77-0.8,1.3
			c0,0.22,0.05,0.45,0.16,0.66c0.37,0.72,1.24,1,1.96,0.64c0.47-0.24,0.97-0.36,1.49-0.36c1.25,0,2.38,0.69,2.94,1.8
			c0.4,0.78,0.47,1.68,0.2,2.52c-0.27,0.84-0.86,1.52-1.64,1.92c-0.47,0.24-0.97,0.36-1.49,0.36c-1.25,0-2.38-0.69-2.94-1.8
			c-0.11-0.22-0.2-0.49-0.27-0.84c-0.09-0.45-0.39-0.82-0.8-1.02c-0.41-0.2-0.89-0.19-1.3,0.01L188.5,155.6z M227.7,151.96
			c0.41,0.21,0.89,0.21,1.3,0.01c0.41-0.2,0.71-0.58,0.8-1.02c0.07-0.35,0.16-0.61,0.28-0.84c0.82-1.62,2.81-2.27,4.42-1.45
			c1.62,0.83,2.27,2.82,1.45,4.43c-0.82,1.62-2.81,2.27-4.43,1.45c-0.72-0.37-1.6-0.08-1.96,0.64c-0.11,0.21-0.16,0.44-0.16,0.66
			c0,0.53,0.29,1.05,0.8,1.3c0.78,0.4,1.36,1.08,1.64,1.91c0.27,0.84,0.2,1.73-0.2,2.52c-0.4,0.78-1.08,1.36-1.91,1.64
			c-0.84,0.27-1.73,0.2-2.51-0.19c-1.62-0.83-2.27-2.82-1.45-4.43c0.12-0.24,0.29-0.47,0.51-0.71c0.31-0.34,0.45-0.8,0.37-1.25
			c-0.08-0.45-0.37-0.84-0.78-1.05l-15.45-7.85l4.49-2.28L227.7,151.96z"/>
	</g>
</g>
</svg>
