<?xml version="1.0" encoding="utf-8"?>
<!-- Generator: Adobe Illustrator 25.0.0, SVG Export Plug-In . SVG Version: 6.00 Build 0)  -->
<svg version="1.1" id="Capa_1" xmlns="http://www.w3.org/2000/svg" xmlns:xlink="http://www.w3.org/1999/xlink" x="0px" y="0px"
	 viewBox="0 0 393 268.5" style="enable-background:new 0 0 393 268.5;" xml:space="preserve">
<style type="text/css">
	.st0{fill:#FFD200;}
	.st1{fill:#816DAF;}
	.st2{fill:#4E2583;}
	.st3{opacity:0.5;}
	.st4{fill:#FFFFFF;}
	.st5{fill:#FF8A00;}
	.st6{fill:#FCFCFA;}
	.st7{opacity:0.2;}
	.st8{fill:#000072;}
	.st9{fill:#FFD200;stroke:#4E2583;stroke-width:5.6137;stroke-linecap:round;stroke-linejoin:round;stroke-miterlimit:10;}
</style>
<rect class="st0" width="393" height="268.5"/>
<g>
	<g>
		<path class="st1" d="M145.55,223.47c-4.55,0-8.95-1.9-12.39-5.34c-3.33-3.34-5.56-7.96-6.27-13.01L106.06,57.53
			c-0.11-0.79,0.13-1.6,0.65-2.2c0.53-0.6,1.29-0.95,2.09-0.95H299.4c1.35,0,2.51,0.98,2.73,2.32l23.3,140.75
			c1.17,7.08-0.73,14.37-5.09,19.5c-3.57,4.21-8.36,6.53-13.48,6.53H145.55z"/>
	</g>
	<g>
		<path class="st2" d="M299.4,57.15l23.3,140.75c1.96,11.82-5.67,22.82-15.83,22.82H145.55c-7.88,0-14.61-6.75-15.91-15.97
			L108.8,57.15h91.16H299.4 M299.4,51.61h-99.43H108.8c-1.6,0-3.13,0.69-4.18,1.9c-1.05,1.21-1.53,2.82-1.3,4.4l20.83,147.59
			c0.8,5.64,3.3,10.81,7.05,14.58c3.96,3.97,9.05,6.16,14.35,6.16h161.31c3.05,0,6-0.7,8.76-2.08c2.57-1.29,4.87-3.11,6.83-5.42
			c2.36-2.79,4.14-6.22,5.14-9.91c1.02-3.8,1.22-7.89,0.57-11.83l-23.3-140.75C304.41,53.57,302.1,51.61,299.4,51.61L299.4,51.61z"
			/>
	</g>
</g>
<g class="st3">
	<g>
		<path class="st1" d="M199.97,57.15h99.43l23.3,140.75c1.96,11.82-5.67,22.82-15.83,22.82H145.55c-7.88,0-14.61-6.75-15.91-15.97
			L108.8,57.15H199.97z"/>
	</g>
</g>
<g>
	<g>
		<path class="st4" d="M100.36,223.71c-5.19,0-10.04-2.35-13.66-6.61c-4.4-5.19-6.32-12.55-5.14-19.7l23.3-140.75
			c0.24-1.45,1.5-2.52,2.97-2.52h190.59c0.87,0,1.7,0.38,2.27,1.03c0.57,0.66,0.83,1.53,0.71,2.39l-20.83,147.59
			c-0.72,5.1-2.97,9.77-6.34,13.15c-3.48,3.49-7.94,5.41-12.55,5.41H100.36z"/>
	</g>
	<g>
		<path class="st2" d="M298.42,57.15L298.42,57.15 M298.42,57.15l-4.73,33.53l-16.1,114.06c-1.3,9.22-8.03,15.97-15.91,15.97H100.36
			c-10.16,0-17.79-11-15.83-22.82l17.75-107.21l5.55-33.53h99.43H298.42 M298.42,51.13L298.42,51.13h-91.16h-99.43
			c-2.94,0-5.45,2.13-5.93,5.03L96.34,89.7L78.6,196.91c-0.66,4.01-0.46,8.17,0.58,12.04c1.01,3.76,2.82,7.26,5.23,10.1
			c2,2.36,4.35,4.22,6.98,5.54c2.83,1.42,5.85,2.13,8.97,2.13h161.31c5.42,0,10.64-2.24,14.68-6.3c3.82-3.84,6.37-9.11,7.18-14.85
			l16.1-114.06l4.72-33.41c0.05-0.31,0.08-0.63,0.08-0.96C304.43,53.83,301.74,51.13,298.42,51.13L298.42,51.13z M298.42,63.16
			L298.42,63.16L298.42,63.16L298.42,63.16z"/>
	</g>
</g>
<g>
	<polygon class="st5" points="298.42,57.15 207.26,57.15 107.83,57.15 102.27,90.68 293.68,90.68 	"/>
</g>
<g>
	<g>
		<g>
			<path class="st6" d="M247.08,222.85c-1.18,0-2.14-0.96-2.15-2.14c-0.03-6.78,1.04-19.27,8.57-26.84
				c4.17-4.19,9.71-6.31,16.47-6.31c3,0,6.28,0.43,9.76,1.26c1.08,0.26,1.78,1.29,1.62,2.39l-0.18,1.24
				c-0.06,0.44-0.26,0.84-0.56,1.16l-26.59,28.54c-0.41,0.44-0.98,0.68-1.57,0.68H247.08z"/>
		</g>
		<g>
			<path class="st2" d="M269.96,189.72c2.75,0,5.83,0.38,9.26,1.2l-0.18,1.24l-26.59,28.54h-5.38
				C247.03,210.82,249.35,189.72,269.96,189.72 M269.96,185.42c-7.35,0-13.4,2.34-17.99,6.94c-3.62,3.64-6.21,8.61-7.71,14.8
				c-1.25,5.16-1.5,10.23-1.48,13.57c0.01,2.36,1.93,4.27,4.29,4.27h5.38c1.19,0,2.33-0.5,3.14-1.37l26.59-28.54
				c0.6-0.64,0.99-1.46,1.11-2.33l0.18-1.24c0.31-2.19-1.1-4.26-3.25-4.77C276.58,185.87,273.13,185.42,269.96,185.42L269.96,185.42
				z"/>
		</g>
	</g>
</g>
<g>
	<g>
		<g>
			<path class="st2" d="M146.71,32.97c-11.01,1.22-19.83,10.23-20.83,21.26c-0.84,9.17,3.58,17.38,10.57,21.97
				c1.97,1.3,4.64,0.48,5.52-1.71l0,0c0.68-1.68,0.02-3.55-1.49-4.55c-4.39-2.91-7.29-7.9-7.26-13.57c0.04-8.54,7-15.76,15.53-16.1
				c9.23-0.36,16.83,7.02,16.83,16.17h7.45C173.04,42.51,160.97,31.39,146.71,32.97z"/>
		</g>
	</g>
	<g>
		<g>
			<path class="st2" d="M197.65,32.97c-11.01,1.22-19.83,10.23-20.83,21.26c-0.84,9.17,3.58,17.38,10.57,21.97
				c1.97,1.3,4.64,0.48,5.52-1.71h0c0.68-1.68,0.02-3.55-1.49-4.55c-4.39-2.91-7.29-7.9-7.26-13.57c0.04-8.54,7-15.76,15.53-16.1
				c9.23-0.36,16.83,7.02,16.83,16.17h7.45C223.98,42.51,211.91,31.39,197.65,32.97z"/>
		</g>
	</g>
	<g>
		<g>
			<path class="st2" d="M259.86,32.97c-11.01,1.22-19.83,10.23-20.83,21.26c-0.84,9.17,3.58,17.38,10.57,21.97
				c1.97,1.3,4.64,0.48,5.52-1.71l0,0c0.68-1.68,0.02-3.55-1.49-4.55c-4.39-2.91-7.29-7.9-7.26-13.57c0.04-8.54,7-15.76,15.53-16.1
				c9.23-0.36,16.83,7.02,16.83,16.17h7.45C286.18,42.51,274.12,31.39,259.86,32.97z"/>
		</g>
	</g>
</g>
<g>
	<path class="st6" d="M99.98,91.56H295H99.98z"/>
	<path class="st2" d="M295,93.71H99.98c-1.19,0-2.15-0.96-2.15-2.15s0.96-2.15,2.15-2.15H295c1.19,0,2.15,0.96,2.15,2.15
		S296.19,93.71,295,93.71z"/>
</g>
<g class="st7">
	<g>
		<path class="st8" d="M267.72,188.75c0,0-6.99,27.87-23.51,33.15l10.17,2.26l26.69-31.64l0.64-3.77H267.72z"/>
	</g>
</g>
<polygon class="st9" points="187.55,109.48 202.37,139.5 235.5,144.32 211.52,167.69 217.18,200.69 187.55,185.11 157.91,200.69
	163.57,167.69 139.6,144.32 172.73,139.5 "/>
</svg>
