<?xml version="1.0" encoding="utf-8"?>
<!-- Generator: Adobe Illustrator 25.0.0, SVG Export Plug-In . SVG Version: 6.00 Build 0)  -->
<svg version="1.1" id="Capa_1" xmlns="http://www.w3.org/2000/svg" xmlns:xlink="http://www.w3.org/1999/xlink" x="0px" y="0px"
	 viewBox="0 0 393 268.5" style="enable-background:new 0 0 393 268.5;" xml:space="preserve">
<style type="text/css">
	.st0{fill:#38D430;}
	.st1{fill:#81EF31;}
	.st2{fill:#016037;}
	.st3{opacity:0.5;fill:#03814F;}
	.st4{fill:#59B7A6;}
	.st5{fill:#FFFFFF;}
</style>
<rect class="st0" width="393" height="268.5"/>
<circle class="st1" cx="203.29" cy="123.02" r="105.5"/>
<g>
	<g>
		<path class="st2" d="M199.64,256.4c0,0,9-51.76,38.21-66.78c28.26-14.54,31.35,14.05,55.57-5.37
			c24.22-19.42,49.07-43.91,68.88-13.43c21.02,32.34-62.12,26.19-65.94,60.36C292.54,265.34,260.17,250.1,199.64,256.4z"/>
		<path class="st3" d="M360.24,167.87c0.7,0.92,1.39,1.9,2.07,2.95c21.02,32.34-62.12,26.19-65.94,60.36
			c-3.79,33.89-35.67,19.16-95.27,25.08C290.99,186.02,355.36,169.08,360.24,167.87z"/>
	</g>
	<g>
		<g>
			<g>
				<path class="st4" d="M349.56,171.47c-3.25,1.1-6.46,2.36-9.66,3.61c-8.7,3.43-17.29,7.15-25.77,11.09
					c-12.68,5.87-25.13,12.22-37.35,19c-15.35,8.51-30.32,17.7-44.83,27.58c-16.5,11.23-32.4,23.35-47.5,36.4
					c-2.01,1.73-4,3.49-5.98,5.25c-0.27,0.24,0.98,0.1,1.22-0.11c15.13-13.5,31.09-26.05,47.71-37.67
					c14.57-10.18,29.63-19.66,45.09-28.44c12.58-7.15,25.42-13.83,38.5-20.02c8.96-4.23,18.02-8.25,27.22-11.93
					c3.85-1.55,7.8-2.86,11.65-4.41c0.05-0.02,0.1-0.03,0.15-0.05C350.94,171.44,350.07,171.29,349.56,171.47L349.56,171.47z"/>
			</g>
		</g>
		<g>
			<g>
				<path class="st4" d="M347.67,186.73c-7.97-1.01-15.95-2.02-23.92-3.03c-1.13-0.14-2.25-0.29-3.38-0.43
					c0.07,0.12,0.14,0.23,0.21,0.35c3.18-5.86,6.35-11.72,9.53-17.58c0.45-0.84,0.91-1.67,1.36-2.51c0.29-0.53-1.06-0.36-1.25,0
					c-3.18,5.86-6.35,11.72-9.53,17.58c-0.45,0.84-0.91,1.67-1.36,2.51c-0.1,0.19,0,0.32,0.21,0.35c7.97,1.01,15.95,2.02,23.92,3.03
					c1.13,0.14,2.25,0.29,3.38,0.43C347.22,187.47,348.41,186.82,347.67,186.73L347.67,186.73z"/>
			</g>
		</g>
		<g>
			<g>
				<path class="st4" d="M286.22,231.03c-4.37-0.89-8.8-1.53-13.22-2.08c-8.33-1.03-16.81-1.69-25.2-1.02
					c-4.12,0.33-8.33,0.99-12.13,2.68c0.27,0.14,0.54,0.27,0.82,0.41c6.26-6.59,11.45-14.69,14.96-23.04
					c1.61-3.83,2.83-7.82,3.46-11.93c0.08-0.54-1.28-0.31-1.36,0.16c-1.85,12.03-8.48,23.16-16.22,32.37
					c-0.63,0.75-1.26,1.49-1.94,2.2c-0.5,0.53,0.51,0.54,0.82,0.41c3.31-1.48,6.96-2.07,10.54-2.41c4.21-0.4,8.46-0.38,12.69-0.18
					c7.21,0.33,14.41,1.19,21.53,2.38c1.48,0.25,2.96,0.5,4.43,0.8C285.84,231.88,286.99,231.19,286.22,231.03L286.22,231.03z"/>
			</g>
		</g>
	</g>
</g>
<g>
	<g>
		<path class="st2" d="M200.73,255.09c0,0-10.2-51.54-39.75-65.88c-28.59-13.88-31.01,14.78-55.68-4.08
			c-24.67-18.85-50.08-42.76-69.18-11.82c-20.27,32.82,62.71,24.75,67.33,58.81C108.06,266.18,140.07,250.19,200.73,255.09z"/>
		<path class="st3" d="M38.12,170.31c-0.67,0.94-1.34,1.93-2,3c-20.27,32.82,62.71,24.75,67.33,58.81
			c4.58,33.79,36.11,18.33,95.83,22.86C107.77,186.85,43.02,171.41,38.12,170.31z"/>
	</g>
	<g>
		<g>
			<g>
				<path class="st4" d="M48.25,174.23c3.22,1.01,6.4,2.16,9.57,3.33c8.71,3.19,17.3,6.69,25.8,10.39
					c12.84,5.58,25.46,11.66,37.86,18.16c15.52,8.15,30.68,16.98,45.4,26.51c16.76,10.85,32.93,22.6,48.33,35.31
					c2,1.65,3.98,3.31,5.95,4.99c0.42,0.36,1.62-0.26,1.05-0.74c-15.44-13.15-31.7-25.33-48.59-36.56
					c-14.88-9.9-30.25-19.08-46-27.54c-12.72-6.83-25.68-13.2-38.87-19.07c-9.11-4.06-18.33-7.88-27.68-11.38
					c-2.71-1.02-5.43-2-8.17-2.95c-1.21-0.42-2.46-0.97-3.71-1.24c-0.05-0.01-0.1-0.03-0.15-0.05
					C48.51,173.21,47.45,173.98,48.25,174.23L48.25,174.23z"/>
			</g>
		</g>
		<g>
			<g>
				<path class="st4" d="M51.42,189.45c7.95-1.19,15.9-2.39,23.84-3.58c1.12-0.17,2.25-0.34,3.37-0.51c0.06-0.01,0.92-0.23,0.8-0.43
					c-3.31-5.78-6.62-11.57-9.93-17.35c-0.47-0.83-0.95-1.65-1.42-2.48c-0.19-0.33-1.46,0.18-1.35,0.36
					c3.31,5.78,6.62,11.57,9.93,17.35c0.47,0.83,0.95,1.65,1.42,2.48c0.27-0.14,0.54-0.28,0.8-0.43c-7.95,1.19-15.9,2.39-23.84,3.58
					c-1.12,0.17-2.25,0.34-3.37,0.51C51.14,189.04,50.47,189.59,51.42,189.45L51.42,189.45z"/>
			</g>
		</g>
		<g>
			<g>
				<path class="st4" d="M114.12,232.57c4.12-0.93,8.29-1.65,12.46-2.27c8.16-1.22,16.5-2.11,24.76-1.69
					c4.09,0.21,8.3,0.7,12.11,2.3c0.34,0.14,1.47-0.29,1.01-0.75c-6.37-6.4-11.76-14.38-15.41-22.62c-1.64-3.72-2.91-7.59-3.62-11.6
					c-0.11-0.63-1.47-0.28-1.35,0.36c2.14,12.06,9.1,23.15,17.1,32.23c0.67,0.76,1.34,1.51,2.05,2.22c0.34-0.25,0.67-0.5,1.01-0.75
					c-7.19-3.01-15.76-2.72-23.38-2.24c-7.52,0.48-15,1.55-22.39,2.95c-1.53,0.29-3.06,0.59-4.58,0.94
					C113.03,231.83,113.28,232.76,114.12,232.57L114.12,232.57z"/>
			</g>
		</g>
	</g>
</g>
<g>
	<g>
		<path class="st5" d="M21.48,153.03v-42.94c0-0.25,0.09-0.48,0.29-0.68c0.19-0.2,0.41-0.3,0.67-0.3h17.16c4.99,0,9,1.34,12.05,4.03
			c3.04,2.69,4.57,6.24,4.57,10.66c0,2.62-0.72,5.09-2.17,7.4c-1.45,2.31-3.38,3.98-5.79,5.01l10.32,16.69
			c0.15,0.28,0.14,0.52-0.02,0.73c-0.16,0.21-0.39,0.32-0.68,0.32H43.91c-0.68,0-1.18-0.35-1.5-1.05l-6.78-14.16h-0.76v14.28
			c0,0.23-0.11,0.44-0.32,0.63c-0.21,0.19-0.45,0.29-0.73,0.29h-11.4c-0.25,0-0.47-0.1-0.66-0.29S21.48,153.26,21.48,153.03z
			 M34.87,127.7h3.82c1.13,0,2.03-0.32,2.71-0.95c0.68-0.63,1.02-1.47,1.02-2.51c0-1.04-0.34-1.87-1.02-2.49
			c-0.68-0.62-1.58-0.94-2.71-0.94h-3.82V127.7z"/>
		<path class="st5" d="M67.43,152.96v-42.94c0-0.61,0.3-0.92,0.89-0.92H97.9c0.27,0,0.52,0.1,0.73,0.29
			c0.21,0.19,0.32,0.4,0.32,0.63v9.81c0,0.28-0.1,0.51-0.3,0.7s-0.45,0.29-0.74,0.29H81.01v5.11h13.77c0.27,0,0.49,0.09,0.65,0.27
			c0.16,0.18,0.22,0.38,0.17,0.59l-0.89,9.11c-0.04,0.21-0.17,0.4-0.38,0.57c-0.21,0.17-0.46,0.25-0.73,0.25h-12.6v5.52h17.68
			c0.25,0,0.47,0.08,0.66,0.25s0.28,0.37,0.28,0.6v9.93c0,0.23-0.09,0.44-0.29,0.63s-0.41,0.29-0.67,0.29H68.44
			c-0.21,0-0.42-0.11-0.62-0.32C67.62,153.42,67.49,153.2,67.43,152.96z"/>
		<path class="st5" d="M109.79,153.03v-42.94c0-0.25,0.09-0.48,0.28-0.68c0.19-0.2,0.41-0.3,0.66-0.3h11.47
			c0.25,0,0.48,0.1,0.68,0.3c0.2,0.2,0.3,0.43,0.3,0.68v32.15h12.15c0.23,0,0.43,0.09,0.59,0.27c0.16,0.18,0.24,0.4,0.24,0.65
			l-0.89,9.87c-0.04,0.23-0.16,0.44-0.36,0.63c-0.2,0.19-0.43,0.29-0.68,0.29h-23.49c-0.25,0-0.48-0.1-0.67-0.29
			C109.89,153.47,109.79,153.26,109.79,153.03z"/>
		<path class="st5" d="M142,153.09l14.69-43.13c0.11-0.21,0.32-0.41,0.63-0.59s0.62-0.27,0.92-0.27h13.27c0.3,0,0.6,0.09,0.92,0.27
			s0.53,0.38,0.63,0.59l14.69,43.13c0.11,0.19,0.1,0.38-0.02,0.57s-0.3,0.29-0.55,0.29h-12.89c-0.61,0-1.07-0.29-1.36-0.86
			l-1.94-6.82h-12.22l-1.97,6.82c-0.3,0.57-0.75,0.86-1.36,0.86H142.6c-0.25,0-0.44-0.1-0.57-0.29S141.89,153.28,142,153.09z
			 M161.39,136.97h7.01l-3.52-12.35L161.39,136.97z"/>
		<path class="st5" d="M194.27,150.43l3.17-9c0.08-0.28,0.26-0.43,0.52-0.47c0.26-0.03,0.5,0.04,0.71,0.2
			c1.35,1.07,2.98,1.61,4.89,1.61c1.23,0,2.23-0.38,3-1.15s1.22-1.8,1.35-3.11v-28.44c0-0.29,0.09-0.53,0.27-0.71
			c0.18-0.18,0.42-0.27,0.71-0.27h11.43c0.3,0,0.52,0.09,0.68,0.28c0.16,0.19,0.2,0.42,0.11,0.69v29.96c0,4.68-1.38,8.33-4.13,10.95
			c-2.75,2.62-6.56,3.94-11.43,3.94c-2.07,0-4.1-0.31-6.09-0.92c-1.99-0.61-3.58-1.41-4.76-2.4
			C194.29,151.26,194.14,150.86,194.27,150.43z"/>
		<path class="st5" d="M226.09,153.09l14.69-43.13c0.11-0.21,0.32-0.41,0.63-0.59s0.62-0.27,0.92-0.27h13.27
			c0.3,0,0.6,0.09,0.92,0.27s0.53,0.38,0.63,0.59l14.69,43.13c0.11,0.19,0.1,0.38-0.02,0.57s-0.3,0.29-0.55,0.29H258.4
			c-0.61,0-1.07-0.29-1.36-0.86l-1.94-6.82h-12.22l-1.97,6.82c-0.3,0.57-0.75,0.86-1.36,0.86H226.7c-0.25,0-0.44-0.1-0.57-0.29
			S225.99,153.28,226.09,153.09z M245.49,136.97h7.01l-3.52-12.35L245.49,136.97z"/>
		<path class="st5" d="M279.66,152.96v-42.88c0-0.25,0.09-0.48,0.27-0.68c0.18-0.2,0.39-0.3,0.62-0.3h15.11
			c6.9,0,12.44,2.05,16.63,6.14c4.19,4.09,6.28,9.52,6.28,16.27c0,6.71-2.1,12.12-6.3,16.25c-4.2,4.13-9.74,6.19-16.62,6.19h-15.11
			c-0.23,0-0.44-0.1-0.62-0.3C279.75,153.45,279.66,153.22,279.66,152.96z M293.06,142.24h3.36c2.52,0,4.54-0.98,6.08-2.95
			c1.53-1.97,2.3-4.56,2.3-7.78c0-3.22-0.77-5.8-2.3-7.76c-1.53-1.96-3.56-2.94-6.08-2.94h-3.36V142.24z"/>
		<path class="st5" d="M334.39,114.48c4.22-4.28,9.8-6.43,16.73-6.43c6.93,0,12.51,2.14,16.74,6.43c4.23,4.28,6.35,9.94,6.35,16.97
			c0,4.63-0.96,8.71-2.87,12.25c-1.92,3.54-4.62,6.29-8.11,8.24c-3.49,1.95-7.53,2.93-12.11,2.93c-4.58,0-8.61-0.98-12.1-2.93
			c-3.49-1.95-6.18-4.7-8.09-8.24c-1.91-3.54-2.87-7.63-2.87-12.25C328.06,124.42,330.17,118.76,334.39,114.48z M351.11,142.17
			c2.67,0,4.83-0.99,6.47-2.96c1.64-1.98,2.46-4.56,2.46-7.77s-0.82-5.79-2.46-7.75c-1.64-1.96-3.8-2.95-6.47-2.95
			c-2.67,0-4.82,0.98-6.45,2.95c-1.63,1.96-2.45,4.55-2.45,7.75s0.82,5.79,2.45,7.77C346.29,141.19,348.44,142.17,351.11,142.17z"/>
	</g>
</g>
</svg>
