<?xml version="1.0" encoding="utf-8"?>
<!-- Generator: Adobe Illustrator 25.0.0, SVG Export Plug-In . SVG Version: 6.00 Build 0)  -->
<svg version="1.1" id="Capa_1" xmlns="http://www.w3.org/2000/svg" xmlns:xlink="http://www.w3.org/1999/xlink" x="0px" y="0px"
	 viewBox="0 0 393 268.5" style="enable-background:new 0 0 393 268.5;" xml:space="preserve">
<style type="text/css">
	.st0{fill:#FFD200;}
	.st1{fill:#CCD1DC;}
	.st2{fill:#FFFFFF;}
	.st3{fill:#8C80B2;}
	.st4{fill:#816DAF;}
	.st5{fill:#5C5F7D;}
	.st6{fill:#4E2583;}
</style>
<rect class="st0" width="393" height="268.5"/>
<g>
	<path class="st1" d="M287.21,135.31c0,20.89-7.06,40.13-18.91,55.45c-10.21,13.18-23.96,23.46-39.82,29.44
		c-9.94,3.74-20.7,5.79-31.95,5.79c-11.25,0-22.01-2.05-31.95-5.79c-15.86-5.98-29.61-16.26-39.82-29.44
		c-11.85-15.32-18.91-34.55-18.91-55.45c0-0.39,0-0.77,0.02-1.14c0.21-17.61,5.44-34.01,14.32-47.85
		c11.77-18.29,29.94-32.08,51.34-38.2c7.95-2.28,16.34-3.49,25-3.49c8.66,0,17.05,1.22,25,3.49c21.4,6.12,39.57,19.91,51.34,38.2
		c8.87,13.83,14.1,30.23,14.32,47.85C287.21,134.54,287.21,134.92,287.21,135.31z"/>
	<path class="st2" d="M285.28,127.59c0,19.12-6.91,36.71-18.5,50.72c-0.66,0.81-1.35,1.6-2.03,2.37
		c-9.76,10.92-22.46,19.47-36.95,24.58c-2.01,0.69-4.05,1.33-6.12,1.91c-7.97,2.2-16.42,3.38-25.16,3.38
		c-8.74,0-17.19-1.18-25.16-3.38c-2.06-0.58-4.11-1.22-6.12-1.91c-14.49-5.11-27.18-13.66-36.93-24.58
		c-0.69-0.77-1.39-1.56-2.05-2.37c-11.6-14.01-18.5-31.6-18.5-50.72c0-0.35,0-0.71,0.02-1.04c0.21-16.11,5.32-31.12,14.01-43.78
		c11.52-16.73,29.31-29.34,50.26-34.94c7.77-2.08,15.99-3.2,24.46-3.2c8.47,0,16.69,1.12,24.46,3.2
		c20.95,5.59,38.74,18.21,50.26,34.94c8.68,12.66,13.79,27.67,14.01,43.78C285.28,126.88,285.28,127.25,285.28,127.59z"/>
	<polygon class="st3" points="224.62,130.04 213.9,163.07 179.17,163.07 168.44,130.04 171.89,127.54 196.53,109.63 221.17,127.54 	
		"/>
	<path class="st4" d="M221.17,127.54l-4.06,12.52c-2.89,8.92-11.2,14.96-20.58,14.96h0c-9.37,0-17.68-6.04-20.58-14.96l-4.06-12.52
		l24.64-17.9L221.17,127.54z"/>
	<path class="st3" d="M224.62,57.62l-28.09,20.41l-28.09-20.41l3.09-9.49c7.95-2.28,16.34-3.49,25-3.49c8.66,0,17.05,1.22,25,3.49
		L224.62,57.62z"/>
	<path class="st4" d="M224.62,57.62l-28.09,20.41l-28.09-20.41l1-3.11c1.74-0.56,3.49-1.04,5.27-1.49c6.95-1.7,14.26-2.6,21.82-2.6
		s14.87,0.91,21.82,2.6c1.77,0.44,3.53,0.93,5.27,1.49L224.62,57.62z"/>
	<g>
		<path class="st3" d="M287.19,134.17l-7.7,5.59l-28.09-20.41l10.73-33.03h10.75C281.75,100.16,286.98,116.56,287.19,134.17z"/>
		<path class="st3" d="M141.66,119.36l-28.09,20.41l-7.7-5.59c0.21-17.61,5.44-34.01,14.32-47.85h10.75L141.66,119.36z"/>
	</g>
	<g>
		<path class="st4" d="M275.63,117.95c0,5.92-0.89,11.67-2.57,17.15l-21.67-15.74l10.73-33.03h4.3c5.73,9.2,9.03,19.66,9.18,30.77
			C275.63,117.37,275.63,117.66,275.63,117.95z"/>
		<path class="st4" d="M141.66,119.36L120,135.1c-1.68-5.48-2.57-11.23-2.57-17.15c0-0.29,0-0.58,0.02-0.85
			c0.15-11.11,3.45-21.57,9.18-30.77h4.3L141.66,119.36z"/>
	</g>
	<path class="st5" d="M268.3,190.76c-10.21,13.18-23.96,23.46-39.82,29.44l-8.91-6.48l10.73-33.03h34.73L268.3,190.76z"/>
	<path class="st5" d="M173.5,213.72l-8.91,6.48c-15.86-5.98-29.61-16.26-39.82-29.44l3.28-10.07h34.73L173.5,213.72z"/>
	<path class="st3" d="M268.3,190.76c-10.21,13.18-23.96,23.46-39.82,29.44l-8.91-6.48l2.12-6.54c2.06-0.58,4.11-1.22,6.12-1.91
		c14.49-5.11,27.18-13.66,36.95-24.58h0.27L268.3,190.76z"/>
	<path class="st4" d="M264.75,180.69c-9.76,10.92-22.46,19.47-36.95,24.58c-2.01,0.69-4.05,1.33-6.12,1.91l8.6-26.49H264.75z"/>
	<path class="st3" d="M173.5,213.64l-8.91,6.48c-15.86-5.98-29.61-16.26-39.82-29.44l3.28-10.07h0.29
		c9.74,10.92,22.44,19.47,36.93,24.58c2.01,0.69,4.05,1.33,6.12,1.91L173.5,213.64z"/>
	<path class="st4" d="M171.37,207.18c-2.06-0.58-4.11-1.22-6.12-1.91c-14.49-5.11-27.18-13.66-36.93-24.58h34.44L171.37,207.18z"/>
	<path class="st6" d="M289.12,134.15c-0.04-3.26-0.25-6.5-0.63-9.72c-1.63-13.92-6.39-27.3-14-39.15c0,0,0,0,0,0
		c-12.22-18.98-30.83-32.84-52.43-39.01c-8.26-2.37-16.9-3.55-25.53-3.55c-4.32,0-8.64,0.3-12.91,0.89
		c-4.27,0.59-8.5,1.48-12.63,2.66c0,0,0,0,0,0c-21.59,6.17-40.21,20.03-52.43,39.01c-8.78,13.69-13.77,29.41-14.52,45.6
		c-0.05,1.09-0.08,2.17-0.1,3.27c0,0,0,0.01,0,0.01c-0.02,0.37-0.02,0.76-0.02,1.15c0,20.71,6.68,40.29,19.31,56.63
		c2.64,3.4,5.49,6.6,8.54,9.59c9.16,8.95,20.08,15.93,32.12,20.48c10.41,3.92,21.39,5.91,32.63,5.91c11.24,0,22.22-1.99,32.63-5.91
		c6.02-2.27,11.76-5.15,17.14-8.58c3.97-2.53,7.71-5.39,11.26-8.5c4.46-3.92,8.59-8.24,12.27-12.98
		c12.63-16.34,19.31-35.92,19.31-56.63C289.14,134.89,289.14,134.47,289.12,134.15z M268.98,186.61l-2.12-6.52
		c-0.26-0.79-1-1.33-1.83-1.33h-33.88l-15.06-16.17l10.1-31.09l24.95-9.95l27.23,19.79c0.34,0.25,0.74,0.37,1.13,0.37
		c0.4,0,0.8-0.12,1.13-0.37l4.6-3.34C284.71,155.61,279.14,172.3,268.98,186.61z M262.58,194.59c-0.81,0.9-1.66,1.76-2.51,2.62
		c-0.56,0.57-1.09,1.16-1.67,1.72c-0.96,0.93-1.96,1.81-2.96,2.7c-0.5,0.44-0.97,0.91-1.48,1.34c-1.52,1.29-3.09,2.54-4.69,3.72
		c-0.08,0.06-0.16,0.11-0.24,0.17c-1.53,1.12-3.1,2.2-4.7,3.23c-0.57,0.37-1.17,0.69-1.75,1.04c-1.13,0.69-2.25,1.38-3.41,2.01
		c-0.71,0.39-1.44,0.73-2.15,1.1c-1.06,0.55-2.12,1.1-3.21,1.61c-0.78,0.36-1.58,0.68-2.36,1.02c-0.9,0.39-1.8,0.78-2.72,1.13
		l-6.9-5.02l9.86-30.36h31.92l2.52,7.73c-0.62,0.78-1.26,1.54-1.91,2.29C263.68,193.29,263.15,193.96,262.58,194.59z M164.32,218
		c-0.9-0.35-1.79-0.74-2.68-1.12c-0.8-0.34-1.61-0.66-2.4-1.03c-1.08-0.5-2.13-1.05-3.19-1.6c-0.72-0.37-1.46-0.72-2.17-1.11
		c-1.15-0.63-2.27-1.32-3.39-2c-0.59-0.36-1.19-0.68-1.77-1.05c-1.59-1.02-3.14-2.09-4.66-3.21c-0.09-0.07-0.18-0.12-0.27-0.19
		c-1.6-1.19-3.17-2.43-4.69-3.72c-0.5-0.43-0.97-0.89-1.47-1.33c-1-0.89-2.01-1.78-2.97-2.71c-0.57-0.55-1.1-1.14-1.66-1.71
		c-0.85-0.87-1.7-1.73-2.51-2.63c-0.57-0.63-1.1-1.3-1.65-1.95c-0.64-0.76-1.29-1.52-1.91-2.3l2.52-7.73h31.92l9.86,30.36
		L164.32,218z M161.92,178.76h-33.88c-0.84,0-1.58,0.54-1.83,1.33l-2.12,6.52c-10.16-14.31-15.73-31-16.25-48.62l4.6,3.34
		c0.34,0.25,0.74,0.37,1.13,0.37c0.4,0,0.8-0.12,1.13-0.37l27.23-19.79l24.95,9.95l10.1,31.09L161.92,178.76z M107.99,130.14
		c0.05-0.84,0.07-1.68,0.14-2.51c0.11-1.26,0.28-2.5,0.44-3.75c0.1-0.76,0.17-1.53,0.28-2.28c0.22-1.39,0.5-2.77,0.78-4.15
		c0.12-0.6,0.21-1.21,0.35-1.81c0.44-1.97,0.95-3.92,1.53-5.85c0.05-0.17,0.12-0.34,0.17-0.51c0.54-1.75,1.11-3.49,1.76-5.21
		c0.25-0.66,0.54-1.3,0.81-1.96c0.49-1.21,0.97-2.43,1.51-3.62c0.34-0.75,0.73-1.48,1.09-2.22c0.53-1.07,1.04-2.15,1.61-3.21
		c0.42-0.77,0.88-1.51,1.31-2.27c0.49-0.85,0.98-1.7,1.5-2.53h8.25l9.86,30.36l-25.82,18.76l-5.72-4.16
		C107.87,132.19,107.94,131.16,107.99,130.14z M180.57,161.14l-9.86-30.36l25.67-18.65c0.05,0,0.1,0.03,0.16,0.03
		s0.1-0.03,0.16-0.03l25.67,18.65l-9.86,30.36H180.57z M173.03,49.74c0.91-0.25,1.83-0.46,2.75-0.68c0.9-0.21,1.79-0.45,2.69-0.64
		c0.91-0.19,1.83-0.32,2.75-0.48c1.1-0.19,2.21-0.4,3.32-0.55c0.52-0.07,1.05-0.1,1.57-0.16c6.91-0.8,13.92-0.8,20.83,0
		c0.52,0.06,1.05,0.09,1.57,0.16c1.11,0.15,2.22,0.36,3.32,0.55c0.92,0.16,1.84,0.29,2.75,0.48c0.91,0.19,1.8,0.43,2.71,0.64
		c0.91,0.22,1.83,0.43,2.74,0.68l2.32,7.14l-25.82,18.76l-25.82-18.76L173.03,49.74z M271.78,88.26c0.53,0.85,1.03,1.71,1.53,2.58
		c0.43,0.74,0.88,1.46,1.28,2.21c0.59,1.09,1.12,2.2,1.66,3.31c0.34,0.7,0.71,1.4,1.04,2.11c0.59,1.29,1.11,2.6,1.63,3.92
		c0.22,0.56,0.47,1.1,0.68,1.66c1.42,3.8,2.59,7.69,3.48,11.65c0.07,0.33,0.12,0.66,0.19,0.99c0.35,1.65,0.68,3.31,0.94,4.98
		c0.09,0.59,0.14,1.19,0.22,1.78c0.19,1.41,0.37,2.82,0.5,4.24c0.07,0.79,0.09,1.59,0.14,2.39c0.06,1.05,0.12,2.09,0.15,3.14
		l-5.72,4.16l-25.82-18.76l9.86-30.36H271.78z M269.24,84.4h-7.11c-0.84,0-1.58,0.54-1.84,1.33l-10.45,32.17l-24.94,9.95
		l-26.44-19.21V79.01l27.3-19.83c0.68-0.49,0.96-1.36,0.7-2.16l-1.93-5.95C242.59,57.06,258.26,68.74,269.24,84.4z M168.54,51.07
		l-1.93,5.95c-0.26,0.79,0.02,1.67,0.7,2.16l27.3,19.83v29.63l-26.44,19.21l-24.94-9.95l-10.45-32.17c-0.26-0.8-1-1.33-1.84-1.33
		h-7.11C134.81,68.74,150.48,57.06,168.54,51.07z M168.69,219.6l5.94-4.32c0.68-0.49,0.96-1.36,0.7-2.16l-10.38-31.95L180.01,165
		h33.05l15.05,16.17l-10.38,31.95c-0.26,0.8,0.02,1.67,0.7,2.16l5.94,4.32c-8.95,2.96-18.29,4.46-27.84,4.46
		C186.99,224.06,177.64,222.55,168.69,219.6z"/>
</g>
</svg>
