<?xml version="1.0" encoding="utf-8"?>
<!-- Generator: Adobe Illustrator 25.4.1, SVG Export Plug-In . SVG Version: 6.00 Build 0)  -->
<svg version="1.1" id="Capa_1" xmlns="http://www.w3.org/2000/svg" xmlns:xlink="http://www.w3.org/1999/xlink" x="0px" y="0px"
	 viewBox="0 0 393 268.5" style="enable-background:new 0 0 393 268.5;" xml:space="preserve">
<style type="text/css">
	.st0{fill:#FFD200;}
	.st1{clip-path:url(#SVGID_00000059296763386921333120000005444355611404595884_);}
	.st2{fill:#FFE700;}
	.st3{fill:#FFB900;}
	.st4{fill:#FFFFFF;}
	.st5{fill:#4E2583;}
</style>
<rect class="st0" width="393" height="268.5"/>
<g>
	<defs>
		<rect id="SVGID_1_" width="393" height="268.5"/>
	</defs>
	<clipPath id="SVGID_00000006697145300391481460000004468160458413253267_">
		<use xlink:href="#SVGID_1_"  style="overflow:visible;"/>
	</clipPath>
	<g style="clip-path:url(#SVGID_00000006697145300391481460000004468160458413253267_);">
		<g>
			<g>
				<path class="st2" d="M-5.98,61.79c0-8.87,0-13.31,0-22.18c0-0.13,0.07-0.25,0.21-0.36c0.14-0.11,0.3-0.17,0.48-0.18
					c3.75-0.17,5.63-0.3,9.38-0.62c0.21-0.02,0.39,0.02,0.54,0.12c0.15,0.09,0.22,0.21,0.22,0.35c0,3.64,0,5.47,0,9.11
					c2.81-0.15,4.22-0.25,7.03-0.47c0-3.74,0-5.6,0-9.34c0-0.14,0.06-0.27,0.2-0.4c0.13-0.13,0.29-0.2,0.49-0.22
					c3.75-0.44,5.63-0.69,9.38-1.25c0.21-0.03,0.39,0,0.54,0.09c0.15,0.09,0.22,0.21,0.22,0.36c0,9.83,0,14.74,0,24.57
					c0,0.13-0.07,0.26-0.22,0.38c-0.15,0.12-0.33,0.18-0.54,0.2c-3.75,0.23-5.63,0.32-9.38,0.44c-0.2,0.01-0.36-0.04-0.49-0.14
					c-0.13-0.1-0.2-0.21-0.2-0.34c0-3.15,0-4.73,0-7.88c-2.81,0.16-4.22,0.23-7.03,0.31c0,3.07,0,4.61,0,7.68
					c0,0.12-0.07,0.24-0.22,0.34c-0.15,0.1-0.33,0.15-0.54,0.15c-3.75,0-5.63-0.04-9.38-0.19c-0.16-0.01-0.32-0.06-0.46-0.17
					C-5.91,62.02-5.98,61.91-5.98,61.79z"/>
				<path class="st2" d="M23.68,61.32c3.93-8.82,7.71-17.73,11.34-26.68c0.08-0.14,0.24-0.29,0.49-0.44
					c0.24-0.15,0.48-0.25,0.71-0.3c4.09-0.78,6.14-1.19,10.23-2.07c0.23-0.05,0.47-0.04,0.71,0.02c0.24,0.06,0.41,0.15,0.49,0.26
					c4.54,9.73,6.8,14.76,11.34,25.16c0.08,0.11,0.08,0.23-0.01,0.37c-0.09,0.14-0.23,0.22-0.43,0.25
					c-3.98,0.59-5.97,0.87-9.94,1.39c-0.47,0.06-0.82-0.07-1.05-0.4c-0.6-1.62-0.9-2.42-1.49-4.02c-3.77,0.53-5.66,0.78-9.43,1.23
					c-0.61,1.71-0.91,2.56-1.52,4.25c-0.23,0.36-0.58,0.57-1.05,0.62c-3.97,0.39-5.95,0.56-9.92,0.83c-0.2,0.01-0.34-0.03-0.44-0.13
					S23.59,61.43,23.68,61.32z M38.64,50.24c2.16-0.31,3.25-0.47,5.41-0.8c-1.09-2.86-1.63-4.28-2.72-7.1
					C40.25,45.52,39.71,47.1,38.64,50.24z"/>
				<path class="st2" d="M59.99,57.08c0-11.07,0-16.6,0-27.67c0-0.16,0.07-0.33,0.21-0.49c0.14-0.16,0.3-0.27,0.48-0.31
					c3.75-0.89,5.63-1.35,9.38-2.29c0.21-0.05,0.39-0.03,0.54,0.07c0.15,0.1,0.22,0.23,0.22,0.4c0,4.51,0,6.77,0,11.28
					c2.81-0.61,4.22-0.91,7.03-1.54c0-4.6,0-6.91,0-11.51c0-0.17,0.06-0.34,0.2-0.51c0.13-0.17,0.29-0.28,0.49-0.33
					c3.75-0.96,5.63-1.45,9.38-2.43c0.21-0.06,0.39-0.03,0.54,0.07c0.15,0.1,0.22,0.24,0.22,0.42c0,10.02,0,20.04,0,30.06
					c0,0.16-0.07,0.32-0.22,0.48c-0.15,0.16-0.33,0.26-0.54,0.29c-3.75,0.65-5.63,0.98-9.38,1.61c-0.2,0.03-0.36,0-0.49-0.11
					c-0.13-0.11-0.2-0.24-0.2-0.39c0-3.88,0-5.83,0-9.71c-2.81,0.56-4.22,0.84-7.03,1.38c0,3.81,0,5.71,0,9.51
					c0,0.15-0.07,0.3-0.22,0.45c-0.15,0.15-0.33,0.24-0.54,0.27c-3.75,0.61-5.63,0.91-9.38,1.48c-0.16,0.02-0.32-0.01-0.46-0.11
					C60.06,57.35,59.99,57.23,59.99,57.08z"/>
				<path class="st2" d="M89.64,52.17c3.88-11.04,7.65-22.11,11.34-33.21c0.08-0.17,0.24-0.36,0.49-0.55
					c0.24-0.19,0.48-0.32,0.71-0.38c4.09-1.06,6.14-1.59,10.23-2.62c0.23-0.06,0.47-0.05,0.71,0.02c0.24,0.07,0.41,0.18,0.49,0.32
					c3.9,10.11,7.63,20.29,11.34,30.48c0.08,0.13,0.08,0.28-0.01,0.44c-0.09,0.16-0.23,0.26-0.43,0.29
					c-3.98,0.6-5.97,0.92-9.94,1.57c-0.47,0.08-0.82-0.08-1.05-0.47c-0.6-1.94-0.9-2.91-1.49-4.84c-3.77,0.68-5.66,1.03-9.43,1.73
					c-0.61,2.1-0.91,3.14-1.52,5.22c-0.23,0.45-0.58,0.72-1.05,0.8c-3.97,0.69-5.95,1.03-9.92,1.72c-0.2,0.03-0.34-0.01-0.44-0.12
					C89.57,52.45,89.56,52.31,89.64,52.17z M104.6,37.77c2.16-0.44,3.25-0.66,5.41-1.09c-1.09-3.44-1.63-5.15-2.72-8.54
					C106.22,32.01,105.68,33.94,104.6,37.77z"/>
				<path class="st2" d="M125.96,46.02c0-11.06,0-22.11,0-33.17c0-0.2,0.07-0.39,0.21-0.58c0.14-0.19,0.3-0.3,0.48-0.35
					c3.75-0.88,5.63-1.31,9.38-2.13c0.21-0.05,0.39-0.01,0.54,0.12c0.15,0.13,0.22,0.29,0.22,0.49c0,5.38,0,8.07,0,13.45
					c2.81-0.51,4.22-0.76,7.03-1.23c0-5.47,0-8.21,0-13.68c0-0.2,0.06-0.4,0.2-0.59c0.13-0.19,0.29-0.3,0.49-0.34
					c3.75-0.75,5.63-1.11,9.38-1.77c0.21-0.04,0.39,0.01,0.54,0.16c0.15,0.14,0.22,0.32,0.22,0.53c0,11.85,0,23.7,0,35.56
					c0,0.19-0.07,0.37-0.22,0.54c-0.15,0.17-0.33,0.27-0.54,0.28c-3.75,0.34-5.63,0.53-9.38,0.95c-0.2,0.02-0.36-0.04-0.49-0.17
					c-0.13-0.14-0.2-0.3-0.2-0.48c0-4.62,0-6.92,0-11.54c-2.81,0.41-4.22,0.62-7.03,1.07c0,4.54,0,6.81,0,11.34
					c0,0.18-0.07,0.36-0.22,0.52c-0.15,0.17-0.33,0.27-0.54,0.29c-3.75,0.49-5.63,0.76-9.38,1.31c-0.16,0.02-0.32-0.03-0.46-0.15
					C126.03,46.35,125.96,46.2,125.96,46.02z"/>
				<path class="st2" d="M155.61,42.46c3.85-12.49,7.63-25,11.34-37.53c0.08-0.19,0.24-0.38,0.49-0.57c0.24-0.19,0.48-0.3,0.71-0.33
					c4.09-0.54,6.14-0.78,10.23-1.17c0.23-0.02,0.47,0.03,0.71,0.17c0.24,0.13,0.41,0.29,0.49,0.47c3.89,12.63,7.67,25.3,11.34,38
					c0.08,0.17,0.08,0.35-0.01,0.51c-0.09,0.17-0.23,0.25-0.43,0.24c-3.98-0.16-5.97-0.2-9.94-0.2c-0.47,0-0.82-0.25-1.05-0.75
					c-0.6-2.39-0.9-3.58-1.49-5.95c-3.77,0.09-5.66,0.18-9.43,0.4c-0.61,2.37-0.91,3.55-1.52,5.91c-0.23,0.5-0.58,0.76-1.05,0.78
					c-3.97,0.21-5.95,0.35-9.92,0.68c-0.2,0.02-0.34-0.05-0.44-0.2C155.54,42.78,155.53,42.62,155.61,42.46z M170.57,27.66
					c2.16-0.15,3.25-0.22,5.41-0.33c-1.09-4.24-1.63-6.34-2.72-10.52C172.19,21.17,171.65,23.34,170.57,27.66z"/>
			</g>
		</g>
		<g>
			<g>
				<path class="st2" d="M202.02,41.45c0-12.86,0-25.72,0-38.58c0-0.23,0.07-0.43,0.21-0.6c0.14-0.17,0.3-0.26,0.48-0.25
					c3.75,0.17,5.63,0.3,9.38,0.62c0.21,0.02,0.39,0.12,0.54,0.31c0.15,0.19,0.22,0.4,0.22,0.62c0,5.95,0,8.92,0,14.87
					c2.81,0.15,4.22,0.25,7.03,0.47c0-5.86,0-8.78,0-14.64c0-0.22,0.06-0.41,0.2-0.57c0.13-0.16,0.29-0.23,0.49-0.2
					c3.75,0.44,5.63,0.69,9.38,1.25c0.21,0.03,0.39,0.14,0.54,0.34c0.15,0.19,0.22,0.39,0.22,0.61c0,12.06,0,24.13,0,36.19
					c0,0.2-0.07,0.37-0.22,0.52c-0.15,0.15-0.33,0.22-0.54,0.21c-3.75-0.23-5.63-0.32-9.38-0.44c-0.2-0.01-0.36-0.09-0.49-0.26
					c-0.13-0.17-0.2-0.35-0.2-0.55c0-4.94,0-7.41,0-12.35c-2.81-0.16-4.22-0.23-7.03-0.31c0,5.02,0,7.53,0,12.55
					c0,0.2-0.07,0.38-0.22,0.55c-0.15,0.16-0.33,0.25-0.54,0.25c-3.75,0-5.63,0.04-9.38,0.19c-0.16,0.01-0.32-0.07-0.46-0.24
					C202.1,41.85,202.02,41.66,202.02,41.45z"/>
				<path class="st2" d="M231.68,42.01c3.67-11.49,7.44-22.94,11.34-34.35c0.08-0.16,0.25-0.29,0.49-0.39
					c0.24-0.1,0.48-0.13,0.71-0.09c4.09,0.78,6.14,1.19,10.23,2.07c0.23,0.05,0.47,0.17,0.71,0.37c0.24,0.19,0.41,0.39,0.49,0.57
					c3.7,11.98,7.48,23.94,11.34,35.87c0.08,0.16,0.08,0.31-0.01,0.44c-0.09,0.13-0.23,0.19-0.43,0.16
					c-3.98-0.59-5.97-0.87-9.94-1.39c-0.47-0.06-0.82-0.33-1.05-0.82c-0.6-2.25-0.9-3.37-1.49-5.63c-3.77-0.53-5.66-0.78-9.43-1.23
					c-0.61,2.15-0.91,3.24-1.52,5.41c-0.23,0.44-0.58,0.64-1.05,0.6c-3.97-0.39-5.95-0.56-9.92-0.83c-0.2-0.01-0.34-0.1-0.44-0.27
					C231.6,42.33,231.59,42.17,231.68,42.01z M246.64,30.28c2.16,0.31,3.25,0.47,5.41,0.8c-1.09-4.13-1.63-6.2-2.72-10.37
					C248.25,24.51,247.71,26.42,246.64,30.28z"/>
				<path class="st2" d="M267.99,46.16c0-11.03,0-22.06,0-33.09c0-0.2,0.07-0.36,0.21-0.48c0.14-0.12,0.3-0.16,0.48-0.12
					c3.75,0.89,5.63,1.35,9.38,2.29c0.21,0.05,0.39,0.17,0.54,0.36c0.15,0.19,0.22,0.38,0.22,0.57c0,5.08,0,7.62,0,12.7
					c2.81,0.61,4.22,0.91,7.03,1.54c0-4.99,0-7.48,0-12.47c0-0.19,0.06-0.34,0.2-0.45c0.13-0.11,0.29-0.15,0.49-0.1
					c3.75,0.96,5.63,1.45,9.38,2.43c0.21,0.06,0.39,0.17,0.54,0.36c0.15,0.18,0.22,0.36,0.22,0.55c0,10.23,0,20.47,0,30.7
					c0,0.17-0.07,0.3-0.22,0.42c-0.15,0.11-0.33,0.15-0.54,0.11c-3.75-0.65-5.63-0.98-9.38-1.61c-0.2-0.03-0.36-0.13-0.49-0.29
					c-0.13-0.16-0.2-0.32-0.2-0.49c0-4.21,0-6.31,0-10.52c-2.81-0.56-4.22-0.84-7.03-1.38c0,4.29,0,6.43,0,10.72
					c0,0.17-0.07,0.32-0.22,0.43c-0.15,0.12-0.33,0.16-0.54,0.12c-3.75-0.61-5.63-0.91-9.38-1.48c-0.16-0.02-0.32-0.12-0.46-0.29
					C268.06,46.52,267.99,46.34,267.99,46.16z"/>
				<path class="st2" d="M297.64,51.16c3.66-9.32,7.44-18.6,11.34-27.82c0.08-0.13,0.24-0.22,0.49-0.28c0.24-0.06,0.48-0.06,0.71,0
					c4.09,1.06,6.14,1.59,10.23,2.62c0.23,0.06,0.47,0.18,0.71,0.36c0.24,0.18,0.41,0.35,0.49,0.51
					c3.71,10.21,7.43,20.41,11.34,30.55c0.08,0.14,0.08,0.26-0.01,0.37c-0.09,0.11-0.23,0.15-0.43,0.12
					c-3.98-0.6-5.97-0.92-9.94-1.56c-0.47-0.08-0.82-0.33-1.05-0.74c-0.6-1.92-0.9-2.88-1.49-4.82c-3.77-0.68-5.66-1.03-9.43-1.73
					c-0.61,1.76-0.91,2.65-1.52,4.43c-0.23,0.35-0.58,0.49-1.05,0.41c-3.97-0.69-5.95-1.03-9.92-1.72c-0.2-0.03-0.34-0.13-0.44-0.28
					C297.57,51.42,297.56,51.29,297.64,51.16z M312.61,42.75c2.16,0.44,3.25,0.66,5.41,1.09c-1.09-3.54-1.63-5.33-2.72-8.93
					C314.22,38.02,313.68,39.59,312.61,42.75z"/>
				<path class="st2" d="M333.96,57.22c0-11.04,0-16.56,0-27.59c0-0.16,0.07-0.29,0.21-0.39c0.14-0.1,0.3-0.12,0.48-0.08
					c3.75,0.88,5.63,1.31,9.38,2.13c0.21,0.05,0.39,0.15,0.54,0.31c0.15,0.16,0.22,0.31,0.22,0.47c0,4.21,0,6.32,0,10.53
					c2.81,0.51,4.22,0.76,7.03,1.23c0-4.12,0-6.18,0-10.3c0-0.15,0.06-0.28,0.2-0.38c0.13-0.1,0.29-0.12,0.49-0.09
					c3.75,0.75,5.63,1.11,9.38,1.77c0.21,0.04,0.39,0.13,0.54,0.27c0.15,0.14,0.22,0.29,0.22,0.44c0,10.08,0,15.12,0,25.21
					c0,0.14-0.07,0.25-0.22,0.35c-0.15,0.1-0.33,0.14-0.54,0.12c-3.75-0.34-5.63-0.53-9.38-0.95c-0.2-0.02-0.36-0.1-0.49-0.23
					c-0.13-0.13-0.2-0.26-0.2-0.4c0-3.48,0-5.22,0-8.69c-2.81-0.41-4.22-0.62-7.03-1.07c0,3.55,0,5.33,0,8.89
					c0,0.14-0.07,0.26-0.22,0.36c-0.15,0.1-0.33,0.13-0.54,0.1c-3.75-0.49-5.63-0.76-9.38-1.31c-0.16-0.02-0.32-0.11-0.46-0.25
					C334.03,57.52,333.96,57.37,333.96,57.22z"/>
				<path class="st2" d="M363.61,60.87c4.54-9.7,6.8-14.4,11.34-23.5c0.08-0.11,0.24-0.2,0.49-0.26c0.24-0.07,0.48-0.09,0.71-0.06
					c4.09,0.54,6.14,0.78,10.23,1.17c0.23,0.02,0.47,0.09,0.71,0.21c0.24,0.12,0.41,0.24,0.49,0.36c4.54,9.7,6.8,14.31,11.34,23.03
					c0.08,0.09,0.08,0.19-0.01,0.3c-0.09,0.1-0.23,0.16-0.43,0.17c-3.98,0.16-5.97,0.2-9.94,0.2c-0.47,0-0.82-0.16-1.05-0.46
					c-0.6-1.47-0.9-2.22-1.49-3.71c-3.77-0.09-5.66-0.18-9.43-0.4c-0.61,1.49-0.91,2.24-1.52,3.75c-0.23,0.31-0.58,0.45-1.05,0.43
					c-3.97-0.21-5.95-0.35-9.92-0.68c-0.2-0.02-0.34-0.08-0.44-0.2S363.53,60.98,363.61,60.87z M378.57,52.86
					c2.16,0.15,3.25,0.22,5.41,0.33c-1.09-2.75-1.63-4.14-2.72-6.95C380.19,48.86,379.65,50.19,378.57,52.86z"/>
			</g>
		</g>
		<g>
			<g>
				<path class="st2" d="M202.02,94.45c0-12.86,0-25.72,0-38.58c0-0.23,0.07-0.43,0.21-0.6c0.14-0.17,0.3-0.26,0.48-0.25
					c3.75,0.17,5.63,0.3,9.38,0.62c0.21,0.02,0.39,0.12,0.54,0.31c0.15,0.19,0.22,0.4,0.22,0.62c0,5.95,0,8.92,0,14.87
					c2.81,0.15,4.22,0.25,7.03,0.47c0-5.86,0-8.78,0-14.64c0-0.22,0.06-0.41,0.2-0.57c0.13-0.16,0.29-0.23,0.49-0.2
					c3.75,0.44,5.63,0.69,9.38,1.25c0.21,0.03,0.39,0.14,0.54,0.34c0.15,0.19,0.22,0.39,0.22,0.61c0,12.06,0,24.13,0,36.19
					c0,0.2-0.07,0.37-0.22,0.52c-0.15,0.15-0.33,0.22-0.54,0.21c-3.75-0.23-5.63-0.32-9.38-0.44c-0.2-0.01-0.36-0.09-0.49-0.26
					c-0.13-0.17-0.2-0.35-0.2-0.55c0-4.94,0-7.41,0-12.35c-2.81-0.16-4.22-0.23-7.03-0.31c0,5.02,0,7.53,0,12.55
					c0,0.2-0.07,0.38-0.22,0.55c-0.15,0.16-0.33,0.25-0.54,0.25c-3.75,0-5.63,0.04-9.38,0.19c-0.16,0.01-0.32-0.07-0.46-0.24
					C202.1,94.85,202.02,94.66,202.02,94.45z"/>
				<path class="st2" d="M231.68,95.01c3.67-11.49,7.44-22.94,11.34-34.35c0.08-0.16,0.24-0.29,0.49-0.39
					c0.24-0.1,0.48-0.13,0.71-0.09c4.09,0.78,6.14,1.19,10.23,2.07c0.23,0.05,0.47,0.17,0.71,0.37c0.24,0.19,0.41,0.39,0.49,0.57
					c3.7,11.98,7.48,23.94,11.34,35.87c0.08,0.16,0.08,0.31-0.01,0.44c-0.09,0.13-0.23,0.19-0.43,0.16
					c-3.98-0.59-5.97-0.87-9.94-1.39c-0.47-0.06-0.82-0.33-1.05-0.82c-0.6-2.25-0.9-3.37-1.49-5.63c-3.77-0.53-5.66-0.78-9.43-1.23
					c-0.61,2.15-0.91,3.24-1.52,5.41c-0.23,0.44-0.58,0.64-1.05,0.6c-3.97-0.39-5.95-0.56-9.92-0.83c-0.2-0.01-0.34-0.1-0.44-0.27
					C231.6,95.33,231.59,95.17,231.68,95.01z M246.64,83.28c2.16,0.31,3.25,0.47,5.41,0.8c-1.09-4.13-1.63-6.2-2.72-10.37
					C248.25,77.51,247.71,79.42,246.64,83.28z"/>
				<path class="st2" d="M267.99,99.16c0-11.03,0-22.06,0-33.09c0-0.2,0.07-0.36,0.21-0.48c0.14-0.12,0.3-0.16,0.48-0.12
					c3.75,0.89,5.63,1.35,9.38,2.29c0.21,0.05,0.39,0.17,0.54,0.36c0.15,0.19,0.22,0.38,0.22,0.57c0,5.08,0,7.62,0,12.7
					c2.81,0.61,4.22,0.91,7.03,1.54c0-4.99,0-7.48,0-12.47c0-0.19,0.06-0.34,0.2-0.45c0.13-0.11,0.29-0.15,0.49-0.1
					c3.75,0.96,5.63,1.45,9.38,2.43c0.21,0.06,0.39,0.17,0.54,0.36c0.15,0.18,0.22,0.36,0.22,0.55c0,10.23,0,20.47,0,30.7
					c0,0.17-0.07,0.3-0.22,0.42c-0.15,0.11-0.33,0.15-0.54,0.11c-3.75-0.65-5.63-0.98-9.38-1.61c-0.2-0.03-0.36-0.13-0.49-0.29
					c-0.13-0.16-0.2-0.32-0.2-0.49c0-4.21,0-6.31,0-10.52c-2.81-0.56-4.22-0.84-7.03-1.38c0,4.29,0,6.43,0,10.72
					c0,0.17-0.07,0.32-0.22,0.43c-0.15,0.12-0.33,0.16-0.54,0.12c-3.75-0.61-5.63-0.91-9.38-1.48c-0.16-0.02-0.32-0.12-0.46-0.29
					C268.06,99.52,267.99,99.34,267.99,99.16z"/>
				<path class="st2" d="M297.64,104.16c3.66-9.32,7.44-18.6,11.34-27.82c0.08-0.13,0.24-0.22,0.49-0.28c0.24-0.06,0.48-0.06,0.71,0
					c4.09,1.06,6.14,1.59,10.23,2.62c0.23,0.06,0.47,0.18,0.71,0.36c0.24,0.18,0.41,0.35,0.49,0.51
					c3.71,10.21,7.43,20.41,11.34,30.55c0.08,0.14,0.08,0.26-0.01,0.37c-0.09,0.11-0.23,0.15-0.43,0.12
					c-3.98-0.6-5.97-0.92-9.94-1.56c-0.47-0.08-0.82-0.33-1.05-0.74c-0.6-1.92-0.9-2.88-1.49-4.82c-3.77-0.68-5.66-1.03-9.43-1.73
					c-0.61,1.76-0.91,2.65-1.52,4.43c-0.23,0.35-0.58,0.49-1.05,0.41c-3.97-0.69-5.95-1.03-9.92-1.72c-0.2-0.03-0.34-0.13-0.44-0.28
					C297.57,104.42,297.56,104.29,297.64,104.16z M312.61,95.75c2.16,0.44,3.25,0.66,5.41,1.09c-1.09-3.54-1.63-5.33-2.72-8.93
					C314.22,91.02,313.68,92.59,312.61,95.75z"/>
				<path class="st2" d="M333.96,110.22c0-11.04,0-16.56,0-27.59c0-0.16,0.07-0.29,0.21-0.39c0.14-0.1,0.3-0.12,0.48-0.08
					c3.75,0.88,5.63,1.31,9.38,2.13c0.21,0.05,0.39,0.15,0.54,0.31c0.15,0.16,0.22,0.31,0.22,0.47c0,4.21,0,6.32,0,10.53
					c2.81,0.51,4.22,0.76,7.03,1.23c0-4.12,0-6.18,0-10.3c0-0.15,0.06-0.28,0.2-0.38c0.13-0.1,0.29-0.12,0.49-0.09
					c3.75,0.75,5.63,1.11,9.38,1.77c0.21,0.04,0.39,0.13,0.54,0.27c0.15,0.14,0.22,0.29,0.22,0.44c0,10.08,0,15.12,0,25.21
					c0,0.14-0.07,0.25-0.22,0.35c-0.15,0.1-0.33,0.14-0.54,0.12c-3.75-0.34-5.63-0.53-9.38-0.95c-0.2-0.02-0.36-0.1-0.49-0.23
					c-0.13-0.13-0.2-0.26-0.2-0.4c0-3.48,0-5.22,0-8.69c-2.81-0.41-4.22-0.62-7.03-1.07c0,3.55,0,5.33,0,8.89
					c0,0.14-0.07,0.26-0.22,0.36c-0.15,0.1-0.33,0.13-0.54,0.1c-3.75-0.49-5.63-0.76-9.38-1.31c-0.16-0.02-0.32-0.11-0.46-0.25
					C334.03,110.52,333.96,110.37,333.96,110.22z"/>
				<path class="st2" d="M363.61,113.87c4.54-9.7,6.8-14.4,11.34-23.5c0.08-0.11,0.24-0.2,0.49-0.26c0.24-0.07,0.48-0.09,0.71-0.06
					c4.09,0.54,6.14,0.78,10.23,1.17c0.23,0.02,0.47,0.09,0.71,0.21c0.24,0.12,0.41,0.24,0.49,0.36c4.54,9.7,6.8,14.31,11.34,23.03
					c0.08,0.09,0.08,0.19-0.01,0.3c-0.09,0.1-0.23,0.16-0.43,0.17c-3.98,0.16-5.97,0.2-9.94,0.2c-0.47,0-0.82-0.16-1.05-0.46
					c-0.6-1.47-0.9-2.22-1.49-3.71c-3.77-0.09-5.66-0.18-9.43-0.4c-0.61,1.49-0.91,2.24-1.52,3.75c-0.23,0.31-0.58,0.45-1.05,0.43
					c-3.97-0.21-5.95-0.35-9.92-0.68c-0.2-0.02-0.34-0.08-0.44-0.2S363.53,113.98,363.61,113.87z M378.57,105.86
					c2.16,0.15,3.25,0.22,5.41,0.33c-1.09-2.75-1.63-4.14-2.72-6.95C380.19,101.86,379.65,103.19,378.57,105.86z"/>
			</g>
		</g>
		<g>
			<g>
				<path class="st2" d="M202.02,143.45c0-12.86,0-25.72,0-38.58c0-0.23,0.07-0.43,0.21-0.6c0.14-0.17,0.3-0.26,0.48-0.25
					c3.75,0.17,5.63,0.3,9.38,0.62c0.21,0.02,0.39,0.12,0.54,0.31c0.15,0.19,0.22,0.4,0.22,0.62c0,5.95,0,8.92,0,14.87
					c2.81,0.15,4.22,0.25,7.03,0.47c0-5.86,0-8.78,0-14.64c0-0.22,0.06-0.41,0.2-0.57c0.13-0.16,0.29-0.23,0.49-0.2
					c3.75,0.44,5.63,0.69,9.38,1.25c0.21,0.03,0.39,0.14,0.54,0.34c0.15,0.19,0.22,0.39,0.22,0.61c0,12.06,0,24.13,0,36.19
					c0,0.2-0.07,0.37-0.22,0.52c-0.15,0.15-0.33,0.22-0.54,0.21c-3.75-0.23-5.63-0.32-9.38-0.44c-0.2-0.01-0.36-0.09-0.49-0.26
					c-0.13-0.17-0.2-0.35-0.2-0.55c0-4.94,0-7.41,0-12.35c-2.81-0.16-4.22-0.23-7.03-0.31c0,5.02,0,7.53,0,12.55
					c0,0.2-0.07,0.38-0.22,0.55c-0.15,0.16-0.33,0.25-0.54,0.25c-3.75,0-5.63,0.04-9.38,0.19c-0.16,0.01-0.32-0.07-0.46-0.24
					C202.1,143.85,202.02,143.66,202.02,143.45z"/>
				<path class="st2" d="M231.68,144.01c3.67-11.49,7.44-22.94,11.34-34.35c0.08-0.16,0.24-0.29,0.49-0.39
					c0.24-0.1,0.48-0.13,0.71-0.09c4.09,0.78,6.14,1.19,10.23,2.07c0.23,0.05,0.47,0.17,0.71,0.37c0.24,0.19,0.41,0.39,0.49,0.57
					c3.7,11.98,7.48,23.94,11.34,35.87c0.08,0.16,0.08,0.31-0.01,0.44c-0.09,0.13-0.23,0.19-0.43,0.16
					c-3.98-0.59-5.97-0.87-9.94-1.39c-0.47-0.06-0.82-0.33-1.05-0.82c-0.6-2.25-0.9-3.37-1.49-5.63c-3.77-0.53-5.66-0.78-9.43-1.23
					c-0.61,2.15-0.91,3.24-1.52,5.41c-0.23,0.44-0.58,0.64-1.05,0.6c-3.97-0.39-5.95-0.56-9.92-0.83c-0.2-0.01-0.34-0.1-0.44-0.27
					C231.6,144.33,231.59,144.17,231.68,144.01z M246.64,132.28c2.16,0.31,3.25,0.47,5.41,0.8c-1.09-4.13-1.63-6.2-2.72-10.37
					C248.25,126.51,247.71,128.42,246.64,132.28z"/>
				<path class="st2" d="M267.99,148.16c0-11.03,0-22.06,0-33.09c0-0.2,0.07-0.36,0.21-0.48c0.14-0.12,0.3-0.16,0.48-0.12
					c3.75,0.89,5.63,1.35,9.38,2.29c0.21,0.05,0.39,0.17,0.54,0.36c0.15,0.19,0.22,0.38,0.22,0.57c0,5.08,0,7.62,0,12.7
					c2.81,0.61,4.22,0.91,7.03,1.54c0-4.99,0-7.48,0-12.47c0-0.19,0.06-0.34,0.2-0.45c0.13-0.11,0.29-0.15,0.49-0.1
					c3.75,0.96,5.63,1.45,9.38,2.43c0.21,0.06,0.39,0.17,0.54,0.36c0.15,0.18,0.22,0.36,0.22,0.55c0,10.23,0,20.47,0,30.7
					c0,0.17-0.07,0.3-0.22,0.42c-0.15,0.11-0.33,0.15-0.54,0.11c-3.75-0.65-5.63-0.98-9.38-1.61c-0.2-0.03-0.36-0.13-0.49-0.29
					c-0.13-0.16-0.2-0.32-0.2-0.49c0-4.21,0-6.31,0-10.52c-2.81-0.56-4.22-0.84-7.03-1.38c0,4.29,0,6.43,0,10.72
					c0,0.17-0.07,0.32-0.22,0.43c-0.15,0.12-0.33,0.16-0.54,0.12c-3.75-0.61-5.63-0.91-9.38-1.48c-0.16-0.02-0.32-0.12-0.46-0.29
					C268.06,148.52,267.99,148.34,267.99,148.16z"/>
				<path class="st2" d="M297.64,153.16c3.66-9.32,7.44-18.6,11.34-27.82c0.08-0.13,0.24-0.22,0.49-0.28c0.24-0.06,0.48-0.06,0.71,0
					c4.09,1.06,6.14,1.59,10.23,2.62c0.23,0.06,0.47,0.18,0.71,0.36c0.24,0.18,0.41,0.35,0.49,0.51
					c3.71,10.21,7.43,20.41,11.34,30.55c0.08,0.14,0.08,0.26-0.01,0.37c-0.09,0.11-0.23,0.15-0.43,0.12
					c-3.98-0.6-5.97-0.92-9.94-1.56c-0.47-0.08-0.82-0.33-1.05-0.74c-0.6-1.92-0.9-2.88-1.49-4.82c-3.77-0.68-5.66-1.03-9.43-1.73
					c-0.61,1.76-0.91,2.65-1.52,4.43c-0.23,0.35-0.58,0.49-1.05,0.41c-3.97-0.69-5.95-1.03-9.92-1.72c-0.2-0.03-0.34-0.13-0.44-0.28
					C297.57,153.42,297.56,153.29,297.64,153.16z M312.61,144.75c2.16,0.44,3.25,0.66,5.41,1.09c-1.09-3.54-1.63-5.33-2.72-8.93
					C314.22,140.02,313.68,141.59,312.61,144.75z"/>
				<path class="st2" d="M333.96,159.22c0-11.04,0-16.56,0-27.59c0-0.16,0.07-0.29,0.21-0.39c0.14-0.1,0.3-0.12,0.48-0.08
					c3.75,0.88,5.63,1.31,9.38,2.13c0.21,0.05,0.39,0.15,0.54,0.31c0.15,0.16,0.22,0.31,0.22,0.47c0,4.21,0,6.32,0,10.53
					c2.81,0.51,4.22,0.76,7.03,1.23c0-4.12,0-6.18,0-10.3c0-0.15,0.06-0.28,0.2-0.38c0.13-0.1,0.29-0.12,0.49-0.09
					c3.75,0.75,5.63,1.11,9.38,1.77c0.21,0.04,0.39,0.13,0.54,0.27c0.15,0.14,0.22,0.29,0.22,0.44c0,10.08,0,15.12,0,25.21
					c0,0.14-0.07,0.25-0.22,0.35c-0.15,0.1-0.33,0.14-0.54,0.12c-3.75-0.34-5.63-0.53-9.38-0.95c-0.2-0.02-0.36-0.1-0.49-0.23
					c-0.13-0.13-0.2-0.26-0.2-0.4c0-3.48,0-5.22,0-8.69c-2.81-0.41-4.22-0.62-7.03-1.07c0,3.55,0,5.33,0,8.89
					c0,0.14-0.07,0.26-0.22,0.36c-0.15,0.1-0.33,0.13-0.54,0.1c-3.75-0.49-5.63-0.76-9.38-1.31c-0.16-0.02-0.32-0.11-0.46-0.25
					C334.03,159.52,333.96,159.37,333.96,159.22z"/>
				<path class="st2" d="M363.61,162.87c4.54-9.7,6.8-14.4,11.34-23.5c0.08-0.11,0.24-0.2,0.49-0.26c0.24-0.07,0.48-0.09,0.71-0.06
					c4.09,0.54,6.14,0.78,10.23,1.17c0.23,0.02,0.47,0.09,0.71,0.21c0.24,0.12,0.41,0.24,0.49,0.36c4.54,9.7,6.8,14.31,11.34,23.03
					c0.08,0.09,0.08,0.19-0.01,0.3c-0.09,0.1-0.23,0.16-0.43,0.17c-3.98,0.16-5.97,0.2-9.94,0.2c-0.47,0-0.82-0.16-1.05-0.46
					c-0.6-1.47-0.9-2.22-1.49-3.71c-3.77-0.09-5.66-0.18-9.43-0.4c-0.61,1.49-0.91,2.24-1.52,3.75c-0.23,0.31-0.58,0.45-1.05,0.43
					c-3.97-0.21-5.95-0.35-9.92-0.68c-0.2-0.02-0.34-0.08-0.44-0.2C363.54,163.09,363.53,162.98,363.61,162.87z M378.57,154.86
					c2.16,0.15,3.25,0.22,5.41,0.33c-1.09-2.75-1.63-4.14-2.72-6.95C380.19,150.86,379.65,152.19,378.57,154.86z"/>
			</g>
		</g>
		<g>
			<g>
				<path class="st2" d="M202.02,193.45c0-12.86,0-25.72,0-38.58c0-0.23,0.07-0.43,0.21-0.6c0.14-0.17,0.3-0.26,0.48-0.25
					c3.75,0.17,5.63,0.3,9.38,0.62c0.21,0.02,0.39,0.12,0.54,0.31c0.15,0.19,0.22,0.4,0.22,0.62c0,5.95,0,8.92,0,14.87
					c2.81,0.15,4.22,0.25,7.03,0.47c0-5.86,0-8.78,0-14.64c0-0.22,0.06-0.41,0.2-0.57c0.13-0.16,0.29-0.23,0.49-0.2
					c3.75,0.44,5.63,0.69,9.38,1.25c0.21,0.03,0.39,0.14,0.54,0.34c0.15,0.19,0.22,0.39,0.22,0.61c0,12.06,0,24.13,0,36.19
					c0,0.2-0.07,0.37-0.22,0.52c-0.15,0.15-0.33,0.22-0.54,0.21c-3.75-0.23-5.63-0.32-9.38-0.44c-0.2-0.01-0.36-0.09-0.49-0.26
					c-0.13-0.17-0.2-0.35-0.2-0.55c0-4.94,0-7.41,0-12.35c-2.81-0.16-4.22-0.23-7.03-0.31c0,5.02,0,7.53,0,12.55
					c0,0.2-0.07,0.38-0.22,0.55c-0.15,0.16-0.33,0.25-0.54,0.25c-3.75,0-5.63,0.04-9.38,0.19c-0.16,0.01-0.32-0.07-0.46-0.24
					C202.1,193.85,202.02,193.66,202.02,193.45z"/>
				<path class="st2" d="M231.68,194.01c3.67-11.49,7.44-22.94,11.34-34.35c0.08-0.16,0.24-0.29,0.49-0.39
					c0.24-0.1,0.48-0.13,0.71-0.09c4.09,0.78,6.14,1.19,10.23,2.07c0.23,0.05,0.47,0.17,0.71,0.37c0.24,0.19,0.41,0.39,0.49,0.57
					c3.7,11.98,7.48,23.94,11.34,35.87c0.08,0.16,0.08,0.31-0.01,0.44c-0.09,0.13-0.23,0.19-0.43,0.16
					c-3.98-0.59-5.97-0.87-9.94-1.39c-0.47-0.06-0.82-0.33-1.05-0.82c-0.6-2.25-0.9-3.37-1.49-5.63c-3.77-0.53-5.66-0.78-9.43-1.23
					c-0.61,2.15-0.91,3.24-1.52,5.41c-0.23,0.44-0.58,0.64-1.05,0.6c-3.97-0.39-5.95-0.56-9.92-0.83c-0.2-0.01-0.34-0.1-0.44-0.27
					C231.6,194.33,231.59,194.17,231.68,194.01z M246.64,182.28c2.16,0.31,3.25,0.47,5.41,0.8c-1.09-4.13-1.63-6.2-2.72-10.37
					C248.25,176.51,247.71,178.42,246.64,182.28z"/>
				<path class="st2" d="M267.99,198.16c0-11.03,0-22.06,0-33.09c0-0.2,0.07-0.36,0.21-0.48c0.14-0.12,0.3-0.16,0.48-0.12
					c3.75,0.89,5.63,1.35,9.38,2.29c0.21,0.05,0.39,0.17,0.54,0.36c0.15,0.19,0.22,0.38,0.22,0.57c0,5.08,0,7.62,0,12.7
					c2.81,0.61,4.22,0.91,7.03,1.54c0-4.99,0-7.48,0-12.47c0-0.19,0.06-0.34,0.2-0.45c0.13-0.11,0.29-0.15,0.49-0.1
					c3.75,0.96,5.63,1.45,9.38,2.43c0.21,0.06,0.39,0.17,0.54,0.36c0.15,0.18,0.22,0.36,0.22,0.55c0,10.23,0,20.47,0,30.7
					c0,0.17-0.07,0.3-0.22,0.42c-0.15,0.11-0.33,0.15-0.54,0.11c-3.75-0.65-5.63-0.98-9.38-1.61c-0.2-0.03-0.36-0.13-0.49-0.29
					c-0.13-0.16-0.2-0.32-0.2-0.49c0-4.21,0-6.31,0-10.52c-2.81-0.56-4.22-0.84-7.03-1.38c0,4.29,0,6.43,0,10.72
					c0,0.17-0.07,0.32-0.22,0.43c-0.15,0.12-0.33,0.16-0.54,0.12c-3.75-0.61-5.63-0.91-9.38-1.48c-0.16-0.02-0.32-0.12-0.46-0.29
					C268.06,198.52,267.99,198.34,267.99,198.16z"/>
				<path class="st2" d="M297.64,203.16c3.66-9.32,7.44-18.6,11.34-27.82c0.08-0.13,0.24-0.22,0.49-0.28c0.24-0.06,0.48-0.06,0.71,0
					c4.09,1.06,6.14,1.59,10.23,2.62c0.23,0.06,0.47,0.18,0.71,0.36c0.24,0.18,0.41,0.35,0.49,0.51
					c3.71,10.21,7.43,20.41,11.34,30.55c0.08,0.14,0.08,0.26-0.01,0.37c-0.09,0.11-0.23,0.15-0.43,0.12
					c-3.98-0.6-5.97-0.92-9.94-1.56c-0.47-0.08-0.82-0.33-1.05-0.74c-0.6-1.92-0.9-2.88-1.49-4.82c-3.77-0.68-5.66-1.03-9.43-1.73
					c-0.61,1.76-0.91,2.65-1.52,4.43c-0.23,0.35-0.58,0.49-1.05,0.41c-3.97-0.69-5.95-1.03-9.92-1.72c-0.2-0.03-0.34-0.13-0.44-0.28
					C297.57,203.42,297.56,203.29,297.64,203.16z M312.61,194.75c2.16,0.44,3.25,0.66,5.41,1.09c-1.09-3.54-1.63-5.33-2.72-8.93
					C314.22,190.02,313.68,191.59,312.61,194.75z"/>
				<path class="st2" d="M333.96,209.22c0-11.04,0-16.56,0-27.59c0-0.16,0.07-0.29,0.21-0.39c0.14-0.1,0.3-0.12,0.48-0.08
					c3.75,0.88,5.63,1.31,9.38,2.13c0.21,0.05,0.39,0.15,0.54,0.31c0.15,0.16,0.22,0.31,0.22,0.47c0,4.21,0,6.32,0,10.53
					c2.81,0.51,4.22,0.76,7.03,1.23c0-4.12,0-6.18,0-10.3c0-0.15,0.06-0.28,0.2-0.38c0.13-0.1,0.29-0.12,0.49-0.08
					c3.75,0.75,5.63,1.11,9.38,1.77c0.21,0.04,0.39,0.13,0.54,0.27c0.15,0.14,0.22,0.29,0.22,0.44c0,10.08,0,15.12,0,25.21
					c0,0.14-0.07,0.25-0.22,0.35c-0.15,0.1-0.33,0.14-0.54,0.12c-3.75-0.34-5.63-0.53-9.38-0.95c-0.2-0.02-0.36-0.1-0.49-0.23
					c-0.13-0.13-0.2-0.26-0.2-0.4c0-3.48,0-5.22,0-8.69c-2.81-0.41-4.22-0.62-7.03-1.07c0,3.55,0,5.33,0,8.89
					c0,0.14-0.07,0.26-0.22,0.36c-0.15,0.1-0.33,0.13-0.54,0.1c-3.75-0.49-5.63-0.76-9.38-1.31c-0.16-0.02-0.32-0.11-0.46-0.25
					C334.03,209.52,333.96,209.37,333.96,209.22z"/>
				<path class="st2" d="M363.61,212.87c4.54-9.7,6.8-14.4,11.34-23.5c0.08-0.11,0.24-0.2,0.49-0.26c0.24-0.07,0.48-0.09,0.71-0.06
					c4.09,0.54,6.14,0.78,10.23,1.17c0.23,0.02,0.47,0.09,0.71,0.21c0.24,0.12,0.41,0.24,0.49,0.36c4.54,9.7,6.8,14.31,11.34,23.03
					c0.08,0.09,0.08,0.19-0.01,0.3c-0.09,0.1-0.23,0.16-0.43,0.17c-3.98,0.16-5.97,0.2-9.94,0.2c-0.47,0-0.82-0.16-1.05-0.46
					c-0.6-1.47-0.9-2.22-1.49-3.71c-3.77-0.09-5.66-0.18-9.43-0.4c-0.61,1.49-0.91,2.24-1.52,3.75c-0.23,0.31-0.58,0.45-1.05,0.43
					c-3.97-0.21-5.95-0.35-9.92-0.68c-0.2-0.02-0.34-0.08-0.44-0.2S363.53,212.98,363.61,212.87z M378.57,204.86
					c2.16,0.15,3.25,0.22,5.41,0.33c-1.09-2.75-1.63-4.14-2.72-6.95C380.19,200.86,379.65,202.19,378.57,204.86z"/>
			</g>
		</g>
		<g>
			<g>
				<path class="st2" d="M202.02,245.45c0-12.86,0-25.72,0-38.58c0-0.23,0.07-0.43,0.21-0.6c0.14-0.17,0.3-0.26,0.48-0.25
					c3.75,0.17,5.63,0.3,9.38,0.62c0.21,0.02,0.39,0.12,0.54,0.31c0.15,0.19,0.22,0.4,0.22,0.62c0,5.95,0,8.92,0,14.87
					c2.81,0.15,4.22,0.25,7.03,0.47c0-5.86,0-8.78,0-14.64c0-0.22,0.06-0.41,0.2-0.57c0.13-0.16,0.29-0.23,0.49-0.2
					c3.75,0.44,5.63,0.69,9.38,1.25c0.21,0.03,0.39,0.14,0.54,0.34c0.15,0.19,0.22,0.39,0.22,0.61c0,12.06,0,24.13,0,36.19
					c0,0.2-0.07,0.37-0.22,0.52c-0.15,0.15-0.33,0.22-0.54,0.21c-3.75-0.23-5.63-0.32-9.38-0.44c-0.2-0.01-0.36-0.09-0.49-0.26
					c-0.13-0.17-0.2-0.35-0.2-0.55c0-4.94,0-7.41,0-12.35c-2.81-0.16-4.22-0.23-7.03-0.31c0,5.02,0,7.53,0,12.55
					c0,0.2-0.07,0.38-0.22,0.55c-0.15,0.16-0.33,0.25-0.54,0.25c-3.75,0-5.63,0.04-9.38,0.19c-0.16,0.01-0.32-0.07-0.46-0.24
					C202.1,245.85,202.02,245.66,202.02,245.45z"/>
				<path class="st2" d="M231.68,246.01c3.67-11.49,7.44-22.94,11.34-34.35c0.08-0.16,0.24-0.29,0.49-0.39
					c0.24-0.1,0.48-0.13,0.71-0.09c4.09,0.78,6.14,1.19,10.23,2.07c0.23,0.05,0.47,0.17,0.71,0.37c0.24,0.19,0.41,0.39,0.49,0.57
					c3.7,11.98,7.48,23.94,11.34,35.87c0.08,0.16,0.08,0.31-0.01,0.44c-0.09,0.13-0.23,0.19-0.43,0.16
					c-3.98-0.59-5.97-0.87-9.94-1.39c-0.47-0.06-0.82-0.33-1.05-0.82c-0.6-2.25-0.9-3.37-1.49-5.63c-3.77-0.53-5.66-0.78-9.43-1.23
					c-0.61,2.15-0.91,3.24-1.52,5.41c-0.23,0.44-0.58,0.64-1.05,0.6c-3.97-0.39-5.95-0.56-9.92-0.83c-0.2-0.01-0.34-0.1-0.44-0.27
					C231.6,246.33,231.59,246.17,231.68,246.01z M246.64,234.28c2.16,0.31,3.25,0.47,5.41,0.8c-1.09-4.13-1.63-6.2-2.72-10.37
					C248.25,228.51,247.71,230.42,246.64,234.28z"/>
				<path class="st2" d="M267.99,250.16c0-11.03,0-22.06,0-33.09c0-0.2,0.07-0.36,0.21-0.48c0.14-0.12,0.3-0.16,0.48-0.12
					c3.75,0.89,5.63,1.35,9.38,2.29c0.21,0.05,0.39,0.17,0.54,0.36c0.15,0.19,0.22,0.38,0.22,0.57c0,5.08,0,7.62,0,12.7
					c2.81,0.61,4.22,0.91,7.03,1.54c0-4.99,0-7.48,0-12.47c0-0.19,0.06-0.34,0.2-0.45c0.13-0.11,0.29-0.15,0.49-0.1
					c3.75,0.96,5.63,1.45,9.38,2.43c0.21,0.06,0.39,0.17,0.54,0.36c0.15,0.18,0.22,0.36,0.22,0.55c0,10.23,0,20.47,0,30.7
					c0,0.17-0.07,0.3-0.22,0.42c-0.15,0.11-0.33,0.15-0.54,0.11c-3.75-0.65-5.63-0.98-9.38-1.61c-0.2-0.03-0.36-0.13-0.49-0.29
					c-0.13-0.16-0.2-0.32-0.2-0.49c0-4.21,0-6.31,0-10.52c-2.81-0.56-4.22-0.84-7.03-1.38c0,4.29,0,6.43,0,10.72
					c0,0.17-0.07,0.32-0.22,0.43c-0.15,0.12-0.33,0.16-0.54,0.12c-3.75-0.61-5.63-0.91-9.38-1.48c-0.16-0.02-0.32-0.12-0.46-0.29
					C268.06,250.52,267.99,250.34,267.99,250.16z"/>
				<path class="st2" d="M297.64,255.16c3.66-9.32,7.44-18.6,11.34-27.82c0.08-0.13,0.24-0.22,0.49-0.28c0.24-0.06,0.48-0.06,0.71,0
					c4.09,1.06,6.14,1.59,10.23,2.62c0.23,0.06,0.47,0.18,0.71,0.36c0.24,0.18,0.41,0.35,0.49,0.51
					c3.71,10.21,7.43,20.41,11.34,30.55c0.08,0.14,0.08,0.26-0.01,0.37c-0.09,0.11-0.23,0.15-0.43,0.12
					c-3.98-0.6-5.97-0.92-9.94-1.56c-0.47-0.08-0.82-0.33-1.05-0.74c-0.6-1.92-0.9-2.88-1.49-4.82c-3.77-0.68-5.66-1.03-9.43-1.73
					c-0.61,1.76-0.91,2.65-1.52,4.43c-0.23,0.35-0.58,0.49-1.05,0.41c-3.97-0.69-5.95-1.03-9.92-1.72c-0.2-0.03-0.34-0.13-0.44-0.28
					C297.57,255.42,297.56,255.29,297.64,255.16z M312.61,246.75c2.16,0.44,3.25,0.66,5.41,1.09c-1.09-3.54-1.63-5.33-2.72-8.93
					C314.22,242.02,313.68,243.59,312.61,246.75z"/>
				<path class="st2" d="M333.96,261.22c0-11.04,0-16.56,0-27.59c0-0.16,0.07-0.29,0.21-0.39c0.14-0.1,0.3-0.12,0.48-0.08
					c3.75,0.88,5.63,1.31,9.38,2.13c0.21,0.05,0.39,0.15,0.54,0.31c0.15,0.16,0.22,0.31,0.22,0.47c0,4.21,0,6.32,0,10.53
					c2.81,0.51,4.22,0.76,7.03,1.23c0-4.12,0-6.18,0-10.3c0-0.15,0.06-0.28,0.2-0.38c0.13-0.1,0.29-0.12,0.49-0.09
					c3.75,0.75,5.63,1.11,9.38,1.77c0.21,0.04,0.39,0.13,0.54,0.27c0.15,0.14,0.22,0.29,0.22,0.44c0,10.08,0,15.12,0,25.21
					c0,0.14-0.07,0.25-0.22,0.35c-0.15,0.1-0.33,0.14-0.54,0.12c-3.75-0.34-5.63-0.53-9.38-0.95c-0.2-0.02-0.36-0.1-0.49-0.23
					c-0.13-0.13-0.2-0.26-0.2-0.4c0-3.48,0-5.22,0-8.69c-2.81-0.41-4.22-0.62-7.03-1.07c0,3.55,0,5.33,0,8.89
					c0,0.14-0.07,0.26-0.22,0.36c-0.15,0.1-0.33,0.13-0.54,0.1c-3.75-0.49-5.63-0.76-9.38-1.31c-0.16-0.02-0.32-0.11-0.46-0.25
					C334.03,261.52,333.96,261.37,333.96,261.22z"/>
				<path class="st2" d="M363.61,264.87c4.54-9.7,6.8-14.4,11.34-23.5c0.08-0.11,0.24-0.2,0.49-0.26c0.24-0.07,0.48-0.09,0.71-0.06
					c4.09,0.54,6.14,0.78,10.23,1.17c0.23,0.02,0.47,0.09,0.71,0.21c0.24,0.12,0.41,0.24,0.49,0.36c4.54,9.7,6.8,14.31,11.34,23.03
					c0.08,0.09,0.08,0.19-0.01,0.3c-0.09,0.1-0.23,0.16-0.43,0.17c-3.98,0.16-5.97,0.2-9.94,0.2c-0.47,0-0.82-0.16-1.05-0.46
					c-0.6-1.47-0.9-2.22-1.49-3.71c-3.77-0.09-5.66-0.18-9.43-0.4c-0.61,1.49-0.91,2.24-1.52,3.75c-0.23,0.31-0.58,0.45-1.05,0.43
					c-3.97-0.21-5.95-0.35-9.92-0.68c-0.2-0.02-0.34-0.08-0.44-0.2C363.54,265.09,363.53,264.98,363.61,264.87z M378.57,256.86
					c2.16,0.15,3.25,0.22,5.41,0.33c-1.09-2.75-1.63-4.14-2.72-6.95C380.19,252.86,379.65,254.19,378.57,256.86z"/>
			</g>
		</g>
		<g>
			<g>
				<path class="st2" d="M-5.98,114.79c0-8.87,0-13.31,0-22.18c0-0.13,0.07-0.25,0.21-0.36c0.14-0.11,0.3-0.17,0.48-0.18
					c3.75-0.17,5.63-0.3,9.38-0.62c0.21-0.02,0.39,0.02,0.54,0.12c0.15,0.09,0.22,0.21,0.22,0.35c0,3.64,0,5.47,0,9.11
					c2.81-0.15,4.22-0.25,7.03-0.47c0-3.74,0-5.6,0-9.34c0-0.14,0.06-0.27,0.2-0.4c0.13-0.13,0.29-0.2,0.49-0.22
					c3.75-0.44,5.63-0.69,9.38-1.25c0.21-0.03,0.39,0,0.54,0.09c0.15,0.09,0.22,0.21,0.22,0.36c0,9.83,0,14.74,0,24.57
					c0,0.13-0.07,0.26-0.22,0.38c-0.15,0.12-0.33,0.18-0.54,0.2c-3.75,0.23-5.63,0.32-9.38,0.44c-0.2,0.01-0.36-0.04-0.49-0.14
					c-0.13-0.1-0.2-0.21-0.2-0.34c0-3.15,0-4.73,0-7.88c-2.81,0.16-4.22,0.23-7.03,0.31c0,3.07,0,4.61,0,7.68
					c0,0.12-0.07,0.24-0.22,0.34c-0.15,0.1-0.33,0.15-0.54,0.15c-3.75,0-5.63-0.04-9.38-0.19c-0.16-0.01-0.32-0.06-0.46-0.17
					C-5.91,115.02-5.98,114.91-5.98,114.79z"/>
				<path class="st2" d="M23.68,114.32c3.93-8.82,7.71-17.73,11.34-26.68c0.08-0.14,0.24-0.29,0.49-0.44
					c0.24-0.15,0.48-0.25,0.71-0.3c4.09-0.78,6.14-1.19,10.23-2.07c0.23-0.05,0.47-0.04,0.71,0.02c0.24,0.06,0.41,0.15,0.49,0.26
					c4.54,9.73,6.8,14.76,11.34,25.16c0.08,0.11,0.08,0.23-0.01,0.37c-0.09,0.14-0.23,0.22-0.43,0.25
					c-3.98,0.59-5.97,0.87-9.94,1.39c-0.47,0.06-0.82-0.07-1.05-0.4c-0.6-1.62-0.9-2.42-1.49-4.02c-3.77,0.53-5.66,0.78-9.43,1.23
					c-0.61,1.71-0.91,2.56-1.52,4.25c-0.23,0.36-0.58,0.57-1.05,0.62c-3.97,0.39-5.95,0.56-9.92,0.83c-0.2,0.01-0.34-0.03-0.44-0.13
					S23.59,114.43,23.68,114.32z M38.64,103.24c2.16-0.31,3.25-0.47,5.41-0.8c-1.09-2.86-1.63-4.28-2.72-7.1
					C40.25,98.52,39.71,100.1,38.64,103.24z"/>
				<path class="st2" d="M59.99,110.08c0-11.07,0-16.6,0-27.67c0-0.16,0.07-0.33,0.21-0.49c0.14-0.16,0.3-0.27,0.48-0.31
					c3.75-0.89,5.63-1.35,9.38-2.29c0.21-0.05,0.39-0.03,0.54,0.07c0.15,0.1,0.22,0.23,0.22,0.4c0,4.51,0,6.77,0,11.28
					c2.81-0.61,4.22-0.91,7.03-1.54c0-4.6,0-6.91,0-11.51c0-0.17,0.06-0.34,0.2-0.51c0.13-0.17,0.29-0.28,0.49-0.33
					c3.75-0.96,5.63-1.45,9.38-2.43c0.21-0.06,0.39-0.03,0.54,0.07c0.15,0.1,0.22,0.24,0.22,0.42c0,10.02,0,20.04,0,30.06
					c0,0.16-0.07,0.32-0.22,0.48c-0.15,0.16-0.33,0.26-0.54,0.29c-3.75,0.65-5.63,0.98-9.38,1.61c-0.2,0.03-0.36,0-0.49-0.11
					c-0.13-0.11-0.2-0.24-0.2-0.39c0-3.88,0-5.83,0-9.71c-2.81,0.56-4.22,0.84-7.03,1.38c0,3.81,0,5.71,0,9.51
					c0,0.15-0.07,0.3-0.22,0.45c-0.15,0.15-0.33,0.24-0.54,0.27c-3.75,0.61-5.63,0.91-9.38,1.48c-0.16,0.02-0.32-0.01-0.46-0.11
					C60.06,110.35,59.99,110.23,59.99,110.08z"/>
				<path class="st2" d="M89.64,105.17c3.88-11.04,7.65-22.11,11.34-33.21c0.08-0.17,0.24-0.36,0.49-0.55
					c0.24-0.19,0.48-0.32,0.71-0.38c4.09-1.06,6.14-1.59,10.23-2.62c0.23-0.06,0.47-0.05,0.71,0.02c0.24,0.07,0.41,0.18,0.49,0.32
					c3.9,10.11,7.63,20.29,11.34,30.48c0.08,0.13,0.08,0.28-0.01,0.44c-0.09,0.16-0.23,0.26-0.43,0.29
					c-3.98,0.6-5.97,0.92-9.94,1.57c-0.47,0.08-0.82-0.08-1.05-0.47c-0.6-1.94-0.9-2.91-1.49-4.84c-3.77,0.68-5.66,1.03-9.43,1.73
					c-0.61,2.1-0.91,3.14-1.52,5.22c-0.23,0.45-0.58,0.72-1.05,0.8c-3.97,0.69-5.95,1.03-9.92,1.72c-0.2,0.03-0.34-0.01-0.44-0.12
					C89.57,105.45,89.56,105.31,89.64,105.17z M104.6,90.77c2.16-0.44,3.25-0.66,5.41-1.09c-1.09-3.44-1.63-5.15-2.72-8.54
					C106.22,85.01,105.68,86.94,104.6,90.77z"/>
				<path class="st2" d="M125.96,99.02c0-11.06,0-22.11,0-33.17c0-0.2,0.07-0.39,0.21-0.58c0.14-0.19,0.3-0.3,0.48-0.35
					c3.75-0.88,5.63-1.31,9.38-2.13c0.21-0.05,0.39-0.01,0.54,0.12c0.15,0.13,0.22,0.29,0.22,0.49c0,5.38,0,8.07,0,13.45
					c2.81-0.51,4.22-0.76,7.03-1.23c0-5.47,0-8.21,0-13.68c0-0.2,0.06-0.4,0.2-0.59c0.13-0.19,0.29-0.3,0.49-0.34
					c3.75-0.75,5.63-1.11,9.38-1.77c0.21-0.04,0.39,0.01,0.54,0.16c0.15,0.14,0.22,0.32,0.22,0.53c0,11.85,0,23.7,0,35.56
					c0,0.19-0.07,0.37-0.22,0.54c-0.15,0.17-0.33,0.27-0.54,0.28c-3.75,0.34-5.63,0.53-9.38,0.95c-0.2,0.02-0.36-0.04-0.49-0.17
					c-0.13-0.14-0.2-0.3-0.2-0.48c0-4.62,0-6.92,0-11.54c-2.81,0.41-4.22,0.62-7.03,1.07c0,4.54,0,6.81,0,11.34
					c0,0.18-0.07,0.36-0.22,0.52c-0.15,0.17-0.33,0.27-0.54,0.29c-3.75,0.49-5.63,0.76-9.38,1.31c-0.16,0.02-0.32-0.03-0.46-0.15
					C126.03,99.35,125.96,99.2,125.96,99.02z"/>
				<path class="st2" d="M155.61,95.46c3.85-12.49,7.63-25,11.34-37.53c0.08-0.19,0.24-0.38,0.49-0.57c0.24-0.19,0.48-0.3,0.71-0.33
					c4.09-0.54,6.14-0.78,10.23-1.17c0.23-0.02,0.47,0.03,0.71,0.17c0.24,0.13,0.41,0.29,0.49,0.47c3.89,12.63,7.67,25.3,11.34,38
					c0.08,0.17,0.08,0.35-0.01,0.51c-0.09,0.17-0.23,0.25-0.43,0.24c-3.98-0.16-5.97-0.2-9.94-0.2c-0.47,0-0.82-0.25-1.05-0.75
					c-0.6-2.39-0.9-3.58-1.49-5.95c-3.77,0.09-5.66,0.18-9.43,0.4c-0.61,2.37-0.91,3.55-1.52,5.91c-0.23,0.5-0.58,0.76-1.05,0.78
					c-3.97,0.21-5.95,0.35-9.92,0.68c-0.2,0.02-0.34-0.05-0.44-0.2C155.54,95.78,155.53,95.62,155.61,95.46z M170.57,80.66
					c2.16-0.15,3.25-0.22,5.41-0.33c-1.09-4.24-1.63-6.34-2.72-10.52C172.19,74.17,171.65,76.34,170.57,80.66z"/>
			</g>
		</g>
		<g>
			<g>
				<path class="st2" d="M-5.98,163.79c0-8.87,0-13.31,0-22.18c0-0.13,0.07-0.25,0.21-0.36c0.14-0.11,0.3-0.17,0.48-0.18
					c3.75-0.17,5.63-0.3,9.38-0.62c0.21-0.02,0.39,0.02,0.54,0.12c0.15,0.09,0.22,0.21,0.22,0.35c0,3.64,0,5.47,0,9.11
					c2.81-0.15,4.22-0.25,7.03-0.47c0-3.74,0-5.6,0-9.34c0-0.14,0.06-0.27,0.2-0.4c0.13-0.13,0.29-0.2,0.49-0.22
					c3.75-0.44,5.63-0.69,9.38-1.25c0.21-0.03,0.39,0,0.54,0.09c0.15,0.09,0.22,0.21,0.22,0.36c0,9.83,0,14.74,0,24.57
					c0,0.13-0.07,0.26-0.22,0.38s-0.33,0.18-0.54,0.2c-3.75,0.23-5.63,0.32-9.38,0.44c-0.2,0.01-0.36-0.04-0.49-0.14
					c-0.13-0.1-0.2-0.21-0.2-0.34c0-3.15,0-4.73,0-7.88c-2.81,0.16-4.22,0.23-7.03,0.31c0,3.07,0,4.61,0,7.68
					c0,0.12-0.07,0.24-0.22,0.34c-0.15,0.1-0.33,0.15-0.54,0.15c-3.75,0-5.63-0.04-9.38-0.19c-0.16-0.01-0.32-0.06-0.46-0.17
					C-5.91,164.02-5.98,163.91-5.98,163.79z"/>
				<path class="st2" d="M23.68,163.32c3.93-8.82,7.71-17.73,11.34-26.68c0.08-0.14,0.24-0.29,0.49-0.44
					c0.24-0.15,0.48-0.25,0.71-0.3c4.09-0.78,6.14-1.19,10.23-2.07c0.23-0.05,0.47-0.04,0.71,0.02c0.24,0.06,0.41,0.15,0.49,0.26
					c4.54,9.73,6.8,14.76,11.34,25.16c0.08,0.11,0.08,0.23-0.01,0.37c-0.09,0.14-0.23,0.22-0.43,0.25
					c-3.98,0.59-5.97,0.87-9.94,1.39c-0.47,0.06-0.82-0.07-1.05-0.4c-0.6-1.62-0.9-2.42-1.49-4.02c-3.77,0.53-5.66,0.78-9.43,1.23
					c-0.61,1.71-0.91,2.56-1.52,4.25c-0.23,0.36-0.58,0.57-1.05,0.62c-3.97,0.39-5.95,0.56-9.92,0.83c-0.2,0.01-0.34-0.03-0.44-0.13
					S23.59,163.43,23.68,163.32z M38.64,152.24c2.16-0.31,3.25-0.47,5.41-0.8c-1.09-2.86-1.63-4.28-2.72-7.1
					C40.25,147.52,39.71,149.1,38.64,152.24z"/>
				<path class="st2" d="M59.99,159.08c0-11.07,0-16.6,0-27.67c0-0.16,0.07-0.33,0.21-0.49c0.14-0.16,0.3-0.27,0.48-0.31
					c3.75-0.89,5.63-1.35,9.38-2.29c0.21-0.05,0.39-0.03,0.54,0.07c0.15,0.1,0.22,0.23,0.22,0.4c0,4.51,0,6.77,0,11.28
					c2.81-0.61,4.22-0.91,7.03-1.54c0-4.6,0-6.91,0-11.51c0-0.17,0.06-0.34,0.2-0.51c0.13-0.17,0.29-0.28,0.49-0.33
					c3.75-0.96,5.63-1.45,9.38-2.43c0.21-0.06,0.39-0.03,0.54,0.07c0.15,0.1,0.22,0.24,0.22,0.42c0,10.02,0,20.04,0,30.06
					c0,0.16-0.07,0.32-0.22,0.48c-0.15,0.16-0.33,0.26-0.54,0.29c-3.75,0.65-5.63,0.98-9.38,1.61c-0.2,0.03-0.36,0-0.49-0.11
					c-0.13-0.11-0.2-0.24-0.2-0.39c0-3.88,0-5.83,0-9.71c-2.81,0.56-4.22,0.83-7.03,1.38c0,3.81,0,5.71,0,9.51
					c0,0.15-0.07,0.3-0.22,0.45c-0.15,0.15-0.33,0.24-0.54,0.27c-3.75,0.61-5.63,0.91-9.38,1.48c-0.16,0.02-0.32-0.01-0.46-0.11
					C60.06,159.35,59.99,159.23,59.99,159.08z"/>
				<path class="st2" d="M89.64,154.17c3.88-11.04,7.65-22.11,11.34-33.21c0.08-0.17,0.24-0.36,0.49-0.55
					c0.24-0.19,0.48-0.32,0.71-0.38c4.09-1.06,6.14-1.59,10.23-2.62c0.23-0.06,0.47-0.05,0.71,0.02c0.24,0.07,0.41,0.18,0.49,0.32
					c3.9,10.11,7.63,20.29,11.34,30.48c0.08,0.13,0.08,0.28-0.01,0.44c-0.09,0.16-0.23,0.26-0.43,0.29
					c-3.98,0.6-5.97,0.92-9.94,1.57c-0.47,0.08-0.82-0.08-1.05-0.47c-0.6-1.94-0.9-2.91-1.49-4.84c-3.77,0.68-5.66,1.03-9.43,1.73
					c-0.61,2.1-0.91,3.14-1.52,5.22c-0.23,0.45-0.58,0.72-1.05,0.8c-3.97,0.69-5.95,1.03-9.92,1.72c-0.2,0.03-0.34-0.01-0.44-0.12
					C89.57,154.45,89.56,154.31,89.64,154.17z M104.6,139.77c2.16-0.44,3.25-0.66,5.41-1.09c-1.09-3.44-1.63-5.15-2.72-8.54
					C106.22,134.01,105.68,135.94,104.6,139.77z"/>
				<path class="st2" d="M125.96,148.02c0-11.06,0-22.11,0-33.17c0-0.2,0.07-0.39,0.21-0.58c0.14-0.19,0.3-0.3,0.48-0.35
					c3.75-0.88,5.63-1.31,9.38-2.13c0.21-0.05,0.39-0.01,0.54,0.12c0.15,0.13,0.22,0.29,0.22,0.49c0,5.38,0,8.07,0,13.45
					c2.81-0.51,4.22-0.76,7.03-1.23c0-5.47,0-8.21,0-13.68c0-0.2,0.06-0.4,0.2-0.59c0.13-0.19,0.29-0.3,0.49-0.34
					c3.75-0.75,5.63-1.11,9.38-1.77c0.21-0.04,0.39,0.01,0.54,0.16c0.15,0.14,0.22,0.32,0.22,0.53c0,11.85,0,23.7,0,35.56
					c0,0.19-0.07,0.37-0.22,0.54c-0.15,0.17-0.33,0.27-0.54,0.28c-3.75,0.34-5.63,0.53-9.38,0.95c-0.2,0.02-0.36-0.04-0.49-0.17
					c-0.13-0.14-0.2-0.3-0.2-0.48c0-4.62,0-6.92,0-11.54c-2.81,0.41-4.22,0.62-7.03,1.07c0,4.54,0,6.81,0,11.34
					c0,0.18-0.07,0.36-0.22,0.52c-0.15,0.17-0.33,0.27-0.54,0.29c-3.75,0.49-5.63,0.76-9.38,1.31c-0.16,0.02-0.32-0.03-0.46-0.15
					C126.03,148.35,125.96,148.2,125.96,148.02z"/>
				<path class="st2" d="M155.61,144.46c3.85-12.49,7.63-25,11.34-37.53c0.08-0.19,0.24-0.38,0.49-0.57
					c0.24-0.19,0.48-0.3,0.71-0.33c4.09-0.54,6.14-0.78,10.23-1.17c0.23-0.02,0.47,0.03,0.71,0.17c0.24,0.13,0.41,0.29,0.49,0.47
					c3.89,12.63,7.67,25.3,11.34,38c0.08,0.17,0.08,0.35-0.01,0.51c-0.09,0.17-0.23,0.25-0.43,0.24c-3.98-0.16-5.97-0.2-9.94-0.2
					c-0.47,0-0.82-0.25-1.05-0.75c-0.6-2.39-0.9-3.58-1.49-5.95c-3.77,0.09-5.66,0.18-9.43,0.4c-0.61,2.37-0.91,3.55-1.52,5.91
					c-0.23,0.5-0.58,0.76-1.05,0.78c-3.97,0.21-5.95,0.35-9.92,0.68c-0.2,0.02-0.34-0.05-0.44-0.2
					C155.54,144.78,155.53,144.62,155.61,144.46z M170.57,129.66c2.16-0.15,3.25-0.22,5.41-0.33c-1.09-4.24-1.63-6.34-2.72-10.52
					C172.19,123.17,171.65,125.34,170.57,129.66z"/>
			</g>
		</g>
		<g>
			<g>
				<path class="st2" d="M-5.98,213.79c0-8.87,0-13.31,0-22.18c0-0.13,0.07-0.25,0.21-0.36c0.14-0.11,0.3-0.17,0.48-0.18
					c3.75-0.17,5.63-0.3,9.38-0.62c0.21-0.02,0.39,0.02,0.54,0.12c0.15,0.09,0.22,0.21,0.22,0.35c0,3.64,0,5.47,0,9.11
					c2.81-0.15,4.22-0.25,7.03-0.47c0-3.74,0-5.6,0-9.34c0-0.14,0.06-0.27,0.2-0.4c0.13-0.13,0.29-0.2,0.49-0.22
					c3.75-0.44,5.63-0.69,9.38-1.25c0.21-0.03,0.39,0,0.54,0.09c0.15,0.09,0.22,0.21,0.22,0.36c0,9.83,0,14.74,0,24.57
					c0,0.13-0.07,0.26-0.22,0.38c-0.15,0.12-0.33,0.18-0.54,0.2c-3.75,0.23-5.63,0.32-9.38,0.44c-0.2,0.01-0.36-0.04-0.49-0.14
					c-0.13-0.1-0.2-0.21-0.2-0.34c0-3.15,0-4.73,0-7.88c-2.81,0.16-4.22,0.23-7.03,0.31c0,3.07,0,4.61,0,7.68
					c0,0.12-0.07,0.24-0.22,0.34c-0.15,0.1-0.33,0.15-0.54,0.15c-3.75,0-5.63-0.04-9.38-0.19c-0.16-0.01-0.32-0.06-0.46-0.17
					C-5.91,214.02-5.98,213.91-5.98,213.79z"/>
				<path class="st2" d="M23.68,213.32c3.93-8.82,7.71-17.73,11.34-26.68c0.08-0.14,0.24-0.29,0.49-0.44
					c0.24-0.15,0.48-0.25,0.71-0.3c4.09-0.78,6.14-1.19,10.23-2.07c0.23-0.05,0.47-0.04,0.71,0.02c0.24,0.06,0.41,0.15,0.49,0.26
					c4.54,9.73,6.8,14.76,11.34,25.16c0.08,0.11,0.08,0.23-0.01,0.37c-0.09,0.14-0.23,0.22-0.43,0.25
					c-3.98,0.59-5.97,0.87-9.94,1.39c-0.47,0.06-0.82-0.07-1.05-0.4c-0.6-1.62-0.9-2.42-1.49-4.02c-3.77,0.53-5.66,0.78-9.43,1.23
					c-0.61,1.71-0.91,2.56-1.52,4.25c-0.23,0.36-0.58,0.57-1.05,0.62c-3.97,0.39-5.95,0.56-9.92,0.83c-0.2,0.01-0.34-0.03-0.44-0.13
					S23.59,213.43,23.68,213.32z M38.64,202.24c2.16-0.31,3.25-0.47,5.41-0.8c-1.09-2.86-1.63-4.28-2.72-7.1
					C40.25,197.52,39.71,199.1,38.64,202.24z"/>
				<path class="st2" d="M59.99,209.08c0-11.07,0-16.6,0-27.67c0-0.16,0.07-0.33,0.21-0.49c0.14-0.16,0.3-0.27,0.48-0.31
					c3.75-0.89,5.63-1.35,9.38-2.29c0.21-0.05,0.39-0.03,0.54,0.07c0.15,0.1,0.22,0.23,0.22,0.4c0,4.51,0,6.77,0,11.28
					c2.81-0.61,4.22-0.91,7.03-1.54c0-4.6,0-6.91,0-11.51c0-0.17,0.06-0.34,0.2-0.51c0.13-0.17,0.29-0.28,0.49-0.33
					c3.75-0.96,5.63-1.45,9.38-2.43c0.21-0.06,0.39-0.03,0.54,0.07c0.15,0.1,0.22,0.24,0.22,0.42c0,10.02,0,20.04,0,30.06
					c0,0.16-0.07,0.32-0.22,0.48c-0.15,0.16-0.33,0.26-0.54,0.29c-3.75,0.65-5.63,0.98-9.38,1.61c-0.2,0.03-0.36,0-0.49-0.11
					c-0.13-0.11-0.2-0.24-0.2-0.39c0-3.88,0-5.83,0-9.71c-2.81,0.56-4.22,0.83-7.03,1.38c0,3.81,0,5.71,0,9.51
					c0,0.15-0.07,0.3-0.22,0.45c-0.15,0.15-0.33,0.24-0.54,0.27c-3.75,0.61-5.63,0.91-9.38,1.48c-0.16,0.02-0.32-0.01-0.46-0.11
					C60.06,209.35,59.99,209.23,59.99,209.08z"/>
				<path class="st2" d="M89.64,204.17c3.88-11.04,7.65-22.11,11.34-33.21c0.08-0.17,0.24-0.36,0.49-0.55
					c0.24-0.19,0.48-0.32,0.71-0.38c4.09-1.06,6.14-1.59,10.23-2.62c0.23-0.06,0.47-0.05,0.71,0.02c0.24,0.07,0.41,0.18,0.49,0.32
					c3.9,10.11,7.63,20.29,11.34,30.48c0.08,0.13,0.08,0.28-0.01,0.44c-0.09,0.16-0.23,0.26-0.43,0.29
					c-3.98,0.6-5.97,0.92-9.94,1.57c-0.47,0.08-0.82-0.08-1.05-0.47c-0.6-1.94-0.9-2.91-1.49-4.84c-3.77,0.68-5.66,1.03-9.43,1.73
					c-0.61,2.1-0.91,3.14-1.52,5.22c-0.23,0.45-0.58,0.72-1.05,0.8c-3.97,0.69-5.95,1.03-9.92,1.72c-0.2,0.03-0.34-0.01-0.44-0.12
					C89.57,204.45,89.56,204.31,89.64,204.17z M104.6,189.77c2.16-0.44,3.25-0.66,5.41-1.09c-1.09-3.44-1.63-5.15-2.72-8.54
					C106.22,184.01,105.68,185.94,104.6,189.77z"/>
				<path class="st2" d="M125.96,198.02c0-11.06,0-22.11,0-33.17c0-0.2,0.07-0.39,0.21-0.58c0.14-0.19,0.3-0.3,0.48-0.35
					c3.75-0.88,5.63-1.31,9.38-2.13c0.21-0.05,0.39-0.01,0.54,0.12c0.15,0.13,0.22,0.29,0.22,0.49c0,5.38,0,8.07,0,13.45
					c2.81-0.51,4.22-0.76,7.03-1.23c0-5.47,0-8.21,0-13.68c0-0.2,0.06-0.4,0.2-0.59c0.13-0.19,0.29-0.3,0.49-0.34
					c3.75-0.75,5.63-1.11,9.38-1.77c0.21-0.04,0.39,0.01,0.54,0.16c0.15,0.14,0.22,0.32,0.22,0.53c0,11.85,0,23.7,0,35.56
					c0,0.19-0.07,0.37-0.22,0.54c-0.15,0.17-0.33,0.27-0.54,0.28c-3.75,0.34-5.63,0.53-9.38,0.95c-0.2,0.02-0.36-0.04-0.49-0.17
					c-0.13-0.14-0.2-0.3-0.2-0.48c0-4.62,0-6.92,0-11.54c-2.81,0.41-4.22,0.62-7.03,1.07c0,4.54,0,6.81,0,11.34
					c0,0.18-0.07,0.36-0.22,0.52c-0.15,0.17-0.33,0.27-0.54,0.29c-3.75,0.49-5.63,0.76-9.38,1.31c-0.16,0.02-0.32-0.03-0.46-0.15
					C126.03,198.35,125.96,198.2,125.96,198.02z"/>
				<path class="st2" d="M155.61,194.46c3.85-12.49,7.63-25,11.34-37.53c0.08-0.19,0.24-0.38,0.49-0.57
					c0.24-0.19,0.48-0.3,0.71-0.33c4.09-0.54,6.14-0.78,10.23-1.17c0.23-0.02,0.47,0.03,0.71,0.17c0.24,0.13,0.41,0.29,0.49,0.47
					c3.89,12.63,7.67,25.3,11.34,38c0.08,0.17,0.08,0.35-0.01,0.51c-0.09,0.17-0.23,0.25-0.43,0.24c-3.98-0.16-5.97-0.2-9.94-0.2
					c-0.47,0-0.82-0.25-1.05-0.75c-0.6-2.39-0.9-3.58-1.49-5.95c-3.77,0.09-5.66,0.18-9.43,0.4c-0.61,2.37-0.91,3.55-1.52,5.91
					c-0.23,0.5-0.58,0.76-1.05,0.78c-3.97,0.21-5.95,0.35-9.92,0.68c-0.2,0.02-0.34-0.05-0.44-0.2
					C155.54,194.78,155.53,194.62,155.61,194.46z M170.57,179.66c2.16-0.15,3.25-0.22,5.41-0.33c-1.09-4.24-1.63-6.34-2.72-10.52
					C172.19,173.17,171.65,175.34,170.57,179.66z"/>
			</g>
		</g>
		<g>
			<g>
				<path class="st2" d="M-5.98,265.79c0-8.87,0-13.31,0-22.18c0-0.13,0.07-0.25,0.21-0.36c0.14-0.11,0.3-0.17,0.48-0.18
					c3.75-0.17,5.63-0.3,9.38-0.62c0.21-0.02,0.39,0.02,0.54,0.12c0.15,0.09,0.22,0.21,0.22,0.35c0,3.64,0,5.47,0,9.11
					c2.81-0.15,4.22-0.25,7.03-0.47c0-3.74,0-5.6,0-9.34c0-0.14,0.06-0.27,0.2-0.4c0.13-0.13,0.29-0.2,0.49-0.22
					c3.75-0.44,5.63-0.69,9.38-1.25c0.21-0.03,0.39,0,0.54,0.09c0.15,0.09,0.22,0.21,0.22,0.36c0,9.83,0,14.74,0,24.57
					c0,0.13-0.07,0.26-0.22,0.38s-0.33,0.18-0.54,0.2c-3.75,0.23-5.63,0.32-9.38,0.44c-0.2,0.01-0.36-0.04-0.49-0.14
					c-0.13-0.1-0.2-0.21-0.2-0.34c0-3.15,0-4.73,0-7.88c-2.81,0.16-4.22,0.23-7.03,0.31c0,3.07,0,4.61,0,7.68
					c0,0.12-0.07,0.24-0.22,0.34c-0.15,0.1-0.33,0.15-0.54,0.15c-3.75,0-5.63-0.04-9.38-0.19c-0.16-0.01-0.32-0.06-0.46-0.17
					C-5.91,266.02-5.98,265.91-5.98,265.79z"/>
				<path class="st2" d="M23.68,265.32c3.93-8.82,7.71-17.73,11.34-26.68c0.08-0.14,0.24-0.29,0.49-0.44
					c0.24-0.15,0.48-0.25,0.71-0.3c4.09-0.78,6.14-1.19,10.23-2.07c0.23-0.05,0.47-0.04,0.71,0.02c0.24,0.06,0.41,0.15,0.49,0.26
					c4.54,9.73,6.8,14.76,11.34,25.16c0.08,0.11,0.08,0.23-0.01,0.37c-0.09,0.14-0.23,0.22-0.43,0.25
					c-3.98,0.59-5.97,0.87-9.94,1.39c-0.47,0.06-0.82-0.07-1.05-0.4c-0.6-1.62-0.9-2.42-1.49-4.02c-3.77,0.53-5.66,0.78-9.43,1.23
					c-0.61,1.71-0.91,2.56-1.52,4.25c-0.23,0.36-0.58,0.57-1.05,0.62c-3.97,0.39-5.95,0.56-9.92,0.83c-0.2,0.01-0.34-0.03-0.44-0.13
					C23.6,265.54,23.59,265.43,23.68,265.32z M38.64,254.24c2.16-0.31,3.25-0.47,5.41-0.8c-1.09-2.86-1.63-4.28-2.72-7.1
					C40.25,249.52,39.71,251.1,38.64,254.24z"/>
				<path class="st2" d="M59.99,261.08c0-11.07,0-16.6,0-27.67c0-0.16,0.07-0.33,0.21-0.49c0.14-0.16,0.3-0.27,0.48-0.31
					c3.75-0.89,5.63-1.35,9.38-2.29c0.21-0.05,0.39-0.03,0.54,0.07c0.15,0.1,0.22,0.23,0.22,0.4c0,4.51,0,6.77,0,11.28
					c2.81-0.61,4.22-0.91,7.03-1.54c0-4.6,0-6.91,0-11.51c0-0.17,0.06-0.34,0.2-0.51c0.13-0.17,0.29-0.28,0.49-0.33
					c3.75-0.96,5.63-1.45,9.38-2.43c0.21-0.06,0.39-0.03,0.54,0.07c0.15,0.1,0.22,0.24,0.22,0.42c0,10.02,0,20.04,0,30.06
					c0,0.16-0.07,0.32-0.22,0.48c-0.15,0.16-0.33,0.26-0.54,0.29c-3.75,0.65-5.63,0.98-9.38,1.61c-0.2,0.03-0.36,0-0.49-0.11
					c-0.13-0.11-0.2-0.24-0.2-0.39c0-3.88,0-5.83,0-9.71c-2.81,0.56-4.22,0.84-7.03,1.38c0,3.81,0,5.71,0,9.51
					c0,0.15-0.07,0.3-0.22,0.45c-0.15,0.15-0.33,0.24-0.54,0.27c-3.75,0.61-5.63,0.91-9.38,1.48c-0.16,0.02-0.32-0.01-0.46-0.11
					C60.06,261.35,59.99,261.23,59.99,261.08z"/>
				<path class="st2" d="M89.64,256.17c3.88-11.04,7.65-22.11,11.34-33.21c0.08-0.17,0.24-0.36,0.49-0.55
					c0.24-0.19,0.48-0.32,0.71-0.38c4.09-1.06,6.14-1.59,10.23-2.62c0.23-0.06,0.47-0.05,0.71,0.02c0.24,0.07,0.41,0.18,0.49,0.32
					c3.9,10.11,7.63,20.29,11.34,30.48c0.08,0.13,0.08,0.28-0.01,0.44c-0.09,0.16-0.23,0.26-0.43,0.29
					c-3.98,0.6-5.97,0.92-9.94,1.57c-0.47,0.08-0.82-0.08-1.05-0.47c-0.6-1.94-0.9-2.91-1.49-4.84c-3.77,0.68-5.66,1.03-9.43,1.73
					c-0.61,2.1-0.91,3.14-1.52,5.22c-0.23,0.45-0.58,0.72-1.05,0.8c-3.97,0.69-5.95,1.03-9.92,1.72c-0.2,0.03-0.34-0.01-0.44-0.12
					C89.57,256.45,89.56,256.31,89.64,256.17z M104.6,241.77c2.16-0.44,3.25-0.66,5.41-1.09c-1.09-3.44-1.63-5.15-2.72-8.54
					C106.22,236.01,105.68,237.94,104.6,241.77z"/>
				<path class="st2" d="M125.96,250.02c0-11.06,0-22.11,0-33.17c0-0.2,0.07-0.39,0.21-0.58c0.14-0.19,0.3-0.3,0.48-0.35
					c3.75-0.88,5.63-1.31,9.38-2.13c0.21-0.05,0.39-0.01,0.54,0.12c0.15,0.13,0.22,0.29,0.22,0.49c0,5.38,0,8.07,0,13.45
					c2.81-0.51,4.22-0.76,7.03-1.23c0-5.47,0-8.21,0-13.68c0-0.2,0.06-0.4,0.2-0.59c0.13-0.19,0.29-0.3,0.49-0.34
					c3.75-0.75,5.63-1.11,9.38-1.77c0.21-0.04,0.39,0.01,0.54,0.16c0.15,0.14,0.22,0.32,0.22,0.53c0,11.85,0,23.7,0,35.56
					c0,0.19-0.07,0.37-0.22,0.54c-0.15,0.17-0.33,0.27-0.54,0.28c-3.75,0.34-5.63,0.53-9.38,0.95c-0.2,0.02-0.36-0.04-0.49-0.17
					c-0.13-0.14-0.2-0.3-0.2-0.48c0-4.62,0-6.92,0-11.54c-2.81,0.41-4.22,0.62-7.03,1.07c0,4.54,0,6.81,0,11.34
					c0,0.18-0.07,0.36-0.22,0.52c-0.15,0.17-0.33,0.27-0.54,0.29c-3.75,0.49-5.63,0.76-9.38,1.31c-0.16,0.02-0.32-0.03-0.46-0.15
					C126.03,250.35,125.96,250.2,125.96,250.02z"/>
				<path class="st2" d="M155.61,246.46c3.85-12.49,7.63-25,11.34-37.53c0.08-0.19,0.24-0.38,0.49-0.57
					c0.24-0.19,0.48-0.3,0.71-0.33c4.09-0.54,6.14-0.78,10.23-1.17c0.23-0.02,0.47,0.03,0.71,0.17c0.24,0.13,0.41,0.29,0.49,0.47
					c3.89,12.63,7.67,25.3,11.34,38c0.08,0.17,0.08,0.35-0.01,0.51c-0.09,0.17-0.23,0.25-0.43,0.24c-3.98-0.16-5.97-0.2-9.94-0.2
					c-0.47,0-0.82-0.25-1.05-0.75c-0.6-2.39-0.9-3.58-1.49-5.95c-3.77,0.09-5.66,0.18-9.43,0.4c-0.61,2.37-0.91,3.55-1.52,5.91
					c-0.23,0.5-0.58,0.76-1.05,0.78c-3.97,0.21-5.95,0.35-9.92,0.68c-0.2,0.02-0.34-0.05-0.44-0.2
					C155.54,246.78,155.53,246.62,155.61,246.46z M170.57,231.66c2.16-0.15,3.25-0.22,5.41-0.33c-1.09-4.24-1.63-6.34-2.72-10.52
					C172.19,225.17,171.65,227.34,170.57,231.66z"/>
			</g>
		</g>
	</g>
</g>
<g id="Jacket">
</g>
<g id="OBJECTS">
	<g>
		<polygon class="st3" points="274.28,155.93 286.96,188.94 240.75,173.6 221.84,210.81 200.97,178.18 167.68,200.72 156.94,167.91 
			120.99,189.94 122.84,149.48 83.18,154.71 107.48,122.11 84.7,91.94 121.74,95.99 125.25,61.62 150.15,89.47 179.98,55.32 
			195.79,88.31 226.18,64.82 238.96,103.67 287.8,88.26 279.29,123.04 311.18,139.09 		"/>
		<g>
			<g>
				<polygon class="st3" points="100.92,163.19 105.53,168.4 119.01,154.39 				"/>
				<polygon class="st3" points="113.2,169.38 117.7,170.44 119.63,157.67 				"/>
			</g>
			<polygon class="st3" points="120.44,93.25 115.14,74.18 108.45,78.58 			"/>
			<g>
				<polygon class="st3" points="242.81,97.96 253.94,81.57 260.32,86.52 				"/>
				<polygon class="st3" points="241.58,96.21 241.2,69.31 251.9,70 				"/>
			</g>
			<g>
				<polygon class="st3" points="243.83,178.23 261.27,195.53 253.82,201.22 				"/>
				<polygon class="st3" points="242.55,180.13 244.85,196.66 238.48,196.67 				"/>
			</g>
			<polygon class="st3" points="276.98,157 304.55,158.76 302.16,166.44 			"/>
		</g>
	</g>
</g>
<g>
	<g>
		<path class="st4" d="M144.2,154.19v-42.94c0-0.23,0.08-0.44,0.25-0.63c0.17-0.19,0.38-0.29,0.63-0.29h29.01
			c0.27,0,0.51,0.1,0.7,0.29s0.29,0.4,0.29,0.63v9.81c0,0.28-0.09,0.51-0.27,0.7s-0.42,0.29-0.71,0.29h-16.5v5.9h13.04
			c0.27,0,0.5,0.09,0.67,0.27c0.17,0.18,0.23,0.38,0.19,0.59l-0.92,9.08c-0.04,0.21-0.17,0.41-0.38,0.59
			c-0.21,0.18-0.46,0.27-0.73,0.27H157.6v15.52c0,0.23-0.1,0.44-0.3,0.63s-0.43,0.29-0.68,0.29h-11.52c-0.23,0-0.44-0.11-0.62-0.32
			S144.2,154.42,144.2,154.19z"/>
		<path class="st4" d="M177.37,138.54v-27.1c0-0.3,0.11-0.56,0.33-0.78c0.22-0.22,0.48-0.33,0.78-0.33h11.2
			c0.32,0,0.58,0.11,0.78,0.33c0.2,0.22,0.3,0.48,0.3,0.78v28.23c0,1.48,0.4,2.63,1.21,3.47c0.8,0.83,1.93,1.25,3.37,1.25
			c1.42,0,2.53-0.41,3.33-1.24c0.8-0.82,1.21-1.96,1.21-3.42v-28.29c0-0.3,0.12-0.55,0.35-0.78c0.23-0.22,0.49-0.33,0.76-0.33h11.17
			c0.32,0,0.58,0.11,0.79,0.33c0.21,0.22,0.32,0.48,0.32,0.78v27.1c0,5.75-1.52,10.12-4.55,13.09c-3.04,2.97-7.49,4.46-13.38,4.46
			c-5.82,0-10.25-1.49-13.3-4.46S177.43,144.3,177.37,138.54z"/>
		<path class="st4" d="M217.55,154.25v-42.94c0-0.25,0.08-0.48,0.25-0.68c0.17-0.2,0.38-0.3,0.63-0.3h11.27
			c0.7,0,1.2,0.29,1.49,0.86l11.24,20.19v-20.06c0-0.25,0.09-0.48,0.29-0.68c0.19-0.2,0.4-0.3,0.63-0.3h11.49
			c0.28,0,0.51,0.1,0.7,0.3c0.19,0.2,0.29,0.43,0.29,0.68v42.94c0,0.23-0.1,0.44-0.29,0.63c-0.19,0.19-0.42,0.29-0.7,0.29h-11.23
			c-0.55,0-1.01-0.29-1.37-0.86l-11.3-20.22v20.15c0,0.23-0.1,0.44-0.29,0.63c-0.19,0.19-0.42,0.29-0.7,0.29h-11.52
			c-0.25,0-0.47-0.1-0.63-0.29C217.63,154.7,217.55,154.49,217.55,154.25z"/>
	</g>
	<g>
		<path class="st5" d="M137.2,152.19v-42.94c0-0.23,0.08-0.44,0.25-0.63c0.17-0.19,0.38-0.29,0.63-0.29h29.01
			c0.27,0,0.51,0.1,0.7,0.29s0.29,0.4,0.29,0.63v9.81c0,0.28-0.09,0.51-0.27,0.7s-0.42,0.29-0.71,0.29h-16.5v5.9h13.04
			c0.27,0,0.5,0.09,0.67,0.27c0.17,0.18,0.23,0.38,0.19,0.59l-0.92,9.08c-0.04,0.21-0.17,0.41-0.38,0.59
			c-0.21,0.18-0.46,0.27-0.73,0.27H150.6v15.52c0,0.23-0.1,0.44-0.3,0.63s-0.43,0.29-0.68,0.29h-11.52c-0.23,0-0.44-0.11-0.62-0.32
			S137.2,152.42,137.2,152.19z"/>
		<path class="st5" d="M170.37,136.54v-27.1c0-0.3,0.11-0.56,0.33-0.78c0.22-0.22,0.48-0.33,0.78-0.33h11.2
			c0.32,0,0.58,0.11,0.78,0.33c0.2,0.22,0.3,0.48,0.3,0.78v28.23c0,1.48,0.4,2.63,1.21,3.47c0.8,0.83,1.93,1.25,3.37,1.25
			c1.42,0,2.53-0.41,3.33-1.24c0.8-0.82,1.21-1.96,1.21-3.42v-28.29c0-0.3,0.12-0.55,0.35-0.78c0.23-0.22,0.49-0.33,0.76-0.33h11.17
			c0.32,0,0.58,0.11,0.79,0.33c0.21,0.22,0.32,0.48,0.32,0.78v27.1c0,5.75-1.52,10.12-4.55,13.09c-3.04,2.97-7.49,4.46-13.38,4.46
			c-5.82,0-10.25-1.49-13.3-4.46S170.43,142.3,170.37,136.54z"/>
		<path class="st5" d="M210.55,152.25v-42.94c0-0.25,0.08-0.48,0.25-0.68c0.17-0.2,0.38-0.3,0.63-0.3h11.27
			c0.7,0,1.2,0.29,1.49,0.86l11.24,20.19v-20.06c0-0.25,0.09-0.48,0.29-0.68c0.19-0.2,0.4-0.3,0.63-0.3h11.49
			c0.28,0,0.51,0.1,0.7,0.3c0.19,0.2,0.29,0.43,0.29,0.68v42.94c0,0.23-0.1,0.44-0.29,0.63c-0.19,0.19-0.42,0.29-0.7,0.29h-11.23
			c-0.55,0-1.01-0.29-1.37-0.86l-11.3-20.22v20.15c0,0.23-0.1,0.44-0.29,0.63c-0.19,0.19-0.42,0.29-0.7,0.29h-11.52
			c-0.25,0-0.47-0.1-0.63-0.29C210.63,152.7,210.55,152.49,210.55,152.25z"/>
	</g>
</g>
</svg>
