<?xml version="1.0" encoding="UTF-8"?><svg id="Capa_1" xmlns="http://www.w3.org/2000/svg" viewBox="0 0 1066 613.1"><defs><style>.cls-1{fill:none;}.cls-2{fill:#f3fffc;}.cls-3,.cls-4{fill:#fb3d2c;}.cls-5,.cls-6{fill:#f9e633;}.cls-7,.cls-8,.cls-9,.cls-10{fill:#fd8a25;}.cls-11{fill:#d98d4f;}.cls-12,.cls-13,.cls-14{fill:#421d70;}.cls-15{fill:#3dbfee;}.cls-16,.cls-17{fill:#1898cc;}.cls-18{fill:#53f16b;}.cls-19,.cls-8,.cls-20,.cls-13,.cls-17,.cls-21,.cls-22,.cls-23,.cls-9,.cls-24,.cls-25,.cls-14{stroke-miterlimit:10;}.cls-19,.cls-8,.cls-20,.cls-13,.cls-17,.cls-21,.cls-22,.cls-23,.cls-9,.cls-24,.cls-14,.cls-10,.cls-26,.cls-27,.cls-4,.cls-6{stroke:#421d70;}.cls-19,.cls-8,.cls-20,.cls-13,.cls-17,.cls-21,.cls-22,.cls-23,.cls-10,.cls-26,.cls-27,.cls-4,.cls-6{stroke-width:2px;}.cls-19,.cls-24,.cls-25{fill:#fff;}.cls-20{fill:#816fad;}.cls-21{fill:#128051;}.cls-22{fill:#8a46e1;}.cls-23{fill:#fb632d;}.cls-25{stroke:#816fad;}.cls-28{opacity:.54;}.cls-10,.cls-26,.cls-27,.cls-4,.cls-6{stroke-linejoin:round;}.cls-26{fill:#fed130;}.cls-27{fill:#db3028;}</style></defs><g><rect class="cls-15" x="-.66" y="1" width="1069.04" height="612.1"/><polygon class="cls-16" points="-.66 96.15 282.84 301.64 282.84 118.73 36.99 2.36 -.66 2.36 -.66 96.15"/><g><polygon class="cls-20" points="282.84 324.5 258.26 335.26 254.37 336.96 215.1 354.16 211.21 355.86 156.53 379.8 152.65 381.5 136.71 388.47 -.66 448.61 -.66 613.1 1068.39 613.1 1068.39 448.61 931.24 388.57 915.08 381.5 911.2 379.8 856.51 355.86 852.63 354.16 813.36 336.96 809.47 335.26 784.89 324.5 282.84 324.5"/><path class="cls-12" d="M279.91,475.46h168.03l-32,99.41H183.9l96.01-99.41Zm169.79,0h168.32l32.01,99.41h-232.33l32-99.41Zm170.08,0h168.03l96.01,99.41h-232.04l-32-99.41Zm-417.47-57.19h130.48l-53.59,55.49H113l89.32-55.49Zm132.83,0h131.21l-17.86,55.49h-166.94l53.59-55.49Zm132.97,0h131.5l17.87,55.49h-167.23l17.87-55.49Zm133.26,0h131.21l53.59,55.49h-166.94l-17.86-55.49Zm133.55,0h130.48l89.32,55.49h-166.21l-53.59-55.49Zm-473.4-36.78h106.8l-33.88,35.08H205.05l56.47-35.08Zm109.14,0h107.53l-11.29,35.08h-130.11l33.88-35.08Zm109.29,0h107.82l11.29,35.08h-130.41l11.29-35.08Zm109.58,0h107.53l33.88,35.08h-130.11l-11.3-35.08Zm109.87,0h106.8l56.47,35.08h-129.39l-33.88-35.08Zm-396.61-25.64h90.29l-23.12,23.94h-105.71l38.54-23.94Zm92.64,0h91.02l-7.71,23.94h-106.44l23.12-23.94Zm92.78,0h91.31l7.71,23.94h-106.73l7.71-23.94Zm93.07,0h91.02l23.12,23.94h-106.44l-7.71-23.94Zm93.36,0h90.3l38.54,23.94h-105.71l-23.12-23.94Zm-341.43-18.9h78.13l-16.61,17.2h-89.2l27.68-17.2Zm80.47,0h78.85l-5.54,17.2h-89.92l16.61-17.2Zm80.61,0h79.15l5.53,17.2h-90.22l5.53-17.2Zm80.9,0h78.85l16.61,17.2h-89.92l-5.54-17.2Zm81.2,0h78.12l27.68,17.2h-89.2l-16.61-17.2Zm58.06-12.46l17.33,10.76h-77.03l-10.4-10.76h-2.34l10.39,10.76h-77.76l-3.46-10.76h-1.76l3.46,10.76h-78.05l3.46-10.76h-1.76l-3.46,10.76h-77.76l10.4-10.76h-2.34l-10.4,10.76h-77.03l17.33-10.76h-3.21l-17.33,10.76h-74.48l-3.89,1.7h75.64l-27.68,17.2h-87.23l-3.89,1.7h88.37l-38.54,23.94h-104.52l-3.88,1.7h105.67l-56.47,35.08H73.38l63.33-28.11L-.66,448.61v.82l70.2-31.15H199.11l-89.32,55.49H-.66v1.7H107.06L-.66,542.38v2l110.92-68.91h167.31l-96.01,99.41H-.66v1.7H179.92l-35.28,36.53h2.34l35.28-36.53h233.14l-11.76,36.53h1.76l11.76-36.53h233.42l11.76,36.53h1.76l-11.76-36.53h233.13l35.28,36.53h2.34l-35.28-36.53h180.57v-1.7h-182.22l-96.01-99.41h167.31l110.92,68.91v-1.99l-107.71-66.92h107.71v-1.7h-110.45l-89.32-55.49h129.57l70.2,31.15v-.82l-137.15-60.04,63.12,28.01h-128.47l-56.46-35.08h105.67l-3.89-1.7h-104.52l-38.54-23.94h88.37l-3.88-1.7h-87.23l-27.68-17.2h75.63l-3.89-1.7h-74.48l-17.33-10.76h-3.21Z"/></g><rect class="cls-1" x="-.66" y="1" width="1069.04" height="612.1"/><rect class="cls-17" x="282.84" y="118.73" width="502.05" height="205.77"/><g><polygon class="cls-13" points="34.11 1 124.09 43.59 202.15 80.53 243.91 100.3 243.92 100.3 282.84 118.73 784.77 118.73 823.38 100.45 823.4 100.44 865.46 80.53 943.52 43.59 1033.49 1 34.11 1"/><g><polygon class="cls-20" points="163.96 1 243.47 43.59 326.43 43.59 269.65 1 163.96 1"/><polygon class="cls-20" points="34.11 1 124.09 43.59 160.49 43.59 58.27 1 34.11 1"/><polygon class="cls-20" points="406.06 103.3 354.94 103.3 312.44 80.53 375.71 80.53 406.06 103.3"/><polygon class="cls-20" points="303.82 103.29 252.7 103.29 243.92 100.3 243.91 100.3 202.15 80.53 249.18 80.53 303.82 103.29"/><polygon class="cls-20" points="438.97 80.53 375.71 80.53 326.44 43.58 409.41 43.58 438.97 80.53"/><polygon class="cls-20" points="312.44 80.53 249.18 80.53 160.49 43.58 243.46 43.58 312.44 80.53"/><polygon class="cls-20" points="469.53 118.73 426.64 118.73 406.06 103.3 457.18 103.3 469.53 118.73"/><polygon class="cls-20" points="383.75 118.73 340.87 118.73 303.82 103.3 354.94 103.3 383.75 118.73"/><polygon class="cls-20" points="508.31 103.3 457.18 103.3 438.97 80.53 502.23 80.53 508.31 103.3"/><polygon class="cls-20" points="555.31 118.73 512.42 118.73 508.31 103.3 559.43 103.3 555.31 118.73"/><polygon class="cls-20" points="375.34 1 409.41 43.59 492.38 43.59 481.02 1 375.34 1"/><polygon class="cls-20" points="565.5 80.53 502.23 80.53 492.38 43.58 575.35 43.58 565.5 80.53"/><polygon class="cls-20" points="610.55 103.3 559.43 103.3 565.5 80.53 628.76 80.53 610.55 103.3"/><polygon class="cls-20" points="641.09 118.73 598.2 118.73 610.55 103.3 661.67 103.3 641.09 118.73"/><polygon class="cls-20" points="586.71 1 575.35 43.59 658.32 43.59 692.39 1 586.71 1"/><polygon class="cls-20" points="692.02 80.53 628.76 80.53 658.32 43.58 741.29 43.58 692.02 80.53"/><polygon class="cls-20" points="818.55 80.53 755.29 80.53 824.27 43.58 907.24 43.58 818.55 80.53"/><polygon class="cls-20" points="712.79 103.3 661.67 103.3 692.02 80.53 755.29 80.53 712.79 103.3"/><polygon class="cls-20" points="865.46 80.53 823.4 100.44 823.38 100.45 815.03 103.29 763.91 103.29 818.55 80.53 865.46 80.53"/><polygon class="cls-20" points="798.08 1 741.3 43.59 824.26 43.59 903.77 1 798.08 1"/><polygon class="cls-20" points="1009.46 1 907.24 43.59 943.52 43.59 1033.49 1 1009.46 1"/><polygon class="cls-20" points="726.87 118.73 683.98 118.73 712.79 103.3 763.91 103.3 726.87 118.73"/></g></g><polygon class="cls-11" points="203.52 152.2 242.1 166.01 242.1 201.4 203.52 199.03 203.52 152.2"/><polygon class="cls-16" points="785.89 317.11 1069.39 134.8 1069.39 2 1034.49 2 785.89 119.73 785.89 317.11"/><polygon class="cls-16" points="1068.39 35.53 1068.39 402.21 804.76 294.05 804.76 151.75 1068.39 35.53"/><g><g><polygon class="cls-18" points="933.14 119.39 933.14 319.86 883.09 304.24 834.14 288.97 833.29 288.7 821.68 285.08 821.68 160.68 841.32 153.41 851.34 149.7 887.45 136.32 895.76 133.24 904.16 130.13 915.83 125.8 918.64 124.76 930.61 120.33 933.14 119.39"/><rect class="cls-10" x="933.13" y="106.52" width="3.7" height="222.27"/><g class="cls-28"><polygon class="cls-2" points="933.14 119.39 933.14 137.91 821.68 280.2 821.68 248.56 918.64 124.76 930.61 120.33 933.14 119.39"/><polygon class="cls-2" points="933.14 161.23 933.14 240.34 883.09 304.24 834.14 288.97 833.29 288.7 933.14 161.23"/><polygon class="cls-2" points="904.16 130.13 821.68 235.44 821.68 178.48 841.32 153.41 851.34 149.7 887.45 136.32 895.76 133.24 904.16 130.13"/></g><polygon class="cls-10" points="933.13 106.52 928.1 108.65 928.1 327.18 933.13 328.78 933.13 106.52"/><g><polygon class="cls-10" points="820.09 285.74 821.68 285.08 821.68 208.02 928.1 210.99 928.1 202.46 821.68 204.29 821.68 160.69 815.85 156.18 815.85 204.39 815.85 207.86 815.85 287.5 815.85 287.5 933.13 328.78 933.13 319.86 821.68 285.08 820.09 285.74"/><polygon class="cls-10" points="815.85 156.18 821.68 160.68 933.13 119.4 933.13 106.52 815.85 156.18"/></g></g><g><polygon class="cls-10" points="944.43 333.36 954.57 329.16 954.57 112.66 944.43 104.83 944.43 333.36"/><polygon class="cls-10" points="944.43 104.83 954.57 112.66 1068.39 70.5 1068.39 52.33 944.43 104.83"/><polygon class="cls-18" points="1068.39 70.49 1068.39 364.67 976.25 335.93 954.57 329.16 954.57 112.66 1006.18 93.55 1068.39 70.49"/><g class="cls-28"><polygon class="cls-2" points="1068.39 84.2 1068.39 115.84 999.62 203.64 993.08 211.99 954.57 261.16 954.57 229.52 968.83 211.31 974.5 204.07 1068.39 84.2"/><polygon class="cls-2" points="1068.39 139.17 1068.39 218.28 976.25 335.93 954.57 329.16 954.57 284.49 1010.97 212.49 1018.14 203.32 1068.39 139.17"/><polygon class="cls-2" points="1006.18 93.55 954.57 159.44 954.57 216.4 1069.02 70.26 1006.18 93.55"/></g><polygon class="cls-10" points="1068.39 202.46 1068.39 214.1 1010.97 212.49 993.08 211.99 968.83 211.31 958.77 211.03 954.57 210.92 944.43 210.63 944.43 204.59 954.57 204.41 964.08 204.25 974.5 204.07 999.62 203.64 1018.14 203.32 1068.39 202.46"/></g></g><polygon class="cls-10" points="944.43 333.36 1068.39 377 1068.39 364.67 954.57 329.16 944.43 333.36"/><polygon class="cls-12" points="255.6 146.08 255.6 336.43 249.53 339.09 192.77 363.94 192.77 116.47 255.6 146.08"/><g><polygon class="cls-8" points="249.53 149.93 249.53 339.09 192.77 363.94 192.77 123.18 249.53 149.93"/><polygon class="cls-23" points="203.52 152.2 242.1 166.01 242.1 201.4 203.52 199.03 203.52 152.2"/><polygon class="cls-19" points="206.47 156.42 239.57 168.27 239.57 198.63 206.47 196.59 206.47 156.42"/><path class="cls-12" d="M245.84,243.56c0,2.72-1.28,4.92-2.86,4.92s-2.86-2.2-2.86-4.92,1.28-4.92,2.86-4.92,2.86,2.2,2.86,4.92h0Z"/></g></g><g><g><polygon class="cls-6" points="593.19 517.11 598.43 517.11 598.78 363.89 588.24 363.89 593.19 517.11"/><polygon class="cls-6" points="468.78 517.11 463.54 517.11 463.19 363.89 473.73 363.89 468.78 517.11"/><polygon class="cls-6" points="648.98 403.47 413.29 403.47 461.58 359.38 600.69 359.38 648.98 403.47"/><polygon class="cls-26" points="649.15 411.11 413.13 411.11 413.29 403.47 648.98 403.47 649.15 411.11"/><polygon class="cls-6" points="423.2 567.02 417.91 567.02 418.28 411.11 428.91 411.11 423.2 567.02"/><polygon class="cls-6" points="639.07 567.02 644.36 567.02 644 411.11 633.37 411.11 639.07 567.02"/></g><g><polygon class="cls-6" points="462.61 502.96 449.82 612.1 454.84 612.1 474.47 502.96 462.61 502.96"/><polygon class="cls-6" points="587.68 502.96 607.31 612.1 612.34 612.1 599.54 502.96 587.68 502.96"/><polygon class="cls-26" points="602.18 474.55 460.1 474.55 455.52 421.99 606.76 421.99 602.18 474.55"/><polygon class="cls-6" points="606.7 417.66 455.58 417.66 455.52 421.99 606.76 421.99 606.7 417.66"/><polygon class="cls-26" points="594.78 542.64 467.37 542.64 458.05 498.45 604.1 498.45 594.78 542.64"/><polygon class="cls-6" points="594.88 551.36 467.28 551.36 467.37 542.64 594.78 542.64 594.88 551.36"/><polygon class="cls-26" points="458.06 498.45 457.96 506.12 467.28 551.36 467.37 542.64 458.06 498.45"/><polygon class="cls-26" points="604.1 498.45 604.2 506.12 594.88 551.36 594.78 542.64 604.1 498.45"/><polygon class="cls-6" points="474.87 434.59 473.73 547 466.28 612.1 474.19 612.1 485.68 547 486.58 434.59 474.87 434.59"/><polygon class="cls-6" points="575.57 434.59 576.47 547 587.96 612.1 595.87 612.1 588.42 547 587.28 434.59 575.57 434.59"/></g><g><polygon class="cls-6" points="404.94 520.46 399.69 520.46 401.31 367.06 411.86 367.06 404.94 520.46"/><polygon class="cls-6" points="205.95 520.46 211.2 520.46 223.39 367.06 212.85 367.06 205.95 520.46"/><polygon class="cls-6" points="147.14 403.47 359.12 403.47 423.15 359.38 212.87 359.38 147.14 403.47"/><polygon class="cls-26" points="358.88 411.11 146.61 411.11 147.14 403.47 359.12 403.47 358.88 411.11"/><polygon class="cls-26" points="358.88 411.11 359.12 403.47 423.25 359.38 423.04 367.66 358.88 411.11"/><polygon class="cls-6" points="345.21 567.02 339.91 567.02 342.42 411.11 353.05 411.11 345.21 567.02"/><polygon class="cls-6" points="144.57 567.02 149.86 567.02 163.07 411.11 152.44 411.11 144.57 567.02"/></g><g><polygon class="cls-6" points="173.5 470.88 315.17 470.88 317.2 418.39 176.86 418.39 173.5 470.88"/><polygon class="cls-26" points="169.46 474.55 311.22 474.55 313.29 421.99 172.86 421.99 169.46 474.55"/><polygon class="cls-6" points="305.96 511.83 318.95 612.1 324.55 612.1 317.84 511.83 305.96 511.83"/><polygon class="cls-6" points="192.04 511.83 175.47 612.1 181.08 612.1 203.91 511.83 192.04 511.83"/><polygon class="cls-26" points="160.89 551.36 294.65 551.36 324.42 507.03 191.7 507.03 160.89 551.36"/><polygon class="cls-6" points="160.32 560.1 294.28 560.1 294.65 551.36 160.89 551.36 160.32 560.1"/><polygon class="cls-6" points="294.28 560.1 294.65 551.36 324.42 507.03 324.04 517.31 294.28 560.1"/><polygon class="cls-6" points="270.84 439.44 265.32 557.11 275.01 612.1 283.27 612.1 277.04 557.11 282.31 439.44 270.84 439.44"/><polygon class="cls-6" points="185.21 439.44 177.88 557.11 165.76 612.1 174.01 612.1 189.6 557.11 196.69 439.44 185.21 439.44"/></g><g><polygon class="cls-6" points="657.34 520.46 662.59 520.46 660.96 367.06 650.42 367.06 657.34 520.46"/><polygon class="cls-6" points="856.33 520.46 851.08 520.46 838.88 367.06 849.43 367.06 856.33 520.46"/><polygon class="cls-6" points="915.13 403.47 703.16 403.47 639.13 359.38 849.41 359.38 915.13 403.47"/><polygon class="cls-26" points="703.4 411.11 915.67 411.11 915.13 403.47 703.16 403.47 703.4 411.11"/><polygon class="cls-26" points="703.4 411.11 703.16 403.47 639.02 359.38 639.24 367.66 703.4 411.11"/><polygon class="cls-6" points="717.07 567.02 722.36 567.02 719.86 411.11 709.22 411.11 717.07 567.02"/><polygon class="cls-6" points="917.71 567.02 912.42 567.02 899.21 411.11 909.84 411.11 917.71 567.02"/></g><g><polygon class="cls-6" points="888.78 470.88 747.11 470.88 745.08 418.39 885.42 418.39 888.78 470.88"/><polygon class="cls-26" points="892.82 474.55 751.06 474.55 748.99 421.99 889.42 421.99 892.82 474.55"/><polygon class="cls-6" points="744.44 511.83 737.72 612.1 743.33 612.1 756.31 511.83 744.44 511.83"/><polygon class="cls-6" points="858.37 511.83 881.2 612.1 886.8 612.1 870.24 511.83 858.37 511.83"/><polygon class="cls-26" points="901.39 551.36 767.63 551.36 737.86 507.03 870.57 507.03 901.39 551.36"/><polygon class="cls-6" points="901.96 560.1 767.99 560.1 767.63 551.36 901.39 551.36 901.96 560.1"/><polygon class="cls-6" points="767.99 560.1 767.63 551.36 737.86 507.03 738.24 517.31 767.99 560.1"/><polygon class="cls-6" points="779.96 439.44 785.24 557.11 779.01 612.1 787.26 612.1 796.96 557.11 791.44 439.44 779.96 439.44"/><polygon class="cls-6" points="865.59 439.44 872.67 557.11 888.27 612.1 896.52 612.1 884.39 557.11 877.06 439.44 865.59 439.44"/></g><g><polygon class="cls-6" points="622.55 457.77 627.53 612.1 639.08 612.1 639.43 457.77 622.55 457.77"/><polygon class="cls-6" points="422.35 457.77 422.71 612.1 434.25 612.1 439.23 457.77 422.35 457.77"/><polygon class="cls-6" points="719.8 521.15 342.48 521.15 419.79 450.56 642.49 450.56 719.8 521.15"/><polygon class="cls-26" points="720.06 533.37 342.22 533.37 342.48 521.15 719.8 521.15 720.06 533.37"/><polygon class="cls-26" points="350.46 533.37 350.27 612.1 364.6 612.1 367.48 533.37 350.46 533.37"/><polygon class="cls-26" points="694.79 533.37 697.68 612.1 712 612.1 711.82 533.37 694.79 533.37"/></g><g><polygon class="cls-26" points="410.08 550.8 415.42 612.1 646.85 612.1 652.2 550.8 410.08 550.8"/><polygon class="cls-6" points="652.1 543.86 410.18 543.86 410.08 550.8 652.2 550.8 652.1 543.86"/><polygon class="cls-6" points="441.06 570.96 440.64 612.1 459.48 612.1 459.81 570.96 441.06 570.96"/><polygon class="cls-6" points="602.27 570.96 602.6 612.1 621.44 612.1 621.02 570.96 602.27 570.96"/></g><g><polygon class="cls-26" points="323.3 462.85 321.73 612.1 333.46 612.1 340.19 462.85 323.3 462.85"/><polygon class="cls-26" points="21.58 462.85 14.87 612.1 26.6 612.1 38.47 462.85 21.58 462.85"/><polygon class="cls-6" points="21.62 450.56 -3.38 467.33 -3.38 521.15 255.75 521.15 358.25 450.56 21.62 450.56"/><polygon class="cls-26" points="-3.38 521.15 -3.38 533.37 255.37 533.37 255.75 521.15 -3.38 521.15"/><polygon class="cls-26" points="255.37 533.37 255.75 521.15 358.43 450.56 358.08 463.82 255.37 533.37"/><polygon class="cls-26" points="229.02 533.37 227.75 612.1 242.08 612.1 246.04 533.37 229.02 533.37"/></g><g><polygon class="cls-6" points="-3.38 545.03 -3.38 612.1 186.05 612.1 188.64 545.03 -3.38 545.03"/><polygon class="cls-26" points="-3.38 550.8 -3.38 612.1 179.97 612.1 182.39 550.8 -3.38 550.8"/><polygon class="cls-6" points="114.42 578.73 112.85 612.1 131.3 612.1 132.79 578.73 114.42 578.73"/></g><g><polygon class="cls-6" points="722.09 462.85 728.82 612.1 740.55 612.1 738.98 462.85 722.09 462.85"/><polygon class="cls-6" points="1023.81 462.85 1035.68 612.1 1047.41 612.1 1040.7 462.85 1023.81 462.85"/><polygon class="cls-6" points="704.02 450.56 806.53 521.15 1065.66 521.15 1065.66 467.33 1040.66 450.56 704.02 450.56"/><polygon class="cls-26" points="806.53 521.15 806.91 533.37 1065.66 533.37 1065.66 521.15 806.53 521.15"/><polygon class="cls-26" points="806.91 533.37 806.53 521.15 703.85 450.56 704.2 463.82 806.91 533.37"/><polygon class="cls-6" points="816.24 533.37 820.2 612.1 834.52 612.1 833.26 533.37 816.24 533.37"/></g><g><polygon class="cls-6" points="873.64 545.03 876.23 612.1 1065.66 612.1 1065.66 545.03 873.64 545.03"/><polygon class="cls-26" points="879.89 550.8 882.31 612.1 1065.66 612.1 1065.66 550.8 879.89 550.8"/><polygon class="cls-6" points="929.48 578.73 930.98 612.1 949.42 612.1 947.86 578.73 929.48 578.73"/></g></g><g><rect class="cls-22" x="393.73" y="176.26" width="274.82" height="116.55"/><rect class="cls-21" x="399.23" y="180.56" width="263.83" height="107.94"/></g><g><path class="cls-12" d="M556.31,153.52c0,11.99-9.72,21.7-21.7,21.7s-21.7-9.72-21.7-21.7,9.72-21.7,21.7-21.7,21.7,9.72,21.7,21.7h0Z"/><path class="cls-25" d="M555.05,151.62c0,11.99-9.72,21.7-21.7,21.7s-21.7-9.72-21.7-21.7,9.72-21.7,21.7-21.7,21.7,9.72,21.7,21.7h0Z"/><path class="cls-9" d="M552.76,151.62c0,10.72-8.69,19.41-19.41,19.41s-19.41-8.69-19.41-19.41,8.69-19.41,19.41-19.41,19.41,8.69,19.41,19.41h0Z"/><path class="cls-12" d="M533.34,132.21c-.37,0-.74,.01-1.1,.03,10.21,.57,18.31,9.03,18.31,19.38s-8.1,18.81-18.31,19.38c.36,.02,.73,.03,1.1,.03,10.72,0,19.41-8.69,19.41-19.41s-8.69-19.41-19.41-19.41Z"/><path class="cls-24" d="M543.82,155.08l-8.3-3.71c-.12-1.1-1.04-1.95-2.17-1.96l-6.56-11.4c-.31-.53-.99-.72-1.52-.41-.53,.31-.72,.99-.41,1.52l6.56,11.41c-.18,.32-.3,.69-.3,1.09,0,1.22,.99,2.21,2.21,2.21,.48,0,.92-.16,1.28-.41l8.29,3.71c.15,.07,.3,.1,.45,.1,.43,0,.83-.25,1.02-.66,.25-.56,0-1.22-.56-1.47Z"/></g><g><rect class="cls-24" x="310.29" y="185.67" width="58.48" height="61.37"/><rect class="cls-14" x="310.29" y="175.17" width="58.48" height="10.5"/><g><g><rect class="cls-3" x="316.56" y="200.41" width="4.08" height="4.08"/><path class="cls-12" d="M320.14,200.91v3.08h-3.08v-3.08h3.08m1-1h-5.08v5.08h5.08v-5.08h0Z"/></g><g><rect class="cls-3" x="327.03" y="200.41" width="4.08" height="4.08"/><path class="cls-12" d="M330.61,200.91v3.08h-3.08v-3.08h3.08m1-1h-5.08v5.08h5.08v-5.08h0Z"/></g><g><rect class="cls-3" x="337.49" y="200.41" width="4.08" height="4.08"/><path class="cls-12" d="M341.08,200.91v3.08h-3.08v-3.08h3.08m1-1h-5.08v5.08h5.08v-5.08h0Z"/></g><g><rect class="cls-3" x="347.96" y="200.41" width="4.08" height="4.08"/><path class="cls-12" d="M351.54,200.91v3.08h-3.08v-3.08h3.08m1-1h-5.08v5.08h5.08v-5.08h0Z"/></g><g><rect class="cls-3" x="358.43" y="200.41" width="4.08" height="4.08"/><path class="cls-12" d="M362.01,200.91v3.08h-3.08v-3.08h3.08m1-1h-5.08v5.08h5.08v-5.08h0Z"/></g><g><rect class="cls-3" x="316.56" y="207.62" width="4.08" height="4.08"/><path class="cls-12" d="M320.14,208.12v3.08h-3.08v-3.08h3.08m1-1h-5.08v5.08h5.08v-5.08h0Z"/></g><g><rect class="cls-3" x="327.03" y="207.62" width="4.08" height="4.08"/><path class="cls-12" d="M330.61,208.12v3.08h-3.08v-3.08h3.08m1-1h-5.08v5.08h5.08v-5.08h0Z"/></g><g><rect class="cls-3" x="337.49" y="207.62" width="4.08" height="4.08"/><path class="cls-12" d="M341.08,208.12v3.08h-3.08v-3.08h3.08m1-1h-5.08v5.08h5.08v-5.08h0Z"/></g><g><rect class="cls-3" x="347.96" y="207.62" width="4.08" height="4.08"/><path class="cls-12" d="M351.54,208.12v3.08h-3.08v-3.08h3.08m1-1h-5.08v5.08h5.08v-5.08h0Z"/></g><g><rect class="cls-3" x="358.43" y="207.62" width="4.08" height="4.08"/><path class="cls-12" d="M362.01,208.12v3.08h-3.08v-3.08h3.08m1-1h-5.08v5.08h5.08v-5.08h0Z"/></g><g><rect class="cls-3" x="316.56" y="214.83" width="4.08" height="4.08"/><path class="cls-12" d="M320.14,215.33v3.08h-3.08v-3.08h3.08m1-1h-5.08v5.08h5.08v-5.08h0Z"/></g><g><rect class="cls-3" x="327.03" y="214.83" width="4.08" height="4.08"/><path class="cls-12" d="M330.61,215.33v3.08h-3.08v-3.08h3.08m1-1h-5.08v5.08h5.08v-5.08h0Z"/></g><g><rect class="cls-3" x="337.49" y="214.83" width="4.08" height="4.08"/><path class="cls-12" d="M341.08,215.33v3.08h-3.08v-3.08h3.08m1-1h-5.08v5.08h5.08v-5.08h0Z"/></g><g><rect class="cls-3" x="347.96" y="214.83" width="4.08" height="4.08"/><path class="cls-12" d="M351.54,215.33v3.08h-3.08v-3.08h3.08m1-1h-5.08v5.08h5.08v-5.08h0Z"/></g><g><rect class="cls-3" x="358.43" y="214.83" width="4.08" height="4.08"/><path class="cls-12" d="M362.01,215.33v3.08h-3.08v-3.08h3.08m1-1h-5.08v5.08h5.08v-5.08h0Z"/></g><g><rect class="cls-3" x="316.56" y="222.03" width="4.08" height="4.08"/><path class="cls-12" d="M320.14,222.53v3.08h-3.08v-3.08h3.08m1-1h-5.08v5.08h5.08v-5.08h0Z"/></g><g><rect class="cls-3" x="327.03" y="222.03" width="4.08" height="4.08"/><path class="cls-12" d="M330.61,222.53v3.08h-3.08v-3.08h3.08m1-1h-5.08v5.08h5.08v-5.08h0Z"/></g><g><rect class="cls-3" x="337.49" y="222.03" width="4.08" height="4.08"/><path class="cls-12" d="M341.08,222.53v3.08h-3.08v-3.08h3.08m1-1h-5.08v5.08h5.08v-5.08h0Z"/></g><g><rect class="cls-3" x="347.96" y="222.03" width="4.08" height="4.08"/><path class="cls-12" d="M351.54,222.53v3.08h-3.08v-3.08h3.08m1-1h-5.08v5.08h5.08v-5.08h0Z"/></g><g><rect class="cls-3" x="358.43" y="222.03" width="4.08" height="4.08"/><path class="cls-12" d="M362.01,222.53v3.08h-3.08v-3.08h3.08m1-1h-5.08v5.08h5.08v-5.08h0Z"/></g><g><rect class="cls-3" x="316.56" y="229.24" width="4.08" height="4.08"/><path class="cls-12" d="M320.14,229.74v3.08h-3.08v-3.08h3.08m1-1h-5.08v5.08h5.08v-5.08h0Z"/></g><g><rect class="cls-3" x="327.03" y="229.24" width="4.08" height="4.08"/><path class="cls-12" d="M330.61,229.74v3.08h-3.08v-3.08h3.08m1-1h-5.08v5.08h5.08v-5.08h0Z"/></g><g><rect class="cls-3" x="337.49" y="229.24" width="4.08" height="4.08"/><path class="cls-12" d="M341.08,229.74v3.08h-3.08v-3.08h3.08m1-1h-5.08v5.08h5.08v-5.08h0Z"/></g><g><rect class="cls-3" x="347.96" y="229.24" width="4.08" height="4.08"/><path class="cls-12" d="M351.54,229.74v3.08h-3.08v-3.08h3.08m1-1h-5.08v5.08h5.08v-5.08h0Z"/></g><g><rect class="cls-3" x="358.43" y="229.24" width="4.08" height="4.08"/><path class="cls-12" d="M362.01,229.74v3.08h-3.08v-3.08h3.08m1-1h-5.08v5.08h5.08v-5.08h0Z"/></g><g><rect class="cls-3" x="316.56" y="236.45" width="4.08" height="4.08"/><path class="cls-12" d="M320.14,236.95v3.08h-3.08v-3.08h3.08m1-1h-5.08v5.08h5.08v-5.08h0Z"/></g><g><rect class="cls-3" x="327.03" y="236.45" width="4.08" height="4.08"/><path class="cls-12" d="M330.61,236.95v3.08h-3.08v-3.08h3.08m1-1h-5.08v5.08h5.08v-5.08h0Z"/></g><g><rect class="cls-3" x="337.49" y="236.45" width="4.08" height="4.08"/><path class="cls-12" d="M341.08,236.95v3.08h-3.08v-3.08h3.08m1-1h-5.08v5.08h5.08v-5.08h0Z"/></g><g><rect class="cls-3" x="347.96" y="236.45" width="4.08" height="4.08"/><path class="cls-12" d="M351.54,236.95v3.08h-3.08v-3.08h3.08m1-1h-5.08v5.08h5.08v-5.08h0Z"/></g><g><rect class="cls-3" x="358.43" y="236.45" width="4.08" height="4.08"/><path class="cls-12" d="M362.01,236.95v3.08h-3.08v-3.08h3.08m1-1h-5.08v5.08h5.08v-5.08h0Z"/></g><g><rect class="cls-3" x="316.56" y="192.45" width="45.95" height="2.4"/><path class="cls-12" d="M362.01,192.95v1.4h-44.95v-1.4h44.95m1-1h-46.95v3.4h46.95v-3.4h0Z"/></g></g></g><g><rect class="cls-4" x="687.21" y="215.99" width="90.09" height="114.43"/><g><rect class="cls-18" x="690.75" y="219.35" width="83.01" height="19.07"/><path class="cls-12" d="M772.76,220.35v17.07h-81.01v-17.07h81.01m2-2h-85.01v21.07h85.01v-21.07h0Z"/></g><rect class="cls-12" x="721.36" y="227.98" width="21.8" height="1.82"/><g><rect class="cls-7" x="690.75" y="241.87" width="83.01" height="19.07"/><path class="cls-12" d="M772.76,242.87v17.07h-81.01v-17.07h81.01m2-2h-85.01v21.07h85.01v-21.07h0Z"/></g><rect class="cls-12" x="721.36" y="250.5" width="21.8" height="1.82"/><g><rect class="cls-5" x="690.75" y="264.4" width="39.78" height="49.41"/><path class="cls-12" d="M729.53,265.4v47.4h-37.78v-47.4h37.78m2-2h-41.78v51.4h41.78v-51.4h0Z"/></g><rect class="cls-12" x="724.16" y="279.47" width="1.98" height="19.25"/><g><rect class="cls-5" x="734.1" y="264.4" width="39.66" height="49.41"/><path class="cls-12" d="M772.76,265.4v47.4h-37.66v-47.4h37.66m2-2h-41.66v51.4h41.66v-51.4h0Z"/></g><rect class="cls-12" x="738.47" y="279.47" width="1.98" height="19.25"/><rect class="cls-27" x="673.1" y="215.99" width="14.11" height="114.43"/></g><g><polygon class="cls-26" points="398.08 295.16 398.08 347.34 395.95 347.34 390.63 295.16 398.08 295.16"/><polygon class="cls-26" points="293.71 295.16 293.71 347.34 295.85 347.34 301.17 295.16 293.71 295.16"/><polygon class="cls-6" points="409.53 295.16 409.53 347.34 407.4 347.34 402.08 295.16 409.53 295.16"/><polygon class="cls-6" points="305.16 295.16 305.16 347.34 307.29 347.34 312.62 295.16 305.16 295.16"/><rect class="cls-6" x="305.16" y="268.89" width="104.37" height="40.47"/><rect class="cls-26" x="293.71" y="268.89" width="11.45" height="40.47"/><rect class="cls-26" x="291.05" y="263.56" width="14.11" height="5.32"/><rect class="cls-6" x="301.17" y="263.56" width="112.36" height="5.32"/></g></svg>