<?xml version="1.0" encoding="utf-8"?>
<!-- Generator: Adobe Illustrator 26.5.0, SVG Export Plug-In . SVG Version: 6.00 Build 0)  -->
<svg version="1.1" id="Capa_1" xmlns="http://www.w3.org/2000/svg" xmlns:xlink="http://www.w3.org/1999/xlink" x="0px" y="0px"
	 viewBox="0 0 392 268" enable-background="new 0 0 392 268" xml:space="preserve">
<g>
	<defs>
		<rect id="SVGID_00000031198779420374245760000018206872607278017949_" x="-1.538" width="393.538" height="268"/>
	</defs>
	<clipPath id="SVGID_00000095312793039525068940000012923207984886710164_">
		<use xlink:href="#SVGID_00000031198779420374245760000018206872607278017949_"  overflow="visible"/>
	</clipPath>
	
		<rect x="-1.538" clip-path="url(#SVGID_00000095312793039525068940000012923207984886710164_)" fill="#FED130" width="393.538" height="268"/>
	<g clip-path="url(#SVGID_00000095312793039525068940000012923207984886710164_)">
		<g>
			<path fill="#FD8A25" d="M77.739,164.92H59.507l-2.355-10.561h-9.572l-1.976,12.307H27.902l13.902-60.777h23.02L77.739,164.92z
				 M56.012,138.405l-3.19-16.714l-3.343,16.714H56.012z"/>
			<path fill="#FD8A25" d="M129.476,166.666h-14.055v-27.577l-10.256,17.776l-8.434-13.598v22.486H81.31v-58.269l14.967-1.14
				l7.521,21.044l9.801-21.5h15.878V166.666z"/>
			<path fill="#FD8A25" d="M182.654,164.92h-18.232l-2.355-10.561h-9.572l-1.976,12.307h-17.701l13.902-60.777h23.02L182.654,164.92
				z M160.927,138.405l-3.19-16.714l-3.343,16.714H160.927z"/>
			<path fill="#FD8A25" d="M224.514,164.236l-13.599,1.975l-10.104-15.498v14.967l-15.954,0.986l-1.671-59.941
				c-0.304-0.05-0.456-0.152-0.456-0.304c0-0.354,1.696-0.532,5.09-0.532c5.521,0,10.294,0.216,14.321,0.646
				c4.026,0.431,7.331,1.38,9.914,2.849c2.583,1.47,4.494,3.597,5.735,6.382c1.241,2.786,1.861,6.534,1.861,11.244
				c0,5.014-2.254,9.852-6.761,14.51L224.514,164.236z M199.367,131.872c3.849-0.76,5.774-2.557,5.774-5.394v-0.456
				c-0.152-1.468-0.786-2.735-1.899-3.798c-1.115-1.063-2.735-1.721-4.862-1.975L199.367,131.872z"/>
			<path fill="#FD8A25" d="M251.939,105.889v60.777h-19.146v-60.777H251.939z"/>
			<path fill="#FD8A25" d="M288.177,166.666h-30.921v-59.333l14.738-1.443v44.14h16.183V166.666z"/>
			<path fill="#FD8A25" d="M321.983,166.666h-30.921v-59.333l14.738-1.443v44.14h16.183V166.666z"/>
			<path fill="#FD8A25" d="M343.33,105.889c3.443,0,6.559,0.912,9.345,2.735c2.785,1.824,5.153,4.331,7.104,7.521
				c1.949,3.191,3.443,6.964,4.482,11.32c1.037,4.356,1.557,9.066,1.557,14.13c0,3.9-0.469,7.396-1.405,10.484
				c-0.938,3.09-2.305,5.711-4.103,7.863s-4.026,3.811-6.686,4.977c-2.658,1.164-5.686,1.746-9.078,1.746
				c-7.445,0-13.08-2.658-16.903-7.977c-3.825-5.318-5.736-13.27-5.736-23.855c0-4.254,0.468-8.167,1.405-11.738
				c0.937-3.571,2.317-6.621,4.141-9.154c1.823-2.532,4.064-4.507,6.724-5.926C336.835,106.599,339.886,105.889,343.33,105.889z
				 M344.318,150.105c0.911,0,1.759-0.33,2.545-0.988c0.784-0.658,1.455-1.52,2.013-2.583c0.557-1.063,0.988-2.291,1.292-3.685
				c0.304-1.393,0.455-2.85,0.455-4.369c0-9.724-2.583-14.586-7.749-14.586c-3.597,0-5.394,3.723-5.394,11.168
				c0,2.229,0.152,4.268,0.456,6.115c0.304,1.85,0.76,3.432,1.367,4.748c0.607,1.318,1.329,2.344,2.165,3.078
				S343.254,150.105,344.318,150.105z"/>
		</g>
		<g>
			<path fill="#FED130" stroke="#FD8A25" stroke-width="2" stroke-linejoin="round" stroke-miterlimit="10" d="M73.739,158.919
				H55.507l-2.355-10.561h-9.572l-1.976,12.308H23.902l13.902-60.777h23.02L73.739,158.919z M52.012,132.405l-3.19-16.714
				l-3.343,16.714H52.012z"/>
			<path fill="#FED130" stroke="#FD8A25" stroke-width="2" stroke-linejoin="round" stroke-miterlimit="10" d="M125.476,160.666
				h-14.055v-27.577l-10.256,17.776l-8.434-13.599v22.487H77.31v-58.269l14.967-1.14l7.521,21.044l9.801-21.5h15.878V160.666z"/>
			<path fill="#FED130" stroke="#FD8A25" stroke-width="2" stroke-linejoin="round" stroke-miterlimit="10" d="M178.654,158.919
				h-18.232l-2.355-10.561h-9.572l-1.976,12.308h-17.701l13.902-60.777h23.02L178.654,158.919z M156.927,132.405l-3.19-16.714
				l-3.343,16.714H156.927z"/>
			<path fill="#FED130" stroke="#FD8A25" stroke-width="2" stroke-linejoin="round" stroke-miterlimit="10" d="M220.514,158.235
				l-13.599,1.975l-10.104-15.498v14.967l-15.954,0.987l-1.671-59.941c-0.304-0.05-0.456-0.152-0.456-0.304
				c0-0.354,1.696-0.532,5.09-0.532c5.521,0,10.294,0.216,14.321,0.646c4.026,0.431,7.331,1.38,9.914,2.849
				c2.583,1.47,4.494,3.597,5.735,6.382c1.241,2.786,1.861,6.534,1.861,11.244c0,5.014-2.254,9.852-6.761,14.51L220.514,158.235z
				 M195.367,125.872c3.849-0.76,5.774-2.557,5.774-5.394v-0.456c-0.152-1.468-0.786-2.735-1.899-3.798
				c-1.115-1.063-2.735-1.721-4.862-1.975L195.367,125.872z"/>
			<path fill="#FED130" stroke="#FD8A25" stroke-width="2" stroke-linejoin="round" stroke-miterlimit="10" d="M247.939,99.889
				v60.777h-19.146V99.889H247.939z"/>
			<path fill="#FED130" stroke="#FD8A25" stroke-width="2" stroke-linejoin="round" stroke-miterlimit="10" d="M284.177,160.666
				h-30.921v-59.333l14.738-1.443v44.139h16.183V160.666z"/>
			<path fill="#FED130" stroke="#FD8A25" stroke-width="2" stroke-linejoin="round" stroke-miterlimit="10" d="M317.983,160.666
				h-30.921v-59.333l14.738-1.443v44.139h16.183V160.666z"/>
			<path fill="#FED130" stroke="#FD8A25" stroke-width="2" stroke-linejoin="round" stroke-miterlimit="10" d="M339.33,99.889
				c3.443,0,6.559,0.912,9.345,2.735c2.785,1.824,5.153,4.331,7.104,7.521c1.949,3.191,3.443,6.964,4.482,11.32
				c1.037,4.356,1.557,9.066,1.557,14.13c0,3.9-0.469,7.396-1.405,10.483c-0.938,3.09-2.305,5.711-4.103,7.863
				c-1.798,2.153-4.026,3.812-6.686,4.977c-2.658,1.165-5.686,1.747-9.078,1.747c-7.445,0-13.08-2.659-16.903-7.977
				c-3.825-5.318-5.736-13.27-5.736-23.855c0-4.254,0.468-8.167,1.405-11.738c0.937-3.571,2.317-6.621,4.141-9.154
				c1.823-2.532,4.064-4.507,6.724-5.926C332.835,100.599,335.886,99.889,339.33,99.889z M340.318,144.104
				c0.911,0,1.759-0.329,2.545-0.988c0.784-0.657,1.455-1.519,2.013-2.582c0.557-1.064,0.988-2.291,1.292-3.685
				c0.304-1.393,0.455-2.849,0.455-4.369c0-9.724-2.583-14.586-7.749-14.586c-3.597,0-5.394,3.723-5.394,11.168
				c0,2.229,0.152,4.267,0.456,6.115c0.304,1.85,0.76,3.432,1.367,4.748c0.607,1.317,1.329,2.344,2.165,3.077
				C338.305,143.737,339.254,144.104,340.318,144.104z"/>
		</g>
	</g>
	<g clip-path="url(#SVGID_00000095312793039525068940000012923207984886710164_)">
		<g id="_x36_TsFBo_00000041271818405892867040000003259299205746416316_">
			<g>
				<path fill="#FCB932" d="M369.955,284.275c-8.58,0-17.159,0.001-25.739,0c-2.246,0-3.842-1.459-4.098-3.687
					c-0.641-5.571-1.302-11.14-1.953-16.711c-0.59-5.046-1.176-10.092-1.766-15.138c-0.619-5.295-1.24-10.59-1.858-15.885
					c-0.519-4.443-1.035-8.887-1.554-13.33c-0.22-1.887-0.442-3.774-0.667-5.661c-0.06-0.501-0.044-0.529,0.449-0.529
					c1.426-0.001,2.851,0.014,4.277-0.006c0.78-0.011,1.326,0.302,1.719,0.974c2.792,4.772,5.596,9.538,8.395,14.306
					c1.911,3.254,3.813,6.514,5.735,9.762c1.003,1.694,2.508,2.561,4.482,2.562c3.814,0.002,7.629-0.012,11.443-0.018
					c4.369-0.007,8.738-0.025,13.107-0.01c0.993,0.003,1.947-0.08,2.842-0.541c0.905-0.466,1.604-1.143,2.123-2.017
					c4.747-7.985,9.501-15.967,14.238-23.958c0.438-0.739,1.009-1.083,1.871-1.063c1.412,0.033,2.825,0.018,4.237,0.003
					c0.356-0.004,0.457,0.108,0.415,0.464c-0.936,7.928-1.865,15.858-2.792,23.787c-0.754,6.448-1.501,12.897-2.255,19.346
					c-0.86,7.353-1.724,14.705-2.585,22.057c-0.063,0.537-0.124,1.075-0.18,1.613c-0.228,2.2-1.856,3.678-4.067,3.678
					C387.167,284.276,378.561,284.275,369.955,284.275z"/>
				<path fill="#FCB932" d="M385.813,236.339c-0.1-1.362-0.199-2.69-0.295-4.018c-0.36-4.948-0.721-9.896-1.08-14.843
					c-0.203-2.79-0.413-5.579-0.599-8.37c-0.062-0.924-0.266-1.773-0.959-2.439c-0.08-0.077-0.108-0.16-0.108-0.279
					c0.01-4.737,0.015-9.474,0.02-14.212c0.001-1.027,0.444-1.479,1.464-1.481c1.636-0.002,3.273-0.003,4.909,0.001
					c0.995,0.002,1.448,0.461,1.448,1.458c0.001,11.969,0.001,23.939,0.003,35.908c0,0.214-0.025,0.409-0.141,0.603
					c-1.475,2.469-2.942,4.943-4.413,7.414C386.01,236.167,385.98,236.276,385.813,236.339z"/>
				<path fill="#FCB932" d="M379.556,239.02c-0.977,0-1.954-0.013-2.93,0.008c-0.314,0.007-0.393-0.097-0.414-0.395
					c-0.298-4.252-0.608-8.503-0.915-12.755c-0.388-5.383-0.776-10.767-1.164-16.15c-0.009-0.118-0.018-0.237-0.022-0.356
					c-0.028-0.788,0.428-1.301,1.222-1.36c1.737-0.129,3.475-0.256,5.212-0.378c0.786-0.055,1.329,0.428,1.389,1.237
					c0.166,2.251,0.326,4.502,0.49,6.752c0.382,5.252,0.765,10.503,1.147,15.755c0.166,2.277,0.324,4.555,0.509,6.83
					c0.028,0.349-0.094,0.496-0.393,0.603c-0.558,0.2-1.132,0.238-1.715,0.234c-0.805-0.006-1.61-0.002-2.415-0.002
					C379.556,239.035,379.556,239.027,379.556,239.02z"/>
				<path fill="#FCB932" d="M368.872,220.679c0.201-2.446,0.385-4.894,0.611-7.338c0.104-1.125-0.081-2.128-0.922-2.942
					c-0.599-0.58-1.33-0.834-2.148-0.882c-0.65-0.038-0.652-0.041-0.828-0.633c-1.382-4.654-2.764-9.308-4.144-13.962
					c-0.27-0.91,0.049-1.504,0.953-1.75c1.655-0.449,3.312-0.889,4.971-1.324c0.789-0.207,1.371,0.131,1.609,0.924
					c1.388,4.638,2.773,9.277,4.16,13.915c0.05,0.168,0.08,0.303-0.073,0.462c-0.644,0.667-0.878,1.486-0.813,2.398
					c0.422,5.884,0.846,11.767,1.269,17.651c0.273,3.791,0.548,7.581,0.812,11.372c0.011,0.157,0.166,0.432-0.191,0.444
					c-0.267,0.009-0.514,0.072-0.621-0.338c-1.517-5.794-3.053-11.582-4.589-17.371
					C368.873,221.097,368.851,220.892,368.872,220.679z"/>
				<path fill="#FCB932" d="M361.565,239.053c-1.174,0-2.349-0.017-3.523,0.01c-0.388,0.009-0.453-0.118-0.423-0.471
					c0.289-3.351,0.562-6.704,0.841-10.056c0.303-3.641,0.607-7.283,0.911-10.924c0.151-1.814,0.299-3.629,0.457-5.442
					c0.07-0.805,0.626-1.257,1.421-1.19c1.709,0.143,3.418,0.283,5.127,0.421c0.875,0.071,1.319,0.595,1.247,1.481
					c-0.487,6.009-0.973,12.018-1.46,18.026c-0.208,2.564-0.424,5.127-0.619,7.692c-0.027,0.353-0.143,0.458-0.498,0.451
					c-1.161-0.023-2.322-0.009-3.483-0.009C361.565,239.046,361.565,239.05,361.565,239.053z"/>
				<path fill="#FCB932" d="M355.715,238.628c-0.384-0.214-0.698-0.408-0.775-0.885c-0.769-4.793-1.553-9.583-2.336-14.373
					c-1.04-6.366-2.082-12.731-3.121-19.097c-0.175-1.075,0.208-1.57,1.298-1.733c1.618-0.242,3.234-0.49,4.851-0.741
					c0.845-0.131,1.414,0.262,1.548,1.117c0.364,2.319,0.695,4.644,1.091,6.958c0.083,0.487,0.076,0.888-0.136,1.337
					c-0.257,0.544-0.208,1.164-0.258,1.753c-0.584,6.941-1.159,13.883-1.737,20.825c-0.128,1.538-0.256,3.076-0.385,4.614
					C355.75,238.467,355.733,238.529,355.715,238.628z"/>
				<path fill="#FCB932" d="M346.934,224.532c-0.607-1.033-1.16-1.974-1.712-2.916c-0.064-0.11-0.04-0.231-0.034-0.349
					c0.229-4.638,0.46-9.276,0.686-13.914c0.152-3.11,0.315-6.219,0.442-9.33c0.073-1.779-1.254-3.156-3.039-3.233
					c-0.354-0.015-0.822,0.116-1.029-0.11c-0.212-0.23-0.003-0.678,0.033-1.027c0.31-3.019,0.63-6.036,0.951-9.053
					c0.108-1.018,0.595-1.417,1.615-1.316c1.654,0.164,3.308,0.334,4.961,0.506c0.899,0.093,1.328,0.617,1.232,1.54
					c-0.373,3.609-0.757,7.217-1.136,10.825c-0.153,1.456-0.309,2.912-0.453,4.37c-0.029,0.294-0.115,0.487-0.4,0.652
					c-1.127,0.653-1.665,1.873-1.452,3.173c0.277,1.692,0.544,3.386,0.836,5.076c0.09,0.522-0.025,1.022-0.077,1.529
					c-0.451,4.436-0.909,8.872-1.366,13.308C346.989,224.312,346.973,224.36,346.934,224.532z"/>
				<path fill="#FCB932" d="M375.776,192.392c0.252,4.294,0.504,8.588,0.756,12.882c0.009,0.158,0.004,0.318,0.026,0.474
					c0.031,0.22-0.047,0.307-0.272,0.314c-0.343,0.011-0.688,0.025-1.025,0.081c-0.271,0.045-0.366-0.057-0.436-0.299
					c-0.519-1.772-1.051-3.541-1.579-5.31c-0.815-2.73-1.636-5.458-2.442-8.191c-0.412-1.397-1.297-2.234-2.761-2.404
					c-0.233-0.027-0.267-0.139-0.279-0.335c-0.151-2.674-0.309-5.348-0.465-8.022c-0.04-0.685-0.081-1.37-0.114-2.055
					c-0.04-0.853,0.393-1.356,1.244-1.41c1.738-0.11,3.477-0.21,5.216-0.301c0.799-0.042,1.302,0.422,1.35,1.22
					c0.264,4.452,0.525,8.904,0.788,13.356C375.779,192.392,375.777,192.392,375.776,192.392z"/>
				<path fill="#FCB932" d="M343.354,218.431c-0.152-0.256-0.304-0.512-0.455-0.769c-0.849-1.444-1.698-2.888-2.545-4.334
					c-0.73-1.246-1.811-1.875-3.259-1.867c-0.277,0.002-0.555-0.011-0.831,0.004c-0.24,0.013-0.323-0.068-0.31-0.317
					c0.111-2.121,0.211-4.242,0.316-6.363c0.117-2.358,0.237-4.716,0.357-7.074c0.044-0.873,0.544-1.334,1.402-1.292
					c1.726,0.084,3.452,0.169,5.178,0.256c0.803,0.04,1.287,0.565,1.247,1.371c-0.301,6.1-0.605,12.2-0.908,18.3
					c-0.034,0.683-0.066,1.367-0.099,2.05C343.416,218.408,343.385,218.42,343.354,218.431z"/>
				<path fill="#FCB932" d="M368.461,226.862c0.225,0.85,0.45,1.701,0.675,2.551c0.81,3.057,1.614,6.116,2.437,9.17
					c0.096,0.356,0.042,0.449-0.336,0.444c-1.16-0.015-2.32,0-3.48,0.02c-0.289,0.005-0.384-0.055-0.357-0.375
					c0.319-3.77,0.62-7.542,0.927-11.313c0.013-0.166,0.036-0.331,0.054-0.496C368.408,226.863,368.434,226.863,368.461,226.862z"/>
				<path fill="#FCB932" d="M352.391,233.685c-0.174-0.082-0.21-0.219-0.274-0.329c-1.124-1.909-2.242-3.821-3.37-5.728
					c-0.127-0.215-0.182-0.421-0.156-0.671c0.331-3.161,0.655-6.322,0.982-9.483c0.011-0.103,0.04-0.203,0.118-0.308
					C350.589,222.656,351.486,228.146,352.391,233.685z"/>
			</g>
		</g>
		<g id="_x36_TsFBo_00000066485078495971078910000004062721983509895305_">
			<g>
				<path fill="#FCB932" d="M282.843,284.275c-8.58,0-17.159,0.001-25.739,0c-2.246,0-3.842-1.459-4.098-3.687
					c-0.641-5.571-1.302-11.14-1.953-16.711c-0.59-5.046-1.176-10.092-1.766-15.138c-0.619-5.295-1.24-10.59-1.859-15.885
					c-0.519-4.443-1.035-8.887-1.554-13.33c-0.22-1.887-0.442-3.774-0.667-5.661c-0.06-0.501-0.044-0.529,0.449-0.529
					c1.426-0.001,2.851,0.014,4.277-0.006c0.78-0.011,1.326,0.302,1.719,0.974c2.792,4.772,5.596,9.538,8.395,14.306
					c1.911,3.254,3.813,6.514,5.735,9.762c1.002,1.694,2.508,2.561,4.482,2.562c3.814,0.002,7.629-0.012,11.443-0.018
					c4.369-0.007,8.738-0.025,13.107-0.01c0.993,0.003,1.947-0.08,2.842-0.541c0.905-0.466,1.604-1.143,2.123-2.017
					c4.747-7.985,9.501-15.967,14.238-23.958c0.438-0.739,1.009-1.083,1.871-1.063c1.412,0.033,2.825,0.018,4.237,0.003
					c0.356-0.004,0.457,0.108,0.415,0.464c-0.936,7.928-1.865,15.858-2.792,23.787c-0.754,6.448-1.501,12.897-2.255,19.346
					c-0.86,7.353-1.724,14.705-2.585,22.057c-0.063,0.537-0.124,1.075-0.18,1.613c-0.228,2.2-1.856,3.678-4.067,3.678
					C300.055,284.276,291.449,284.275,282.843,284.275z"/>
				<path fill="#FCB932" d="M298.701,236.339c-0.1-1.362-0.199-2.69-0.295-4.018c-0.36-4.948-0.721-9.896-1.08-14.843
					c-0.203-2.79-0.413-5.579-0.599-8.37c-0.062-0.924-0.266-1.773-0.959-2.439c-0.08-0.077-0.108-0.16-0.108-0.279
					c0.011-4.737,0.015-9.474,0.02-14.212c0.001-1.027,0.444-1.479,1.464-1.481c1.636-0.002,3.273-0.003,4.909,0.001
					c0.995,0.002,1.448,0.461,1.448,1.458c0.001,11.969,0.001,23.939,0.003,35.908c0,0.214-0.025,0.409-0.141,0.603
					c-1.475,2.469-2.942,4.943-4.413,7.414C298.898,236.167,298.868,236.276,298.701,236.339z"/>
				<path fill="#FCB932" d="M292.444,239.02c-0.977,0-1.954-0.013-2.93,0.008c-0.314,0.007-0.393-0.097-0.414-0.395
					c-0.298-4.252-0.608-8.503-0.915-12.755c-0.388-5.383-0.776-10.767-1.164-16.15c-0.009-0.118-0.018-0.237-0.022-0.356
					c-0.028-0.788,0.428-1.301,1.222-1.36c1.737-0.129,3.475-0.256,5.212-0.378c0.786-0.055,1.329,0.428,1.389,1.237
					c0.166,2.251,0.326,4.502,0.49,6.752c0.382,5.252,0.765,10.503,1.147,15.755c0.166,2.277,0.324,4.555,0.509,6.83
					c0.028,0.349-0.094,0.496-0.393,0.603c-0.558,0.2-1.132,0.238-1.716,0.234c-0.805-0.006-1.61-0.002-2.415-0.002
					C292.444,239.035,292.444,239.027,292.444,239.02z"/>
				<path fill="#FCB932" d="M281.76,220.679c0.201-2.446,0.385-4.894,0.611-7.338c0.104-1.125-0.081-2.128-0.922-2.942
					c-0.599-0.58-1.33-0.834-2.148-0.882c-0.65-0.038-0.652-0.041-0.828-0.633c-1.382-4.654-2.764-9.308-4.144-13.962
					c-0.27-0.91,0.049-1.504,0.953-1.75c1.655-0.449,3.312-0.889,4.971-1.324c0.789-0.207,1.371,0.131,1.609,0.924
					c1.388,4.638,2.773,9.277,4.16,13.915c0.05,0.168,0.08,0.303-0.073,0.462c-0.644,0.667-0.878,1.486-0.813,2.398
					c0.422,5.884,0.846,11.767,1.269,17.651c0.273,3.791,0.548,7.581,0.812,11.372c0.011,0.157,0.166,0.432-0.191,0.444
					c-0.267,0.009-0.514,0.072-0.621-0.338c-1.517-5.794-3.053-11.582-4.589-17.371C281.761,221.097,281.739,220.892,281.76,220.679
					z"/>
				<path fill="#FCB932" d="M274.453,239.053c-1.174,0-2.349-0.017-3.523,0.01c-0.388,0.009-0.453-0.118-0.423-0.471
					c0.289-3.351,0.562-6.704,0.841-10.056c0.303-3.641,0.607-7.283,0.911-10.924c0.151-1.814,0.299-3.629,0.457-5.442
					c0.07-0.805,0.626-1.257,1.421-1.19c1.709,0.143,3.418,0.283,5.127,0.421c0.875,0.071,1.319,0.595,1.247,1.481
					c-0.487,6.009-0.973,12.018-1.46,18.026c-0.208,2.564-0.424,5.127-0.619,7.692c-0.027,0.353-0.143,0.458-0.498,0.451
					c-1.161-0.023-2.322-0.009-3.483-0.009C274.453,239.046,274.453,239.05,274.453,239.053z"/>
				<path fill="#FCB932" d="M305.376,225.092c0-0.127,0-0.253,0-0.38c0-3.681,0.001-7.362-0.003-11.044
					c0-0.256,0.046-0.49,0.143-0.728c2.704-6.646,5.402-13.293,8.102-19.94c0.353-0.869,0.976-1.143,1.834-0.797
					c1.553,0.627,3.105,1.256,4.656,1.89c0.872,0.356,1.134,0.976,0.783,1.839c-2.059,5.071-4.122,10.14-6.173,15.214
					c-0.132,0.327-0.312,0.534-0.642,0.676c-0.701,0.301-1.201,0.835-1.589,1.49c-2.282,3.846-4.57,7.688-6.856,11.531
					c-0.053,0.089-0.108,0.176-0.162,0.265C305.438,225.103,305.407,225.097,305.376,225.092z"/>
				<path fill="#FCB932" d="M268.603,238.628c-0.384-0.214-0.698-0.408-0.775-0.885c-0.769-4.793-1.553-9.583-2.336-14.373
					c-1.039-6.366-2.082-12.731-3.121-19.097c-0.175-1.075,0.208-1.57,1.298-1.733c1.618-0.242,3.234-0.49,4.851-0.741
					c0.845-0.131,1.414,0.262,1.548,1.117c0.364,2.319,0.695,4.644,1.091,6.958c0.083,0.487,0.076,0.888-0.136,1.337
					c-0.257,0.544-0.208,1.164-0.258,1.753c-0.584,6.941-1.159,13.883-1.737,20.825c-0.128,1.538-0.256,3.076-0.385,4.614
					C268.638,238.467,268.621,238.529,268.603,238.628z"/>
				<path fill="#FCB932" d="M259.822,224.532c-0.607-1.033-1.16-1.974-1.712-2.916c-0.064-0.11-0.04-0.231-0.034-0.349
					c0.229-4.638,0.46-9.276,0.686-13.914c0.152-3.11,0.315-6.219,0.442-9.33c0.073-1.779-1.254-3.156-3.039-3.233
					c-0.354-0.015-0.821,0.116-1.029-0.11c-0.212-0.23-0.003-0.678,0.033-1.027c0.309-3.019,0.63-6.036,0.951-9.053
					c0.108-1.018,0.595-1.417,1.615-1.316c1.654,0.164,3.308,0.334,4.961,0.506c0.899,0.093,1.328,0.617,1.232,1.54
					c-0.373,3.609-0.757,7.217-1.136,10.825c-0.153,1.456-0.309,2.912-0.453,4.37c-0.029,0.294-0.115,0.487-0.4,0.652
					c-1.127,0.653-1.665,1.873-1.452,3.173c0.277,1.692,0.544,3.386,0.836,5.076c0.09,0.522-0.025,1.022-0.077,1.529
					c-0.451,4.436-0.909,8.872-1.366,13.308C259.877,224.312,259.861,224.36,259.822,224.532z"/>
				<path fill="#FCB932" d="M288.664,192.392c0.252,4.294,0.504,8.588,0.756,12.882c0.009,0.158,0.004,0.318,0.026,0.474
					c0.031,0.22-0.047,0.307-0.272,0.314c-0.343,0.011-0.688,0.025-1.025,0.081c-0.271,0.045-0.366-0.057-0.436-0.299
					c-0.519-1.772-1.051-3.541-1.579-5.31c-0.815-2.73-1.636-5.458-2.442-8.191c-0.412-1.397-1.297-2.234-2.762-2.404
					c-0.233-0.027-0.267-0.139-0.279-0.335c-0.151-2.674-0.31-5.348-0.465-8.022c-0.04-0.685-0.081-1.37-0.114-2.055
					c-0.04-0.853,0.393-1.356,1.244-1.41c1.738-0.11,3.477-0.21,5.216-0.301c0.799-0.042,1.302,0.422,1.35,1.22
					c0.264,4.452,0.525,8.904,0.788,13.356C288.667,192.392,288.665,192.392,288.664,192.392z"/>
				<path fill="#FCB932" d="M256.242,218.431c-0.152-0.256-0.304-0.512-0.455-0.769c-0.849-1.444-1.698-2.888-2.545-4.334
					c-0.73-1.246-1.811-1.875-3.259-1.867c-0.277,0.002-0.555-0.011-0.831,0.004c-0.24,0.013-0.323-0.068-0.31-0.317
					c0.111-2.121,0.211-4.242,0.316-6.363c0.117-2.358,0.237-4.716,0.357-7.074c0.044-0.873,0.544-1.334,1.402-1.292
					c1.726,0.084,3.452,0.169,5.178,0.256c0.803,0.04,1.287,0.565,1.247,1.371c-0.301,6.1-0.605,12.2-0.908,18.3
					c-0.034,0.683-0.066,1.367-0.099,2.05C256.304,218.408,256.273,218.42,256.242,218.431z"/>
				<path fill="#FCB932" d="M281.349,226.862c0.225,0.85,0.45,1.701,0.675,2.551c0.81,3.057,1.614,6.116,2.437,9.17
					c0.096,0.356,0.042,0.449-0.336,0.444c-1.16-0.015-2.32,0-3.48,0.02c-0.289,0.005-0.384-0.055-0.357-0.375
					c0.319-3.77,0.62-7.542,0.927-11.313c0.013-0.166,0.036-0.331,0.054-0.496C281.296,226.863,281.322,226.863,281.349,226.862z"/>
				<path fill="#FCB932" d="M265.279,233.685c-0.174-0.082-0.21-0.219-0.274-0.329c-1.124-1.909-2.242-3.821-3.37-5.728
					c-0.127-0.215-0.182-0.421-0.156-0.671c0.331-3.161,0.655-6.322,0.982-9.483c0.011-0.103,0.04-0.203,0.118-0.308
					C263.478,222.656,264.375,228.146,265.279,233.685z"/>
			</g>
		</g>
		<g id="_x36_TsFBo_00000068674528894279248460000012997847456255377839_">
			<g>
				<path fill="#FCB932" d="M195.731,284.275c-8.58,0-17.159,0.001-25.739,0c-2.246,0-3.842-1.459-4.098-3.687
					c-0.641-5.571-1.302-11.14-1.953-16.711c-0.59-5.046-1.176-10.092-1.766-15.138c-0.619-5.295-1.24-10.59-1.859-15.885
					c-0.519-4.443-1.035-8.887-1.554-13.33c-0.22-1.887-0.442-3.774-0.667-5.661c-0.06-0.501-0.044-0.529,0.449-0.529
					c1.426-0.001,2.851,0.014,4.277-0.006c0.78-0.011,1.326,0.302,1.719,0.974c2.792,4.772,5.596,9.538,8.395,14.306
					c1.911,3.254,3.813,6.514,5.735,9.762c1.003,1.694,2.508,2.561,4.482,2.562c3.814,0.002,7.629-0.012,11.443-0.018
					c4.369-0.007,8.738-0.025,13.107-0.01c0.993,0.003,1.947-0.08,2.842-0.541c0.905-0.466,1.604-1.143,2.123-2.017
					c4.747-7.985,9.501-15.967,14.238-23.958c0.438-0.739,1.009-1.083,1.871-1.063c1.412,0.033,2.825,0.018,4.237,0.003
					c0.356-0.004,0.457,0.108,0.415,0.464c-0.936,7.928-1.865,15.858-2.792,23.787c-0.754,6.448-1.501,12.897-2.255,19.346
					c-0.86,7.353-1.724,14.705-2.585,22.057c-0.063,0.537-0.124,1.075-0.18,1.613c-0.228,2.2-1.856,3.678-4.067,3.678
					C212.944,284.276,204.337,284.275,195.731,284.275z"/>
				<path fill="#FCB932" d="M211.589,236.339c-0.1-1.362-0.199-2.69-0.295-4.018c-0.36-4.948-0.721-9.896-1.08-14.843
					c-0.203-2.79-0.413-5.579-0.599-8.37c-0.062-0.924-0.266-1.773-0.959-2.439c-0.08-0.077-0.108-0.16-0.108-0.279
					c0.01-4.737,0.015-9.474,0.02-14.212c0.001-1.027,0.444-1.479,1.464-1.481c1.636-0.002,3.273-0.003,4.909,0.001
					c0.995,0.002,1.448,0.461,1.448,1.458c0.001,11.969,0.001,23.939,0.003,35.908c0,0.214-0.025,0.409-0.14,0.603
					c-1.475,2.469-2.942,4.943-4.413,7.414C211.786,236.167,211.757,236.276,211.589,236.339z"/>
				<path fill="#FCB932" d="M205.332,239.02c-0.977,0-1.954-0.013-2.93,0.008c-0.314,0.007-0.393-0.097-0.414-0.395
					c-0.298-4.252-0.608-8.503-0.915-12.755c-0.388-5.383-0.776-10.767-1.164-16.15c-0.009-0.118-0.018-0.237-0.022-0.356
					c-0.028-0.788,0.428-1.301,1.222-1.36c1.737-0.129,3.475-0.256,5.212-0.378c0.786-0.055,1.329,0.428,1.389,1.237
					c0.166,2.251,0.326,4.502,0.49,6.752c0.382,5.252,0.765,10.503,1.147,15.755c0.166,2.277,0.324,4.555,0.509,6.83
					c0.028,0.349-0.094,0.496-0.393,0.603c-0.558,0.2-1.132,0.238-1.715,0.234c-0.805-0.006-1.61-0.002-2.415-0.002
					C205.332,239.035,205.332,239.027,205.332,239.02z"/>
				<path fill="#FCB932" d="M194.648,220.679c0.201-2.446,0.385-4.894,0.611-7.338c0.104-1.125-0.081-2.128-0.922-2.942
					c-0.599-0.58-1.33-0.834-2.148-0.882c-0.65-0.038-0.652-0.041-0.828-0.633c-1.382-4.654-2.764-9.308-4.144-13.962
					c-0.27-0.91,0.049-1.504,0.953-1.75c1.655-0.449,3.312-0.889,4.971-1.324c0.789-0.207,1.371,0.131,1.609,0.924
					c1.388,4.638,2.773,9.277,4.16,13.915c0.05,0.168,0.08,0.303-0.073,0.462c-0.644,0.667-0.878,1.486-0.813,2.398
					c0.422,5.884,0.846,11.767,1.269,17.651c0.273,3.791,0.548,7.581,0.812,11.372c0.011,0.157,0.166,0.432-0.191,0.444
					c-0.267,0.009-0.514,0.072-0.621-0.338c-1.517-5.794-3.053-11.582-4.589-17.371
					C194.649,221.097,194.627,220.892,194.648,220.679z"/>
				<path fill="#FCB932" d="M187.341,239.053c-1.174,0-2.349-0.017-3.523,0.01c-0.388,0.009-0.453-0.118-0.423-0.471
					c0.289-3.351,0.562-6.704,0.841-10.056c0.303-3.641,0.607-7.283,0.911-10.924c0.151-1.814,0.299-3.629,0.457-5.442
					c0.07-0.805,0.626-1.257,1.421-1.19c1.709,0.143,3.418,0.283,5.127,0.421c0.875,0.071,1.319,0.595,1.247,1.481
					c-0.487,6.009-0.973,12.018-1.46,18.026c-0.208,2.564-0.424,5.127-0.619,7.692c-0.027,0.353-0.143,0.458-0.498,0.451
					c-1.161-0.023-2.322-0.009-3.483-0.009C187.341,239.046,187.341,239.05,187.341,239.053z"/>
				<path fill="#FCB932" d="M218.264,225.092c0-0.127,0-0.253,0-0.38c0-3.681,0.001-7.362-0.003-11.044
					c0-0.256,0.046-0.49,0.143-0.728c2.704-6.646,5.402-13.293,8.102-19.94c0.353-0.869,0.976-1.143,1.834-0.797
					c1.553,0.627,3.105,1.256,4.656,1.89c0.872,0.356,1.134,0.976,0.783,1.839c-2.059,5.071-4.122,10.14-6.173,15.214
					c-0.132,0.327-0.312,0.534-0.642,0.676c-0.701,0.301-1.201,0.835-1.589,1.49c-2.282,3.846-4.57,7.688-6.856,11.531
					c-0.053,0.089-0.108,0.176-0.162,0.265C218.326,225.103,218.295,225.097,218.264,225.092z"/>
				<path fill="#FCB932" d="M181.491,238.628c-0.384-0.214-0.698-0.408-0.775-0.885c-0.769-4.793-1.553-9.583-2.336-14.373
					c-1.04-6.366-2.082-12.731-3.121-19.097c-0.175-1.075,0.208-1.57,1.298-1.733c1.618-0.242,3.234-0.49,4.851-0.741
					c0.845-0.131,1.414,0.262,1.548,1.117c0.364,2.319,0.695,4.644,1.091,6.958c0.083,0.487,0.076,0.888-0.136,1.337
					c-0.257,0.544-0.208,1.164-0.258,1.753c-0.584,6.941-1.16,13.883-1.737,20.825c-0.128,1.538-0.256,3.076-0.385,4.614
					C181.526,238.467,181.509,238.529,181.491,238.628z"/>
				<path fill="#FCB932" d="M172.711,224.532c-0.607-1.033-1.16-1.974-1.712-2.916c-0.064-0.11-0.04-0.231-0.034-0.349
					c0.229-4.638,0.46-9.276,0.686-13.914c0.152-3.11,0.315-6.219,0.442-9.33c0.073-1.779-1.254-3.156-3.039-3.233
					c-0.354-0.015-0.821,0.116-1.029-0.11c-0.212-0.23-0.003-0.678,0.033-1.027c0.309-3.019,0.63-6.036,0.951-9.053
					c0.108-1.018,0.595-1.417,1.615-1.316c1.654,0.164,3.308,0.334,4.961,0.506c0.899,0.093,1.328,0.617,1.232,1.54
					c-0.373,3.609-0.757,7.217-1.136,10.825c-0.153,1.456-0.309,2.912-0.453,4.37c-0.029,0.294-0.115,0.487-0.4,0.652
					c-1.127,0.653-1.665,1.873-1.451,3.173c0.277,1.692,0.544,3.386,0.836,5.076c0.09,0.522-0.025,1.022-0.077,1.529
					c-0.451,4.436-0.909,8.872-1.366,13.308C172.765,224.312,172.749,224.36,172.711,224.532z"/>
				<path fill="#FCB932" d="M201.552,192.392c0.252,4.294,0.504,8.588,0.756,12.882c0.009,0.158,0.004,0.318,0.026,0.474
					c0.031,0.22-0.047,0.307-0.272,0.314c-0.343,0.011-0.688,0.025-1.025,0.081c-0.271,0.045-0.366-0.057-0.436-0.299
					c-0.519-1.772-1.051-3.541-1.579-5.31c-0.815-2.73-1.636-5.458-2.442-8.191c-0.412-1.397-1.297-2.234-2.761-2.404
					c-0.233-0.027-0.267-0.139-0.279-0.335c-0.151-2.674-0.309-5.348-0.465-8.022c-0.04-0.685-0.081-1.37-0.114-2.055
					c-0.04-0.853,0.393-1.356,1.244-1.41c1.738-0.11,3.477-0.21,5.216-0.301c0.799-0.042,1.302,0.422,1.35,1.22
					c0.264,4.452,0.525,8.904,0.788,13.356C201.555,192.392,201.554,192.392,201.552,192.392z"/>
				<path fill="#FCB932" d="M169.13,218.431c-0.152-0.256-0.304-0.512-0.455-0.769c-0.849-1.444-1.698-2.888-2.545-4.334
					c-0.73-1.246-1.811-1.875-3.259-1.867c-0.277,0.002-0.555-0.011-0.831,0.004c-0.24,0.013-0.323-0.068-0.31-0.317
					c0.111-2.121,0.211-4.242,0.316-6.363c0.117-2.358,0.237-4.716,0.357-7.074c0.044-0.873,0.544-1.334,1.402-1.292
					c1.726,0.084,3.452,0.169,5.178,0.256c0.803,0.04,1.287,0.565,1.247,1.371c-0.301,6.1-0.605,12.2-0.908,18.3
					c-0.034,0.683-0.066,1.367-0.099,2.05C169.192,218.408,169.161,218.42,169.13,218.431z"/>
				<path fill="#FCB932" d="M194.237,226.862c0.225,0.85,0.45,1.701,0.675,2.551c0.81,3.057,1.614,6.116,2.437,9.17
					c0.096,0.356,0.042,0.449-0.336,0.444c-1.16-0.015-2.32,0-3.48,0.02c-0.289,0.005-0.384-0.055-0.357-0.375
					c0.319-3.77,0.62-7.542,0.927-11.313c0.013-0.166,0.036-0.331,0.054-0.496C194.184,226.863,194.211,226.863,194.237,226.862z"/>
				<path fill="#FCB932" d="M178.168,233.685c-0.174-0.082-0.21-0.219-0.274-0.329c-1.124-1.909-2.242-3.821-3.37-5.728
					c-0.127-0.215-0.182-0.421-0.156-0.671c0.331-3.161,0.655-6.322,0.982-9.483c0.011-0.103,0.04-0.203,0.118-0.308
					C176.366,222.656,177.263,228.146,178.168,233.685z"/>
			</g>
		</g>
		<g id="_x36_TsFBo_00000173876041631341913680000002414552437831591102_">
			<g>
				<path fill="#FCB932" d="M108.619,284.275c-8.58,0-17.159,0.001-25.739,0c-2.246,0-3.842-1.459-4.098-3.687
					c-0.641-5.571-1.302-11.14-1.953-16.711c-0.59-5.046-1.176-10.092-1.766-15.138c-0.619-5.295-1.24-10.59-1.859-15.885
					c-0.519-4.443-1.035-8.887-1.554-13.33c-0.22-1.887-0.442-3.774-0.667-5.661c-0.06-0.501-0.044-0.529,0.449-0.529
					c1.426-0.001,2.851,0.014,4.277-0.006c0.78-0.011,1.326,0.302,1.719,0.974c2.792,4.772,5.596,9.538,8.395,14.306
					c1.911,3.254,3.813,6.514,5.735,9.762c1.002,1.694,2.508,2.561,4.482,2.562c3.814,0.002,7.629-0.012,11.443-0.018
					c4.369-0.007,8.738-0.025,13.107-0.01c0.993,0.003,1.947-0.08,2.842-0.541c0.905-0.466,1.604-1.143,2.123-2.017
					c4.747-7.985,9.501-15.967,14.238-23.958c0.438-0.739,1.009-1.083,1.871-1.063c1.412,0.033,2.825,0.018,4.237,0.003
					c0.356-0.004,0.457,0.108,0.415,0.464c-0.936,7.928-1.865,15.858-2.792,23.787c-0.754,6.448-1.501,12.897-2.255,19.346
					c-0.86,7.353-1.724,14.705-2.585,22.057c-0.063,0.537-0.124,1.075-0.18,1.613c-0.228,2.2-1.856,3.678-4.067,3.678
					C125.832,284.276,117.226,284.275,108.619,284.275z"/>
				<path fill="#FCB932" d="M124.477,236.339c-0.1-1.362-0.199-2.69-0.295-4.018c-0.36-4.948-0.721-9.896-1.08-14.843
					c-0.203-2.79-0.413-5.579-0.599-8.37c-0.062-0.924-0.266-1.773-0.959-2.439c-0.08-0.077-0.108-0.16-0.108-0.279
					c0.011-4.737,0.015-9.474,0.02-14.212c0.001-1.027,0.444-1.479,1.464-1.481c1.636-0.002,3.273-0.003,4.909,0.001
					c0.995,0.002,1.448,0.461,1.448,1.458c0.001,11.969,0.001,23.939,0.003,35.908c0,0.214-0.025,0.409-0.141,0.603
					c-1.475,2.469-2.942,4.943-4.413,7.414C124.675,236.167,124.645,236.276,124.477,236.339z"/>
				<path fill="#FCB932" d="M118.221,239.02c-0.977,0-1.954-0.013-2.93,0.008c-0.314,0.007-0.393-0.097-0.414-0.395
					c-0.298-4.252-0.608-8.503-0.915-12.755c-0.388-5.383-0.776-10.767-1.164-16.15c-0.009-0.118-0.018-0.237-0.022-0.356
					c-0.028-0.788,0.428-1.301,1.222-1.36c1.737-0.129,3.475-0.256,5.212-0.378c0.786-0.055,1.329,0.428,1.389,1.237
					c0.166,2.251,0.326,4.502,0.49,6.752c0.382,5.252,0.765,10.503,1.147,15.755c0.166,2.277,0.324,4.555,0.509,6.83
					c0.028,0.349-0.094,0.496-0.393,0.603c-0.558,0.2-1.132,0.238-1.715,0.234c-0.805-0.006-1.61-0.002-2.415-0.002
					C118.221,239.035,118.221,239.027,118.221,239.02z"/>
				<path fill="#FCB932" d="M107.536,220.679c0.201-2.446,0.385-4.894,0.611-7.338c0.104-1.125-0.081-2.128-0.922-2.942
					c-0.599-0.58-1.33-0.834-2.148-0.882c-0.65-0.038-0.652-0.041-0.828-0.633c-1.382-4.654-2.764-9.308-4.144-13.962
					c-0.27-0.91,0.049-1.504,0.953-1.75c1.655-0.449,3.312-0.889,4.971-1.324c0.789-0.207,1.371,0.131,1.609,0.924
					c1.388,4.638,2.773,9.277,4.16,13.915c0.05,0.168,0.08,0.303-0.073,0.462c-0.644,0.667-0.878,1.486-0.813,2.398
					c0.422,5.884,0.846,11.767,1.269,17.651c0.273,3.791,0.548,7.581,0.812,11.372c0.011,0.157,0.166,0.432-0.191,0.444
					c-0.267,0.009-0.514,0.072-0.621-0.338c-1.517-5.794-3.053-11.582-4.589-17.371
					C107.537,221.097,107.515,220.892,107.536,220.679z"/>
				<path fill="#FCB932" d="M100.229,239.053c-1.174,0-2.349-0.017-3.523,0.01c-0.388,0.009-0.453-0.118-0.423-0.471
					c0.289-3.351,0.562-6.704,0.841-10.056c0.303-3.641,0.607-7.283,0.911-10.924c0.151-1.814,0.299-3.629,0.457-5.442
					c0.07-0.805,0.626-1.257,1.421-1.19c1.709,0.143,3.418,0.283,5.127,0.421c0.875,0.071,1.319,0.595,1.247,1.481
					c-0.487,6.009-0.973,12.018-1.46,18.026c-0.208,2.564-0.424,5.127-0.619,7.692c-0.027,0.353-0.143,0.458-0.498,0.451
					c-1.161-0.023-2.322-0.009-3.483-0.009C100.229,239.046,100.229,239.05,100.229,239.053z"/>
				<path fill="#FCB932" d="M131.152,225.092c0-0.127,0-0.253,0-0.38c0-3.681,0.001-7.362-0.003-11.044
					c0-0.256,0.046-0.49,0.143-0.728c2.704-6.646,5.402-13.293,8.102-19.94c0.353-0.869,0.976-1.143,1.834-0.797
					c1.553,0.627,3.105,1.256,4.656,1.89c0.872,0.356,1.134,0.976,0.783,1.839c-2.059,5.071-4.122,10.14-6.173,15.214
					c-0.132,0.327-0.312,0.534-0.642,0.676c-0.701,0.301-1.201,0.835-1.589,1.49c-2.282,3.846-4.57,7.688-6.856,11.531
					c-0.053,0.089-0.108,0.176-0.162,0.265C131.214,225.103,131.183,225.097,131.152,225.092z"/>
				<path fill="#FCB932" d="M94.379,238.628c-0.384-0.214-0.698-0.408-0.775-0.885c-0.769-4.793-1.553-9.583-2.336-14.373
					c-1.04-6.366-2.082-12.731-3.121-19.097c-0.175-1.075,0.208-1.57,1.298-1.733c1.618-0.242,3.234-0.49,4.851-0.741
					c0.845-0.131,1.414,0.262,1.548,1.117c0.364,2.319,0.695,4.644,1.091,6.958c0.083,0.487,0.076,0.888-0.136,1.337
					c-0.257,0.544-0.208,1.164-0.258,1.753c-0.584,6.941-1.159,13.883-1.737,20.825c-0.128,1.538-0.256,3.076-0.385,4.614
					C94.414,238.467,94.397,238.529,94.379,238.628z"/>
				<path fill="#FCB932" d="M85.599,224.532c-0.607-1.033-1.16-1.974-1.712-2.916c-0.064-0.11-0.04-0.231-0.034-0.349
					c0.229-4.638,0.46-9.276,0.686-13.914c0.152-3.11,0.315-6.219,0.442-9.33c0.073-1.779-1.254-3.156-3.039-3.233
					c-0.354-0.015-0.821,0.116-1.029-0.11c-0.212-0.23-0.003-0.678,0.033-1.027c0.309-3.019,0.63-6.036,0.951-9.053
					c0.108-1.018,0.595-1.417,1.615-1.316c1.654,0.164,3.308,0.334,4.961,0.506c0.899,0.093,1.328,0.617,1.232,1.54
					c-0.373,3.609-0.757,7.217-1.136,10.825c-0.153,1.456-0.309,2.912-0.453,4.37c-0.029,0.294-0.115,0.487-0.4,0.652
					c-1.127,0.653-1.665,1.873-1.451,3.173c0.277,1.692,0.544,3.386,0.836,5.076c0.09,0.522-0.025,1.022-0.077,1.529
					c-0.451,4.436-0.909,8.872-1.366,13.308C85.653,224.312,85.637,224.36,85.599,224.532z"/>
				<path fill="#FCB932" d="M114.44,192.392c0.252,4.294,0.504,8.588,0.756,12.882c0.009,0.158,0.004,0.318,0.026,0.474
					c0.031,0.22-0.047,0.307-0.272,0.314c-0.343,0.011-0.688,0.025-1.025,0.081c-0.271,0.045-0.366-0.057-0.436-0.299
					c-0.519-1.772-1.051-3.541-1.579-5.31c-0.815-2.73-1.636-5.458-2.442-8.191c-0.412-1.397-1.297-2.234-2.761-2.404
					c-0.233-0.027-0.267-0.139-0.279-0.335c-0.151-2.674-0.31-5.348-0.465-8.022c-0.04-0.685-0.081-1.37-0.114-2.055
					c-0.04-0.853,0.393-1.356,1.244-1.41c1.738-0.11,3.477-0.21,5.216-0.301c0.799-0.042,1.302,0.422,1.35,1.22
					c0.264,4.452,0.525,8.904,0.788,13.356C114.443,192.392,114.442,192.392,114.44,192.392z"/>
				<path fill="#FCB932" d="M82.018,218.431c-0.152-0.256-0.304-0.512-0.455-0.769c-0.849-1.444-1.698-2.888-2.545-4.334
					c-0.73-1.246-1.811-1.875-3.259-1.867c-0.277,0.002-0.555-0.011-0.831,0.004c-0.24,0.013-0.323-0.068-0.31-0.317
					c0.111-2.121,0.211-4.242,0.316-6.363c0.117-2.358,0.237-4.716,0.357-7.074c0.044-0.873,0.544-1.334,1.402-1.292
					c1.726,0.084,3.452,0.169,5.178,0.256c0.803,0.04,1.287,0.565,1.247,1.371c-0.301,6.1-0.605,12.2-0.908,18.3
					c-0.034,0.683-0.066,1.367-0.099,2.05C82.08,218.408,82.049,218.42,82.018,218.431z"/>
				<path fill="#FCB932" d="M107.125,226.862c0.225,0.85,0.45,1.701,0.675,2.551c0.81,3.057,1.614,6.116,2.437,9.17
					c0.096,0.356,0.042,0.449-0.336,0.444c-1.16-0.015-2.32,0-3.48,0.02c-0.289,0.005-0.384-0.055-0.357-0.375
					c0.319-3.77,0.62-7.542,0.927-11.313c0.013-0.166,0.036-0.331,0.054-0.496C107.072,226.863,107.099,226.863,107.125,226.862z"/>
				<path fill="#FCB932" d="M91.056,233.685c-0.174-0.082-0.21-0.219-0.274-0.329c-1.124-1.909-2.242-3.821-3.37-5.728
					c-0.127-0.215-0.182-0.421-0.156-0.671c0.331-3.161,0.655-6.322,0.982-9.483c0.011-0.103,0.04-0.203,0.118-0.308
					C89.254,222.656,90.151,228.146,91.056,233.685z"/>
			</g>
		</g>
		<g id="_x36_TsFBo_00000070090467794420781230000017290045920699624879_">
			<g>
				<path fill="#FCB932" d="M21.508,284.275c-8.58,0-17.159,0.001-25.739,0c-2.246,0-3.842-1.459-4.098-3.687
					c-0.641-5.571-1.302-11.14-1.953-16.711c-0.59-5.046-1.176-10.092-1.766-15.138c-0.619-5.295-1.24-10.59-1.859-15.885
					c-0.519-4.443-1.035-8.887-1.554-13.33c-0.22-1.887-0.442-3.774-0.667-5.661c-0.06-0.501-0.044-0.529,0.449-0.529
					c1.426-0.001,2.851,0.014,4.277-0.006c0.78-0.011,1.326,0.302,1.719,0.974c2.792,4.772,5.596,9.538,8.395,14.306
					c1.911,3.254,3.813,6.514,5.735,9.762c1.002,1.694,2.508,2.561,4.482,2.562c3.814,0.002,7.629-0.012,11.443-0.018
					c4.369-0.007,8.738-0.025,13.107-0.01c0.993,0.003,1.947-0.08,2.842-0.541c0.905-0.466,1.604-1.143,2.123-2.017
					c4.747-7.985,9.501-15.967,14.238-23.958c0.438-0.739,1.009-1.083,1.871-1.063c1.412,0.033,2.825,0.018,4.237,0.003
					c0.356-0.004,0.457,0.108,0.415,0.464c-0.936,7.928-1.865,15.858-2.792,23.787c-0.754,6.448-1.501,12.897-2.255,19.346
					c-0.86,7.353-1.724,14.705-2.585,22.057c-0.063,0.537-0.124,1.075-0.18,1.613c-0.228,2.2-1.856,3.678-4.067,3.678
					C38.72,284.276,30.114,284.275,21.508,284.275z"/>
				<path fill="#FCB932" d="M37.366,236.339c-0.1-1.362-0.199-2.69-0.295-4.018c-0.36-4.948-0.721-9.896-1.08-14.843
					c-0.203-2.79-0.413-5.579-0.599-8.37c-0.062-0.924-0.266-1.773-0.959-2.439c-0.08-0.077-0.108-0.16-0.108-0.279
					c0.011-4.737,0.015-9.474,0.02-14.212c0.001-1.027,0.444-1.479,1.464-1.481c1.636-0.002,3.273-0.003,4.909,0.001
					c0.995,0.002,1.448,0.461,1.448,1.458c0.001,11.969,0.001,23.939,0.003,35.908c0,0.214-0.025,0.409-0.14,0.603
					c-1.475,2.469-2.942,4.943-4.413,7.414C37.563,236.167,37.533,236.276,37.366,236.339z"/>
				<path fill="#FCB932" d="M31.109,239.02c-0.977,0-1.954-0.013-2.93,0.008c-0.314,0.007-0.393-0.097-0.414-0.395
					c-0.298-4.252-0.608-8.503-0.915-12.755c-0.388-5.383-0.776-10.767-1.164-16.15c-0.009-0.118-0.018-0.237-0.022-0.356
					c-0.028-0.788,0.428-1.301,1.222-1.36c1.737-0.129,3.475-0.256,5.212-0.378c0.786-0.055,1.329,0.428,1.389,1.237
					c0.166,2.251,0.326,4.502,0.49,6.752c0.382,5.252,0.765,10.503,1.147,15.755c0.166,2.277,0.324,4.555,0.509,6.83
					c0.028,0.349-0.094,0.496-0.393,0.603c-0.558,0.2-1.132,0.238-1.715,0.234c-0.805-0.006-1.61-0.002-2.415-0.002
					C31.109,239.035,31.109,239.027,31.109,239.02z"/>
				<path fill="#FCB932" d="M20.424,220.679c0.201-2.446,0.385-4.894,0.611-7.338c0.104-1.125-0.081-2.128-0.922-2.942
					c-0.599-0.58-1.33-0.834-2.148-0.882c-0.65-0.038-0.652-0.041-0.828-0.633c-1.382-4.654-2.764-9.308-4.144-13.962
					c-0.27-0.91,0.049-1.504,0.953-1.75c1.655-0.449,3.312-0.889,4.971-1.324c0.789-0.207,1.371,0.131,1.609,0.924
					c1.388,4.638,2.773,9.277,4.16,13.915c0.05,0.168,0.08,0.303-0.073,0.462c-0.644,0.667-0.878,1.486-0.813,2.398
					c0.422,5.884,0.846,11.767,1.269,17.651c0.273,3.791,0.548,7.581,0.812,11.372c0.011,0.157,0.166,0.432-0.191,0.444
					c-0.267,0.009-0.514,0.072-0.621-0.338c-1.517-5.794-3.053-11.582-4.589-17.371C20.425,221.097,20.403,220.892,20.424,220.679z"
					/>
				<path fill="#FCB932" d="M13.117,239.053c-1.174,0-2.349-0.017-3.523,0.01c-0.388,0.009-0.453-0.118-0.423-0.471
					c0.289-3.351,0.562-6.704,0.841-10.056c0.303-3.641,0.607-7.283,0.911-10.924c0.151-1.814,0.299-3.629,0.457-5.442
					c0.07-0.805,0.626-1.257,1.421-1.19c1.709,0.143,3.418,0.283,5.127,0.421c0.875,0.071,1.319,0.595,1.247,1.481
					c-0.487,6.009-0.973,12.018-1.46,18.026c-0.208,2.564-0.424,5.127-0.619,7.692c-0.027,0.353-0.143,0.458-0.498,0.451
					c-1.161-0.023-2.322-0.009-3.483-0.009C13.117,239.046,13.117,239.05,13.117,239.053z"/>
				<path fill="#FCB932" d="M44.04,225.092c0-0.127,0-0.253,0-0.38c0-3.681,0.001-7.362-0.003-11.044
					c0-0.256,0.046-0.49,0.143-0.728c2.704-6.646,5.402-13.293,8.102-19.94c0.353-0.869,0.976-1.143,1.834-0.797
					c1.553,0.627,3.105,1.256,4.656,1.89c0.872,0.356,1.134,0.976,0.783,1.839c-2.059,5.071-4.122,10.14-6.173,15.214
					c-0.132,0.327-0.312,0.534-0.642,0.676c-0.701,0.301-1.201,0.835-1.589,1.49c-2.282,3.846-4.57,7.688-6.856,11.531
					c-0.053,0.089-0.108,0.176-0.162,0.265C44.102,225.103,44.071,225.097,44.04,225.092z"/>
				<path fill="#FCB932" d="M7.267,238.628c-0.384-0.214-0.698-0.408-0.775-0.885c-0.769-4.793-1.553-9.583-2.336-14.373
					c-1.04-6.366-2.082-12.731-3.121-19.097c-0.175-1.075,0.208-1.57,1.298-1.733c1.618-0.242,3.234-0.49,4.851-0.741
					c0.845-0.131,1.414,0.262,1.548,1.117c0.364,2.319,0.695,4.644,1.091,6.958c0.083,0.487,0.076,0.888-0.136,1.337
					c-0.257,0.544-0.208,1.164-0.258,1.753c-0.584,6.941-1.159,13.883-1.737,20.825c-0.128,1.538-0.256,3.076-0.385,4.614
					C7.302,238.467,7.286,238.529,7.267,238.628z"/>
				<path fill="#FCB932" d="M-1.513,224.532c-0.607-1.033-1.16-1.974-1.712-2.916c-0.064-0.11-0.04-0.231-0.034-0.349
					c0.229-4.638,0.46-9.276,0.686-13.914c0.152-3.11,0.315-6.219,0.442-9.33c0.073-1.779-1.254-3.156-3.039-3.233
					c-0.354-0.015-0.821,0.116-1.029-0.11c-0.212-0.23-0.003-0.678,0.033-1.027c0.309-3.019,0.63-6.036,0.951-9.053
					c0.108-1.018,0.595-1.417,1.615-1.316c1.654,0.164,3.308,0.334,4.961,0.506c0.899,0.093,1.328,0.617,1.232,1.54
					c-0.373,3.609-0.757,7.217-1.136,10.825c-0.153,1.456-0.309,2.912-0.453,4.37c-0.029,0.294-0.115,0.487-0.4,0.652
					c-1.127,0.653-1.665,1.873-1.452,3.173c0.277,1.692,0.544,3.386,0.836,5.076c0.09,0.522-0.025,1.022-0.077,1.529
					c-0.451,4.436-0.909,8.872-1.366,13.308C-1.459,224.312-1.475,224.36-1.513,224.532z"/>
				<path fill="#FCB932" d="M27.328,192.392c0.252,4.294,0.504,8.588,0.756,12.882c0.009,0.158,0.004,0.318,0.026,0.474
					c0.031,0.22-0.047,0.307-0.272,0.314c-0.343,0.011-0.688,0.025-1.025,0.081c-0.271,0.045-0.366-0.057-0.436-0.299
					c-0.519-1.772-1.051-3.541-1.579-5.31c-0.815-2.73-1.636-5.458-2.442-8.191c-0.412-1.397-1.297-2.234-2.761-2.404
					c-0.233-0.027-0.267-0.139-0.279-0.335c-0.151-2.674-0.31-5.348-0.465-8.022c-0.04-0.685-0.081-1.37-0.114-2.055
					c-0.04-0.853,0.393-1.356,1.244-1.41c1.738-0.11,3.477-0.21,5.216-0.301c0.799-0.042,1.302,0.422,1.35,1.22
					c0.264,4.452,0.525,8.904,0.788,13.356C27.332,192.392,27.33,192.392,27.328,192.392z"/>
				<path fill="#FCB932" d="M20.013,226.862c0.225,0.85,0.45,1.701,0.675,2.551c0.81,3.057,1.614,6.116,2.437,9.17
					c0.096,0.356,0.042,0.449-0.336,0.444c-1.16-0.015-2.32,0-3.48,0.02c-0.289,0.005-0.384-0.055-0.357-0.375
					c0.319-3.77,0.62-7.542,0.927-11.313c0.013-0.166,0.036-0.331,0.054-0.496C19.96,226.863,19.987,226.863,20.013,226.862z"/>
				<path fill="#FCB932" d="M3.944,233.685c-0.175-0.082-0.21-0.219-0.274-0.329c-1.124-1.909-2.242-3.821-3.37-5.728
					c-0.127-0.215-0.182-0.421-0.156-0.671c0.331-3.161,0.655-6.322,0.982-9.483c0.011-0.103,0.04-0.203,0.118-0.308
					C2.142,222.656,3.039,228.146,3.944,233.685z"/>
			</g>
		</g>
	</g>
	<g clip-path="url(#SVGID_00000095312793039525068940000012923207984886710164_)">
		<g id="_x36_TsFBo_00000154414561295003793200000013710841081186641328_">
			<g>
				<path fill="#FCB932" d="M22.045-15.161c8.58,0,17.159-0.001,25.739,0c2.246,0,3.842,1.459,4.098,3.687
					c0.641,5.571,1.302,11.14,1.953,16.711c0.59,5.046,1.176,10.092,1.766,15.138c0.619,5.295,1.24,10.59,1.859,15.885
					c0.519,4.443,1.035,8.887,1.554,13.33c0.22,1.887,0.442,3.774,0.667,5.661c0.06,0.501,0.044,0.529-0.449,0.529
					c-1.426,0.001-2.851-0.014-4.277,0.006c-0.78,0.011-1.326-0.302-1.719-0.974c-2.792-4.772-5.596-9.538-8.395-14.306
					c-1.911-3.254-3.813-6.514-5.735-9.762c-1.002-1.694-2.508-2.561-4.482-2.562c-3.814-0.002-7.629,0.012-11.443,0.018
					c-4.369,0.007-8.738,0.025-13.107,0.01c-0.993-0.003-1.947,0.08-2.842,0.541c-0.905,0.466-1.604,1.143-2.123,2.017
					C0.363,38.753-4.391,46.735-9.128,54.726c-0.438,0.739-1.009,1.083-1.871,1.063c-1.412-0.033-2.825-0.018-4.237-0.004
					c-0.356,0.004-0.457-0.108-0.415-0.464c0.936-7.928,1.865-15.858,2.792-23.787c0.754-6.448,1.501-12.897,2.255-19.346
					C-9.745,4.836-8.881-2.516-8.02-9.869c0.063-0.537,0.124-1.075,0.18-1.613c0.228-2.2,1.856-3.678,4.067-3.678
					C4.833-15.162,13.439-15.161,22.045-15.161z"/>
				<path fill="#FCB932" d="M6.187,32.775c0.1,1.362,0.199,2.69,0.295,4.018c0.36,4.948,0.721,9.896,1.08,14.843
					c0.203,2.79,0.413,5.579,0.599,8.37c0.062,0.924,0.266,1.773,0.959,2.439c0.08,0.077,0.108,0.16,0.108,0.279
					c-0.011,4.737-0.015,9.475-0.02,14.212c-0.001,1.027-0.444,1.479-1.464,1.481c-1.636,0.002-3.273,0.003-4.909-0.001
					c-0.995-0.002-1.448-0.461-1.448-1.458C1.387,64.988,1.387,53.019,1.385,41.05c0-0.214,0.025-0.409,0.14-0.603
					C3,37.978,4.467,35.504,5.939,33.033C5.99,32.947,6.02,32.838,6.187,32.775z"/>
				<path fill="#FCB932" d="M12.444,30.094c0.977,0,1.954,0.013,2.93-0.008c0.314-0.007,0.393,0.097,0.414,0.395
					c0.298,4.252,0.608,8.503,0.915,12.755c0.388,5.383,0.776,10.767,1.164,16.15c0.009,0.118,0.018,0.237,0.022,0.356
					c0.028,0.788-0.428,1.301-1.222,1.36c-1.737,0.129-3.475,0.256-5.212,0.378c-0.786,0.056-1.329-0.428-1.389-1.237
					c-0.166-2.251-0.326-4.502-0.49-6.752C9.194,48.24,8.812,42.988,8.429,37.737c-0.166-2.277-0.324-4.555-0.509-6.83
					c-0.028-0.349,0.094-0.496,0.393-0.603c0.558-0.2,1.132-0.238,1.715-0.234c0.805,0.006,1.61,0.002,2.415,0.002
					C12.444,30.079,12.444,30.087,12.444,30.094z"/>
				<path fill="#FCB932" d="M23.128,48.434c-0.201,2.446-0.385,4.894-0.611,7.338c-0.104,1.125,0.081,2.128,0.922,2.942
					c0.599,0.58,1.33,0.834,2.148,0.882c0.65,0.038,0.652,0.041,0.828,0.633c1.382,4.654,2.764,9.308,4.144,13.962
					c0.27,0.91-0.049,1.504-0.953,1.75c-1.655,0.449-3.312,0.889-4.971,1.324c-0.789,0.207-1.371-0.131-1.609-0.924
					c-1.388-4.638-2.773-9.277-4.16-13.915c-0.05-0.168-0.08-0.303,0.073-0.462c0.644-0.667,0.878-1.486,0.813-2.398
					c-0.422-5.884-0.846-11.767-1.269-17.651c-0.273-3.791-0.548-7.581-0.812-11.372c-0.011-0.157-0.166-0.432,0.191-0.444
					c0.267-0.009,0.514-0.072,0.621,0.338c1.517,5.794,3.053,11.582,4.589,17.371C23.127,48.016,23.149,48.222,23.128,48.434z"/>
				<path fill="#FCB932" d="M30.435,30.06c1.174,0,2.349,0.017,3.523-0.01c0.388-0.009,0.453,0.118,0.423,0.471
					c-0.289,3.351-0.562,6.704-0.841,10.056c-0.303,3.641-0.607,7.283-0.911,10.924c-0.151,1.814-0.299,3.629-0.457,5.442
					c-0.07,0.805-0.626,1.257-1.421,1.19c-1.709-0.143-3.418-0.283-5.127-0.421c-0.875-0.071-1.319-0.595-1.247-1.481
					c0.487-6.009,0.973-12.018,1.46-18.026c0.208-2.564,0.424-5.127,0.619-7.692c0.027-0.353,0.143-0.458,0.498-0.451
					c1.161,0.023,2.322,0.009,3.483,0.009C30.435,30.068,30.435,30.064,30.435,30.06z"/>
				<path fill="#FCB932" d="M36.285,30.485c0.384,0.214,0.698,0.408,0.775,0.885c0.769,4.793,1.553,9.583,2.336,14.373
					c1.04,6.366,2.082,12.731,3.121,19.097c0.175,1.075-0.208,1.57-1.298,1.733c-1.618,0.242-3.234,0.49-4.851,0.741
					c-0.845,0.131-1.414-0.262-1.548-1.117c-0.364-2.319-0.695-4.644-1.091-6.958c-0.083-0.487-0.076-0.888,0.136-1.337
					c0.257-0.544,0.208-1.164,0.258-1.753c0.584-6.941,1.159-13.883,1.737-20.825c0.128-1.538,0.256-3.076,0.385-4.614
					C36.25,30.647,36.267,30.585,36.285,30.485z"/>
				<path fill="#FCB932" d="M45.066,44.581c0.607,1.033,1.16,1.974,1.712,2.916c0.064,0.11,0.04,0.231,0.034,0.349
					c-0.229,4.638-0.46,9.276-0.686,13.914c-0.152,3.11-0.315,6.219-0.442,9.33c-0.073,1.779,1.254,3.156,3.039,3.233
					c0.354,0.015,0.821-0.116,1.029,0.11c0.212,0.23,0.003,0.678-0.033,1.027c-0.309,3.019-0.63,6.036-0.951,9.053
					c-0.108,1.018-0.595,1.417-1.615,1.316c-1.654-0.164-3.308-0.334-4.961-0.506c-0.899-0.093-1.328-0.617-1.232-1.54
					c0.373-3.609,0.757-7.217,1.136-10.825c0.153-1.456,0.309-2.912,0.453-4.37c0.029-0.294,0.115-0.487,0.4-0.652
					c1.127-0.653,1.665-1.873,1.451-3.173c-0.277-1.692-0.544-3.386-0.836-5.076c-0.09-0.522,0.025-1.022,0.077-1.529
					c0.451-4.436,0.909-8.872,1.366-13.308C45.011,44.802,45.027,44.753,45.066,44.581z"/>
				<path fill="#FCB932" d="M16.224,76.722c-0.252-4.294-0.504-8.588-0.756-12.882c-0.009-0.158-0.004-0.318-0.026-0.474
					c-0.031-0.22,0.047-0.307,0.272-0.314c0.343-0.011,0.688-0.025,1.025-0.081c0.271-0.045,0.366,0.057,0.436,0.299
					c0.519,1.772,1.051,3.541,1.579,5.31c0.815,2.73,1.636,5.458,2.442,8.191c0.412,1.397,1.297,2.234,2.761,2.404
					c0.233,0.027,0.267,0.139,0.279,0.335c0.151,2.674,0.31,5.348,0.465,8.022c0.04,0.685,0.081,1.37,0.114,2.055
					c0.04,0.853-0.393,1.356-1.244,1.41c-1.738,0.11-3.477,0.21-5.216,0.301c-0.799,0.042-1.302-0.422-1.35-1.22
					c-0.264-4.452-0.525-8.904-0.788-13.356C16.221,76.722,16.223,76.722,16.224,76.722z"/>
				<path fill="#FCB932" d="M48.646,50.683c0.152,0.256,0.304,0.512,0.455,0.769c0.849,1.444,1.698,2.888,2.545,4.334
					c0.73,1.246,1.811,1.875,3.259,1.867c0.277-0.002,0.555,0.011,0.831-0.004c0.24-0.013,0.323,0.068,0.31,0.317
					c-0.111,2.121-0.211,4.242-0.316,6.363c-0.117,2.358-0.237,4.716-0.357,7.074c-0.044,0.873-0.544,1.334-1.402,1.292
					c-1.726-0.084-3.452-0.169-5.178-0.256c-0.803-0.04-1.287-0.565-1.247-1.371c0.301-6.1,0.605-12.2,0.908-18.3
					c0.034-0.683,0.066-1.367,0.099-2.051C48.584,50.706,48.615,50.694,48.646,50.683z"/>
				<path fill="#FCB932" d="M23.539,42.251c-0.225-0.85-0.45-1.701-0.675-2.551c-0.81-3.057-1.614-6.116-2.437-9.17
					c-0.096-0.356-0.042-0.449,0.336-0.444c1.16,0.015,2.32,0,3.48-0.02c0.289-0.005,0.384,0.055,0.357,0.375
					c-0.319,3.77-0.62,7.542-0.927,11.313c-0.013,0.166-0.036,0.331-0.054,0.496C23.592,42.25,23.566,42.251,23.539,42.251z"/>
				<path fill="#FCB932" d="M39.609,35.429c0.175,0.082,0.21,0.219,0.274,0.329c1.124,1.909,2.242,3.821,3.37,5.728
					c0.127,0.215,0.182,0.421,0.156,0.671c-0.331,3.161-0.655,6.322-0.982,9.483c-0.011,0.103-0.04,0.203-0.118,0.308
					C41.411,46.458,40.514,40.968,39.609,35.429z"/>
			</g>
		</g>
		<g id="_x36_TsFBo_00000157274938120625613540000016199307914081571503_">
			<g>
				<path fill="#FCB932" d="M109.157-15.161c8.58,0,17.159-0.001,25.739,0c2.246,0,3.842,1.459,4.098,3.687
					c0.641,5.571,1.302,11.14,1.953,16.711c0.59,5.046,1.176,10.092,1.766,15.138c0.619,5.295,1.24,10.59,1.859,15.885
					c0.519,4.443,1.035,8.887,1.554,13.33c0.22,1.887,0.442,3.774,0.667,5.661c0.06,0.501,0.044,0.529-0.449,0.529
					c-1.426,0.001-2.851-0.014-4.277,0.006c-0.78,0.011-1.326-0.302-1.719-0.974c-2.792-4.772-5.596-9.538-8.395-14.306
					c-1.911-3.254-3.813-6.514-5.735-9.762c-1.002-1.694-2.508-2.561-4.482-2.562c-3.814-0.002-7.629,0.012-11.443,0.018
					c-4.369,0.007-8.738,0.025-13.107,0.01c-0.993-0.003-1.947,0.08-2.842,0.541c-0.905,0.466-1.604,1.143-2.123,2.017
					c-4.747,7.985-9.501,15.967-14.238,23.958c-0.438,0.739-1.009,1.083-1.871,1.063c-1.412-0.033-2.825-0.018-4.237-0.004
					c-0.356,0.004-0.457-0.108-0.415-0.464c0.936-7.928,1.865-15.858,2.792-23.787c0.754-6.448,1.501-12.897,2.255-19.346
					c0.86-7.353,1.724-14.705,2.585-22.057c0.063-0.537,0.124-1.075,0.18-1.613c0.228-2.2,1.856-3.678,4.067-3.678
					C91.945-15.162,100.551-15.161,109.157-15.161z"/>
				<path fill="#FCB932" d="M93.299,32.775c0.1,1.362,0.199,2.69,0.295,4.018c0.36,4.948,0.721,9.896,1.08,14.843
					c0.203,2.79,0.413,5.579,0.599,8.37c0.062,0.924,0.266,1.773,0.959,2.439c0.08,0.077,0.108,0.16,0.108,0.279
					c-0.011,4.737-0.015,9.475-0.02,14.212c-0.001,1.027-0.444,1.479-1.464,1.481c-1.636,0.002-3.273,0.003-4.909-0.001
					c-0.995-0.002-1.448-0.461-1.448-1.458c-0.001-11.969-0.001-23.939-0.003-35.908c0-0.214,0.025-0.409,0.14-0.603
					c1.475-2.469,2.942-4.943,4.413-7.414C93.102,32.947,93.132,32.838,93.299,32.775z"/>
				<path fill="#FCB932" d="M99.556,30.094c0.977,0,1.954,0.013,2.93-0.008c0.314-0.007,0.393,0.097,0.414,0.395
					c0.298,4.252,0.608,8.503,0.915,12.755c0.388,5.383,0.776,10.767,1.164,16.15c0.009,0.118,0.018,0.237,0.022,0.356
					c0.028,0.788-0.428,1.301-1.222,1.36c-1.737,0.129-3.475,0.256-5.212,0.378c-0.786,0.056-1.329-0.428-1.389-1.237
					c-0.166-2.251-0.326-4.502-0.49-6.752c-0.382-5.252-0.765-10.503-1.147-15.755c-0.166-2.277-0.324-4.555-0.509-6.83
					c-0.028-0.349,0.094-0.496,0.393-0.603c0.558-0.2,1.132-0.238,1.715-0.234c0.805,0.006,1.61,0.002,2.415,0.002
					C99.556,30.079,99.556,30.087,99.556,30.094z"/>
				<path fill="#FCB932" d="M110.24,48.434c-0.201,2.446-0.385,4.894-0.611,7.338c-0.104,1.125,0.081,2.128,0.922,2.942
					c0.599,0.58,1.33,0.834,2.148,0.882c0.65,0.038,0.652,0.041,0.828,0.633c1.382,4.654,2.764,9.308,4.144,13.962
					c0.27,0.91-0.049,1.504-0.953,1.75c-1.655,0.449-3.312,0.889-4.971,1.324c-0.789,0.207-1.371-0.131-1.609-0.924
					c-1.388-4.638-2.773-9.277-4.16-13.915c-0.05-0.168-0.08-0.303,0.073-0.462c0.644-0.667,0.878-1.486,0.813-2.398
					c-0.422-5.884-0.846-11.767-1.269-17.651c-0.273-3.791-0.548-7.581-0.812-11.372c-0.011-0.157-0.166-0.432,0.191-0.444
					c0.267-0.009,0.514-0.072,0.621,0.338c1.517,5.794,3.053,11.582,4.589,17.371C110.239,48.016,110.261,48.222,110.24,48.434z"/>
				<path fill="#FCB932" d="M117.547,30.06c1.174,0,2.349,0.017,3.523-0.01c0.388-0.009,0.453,0.118,0.423,0.471
					c-0.289,3.351-0.562,6.704-0.841,10.056c-0.303,3.641-0.607,7.283-0.911,10.924c-0.151,1.814-0.299,3.629-0.457,5.442
					c-0.07,0.805-0.626,1.257-1.421,1.19c-1.709-0.143-3.418-0.283-5.127-0.421c-0.875-0.071-1.319-0.595-1.247-1.481
					c0.487-6.009,0.973-12.018,1.46-18.026c0.208-2.564,0.424-5.127,0.619-7.692c0.027-0.353,0.143-0.458,0.498-0.451
					c1.161,0.023,2.322,0.009,3.483,0.009C117.547,30.068,117.547,30.064,117.547,30.06z"/>
				<path fill="#FCB932" d="M86.624,44.022c0,0.127,0,0.253,0,0.38c0,3.681-0.001,7.362,0.003,11.044
					c0,0.256-0.046,0.49-0.143,0.728c-2.704,6.646-5.402,13.293-8.102,19.94c-0.353,0.869-0.976,1.143-1.834,0.797
					c-1.553-0.627-3.105-1.256-4.656-1.89c-0.872-0.356-1.134-0.976-0.783-1.839c2.059-5.071,4.122-10.14,6.173-15.214
					c0.132-0.327,0.312-0.534,0.642-0.676c0.701-0.301,1.201-0.835,1.589-1.49c2.282-3.846,4.57-7.688,6.856-11.531
					c0.053-0.089,0.108-0.176,0.162-0.265C86.563,44.011,86.593,44.016,86.624,44.022z"/>
				<path fill="#FCB932" d="M123.397,30.485c0.384,0.214,0.698,0.408,0.775,0.885c0.769,4.793,1.553,9.583,2.336,14.373
					c1.04,6.366,2.082,12.731,3.121,19.097c0.175,1.075-0.208,1.57-1.298,1.733c-1.618,0.242-3.234,0.49-4.851,0.741
					c-0.845,0.131-1.414-0.262-1.548-1.117c-0.364-2.319-0.695-4.644-1.091-6.958c-0.083-0.487-0.076-0.888,0.136-1.337
					c0.257-0.544,0.208-1.164,0.258-1.753c0.584-6.941,1.159-13.883,1.737-20.825c0.128-1.538,0.256-3.076,0.385-4.614
					C123.362,30.647,123.379,30.585,123.397,30.485z"/>
				<path fill="#FCB932" d="M132.178,44.581c0.607,1.033,1.16,1.974,1.712,2.916c0.064,0.11,0.04,0.231,0.034,0.349
					c-0.229,4.638-0.46,9.276-0.686,13.914c-0.152,3.11-0.315,6.219-0.442,9.33c-0.073,1.779,1.254,3.156,3.039,3.233
					c0.354,0.015,0.821-0.116,1.029,0.11c0.212,0.23,0.003,0.678-0.033,1.027c-0.309,3.019-0.63,6.036-0.951,9.053
					c-0.108,1.018-0.595,1.417-1.615,1.316c-1.654-0.164-3.308-0.334-4.961-0.506c-0.899-0.093-1.328-0.617-1.232-1.54
					c0.373-3.609,0.757-7.217,1.136-10.825c0.153-1.456,0.309-2.912,0.453-4.37c0.029-0.294,0.115-0.487,0.4-0.652
					c1.127-0.653,1.665-1.873,1.452-3.173c-0.277-1.692-0.544-3.386-0.836-5.076c-0.09-0.522,0.025-1.022,0.077-1.529
					c0.451-4.436,0.909-8.872,1.366-13.308C132.123,44.802,132.139,44.753,132.178,44.581z"/>
				<path fill="#FCB932" d="M103.336,76.722c-0.252-4.294-0.504-8.588-0.756-12.882c-0.009-0.158-0.004-0.318-0.026-0.474
					c-0.031-0.22,0.047-0.307,0.272-0.314c0.343-0.011,0.688-0.025,1.025-0.081c0.271-0.045,0.366,0.057,0.436,0.299
					c0.519,1.772,1.051,3.541,1.579,5.31c0.815,2.73,1.636,5.458,2.442,8.191c0.412,1.397,1.297,2.234,2.761,2.404
					c0.233,0.027,0.267,0.139,0.279,0.335c0.151,2.674,0.31,5.348,0.465,8.022c0.04,0.685,0.081,1.37,0.114,2.055
					c0.04,0.853-0.393,1.356-1.244,1.41c-1.738,0.11-3.477,0.21-5.216,0.301c-0.799,0.042-1.302-0.422-1.35-1.22
					c-0.264-4.452-0.525-8.904-0.788-13.356C103.333,76.722,103.335,76.722,103.336,76.722z"/>
				<path fill="#FCB932" d="M135.758,50.683c0.152,0.256,0.304,0.512,0.455,0.769c0.849,1.444,1.698,2.888,2.545,4.334
					c0.73,1.246,1.811,1.875,3.259,1.867c0.277-0.002,0.555,0.011,0.831-0.004c0.24-0.013,0.323,0.068,0.31,0.317
					c-0.111,2.121-0.211,4.242-0.316,6.363c-0.117,2.358-0.237,4.716-0.357,7.074c-0.044,0.873-0.544,1.334-1.402,1.292
					c-1.726-0.084-3.452-0.169-5.178-0.256c-0.803-0.04-1.287-0.565-1.247-1.371c0.301-6.1,0.605-12.2,0.908-18.3
					c0.034-0.683,0.066-1.367,0.099-2.051C135.696,50.706,135.727,50.694,135.758,50.683z"/>
				<path fill="#FCB932" d="M110.651,42.251c-0.225-0.85-0.45-1.701-0.675-2.551c-0.81-3.057-1.614-6.116-2.437-9.17
					c-0.096-0.356-0.042-0.449,0.336-0.444c1.16,0.015,2.32,0,3.48-0.02c0.289-0.005,0.384,0.055,0.357,0.375
					c-0.319,3.77-0.62,7.542-0.927,11.313c-0.013,0.166-0.036,0.331-0.054,0.496C110.704,42.25,110.678,42.251,110.651,42.251z"/>
				<path fill="#FCB932" d="M126.721,35.429c0.175,0.082,0.21,0.219,0.274,0.329c1.124,1.909,2.242,3.821,3.37,5.728
					c0.127,0.215,0.182,0.421,0.156,0.671c-0.331,3.161-0.655,6.322-0.982,9.483c-0.011,0.103-0.04,0.203-0.118,0.308
					C128.522,46.458,127.625,40.968,126.721,35.429z"/>
			</g>
		</g>
		<g id="_x36_TsFBo_00000090266196313966248430000005438095999088463493_">
			<g>
				<path fill="#FCB932" d="M196.269-15.161c8.58,0,17.159-0.001,25.739,0c2.246,0,3.842,1.459,4.098,3.687
					c0.641,5.571,1.302,11.14,1.953,16.711c0.59,5.046,1.176,10.092,1.766,15.138c0.619,5.295,1.24,10.59,1.859,15.885
					c0.519,4.443,1.035,8.887,1.554,13.33c0.22,1.887,0.442,3.774,0.667,5.661c0.06,0.501,0.044,0.529-0.449,0.529
					c-1.426,0.001-2.851-0.014-4.277,0.006c-0.78,0.011-1.326-0.302-1.719-0.974c-2.792-4.772-5.596-9.538-8.395-14.306
					c-1.911-3.254-3.813-6.514-5.735-9.762c-1.003-1.694-2.508-2.561-4.482-2.562c-3.814-0.002-7.629,0.012-11.443,0.018
					c-4.369,0.007-8.738,0.025-13.107,0.01c-0.993-0.003-1.947,0.08-2.842,0.541c-0.905,0.466-1.604,1.143-2.123,2.017
					c-4.747,7.985-9.501,15.967-14.238,23.958c-0.438,0.739-1.009,1.083-1.871,1.063c-1.412-0.033-2.825-0.018-4.237-0.004
					c-0.356,0.004-0.457-0.108-0.415-0.464c0.936-7.928,1.865-15.858,2.792-23.787c0.754-6.448,1.501-12.897,2.255-19.346
					c0.86-7.353,1.724-14.705,2.585-22.057c0.063-0.537,0.124-1.075,0.18-1.613c0.228-2.2,1.856-3.678,4.067-3.678
					C179.056-15.162,187.663-15.161,196.269-15.161z"/>
				<path fill="#FCB932" d="M180.411,32.775c0.1,1.362,0.199,2.69,0.295,4.018c0.36,4.948,0.721,9.896,1.08,14.843
					c0.203,2.79,0.413,5.579,0.599,8.37c0.062,0.924,0.266,1.773,0.959,2.439c0.08,0.077,0.108,0.16,0.108,0.279
					c-0.01,4.737-0.015,9.475-0.02,14.212c-0.001,1.027-0.444,1.479-1.464,1.481c-1.636,0.002-3.273,0.003-4.909-0.001
					c-0.995-0.002-1.448-0.461-1.448-1.458c-0.001-11.969-0.001-23.939-0.003-35.908c0-0.214,0.025-0.409,0.14-0.603
					c1.475-2.469,2.942-4.943,4.413-7.414C180.214,32.947,180.243,32.838,180.411,32.775z"/>
				<path fill="#FCB932" d="M186.668,30.094c0.977,0,1.954,0.013,2.93-0.008c0.314-0.007,0.393,0.097,0.414,0.395
					c0.298,4.252,0.608,8.503,0.915,12.755c0.388,5.383,0.776,10.767,1.164,16.15c0.009,0.118,0.018,0.237,0.022,0.356
					c0.028,0.788-0.428,1.301-1.222,1.36c-1.737,0.129-3.475,0.256-5.212,0.378c-0.786,0.056-1.329-0.428-1.389-1.237
					c-0.166-2.251-0.326-4.502-0.49-6.752c-0.382-5.252-0.765-10.503-1.147-15.755c-0.166-2.277-0.324-4.555-0.509-6.83
					c-0.028-0.349,0.094-0.496,0.393-0.603c0.558-0.2,1.132-0.238,1.715-0.234c0.805,0.006,1.61,0.002,2.415,0.002
					C186.668,30.079,186.668,30.087,186.668,30.094z"/>
				<path fill="#FCB932" d="M197.352,48.434c-0.201,2.446-0.385,4.894-0.611,7.338c-0.104,1.125,0.081,2.128,0.922,2.942
					c0.599,0.58,1.33,0.834,2.148,0.882c0.65,0.038,0.652,0.041,0.828,0.633c1.382,4.654,2.764,9.308,4.144,13.962
					c0.27,0.91-0.049,1.504-0.953,1.75c-1.655,0.449-3.312,0.889-4.971,1.324c-0.789,0.207-1.371-0.131-1.609-0.924
					c-1.388-4.638-2.773-9.277-4.16-13.915c-0.05-0.168-0.08-0.303,0.073-0.462c0.644-0.667,0.878-1.486,0.813-2.398
					c-0.422-5.884-0.846-11.767-1.269-17.651c-0.273-3.791-0.548-7.581-0.812-11.372c-0.011-0.157-0.166-0.432,0.191-0.444
					c0.267-0.009,0.514-0.072,0.621,0.338c1.517,5.794,3.053,11.582,4.589,17.371C197.351,48.016,197.373,48.222,197.352,48.434z"/>
				<path fill="#FCB932" d="M204.659,30.06c1.174,0,2.349,0.017,3.523-0.01c0.388-0.009,0.453,0.118,0.423,0.471
					c-0.289,3.351-0.562,6.704-0.841,10.056c-0.303,3.641-0.607,7.283-0.911,10.924c-0.151,1.814-0.299,3.629-0.457,5.442
					c-0.07,0.805-0.626,1.257-1.421,1.19c-1.709-0.143-3.418-0.283-5.127-0.421c-0.875-0.071-1.319-0.595-1.247-1.481
					c0.487-6.009,0.973-12.018,1.46-18.026c0.208-2.564,0.424-5.127,0.619-7.692c0.027-0.353,0.143-0.458,0.498-0.451
					c1.161,0.023,2.322,0.009,3.483,0.009C204.659,30.068,204.659,30.064,204.659,30.06z"/>
				<path fill="#FCB932" d="M173.736,44.022c0,0.127,0,0.253,0,0.38c0,3.681-0.001,7.362,0.003,11.044
					c0,0.256-0.046,0.49-0.143,0.728c-2.704,6.646-5.402,13.293-8.102,19.94c-0.353,0.869-0.976,1.143-1.834,0.797
					c-1.553-0.627-3.105-1.256-4.656-1.89c-0.872-0.356-1.134-0.976-0.783-1.839c2.059-5.071,4.122-10.14,6.173-15.214
					c0.132-0.327,0.312-0.534,0.642-0.676c0.701-0.301,1.201-0.835,1.589-1.49c2.282-3.846,4.57-7.688,6.856-11.531
					c0.053-0.089,0.108-0.176,0.162-0.265C173.674,44.011,173.705,44.016,173.736,44.022z"/>
				<path fill="#FCB932" d="M210.509,30.485c0.384,0.214,0.698,0.408,0.775,0.885c0.769,4.793,1.553,9.583,2.336,14.373
					c1.04,6.366,2.082,12.731,3.121,19.097c0.175,1.075-0.208,1.57-1.298,1.733c-1.618,0.242-3.234,0.49-4.851,0.741
					c-0.845,0.131-1.414-0.262-1.548-1.117c-0.364-2.319-0.695-4.644-1.091-6.958c-0.083-0.487-0.076-0.888,0.136-1.337
					c0.257-0.544,0.208-1.164,0.258-1.753c0.584-6.941,1.16-13.883,1.737-20.825c0.128-1.538,0.256-3.076,0.385-4.614
					C210.474,30.647,210.491,30.585,210.509,30.485z"/>
				<path fill="#FCB932" d="M219.289,44.581c0.607,1.033,1.16,1.974,1.712,2.916c0.064,0.11,0.04,0.231,0.034,0.349
					c-0.229,4.638-0.46,9.276-0.686,13.914c-0.152,3.11-0.315,6.219-0.442,9.33c-0.073,1.779,1.254,3.156,3.039,3.233
					c0.354,0.015,0.821-0.116,1.029,0.11c0.212,0.23,0.003,0.678-0.033,1.027c-0.309,3.019-0.63,6.036-0.951,9.053
					c-0.108,1.018-0.595,1.417-1.615,1.316c-1.654-0.164-3.308-0.334-4.961-0.506c-0.899-0.093-1.328-0.617-1.232-1.54
					c0.373-3.609,0.757-7.217,1.136-10.825c0.153-1.456,0.309-2.912,0.453-4.37c0.029-0.294,0.115-0.487,0.4-0.652
					c1.127-0.653,1.665-1.873,1.451-3.173c-0.277-1.692-0.544-3.386-0.836-5.076c-0.09-0.522,0.025-1.022,0.077-1.529
					c0.451-4.436,0.909-8.872,1.366-13.308C219.235,44.802,219.251,44.753,219.289,44.581z"/>
				<path fill="#FCB932" d="M190.448,76.722c-0.252-4.294-0.504-8.588-0.756-12.882c-0.009-0.158-0.004-0.318-0.026-0.474
					c-0.031-0.22,0.047-0.307,0.272-0.314c0.343-0.011,0.688-0.025,1.025-0.081c0.271-0.045,0.366,0.057,0.436,0.299
					c0.519,1.772,1.051,3.541,1.579,5.31c0.815,2.73,1.636,5.458,2.442,8.191c0.412,1.397,1.297,2.234,2.761,2.404
					c0.233,0.027,0.267,0.139,0.279,0.335c0.151,2.674,0.309,5.348,0.465,8.022c0.04,0.685,0.081,1.37,0.114,2.055
					c0.04,0.853-0.393,1.356-1.244,1.41c-1.738,0.11-3.477,0.21-5.216,0.301c-0.799,0.042-1.302-0.422-1.35-1.22
					c-0.264-4.452-0.525-8.904-0.788-13.356C190.445,76.722,190.446,76.722,190.448,76.722z"/>
				<path fill="#FCB932" d="M222.87,50.683c0.152,0.256,0.304,0.512,0.455,0.769c0.849,1.444,1.698,2.888,2.545,4.334
					c0.73,1.246,1.811,1.875,3.259,1.867c0.277-0.002,0.555,0.011,0.831-0.004c0.24-0.013,0.323,0.068,0.31,0.317
					c-0.111,2.121-0.211,4.242-0.316,6.363c-0.117,2.358-0.237,4.716-0.357,7.074c-0.044,0.873-0.544,1.334-1.402,1.292
					c-1.726-0.084-3.452-0.169-5.178-0.256c-0.803-0.04-1.287-0.565-1.247-1.371c0.301-6.1,0.605-12.2,0.908-18.3
					c0.034-0.683,0.066-1.367,0.099-2.051C222.808,50.706,222.839,50.694,222.87,50.683z"/>
				<path fill="#FCB932" d="M197.763,42.251c-0.225-0.85-0.45-1.701-0.675-2.551c-0.81-3.057-1.614-6.116-2.437-9.17
					c-0.096-0.356-0.042-0.449,0.336-0.444c1.16,0.015,2.32,0,3.48-0.02c0.289-0.005,0.384,0.055,0.357,0.375
					c-0.319,3.77-0.62,7.542-0.927,11.313c-0.013,0.166-0.036,0.331-0.054,0.496C197.816,42.25,197.789,42.251,197.763,42.251z"/>
				<path fill="#FCB932" d="M213.832,35.429c0.174,0.082,0.21,0.219,0.274,0.329c1.124,1.909,2.242,3.821,3.37,5.728
					c0.127,0.215,0.182,0.421,0.156,0.671c-0.331,3.161-0.655,6.322-0.982,9.483c-0.011,0.103-0.04,0.203-0.118,0.308
					C215.634,46.458,214.737,40.968,213.832,35.429z"/>
			</g>
		</g>
		<g id="_x36_TsFBo_00000154386010516120143710000008823075559338637235_">
			<g>
				<path fill="#FCB932" d="M283.381-15.161c8.58,0,17.159-0.001,25.739,0c2.246,0,3.842,1.459,4.098,3.687
					c0.641,5.571,1.302,11.14,1.953,16.711c0.59,5.046,1.176,10.092,1.766,15.138c0.619,5.295,1.24,10.59,1.859,15.885
					c0.519,4.443,1.035,8.887,1.554,13.33c0.22,1.887,0.442,3.774,0.667,5.661c0.06,0.501,0.044,0.529-0.449,0.529
					c-1.426,0.001-2.851-0.014-4.277,0.006c-0.78,0.011-1.326-0.302-1.719-0.974c-2.792-4.772-5.596-9.538-8.395-14.306
					c-1.911-3.254-3.813-6.514-5.735-9.762c-1.003-1.694-2.508-2.561-4.482-2.562c-3.814-0.002-7.629,0.012-11.443,0.018
					c-4.369,0.007-8.738,0.025-13.107,0.01c-0.993-0.003-1.947,0.08-2.842,0.541c-0.905,0.466-1.604,1.143-2.123,2.017
					c-4.747,7.985-9.501,15.967-14.238,23.958c-0.438,0.739-1.009,1.083-1.871,1.063c-1.412-0.033-2.825-0.018-4.237-0.004
					c-0.356,0.004-0.457-0.108-0.415-0.464c0.936-7.928,1.865-15.858,2.792-23.787c0.754-6.448,1.501-12.897,2.255-19.346
					c0.86-7.353,1.724-14.705,2.585-22.057c0.063-0.537,0.124-1.075,0.18-1.613c0.228-2.2,1.856-3.678,4.067-3.678
					C266.168-15.162,274.774-15.161,283.381-15.161z"/>
				<path fill="#FCB932" d="M267.523,32.775c0.1,1.362,0.199,2.69,0.295,4.018c0.361,4.948,0.721,9.896,1.08,14.843
					c0.203,2.79,0.413,5.579,0.599,8.37c0.062,0.924,0.266,1.773,0.959,2.439c0.08,0.077,0.108,0.16,0.108,0.279
					c-0.01,4.737-0.015,9.475-0.02,14.212c-0.001,1.027-0.444,1.479-1.464,1.481c-1.636,0.002-3.273,0.003-4.909-0.001
					c-0.995-0.002-1.448-0.461-1.448-1.458c-0.001-11.969-0.001-23.939-0.003-35.908c0-0.214,0.025-0.409,0.14-0.603
					c1.475-2.469,2.942-4.943,4.413-7.414C267.325,32.947,267.355,32.838,267.523,32.775z"/>
				<path fill="#FCB932" d="M273.779,30.094c0.977,0,1.954,0.013,2.93-0.008c0.314-0.007,0.393,0.097,0.414,0.395
					c0.298,4.252,0.608,8.503,0.915,12.755c0.388,5.383,0.776,10.767,1.164,16.15c0.009,0.118,0.018,0.237,0.022,0.356
					c0.028,0.788-0.428,1.301-1.222,1.36c-1.737,0.129-3.475,0.256-5.212,0.378c-0.786,0.056-1.329-0.428-1.389-1.237
					c-0.166-2.251-0.326-4.502-0.49-6.752c-0.382-5.252-0.765-10.503-1.147-15.755c-0.166-2.277-0.324-4.555-0.509-6.83
					c-0.028-0.349,0.094-0.496,0.393-0.603c0.558-0.2,1.132-0.238,1.715-0.234c0.805,0.006,1.61,0.002,2.415,0.002
					C273.779,30.079,273.779,30.087,273.779,30.094z"/>
				<path fill="#FCB932" d="M284.464,48.434c-0.201,2.446-0.385,4.894-0.611,7.338c-0.104,1.125,0.081,2.128,0.922,2.942
					c0.599,0.58,1.33,0.834,2.148,0.882c0.65,0.038,0.652,0.041,0.828,0.633c1.382,4.654,2.764,9.308,4.144,13.962
					c0.27,0.91-0.049,1.504-0.953,1.75c-1.655,0.449-3.312,0.889-4.971,1.324c-0.789,0.207-1.371-0.131-1.609-0.924
					c-1.388-4.638-2.773-9.277-4.16-13.915c-0.05-0.168-0.08-0.303,0.073-0.462c0.644-0.667,0.878-1.486,0.813-2.398
					c-0.422-5.884-0.846-11.767-1.269-17.651c-0.273-3.791-0.548-7.581-0.812-11.372c-0.011-0.157-0.166-0.432,0.191-0.444
					c0.267-0.009,0.514-0.072,0.621,0.338c1.517,5.794,3.053,11.582,4.589,17.371C284.463,48.016,284.485,48.222,284.464,48.434z"/>
				<path fill="#FCB932" d="M291.771,30.06c1.174,0,2.349,0.017,3.523-0.01c0.388-0.009,0.453,0.118,0.423,0.471
					c-0.289,3.351-0.562,6.704-0.841,10.056c-0.303,3.641-0.607,7.283-0.911,10.924c-0.151,1.814-0.299,3.629-0.457,5.442
					c-0.07,0.805-0.626,1.257-1.422,1.19c-1.709-0.143-3.418-0.283-5.127-0.421c-0.875-0.071-1.319-0.595-1.247-1.481
					c0.487-6.009,0.973-12.018,1.46-18.026c0.208-2.564,0.424-5.127,0.619-7.692c0.027-0.353,0.143-0.458,0.498-0.451
					c1.161,0.023,2.322,0.009,3.483,0.009C291.771,30.068,291.771,30.064,291.771,30.06z"/>
				<path fill="#FCB932" d="M260.848,44.022c0,0.127,0,0.253,0,0.38c0,3.681-0.001,7.362,0.003,11.044
					c0,0.256-0.046,0.49-0.143,0.728c-2.704,6.646-5.402,13.293-8.102,19.94c-0.353,0.869-0.976,1.143-1.834,0.797
					c-1.553-0.627-3.105-1.256-4.656-1.89c-0.872-0.356-1.134-0.976-0.783-1.839c2.059-5.071,4.122-10.14,6.173-15.214
					c0.132-0.327,0.312-0.534,0.642-0.676c0.701-0.301,1.201-0.835,1.589-1.49c2.281-3.846,4.57-7.688,6.856-11.531
					c0.053-0.089,0.108-0.176,0.162-0.265C260.786,44.011,260.817,44.016,260.848,44.022z"/>
				<path fill="#FCB932" d="M297.621,30.485c0.384,0.214,0.698,0.408,0.775,0.885c0.769,4.793,1.553,9.583,2.336,14.373
					c1.04,6.366,2.082,12.731,3.121,19.097c0.175,1.075-0.208,1.57-1.298,1.733c-1.618,0.242-3.234,0.49-4.85,0.741
					c-0.845,0.131-1.414-0.262-1.548-1.117c-0.364-2.319-0.695-4.644-1.091-6.958c-0.083-0.487-0.076-0.888,0.136-1.337
					c0.257-0.544,0.208-1.164,0.258-1.753c0.584-6.941,1.159-13.883,1.737-20.825c0.128-1.538,0.256-3.076,0.385-4.614
					C297.586,30.647,297.603,30.585,297.621,30.485z"/>
				<path fill="#FCB932" d="M306.401,44.581c0.607,1.033,1.16,1.974,1.712,2.916c0.064,0.11,0.04,0.231,0.034,0.349
					c-0.229,4.638-0.46,9.276-0.686,13.914c-0.152,3.11-0.315,6.219-0.442,9.33c-0.073,1.779,1.254,3.156,3.039,3.233
					c0.354,0.015,0.821-0.116,1.029,0.11c0.212,0.23,0.003,0.678-0.033,1.027c-0.309,3.019-0.63,6.036-0.951,9.053
					c-0.108,1.018-0.595,1.417-1.615,1.316c-1.654-0.164-3.308-0.334-4.961-0.506c-0.899-0.093-1.328-0.617-1.232-1.54
					c0.373-3.609,0.757-7.217,1.135-10.825c0.153-1.456,0.309-2.912,0.453-4.37c0.029-0.294,0.115-0.487,0.4-0.652
					c1.127-0.653,1.665-1.873,1.451-3.173c-0.277-1.692-0.544-3.386-0.836-5.076c-0.09-0.522,0.026-1.022,0.077-1.529
					c0.451-4.436,0.909-8.872,1.366-13.308C306.347,44.802,306.363,44.753,306.401,44.581z"/>
				<path fill="#FCB932" d="M277.56,76.722c-0.252-4.294-0.504-8.588-0.756-12.882c-0.009-0.158-0.004-0.318-0.026-0.474
					c-0.031-0.22,0.047-0.307,0.272-0.314c0.343-0.011,0.688-0.025,1.025-0.081c0.271-0.045,0.366,0.057,0.436,0.299
					c0.519,1.772,1.051,3.541,1.579,5.31c0.815,2.73,1.636,5.458,2.442,8.191c0.412,1.397,1.297,2.234,2.762,2.404
					c0.233,0.027,0.267,0.139,0.279,0.335c0.151,2.674,0.31,5.348,0.465,8.022c0.04,0.685,0.081,1.37,0.114,2.055
					c0.04,0.853-0.393,1.356-1.244,1.41c-1.738,0.11-3.477,0.21-5.216,0.301c-0.799,0.042-1.302-0.422-1.35-1.22
					c-0.264-4.452-0.525-8.904-0.788-13.356C277.557,76.722,277.558,76.722,277.56,76.722z"/>
				<path fill="#FCB932" d="M309.982,50.683c0.152,0.256,0.304,0.512,0.455,0.769c0.849,1.444,1.698,2.888,2.545,4.334
					c0.73,1.246,1.811,1.875,3.259,1.867c0.277-0.002,0.555,0.011,0.831-0.004c0.24-0.013,0.323,0.068,0.31,0.317
					c-0.111,2.121-0.211,4.242-0.316,6.363c-0.117,2.358-0.237,4.716-0.357,7.074c-0.044,0.873-0.544,1.334-1.402,1.292
					c-1.726-0.084-3.452-0.169-5.178-0.256c-0.803-0.04-1.287-0.565-1.247-1.371c0.301-6.1,0.605-12.2,0.908-18.3
					c0.034-0.683,0.066-1.367,0.099-2.051C309.92,50.706,309.951,50.694,309.982,50.683z"/>
				<path fill="#FCB932" d="M284.875,42.251c-0.225-0.85-0.45-1.701-0.675-2.551c-0.81-3.057-1.614-6.116-2.437-9.17
					c-0.096-0.356-0.042-0.449,0.336-0.444c1.16,0.015,2.32,0,3.48-0.02c0.289-0.005,0.384,0.055,0.357,0.375
					c-0.319,3.77-0.62,7.542-0.927,11.313c-0.013,0.166-0.036,0.331-0.054,0.496C284.928,42.25,284.901,42.251,284.875,42.251z"/>
				<path fill="#FCB932" d="M300.944,35.429c0.174,0.082,0.21,0.219,0.274,0.329c1.124,1.909,2.242,3.821,3.37,5.728
					c0.127,0.215,0.182,0.421,0.156,0.671c-0.331,3.161-0.655,6.322-0.982,9.483c-0.011,0.103-0.04,0.203-0.118,0.308
					C302.746,46.458,301.849,40.968,300.944,35.429z"/>
			</g>
		</g>
		<g id="_x36_TsFBo_00000170982717299736630260000008327784741119412888_">
			<g>
				<path fill="#FCB932" d="M370.492-15.161c8.58,0,17.159-0.001,25.739,0c2.246,0,3.842,1.459,4.098,3.687
					c0.641,5.571,1.302,11.14,1.953,16.711c0.59,5.046,1.176,10.092,1.766,15.138c0.619,5.295,1.24,10.59,1.859,15.885
					c0.519,4.443,1.035,8.887,1.554,13.33c0.22,1.887,0.442,3.774,0.667,5.661c0.06,0.501,0.044,0.529-0.449,0.529
					c-1.426,0.001-2.851-0.014-4.277,0.006c-0.78,0.011-1.326-0.302-1.719-0.974c-2.792-4.772-5.596-9.538-8.395-14.306
					c-1.911-3.254-3.813-6.514-5.735-9.762c-1.003-1.694-2.508-2.561-4.482-2.562c-3.814-0.002-7.629,0.012-11.443,0.018
					c-4.369,0.007-8.738,0.025-13.107,0.01c-0.993-0.003-1.947,0.08-2.842,0.541c-0.905,0.466-1.604,1.143-2.123,2.017
					c-4.747,7.985-9.501,15.967-14.238,23.958c-0.438,0.739-1.009,1.083-1.871,1.063c-1.412-0.033-2.825-0.018-4.237-0.004
					c-0.356,0.004-0.457-0.108-0.415-0.464c0.936-7.928,1.865-15.858,2.792-23.787c0.754-6.448,1.501-12.897,2.255-19.346
					c0.86-7.353,1.724-14.705,2.585-22.057c0.063-0.537,0.124-1.075,0.18-1.613c0.228-2.2,1.856-3.678,4.067-3.678
					C353.28-15.162,361.886-15.161,370.492-15.161z"/>
				<path fill="#FCB932" d="M354.634,32.775c0.1,1.362,0.199,2.69,0.295,4.018c0.361,4.948,0.721,9.896,1.08,14.843
					c0.203,2.79,0.413,5.579,0.599,8.37c0.062,0.924,0.266,1.773,0.959,2.439c0.08,0.077,0.108,0.16,0.108,0.279
					c-0.01,4.737-0.015,9.475-0.02,14.212c-0.001,1.027-0.444,1.479-1.464,1.481c-1.636,0.002-3.273,0.003-4.909-0.001
					c-0.995-0.002-1.448-0.461-1.448-1.458c-0.001-11.969-0.001-23.939-0.003-35.908c0-0.214,0.025-0.409,0.141-0.603
					c1.475-2.469,2.942-4.943,4.413-7.414C354.437,32.947,354.467,32.838,354.634,32.775z"/>
				<path fill="#FCB932" d="M360.891,30.094c0.977,0,1.954,0.013,2.93-0.008c0.314-0.007,0.393,0.097,0.414,0.395
					c0.298,4.252,0.608,8.503,0.915,12.755c0.388,5.383,0.776,10.767,1.164,16.15c0.009,0.118,0.018,0.237,0.022,0.356
					c0.028,0.788-0.428,1.301-1.222,1.36c-1.737,0.129-3.475,0.256-5.212,0.378c-0.786,0.056-1.329-0.428-1.389-1.237
					c-0.166-2.251-0.326-4.502-0.49-6.752c-0.382-5.252-0.765-10.503-1.147-15.755c-0.166-2.277-0.324-4.555-0.509-6.83
					c-0.028-0.349,0.094-0.496,0.393-0.603c0.558-0.2,1.132-0.238,1.715-0.234c0.805,0.006,1.61,0.002,2.415,0.002
					C360.891,30.079,360.891,30.087,360.891,30.094z"/>
				<path fill="#FCB932" d="M371.576,48.434c-0.201,2.446-0.385,4.894-0.611,7.338c-0.104,1.125,0.081,2.128,0.922,2.942
					c0.599,0.58,1.33,0.834,2.148,0.882c0.65,0.038,0.652,0.041,0.828,0.633c1.382,4.654,2.764,9.308,4.144,13.962
					c0.27,0.91-0.049,1.504-0.953,1.75c-1.655,0.449-3.312,0.889-4.971,1.324c-0.789,0.207-1.371-0.131-1.609-0.924
					c-1.388-4.638-2.773-9.277-4.16-13.915c-0.05-0.168-0.08-0.303,0.073-0.462c0.644-0.667,0.878-1.486,0.813-2.398
					c-0.422-5.884-0.846-11.767-1.269-17.651c-0.273-3.791-0.548-7.581-0.812-11.372c-0.011-0.157-0.166-0.432,0.191-0.444
					c0.267-0.009,0.514-0.072,0.621,0.338c1.517,5.794,3.053,11.582,4.589,17.371C371.575,48.016,371.597,48.222,371.576,48.434z"/>
				<path fill="#FCB932" d="M378.883,30.06c1.174,0,2.349,0.017,3.523-0.01c0.388-0.009,0.453,0.118,0.423,0.471
					c-0.289,3.351-0.562,6.704-0.841,10.056c-0.303,3.641-0.607,7.283-0.911,10.924c-0.151,1.814-0.299,3.629-0.457,5.442
					c-0.07,0.805-0.626,1.257-1.422,1.19c-1.709-0.143-3.418-0.283-5.127-0.421c-0.875-0.071-1.319-0.595-1.247-1.481
					c0.487-6.009,0.973-12.018,1.46-18.026c0.208-2.564,0.424-5.127,0.619-7.692c0.027-0.353,0.143-0.458,0.498-0.451
					c1.161,0.023,2.322,0.009,3.483,0.009C378.883,30.068,378.883,30.064,378.883,30.06z"/>
				<path fill="#FCB932" d="M347.96,44.022c0,0.127,0,0.253,0,0.38c0,3.681-0.001,7.362,0.003,11.044
					c0,0.256-0.046,0.49-0.143,0.728c-2.704,6.646-5.402,13.293-8.102,19.94c-0.353,0.869-0.976,1.143-1.834,0.797
					c-1.553-0.627-3.105-1.256-4.656-1.89c-0.872-0.356-1.134-0.976-0.783-1.839c2.059-5.071,4.122-10.14,6.173-15.214
					c0.132-0.327,0.312-0.534,0.642-0.676c0.701-0.301,1.201-0.835,1.589-1.49c2.282-3.846,4.57-7.688,6.856-11.531
					c0.053-0.089,0.108-0.176,0.162-0.265C347.898,44.011,347.929,44.016,347.96,44.022z"/>
				<path fill="#FCB932" d="M384.733,30.485c0.384,0.214,0.698,0.408,0.775,0.885c0.769,4.793,1.553,9.583,2.336,14.373
					c1.04,6.366,2.082,12.731,3.121,19.097c0.175,1.075-0.208,1.57-1.298,1.733c-1.618,0.242-3.234,0.49-4.851,0.741
					c-0.845,0.131-1.414-0.262-1.548-1.117c-0.364-2.319-0.695-4.644-1.091-6.958c-0.083-0.487-0.076-0.888,0.136-1.337
					c0.257-0.544,0.208-1.164,0.258-1.753c0.584-6.941,1.16-13.883,1.737-20.825c0.128-1.538,0.256-3.076,0.385-4.614
					C384.698,30.647,384.714,30.585,384.733,30.485z"/>
				<path fill="#FCB932" d="M393.513,44.581c0.607,1.033,1.16,1.974,1.712,2.916c0.064,0.11,0.04,0.231,0.034,0.349
					c-0.229,4.638-0.46,9.276-0.686,13.914c-0.152,3.11-0.315,6.219-0.442,9.33c-0.073,1.779,1.254,3.156,3.039,3.233
					c0.354,0.015,0.821-0.116,1.029,0.11c0.212,0.23,0.003,0.678-0.033,1.027c-0.309,3.019-0.63,6.036-0.951,9.053
					c-0.108,1.018-0.595,1.417-1.615,1.316c-1.654-0.164-3.308-0.334-4.961-0.506c-0.899-0.093-1.328-0.617-1.232-1.54
					c0.373-3.609,0.757-7.217,1.136-10.825c0.153-1.456,0.309-2.912,0.453-4.37c0.029-0.294,0.115-0.487,0.4-0.652
					c1.127-0.653,1.665-1.873,1.451-3.173c-0.277-1.692-0.544-3.386-0.836-5.076c-0.09-0.522,0.026-1.022,0.077-1.529
					c0.451-4.436,0.909-8.872,1.366-13.308C393.459,44.802,393.475,44.753,393.513,44.581z"/>
				<path fill="#FCB932" d="M364.672,76.722c-0.252-4.294-0.504-8.588-0.756-12.882c-0.009-0.158-0.004-0.318-0.026-0.474
					c-0.031-0.22,0.047-0.307,0.272-0.314c0.343-0.011,0.688-0.025,1.025-0.081c0.271-0.045,0.366,0.057,0.436,0.299
					c0.519,1.772,1.051,3.541,1.579,5.31c0.815,2.73,1.636,5.458,2.442,8.191c0.412,1.397,1.297,2.234,2.761,2.404
					c0.233,0.027,0.267,0.139,0.279,0.335c0.151,2.674,0.31,5.348,0.465,8.022c0.04,0.685,0.081,1.37,0.114,2.055
					c0.04,0.853-0.393,1.356-1.244,1.41c-1.738,0.11-3.477,0.21-5.216,0.301c-0.799,0.042-1.302-0.422-1.35-1.22
					c-0.264-4.452-0.525-8.904-0.788-13.356C364.668,76.722,364.67,76.722,364.672,76.722z"/>
				<path fill="#FCB932" d="M371.987,42.251c-0.225-0.85-0.45-1.701-0.675-2.551c-0.81-3.057-1.614-6.116-2.437-9.17
					c-0.096-0.356-0.042-0.449,0.336-0.444c1.16,0.015,2.32,0,3.48-0.02c0.289-0.005,0.384,0.055,0.357,0.375
					c-0.319,3.77-0.62,7.542-0.927,11.313c-0.013,0.166-0.036,0.331-0.054,0.496C372.04,42.25,372.013,42.251,371.987,42.251z"/>
				<path fill="#FCB932" d="M388.056,35.429c0.175,0.082,0.21,0.219,0.274,0.329c1.124,1.909,2.242,3.821,3.37,5.728
					c0.127,0.215,0.182,0.421,0.156,0.671c-0.331,3.161-0.655,6.322-0.982,9.483c-0.011,0.103-0.04,0.203-0.118,0.308
					C389.858,46.458,388.961,40.968,388.056,35.429z"/>
			</g>
		</g>
	</g>
</g>
</svg>
