<?xml version="1.0" encoding="utf-8"?>
<!-- Generator: Adobe Illustrator 26.5.0, SVG Export Plug-In . SVG Version: 6.00 Build 0)  -->
<svg version="1.1" id="Capa_1" xmlns="http://www.w3.org/2000/svg" xmlns:xlink="http://www.w3.org/1999/xlink" x="0px" y="0px"
	 viewBox="0 0 392 268" enable-background="new 0 0 392 268" xml:space="preserve">
<g>
	<rect fill="#3DBFEE" width="392" height="268"/>
	<g>
		<g>
			<g>
				<g>
					<path fill="#FB3D2C" stroke="#421D70" stroke-width="3" stroke-miterlimit="10" d="M126.152,158.272
						c0,8.361-1.021,13.936-3.065,16.722c-4.707,6.565-12.355,9.848-22.946,9.848c-4.645,0-8.795-0.836-12.448-2.508
						c-3.655-1.673-6.735-4.103-9.243-7.293c-2.509-3.189-4.413-7.091-5.714-11.705c-1.3-4.613-1.95-9.862-1.95-15.747
						c0-17.588,6.285-29.077,18.858-34.465c3.839-1.733,7.896-2.602,12.17-2.602c7.432,0,14.925,2.229,22.481,6.688l-9.755,18.302
						c-2.044-2.848-6.286-4.273-12.727-4.273c-3.717,0-6.535,1.472-8.454,4.412c-1.921,2.942-2.88,7.046-2.88,12.31
						c0,2.726,0.263,5.234,0.79,7.524c0.525,2.292,1.269,4.259,2.229,5.899c0.959,1.642,2.137,2.912,3.53,3.809
						c1.393,0.898,2.986,1.348,4.784,1.348c5.325,0,7.989-1.981,7.989-5.946c0-0.432-0.032-0.681-0.093-0.743l-7.896-0.649
						l-1.208-18.209l24.34-0.65c0.433,2.974,0.743,5.946,0.929,8.919S126.152,155.239,126.152,158.272z"/>
					<path fill="#FB3D2C" stroke="#421D70" stroke-width="3" stroke-miterlimit="10" d="M188.302,182.704h-22.296l-2.88-12.913
						h-11.705l-2.415,15.05H127.36l17.001-74.319h28.147L188.302,182.704z M161.733,150.283l-3.902-20.438l-4.088,20.438H161.733z"
						/>
					<path fill="#FB3D2C" stroke="#421D70" stroke-width="3" stroke-miterlimit="10" d="M254.819,184.841h-17.187v-33.723
						l-12.541,21.738l-10.312-16.629v27.498h-18.858v-71.253l18.302-1.394l9.196,25.733l11.984-26.291h19.416V184.841z"/>
					<path fill="#FB3D2C" stroke="#421D70" stroke-width="3" stroke-miterlimit="10" d="M304.426,184.841h-40.504V111.73h38.646
						v18.766l-19.323,1.208l0.65,9.661h18.115v15.05h-16.907v8.453h19.323V184.841z"/>
					<path fill="#FB3D2C" stroke="#421D70" stroke-width="3" stroke-miterlimit="10" d="M360.165,181.869l-16.629,2.415
						l-12.355-18.951v18.301l-19.509,1.208l-2.044-73.297c-0.372-0.062-0.558-0.187-0.558-0.372c0-0.433,2.074-0.65,6.225-0.65
						c6.749,0,12.588,0.265,17.511,0.79c4.924,0.526,8.965,1.688,12.124,3.483c3.158,1.797,5.495,4.398,7.014,7.804
						c1.517,3.406,2.275,7.989,2.275,13.749c0,6.131-2.756,12.046-8.268,17.743L360.165,181.869z M329.415,142.293
						c4.706-0.929,7.061-3.127,7.061-6.596v-0.558c-0.186-1.795-0.961-3.344-2.322-4.645c-1.363-1.301-3.345-2.104-5.946-2.415
						L329.415,142.293z"/>
				</g>
			</g>
		</g>
		<g>
			<g>
				<path fill="#FED130" stroke="#421D70" stroke-width="3" stroke-miterlimit="10" d="M110.85,148.692
					c0,8.361-1.021,13.936-3.065,16.722c-4.707,6.565-12.355,9.848-22.946,9.848c-4.645,0-8.795-0.836-12.448-2.508
					c-3.655-1.673-6.735-4.103-9.243-7.293c-2.509-3.189-4.413-7.091-5.714-11.705c-1.3-4.613-1.95-9.862-1.95-15.747
					c0-17.588,6.285-29.077,18.858-34.465c3.839-1.733,7.896-2.602,12.17-2.602c7.432,0,14.925,2.229,22.481,6.688l-9.755,18.302
					c-2.044-2.848-6.286-4.273-12.727-4.273c-3.717,0-6.535,1.472-8.454,4.412c-1.921,2.942-2.88,7.046-2.88,12.31
					c0,2.726,0.263,5.234,0.79,7.524c0.525,2.292,1.269,4.259,2.229,5.899c0.959,1.642,2.137,2.912,3.53,3.809
					c1.393,0.898,2.986,1.348,4.784,1.348c5.325,0,7.989-1.981,7.989-5.946c0-0.432-0.032-0.681-0.093-0.743l-7.896-0.649
					l-1.208-18.209l24.34-0.65c0.433,2.974,0.743,5.946,0.929,8.919S110.85,145.659,110.85,148.692z"/>
				<path fill="#FED130" stroke="#421D70" stroke-width="3" stroke-miterlimit="10" d="M172.999,173.124h-22.296l-2.88-12.913
					h-11.705l-2.415,15.05h-21.646l17.001-74.319h28.147L172.999,173.124z M146.431,140.703l-3.902-20.438l-4.088,20.438H146.431z"
					/>
				<path fill="#FED130" stroke="#421D70" stroke-width="3" stroke-miterlimit="10" d="M239.517,175.261H222.33v-33.723
					l-12.541,21.738l-10.312-16.629v27.498h-18.858v-71.253l18.302-1.394l9.196,25.733l11.984-26.291h19.416V175.261z"/>
				<path fill="#FED130" stroke="#421D70" stroke-width="3" stroke-miterlimit="10" d="M289.123,175.261h-40.504V102.15h38.646
					v18.766l-19.323,1.208l0.65,9.661h18.115v15.05H269.8v8.453h19.323V175.261z"/>
				<path fill="#FED130" stroke="#421D70" stroke-width="3" stroke-miterlimit="10" d="M344.862,172.288l-16.629,2.415
					l-12.355-18.951v18.301l-19.509,1.208l-2.044-73.297c-0.372-0.062-0.558-0.187-0.558-0.372c0-0.433,2.074-0.65,6.225-0.65
					c6.749,0,12.588,0.265,17.511,0.79c4.924,0.526,8.965,1.688,12.124,3.483c3.158,1.797,5.495,4.398,7.014,7.804
					c1.517,3.406,2.275,7.989,2.275,13.749c0,6.131-2.756,12.046-8.268,17.743L344.862,172.288z M314.112,132.713
					c4.706-0.929,7.061-3.127,7.061-6.596v-0.558c-0.186-1.795-0.961-3.344-2.322-4.645c-1.363-1.301-3.345-2.104-5.946-2.415
					L314.112,132.713z"/>
			</g>
		</g>
		<g>
			<g>
				<path fill="#41D23D" stroke="#421D70" stroke-width="3" stroke-miterlimit="10" d="M100.553,139.142
					c0,8.361-1.021,13.936-3.065,16.722c-4.707,6.565-12.355,9.848-22.946,9.848c-4.645,0-8.795-0.836-12.448-2.508
					c-3.655-1.673-6.735-4.103-9.243-7.293c-2.509-3.189-4.413-7.091-5.714-11.705c-1.3-4.613-1.95-9.862-1.95-15.747
					c0-17.588,6.285-29.077,18.858-34.465c3.839-1.733,7.896-2.602,12.17-2.602c7.432,0,14.925,2.229,22.481,6.688l-9.755,18.302
					c-2.044-2.848-6.286-4.273-12.727-4.273c-3.717,0-6.535,1.472-8.454,4.412c-1.921,2.942-2.88,7.046-2.88,12.31
					c0,2.726,0.263,5.234,0.79,7.524c0.525,2.292,1.269,4.259,2.229,5.899c0.959,1.642,2.137,2.912,3.53,3.809
					c1.393,0.898,2.986,1.348,4.784,1.348c5.325,0,7.989-1.981,7.989-5.946c0-0.432-0.032-0.681-0.093-0.743l-7.896-0.649
					l-1.208-18.209l24.34-0.65c0.433,2.974,0.743,5.946,0.929,8.919S100.553,136.109,100.553,139.142z"/>
				<path fill="#41D23D" stroke="#421D70" stroke-width="3" stroke-miterlimit="10" d="M162.702,163.575h-22.296l-2.88-12.913
					h-11.705l-2.415,15.05h-21.646l17.001-74.319h28.147L162.702,163.575z M136.134,131.153l-3.902-20.438l-4.088,20.438H136.134z"
					/>
				<path fill="#41D23D" stroke="#421D70" stroke-width="3" stroke-miterlimit="10" d="M229.22,165.711h-17.187v-33.723
					l-12.541,21.738l-10.312-16.629v27.498h-18.858V93.343l18.302-1.394l9.196,25.733l11.984-26.291h19.416V165.711z"/>
				<path fill="#41D23D" stroke="#421D70" stroke-width="3" stroke-miterlimit="10" d="M278.826,165.711h-40.504V92.6h38.646v18.766
					l-19.323,1.208l0.65,9.661h18.115v15.05h-16.907v8.453h19.323V165.711z"/>
				<path fill="#41D23D" stroke="#421D70" stroke-width="3" stroke-miterlimit="10" d="M334.565,162.739l-16.629,2.415
					l-12.355-18.951v18.301l-19.509,1.208l-2.044-73.297c-0.372-0.062-0.558-0.187-0.558-0.372c0-0.433,2.074-0.65,6.225-0.65
					c6.749,0,12.588,0.265,17.511,0.79c4.924,0.526,8.965,1.688,12.124,3.483c3.158,1.797,5.495,4.398,7.014,7.804
					c1.517,3.406,2.275,7.989,2.275,13.749c0,6.131-2.756,12.046-8.268,17.743L334.565,162.739z M303.815,123.163
					c4.706-0.929,7.061-3.127,7.061-6.596v-0.558c-0.186-1.795-0.961-3.344-2.322-4.645c-1.363-1.301-3.345-2.104-5.946-2.415
					L303.815,123.163z"/>
			</g>
		</g>
		<g>
			<g>
				<g>
					<path fill="#1898CC" stroke="#421D70" stroke-width="3" stroke-miterlimit="10" d="M86.553,129.142
						c0,8.361-1.021,13.936-3.065,16.722c-4.707,6.565-12.355,9.848-22.946,9.848c-4.645,0-8.795-0.836-12.448-2.508
						c-3.655-1.673-6.735-4.103-9.243-7.293c-2.509-3.189-4.413-7.091-5.714-11.705c-1.3-4.613-1.95-9.862-1.95-15.747
						c0-17.588,6.285-29.077,18.858-34.465c3.839-1.733,7.896-2.602,12.17-2.602c7.432,0,14.925,2.229,22.481,6.688l-9.755,18.302
						c-2.044-2.848-6.286-4.273-12.727-4.273c-3.717,0-6.535,1.472-8.454,4.412c-1.921,2.942-2.88,7.046-2.88,12.31
						c0,2.726,0.263,5.234,0.79,7.524c0.525,2.292,1.269,4.259,2.229,5.899c0.959,1.642,2.137,2.912,3.53,3.809
						c1.393,0.898,2.986,1.348,4.784,1.348c5.325,0,7.989-1.981,7.989-5.946c0-0.432-0.032-0.681-0.093-0.743l-7.896-0.649
						l-1.208-18.209l24.34-0.65c0.433,2.974,0.743,5.946,0.929,8.919S86.553,126.109,86.553,129.142z"/>
					<path fill="#1898CC" stroke="#421D70" stroke-width="3" stroke-miterlimit="10" d="M148.702,153.575h-22.296l-2.88-12.913
						h-11.705l-2.415,15.05H87.761l17.001-74.319h28.147L148.702,153.575z M122.134,121.153l-3.902-20.438l-4.088,20.438H122.134z"
						/>
					<path fill="#1898CC" stroke="#421D70" stroke-width="3" stroke-miterlimit="10" d="M215.22,155.711h-17.187v-33.723
						l-12.541,21.738l-10.312-16.629v27.498h-18.858V83.343l18.302-1.394l9.196,25.733l11.984-26.291h19.416V155.711z"/>
					<path fill="#1898CC" stroke="#421D70" stroke-width="3" stroke-miterlimit="10" d="M264.826,155.711h-40.504V82.6h38.646
						v18.766l-19.323,1.208l0.65,9.661h18.115v15.05h-16.907v8.453h19.323V155.711z"/>
					<path fill="#1898CC" stroke="#421D70" stroke-width="3" stroke-miterlimit="10" d="M320.565,152.739l-16.629,2.415
						l-12.355-18.951v18.301l-19.509,1.208l-2.044-73.297c-0.372-0.062-0.558-0.187-0.558-0.372c0-0.433,2.074-0.65,6.225-0.65
						c6.749,0,12.588,0.265,17.511,0.79c4.924,0.526,8.965,1.688,12.124,3.483c3.158,1.797,5.495,4.398,7.014,7.804
						c1.517,3.406,2.275,7.989,2.275,13.749c0,6.131-2.756,12.046-8.268,17.743L320.565,152.739z M289.815,113.163
						c4.706-0.929,7.061-3.127,7.061-6.596v-0.558c-0.186-1.795-0.961-3.344-2.322-4.645c-1.363-1.301-3.345-2.104-5.946-2.415
						L289.815,113.163z"/>
				</g>
			</g>
		</g>
	</g>
</g>
</svg>
