<?xml version="1.0" encoding="utf-8"?>
<!-- Generator: Adobe Illustrator 26.5.0, SVG Export Plug-In . SVG Version: 6.00 Build 0)  -->
<svg version="1.1" id="Capa_1" xmlns="http://www.w3.org/2000/svg" xmlns:xlink="http://www.w3.org/1999/xlink" x="0px" y="0px"
	 viewBox="0 0 392 268" enable-background="new 0 0 392 268" xml:space="preserve">
<g>
	<g>
		<polygon fill="#421D70" points="364.887,185.608 366.38,190.763 371.535,192.256 366.38,193.749 364.887,198.904 363.394,193.749 
			358.239,192.256 363.394,190.763 		"/>
		<polygon fill="#421D70" points="364.887,200.981 366.38,206.136 371.535,207.629 366.38,209.122 364.887,214.277 363.394,209.122 
			358.239,207.629 363.394,206.136 		"/>
		<polygon fill="#421D70" points="364.887,216.355 366.38,221.51 371.535,223.003 366.38,224.496 364.887,229.651 363.394,224.496 
			358.239,223.003 363.394,221.51 		"/>
		<polygon fill="#421D70" points="364.887,231.728 366.38,236.883 371.535,238.376 366.38,239.869 364.887,245.024 363.394,239.869 
			358.239,238.376 363.394,236.883 		"/>
	</g>
</g>
<g>
	<rect y="0" fill="#41D23D" width="392" height="268"/>
	<g>
		
			<linearGradient id="SVGID_00000001645452791592554940000014977336992020336300_" gradientUnits="userSpaceOnUse" x1="-63.5243" y1="1027.0322" x2="-11.4009" y2="1027.0322" gradientTransform="matrix(0.9903 -0.139 0.139 0.9903 -51.9177 -969.4437)">
			<stop  offset="0" style="stop-color:#7AFEE7"/>
			<stop  offset="1" style="stop-color:#E1AEFF"/>
		</linearGradient>
		<path fill="url(#SVGID_00000001645452791592554940000014977336992020336300_)" stroke="#421D70" stroke-miterlimit="10" d="
			M79.55,49.212c0.056,0.4,0.103,0.802,0.139,1.2c0.118,1.222,0.147,2.433,0.086,3.627c-0.029,0.728-0.093,1.451-0.187,2.164
			c-0.168,1.297-0.432,2.568-0.792,3.809c-0.211,0.744-0.458,1.478-0.736,2.198c-0.556,1.439-1.237,2.822-2.035,4.129
			c-1.898,3.133-4.445,5.857-7.494,7.956c-3.229,2.232-7.018,3.764-11.169,4.347c-4.403,0.618-8.704,0.094-12.608-1.341
			c-2.05-0.757-3.989-1.763-5.774-2.99c-0.522-0.359-1.031-0.735-1.519-1.133c-0.355-0.276-0.696-0.563-1.03-0.861
			c-1.121-0.994-2.159-2.088-3.092-3.264c-0.46-0.577-0.898-1.171-1.306-1.79c-0.781-1.168-1.465-2.404-2.051-3.706
			c-0.175-0.384-0.338-0.779-0.49-1.175c-0.533-1.339-0.953-2.743-1.255-4.197c-0.124-0.571-0.224-1.144-0.306-1.731
			c-0.077-0.548-0.133-1.089-0.176-1.632c-0.031-0.36-0.052-0.717-0.063-1.075c-0.056-1.576,0.027-3.128,0.247-4.646
			c0.078-0.516,0.167-1.029,0.271-1.535c0.309-1.506,0.755-2.968,1.32-4.379c3.35-8.4,10.992-14.818,20.589-16.165
			c6.262-0.879,12.311,0.542,17.302,3.626c0.728,0.447,1.438,0.935,2.118,1.452c1.382,1.055,2.663,2.25,3.814,3.566
			c0.474,0.536,0.921,1.095,1.347,1.672c0.689,0.929,1.322,1.909,1.885,2.938c1.148,2.084,2.019,4.347,2.561,6.754
			c0.075,0.325,0.145,0.65,0.205,0.977C79.427,48.408,79.493,48.807,79.55,49.212z"/>
		<path fill="#421D70" d="M73.354,35.669c-8.727,2.872-17.454,5.749-26.308,8.342c-6.306,1.842-12.681,3.543-19.106,5.091
			c0.078-0.516,0.167-1.029,0.271-1.535c0.309-1.506,0.755-2.968,1.32-4.379c5.495-1.286,10.911-2.897,16.169-4.655
			c7.328-2.457,14.507-5.214,21.722-7.883c0.728,0.447,1.438,0.935,2.118,1.452C70.922,33.158,72.202,34.353,73.354,35.669z"/>
		<path fill="#421D70" d="M79.352,48.01c-17.25,2.426-34.357,5.832-51.114,10.176c-0.124-0.571-0.224-1.144-0.306-1.731
			c-0.077-0.548-0.133-1.089-0.176-1.632c5.303-1.269,10.556-2.725,15.733-4.263c11.082-3.3,22.004-7.014,33.096-10.281
			c1.148,2.084,2.019,4.347,2.561,6.754C79.221,47.358,79.291,47.683,79.352,48.01z"/>
		<path fill="#421D70" d="M78.796,60.013c-0.211,0.744-0.458,1.478-0.736,2.198c-0.556,1.439-1.237,2.822-2.035,4.129
			c-5.764,1.484-11.428,3.333-16.904,5.341c-4.847,1.783-9.608,3.695-14.367,5.622c-2.05-0.757-3.989-1.763-5.774-2.99
			c-0.522-0.359-1.031-0.735-1.519-1.133c6.629-2.383,13.282-4.731,20.016-6.915C64.496,63.997,71.608,61.91,78.796,60.013z"/>
		<path fill="#421D70" d="M79.689,50.412c0.118,1.222,0.147,2.433,0.086,3.627c-6.464,1.621-12.835,3.551-19.083,5.603
			c-9.178,3.018-18.219,6.323-27.353,9.412c-0.46-0.577-0.898-1.171-1.306-1.79c-0.781-1.168-1.465-2.404-2.051-3.706
			c-0.175-0.384-0.338-0.779-0.49-1.175C46.504,59.335,63.303,55.326,79.689,50.412z"/>
		
			<linearGradient id="SVGID_00000122695194217553667880000002952349520822593466_" gradientUnits="userSpaceOnUse" x1="-82.3378" y1="1028.7886" x2="7.3832" y2="1028.7886" gradientTransform="matrix(0.9903 -0.139 0.139 0.9903 -51.9177 -969.4437)">
			<stop  offset="0" style="stop-color:#FFF0CE"/>
			<stop  offset="1" style="stop-color:#DCFFF8"/>
		</linearGradient>
		<path fill="url(#SVGID_00000122695194217553667880000002952349520822593466_)" stroke="#421D70" stroke-miterlimit="10" d="
			M96.621,36.578c-1.769-4.188-11.188-4.553-23.939-1.646c0.228,0.24,0.452,0.486,0.672,0.737c0.474,0.536,0.921,1.095,1.347,1.672
			c0.288,0.387,0.567,0.785,0.828,1.191c5.672-0.543,9.586,0.234,10.541,2.501c1.006,2.39-1.477,5.994-6.338,9.927
			c-5.126,4.155-12.904,8.672-22.006,12.51c-8.624,3.64-16.85,6.004-23.264,6.904c-6.772,0.95-11.527,0.272-12.591-2.257
			c-1.007-2.395,1.489-6.011,6.364-9.951c-0.123-0.566-0.222-1.13-0.303-1.712c-0.077-0.548-0.133-1.089-0.176-1.632
			c-0.031-0.36-0.052-0.717-0.063-1.075l-0.003-0.019C16.191,61.018,9.507,68.273,11.32,72.572
			c1.892,4.482,12.533,4.582,26.637,0.995c6.447-1.638,13.615-4.054,21.001-7.17c7.78-3.283,14.829-6.935,20.681-10.594
			C91.509,48.389,98.464,40.955,96.621,36.578z"/>
	</g>
	<g>
		
			<linearGradient id="SVGID_00000101074161013705231940000005342183660343950500_" gradientUnits="userSpaceOnUse" x1="123.9721" y1="137.0963" x2="291.3704" y2="137.0963">
			<stop  offset="0" style="stop-color:#FFF0CE"/>
			<stop  offset="1" style="stop-color:#DCFFF8"/>
		</linearGradient>
		
			<rect x="123.972" y="61.146" fill="url(#SVGID_00000101074161013705231940000005342183660343950500_)" stroke="#421D70" stroke-miterlimit="10" width="167.398" height="151.9"/>
		
			<linearGradient id="SVGID_00000057144246802029288950000007922786781729930428_" gradientUnits="userSpaceOnUse" x1="123.9721" y1="66.0997" x2="291.3704" y2="66.0997">
			<stop  offset="0" style="stop-color:#7AFEE7"/>
			<stop  offset="1" style="stop-color:#E1AEFF"/>
		</linearGradient>
		
			<rect x="123.972" y="61.146" fill="url(#SVGID_00000057144246802029288950000007922786781729930428_)" stroke="#232020" stroke-miterlimit="10" width="167.398" height="9.907"/>
		<g>
			<path fill="#FFFFFF" stroke="#232020" stroke-miterlimit="10" d="M132.263,66.1c0,1.126-0.913,2.039-2.039,2.039
				c-1.126,0-2.039-0.913-2.039-2.039c0-1.126,0.913-2.039,2.039-2.039C131.35,64.061,132.263,64.974,132.263,66.1z"/>
			<path fill="#FFFFFF" stroke="#232020" stroke-miterlimit="10" d="M139.995,66.1c0,1.126-0.913,2.039-2.039,2.039
				c-1.126,0-2.039-0.913-2.039-2.039c0-1.126,0.913-2.039,2.039-2.039C139.083,64.061,139.995,64.974,139.995,66.1z"/>
			<path fill="#FFFFFF" stroke="#232020" stroke-miterlimit="10" d="M147.728,66.1c0,1.126-0.913,2.039-2.039,2.039
				c-1.126,0-2.039-0.913-2.039-2.039c0-1.126,0.913-2.039,2.039-2.039C146.815,64.061,147.728,64.974,147.728,66.1z"/>
		</g>
	</g>
	<g>
		
			<linearGradient id="SVGID_00000003099460954947461760000003278802915139004566_" gradientUnits="userSpaceOnUse" x1="114.3481" y1="132.143" x2="281.7464" y2="132.143">
			<stop  offset="0" style="stop-color:#FFF0CE"/>
			<stop  offset="1" style="stop-color:#DCFFF8"/>
		</linearGradient>
		
			<rect x="114.348" y="56.193" fill="url(#SVGID_00000003099460954947461760000003278802915139004566_)" stroke="#421D70" stroke-miterlimit="10" width="167.398" height="151.9"/>
		
			<linearGradient id="SVGID_00000122687557635032581090000009172728952391175091_" gradientUnits="userSpaceOnUse" x1="114.3481" y1="61.1464" x2="281.7464" y2="61.1464">
			<stop  offset="0" style="stop-color:#7AFEE7"/>
			<stop  offset="1" style="stop-color:#E1AEFF"/>
		</linearGradient>
		
			<rect x="114.348" y="56.193" fill="url(#SVGID_00000122687557635032581090000009172728952391175091_)" stroke="#421D70" stroke-miterlimit="10" width="167.398" height="9.907"/>
		<g>
			<path fill="#FFFFFF" stroke="#421D70" stroke-miterlimit="10" d="M122.638,61.146c0,1.126-0.913,2.039-2.039,2.039
				c-1.126,0-2.039-0.913-2.039-2.039c0-1.126,0.913-2.039,2.039-2.039C121.726,59.108,122.638,60.02,122.638,61.146z"/>
			<path fill="#FFFFFF" stroke="#421D70" stroke-miterlimit="10" d="M130.371,61.146c0,1.126-0.913,2.039-2.039,2.039
				c-1.126,0-2.039-0.913-2.039-2.039c0-1.126,0.913-2.039,2.039-2.039C129.458,59.108,130.371,60.02,130.371,61.146z"/>
			<path fill="#FFFFFF" stroke="#421D70" stroke-miterlimit="10" d="M138.104,61.146c0,1.126-0.913,2.039-2.039,2.039
				c-1.126,0-2.039-0.913-2.039-2.039c0-1.126,0.913-2.039,2.039-2.039C137.191,59.108,138.104,60.02,138.104,61.146z"/>
		</g>
	</g>
	<g>
		
			<linearGradient id="SVGID_00000018928348915855762950000010847502108434412434_" gradientUnits="userSpaceOnUse" x1="289.1736" y1="68.2023" x2="310.5644" y2="89.5931">
			<stop  offset="0" style="stop-color:#7AFEE7"/>
			<stop  offset="1" style="stop-color:#E1AEFF"/>
		</linearGradient>
		<path fill="url(#SVGID_00000018928348915855762950000010847502108434412434_)" stroke="#421D70" stroke-miterlimit="10" d="
			M311.126,80.513c-1.047-0.866-2.291-1.362-3.556-1.614c1.266-0.255,2.509-0.748,3.556-1.617c1.573-1.306,1.862-3.051,1.634-4.68
			c-0.472-3.409-3.188-6.126-6.597-6.597c-1.629-0.226-3.373,0.063-4.677,1.634c-0.869,1.047-1.362,2.291-1.617,3.559
			c-0.255-1.268-0.748-2.512-1.617-3.559c-1.304-1.571-3.046-1.86-4.677-1.634c-3.409,0.472-6.126,3.188-6.597,6.597
			c-0.229,1.629,0.06,3.373,1.634,4.68c1.044,0.869,2.291,1.362,3.556,1.617c-1.266,0.253-2.512,0.748-3.556,1.614
			c-1.573,1.306-1.862,3.048-1.636,4.68c0.474,3.407,3.19,6.123,6.597,6.597c1.631,0.226,3.376-0.06,4.68-1.634
			c0.869-1.047,1.362-2.293,1.617-3.559c0.255,1.268,0.748,2.512,1.617,3.559c1.304,1.573,3.048,1.862,4.68,1.634
			c3.409-0.472,6.123-3.188,6.597-6.597C312.988,83.562,312.7,81.82,311.126,80.513z M302.801,81.832
			c-1.619,1.619-4.247,1.619-5.866,0c-1.619-1.622-1.619-4.247,0-5.868c1.619-1.619,4.247-1.619,5.866,0
			C304.423,77.585,304.423,80.21,302.801,81.832z"/>
	</g>
	<g>
		
			<linearGradient id="SVGID_00000111165583327480956870000003276270652060459940_" gradientUnits="userSpaceOnUse" x1="256.0132" y1="16.3387" x2="268.8232" y2="29.1488">
			<stop  offset="0" style="stop-color:#7AFEE7"/>
			<stop  offset="1" style="stop-color:#E1AEFF"/>
		</linearGradient>
		<path fill="#232020" stroke="url(#SVGID_00000111165583327480956870000003276270652060459940_)" stroke-miterlimit="10" d="
			M268.787,23.658c-0.592-0.49-1.296-0.771-2.012-0.913c0.716-0.144,1.42-0.423,2.012-0.915c0.89-0.739,1.054-1.726,0.924-2.648
			c-0.267-1.929-1.804-3.466-3.733-3.733c-0.922-0.128-1.909,0.035-2.646,0.924c-0.491,0.592-0.771,1.296-0.915,2.013
			c-0.144-0.717-0.423-1.421-0.915-2.013c-0.738-0.889-1.723-1.052-2.646-0.924c-1.929,0.267-3.466,1.804-3.733,3.733
			c-0.129,0.922,0.034,1.909,0.924,2.648c0.591,0.491,1.296,0.771,2.012,0.915c-0.716,0.143-1.421,0.423-2.012,0.913
			c-0.89,0.739-1.054,1.725-0.926,2.648c0.268,1.928,1.805,3.465,3.733,3.733c0.923,0.128,1.91-0.034,2.648-0.924
			c0.491-0.592,0.771-1.297,0.915-2.013c0.144,0.717,0.423,1.421,0.915,2.013c0.738,0.89,1.725,1.054,2.648,0.924
			c1.929-0.267,3.465-1.804,3.733-3.733C269.841,25.383,269.678,24.397,268.787,23.658z M264.077,24.404
			c-0.916,0.916-2.403,0.916-3.319,0c-0.916-0.918-0.916-2.403,0-3.32c0.916-0.916,2.403-0.916,3.319,0
			C264.995,22.001,264.995,23.486,264.077,24.404z"/>
	</g>
	<g>
		
			<linearGradient id="SVGID_00000069393748724562928090000011758833798462239130_" gradientUnits="userSpaceOnUse" x1="274.0621" y1="16.3387" x2="286.8722" y2="29.1488">
			<stop  offset="0" style="stop-color:#7AFEE7"/>
			<stop  offset="1" style="stop-color:#E1AEFF"/>
		</linearGradient>
		<path fill="#232020" stroke="url(#SVGID_00000069393748724562928090000011758833798462239130_)" stroke-miterlimit="10" d="
			M286.836,23.658c-0.592-0.49-1.296-0.771-2.012-0.913c0.716-0.144,1.42-0.423,2.012-0.915c0.89-0.739,1.054-1.726,0.924-2.648
			c-0.267-1.929-1.804-3.466-3.733-3.733c-0.922-0.128-1.909,0.035-2.646,0.924c-0.491,0.592-0.771,1.296-0.915,2.013
			c-0.144-0.717-0.423-1.421-0.915-2.013c-0.738-0.889-1.723-1.052-2.646-0.924c-1.929,0.267-3.466,1.804-3.733,3.733
			c-0.129,0.922,0.034,1.909,0.924,2.648c0.591,0.491,1.296,0.771,2.012,0.915c-0.716,0.143-1.421,0.423-2.012,0.913
			c-0.89,0.739-1.054,1.725-0.926,2.648c0.268,1.928,1.805,3.465,3.733,3.733c0.923,0.128,1.91-0.034,2.648-0.924
			c0.491-0.592,0.771-1.297,0.915-2.013c0.144,0.717,0.423,1.421,0.915,2.013c0.738,0.89,1.725,1.054,2.648,0.924
			c1.929-0.267,3.465-1.804,3.733-3.733C287.89,25.383,287.727,24.397,286.836,23.658z M282.126,24.404
			c-0.916,0.916-2.403,0.916-3.319,0c-0.916-0.918-0.916-2.403,0-3.32c0.916-0.916,2.403-0.916,3.319,0
			C283.044,22.001,283.044,23.486,282.126,24.404z"/>
	</g>
	<g>
		
			<linearGradient id="SVGID_00000120534714094692714670000000801401234580654235_" gradientUnits="userSpaceOnUse" x1="292.111" y1="16.3387" x2="304.9211" y2="29.1488">
			<stop  offset="0" style="stop-color:#7AFEE7"/>
			<stop  offset="1" style="stop-color:#E1AEFF"/>
		</linearGradient>
		<path fill="#232020" stroke="url(#SVGID_00000120534714094692714670000000801401234580654235_)" stroke-miterlimit="10" d="
			M304.885,23.658c-0.592-0.49-1.296-0.771-2.012-0.913c0.716-0.144,1.42-0.423,2.012-0.915c0.89-0.739,1.054-1.726,0.924-2.648
			c-0.267-1.929-1.804-3.466-3.733-3.733c-0.922-0.128-1.909,0.035-2.646,0.924c-0.491,0.592-0.77,1.296-0.915,2.013
			c-0.144-0.717-0.423-1.421-0.915-2.013c-0.738-0.889-1.723-1.052-2.646-0.924c-1.929,0.267-3.466,1.804-3.733,3.733
			c-0.129,0.922,0.034,1.909,0.924,2.648c0.591,0.491,1.296,0.771,2.012,0.915c-0.716,0.143-1.421,0.423-2.012,0.913
			c-0.89,0.739-1.054,1.725-0.926,2.648c0.268,1.928,1.805,3.465,3.733,3.733c0.923,0.128,1.91-0.034,2.648-0.924
			c0.491-0.592,0.771-1.297,0.915-2.013c0.144,0.717,0.423,1.421,0.915,2.013c0.738,0.89,1.725,1.054,2.648,0.924
			c1.929-0.267,3.465-1.804,3.733-3.733C305.939,25.383,305.776,24.397,304.885,23.658z M300.175,24.404
			c-0.916,0.916-2.403,0.916-3.319,0c-0.916-0.918-0.916-2.403,0-3.32c0.916-0.916,2.403-0.916,3.319,0
			C301.093,22.001,301.093,23.486,300.175,24.404z"/>
	</g>
	<g>
		
			<linearGradient id="SVGID_00000138547475221729729760000004256326748961251769_" gradientUnits="userSpaceOnUse" x1="32.5233" y1="200.3463" x2="49.0455" y2="216.8685">
			<stop  offset="0" style="stop-color:#7AFEE7"/>
			<stop  offset="1" style="stop-color:#E1AEFF"/>
		</linearGradient>
		<path fill="url(#SVGID_00000138547475221729729760000004256326748961251769_)" stroke="#421D70" stroke-miterlimit="10" d="
			M49.479,209.855c-0.808-0.669-1.769-1.052-2.747-1.247c0.978-0.197,1.938-0.578,2.747-1.249c1.215-1.009,1.438-2.356,1.262-3.615
			c-0.364-2.633-2.462-4.731-5.096-5.096c-1.258-0.175-2.605,0.048-3.613,1.262c-0.671,0.808-1.052,1.769-1.249,2.749
			c-0.197-0.979-0.578-1.94-1.249-2.749c-1.007-1.213-2.353-1.437-3.613-1.262c-2.633,0.364-4.731,2.462-5.096,5.096
			c-0.177,1.258,0.046,2.605,1.262,3.615c0.807,0.671,1.769,1.052,2.747,1.249c-0.978,0.195-1.94,0.578-2.747,1.247
			c-1.215,1.009-1.438,2.355-1.264,3.615c0.366,2.632,2.464,4.73,5.096,5.096c1.26,0.175,2.607-0.046,3.615-1.262
			c0.671-0.808,1.052-1.771,1.249-2.749c0.197,0.979,0.578,1.94,1.249,2.749c1.007,1.215,2.355,1.438,3.615,1.262
			c2.633-0.364,4.73-2.462,5.096-5.096C50.918,212.21,50.695,210.864,49.479,209.855z M43.049,210.874
			c-1.251,1.251-3.28,1.251-4.531,0c-1.251-1.253-1.251-3.28,0-4.533c1.251-1.251,3.28-1.251,4.531,0
			C44.302,207.594,44.302,209.621,43.049,210.874z"/>
	</g>
	<g>
		
			<linearGradient id="SVGID_00000153681918148666235880000013936998626709019793_" gradientUnits="userSpaceOnUse" x1="32.5233" y1="224.3086" x2="49.0455" y2="240.8307">
			<stop  offset="0" style="stop-color:#7AFEE7"/>
			<stop  offset="1" style="stop-color:#E1AEFF"/>
		</linearGradient>
		<path fill="url(#SVGID_00000153681918148666235880000013936998626709019793_)" stroke="#421D70" stroke-miterlimit="10" d="
			M49.479,233.818c-0.808-0.669-1.769-1.052-2.747-1.247c0.978-0.197,1.938-0.578,2.747-1.249c1.215-1.009,1.438-2.356,1.262-3.615
			c-0.364-2.633-2.462-4.731-5.096-5.096c-1.258-0.175-2.605,0.048-3.613,1.262c-0.671,0.808-1.052,1.769-1.249,2.749
			c-0.197-0.979-0.578-1.94-1.249-2.749c-1.007-1.213-2.353-1.437-3.613-1.262c-2.633,0.364-4.731,2.462-5.096,5.096
			c-0.177,1.258,0.046,2.605,1.262,3.615c0.807,0.671,1.769,1.052,2.747,1.249c-0.978,0.195-1.94,0.578-2.747,1.247
			c-1.215,1.009-1.438,2.355-1.264,3.615c0.366,2.631,2.464,4.73,5.096,5.096c1.26,0.175,2.607-0.046,3.615-1.262
			c0.671-0.808,1.052-1.771,1.249-2.749c0.197,0.979,0.578,1.94,1.249,2.749c1.007,1.215,2.355,1.438,3.615,1.262
			c2.633-0.364,4.73-2.462,5.096-5.096C50.918,236.172,50.695,234.827,49.479,233.818z M43.049,234.836
			c-1.251,1.251-3.28,1.251-4.531,0c-1.251-1.253-1.251-3.28,0-4.533c1.251-1.251,3.28-1.251,4.531,0
			C44.302,231.556,44.302,233.583,43.049,234.836z"/>
	</g>
	<g>
		
			<linearGradient id="SVGID_00000153672298985720381330000006518789352725200042_" gradientUnits="userSpaceOnUse" x1="228.5331" y1="220.5889" x2="278.179" y2="220.5889">
			<stop  offset="0" style="stop-color:#FFD26C"/>
			<stop  offset="1" style="stop-color:#FFAB42"/>
		</linearGradient>
		
			<circle fill="url(#SVGID_00000153672298985720381330000006518789352725200042_)" stroke="#421D70" stroke-miterlimit="10" cx="253.356" cy="220.589" r="24.823"/>
		
			<linearGradient id="SVGID_00000100371664075285020410000008382672465269831815_" gradientUnits="userSpaceOnUse" x1="284.203" y1="195.1335" x2="232.4524" y2="237.8389">
			<stop  offset="0" style="stop-color:#FFD26C"/>
			<stop  offset="1" style="stop-color:#FFAB42"/>
		</linearGradient>
		
			<circle fill="url(#SVGID_00000100371664075285020410000008382672465269831815_)" stroke="#421D70" stroke-miterlimit="10" cx="253.356" cy="220.589" r="20.822"/>
		<path fill="none" stroke="#421D70" stroke-miterlimit="10" d="M267.06,220.589c0,7.568-6.135,13.704-13.704,13.704
			c-7.568,0-13.703-6.135-13.703-13.704"/>
		<g>
			<ellipse fill="#421D70" cx="247.204" cy="216.513" rx="2.166" ry="7.019"/>
			<ellipse fill="#421D70" cx="259.509" cy="216.513" rx="2.166" ry="7.019"/>
		</g>
	</g>
	<g>
		<polygon fill="#FFFFFF" points="223.513,7.192 225.961,15.646 234.415,18.095 225.961,20.543 223.513,28.997 221.064,20.543 
			212.61,18.095 221.064,15.646 		"/>
		<polygon fill="#FFFFFF" points="82.031,28.015 83.461,32.95 88.395,34.379 83.461,35.808 82.031,40.742 80.602,35.808 
			75.668,34.379 80.602,32.95 		"/>
		<polygon fill="#FFFFFF" points="84.119,250.296 85.851,256.276 91.831,258.008 85.851,259.74 84.119,265.72 82.388,259.74 
			76.408,258.008 82.388,256.276 		"/>
		<polygon fill="#FFFFFF" points="193.282,218.465 194.538,222.803 198.876,224.059 194.538,225.315 193.282,229.653 
			192.026,225.315 187.688,224.059 192.026,222.803 		"/>
	</g>
	<g>
		<path fill="#421D70" d="M77.309,165.156h-15.76l-2.036-9.128h-8.273l-1.707,10.638H34.231l12.017-52.533h19.897L77.309,165.156z
			 M58.528,142.238l-2.758-14.446l-2.89,14.446H58.528z"/>
		<path fill="#421D70" d="M109.419,166.666h-28.63v-51.679h27.317v13.265l-13.659,0.854l0.46,6.83h12.805v10.638H95.761v5.977
			h13.658V166.666z"/>
		<path fill="#421D70" d="M147.9,154.059c0,1.444-0.384,2.922-1.149,4.433c-0.767,1.511-1.752,2.868-2.955,4.071
			c-1.205,1.205-2.551,2.189-4.038,2.955c-1.489,0.766-2.955,1.148-4.4,1.148c-9.807,0-17.424-4.202-22.852-12.607l11.426-6.107
			c0.438,0.701,0.985,1.412,1.642,2.135c0.657,0.723,1.347,1.379,2.068,1.97c0.723,0.591,1.455,1.083,2.2,1.478
			c0.744,0.395,1.422,0.591,2.035,0.591c1.356,0,2.036-1.007,2.036-3.021c0-0.481-0.197-0.963-0.591-1.445
			c-0.395-0.48-0.909-0.951-1.543-1.411c-0.636-0.46-1.357-0.919-2.167-1.379c-0.812-0.46-1.632-0.908-2.463-1.347
			c-1.62-0.962-3.109-2.078-4.466-3.349c-1.357-1.269-2.518-2.627-3.479-4.071c-0.964-1.445-1.719-2.943-2.266-4.499
			c-0.548-1.553-0.821-3.119-0.821-4.695c0-2.188,0.383-4.191,1.149-6.009c0.766-1.816,1.816-3.371,3.152-4.662
			c1.334-1.291,2.932-2.298,4.793-3.021c1.86-0.723,3.885-1.083,6.074-1.083c1.708,0,3.393,0.197,5.057,0.591
			c1.663,0.394,3.218,0.952,4.662,1.674c1.444,0.723,2.735,1.587,3.874,2.594c1.139,1.008,2.036,2.102,2.692,3.284l-8.143,8.931
			c-0.394-0.7-0.886-1.368-1.478-2.003c-0.591-0.634-1.215-1.192-1.871-1.674c-0.656-0.481-1.336-0.864-2.036-1.149
			c-0.7-0.284-1.357-0.427-1.97-0.427c-2.189,0-3.283,1.205-3.283,3.612c0,1.62,1.642,3.415,4.925,5.384
			c2.364,1.445,4.29,2.715,5.779,3.809c1.487,1.096,2.626,2.036,3.414,2.824C146.235,145.041,147.9,149.199,147.9,154.059z"/>
		<path fill="#421D70" d="M184.804,129.499h-9.784v37.167h-13.724v-36.313h-10.311l-1.182-14.512h35V129.499z"/>
		<path fill="#421D70" d="M226.962,114.133v52.533H211.07v-17.927h-7.617v17.927l-15.366-1.312v-50.761h14.118v20.028h10.639
			v-20.488H226.962z"/>
		<path fill="#421D70" d="M260.517,166.666h-28.63v-51.679h27.317v13.265l-13.659,0.854l0.46,6.83h12.805v10.638h-11.951v5.977
			h13.658V166.666z"/>
		<path fill="#421D70" d="M298.406,129.499h-9.784v37.167h-13.724v-36.313h-10.311l-1.182-14.512h35V129.499z"/>
		<path fill="#421D70" d="M318.172,114.133v52.533h-16.548v-52.533H318.172z"/>
		<path fill="#421D70" d="M350.084,131.601c-1.927-1.27-3.874-1.904-5.844-1.904c-1.271,0-2.441,0.339-3.514,1.018
			c-1.073,0.679-1.992,1.587-2.758,2.725c-0.767,1.139-1.357,2.43-1.772,3.875c-0.417,1.444-0.624,2.955-0.624,4.53
			c0,1.402,0.207,2.704,0.624,3.908c0.415,1.204,1.018,2.244,1.806,3.119c0.788,0.876,1.729,1.565,2.823,2.068
			c1.094,0.504,2.342,0.755,3.743,0.755c2.89,0,5.297-0.831,7.224-2.495l3.874,13.199c-4.291,2.846-8.996,4.268-14.118,4.268
			c-13.091,0-19.635-8.186-19.635-24.559c0-3.678,0.481-7.201,1.445-10.573c0.962-3.371,2.353-6.347,4.17-8.931
			c1.815-2.583,4.049-4.64,6.697-6.173c2.648-1.532,5.658-2.298,9.029-2.298c1.532,0,3.042,0.088,4.531,0.262
			c1.487,0.176,2.823,0.427,4.006,0.755c1.182,0.328,2.155,0.733,2.922,1.215c0.766,0.482,1.215,1.008,1.347,1.576L350.084,131.601z
			"/>
	</g>
</g>
</svg>
