<?xml version="1.0" encoding="utf-8"?>
<!-- Generator: Adobe Illustrator 26.5.0, SVG Export Plug-In . SVG Version: 6.00 Build 0)  -->
<svg version="1.1" id="Capa_1" xmlns="http://www.w3.org/2000/svg" xmlns:xlink="http://www.w3.org/1999/xlink" x="0px" y="0px"
	 viewBox="0 0 392 268" enable-background="new 0 0 392 268" xml:space="preserve">
<g>
	<rect y="0" fill="#0D61B3" width="392" height="268"/>
	<g>
		<g>
			<g>
				
					<ellipse transform="matrix(0.9998 -0.0217 0.0217 0.9998 -2.8478 3.5406)" fill="#F3F3F1" cx="161.54" cy="132.847" rx="51.497" ry="51.498"/>
			</g>
			<circle fill="#421D70" cx="161.54" cy="132.847" r="46.855"/>
			<g>
				
					<ellipse transform="matrix(0.1602 -0.9871 0.9871 0.1602 4.5325 271.0208)" fill="#FB3D2C" cx="161.54" cy="132.847" rx="43.981" ry="43.981"/>
			</g>
			<g>
				<g>
					<g>
						<g>
							<circle fill="#421D70" cx="145.023" cy="125.018" r="6.506"/>
						</g>
					</g>
					<g>
						<g>
							<circle fill="#421D70" cx="178.056" cy="125.018" r="6.506"/>
						</g>
					</g>
					<g>
						<g>
							<path fill="#421D70" d="M165.044,140.033c-0.051,0-0.102-0.004-0.153-0.012l-13.013-2.002
								c-0.403-0.062-0.727-0.361-0.822-0.758c-0.094-0.396,0.061-0.809,0.392-1.046l10.51-7.507
								c0.448-0.321,1.074-0.218,1.396,0.233c0.321,0.45,0.217,1.075-0.233,1.396l-8.508,6.077l10.581,1.628
								c0.546,0.084,0.921,0.595,0.837,1.141C165.956,139.679,165.53,140.033,165.044,140.033z"/>
						</g>
					</g>
					<g>
						<g>
							<path fill="#421D70" d="M161.54,154.762c-4.328,0-8.429-2.107-10.97-5.637c-0.323-0.449-0.221-1.074,0.228-1.397
								c0.449-0.324,1.074-0.221,1.397,0.228c2.166,3.008,5.659,4.804,9.345,4.804c3.686,0,7.179-1.796,9.345-4.804
								c0.323-0.448,0.948-0.551,1.397-0.228c0.449,0.323,0.551,0.948,0.228,1.397C169.969,152.655,165.868,154.762,161.54,154.762z
								"/>
						</g>
					</g>
				</g>
			</g>
		</g>
		<g>
			<g>
				<g>
					
						<ellipse transform="matrix(0.9998 -0.0217 0.0217 0.9998 -2.8967 5.3045)" fill="#F3F3F1" cx="242.702" cy="135.98" rx="48.943" ry="48.944"/>
				</g>
				<circle fill="#421D70" cx="242.702" cy="135.98" r="44.531"/>
				<g>
					<g>
						<circle fill="#FB3D2C" cx="242.702" cy="135.98" r="41.8"/>
					</g>
				</g>
			</g>
			<g>
				<g>
					<g>
						
							<rect x="223.18" y="121.605" transform="matrix(0.7071 -0.7071 0.7071 0.7071 -19.0922 200.4203)" fill="#421D70" width="18.379" height="3.3"/>
					</g>
					<g>
						
							<rect x="230.719" y="114.066" transform="matrix(0.7071 -0.7071 0.7071 0.7071 -19.0953 200.4103)" fill="#421D70" width="3.3" height="18.379"/>
					</g>
				</g>
				<g>
					<ellipse fill="#421D70" cx="253.917" cy="122.459" rx="6.782" ry="12.098"/>
				</g>
			</g>
			<g>
				<path fill="#421D70" d="M242.74,166.636c-7.561,0-14.989-2.83-20.661-8.119c-4.33-4.038-7.358-9.195-8.758-14.912l3.205-0.784
					c1.228,5.019,4,9.736,7.803,13.283c7.051,6.576,17.154,8.886,26.366,6.029c8.981-2.786,15.947-10.186,18.181-19.312l3.205,0.784
					c-2.507,10.245-10.327,18.552-20.408,21.679C248.743,166.192,245.731,166.636,242.74,166.636z"/>
			</g>
		</g>
		<g>
			<g>
				<path fill="#FFFFFF" stroke="#421D70" stroke-width="3" stroke-miterlimit="10" d="M101.052,115.761
					c-3.612-2.379-7.262-3.569-10.955-3.569c-2.381,0-4.575,0.636-6.584,1.908c-2.012,1.273-3.735,2.975-5.17,5.108
					c-1.437,2.135-2.544,4.554-3.323,7.262c-0.781,2.708-1.169,5.539-1.169,8.493c0,2.627,0.388,5.068,1.169,7.324
					c0.779,2.258,1.908,4.206,3.385,5.847c1.477,1.643,3.24,2.935,5.293,3.877c2.05,0.944,4.389,1.416,7.016,1.416
					c5.415,0,9.927-1.559,13.539-4.678l7.262,24.74c-8.043,5.335-16.862,8-26.463,8c-24.536,0-36.802-15.343-36.802-46.033
					c0-6.893,0.902-13.497,2.708-19.816c1.804-6.318,4.409-11.897,7.815-16.739c3.404-4.841,7.589-8.697,12.555-11.57
					c4.964-2.872,10.604-4.308,16.924-4.308c2.871,0,5.702,0.166,8.492,0.492c2.789,0.329,5.293,0.8,7.509,1.416
					c2.215,0.616,4.04,1.375,5.477,2.277c1.435,0.904,2.277,1.888,2.523,2.954L101.052,115.761z"/>
			</g>
		</g>
		<g>
			<g>
				<g>
					<path fill="#FFFFFF" stroke="#421D70" stroke-width="3" stroke-miterlimit="10" d="M346.951,182.64h-50.095V86.512
						l23.879-2.338v71.511h26.216V182.64z"/>
				</g>
			</g>
		</g>
	</g>
</g>
</svg>
