<?xml version="1.0" encoding="UTF-8"?><svg id="Capa_2" xmlns="http://www.w3.org/2000/svg" xmlns:xlink="http://www.w3.org/1999/xlink" viewBox="0 0 393.54 268"><defs><style>.cls-1{fill:none;}.cls-2{clip-path:url(#clippath);}.cls-3{fill:#0a487f;}.cls-4{fill:#0d5eb6;}.cls-5{fill:#3dbfee;}.cls-6{fill:#31c1f4;stroke:#112a60;stroke-linejoin:round;stroke-width:2px;}</style><clipPath id="clippath"><rect class="cls-1" width="393.54" height="268"/></clipPath></defs><g id="Capa_1-2"><g><g class="cls-2"><rect class="cls-5" width="393.54" height="268"/><g id="Iuv72F"><path class="cls-4" d="M79.88,57.03c0,5.47-1.1,10.74-2.92,15.87-2.03,5.75-4.93,11.04-8.65,15.88-3.32,4.32-7.13,8.13-11.47,11.41-4.93,3.73-10.3,6.64-16.24,8.4-3.49,1.04-7.06,1.6-10.71,1.56-3.44-.03-6.73-.78-9.97-1.87-2.07-.7-4.09-1.53-6.02-2.55-2.1-1.12-4.08-2.42-5.87-4-.14-.13-.27-.26-.47-.31-2.29-.54-3.95-2.03-5.49-3.68-4.32-4.61-6.72-10.14-7.73-16.31-.76-4.68-.61-9.34,.21-14,1.16-6.65,3.6-12.8,7.01-18.58,3.15-5.34,7.05-10.07,11.66-14.22,4.83-4.34,10.2-7.83,16.22-10.27,3.28-1.33,6.67-2.28,10.18-2.78,4.44-.63,8.87-.51,13.23,.61,5.1,1.31,9.52,3.79,13.16,7.64,.89,.94,2.03,1.59,3.01,2.43,2.97,2.56,5.38,5.55,7.2,9.02,2.57,4.94,3.68,10.22,3.66,15.76ZM10.89,101.9c.05,.19,.25,.25,.4,.36,3.11,2.21,6.56,3.7,10.17,4.88,5.43,1.78,10.92,1.88,16.45,.59,3.41-.79,6.68-2.02,9.8-3.61,6.29-3.19,11.72-7.49,16.43-12.72,3.75-4.17,6.86-8.79,9.24-13.88,2.34-5,3.98-10.21,4.65-15.7,.56-4.6,.36-9.17-.84-13.68-1.1-4.13-2.99-7.86-5.7-11.16-.29-.35-.53-.76-1.06-1.09,.2,.69,.61,1.06,.95,1.47,.78,.95,1.4,1.99,1.73,3.18,.56,2.05,.58,4.03-.71,5.89-1.02,1.46-1.13,3.1-.68,4.8,.29,1.11,.76,2.14,1.2,3.19,.85,2.03,.85,4-.6,5.78-.41,.51-1.01,.87-1.43,1.38-1.65,2-2.22,4.32-1.83,6.87,.31,2.01-.31,3.71-1.66,5.17-.76,.82-1.78,1.29-2.68,1.91-1.61,1.11-2.67,2.56-2.93,4.54-.2,1.5-.38,3.01-.65,4.5-.39,2.12-1.65,3.65-3.81,4.11-1.18,.25-2.38,.43-3.59,.58-1.48,.18-2.59,.9-3.4,2.13-1.09,1.65-2.19,3.29-3.26,4.94-1.2,1.85-2.82,3.02-5.03,3.37-1.61,.26-3.23,.47-4.85,.63-2.02,.19-3.99,.5-5.69,1.76-1.16,.86-2.36,1.65-3.5,2.53-1.82,1.4-3.72,1.76-5.85,.75-1.56-.74-3.11-1.5-4.65-2.28-2.08-1.05-4.22-1.79-6.61-1.19Zm17.43-26.97c3.68,.02,6.79-1.33,9.46-3.83,2.17-2.03,3.71-4.5,4.94-7.17,1.26-2.72,1.93-5.54,1.57-8.56-.15-1.28-.13-1.28-1.38-1.42-.21-.02-.42-.03-.63-.03-3.37-.05-6.33,1.16-8.96,3.15-3.76,2.85-6.24,6.57-7.24,11.22-.44,2.03-.42,4.07,.18,6.08,.08,.28,.2,.44,.53,.48,.51,.05,1.02,.07,1.53,.08Zm15.2-22.46c-.35-.89-.76-1.65-1.31-2.33-.17-.21-.4-.27-.66-.14-.19,.09-.39,.14-.59,.22-2.04,.77-4,.76-5.86-.54-.29-.2-.64-.33-.98-.46-.96-.37-1.6-.19-2.29,.59-.6,.69-1.05,1.49-1.53,2.26-1.59,2.55-3.3,4.94-6.55,5.57-.88,.17-1.26,.9-1.38,1.76-.16,1.15-.18,2.31-.05,3.47,.21,1.83,.31,3.63-.49,5.37-.37,.81-.65,1.66-.9,2.52-.21,.74-.2,1.43,.34,2.02,.34,.36,.77,.62,1.21,.84,.67,.35,1.35,.71,2.15,.83-.9-3.86-.24-7.46,1.41-10.91,1.49-3.12,3.64-5.71,6.44-7.76,2.49-1.83,5.23-3.05,8.34-3.34,.87-.08,1.74-.03,2.68,.04Z"/></g><g id="Iuv72F-2"><path class="cls-4" d="M79.88,180.75c0,5.47-1.1,10.74-2.92,15.87-2.03,5.75-4.93,11.04-8.65,15.88-3.32,4.32-7.13,8.13-11.47,11.41-4.93,3.73-10.3,6.64-16.24,8.4-3.49,1.04-7.06,1.6-10.71,1.56-3.44-.03-6.73-.78-9.97-1.87-2.07-.7-4.09-1.53-6.02-2.55-2.1-1.12-4.08-2.42-5.87-4-.14-.13-.27-.26-.47-.31-2.29-.54-3.95-2.03-5.49-3.68-4.32-4.61-6.72-10.14-7.73-16.31-.76-4.68-.61-9.34,.21-14,1.16-6.65,3.6-12.8,7.01-18.58,3.15-5.34,7.05-10.07,11.66-14.22,4.83-4.34,10.2-7.83,16.22-10.27,3.28-1.33,6.67-2.28,10.18-2.78,4.44-.63,8.87-.51,13.23,.61,5.1,1.31,9.52,3.79,13.16,7.64,.89,.94,2.03,1.59,3.01,2.43,2.97,2.56,5.38,5.55,7.2,9.02,2.57,4.94,3.68,10.22,3.66,15.76ZM10.89,225.63c.05,.19,.25,.25,.4,.36,3.11,2.21,6.56,3.7,10.17,4.88,5.43,1.78,10.92,1.88,16.45,.59,3.41-.79,6.68-2.02,9.8-3.61,6.29-3.19,11.72-7.49,16.43-12.72,3.75-4.17,6.86-8.79,9.24-13.88,2.34-5,3.98-10.21,4.65-15.7,.56-4.6,.36-9.17-.84-13.68-1.1-4.13-2.99-7.86-5.7-11.16-.29-.35-.53-.76-1.06-1.09,.2,.69,.61,1.06,.95,1.47,.78,.95,1.4,1.99,1.73,3.18,.56,2.05,.58,4.03-.71,5.89-1.02,1.46-1.13,3.1-.68,4.8,.29,1.11,.76,2.14,1.2,3.19,.85,2.03,.85,4-.6,5.78-.41,.51-1.01,.87-1.43,1.38-1.65,2-2.22,4.32-1.83,6.87,.31,2.01-.31,3.71-1.66,5.17-.76,.82-1.78,1.29-2.68,1.91-1.61,1.11-2.67,2.56-2.93,4.54-.2,1.5-.38,3.01-.65,4.5-.39,2.12-1.65,3.65-3.81,4.11-1.18,.25-2.38,.43-3.59,.58-1.48,.18-2.59,.9-3.4,2.13-1.09,1.65-2.19,3.29-3.26,4.94-1.2,1.85-2.82,3.02-5.03,3.37-1.61,.26-3.23,.47-4.85,.63-2.02,.19-3.99,.5-5.69,1.76-1.16,.86-2.36,1.65-3.5,2.53-1.82,1.4-3.72,1.76-5.85,.75-1.56-.74-3.11-1.5-4.65-2.28-2.08-1.05-4.22-1.79-6.61-1.19Zm17.43-26.97c3.68,.02,6.79-1.33,9.46-3.83,2.17-2.03,3.71-4.5,4.94-7.17,1.26-2.72,1.93-5.54,1.57-8.56-.15-1.28-.13-1.28-1.38-1.42-.21-.02-.42-.03-.63-.03-3.37-.05-6.33,1.16-8.96,3.15-3.76,2.85-6.24,6.57-7.24,11.22-.44,2.03-.42,4.07,.18,6.08,.08,.28,.2,.44,.53,.48,.51,.05,1.02,.07,1.53,.08Zm15.2-22.46c-.35-.89-.76-1.65-1.31-2.33-.17-.21-.4-.27-.66-.14-.19,.09-.39,.14-.59,.22-2.04,.77-4,.76-5.86-.54-.29-.2-.64-.33-.98-.46-.96-.37-1.6-.19-2.29,.59-.6,.69-1.05,1.49-1.53,2.26-1.59,2.55-3.3,4.94-6.55,5.57-.88,.17-1.26,.9-1.38,1.76-.16,1.15-.18,2.31-.05,3.47,.21,1.83,.31,3.63-.49,5.37-.37,.81-.65,1.66-.9,2.52-.21,.74-.2,1.43,.34,2.02,.34,.36,.77,.62,1.21,.84,.67,.35,1.35,.71,2.15,.83-.9-3.86-.24-7.46,1.41-10.91,1.49-3.12,3.64-5.71,6.44-7.76,2.49-1.83,5.23-3.05,8.34-3.34,.87-.08,1.74-.03,2.68,.04Z"/></g><g id="Iuv72F-3"><path class="cls-4" d="M297.6,57.03c0,5.47-1.1,10.74-2.92,15.87-2.03,5.75-4.93,11.04-8.65,15.88-3.32,4.32-7.13,8.13-11.47,11.41-4.93,3.73-10.3,6.64-16.24,8.4-3.49,1.04-7.06,1.6-10.71,1.56-3.44-.03-6.73-.78-9.97-1.87-2.07-.7-4.09-1.53-6.02-2.55-2.1-1.12-4.08-2.42-5.87-4-.14-.13-.27-.26-.47-.31-2.29-.54-3.95-2.03-5.49-3.68-4.32-4.61-6.72-10.14-7.73-16.31-.76-4.68-.61-9.34,.21-14,1.16-6.65,3.6-12.8,7.01-18.58,3.15-5.34,7.05-10.07,11.66-14.22,4.83-4.34,10.2-7.83,16.22-10.27,3.28-1.33,6.67-2.28,10.18-2.78,4.44-.63,8.87-.51,13.23,.61,5.1,1.31,9.52,3.79,13.16,7.64,.89,.94,2.03,1.59,3.01,2.43,2.97,2.56,5.38,5.55,7.2,9.02,2.57,4.94,3.68,10.22,3.66,15.76Zm-68.99,44.87c.05,.19,.25,.25,.4,.36,3.11,2.21,6.56,3.7,10.17,4.88,5.43,1.78,10.92,1.88,16.45,.59,3.41-.79,6.68-2.02,9.8-3.61,6.29-3.19,11.72-7.49,16.43-12.72,3.75-4.17,6.86-8.79,9.24-13.88,2.34-5,3.98-10.21,4.65-15.7,.56-4.6,.36-9.17-.84-13.68-1.1-4.13-2.99-7.86-5.7-11.16-.29-.35-.53-.76-1.06-1.09,.2,.69,.61,1.06,.95,1.47,.78,.95,1.4,1.99,1.73,3.18,.56,2.05,.58,4.03-.71,5.89-1.02,1.46-1.13,3.1-.68,4.8,.29,1.11,.76,2.14,1.2,3.19,.85,2.03,.85,4-.6,5.78-.41,.51-1.01,.87-1.43,1.38-1.65,2-2.22,4.32-1.83,6.87,.31,2.01-.31,3.71-1.66,5.17-.76,.82-1.78,1.29-2.68,1.91-1.61,1.11-2.67,2.56-2.93,4.54-.2,1.5-.38,3.01-.65,4.5-.39,2.12-1.65,3.65-3.81,4.11-1.18,.25-2.38,.43-3.59,.58-1.48,.18-2.59,.9-3.4,2.13-1.09,1.65-2.19,3.29-3.26,4.94-1.2,1.85-2.82,3.02-5.03,3.37-1.61,.26-3.23,.47-4.85,.63-2.02,.19-3.99,.5-5.69,1.76-1.16,.86-2.36,1.65-3.5,2.53-1.82,1.4-3.72,1.76-5.85,.75-1.56-.74-3.11-1.5-4.65-2.28-2.08-1.05-4.22-1.79-6.61-1.19Zm17.43-26.97c3.68,.02,6.79-1.33,9.46-3.83,2.17-2.03,3.71-4.5,4.94-7.17,1.26-2.72,1.93-5.54,1.57-8.56-.15-1.28-.13-1.28-1.38-1.42-.21-.02-.42-.03-.63-.03-3.37-.05-6.33,1.16-8.96,3.15-3.76,2.85-6.24,6.57-7.24,11.22-.44,2.03-.42,4.07,.18,6.08,.08,.28,.2,.44,.53,.48,.51,.05,1.02,.07,1.53,.08Zm15.2-22.46c-.35-.89-.76-1.65-1.31-2.33-.17-.21-.4-.27-.66-.14-.19,.09-.39,.14-.59,.22-2.04,.77-4,.76-5.86-.54-.29-.2-.64-.33-.98-.46-.96-.37-1.6-.19-2.29,.59-.6,.69-1.05,1.49-1.53,2.26-1.59,2.55-3.3,4.94-6.55,5.57-.88,.17-1.26,.9-1.38,1.76-.16,1.15-.18,2.31-.05,3.47,.21,1.83,.31,3.63-.49,5.37-.37,.81-.65,1.66-.9,2.52-.21,.74-.2,1.43,.34,2.02,.34,.36,.77,.62,1.21,.84,.67,.35,1.35,.71,2.15,.83-.9-3.86-.24-7.46,1.41-10.91,1.49-3.12,3.64-5.71,6.44-7.76,2.49-1.83,5.23-3.05,8.34-3.34,.87-.08,1.74-.03,2.68,.04Z"/></g><g id="Iuv72F-4"><path class="cls-4" d="M297.6,180.75c0,5.47-1.1,10.74-2.92,15.87-2.03,5.75-4.93,11.04-8.65,15.88-3.32,4.32-7.13,8.13-11.47,11.41-4.93,3.73-10.3,6.64-16.24,8.4-3.49,1.04-7.06,1.6-10.71,1.56-3.44-.03-6.73-.78-9.97-1.87-2.07-.7-4.09-1.53-6.02-2.55-2.1-1.12-4.08-2.42-5.87-4-.14-.13-.27-.26-.47-.31-2.29-.54-3.95-2.03-5.49-3.68-4.32-4.61-6.72-10.14-7.73-16.31-.76-4.68-.61-9.34,.21-14,1.16-6.65,3.6-12.8,7.01-18.58,3.15-5.34,7.05-10.07,11.66-14.22,4.83-4.34,10.2-7.83,16.22-10.27,3.28-1.33,6.67-2.28,10.18-2.78,4.44-.63,8.87-.51,13.23,.61,5.1,1.31,9.52,3.79,13.16,7.64,.89,.94,2.03,1.59,3.01,2.43,2.97,2.56,5.38,5.55,7.2,9.02,2.57,4.94,3.68,10.22,3.66,15.76Zm-68.99,44.87c.05,.19,.25,.25,.4,.36,3.11,2.21,6.56,3.7,10.17,4.88,5.43,1.78,10.92,1.88,16.45,.59,3.41-.79,6.68-2.02,9.8-3.61,6.29-3.19,11.72-7.49,16.43-12.72,3.75-4.17,6.86-8.79,9.24-13.88,2.34-5,3.98-10.21,4.65-15.7,.56-4.6,.36-9.17-.84-13.68-1.1-4.13-2.99-7.86-5.7-11.16-.29-.35-.53-.76-1.06-1.09,.2,.69,.61,1.06,.95,1.47,.78,.95,1.4,1.99,1.73,3.18,.56,2.05,.58,4.03-.71,5.89-1.02,1.46-1.13,3.1-.68,4.8,.29,1.11,.76,2.14,1.2,3.19,.85,2.03,.85,4-.6,5.78-.41,.51-1.01,.87-1.43,1.38-1.65,2-2.22,4.32-1.83,6.87,.31,2.01-.31,3.71-1.66,5.17-.76,.82-1.78,1.29-2.68,1.91-1.61,1.11-2.67,2.56-2.93,4.54-.2,1.5-.38,3.01-.65,4.5-.39,2.12-1.65,3.65-3.81,4.11-1.18,.25-2.38,.43-3.59,.58-1.48,.18-2.59,.9-3.4,2.13-1.09,1.65-2.19,3.29-3.26,4.94-1.2,1.85-2.82,3.02-5.03,3.37-1.61,.26-3.23,.47-4.85,.63-2.02,.19-3.99,.5-5.69,1.76-1.16,.86-2.36,1.65-3.5,2.53-1.82,1.4-3.72,1.76-5.85,.75-1.56-.74-3.11-1.5-4.65-2.28-2.08-1.05-4.22-1.79-6.61-1.19Zm17.43-26.97c3.68,.02,6.79-1.33,9.46-3.83,2.17-2.03,3.71-4.5,4.94-7.17,1.26-2.72,1.93-5.54,1.57-8.56-.15-1.28-.13-1.28-1.38-1.42-.21-.02-.42-.03-.63-.03-3.37-.05-6.33,1.16-8.96,3.15-3.76,2.85-6.24,6.57-7.24,11.22-.44,2.03-.42,4.07,.18,6.08,.08,.28,.2,.44,.53,.48,.51,.05,1.02,.07,1.53,.08Zm15.2-22.46c-.35-.89-.76-1.65-1.31-2.33-.17-.21-.4-.27-.66-.14-.19,.09-.39,.14-.59,.22-2.04,.77-4,.76-5.86-.54-.29-.2-.64-.33-.98-.46-.96-.37-1.6-.19-2.29,.59-.6,.69-1.05,1.49-1.53,2.26-1.59,2.55-3.3,4.94-6.55,5.57-.88,.17-1.26,.9-1.38,1.76-.16,1.15-.18,2.31-.05,3.47,.21,1.83,.31,3.63-.49,5.37-.37,.81-.65,1.66-.9,2.52-.21,.74-.2,1.43,.34,2.02,.34,.36,.77,.62,1.21,.84,.67,.35,1.35,.71,2.15,.83-.9-3.86-.24-7.46,1.41-10.91,1.49-3.12,3.64-5.71,6.44-7.76,2.49-1.83,5.23-3.05,8.34-3.34,.87-.08,1.74-.03,2.68,.04Z"/></g><g id="Iuv72F-5"><path class="cls-4" d="M180.65,107.15c0,5.47-1.1,10.74-2.92,15.87-2.03,5.75-4.93,11.04-8.65,15.88-3.32,4.32-7.13,8.13-11.47,11.41-4.93,3.73-10.3,6.64-16.24,8.4-3.49,1.04-7.06,1.6-10.71,1.56-3.44-.03-6.73-.78-9.97-1.87-2.07-.7-4.09-1.53-6.02-2.55-2.1-1.12-4.08-2.42-5.87-4-.14-.13-.27-.26-.47-.31-2.29-.54-3.95-2.03-5.49-3.68-4.32-4.61-6.72-10.14-7.73-16.31-.76-4.68-.61-9.34,.21-14,1.16-6.65,3.6-12.8,7.01-18.58,3.15-5.34,7.05-10.07,11.66-14.22,4.83-4.34,10.2-7.83,16.22-10.27,3.28-1.33,6.67-2.28,10.18-2.78,4.44-.63,8.87-.51,13.23,.61,5.1,1.31,9.52,3.79,13.16,7.64,.89,.94,2.03,1.59,3.01,2.43,2.97,2.56,5.38,5.55,7.2,9.02,2.57,4.94,3.68,10.22,3.66,15.76Zm-68.99,44.87c.05,.19,.25,.25,.4,.36,3.11,2.21,6.56,3.7,10.17,4.88,5.43,1.78,10.92,1.88,16.45,.59,3.41-.79,6.68-2.02,9.8-3.61,6.29-3.19,11.72-7.49,16.43-12.72,3.75-4.17,6.86-8.79,9.24-13.88,2.34-5,3.98-10.21,4.65-15.7,.56-4.6,.36-9.17-.84-13.68-1.1-4.13-2.99-7.86-5.7-11.16-.29-.35-.53-.76-1.06-1.09,.2,.69,.61,1.06,.95,1.47,.78,.95,1.4,1.99,1.73,3.18,.56,2.05,.58,4.03-.71,5.89-1.02,1.46-1.13,3.1-.68,4.8,.29,1.11,.76,2.14,1.2,3.19,.85,2.03,.85,4-.6,5.78-.41,.51-1.01,.87-1.43,1.38-1.65,2-2.22,4.32-1.83,6.87,.31,2.01-.31,3.71-1.66,5.17-.76,.82-1.78,1.29-2.68,1.91-1.61,1.11-2.67,2.56-2.93,4.54-.2,1.5-.38,3.01-.65,4.5-.39,2.12-1.65,3.65-3.81,4.11-1.18,.25-2.38,.43-3.59,.58-1.48,.18-2.59,.9-3.4,2.13-1.09,1.65-2.19,3.29-3.26,4.94-1.2,1.85-2.82,3.02-5.03,3.37-1.61,.26-3.23,.47-4.85,.63-2.02,.19-3.99,.5-5.69,1.76-1.16,.86-2.36,1.65-3.5,2.53-1.82,1.4-3.72,1.76-5.85,.75-1.56-.74-3.11-1.5-4.65-2.28-2.08-1.05-4.22-1.79-6.61-1.19Zm17.43-26.97c3.68,.02,6.79-1.33,9.46-3.83,2.17-2.03,3.71-4.5,4.94-7.17,1.26-2.72,1.93-5.54,1.57-8.56-.15-1.28-.13-1.28-1.38-1.42-.21-.02-.42-.03-.63-.03-3.37-.05-6.33,1.16-8.96,3.15-3.76,2.85-6.24,6.57-7.24,11.22-.44,2.03-.42,4.07,.18,6.08,.08,.28,.2,.44,.53,.48,.51,.05,1.02,.07,1.53,.08Zm15.2-22.46c-.35-.89-.76-1.65-1.31-2.33-.17-.21-.4-.27-.66-.14-.19,.09-.39,.14-.59,.22-2.04,.77-4,.76-5.86-.54-.29-.2-.64-.33-.98-.46-.96-.37-1.6-.19-2.29,.59-.6,.69-1.05,1.49-1.53,2.26-1.59,2.55-3.3,4.94-6.55,5.57-.88,.17-1.26,.9-1.38,1.76-.16,1.15-.18,2.31-.05,3.47,.21,1.83,.31,3.63-.49,5.37-.37,.81-.65,1.66-.9,2.52-.21,.74-.2,1.43,.34,2.02,.34,.36,.77,.62,1.21,.84,.67,.35,1.35,.71,2.15,.83-.9-3.86-.24-7.46,1.41-10.91,1.49-3.12,3.64-5.71,6.44-7.76,2.49-1.83,5.23-3.05,8.34-3.34,.87-.08,1.74-.03,2.68,.04Z"/></g><g id="Iuv72F-6"><path class="cls-4" d="M180.65,230.88c0,5.47-1.1,10.74-2.92,15.87-2.03,5.75-4.93,11.04-8.65,15.88-3.32,4.32-7.13,8.13-11.47,11.41-4.93,3.73-10.3,6.64-16.24,8.4-3.49,1.04-7.06,1.6-10.71,1.56-3.44-.03-6.73-.78-9.97-1.87-2.07-.7-4.09-1.53-6.02-2.55-2.1-1.12-4.08-2.42-5.87-4-.14-.13-.27-.26-.47-.31-2.29-.54-3.95-2.03-5.49-3.68-4.32-4.61-6.72-10.14-7.73-16.31-.76-4.68-.61-9.34,.21-14,1.16-6.65,3.6-12.8,7.01-18.58,3.15-5.34,7.05-10.07,11.66-14.22,4.83-4.34,10.2-7.83,16.22-10.27,3.28-1.33,6.67-2.28,10.18-2.78,4.44-.63,8.87-.51,13.23,.61,5.1,1.31,9.52,3.79,13.16,7.64,.89,.94,2.03,1.59,3.01,2.43,2.97,2.56,5.38,5.55,7.2,9.02,2.57,4.94,3.68,10.22,3.66,15.76Zm-68.99,44.87c.05,.19,.25,.25,.4,.36,3.11,2.21,6.56,3.7,10.17,4.88,5.43,1.78,10.92,1.88,16.45,.59,3.41-.79,6.68-2.02,9.8-3.61,6.29-3.19,11.72-7.49,16.43-12.72,3.75-4.17,6.86-8.79,9.24-13.88,2.34-5,3.98-10.21,4.65-15.7,.56-4.6,.36-9.17-.84-13.68-1.1-4.13-2.99-7.86-5.7-11.16-.29-.35-.53-.76-1.06-1.09,.2,.69,.61,1.06,.95,1.47,.78,.95,1.4,1.99,1.73,3.18,.56,2.05,.58,4.03-.71,5.89-1.02,1.46-1.13,3.1-.68,4.8,.29,1.11,.76,2.14,1.2,3.19,.85,2.03,.85,4-.6,5.78-.41,.51-1.01,.87-1.43,1.38-1.65,2-2.22,4.32-1.83,6.87,.31,2.01-.31,3.71-1.66,5.17-.76,.82-1.78,1.29-2.68,1.91-1.61,1.11-2.67,2.56-2.93,4.54-.2,1.5-.38,3.01-.65,4.5-.39,2.12-1.65,3.65-3.81,4.11-1.18,.25-2.38,.43-3.59,.58-1.48,.18-2.59,.9-3.4,2.13-1.09,1.65-2.19,3.29-3.26,4.94-1.2,1.85-2.82,3.02-5.03,3.37-1.61,.26-3.23,.47-4.85,.63-2.02,.19-3.99,.5-5.69,1.76-1.16,.86-2.36,1.65-3.5,2.53-1.82,1.4-3.72,1.76-5.85,.75-1.56-.74-3.11-1.5-4.65-2.28-2.08-1.05-4.22-1.79-6.61-1.19Zm17.43-26.97c3.68,.02,6.79-1.33,9.46-3.83,2.17-2.03,3.71-4.5,4.94-7.17,1.26-2.72,1.93-5.54,1.57-8.56-.15-1.28-.13-1.28-1.38-1.42-.21-.02-.42-.03-.63-.03-3.37-.05-6.33,1.16-8.96,3.15-3.76,2.85-6.24,6.57-7.24,11.22-.44,2.03-.42,4.07,.18,6.08,.08,.28,.2,.44,.53,.48,.51,.05,1.02,.07,1.53,.08Zm15.2-22.46c-.35-.89-.76-1.65-1.31-2.33-.17-.21-.4-.27-.66-.14-.19,.09-.39,.14-.59,.22-2.04,.77-4,.76-5.86-.54-.29-.2-.64-.33-.98-.46-.96-.37-1.6-.19-2.29,.59-.6,.69-1.05,1.49-1.53,2.26-1.59,2.55-3.3,4.94-6.55,5.57-.88,.17-1.26,.9-1.38,1.76-.16,1.15-.18,2.31-.05,3.47,.21,1.83,.31,3.63-.49,5.37-.37,.81-.65,1.66-.9,2.52-.21,.74-.2,1.43,.34,2.02,.34,.36,.77,.62,1.21,.84,.67,.35,1.35,.71,2.15,.83-.9-3.86-.24-7.46,1.41-10.91,1.49-3.12,3.64-5.71,6.44-7.76,2.49-1.83,5.23-3.05,8.34-3.34,.87-.08,1.74-.03,2.68,.04Z"/></g><g id="Iuv72F-7"><path class="cls-4" d="M180.65-11.88c0,5.47-1.1,10.74-2.92,15.87-2.03,5.75-4.93,11.04-8.65,15.88-3.32,4.32-7.13,8.13-11.47,11.41-4.93,3.73-10.3,6.64-16.24,8.4-3.49,1.04-7.06,1.6-10.71,1.56-3.44-.03-6.73-.78-9.97-1.87-2.07-.7-4.09-1.53-6.02-2.55-2.1-1.12-4.08-2.42-5.87-4-.14-.13-.27-.26-.47-.31-2.29-.54-3.95-2.03-5.49-3.68-4.32-4.61-6.72-10.14-7.73-16.31-.76-4.68-.61-9.34,.21-14,1.16-6.65,3.6-12.8,7.01-18.58,3.15-5.34,7.05-10.07,11.66-14.22,4.83-4.34,10.2-7.83,16.22-10.27,3.28-1.33,6.67-2.28,10.18-2.78,4.44-.63,8.87-.51,13.23,.61,5.1,1.31,9.52,3.79,13.16,7.64,.89,.94,2.03,1.59,3.01,2.43,2.97,2.56,5.38,5.55,7.2,9.02,2.57,4.94,3.68,10.22,3.66,15.76ZM111.66,32.99c.05,.19,.25,.25,.4,.36,3.11,2.21,6.56,3.7,10.17,4.88,5.43,1.78,10.92,1.88,16.45,.59,3.41-.79,6.68-2.02,9.8-3.61,6.29-3.19,11.72-7.49,16.43-12.72,3.75-4.17,6.86-8.79,9.24-13.88,2.34-5,3.98-10.21,4.65-15.7,.56-4.6,.36-9.17-.84-13.68-1.1-4.13-2.99-7.86-5.7-11.16-.29-.35-.53-.76-1.06-1.09,.2,.69,.61,1.06,.95,1.47,.78,.95,1.4,1.99,1.73,3.18,.56,2.05,.58,4.03-.71,5.89-1.02,1.46-1.13,3.1-.68,4.8,.29,1.11,.76,2.14,1.2,3.19,.85,2.03,.85,4-.6,5.78-.41,.51-1.01,.87-1.43,1.38-1.65,2-2.22,4.32-1.83,6.87,.31,2.01-.31,3.71-1.66,5.17-.76,.82-1.78,1.29-2.68,1.91-1.61,1.11-2.67,2.56-2.93,4.54-.2,1.5-.38,3.01-.65,4.5-.39,2.12-1.65,3.65-3.81,4.11-1.18,.25-2.38,.43-3.59,.58-1.48,.18-2.59,.9-3.4,2.13-1.09,1.65-2.19,3.29-3.26,4.94-1.2,1.85-2.82,3.02-5.03,3.37-1.61,.26-3.23,.47-4.85,.63-2.02,.19-3.99,.5-5.69,1.76-1.16,.86-2.36,1.65-3.5,2.53-1.82,1.4-3.72,1.76-5.85,.75-1.56-.74-3.11-1.5-4.65-2.28-2.08-1.05-4.22-1.79-6.61-1.19Zm17.43-26.97c3.68,.02,6.79-1.33,9.46-3.83,2.17-2.03,3.71-4.5,4.94-7.17,1.26-2.72,1.93-5.54,1.57-8.56-.15-1.28-.13-1.28-1.38-1.42-.21-.02-.42-.03-.63-.03-3.37-.05-6.33,1.16-8.96,3.15-3.76,2.85-6.24,6.57-7.24,11.22-.44,2.03-.42,4.07,.18,6.08,.08,.28,.2,.44,.53,.48,.51,.05,1.02,.07,1.53,.08Zm15.2-22.46c-.35-.89-.76-1.65-1.31-2.33-.17-.21-.4-.27-.66-.14-.19,.09-.39,.14-.59,.22-2.04,.77-4,.76-5.86-.54-.29-.2-.64-.33-.98-.46-.96-.37-1.6-.19-2.29,.59-.6,.69-1.05,1.49-1.53,2.26-1.59,2.55-3.3,4.94-6.55,5.57-.88,.17-1.26,.9-1.38,1.76-.16,1.15-.18,2.31-.05,3.47,.21,1.83,.31,3.63-.49,5.37-.37,.81-.65,1.66-.9,2.52-.21,.74-.2,1.43,.34,2.02,.34,.36,.77,.62,1.21,.84,.67,.35,1.35,.71,2.15,.83-.9-3.86-.24-7.46,1.41-10.91,1.49-3.12,3.64-5.71,6.44-7.76,2.49-1.83,5.23-3.05,8.34-3.34,.87-.08,1.74-.03,2.68,.04Z"/></g><g id="Iuv72F-8"><path class="cls-4" d="M403.85,107.15c0,5.47-1.1,10.74-2.92,15.87-2.03,5.75-4.93,11.04-8.65,15.88-3.32,4.32-7.13,8.13-11.47,11.41-4.93,3.73-10.3,6.64-16.24,8.4-3.49,1.04-7.06,1.6-10.71,1.56-3.44-.03-6.73-.78-9.97-1.87-2.07-.7-4.09-1.53-6.02-2.55-2.1-1.12-4.08-2.42-5.87-4-.14-.13-.27-.26-.47-.31-2.29-.54-3.95-2.03-5.49-3.68-4.32-4.61-6.72-10.14-7.73-16.31-.76-4.68-.61-9.34,.21-14,1.16-6.65,3.6-12.8,7.01-18.58,3.15-5.34,7.05-10.07,11.66-14.22,4.83-4.34,10.2-7.83,16.22-10.27,3.28-1.33,6.67-2.28,10.18-2.78,4.44-.63,8.87-.51,13.23,.61,5.1,1.31,9.52,3.79,13.16,7.64,.89,.94,2.03,1.59,3.01,2.43,2.97,2.56,5.38,5.55,7.2,9.02,2.57,4.94,3.68,10.22,3.66,15.76Zm-68.99,44.87c.05,.19,.25,.25,.4,.36,3.11,2.21,6.56,3.7,10.17,4.88,5.43,1.78,10.92,1.88,16.45,.59,3.41-.79,6.68-2.02,9.8-3.61,6.29-3.19,11.72-7.49,16.43-12.72,3.75-4.17,6.86-8.79,9.24-13.88,2.34-5,3.98-10.21,4.65-15.7,.56-4.6,.36-9.17-.84-13.68-1.1-4.13-2.99-7.86-5.7-11.16-.29-.35-.53-.76-1.06-1.09,.2,.69,.61,1.06,.95,1.47,.78,.95,1.4,1.99,1.73,3.18,.56,2.05,.58,4.03-.71,5.89-1.02,1.46-1.13,3.1-.68,4.8,.29,1.11,.76,2.14,1.2,3.19,.85,2.03,.85,4-.6,5.78-.41,.51-1.01,.87-1.43,1.38-1.65,2-2.22,4.32-1.83,6.87,.31,2.01-.31,3.71-1.66,5.17-.76,.82-1.78,1.29-2.68,1.91-1.61,1.11-2.67,2.56-2.93,4.54-.2,1.5-.38,3.01-.65,4.5-.39,2.12-1.65,3.65-3.81,4.11-1.18,.25-2.38,.43-3.59,.58-1.48,.18-2.59,.9-3.4,2.13-1.09,1.65-2.19,3.29-3.26,4.94-1.2,1.85-2.82,3.02-5.03,3.37-1.61,.26-3.23,.47-4.85,.63-2.02,.19-3.99,.5-5.69,1.76-1.16,.86-2.36,1.65-3.5,2.53-1.82,1.4-3.72,1.76-5.85,.75-1.56-.74-3.11-1.5-4.65-2.28-2.08-1.05-4.22-1.79-6.61-1.19Zm17.43-26.97c3.68,.02,6.79-1.33,9.46-3.83,2.17-2.03,3.71-4.5,4.94-7.17,1.26-2.72,1.93-5.54,1.57-8.56-.15-1.28-.13-1.28-1.38-1.42-.21-.02-.42-.03-.63-.03-3.37-.05-6.33,1.16-8.96,3.15-3.76,2.85-6.24,6.57-7.24,11.22-.44,2.03-.42,4.07,.18,6.08,.08,.28,.2,.44,.53,.48,.51,.05,1.02,.07,1.53,.08Zm15.2-22.46c-.35-.89-.76-1.65-1.31-2.33-.17-.21-.4-.27-.66-.14-.19,.09-.39,.14-.59,.22-2.04,.77-4,.76-5.86-.54-.29-.2-.64-.33-.98-.46-.96-.37-1.6-.19-2.29,.59-.6,.69-1.05,1.49-1.53,2.26-1.59,2.55-3.3,4.94-6.55,5.57-.88,.17-1.26,.9-1.38,1.76-.16,1.15-.18,2.31-.05,3.47,.21,1.83,.31,3.63-.49,5.37-.37,.81-.65,1.66-.9,2.52-.21,.74-.2,1.43,.34,2.02,.34,.36,.77,.62,1.21,.84,.67,.35,1.35,.71,2.15,.83-.9-3.86-.24-7.46,1.41-10.91,1.49-3.12,3.64-5.71,6.44-7.76,2.49-1.83,5.23-3.05,8.34-3.34,.87-.08,1.74-.03,2.68,.04Z"/></g><g id="Iuv72F-9"><path class="cls-4" d="M403.85,230.88c0,5.47-1.1,10.74-2.92,15.87-2.03,5.75-4.93,11.04-8.65,15.88-3.32,4.32-7.13,8.13-11.47,11.41-4.93,3.73-10.3,6.64-16.24,8.4-3.49,1.04-7.06,1.6-10.71,1.56-3.44-.03-6.73-.78-9.97-1.87-2.07-.7-4.09-1.53-6.02-2.55-2.1-1.12-4.08-2.42-5.87-4-.14-.13-.27-.26-.47-.31-2.29-.54-3.95-2.03-5.49-3.68-4.32-4.61-6.72-10.14-7.73-16.31-.76-4.68-.61-9.34,.21-14,1.16-6.65,3.6-12.8,7.01-18.58,3.15-5.34,7.05-10.07,11.66-14.22,4.83-4.34,10.2-7.83,16.22-10.27,3.28-1.33,6.67-2.28,10.18-2.78,4.44-.63,8.87-.51,13.23,.61,5.1,1.31,9.52,3.79,13.16,7.64,.89,.94,2.03,1.59,3.01,2.43,2.97,2.56,5.38,5.55,7.2,9.02,2.57,4.94,3.68,10.22,3.66,15.76Zm-68.99,44.87c.05,.19,.25,.25,.4,.36,3.11,2.21,6.56,3.7,10.17,4.88,5.43,1.78,10.92,1.88,16.45,.59,3.41-.79,6.68-2.02,9.8-3.61,6.29-3.19,11.72-7.49,16.43-12.72,3.75-4.17,6.86-8.79,9.24-13.88,2.34-5,3.98-10.21,4.65-15.7,.56-4.6,.36-9.17-.84-13.68-1.1-4.13-2.99-7.86-5.7-11.16-.29-.35-.53-.76-1.06-1.09,.2,.69,.61,1.06,.95,1.47,.78,.95,1.4,1.99,1.73,3.18,.56,2.05,.58,4.03-.71,5.89-1.02,1.46-1.13,3.1-.68,4.8,.29,1.11,.76,2.14,1.2,3.19,.85,2.03,.85,4-.6,5.78-.41,.51-1.01,.87-1.43,1.38-1.65,2-2.22,4.32-1.83,6.87,.31,2.01-.31,3.71-1.66,5.17-.76,.82-1.78,1.29-2.68,1.91-1.61,1.11-2.67,2.56-2.93,4.54-.2,1.5-.38,3.01-.65,4.5-.39,2.12-1.65,3.65-3.81,4.11-1.18,.25-2.38,.43-3.59,.58-1.48,.18-2.59,.9-3.4,2.13-1.09,1.65-2.19,3.29-3.26,4.94-1.2,1.85-2.82,3.02-5.03,3.37-1.61,.26-3.23,.47-4.85,.63-2.02,.19-3.99,.5-5.69,1.76-1.16,.86-2.36,1.65-3.5,2.53-1.82,1.4-3.72,1.76-5.85,.75-1.56-.74-3.11-1.5-4.65-2.28-2.08-1.05-4.22-1.79-6.61-1.19Zm17.43-26.97c3.68,.02,6.79-1.33,9.46-3.83,2.17-2.03,3.71-4.5,4.94-7.17,1.26-2.72,1.93-5.54,1.57-8.56-.15-1.28-.13-1.28-1.38-1.42-.21-.02-.42-.03-.63-.03-3.37-.05-6.33,1.16-8.96,3.15-3.76,2.85-6.24,6.57-7.24,11.22-.44,2.03-.42,4.07,.18,6.08,.08,.28,.2,.44,.53,.48,.51,.05,1.02,.07,1.53,.08Zm15.2-22.46c-.35-.89-.76-1.65-1.31-2.33-.17-.21-.4-.27-.66-.14-.19,.09-.39,.14-.59,.22-2.04,.77-4,.76-5.86-.54-.29-.2-.64-.33-.98-.46-.96-.37-1.6-.19-2.29,.59-.6,.69-1.05,1.49-1.53,2.26-1.59,2.55-3.3,4.94-6.55,5.57-.88,.17-1.26,.9-1.38,1.76-.16,1.15-.18,2.31-.05,3.47,.21,1.83,.31,3.63-.49,5.37-.37,.81-.65,1.66-.9,2.52-.21,.74-.2,1.43,.34,2.02,.34,.36,.77,.62,1.21,.84,.67,.35,1.35,.71,2.15,.83-.9-3.86-.24-7.46,1.41-10.91,1.49-3.12,3.64-5.71,6.44-7.76,2.49-1.83,5.23-3.05,8.34-3.34,.87-.08,1.74-.03,2.68,.04Z"/></g><g id="Iuv72F-10"><path class="cls-4" d="M403.85-11.88c0,5.47-1.1,10.74-2.92,15.87-2.03,5.75-4.93,11.04-8.65,15.88-3.32,4.32-7.13,8.13-11.47,11.41-4.93,3.73-10.3,6.64-16.24,8.4-3.49,1.04-7.06,1.6-10.71,1.56-3.44-.03-6.73-.78-9.97-1.87-2.07-.7-4.09-1.53-6.02-2.55-2.1-1.12-4.08-2.42-5.87-4-.14-.13-.27-.26-.47-.31-2.29-.54-3.95-2.03-5.49-3.68-4.32-4.61-6.72-10.14-7.73-16.31-.76-4.68-.61-9.34,.21-14,1.16-6.65,3.6-12.8,7.01-18.58,3.15-5.34,7.05-10.07,11.66-14.22,4.83-4.34,10.2-7.83,16.22-10.27,3.28-1.33,6.67-2.28,10.18-2.78,4.44-.63,8.87-.51,13.23,.61,5.1,1.31,9.52,3.79,13.16,7.64,.89,.94,2.03,1.59,3.01,2.43,2.97,2.56,5.38,5.55,7.2,9.02,2.57,4.94,3.68,10.22,3.66,15.76Zm-68.99,44.87c.05,.19,.25,.25,.4,.36,3.11,2.21,6.56,3.7,10.17,4.88,5.43,1.78,10.92,1.88,16.45,.59,3.41-.79,6.68-2.02,9.8-3.61,6.29-3.19,11.72-7.49,16.43-12.72,3.75-4.17,6.86-8.79,9.24-13.88,2.34-5,3.98-10.21,4.65-15.7,.56-4.6,.36-9.17-.84-13.68-1.1-4.13-2.99-7.86-5.7-11.16-.29-.35-.53-.76-1.06-1.09,.2,.69,.61,1.06,.95,1.47,.78,.95,1.4,1.99,1.73,3.18,.56,2.05,.58,4.03-.71,5.89-1.02,1.46-1.13,3.1-.68,4.8,.29,1.11,.76,2.14,1.2,3.19,.85,2.03,.85,4-.6,5.78-.41,.51-1.01,.87-1.43,1.38-1.65,2-2.22,4.32-1.83,6.87,.31,2.01-.31,3.71-1.66,5.17-.76,.82-1.78,1.29-2.68,1.91-1.61,1.11-2.67,2.56-2.93,4.54-.2,1.5-.38,3.01-.65,4.5-.39,2.12-1.65,3.65-3.81,4.11-1.18,.25-2.38,.43-3.59,.58-1.48,.18-2.59,.9-3.4,2.13-1.09,1.65-2.19,3.29-3.26,4.94-1.2,1.85-2.82,3.02-5.03,3.37-1.61,.26-3.23,.47-4.85,.63-2.02,.19-3.99,.5-5.69,1.76-1.16,.86-2.36,1.65-3.5,2.53-1.82,1.4-3.72,1.76-5.85,.75-1.56-.74-3.11-1.5-4.65-2.28-2.08-1.05-4.22-1.79-6.61-1.19Zm17.43-26.97c3.68,.02,6.79-1.33,9.46-3.83,2.17-2.03,3.71-4.5,4.94-7.17,1.26-2.72,1.93-5.54,1.57-8.56-.15-1.28-.13-1.28-1.38-1.42-.21-.02-.42-.03-.63-.03-3.37-.05-6.33,1.16-8.96,3.15-3.76,2.85-6.24,6.57-7.24,11.22-.44,2.03-.42,4.07,.18,6.08,.08,.28,.2,.44,.53,.48,.51,.05,1.02,.07,1.53,.08Zm15.2-22.46c-.35-.89-.76-1.65-1.31-2.33-.17-.21-.4-.27-.66-.14-.19,.09-.39,.14-.59,.22-2.04,.77-4,.76-5.86-.54-.29-.2-.64-.33-.98-.46-.96-.37-1.6-.19-2.29,.59-.6,.69-1.05,1.49-1.53,2.26-1.59,2.55-3.3,4.94-6.55,5.57-.88,.17-1.26,.9-1.38,1.76-.16,1.15-.18,2.31-.05,3.47,.21,1.83,.31,3.63-.49,5.37-.37,.81-.65,1.66-.9,2.52-.21,.74-.2,1.43,.34,2.02,.34,.36,.77,.62,1.21,.84,.67,.35,1.35,.71,2.15,.83-.9-3.86-.24-7.46,1.41-10.91,1.49-3.12,3.64-5.71,6.44-7.76,2.49-1.83,5.23-3.05,8.34-3.34,.87-.08,1.74-.03,2.68,.04Z"/></g></g><g><path class="cls-3" d="M119.17,129.31c1.71,.5,3.3,1.43,4.76,2.78,1.46,1.36,2.71,3,3.75,4.92,1.03,1.93,1.85,4.1,2.46,6.53,.61,2.43,.91,4.99,.91,7.7,0,3.14-.75,5.99-2.25,8.56s-3.57,4.78-6.21,6.63c-2.64,1.86-5.76,3.28-9.36,4.28-3.6,1-7.47,1.5-11.61,1.5h-23.11l-2.78-84.85c8.42-.28,14.69-.48,18.83-.59,4.14-.11,6.13-.16,5.99-.16,8.56,0,15.25,1.94,20.06,5.83,4.81,3.89,7.22,9.4,7.22,16.53,0,2.5-.21,4.87-.64,7.12s-1.04,4.28-1.82,6.1c-.79,1.82-1.7,3.35-2.73,4.6-1.04,1.25-2.19,2.09-3.48,2.51Zm-20.76-10.16c.36,.07,.73,.12,1.12,.16,.39,.04,.84,.05,1.34,.05,4.85,0,7.28-2.14,7.28-6.42,0-2.5-.86-4.4-2.57-5.72-1.71-1.32-3.92-1.98-6.63-1.98h-1.28l.75,13.91Zm2.03,35.74c6.7,0,10.06-2.57,10.06-7.7s-3.42-7.7-10.27-7.7c-.93,0-1.46,.04-1.6,.11v15.3h1.82Z"/><path class="cls-3" d="M184.12,172.22h-43.55V88.65l20.76-2.03v62.17h22.79v23.43Z"/><path class="cls-3" d="M246.92,86.62l-.75,54.36c-.07,4.28-.7,8.31-1.87,12.09-1.18,3.78-2.8,7.08-4.87,9.9-2.07,2.82-4.57,5.07-7.49,6.74-2.93,1.68-6.17,2.51-9.74,2.51-4.21,0-8.15-.73-11.82-2.19-3.67-1.46-6.88-3.49-9.63-6.1-2.75-2.6-4.92-5.69-6.53-9.26-1.61-3.57-2.44-7.45-2.51-11.66l-.86-56.18,21.51,.32c.86,31.67,1.28,49.51,1.28,53.5,0,4.78,1.85,7.17,5.56,7.17,3.07,0,4.67-3.21,4.81-9.63l.86-51.57h22.04Z"/><path class="cls-3" d="M304.06,172.22h-46.65V88.01h44.51v21.61l-22.26,1.39,.75,11.13h20.86v17.33h-19.47v9.74h22.26v23Z"/></g><g><path class="cls-6" d="M113.7,122.95c1.71,.5,3.3,1.43,4.76,2.78,1.46,1.36,2.71,3,3.75,4.92,1.03,1.93,1.85,4.1,2.46,6.53,.61,2.43,.91,4.99,.91,7.7,0,3.14-.75,5.99-2.25,8.56s-3.57,4.78-6.21,6.63c-2.64,1.86-5.76,3.28-9.36,4.28-3.6,1-7.47,1.5-11.61,1.5h-23.11l-2.78-84.85c8.42-.28,14.69-.48,18.83-.59,4.14-.11,6.13-.16,5.99-.16,8.56,0,15.25,1.94,20.06,5.83,4.81,3.89,7.22,9.4,7.22,16.53,0,2.5-.21,4.87-.64,7.12s-1.04,4.28-1.82,6.1c-.79,1.82-1.7,3.35-2.73,4.6-1.04,1.25-2.19,2.09-3.48,2.51Zm-20.76-10.16c.36,.07,.73,.12,1.12,.16,.39,.04,.84,.05,1.34,.05,4.85,0,7.28-2.14,7.28-6.42,0-2.5-.86-4.4-2.57-5.72-1.71-1.32-3.92-1.98-6.63-1.98h-1.28l.75,13.91Zm2.03,35.74c6.7,0,10.06-2.57,10.06-7.7s-3.42-7.7-10.27-7.7c-.93,0-1.46,.04-1.6,.11v15.3h1.82Z"/><path class="cls-6" d="M178.65,165.86h-43.55V82.29l20.76-2.03v62.17h22.79v23.43Z"/><path class="cls-6" d="M241.46,80.26l-.75,54.36c-.07,4.28-.7,8.31-1.87,12.09-1.18,3.78-2.8,7.08-4.87,9.9-2.07,2.82-4.57,5.07-7.49,6.74-2.93,1.68-6.17,2.51-9.74,2.51-4.21,0-8.15-.73-11.82-2.19-3.67-1.46-6.88-3.49-9.63-6.1-2.75-2.6-4.92-5.69-6.53-9.26-1.61-3.57-2.44-7.45-2.51-11.66l-.86-56.18,21.51,.32c.86,31.67,1.28,49.51,1.28,53.5,0,4.78,1.85,7.17,5.56,7.17,3.07,0,4.67-3.21,4.81-9.63l.86-51.57h22.04Z"/><path class="cls-6" d="M298.6,165.86h-46.65V81.65h44.51v21.61l-22.26,1.39,.75,11.13h20.86v17.33h-19.47v9.74h22.26v23Z"/></g></g></g></svg>