<?xml version="1.0" encoding="utf-8"?>
<!-- Generator: Adobe Illustrator 26.5.0, SVG Export Plug-In . SVG Version: 6.00 Build 0)  -->
<svg version="1.1" id="Capa_1" xmlns="http://www.w3.org/2000/svg" xmlns:xlink="http://www.w3.org/1999/xlink" x="0px" y="0px"
	 viewBox="0 0 392 268" enable-background="new 0 0 392 268" xml:space="preserve">
<g>
	<rect fill="#EA0000" width="392" height="268"/>
	<g>
		<g>
			<path fill="#FFFFFF" d="M81.541,149.592c0,6.931-0.846,11.551-2.541,13.86c-3.9,5.441-10.24,8.162-19.018,8.162
				c-3.852,0-7.291-0.693-10.318-2.079c-3.029-1.386-5.584-3.4-7.662-6.044s-3.658-5.878-4.736-9.702
				c-1.076-3.824-1.615-8.175-1.615-13.052c0-14.578,5.209-24.101,15.631-28.567c3.182-1.437,6.545-2.156,10.086-2.156
				c6.16,0,12.371,1.848,18.635,5.544l-8.086,15.169c-1.693-2.36-5.211-3.542-10.549-3.542c-3.08,0-5.416,1.22-7.006,3.658
				c-1.592,2.438-2.389,5.84-2.389,10.202c0,2.26,0.219,4.339,0.656,6.237c0.436,1.899,1.051,3.53,1.848,4.89
				c0.795,1.36,1.77,2.413,2.926,3.157c1.154,0.744,2.477,1.116,3.965,1.116c4.414,0,6.623-1.643,6.623-4.928
				c0-0.358-0.027-0.564-0.078-0.616l-6.545-0.539l-1-15.093l20.174-0.538c0.357,2.464,0.615,4.928,0.77,7.392
				S81.541,147.077,81.541,149.592z"/>
			<path fill="#FFFFFF" d="M97.711,110.014c3.49,0,6.648,0.924,9.471,2.772c2.824,1.848,5.225,4.389,7.201,7.623
				c1.975,3.234,3.49,7.059,4.543,11.473c1.051,4.416,1.578,9.189,1.578,14.322c0,3.954-0.475,7.496-1.426,10.626
				c-0.949,3.132-2.336,5.788-4.156,7.97c-1.824,2.183-4.082,3.863-6.777,5.043c-2.695,1.182-5.762,1.771-9.201,1.771
				c-7.545,0-13.258-2.695-17.133-8.085s-5.812-13.448-5.812-24.179c0-4.312,0.473-8.277,1.424-11.896
				c0.949-3.619,2.35-6.711,4.197-9.278c1.848-2.566,4.119-4.568,6.814-6.006C91.129,110.734,94.221,110.014,97.711,110.014z
				 M98.713,154.828c0.924,0,1.783-0.333,2.58-1.001c0.795-0.666,1.475-1.54,2.039-2.618s1.002-2.321,1.309-3.734
				c0.309-1.411,0.463-2.888,0.463-4.428c0-9.855-2.617-14.784-7.854-14.784c-3.646,0-5.467,3.773-5.467,11.319
				c0,2.26,0.154,4.325,0.461,6.198c0.309,1.875,0.77,3.479,1.387,4.812c0.615,1.336,1.348,2.375,2.193,3.119
				C96.672,154.456,97.635,154.828,98.713,154.828z"/>
			<path fill="#FFFFFF" d="M138.752,110.014c3.49,0,6.646,0.924,9.471,2.772c2.822,1.848,5.223,4.389,7.199,7.623
				s3.49,7.059,4.543,11.473c1.053,4.416,1.578,9.189,1.578,14.322c0,3.954-0.475,7.496-1.424,10.626
				c-0.951,3.132-2.336,5.788-4.158,7.97c-1.822,2.183-4.08,3.863-6.775,5.043c-2.695,1.182-5.764,1.771-9.201,1.771
				c-7.547,0-13.258-2.695-17.133-8.085c-3.877-5.39-5.814-13.448-5.814-24.179c0-4.312,0.475-8.277,1.426-11.896
				c0.949-3.619,2.348-6.711,4.195-9.278c1.848-2.566,4.119-4.568,6.814-6.006C132.168,110.734,135.26,110.014,138.752,110.014z
				 M139.752,154.828c0.924,0,1.783-0.333,2.58-1.001c0.795-0.666,1.475-1.54,2.041-2.618c0.564-1.078,1-2.321,1.309-3.734
				c0.309-1.411,0.463-2.888,0.463-4.428c0-9.855-2.619-14.784-7.855-14.784c-3.645,0-5.467,3.773-5.467,11.319
				c0,2.26,0.154,4.325,0.463,6.198c0.307,1.875,0.77,3.479,1.385,4.812c0.617,1.336,1.348,2.375,2.195,3.119
				S138.674,154.828,139.752,154.828z"/>
			<path fill="#FFFFFF" d="M169.244,110.014c9.342,0,16.4,2.76,21.174,8.278c4.775,5.519,7.162,13.463,7.162,23.831
				c0,9.548-2.375,16.852-7.123,21.906c-4.748,5.058-11.82,7.585-21.213,7.585c-1.592,0-3.068-0.063-4.428-0.192
				c-1.361-0.128-2.605-0.32-3.734-0.577l-3.004-59.444C161.312,110.476,165.033,110.014,169.244,110.014z M174.557,152.364
				c1.232-0.358,2.336-0.936,3.311-1.732c0.975-0.795,1.811-1.732,2.502-2.811c0.693-1.078,1.232-2.259,1.617-3.542
				c0.387-1.283,0.578-2.592,0.578-3.928c0-1.334-0.205-2.617-0.615-3.85c-0.412-1.232-1.002-2.335-1.771-3.311
				c-0.77-0.975-1.668-1.796-2.695-2.464c-1.027-0.667-2.156-1.103-3.389-1.309L174.557,152.364z"/>
			<path fill="#FFFFFF" d="M242.699,140.737c1.232,0.359,2.373,1.027,3.426,2.002c1.053,0.976,1.951,2.155,2.695,3.542
				c0.744,1.386,1.334,2.952,1.771,4.697c0.436,1.745,0.654,3.594,0.654,5.544c0,2.259-0.539,4.312-1.617,6.16
				s-2.566,3.439-4.467,4.773c-1.898,1.336-4.145,2.362-6.736,3.08c-2.594,0.72-5.379,1.078-8.355,1.078h-16.631l-2.002-61.061
				c6.057-0.205,10.574-0.347,13.551-0.423c2.977-0.077,4.414-0.116,4.312-0.116c6.16,0,10.973,1.399,14.438,4.197
				c3.465,2.798,5.197,6.764,5.197,11.896c0,1.797-0.154,3.503-0.461,5.12c-0.309,1.617-0.746,3.08-1.311,4.389
				c-0.564,1.31-1.219,2.414-1.963,3.312C244.457,139.826,243.623,140.429,242.699,140.737z M227.762,133.422
				c0.256,0.052,0.525,0.09,0.809,0.115c0.281,0.027,0.602,0.039,0.961,0.039c3.49,0,5.236-1.54,5.236-4.62
				c0-1.796-0.615-3.169-1.848-4.119c-1.232-0.949-2.824-1.425-4.773-1.425h-0.924L227.762,133.422z M229.225,159.141
				c4.824,0,7.238-1.849,7.238-5.544c0-3.696-2.465-5.545-7.393-5.545c-0.668,0-1.053,0.027-1.156,0.078v11.011H229.225z"/>
			<path fill="#FFFFFF" d="M269.109,110.014c3.49,0,6.646,0.924,9.471,2.772c2.822,1.848,5.223,4.389,7.199,7.623
				s3.49,7.059,4.543,11.473c1.053,4.416,1.578,9.189,1.578,14.322c0,3.954-0.475,7.496-1.424,10.626
				c-0.951,3.132-2.336,5.788-4.158,7.97c-1.822,2.183-4.08,3.863-6.775,5.043c-2.695,1.182-5.764,1.771-9.201,1.771
				c-7.547,0-13.258-2.695-17.133-8.085c-3.877-5.39-5.814-13.448-5.814-24.179c0-4.312,0.475-8.277,1.426-11.896
				c0.949-3.619,2.348-6.711,4.195-9.278c1.848-2.566,4.119-4.568,6.814-6.006C262.525,110.734,265.617,110.014,269.109,110.014z
				 M270.109,154.828c0.924,0,1.783-0.333,2.58-1.001c0.795-0.666,1.475-1.54,2.041-2.618c0.564-1.078,1-2.321,1.309-3.734
				c0.309-1.411,0.463-2.888,0.463-4.428c0-9.855-2.619-14.784-7.855-14.784c-3.645,0-5.467,3.773-5.467,11.319
				c0,2.26,0.154,4.325,0.463,6.198c0.307,1.875,0.77,3.479,1.385,4.812c0.617,1.336,1.348,2.375,2.195,3.119
				S269.031,154.828,270.109,154.828z"/>
			<path fill="#FFFFFF" d="M328.553,111.015l-15.016,29.106v31.493h-16.016v-31.493l-17.479-28.644l16.016-1.463l8.24,13.09
				l7.775-13.09L328.553,111.015z"/>
			<path fill="#FFFFFF" d="M358.584,156.83c0,1.694-0.451,3.427-1.348,5.197c-0.898,1.771-2.055,3.363-3.465,4.774
				c-1.412,1.412-2.992,2.567-4.736,3.465c-1.746,0.898-3.465,1.348-5.158,1.348c-11.5,0-20.432-4.928-26.797-14.784l13.398-7.161
				c0.514,0.822,1.154,1.656,1.926,2.503c0.77,0.847,1.578,1.617,2.426,2.31c0.846,0.693,1.705,1.271,2.578,1.732
				s1.668,0.693,2.387,0.693c1.592,0,2.389-1.181,2.389-3.542c0-0.564-0.232-1.129-0.693-1.694
				c-0.463-0.563-1.066-1.116-1.811-1.655s-1.592-1.078-2.541-1.616c-0.949-0.54-1.912-1.065-2.887-1.579
				c-1.9-1.129-3.646-2.438-5.236-3.928c-1.592-1.488-2.953-3.079-4.08-4.773c-1.131-1.694-2.016-3.452-2.658-5.274
				c-0.643-1.821-0.961-3.657-0.961-5.505c0-2.566,0.447-4.915,1.348-7.045c0.896-2.13,2.129-3.953,3.695-5.467
				c1.564-1.514,3.438-2.695,5.621-3.542c2.182-0.847,4.555-1.271,7.123-1.271c2.002,0,3.977,0.231,5.928,0.693
				c1.951,0.462,3.773,1.117,5.467,1.964c1.695,0.847,3.209,1.861,4.543,3.042c1.334,1.181,2.387,2.464,3.158,3.85l-9.549,10.472
				c-0.461-0.82-1.039-1.604-1.732-2.349c-0.693-0.743-1.424-1.398-2.193-1.963c-0.771-0.564-1.566-1.013-2.389-1.347
				c-0.82-0.333-1.592-0.501-2.309-0.501c-2.568,0-3.852,1.413-3.852,4.235c0,1.899,1.926,4.004,5.775,6.314
				c2.773,1.694,5.031,3.183,6.777,4.465c1.744,1.284,3.08,2.388,4.004,3.312C356.633,146.256,358.584,151.132,358.584,156.83z"/>
		</g>
	</g>
	<g>
		<g>
			<g>
				<g>
					<g>
						<path fill="#202020" d="M392,52.311c0.206-0.172,0.089-0.563-0.479-0.485l-0.404,0.662L392,52.311z"/>
						<path fill="#202020" d="M388.174,51.084c-0.668,0.321-1.439,0.885-1.006,1.493c0.662-0.636,0.822-0.371,1.535-1.128
							c0.569-0.077,0.993,0.212,0.897,0.456c0.202-0.17,0.884,0.146,1.19-0.27c-0.74-0.512-1.678-0.533-2.658-0.11
							C387.922,51.379,388.126,51.207,388.174,51.084z"/>
						<path fill="#202020" d="M332.583,50.052l0.358,0.079C332.844,50.087,332.721,50.063,332.583,50.052z"/>
						<path fill="#202020" d="M298.14,49.689c0.262-0.016,0.372-0.082,0.385-0.142C298.282,49.591,298.082,49.631,298.14,49.689z"/>
						<path fill="#202020" d="M292.26,48.959c0.126,0.021,0.232,0.03,0.347,0.045C292.474,48.943,292.341,48.91,292.26,48.959z"/>
						<path fill="#202020" d="M332.583,50.052l-0.92-0.208C331.599,50.06,332.135,50.004,332.583,50.052z"/>
						<path fill="#202020" d="M380.509,52.681c0.192-0.032,0.353-0.094,0.5-0.174c-0.158,0.029-0.311,0.053-0.469,0.07
							C380.53,52.613,380.523,52.644,380.509,52.681z"/>
						<path fill="#202020" d="M347.768,49.516l0.28-0.001c0.082-0.075,0.159-0.166,0.232-0.269L347.768,49.516z"/>
						<path fill="#202020" d="M359.42,49.414c-0.264-0.024-0.355,0.538-0.456,0.783c0.148-0.231,0.344-0.342,0.575-0.385
							C359.543,49.705,359.508,49.577,359.42,49.414z"/>
						<path fill="#202020" d="M377.897,50.403l0.328-0.078C378.14,50.35,377.996,50.372,377.897,50.403z"/>
						<path fill="#202020" d="M339.427,49.394c-0.02-0.083-0.062-0.157-0.106-0.201C339.321,49.264,339.363,49.331,339.427,49.394z"
							/>
						<path fill="#202020" d="M13.507,53.619c0.009-0.04-0.004-0.065-0.001-0.1C13.438,53.575,13.417,53.615,13.507,53.619z"/>
						<path fill="#202020" d="M0,50.834l0.187-0.03c0.02-0.106,0.041-0.211,0.041-0.315L0,50.834z"/>
						<path fill="#202020" d="M281.498,48.239c0.021,0.006,0.028,0.006,0.048,0.011C281.829,48.186,281.668,48.197,281.498,48.239z"
							/>
						<path fill="#202020" d="M182.697,48.654c1.119,0.502-1.821,0.645-0.136,1.203C182.404,49.637,184.092,48.98,182.697,48.654z"
							/>
						<path fill="#202020" d="M380.207,52.607c-0.157,0.006-0.317,0.011-0.478,0.005C379.947,52.631,380.093,52.629,380.207,52.607z
							"/>
						<path fill="#202020" d="M182.561,49.857c0,0.003,0,0.005,0,0.005l0.174,0.053C182.663,49.892,182.623,49.876,182.561,49.857z"
							/>
						<path fill="#202020" d="M256.7,48.577c0.051,0.099,0.15,0.174,0.253,0.246C256.944,48.766,256.887,48.695,256.7,48.577z"/>
						<path fill="#202020" d="M275.173,49.377l-0.457-0.075C274.897,49.353,275.045,49.371,275.173,49.377z"/>
						<path fill="#202020" d="M247.108,49.371c-0.249-0.043-0.333-0.121-0.672-0.045c0.032,0.029,0.062,0.049,0.103,0.069
							C246.662,49.317,246.825,49.281,247.108,49.371z"/>
						<path fill="#202020" d="M237.124,49.374c0.053,0.043,0.123,0.075,0.185,0.113c0.099-0.011,0.214-0.02,0.316-0.03
							L237.124,49.374z"/>
						<path fill="#202020" d="M43.848,53.348c-0.218-0.158-0.354-0.333-0.46-0.505C43.542,53.243,42.075,53.385,43.848,53.348z"/>
						<path fill="#202020" d="M380.503,52.365c-0.058,0.142-0.144,0.212-0.297,0.242c0.115-0.006,0.225-0.018,0.333-0.03
							C380.568,52.494,380.574,52.415,380.503,52.365z"/>
						<path fill="#202020" d="M246.702,53.806l-1.586-0.083C245.559,53.777,246.136,53.806,246.702,53.806z"/>
						<path fill="#202020" d="M115.472,53.268l-0.364,0.067C115.248,53.348,115.377,53.332,115.472,53.268z"/>
						<path fill="#202020" d="M240.409,53.806c-0.283-0.198-0.583-0.313-0.893-0.389c-0.066,0.044-0.141,0.08-0.185,0.145
							L240.409,53.806z"/>
						<path fill="#202020" d="M43.384,52.837c0.003,0.003,0.003,0.006,0.003,0.006S43.388,52.839,43.384,52.837z"/>
						<path fill="#202020" d="M32.936,54.172c1.512,0.016,0.71-0.723,1.031-1.148c1.804-0.209,0.834,0.544,1.449,0.922
							c1.126-0.195,1.99-0.874,2.83-0.845c0.063,0.122,0.226,0.166,0.035,0.318c1.191-0.587,3.535-0.029,4.922-0.767
							c0.104,0.065,0.155,0.127,0.182,0.183c-0.225-0.37-0.259-0.746-0.213-1.014c0.677-0.013,1.257-0.467,1.512,0.016
							c-0.415-0.014-0.45,0.181-0.644,0.331l0.71-0.21c0.639,0.694-0.969,0.24-0.969,0.754c1.384-0.226,2.998-0.8,4.059-0.604
							c0.222,0.679-2.48,0.229-1.065,0.833l-1.642-0.26c1.254,1.072-0.998-0.075,0.155,1.072c2.16,0.197,2.416-0.346,4.571-0.148
							c0.485-0.377-0.161-0.558,0.325-0.936c3.062-0.678,2.411,1.708,4.663,0.803c0.583-0.453,0.809-1.312,2.412-0.857l-0.547,0.768
							c2.091,0.076,1.194-1.104,3.384-0.587c-0.389,0.302-1.644,0.254-1.327,0.346c1.419,0.606,1.003-0.436,2.094-0.436l0.226,0.68
							c2.227-0.107,4.679-0.598,7.145-0.722c-0.136,0.202-0.559,0.415,0.018,0.623c3.11-0.34,6.639,0.083,9.639,0.486l1.146-0.587
							c0.267,0.006,0.495,0.265,0.206,0.379c1.169,0.223,0.061-0.373,0.623-0.603c0.665-0.041,0.878,0.337,0.457,0.514
							c2.063-0.498,5.877-1.072,8.051-0.443l-0.424,0.174c1.693,0.238,1.91-1.203,3.48-0.656l-0.301,0.104
							c3.674,0.254,7.733-0.283,10.537,0.603c0.533-0.846,3.636,0.377,3.873-0.802c2.098,0.584,1.497,0.795,4.451,1.188
							c0.789,0.054,1.176-0.736,2.151-0.859l0.024,0.616l1.324-0.646l0.705,0.737l0.915-0.158c-0.365-0.037-0.775-0.277-0.719-0.455
							c1.429-0.279,3.484,0.43,3.519,0.746l3.381-0.521c-0.075,0.248-0.641,0.333-1.089,0.491c1.805-0.629,0.328,0.649,1.981,0.073
							c-0.222-0.14,0.12-0.367,0.158-0.492c0.825,0.373,2.701,0.376,4.09,0.219l-0.267,0.425c2.508,0.108,5.287-0.204,8.102-0.196
							c-1.01-0.198-0.778-0.935,0.048-1.005l0.33,0.651c0.533-0.402-0.862-0.246,0.232-0.738c1.051,0.075,0.707,0.741,0.103,0.953
							l1.278-0.226c0.075,0.195-0.225,0.297-0.303,0.545c0.524-0.405,2.207,0.654,2.963-0.049l0.072,0.194
							c2.814,0.005,4.09-0.219,6.382-0.251c0.044-0.563,0.941-0.438,1.624-0.892c1.684,0.179,3.554,0.621,5.583,0.574
							c1.426-0.28,0.417-0.476,1.058-0.811c0.105,0.512,2.132,0.464,1.081,0.832c2.436-0.083,3.111-0.102,6.192-0.518
							c-0.334-0.21-0.71-0.301-0.516-0.476c0.559-0.084,1.272,0.215,1.192,0.461l-0.147,0.053c3.458-0.768,7.981,1.494,10.734,0.426
							l-0.154,0.053l2.855-0.557c1.313,0.089-0.788,0.385,0.184,0.702c3.08-0.854,4.867,0.124,7.403-0.445
							c1.963,1.511,6.967-0.106,9.618,0.858l-0.153-0.356c0.685-0.349,0.828,0.204,1.333,0.285c-0.071-0.276-0.743-0.32-0.317-0.513
							c5.802-0.429,11.977,0.52,17.925,0.841c2.176,0.095,1.235-1.841,3.978-0.992l-0.778,0.661
							c4.391-0.793,8.978,0.027,13.276-0.645c-0.256,0.152-0.263,0.351-0.683,0.348c0.908,0.48,3.357,0.023,3.373-0.369
							c0.669,0.045,0.155,0.354,0.567,0.554c0.911,0.283,2.286-0.613,2.77-0.135c0.083,0.078-0.256,0.156-0.422,0.193
							c0.593-0.232,2.765,0.059,2.197-0.495c1.613,0.264,3.086-0.247,4.373,0.082c0.839-0.619,2.761,0.298,3.028-0.578
							c-0.116,0.905,2.828,0.729,3.849,0.304c-0.342,0.273,0.887,0.283,0.487,0.662c1.164-0.013,2.231-0.181,2.028-0.645
							c2.145,1.082,4.311-0.871,5.518,0.516c3.458-0.486,6.658-0.815,9.769-1.027c-0.112,0.902-3.438,0.09-3.305,1.037
							c2.951-0.372,4.653-1.146,7.579-0.928c0.758,0.123-0.43,0.391-0.686,0.545c2.948-0.372,5.7,0.082,8.323-0.409
							c-0.007,0.084-0.29,0.176-0.558,0.245c0.517-0.03,1.203,0.132,1.144-0.278l-0.504,0.111c-0.826-0.595,2.053-1.243,2.146-1.558
							c-0.877,1.175,2.591,0.295,1.197,1.78c0.34-0.077,0.767-0.271,0.689-0.546c0.505,0.08,0.665,0.24,0.153,0.552
							c1.852-0.223,1.194-0.659,2.872-0.65c-0.006,0.199-0.345,0.275-0.518,0.509c0.849-0.387,1.703-0.774,3.121-0.606
							c-0.085,0.12,0.079,0.275-0.344,0.272c2.435-0.06,4.15-1.031,6.822-0.657c-0.788,0.863,0.909,0.284,1.05,1.031l1.437-0.223
							l-0.576-0.362c1.258,0.013,2.37-0.531,3.452-0.287l-0.935,0.308l2.358-0.142l-1.334-0.283
							c1.273-0.385-0.136-0.945,1.539-0.737c-0.34,0.076,1.258,0.009,1.914,0.449c0,0-0.004,0-0.004,0.002
							c0.623-0.238,1.263-0.488,2.193-0.303c0.242,0.239-0.195,0.826-0.037,0.984c0.614-0.624,2.946-0.173,3.724-0.838
							c-0.259,0.156-0.273,0.548-0.188,0.628l0.516-0.507c0.583,0.162,0.668,0.241,0.573,0.553c1.753,0.093-0.557-0.947,1.524-0.539
							c-0.163,0.041-0.085,0.117-0.425,0.194c2.09,0.213,4.038-0.322,5.958-0.072c0.567,0.751-1.678,0.184-1.029,0.818
							c2.769-0.136,5.733-0.901,8.413-0.724l-0.5-0.083c0.372-1.061,1.996,0.524,3.351,0.024c-0.332,0.079-0.435,0.589-0.345,0.471
							c1.835,0.17,3.751-0.261,6.532-0.595l-0.344,0.273c1.081,0.243,2.848,0.14,4.016,0.264c0.347-0.272,1.015-0.228,0.609-0.624
							c3.602,1.552,6.87-0.832,10.066,0.461c-0.382,0.003-0.911,0.238-0.607,0.239l2.722-0.25c-0.215-0.462-0.357-0.28-0.929-0.64
							c0.345-0.274,1.113-0.486,1.788-0.486c-1.224,0.306,0.01,0.742,0.539,1c-0.088-0.142,0.093-0.298,0.048-0.442
							c1.422,0.822,0.238-0.93,2.18-0.376l-0.103,0.243c0.727-0.124,1.396-0.445,2.18-0.375c0.325,0.535-0.773,0.249-0.823,0.689
							c1.101-0.031,2.172-1.013,3.167-0.48c-0.467,0.149-1.14,0.151-1.607,0.299c1.085,0.627,1.21,0.468,2.017,0.568l-0.08-0.014
							l1.863,0.284l-0.475-0.17c1.377-1.394,2.805-0.254,4.66-1.167c-1.803,0.864-0.298,0.5-0.436,1.105
							c0.474,0.168,1.194,0.357,0.989,0.527c0.876-0.489,1.463,0.385,2.701-0.33c0.056,0.194,0.938,0.019,0.74,0.509
							c1.14-0.153-0.269-0.339-0.173-0.584c1.757-0.667,4.13,0.808,6.658-0.107c2.18-0.376,2.583-1.034,4.605-1.361
							c0.683,0.312-0.559,0.71-0.559,0.71c1.102,0.287,1.93,0.234,2.968,0.011c-0.21,0.17,0.006,0.314,0.323,0.533
							c0.833-0.051,0.557-0.71,1.655-0.422c-0.188,0.217-0.43,0.565-0.832,0.783c0.981-0.179,1.951-0.543,2.967-0.719
							c0.27,0.34-0.613,0.516-0.971,0.737c1.142-0.153,2.958-0.308,3.311-0.846l-0.732-0.192c0.416-0.026,0.214,0.462-0.093,0.56
							c-0.979,0.422-1.412-0.187-1.467-0.382l0.724-0.125c-0.743-1.144-2.906,0.184-4.363,0.117l0.607-0.832l-1.494,0.69
							c-0.318-0.217-0.535-0.681,0.184-0.806c-1.044-0.411-0.924,0.296-1.822-0.163c-0.099-0.071-0.054-0.111,0.038-0.145
							l-1.02,0.248c0.2-0.175-0.17-0.587,0.457-0.467c-1.832-0.48-2.953,0.624-3.643-0.006l0.153-0.051
							c-2.541,0.281-0.246,0.611-2.151,1.328l-1.283-1.507l-0.25,0.611c-0.262-0.022-0.781-0.068-0.685-0.312
							c-0.976,0.418,0.167,0.266-0.4,0.66c-1.262-0.556-3.479,0.26-3.763-0.713c-0.453,0.464,1.207,0.358-0.14,0.681
							c-0.384-1.046-1.557,0.179-2.71-0.301c0.354-0.54,1.446-0.254,0.292-0.736c-0.695,0.913-2.244-0.2-3.216-0.025
							c-0.046,0.727-2.114,0.303-3.746,0.545c0.104-0.244-3.07-0.399-4.587-0.662l0.045-0.122c-0.294,0.734-1.859,0.596-2.999,0.748
							c0.045-0.44,0.25-0.613,0.867-0.81l-1.071,0.003c-0.253,0.235-0.587,0.359-1.282,0.443l0.27-0.549
							c-1.426,0.03-2.872,0.646-4.708,0.28c-0.103,0.512,1.459,1.426-0.481,1.768c-0.072-0.277-0.144-0.75,0.364-0.864
							c-0.167,0.036-0.593,0.23-0.928,0.112l0.775-0.466c-0.836-0.205-0.438,0.389-1.105,0.346c0.013-0.395-0.495-0.282-0.398-0.595
							c0.17-0.038,0.583,0.163,0.838,0.008c-0.753-0.071-1.664-0.305-1.965-0.604c0.065,0.225,0,0.532-0.552,0.583
							c-1.426,0.029-0.488-0.475-1.32-0.678c-0.345,0.274-1.255-0.01-1.279,0.581c-0.417-0.003-0.494-0.278-0.656-0.439
							c-0.738,0.261-3.447,0.075-2.616,0.703l0.189,0.041c-0.036,0.012-0.077,0.013-0.121,0.026c0.006,0,0,0,0.006,0h-0.006
							c-2.419,0.587-5.026-0.334-7.426-0.082l0.004-0.197c-1.433,0.226-3.189,0.133-4.213,0.558c-0.424-0.001-1-0.361-0.819-0.596
							c-1.095,0.148-1.218,0.37-2.801,0.044c1.102-0.345-0.38-0.305,1.129-0.252c-1.423-0.17-1.746-0.487-3.274,0.053
							c0.521-0.506-1.071-0.637-1.748-0.486l0.998,0.362c-0.761,0.074-1.426,0.029-2.102-0.014l0.366-0.665
							c-2.913-0.81-5.252,1.377-7.47,0.022c-0.771,0.465,1.582,0.328,0.893,0.872c-1.339-0.09-2.735-1.045-3.155-1.047
							c-1.835-0.369-1.712,0.972-3.632,0.72c0.246,0.237,0.478,0.871-0.958,1.094c-1.341-0.088-1.648-0.996-0.801-1.186
							c0.321-0.02,0.477,0.056,0.463,0.136c0.433-0.087,1.001-0.188,0.471-0.445l-0.174,0.237c-0.666-0.242-2.51-0.217-2.077-0.607
							c-1.013,0.227-0.433,0.39,0.317,0.513c-1.72-0.344-2.687-0.01-4.457-0.241c0.281,0.131,0.541,0.41,0.26,0.407
							c-2.596-0.294-1.143,0.45-2.902,0.554c-0.999-0.362,0.358-0.864-1.413-0.561c-1.081-0.245-0.229-0.63,0.201-0.823
							c-1.614,0.458-3.015-0.301-3.936-0.385l0.85-0.191c-0.508,0.114-0.924,0.11-1.348,0.109l0.485,0.475
							c-0.499-0.083-0.921-0.085-0.912-0.282c-0.514,0.311,0.394,0.79-0.627,1.215c-0.665-0.241-2.025,0.259-2.255-0.371
							c2.092,0.214-0.231-0.633,1.54-0.734c-0.341,0.075-0.758,0.072-1.258-0.011c-0.075-0.07,0.07-0.13,0.207-0.167
							c-2.002-0.563-0.92,0.712-2.995,0.698c0.264-0.355-0.481-0.673-0.819-0.598c0.836,0.007,0.4,0.592-0.367,0.864
							c-1.33-0.276-1.446,0.206-2.143,0.173l0.795,0.13c-0.27,0.355-0.935,0.309-1.862,0.42c-0.079-0.276,0.842-0.19,0.511-0.312
							c-1.029,0.624-2.327-0.646-3.762-0.226c-0.665-0.241-0.064-0.667-0.648-0.83c-1.609,0.46-1.743-0.486-3.434-0.106
							c0.487,0.477,0.573,0.36-0.618,0.826l2.78-0.336l-1.784,0.694c0.839,0.007,1.771-0.3,2.273-0.219
							c-0.851,0.389-0.763,0.271-0.361,0.667c-1.148-0.716-2.276,0.417-3.604-0.066l0.041-1.182
							c-1.996-0.526-3.545,0.607-6.137,0.309l0.833,0.206c-0.347,0.469-1.6,0.065-2.438,0.256c0.078-0.395-0.447-0.539-0.805-0.784
							c0.043,0.293-1.896-0.027-2.132,0.762l-1.157-0.52c-2.092-0.213-2.388,1.125-4.399,0.991c0.605-0.429-0.309-0.709,1.039-1.016
							c-0.672-0.004-1.275-0.076-1.286,0.197c-0.392-0.247-1.862,0.532-2.479,0.157c-0.283,0.173-0.375,0.587-1.129,0.554
							c-0.082-0.08,0.003-0.195,0.003-0.195c-0.003,0.195-1.18,0.266-0.521,0.703c-2.068-1.232-5.781,0.089-7.582-0.968
							c-1.466,0.132-3.231,0.259-4.562,0.288c0.085-0.118,0.004-0.197,0.256-0.156c-1.835-0.367-1.128,1.133-3.217,0.724
							c-1.067-0.638,1.109-0.345,0.444-0.587c-0.29-1.299-2.52,0.177-3.925-0.581l0.34-0.077c-1.074-0.441-2.621,0.492-4.376,0.399
							c0,0,0.085-0.115,0.01-0.196c-1.2,0.663-3.472,0.882-5.161,1.066c0.525-0.508,0.767-0.269,0.446-0.786
							c-0.757,0.073,0.222,0.83-1.289,0.974c-0.491-0.278-1.581-0.522-1.726-1.073l1.425-0.03c-0.73-0.713-1.845,0.024-2.596-0.1
							l0.096-0.312c-2.184,0.101-2.214,0.887-4.562,0.831l0.243,0.236c-1.283,0.778-1.075-0.437-2.355,0.141l-0.387-0.79
							c-0.846,0.19-2.964,0.763-4.482,0.912c0.86-0.585,2.636-0.885,3.735-1.232c-0.839-0.006-2.852,0.058-3.289,0.448
							c0.338-0.076,0.764-0.27,1.098-0.148c-1.029,0.621-2.383,0.926-4.055,0.912c0.296-1.531-4.358-0.386-5.57-1.575
							c-2.958,0.566-5.867-0.241-9.312-0.15c1.222,1.19-1.006,0.034-0.794,1.256c-0.802,0.078-1.108,0.058-1.18-0.021l-2.432-0.73
							c-0.577-0.356,0.763-0.27,0.689-0.544c-1.757-0.094-0.737-0.519-1.9-0.843c0.238,0.437-0.611,0.626-1.613,0.459l1.411,0.564
							c-2.456,0.651-2.123-1.026-4.598-0.382l0.783-0.385c-1.27,0.227-4.686-0.008-5.93,0.975c-0.225-0.141-0.521-0.476,0.037-0.564
							c-3.035-0.147-6.757,1.045-9.116,0.44l0.23-0.299c-0.566,0.086-0.985,0.562-1.695,0.261c0.037-0.124,0.229-0.298-0.034-0.316
							c-0.299,0.103-1.504,0.524-2.254,0.35l0.641-0.336c-2.96-0.392-4.544,0.819-7.027,1.024c0.007-0.88-2.323-1.166-3.486-1.309
							l0.041-0.125c-3.448-0.109-5.856,0.73-9.049,1.075c-1.982-0.956-6.713-0.4-9.898-0.936c0.487,0.16-0.08,0.686-0.646,0.774
							c-0.748-0.179-2.066,0.611-1.948-0.197l0.266,0.016c-0.563-0.792-2.099-0.582-3.299-0.603l-0.198,1.056
							c-3.137-1.536-8.22,0.564-9.933-0.812c-0.757,0.264-1.695,0.261-2.445,0.525l0.041-0.566
							c-2.098-0.145-3.145-0.216-5.738-0.081L104,47.943c-1.462-0.037-1.847,1.633-3.196,1.666l-0.406-0.845
							c-2.551,0.013-5.134-0.729-7.655,0.038c0.042-0.124,0.117-0.368,0.53-0.402c-1.201-0.022-4.646-0.572-4.21,0.588
							c-0.03-0.755-2.632-0.074-4.01,0.259l0.214-0.557c-1.163,0.712-1.2,0.907-2.824,1.104c-0.385-0.073-0.337-0.446,0.174-0.304
							c-1.282-0.292-1,0.528-2.554,0.231l0.579-0.356c-1.319-0.043-1.214,0.148-1.941,0.563c-0.83,0.224-2.503-0.141-2.698-0.645
							c-0.178,0.307-0.9,0.718-1.678,0.573c-0.105-0.19,0.178-0.309,0.32-0.366c-2.206-0.379-3.281,0.648-4.798,0.101
							c-0.031-0.185-0.13-0.277-0.256-0.333c1.753,0.013,3.165,0.044,3.033,0.085c0-0.514-1.416-0.604-0.29-1.314
							c-1.137,0.387-3.08,1.229-4.46,0.987c-0.067-0.05-0.132-0.099-0.183-0.178l0.143-0.058c-0.318-0.051-0.604-0.003-0.873,0.083
							c-0.44-0.084-0.72-0.147-1.143-0.155c-0.163-0.425-1.624-0.229-2.33-0.25c0.058,0.562-0.866,0.472,0,0.936
							c-0.112-0.04,0.133-0.067,0.603-0.09c0.106-0.017,0.231-0.025,0.301-0.058c-0.014,0.016-0.03,0.033-0.048,0.049
							c0.464-0.016,1.068-0.029,1.755-0.038c-0.558,0.286-1.141,0.526-1.921,0.214c-0.362,0.361-0.761,0.733-0.986,0.907
							c-0.966-0.784-2.829-1.208-3.088-1.691c-2.156,0.315-5.079,0.208-6.434,1.264c-0.613,0.136-0.705-0.303-0.934-0.469
							c0.354-0.106,0.774-0.09,0.966-0.242c-1.225,0.271-3.631,0.105-3.923,0.843c-1.545-0.333,0.868-0.679-1.254-0.559l0.287-0.226
							c-4.176-1.179-6.789,1.883-11.417,0.37c0.32,0.093,0.481,0.136,0.546,0.259c-5.278-0.668-10.876,0.626-16.084-0.432
							c-1.48-0.213-1.641,0.258-2.544,0.616l-0.321-0.604l-1.545,0.697c-2.19,0.51-3.793-1.482-6.566-0.517l0.357,0.407
							c-0.996-0.077-3.155,0.24-2.988-0.228c-0.102,0.074-0.327,0.423-0.716,0.211l-0.03-0.316l-2.454,0.55
							c-1.896-0.229,0.297-1.254-2.471-1.316c-1.029,0.122-2.93,0.92-2.543,1.131c0.416,0.016,1.061,0.197,1.092,0.514l-0.941,0.165
							c-0.17,0.931-0.894,1.885,1.416,2.535l1.61-0.569l0.519,0.452L2.376,53.25c0.769,0.425,1.256,0.049,1.801-0.209
							c0.129,0.24,0.355,0.408,0.674,0.498l1.581-0.89c0.191,0.365-0.709,0.723,0.352,0.924c0.74-0.413-0.71-0.817,0.516-1.088
							c0.77,0.423,0.545,0.768,1.449,0.407c0.127,0.24-0.064,0.393-0.422,0.498c0.804-0.288,2.129-0.122,2.544-0.617
							c0.803,0.522,2.716-0.136,2.637,0.746c0.253-0.211,1.417-0.692,2.156-0.729c-1.35,1.055,2.766,0.062,2.409,1.193
							c0.999-0.949,3.609-0.421,5.378-0.948c-0.099,0.075-0.293,0.228-0.45,0.18c0.996,0.079,1.286,0.365,1.926,0.544
							c0.128-0.784,1.679-0.963,2.515-1.446c1.221,0.756-0.742,0.92-0.358,1.646c-0.061-0.635,2.122-0.634,1.706-1.163
							c0.934,0.468,0.805,0.227,1.286,0.876c0.164-0.98,0.869-0.166,1.644-0.768c1.352,0.483,0.348,0.918,1.833,0.62
							C34.256,53.825,32.936,54.172,32.936,54.172z M68.237,52.478c0,0.005,0,0.009,0,0.011c-0.304,0.013-0.563,0.024-0.729,0.032
							C67.66,52.513,67.871,52.502,68.237,52.478z M71.204,52.469c-0.361-0.022-0.811-0.026-1.287-0.022
							c-0.104-0.194,0.009-0.394,0.307-0.384C70.062,52.193,70.761,52.305,71.204,52.469z M64.929,48.573
							c0.469-0.08,0.626,0.031,0.691,0.146c-0.222,0.01-0.481,0.029-0.821,0.067c-0.014,0.021-0.042,0.045-0.055,0.069
							C64.788,48.748,64.839,48.647,64.929,48.573z"/>
						<path fill="#202020" d="M64.085,49.311c-0.068,0.012-0.105,0.036-0.194,0.041c0.096,0.049,0.187,0.092,0.28,0.126
							c0.057-0.06,0.115-0.119,0.166-0.176C64.252,49.305,64.164,49.307,64.085,49.311z"/>
						<path fill="#202020" d="M333.004,50.144l-0.062-0.013c0.052,0.022,0.1,0.044,0.131,0.08
							C333.031,50.184,333.031,50.166,333.004,50.144z"/>
						<polygon fill="#202020" points="112.168,53.545 112.164,53.403 111.904,53.527 						"/>
						<path fill="#202020" d="M349.343,52.073c0.031,0.049,0.093,0.101,0.214,0.144C349.548,52.18,349.456,52.129,349.343,52.073z"
							/>
						<path fill="#202020" d="M356.401,52.199l0.998,0.2C356.967,52.286,356.653,52.231,356.401,52.199z"/>
						<path fill="#202020" d="M361.828,52.478c0.069-0.099,0.088-0.173,0.106-0.241c-0.004-0.001-0.007-0.001-0.011-0.004
							L361.828,52.478z"/>
						<path fill="#202020" d="M275.547,53.139c-0.073,0.003-0.145,0.01-0.209,0.025C274.847,53.273,275.181,53.23,275.547,53.139z"
							/>
						<path fill="#202020" d="M301.224,51.825c-0.272,0.102-0.541,0.202-0.826,0.266C300.855,52.134,301.21,52.145,301.224,51.825z"
							/>
						<path fill="#202020" d="M246.876,53.815c0.003-0.003,0-0.005,0.003-0.01c-0.062,0.002-0.116,0-0.177,0L246.876,53.815z"/>
						<path fill="#202020" d="M299.204,52.081c0.457,0.112,0.839,0.088,1.194,0.01C300.023,52.053,299.582,51.996,299.204,52.081z"
							/>
						<path fill="#202020" d="M385.347,52.733l0.261,0.024c-0.004-0.037,0.011-0.067,0.031-0.09L385.347,52.733z"/>
						<path fill="#202020" d="M385.64,52.666l0.291-0.066C385.796,52.6,385.681,52.604,385.64,52.666z"/>
						<path fill="#202020" d="M386.541,52.458L385.93,52.6C386.142,52.601,386.402,52.619,386.541,52.458z"/>
						<path fill="#202020" d="M378.164,52.473l-0.083,0.204C378.126,52.635,378.155,52.569,378.164,52.473z"/>
						<path fill="#202020" d="M375.98,52.532c0.521,0.046,1.307,0.435,2.033,0.307l0.067-0.162
							C377.74,52.98,376.475,52.188,375.98,52.532z"/>
						<path fill="#202020" d="M366.869,50.012l1.829,0.163c-0.319-0.217-0.74-0.509,0.092-0.561
							C366.484,48.966,369.266,50.1,366.869,50.012z"/>
						<path fill="#202020" d="M361.197,49.697c0.983-0.101-0.012-0.315,0.041-0.438C360.614,49.457,360.463,49.507,361.197,49.697z"
							/>
						<path fill="#202020" d="M320.207,49.695l0.099-0.512C319.548,49.257,320.298,49.382,320.207,49.695z"/>
						<polygon fill="#202020" points="312.371,52.339 313.108,52.657 313.459,52.188 						"/>
						<polygon fill="#202020" points="307.742,48.695 308.073,48.622 306.81,48.808 						"/>
						<path fill="#202020" d="M238.9,48.877l0.229,0.63C239.641,49.394,239.749,48.686,238.9,48.877z"/>
						<path fill="#202020" d="M209.181,49.519c-0.324-0.315-1.16-0.518-1.675-0.208C208.174,49.354,208.84,49.6,209.181,49.519z"/>
						<polygon fill="#202020" points="120.05,48.492 120.648,48.281 119.521,48.457 						"/>
					</g>
				</g>
			</g>
		</g>
	</g>
	<g>
		<g>
			<g>
				<g>
					<g>
						<path fill="#202020" d="M91.121,117.121c0.008-0.088-0.029-0.279-0.085-0.236l-0.001,0.332L91.121,117.121z"/>
						<path fill="#202020" d="M90.646,116.548c-0.053,0.166-0.122,0.454-0.055,0.754c0.053-0.324,0.081-0.193,0.125-0.577
							c0.055-0.044,0.114,0.097,0.117,0.219c0.012-0.086,0.104,0.064,0.112-0.146c-0.109-0.247-0.199-0.25-0.285-0.03
							C90.632,116.697,90.646,116.609,90.646,116.548z"/>
						<path fill="#202020" d="M85.798,114.291l0.001,0.053C85.806,114.321,85.805,114.304,85.798,114.291z"/>
						<path fill="#202020" d="M83.632,111.742c0.022,0.016,0.054,0.004,0.079-0.013C83.68,111.723,83.652,111.72,83.632,111.742z"/>
						<path fill="#202020" d="M83.583,111.068c0,0.016,0.001,0.027,0.001,0.04C83.602,111.081,83.608,111.06,83.583,111.068z"/>
						<path fill="#202020" d="M85.798,114.291l-0.001-0.138C85.723,114.232,85.78,114.244,85.798,114.291z"/>
						<path fill="#202020" d="M89.829,117.359c0.023-0.016,0.043-0.046,0.061-0.086c-0.019,0.014-0.037,0.025-0.055,0.034
							L89.829,117.359z"/>
						<path fill="#202020" d="M87.126,114.898l0.023,0.012c0.024-0.03,0.053-0.066,0.086-0.106L87.126,114.898z"/>
						<path fill="#202020" d="M88.098,115.326c-0.017-0.021-0.13,0.236-0.186,0.345c0.057-0.101,0.094-0.145,0.122-0.156
							C88.054,115.466,88.075,115.405,88.098,115.326z"/>
						<path fill="#202020" d="M89.635,116.207l0.035-0.034L89.635,116.207z"/>
						<path fill="#202020" d="M86.513,114.426c0.021-0.036,0.04-0.068,0.051-0.088C86.543,114.367,86.527,114.397,86.513,114.426z"
							/>
						<path fill="#202020" d="M83.343,122.602c-0.014,0.014-0.023,0.023-0.036,0.035C83.333,122.622,83.348,122.609,83.343,122.602z
							"/>
						<polygon fill="#202020" points="83.338,124.518 83.314,124.517 83.209,124.634 						"/>
						<path fill="#202020" d="M83.297,110.015l-0.002,0.007C83.337,110.026,83.324,110.017,83.297,110.015z"/>
						<path fill="#202020" d="M76.574,107.649c0.296-0.068,0.196,0.385,0.549,0.247C77.007,107.89,76.81,107.493,76.574,107.649z"/>
						<path fill="#202020" d="M89.796,117.322c-0.018,0.003-0.037,0.005-0.055,0.001C89.766,117.333,89.783,117.332,89.796,117.322z
							"/>
						<path fill="#202020" d="M77.123,107.896l0.002,0.001l0.033-0.012C77.144,107.889,77.135,107.892,77.123,107.896z"/>
						<path fill="#202020" d="M81.936,108.049c-0.042,0.028-0.07,0.054-0.097,0.08C81.864,108.114,81.893,108.093,81.936,108.049z"
							/>
						<path fill="#202020" d="M82.489,109.806l0.008-0.058C82.485,109.777,82.485,109.794,82.489,109.806z"/>
						<path fill="#202020" d="M81.087,107.262c0.001-0.047,0.026-0.084-0.026-0.107c-0.008,0.015-0.014,0.026-0.021,0.037
							C81.079,107.183,81.104,107.195,81.087,107.262z"/>
						<path fill="#202020" d="M80.448,105.869c-0.008,0.036-0.014,0.064-0.021,0.096l0.027,0.028L80.448,105.869z"/>
						<path fill="#202020" d="M81.366,120.488c-0.051,0.064-0.112,0.127-0.175,0.187C81.342,120.543,81.484,120.611,81.366,120.488z
							"/>
						<path fill="#202020" d="M89.836,117.202c-0.01,0.071-0.021,0.105-0.04,0.12c0.013-0.003,0.026-0.008,0.039-0.014
							C89.84,117.266,89.843,117.226,89.836,117.202z"/>
						<path fill="#202020" d="M79.286,108.621l0.022-0.048C79.291,108.599,79.282,108.615,79.286,108.621z"/>
						<path fill="#202020" d="M78.402,114.494l0.04,0.025C78.446,114.505,78.435,114.495,78.402,114.494z"/>
						<path fill="#202020" d="M79.25,108.549c0.061-0.101,0.093-0.166,0.112-0.212c-0.014,0.022-0.025,0.04-0.045,0.072
							L79.25,108.549z"/>
						<path fill="#202020" d="M81.188,120.677l0.002-0.002L81.188,120.677z"/>
						<path fill="#202020" d="M82.325,121.049c-0.086-0.113-0.323,0.178-0.507,0.29c-0.188-0.071,0.162-0.235,0.273-0.4
							c-0.141-0.022-0.457,0.123-0.495,0.05c0.044-0.042,0.052-0.068,0.123-0.101c-0.301,0.09-0.217-0.258-0.593-0.142
							c0.02-0.028,0.042-0.05,0.062-0.069c-0.135,0.128-0.283,0.244-0.393,0.321c-0.046-0.049-0.263,0.041-0.085-0.123
							c0.02,0.037,0.1-0.019,0.172-0.049l-0.127,0.007c0.241-0.256,0.155,0.004,0.36-0.15c-0.17-0.039-0.505,0.008-0.481-0.138
							c0.261-0.214,0.233,0.13,0.396-0.159l-0.007,0.203c0.357-0.414,0.028,0.098,0.422-0.33c-0.048-0.218-0.273-0.084-0.31-0.309
							c-0.18,0.071-0.219,0.174-0.4,0.244c-0.446-0.054,0.573-0.676,0.08-0.597c-0.219,0.081-0.589,0.3-0.487,0.046l0.351-0.167
							c-0.08-0.185-0.527,0.206-0.429-0.108c0.148-0.05,0.196,0.062,0.217,0.012c0.179-0.276-0.238,0.039-0.296-0.05l0.277-0.2
							c-0.15-0.153-0.478-0.228-0.651-0.404c0.094-0.039,0.206-0.058,0.269-0.158c-0.288-0.174-0.3-0.561-0.226-0.908l-0.308,0.036
							c-0.008-0.024,0.099-0.102,0.161-0.103c0.053-0.148-0.169,0.078-0.294,0.082c-0.046-0.048,0.116-0.15,0.211-0.153
							c-0.304-0.061-0.725-0.277-0.526-0.591l0.097,0.001c0.043-0.191-0.635,0.075-0.44-0.171l0.058,0.007
							c0.002-0.374-0.382-0.649-0.053-1.041c-0.418,0.086,0.064-0.376-0.506-0.221c0.209-0.273,0.335-0.252,0.461-0.567
							c0.01-0.076-0.379-0.008-0.46-0.083l0.298-0.079l-0.342-0.041l0.343-0.151l-0.096-0.063c-0.01,0.037-0.118,0.102-0.206,0.117
							c-0.167-0.1,0.135-0.365,0.289-0.398l-0.328-0.251c0.124-0.016,0.177,0.027,0.265,0.052c-0.348-0.102,0.312-0.089-0.006-0.182
							c-0.064,0.032-0.184,0.022-0.246,0.029c0.156-0.106,0.151-0.273,0.06-0.388l0.213-0.007c0.033-0.228-0.146-0.456-0.168-0.71
							c-0.09,0.098-0.458,0.11-0.502,0.034l0.322-0.055c-0.206-0.034-0.115,0.089-0.371,0.006c0.027-0.102,0.363-0.09,0.474-0.044
							l-0.125-0.108c0.097-0.013,0.15,0.011,0.275,0.01c-0.207-0.036,0.306-0.211-0.052-0.262l0.096-0.01
							c-0.018-0.247-0.098-0.357-0.111-0.562c-0.281-0.009-0.214-0.088-0.438-0.158c0.097-0.155,0.326-0.311,0.31-0.494
							c-0.133-0.141-0.235-0.058-0.399-0.132c0.256,0.012,0.24-0.174,0.418-0.06c-0.038-0.226-0.043-0.284-0.182-0.591
							c-0.11,0.014-0.163,0.042-0.245,0.011c-0.031-0.058,0.131-0.101,0.251-0.073l0.023,0.018c-0.308-0.396,0.882-0.558,0.41-0.915
							l0.023,0.02l-0.217-0.329c0.067-0.106,0.171,0.123,0.341,0.08c-0.338-0.377,0.228-0.425,0.009-0.666
							c0.361,0.112,0.339,0.128,0.307,0.078c-0.039-0.035-0.076-0.164,0.1,0.049l-0.126-0.167c-0.116-0.182,0.077,0.082,0.105,0.122
							c-0.093-0.142-0.113-0.148-0.176-0.254c-0.05-0.186,0.061-0.216,0.137-0.102c0.083,0.106,0.14,0.361,0.149,0.524
							c-0.004,0.112-0.079-1.907-0.008-1.087l0.001,0.731c0.002-0.201,0.013-0.328,0.025-0.403c0.009-0.049,0.018-0.024,0.025,0.002
							c0.022,0.076,0.021,0.173,0.101-0.088c-0.025,0.125-0.054,0.299-0.057,0.289c-0.064,0.431,0.014,0.062,0.092-0.23
							c0,0.053-0.062,0.282-0.096,0.444c-0.055,0.214,0.142-0.411,0.045-0.059c-0.017,0.047-0.035,0.1-0.045,0.129
							c0.055-0.154,0.001,0.072,0.132-0.294c-0.053,0.195,0.104-0.062,0.025,0.151c0.206-0.283-0.068,0.2,0.23-0.183
							c-0.306,0.403-0.234,0.35-0.048,0.248c-0.111,0.083-0.102,0.112-0.259,0.222c0.01,0.007,0.09-0.022,0.289-0.143
							c-0.242,0.122-0.071,0.214,0.049,0.253c0.126,0.048,0.228,0.093-0.049,0.31c0.386,0.207,0.688,0.42,0.941,0.647
							c-0.398,0.212-0.214-0.289-0.622-0.047c0.316,0.181,0.734,0.143,0.797,0.458c-0.013,0.099-0.191,0.061-0.272,0.076
							c0.316,0.171,0.27,0.536,0.626,0.639c-0.036,0.022-0.09,0.021-0.134,0.015c0.041,0.038,0.011,0.142,0.181,0.028l-0.075-0.015
							c0.207-0.23,0.639-0.151,0.775-0.229c-0.545,0.24,0.02,0.304-0.683,0.585c0.052,0.009,0.158-0.006,0.269-0.088
							c-0.005,0.066-0.062,0.124-0.223,0.164c0.201,0.102,0.345-0.076,0.437,0.072c-0.083,0.055-0.134,0.046-0.242,0.096
							c0.211-0.032,0.419-0.067,0.432,0.102c-0.054,0.026-0.109,0.085-0.132,0.047c0.171,0.194,0.67,0.058,0.676,0.392
							c-0.397,0.187-0.06,0.16-0.351,0.392l0.181,0.055l0.109-0.156c0.074,0.11,0.361,0.038,0.331,0.201l-0.181,0.015l0.204,0.154
							l0.029-0.197c0.232-0.012,0.367-0.299,0.387-0.099c-0.052-0.003,0.077,0.102-0.054,0.292H82.98
							c0.134-0.024,0.272-0.052,0.26,0.08c-0.077,0.095-0.333,0.245-0.384,0.308c0.283-0.148,0.258,0.187,0.568,0.031
							c-0.077,0.03-0.228,0.156-0.252,0.188l0.229-0.124c-0.022,0.098-0.046,0.13-0.171,0.225c0.085,0.168,0.321-0.352,0.308-0.057
							c-0.026,0.001-0.049,0.032-0.102,0.03c0.064,0.234,0.393,0.21,0.44,0.436c-0.233,0.3-0.188-0.065-0.375,0.2
							c0.258,0.169,0.737,0.131,0.881,0.382l-0.009-0.066c0.396-0.355-0.031,0.333,0.245,0.25c-0.052,0.005-0.233,0.184-0.187,0.147
							c0.08,0.201,0.388,0.172,0.713,0.233l-0.115,0.081c0.008,0.169,0.184,0.25,0.248,0.372c0.113-0.085,0.156-0.025,0.243-0.207
							c-0.157,0.865,0.818,0.08,0.743,0.8c-0.035-0.021-0.146,0.047-0.118,0.065c0.104,0.02,0.209,0.036,0.317,0.046
							c0.097-0.211,0.037-0.139,0.077-0.323c0.103-0.1,0.224-0.154,0.284-0.12c-0.186,0.072-0.186,0.321-0.197,0.462
							c0.026-0.066,0.082-0.125,0.112-0.19c-0.068,0.432,0.247-0.395,0.288-0.055l-0.066,0.102c0.096-0.02,0.226-0.124,0.284-0.062
							c-0.088,0.254-0.128,0.079-0.231,0.27c0.114,0.041,0.426-0.361,0.405-0.077c-0.075,0.048-0.14,0.02-0.216,0.066
							c-0.031,0.33,0.018,0.265,0.077,0.346l-0.005-0.01l0.13,0.214l-0.015-0.1c0.401-0.578,0.33,0.001,0.672-0.365
							c-0.323,0.345-0.114,0.225-0.229,0.505c0.021,0.096,0.066,0.212,0.017,0.285c0.17-0.2,0.101,0.238,0.338-0.058
							c-0.023,0.097,0.099,0.038,0.009,0.267c0.149-0.042,0.016-0.171,0.062-0.285c0.268-0.28,0.359,0.509,0.734,0.116
							c0.272-0.152,0.358-0.473,0.576-0.609c0.054,0.164-0.094,0.346-0.094,0.346c0.101,0.158,0.196,0.147,0.312,0.034
							c-0.027,0.084-0.009,0.157,0.02,0.267c0.094-0.023,0.077-0.353,0.188-0.206c-0.023,0.108-0.055,0.281-0.105,0.389
							c0.116-0.087,0.226-0.266,0.334-0.352c0.031,0.171-0.065,0.256-0.107,0.366c0.131-0.071,0.333-0.149,0.356-0.427l-0.082-0.089
							c0.043-0.017,0.032,0.229,0,0.281c-0.102,0.214-0.157-0.095-0.163-0.192l0.076-0.061c-0.083-0.574-0.298,0.085-0.463,0.048
							l0.082-0.414l-0.171,0.341c-0.027-0.109-0.03-0.341,0.044-0.402c-0.087-0.206-0.104,0.146-0.171-0.095
							c-0.006-0.037,0-0.056,0.01-0.072l-0.111,0.11c0.029-0.084,0.016-0.294,0.068-0.226c-0.138-0.261-0.321,0.272-0.339-0.049
							l0.018-0.023c-0.264,0.104-0.071,0.305-0.328,0.619l0.031-0.767l-0.089,0.293c-0.023-0.017-0.066-0.051-0.029-0.168
							c-0.14,0.181-0.015,0.133-0.115,0.312c-0.051-0.3-0.376,0.047-0.261-0.435c-0.11,0.207,0.06,0.211-0.113,0.321
							c0.121-0.512-0.173,0.035-0.206-0.231c0.123-0.243,0.171-0.075,0.147-0.339c-0.214,0.409-0.165-0.163-0.276-0.109
							c-0.14,0.335-0.24,0.057-0.431,0.104c0.059-0.108-0.185-0.296-0.242-0.488l0.032-0.052c-0.196,0.311-0.296,0.176-0.43,0.189
							c0.114-0.188,0.175-0.253,0.273-0.311l-0.087-0.046c-0.08,0.09-0.139,0.129-0.218,0.133l0.164-0.223
							c-0.118-0.053-0.397,0.127-0.442-0.121c-0.154,0.205-0.273,0.674-0.535,0.706c0.072-0.119,0.2-0.318,0.273-0.337
							c-0.023,0.006-0.114,0.063-0.108-0.004l0.195-0.151c-0.01-0.129-0.145,0.137-0.188,0.083c0.114-0.162,0.041-0.142,0.138-0.265
							c0.024-0.007,0,0.098,0.064,0.047c-0.041-0.068-0.045-0.212,0.021-0.352c-0.061,0.095-0.154,0.216-0.212,0.205
							c-0.117-0.071,0.103-0.22,0.102-0.349c-0.108,0.09-0.09-0.074-0.271,0.159c-0.031-0.025,0.047-0.139,0.084-0.211
							c-0.136,0.064-0.28-0.169-0.416,0.123l0.001,0.028c-0.007,0.001-0.01,0.001-0.017,0.002l0,0l0,0
							c-0.368,0.068-0.268-0.442-0.519-0.506l0.067-0.072c-0.177-0.014-0.269-0.165-0.491-0.082
							c-0.03-0.029,0.056-0.196,0.151-0.267c-0.13-0.019-0.215,0.045-0.206-0.179c0.197-0.043,0.084-0.133,0.166-0.009
							c-0.034-0.16,0.061-0.29-0.237-0.211c0.218-0.138,0.162-0.292,0.062-0.287l-0.067,0.192c-0.077-0.028-0.106-0.089-0.134-0.152
							l0.27-0.198c0.125-0.473-0.851,0.075-0.473-0.527c-0.227,0.092-0.029,0.222-0.279,0.346c-0.051-0.13,0.235-0.539,0.211-0.569
							c0.035-0.25-0.481,0.177-0.5-0.047c-0.078,0.091-0.314,0.307-0.489,0.262c-0.046-0.135,0.297-0.433,0.422-0.425
							c0.027,0.019,0.006,0.054-0.027,0.077c0.06,0.007,0.133,0.02,0.204-0.1l-0.104,0.059c0.057-0.126-0.059-0.26,0.121-0.344
							c-0.148-0.009-0.181,0.084-0.186,0.179c0.038-0.236-0.151-0.211-0.161-0.415c-0.037,0.06-0.134,0.162-0.15,0.14
							c-0.027-0.291-0.247,0.041-0.389-0.07c0.091-0.185,0.373-0.221,0.149-0.275c0.04-0.156,0.246-0.198,0.349-0.22
							c-0.276,0.004-0.043-0.32-0.055-0.417l0.124,0.014c-0.073-0.008-0.094-0.042-0.115-0.076l-0.171,0.171
							c0.008-0.063-0.014-0.097,0.069-0.152c-0.157,0.045-0.307,0.252-0.539,0.287c0.065-0.121-0.217-0.094,0.034-0.286
							c0.022,0.228,0.252-0.192,0.389-0.078c-0.049-0.006-0.07-0.041-0.062-0.103c0.026-0.025,0.059-0.03,0.081-0.029
							c0.131-0.313-0.348,0.122-0.45-0.051c0.163-0.074,0.259-0.221,0.21-0.228c0.039,0.07-0.229,0.192-0.384,0.201
							c0.048-0.183-0.162-0.065-0.185-0.131l-0.014,0.1c-0.165,0.072-0.18,0.004-0.275-0.045c0.113-0.079,0.125,0.02,0.159-0.039
							c-0.32,0.077,0.154-0.362-0.096-0.374c0.07-0.118,0.283-0.177,0.324-0.267c-0.277-0.017,0.124-0.268-0.123-0.312
							c-0.183,0.16-0.127,0.139-0.388,0.155l0.283,0.149l-0.388,0.025c0.039,0.073,0.218,0.074,0.208,0.137
							c-0.21,0.027-0.155,0.004-0.305,0.139c0.251-0.279-0.296-0.089-0.152-0.325l0.515-0.291c0.134-0.299-0.435-0.151-0.428-0.446
							l-0.051,0.121c-0.223,0.084-0.104-0.123-0.227-0.15c0.177-0.087,0.216-0.167,0.308-0.256
							c-0.127,0.073-0.076-0.169-0.435-0.005l0.177-0.221c-0.003-0.239-0.597,0.069-0.648-0.178c0.223-0.036,0.296-0.199,0.509-0.12
							c-0.025-0.054-0.058-0.196-0.17-0.116c0.073-0.128-0.346-0.103-0.231-0.296c-0.088,0.017-0.256,0.145-0.287,0.044
							c0.026-0.039,0.075-0.069,0.075-0.069c-0.077,0.066-0.169-0.042-0.297,0.196c0.177-0.34,0.074-0.531-0.017-0.683
							c-0.095-0.16-0.187-0.266-0.088-0.716c-0.124-0.134-0.256-0.278-0.335-0.439c0.032-0.079,0.046-0.15,0.05-0.083
							c-0.025-0.564-0.312,0.751-0.324,0.174c0.068-0.7,0.126-0.158,0.139-0.454c0.123-0.578,0.072-0.65,0.004-0.669
							c-0.068-0.023-0.147,0.028-0.132-0.467l0.033-0.021c-0.007-0.643-0.234,0.083-0.314-0.257c0,0,0.017-0.121,0.02-0.227
							c-0.063,0.27-0.124,0.415-0.178,0.499c-0.067,0.22-0.121,0.28-0.164,0.356c0.039-0.524,0.045-0.268,0.044-0.82
							c-0.042,0.093-0.009,0.81-0.097,1.096c-0.023-0.235-0.091-0.359-0.109-0.873l0.103-0.205c-0.052-0.616-0.138,0.26-0.19,0.227
							l-0.001-0.306c-0.17,0.392-0.125,1.09-0.281,1.302l0.037,0.171c-0.003,0.775-0.113-0.239-0.132,0.365l-0.122-0.571
							c-0.042,0.261-0.096,0.918-0.152,1.162c-0.06-0.476,0.018-0.904,0.055-1.312c-0.065,0.106-0.212,0.421-0.171,0.735
							c0.01-0.091,0.008-0.28,0.053-0.236c0.027,0.566,0.011,0.896-0.091,1.056c-0.327-0.952-0.376,0.256-0.791-0.184
							c-0.02,0.335-0.132,0.489-0.289,0.648c-0.139,0.192-0.318,0.405-0.412,0.708c0.597,0.107-0.048,0.17,0.513,0.413
							c-0.005,0.119-0.028,0.152-0.069,0.147c-0.16,0.075-0.297,0.095-0.447,0.144c-0.191,0.003-0.098-0.121-0.23-0.157
							c-0.114,0.167-0.275-0.006-0.477,0.067c0.217,0.042,0.274,0.16,0.154,0.24l0.325-0.062c0.22,0.347-0.589,0.065-0.335,0.431
							l-0.167-0.139c0.079,0.17-0.118,0.525,0.333,0.77c-0.074,0.008-0.244,0.004-0.274-0.067c-0.145,0.326,0.359,0.831,0.01,1.033
							l-0.143-0.047c0.03,0.069,0.256,0.146,0.091,0.202c-0.061-0.012-0.143-0.045-0.157-0.017c0.039,0.04,0.235,0.197,0.147,0.269
							l-0.163-0.09c-0.213,0.313,0.381,0.546,0.471,0.813c-0.439-0.028-0.595,0.226-0.672,0.357l-0.062-0.006
							c-0.065,0.393,0.314,0.664,0.538,0.994c-0.457,0.244-0.129,0.745-0.358,1.13c0.074-0.065,0.341-0.037,0.391,0.018
							c-0.08,0.095,0.325,0.177-0.076,0.226l0.005-0.03c-0.387,0.123-0.264,0.28-0.238,0.409l0.524-0.074
							c-0.676,0.486,0.476,0.797-0.15,1.139c0.147,0.047,0.169,0.147,0.315,0.191l-0.273,0.072
							c-0.022,0.247-0.013,0.366,0.147,0.613l-0.212,0.007c0.037,0.16,0.843-0.065,0.906,0.062l-0.385,0.179
							c0.098,0.254-0.151,0.656,0.298,0.772c-0.059,0.019-0.175,0.057-0.206,0.021c0.025,0.131-0.071,0.582,0.444,0.306
							c-0.345,0.153,0.087,0.272,0.3,0.332l-0.263,0.096c0.376-0.036,0.466-0.075,0.628,0.036c-0.016,0.052-0.186,0.129-0.145,0.049
							c-0.073,0.186,0.283-0.02,0.219,0.191l-0.186,0.024c0.041,0.135,0.121,0.083,0.339,0.058c0.137,0.027,0.049,0.266-0.165,0.403
							c0.142-0.053,0.36-0.084,0.337,0.019c-0.079,0.055-0.146,0.057-0.178,0.058c-0.05,0.292,0.455,0.139,0.295,0.41
							c-0.079,0.048-0.113,0.08-0.131,0.105c-0.087-0.163-0.148-0.299-0.123-0.296c-0.226,0.123-0.189,0.277-0.56,0.343
							c0.232,0.015,0.701-0.016,0.669,0.17c-0.018,0.019-0.036,0.037-0.067,0.061l-0.032,0.001
							c-0.005,0.042,0.031,0.057,0.083,0.059c-0.013,0.062-0.025,0.104-0.005,0.145c-0.174,0.124-0.011,0.209,0.019,0.28
							c0.237-0.152,0.247-0.044,0.399-0.244c-0.011,0.021-0.036,0.005-0.07-0.031c-0.013-0.005-0.023-0.015-0.041-0.012l0.023-0.008
							c-0.031-0.038-0.068-0.09-0.109-0.15c0.152-0.022,0.286-0.032,0.193,0.119c0.174-0.059,0.353-0.12,0.438-0.148
							c-0.284,0.29-0.366,0.574-0.551,0.725c0.261,0.104,0.391,0.391,0.906,0.21c0.092,0.014-0.084,0.146-0.139,0.212
							c-0.064-0.001-0.083-0.042-0.156-0.015c0.184,0.03,0.257,0.285,0.576,0.097c-0.046,0.228-0.328,0.122-0.155,0.269
							l-0.108,0.041c-0.224,0.716,1.178-0.003,0.863,0.837c0.016-0.055,0.023-0.082,0.067-0.125
							c0.069,0.653,0.953,0.655,0.906,1.413c0.026,0.184,0.212,0.038,0.407-0.016l-0.199,0.23l0.363-0.122
							c0.336-0.016-0.268,0.804,0.286,0.668l0.117-0.17c0.046,0.1,0.315,0.142,0.14,0.298c0.033-0.019,0.171-0.128,0.126-0.024
							l-0.107,0.116l0.37-0.021c0.067,0.218-0.452,0.437-0.255,0.661c0.12,0.03,0.551-0.127,0.582-0.239
							c-0.029-0.036-0.022-0.15,0.081-0.271l0.126,0.002c0.319-0.34,0.662-0.673,0.735-1.041l-0.301,0.109l0.117-0.2l0.103,0.075
							c0.09-0.206-0.069-0.097-0.194-0.037c0.073-0.096,0.115-0.172,0.124-0.225l-0.414,0.222c0.113-0.145,0.297-0.214,0.296-0.358
							c-0.193,0.099-0.234,0.343-0.412,0.358c0.094-0.205,0.23-0.313,0.042-0.244c0.075-0.094,0.142-0.136,0.203-0.15
							c-0.155,0.049-0.186-0.099-0.389,0.049c0.13-0.239-0.235-0.136,0.086-0.439c-0.091,0.056-0.341,0.142-0.403,0.102
							c0.47-0.27-0.16-0.216,0.276-0.578c-0.41,0.254-0.391-0.104-0.698-0.055c0.034-0.018,0.103-0.055,0.095-0.027
							c-0.033-0.099,0.056-0.215,0.083-0.321c-0.301,0.25-0.466,0.196-0.702,0.292c0.209-0.337,0.395-0.246,0.645-0.513
							c-0.236,0.213-0.372,0.054-0.547,0.255c0.12-0.22,0.036-0.133,0.254-0.377c-0.385,0.304-0.118-0.009-0.397,0.127
							c0.101-0.253,0.332-0.318,0.125-0.331C82.11,121.064,82.325,121.049,82.325,121.049z M79.714,118.77l0.005-0.003
							c0.021,0.022,0.038,0.041,0.049,0.053C79.757,118.81,79.742,118.796,79.714,118.77z M79.566,118.524
							c0.008,0.036,0.028,0.074,0.053,0.113c-0.08,0.057-0.172,0.097-0.182,0.069C79.501,118.688,79.516,118.601,79.566,118.524z
							 M78.203,120.055c-0.059-0.023-0.021-0.066,0.025-0.101c0.016,0.018,0.039,0.037,0.073,0.058l0.032-0.013
							C78.285,120.023,78.239,120.044,78.203,120.055z"/>
						<path fill="#202020" d="M78.563,119.941c0.009,0.003,0.021,0,0.027,0.007c0.015-0.022,0.028-0.042,0.04-0.058l-0.084,0.031
							L78.563,119.941z"/>
						<path fill="#202020" d="M85.8,114.353v-0.009c-0.003,0.012-0.007,0.024-0.016,0.039
							C85.791,114.371,85.795,114.363,85.8,114.353z"/>
						<polygon fill="#202020" points="78.605,114.756 78.537,114.774 78.603,114.782 						"/>
						<path fill="#202020" d="M86.626,116.082c-0.009,0.023-0.016,0.049-0.015,0.074C86.619,116.14,86.623,116.112,86.626,116.082z"
							/>
						<path fill="#202020" d="M87.278,116.483l0.059,0.137C87.316,116.548,87.296,116.509,87.278,116.483z"/>
						<path fill="#202020" d="M87.779,116.838c0.021-0.045,0.038-0.079,0.052-0.11v-0.002L87.779,116.838z"/>
						<path fill="#202020" d="M80.913,110.832c-0.005-0.006-0.013-0.01-0.022-0.012C80.816,110.806,80.853,110.824,80.913,110.832z"
							/>
						<path fill="#202020" d="M82.981,112.643c-0.058,0.01-0.114,0.019-0.158,0.016C82.837,112.709,82.855,112.741,82.981,112.643z"
							/>
						<polygon fill="#202020" points="79.283,108.626 79.287,108.623 79.286,108.621 						"/>
						<path fill="#202020" d="M82.75,112.559c-0.016,0.072,0.02,0.095,0.073,0.1C82.814,112.617,82.808,112.564,82.75,112.559z"/>
						<path fill="#202020" d="M90.387,117.397l0.031,0.009c-0.001-0.019,0-0.034,0.001-0.045L90.387,117.397z"/>
						<path fill="#202020" d="M90.419,117.361l0.032-0.036C90.436,117.326,90.423,117.329,90.419,117.361z"/>
						<path fill="#202020" d="M90.517,117.248l-0.065,0.076C90.475,117.323,90.505,117.33,90.517,117.248z"/>
						<path fill="#202020" d="M89.569,117.242l-0.019,0.1C89.558,117.322,89.564,117.289,89.569,117.242z"/>
						<path fill="#202020" d="M89.32,117.239c0.055,0.031,0.125,0.236,0.215,0.183l0.015-0.08
							C89.496,117.488,89.395,117.075,89.32,117.239z"/>
						<path fill="#202020" d="M88.647,115.825l0.146,0.119c-0.003-0.113-0.003-0.263,0.076-0.271
							C88.748,115.311,88.852,115.919,88.647,115.825z"/>
						<path fill="#202020" d="M88.198,115.511c0.102-0.018,0.053-0.148,0.08-0.204C88.191,115.382,88.168,115.401,88.198,115.511z"
							/>
						<path fill="#202020" d="M85.034,113.358l0.188-0.175C85.144,113.16,85.151,113.253,85.034,113.358z"/>
						<polygon fill="#202020" points="83.532,113.694 83.466,113.86 83.664,113.728 						"/>
						<polygon fill="#202020" points="84.599,112.146 84.647,112.145 84.498,112.116 						"/>
						<path fill="#202020" d="M80.708,105.85l-0.176,0.38C80.597,106.237,80.826,105.882,80.708,105.85z"/>
						<path fill="#202020" d="M78.684,104.469c-0.049-0.228-0.137-0.277-0.142,0.038C78.597,104.455,78.667,104.577,78.684,104.469z
							"/>
						<polygon fill="#202020" points="75.961,114.541 75.843,114.497 75.957,114.601 						"/>
					</g>
				</g>
			</g>
		</g>
	</g>
	<g>
		<g>
			<g>
				<g>
					<g>
						<path fill="#202020" d="M105.027,115.804c-0.033,0.082-0.047,0.278,0.011,0.244l0.08-0.325L105.027,115.804z"/>
						<path fill="#202020" d="M105.321,116.444c0.081-0.154,0.167-0.429,0.146-0.736c-0.08,0.312-0.084,0.178-0.183,0.55
							c-0.059,0.034-0.085-0.114-0.063-0.234c-0.028,0.083-0.073-0.079-0.127,0.125c0.039,0.26,0.138,0.279,0.249,0.077
							C105.357,116.299,105.331,116.383,105.321,116.444z"/>
						<path fill="#202020" d="M110.75,115.009l-0.053-0.006C110.718,115.013,110.735,115.014,110.75,115.009z"/>
						<path fill="#202020" d="M113.351,112.529c-0.01,0.027,0.009,0.056,0.032,0.075C113.38,112.57,113.377,112.541,113.351,112.529
							z"/>
						<path fill="#202020" d="M114.012,112.253c-0.016,0.007-0.026,0.011-0.04,0.016
							C114.006,112.277,114.027,112.275,114.012,112.253z"/>
						<path fill="#202020" d="M110.75,115.009l0.14,0.017C110.825,114.939,110.8,114.996,110.75,115.009z"/>
						<path fill="#202020" d="M106.047,115.66c-0.016,0.017-0.028,0.047-0.04,0.088c0.013-0.015,0.026-0.027,0.04-0.036V115.66z"/>
						<path fill="#202020" d="M109.576,116.16l-0.026,0.015c0.013,0.036,0.028,0.08,0.045,0.129L109.576,116.16z"/>
						<path fill="#202020" d="M108.446,116.779c0.032-0.001-0.065-0.265-0.102-0.383c0.029,0.114,0.031,0.173,0.016,0.204
							C108.38,116.649,108.407,116.707,108.446,116.779z"/>
						<path fill="#202020" d="M106.378,116.781l-0.031,0.043C106.356,116.812,106.367,116.797,106.378,116.781z"/>
						<path fill="#202020" d="M110.371,115.715c0.026,0.033,0.051,0.06,0.068,0.075
							C110.418,115.761,110.395,115.736,110.371,115.715z"/>
						<path fill="#202020" d="M114.504,124.446c-0.014-0.014-0.023-0.023-0.036-0.035
							C114.483,124.436,114.496,124.451,114.504,124.446z"/>
						<polygon fill="#202020" points="112.527,124.407 112.532,124.383 112.433,124.261 						"/>
						<path fill="#202020" d="M114.954,111.518l-0.007,0.001C114.957,111.562,114.961,111.545,114.954,111.518z"/>
						<path fill="#202020" d="M117.237,108.535c0.214-0.143,0.328-0.043,0.559-0.221
							C117.691,108.349,117.371,108.429,117.237,108.535z"/>
						<path fill="#202020" d="M106.075,115.696c0.014-0.003,0.027-0.006,0.042-0.003
							C106.097,115.684,106.084,115.685,106.075,115.696z"/>
						<polygon fill="#202020" points="117.795,108.314 117.798,108.313 117.818,108.293 						"/>
						<path fill="#202020" d="M116.141,109.185c-0.046-0.019-0.084-0.027-0.121-0.035
							C116.045,109.163,116.08,109.174,116.141,109.185z"/>
						<path fill="#202020" d="M114.832,110.652l0.057-0.02C114.857,110.634,114.841,110.643,114.832,110.652z"/>
						<path fill="#202020" d="M116.179,108.252c0.023,0.002,0.056,0.023,0.033-0.016c-0.012-0.007-0.021-0.012-0.03-0.018
							C116.21,108.25,116.221,108.267,116.179,108.252z"/>
						<path fill="#202020" d="M116.397,107.794c-0.013-0.021-0.023-0.038-0.035-0.057l0.001,0.033L116.397,107.794z"/>
						<path fill="#202020" d="M116.491,121.906c-0.078-0.029-0.156-0.07-0.232-0.113C116.429,121.9,116.391,122.066,116.491,121.906
							z"/>
						<path fill="#202020" d="M106.055,115.818c0.001-0.071,0.007-0.106,0.02-0.121c-0.01,0.003-0.019,0.009-0.028,0.016
							C106.046,115.754,106.047,115.793,106.055,115.818z"/>
						<path fill="#202020" d="M114.411,106.817l0.161-0.242C114.516,106.63,114.458,106.72,114.411,106.817z"/>
						<path fill="#202020" d="M119.787,115.01l0.023,0.046C119.82,115.043,119.816,115.027,119.787,115.01z"/>
						<path fill="#202020" d="M114.916,105.719c0.085,0.05,0.144,0.06,0.19,0.048c-0.009-0.034-0.015-0.066-0.031-0.109
							L114.916,105.719z"/>
						<path fill="#202020" d="M116.256,121.792l0.002,0.002L116.256,121.792z"/>
						<path fill="#202020" d="M116.098,123.08c0.112-0.119-0.23-0.287-0.373-0.447c0.036-0.215,0.265,0.102,0.453,0.169
							c-0.002-0.157-0.211-0.441-0.146-0.501c0.052,0.032,0.08,0.032,0.127,0.096c-0.154-0.28,0.218-0.306,0.013-0.644
							c0.033,0.011,0.061,0.025,0.085,0.04c-0.162-0.092-0.314-0.203-0.419-0.287c0.038-0.059-0.108-0.241,0.102-0.118
							c-0.032,0.03,0.044,0.09,0.092,0.152l-0.04-0.121c0.319,0.154,0.036,0.151,0.241,0.305c-0.003-0.184-0.129-0.481,0.009-0.517
							c0.292,0.181-0.058,0.277,0.274,0.336l-0.209,0.06c0.512,0.213-0.095,0.061,0.441,0.305c0.223-0.124,0.011-0.311,0.223-0.442
							c-0.125-0.151-0.237-0.147-0.363-0.298c-0.1-0.457,0.847,0.274,0.608-0.18c-0.153-0.178-0.498-0.435-0.214-0.448l0.289,0.259
							c0.157-0.164-0.392-0.405-0.046-0.456c0.104,0.115,0.01,0.212,0.067,0.209c0.339,0.039-0.123-0.205-0.061-0.3l0.3,0.161
							c0.075-0.235-0.004-0.588,0.072-0.842c0.08,0.063,0.149,0.155,0.271,0.154c0.012-0.376,0.406-0.579,0.715-0.791l-0.208-0.245
							c0.015-0.024,0.142,0.011,0.179,0.065c0.154-0.065-0.164-0.089-0.241-0.195c0.012-0.073,0.192-0.01,0.251,0.07
							c-0.126-0.314-0.217-0.793,0.169-0.875l0.061,0.076c0.186-0.119-0.462-0.42-0.147-0.466l0.037,0.05
							c0.252-0.323,0.145-0.818,0.666-0.958c-0.382-0.187,0.312-0.314-0.242-0.514c0.356-0.124,0.43-0.034,0.698-0.297
							c0.047-0.078-0.325-0.222-0.361-0.339l0.299,0.074l-0.28-0.219l0.376,0.013l-0.054-0.116c-0.027,0.035-0.154,0.05-0.239,0.024
							c-0.101-0.18,0.295-0.319,0.451-0.293l-0.172-0.412c0.12,0.031,0.148,0.099,0.214,0.162c-0.264-0.252,0.328,0.024,0.085-0.207
							c-0.074,0.012-0.178-0.045-0.238-0.06c0.213-0.053,0.229-0.265,0.168-0.428l0.207,0.06c0.083-0.275-0.04-0.604-0.006-0.915
							c-0.11,0.105-0.474,0.046-0.501-0.044l0.328-0.011c-0.195-0.073-0.131,0.084-0.366-0.052c0.048-0.109,0.377-0.052,0.476,0.023
							l-0.099-0.148c0.098-0.002,0.146,0.034,0.269,0.051c-0.196-0.069,0.35-0.232,0.007-0.333l0.098-0.004
							c0.026-0.318-0.118-0.466-0.138-0.723c-0.281,0-0.223-0.101-0.454-0.169c0.081-0.185,0.292-0.405,0.256-0.63
							c-0.147-0.146-0.24-0.026-0.41-0.081c0.254-0.034,0.219-0.256,0.408-0.158c-0.05-0.266-0.066-0.344-0.347-0.642
							c-0.096,0.052-0.133,0.098-0.224,0.091c-0.054-0.052,0.079-0.15,0.202-0.162l0.029,0.012
							c-0.451-0.287,0.551-1.017-0.035-1.203l0.029,0.01l-0.335-0.235c0.012-0.153,0.204,0.032,0.333-0.117
							c-0.508-0.219-0.112-0.494-0.503-0.734c0.29-0.296,0.141-0.64-0.025-0.933c-0.163-0.325-0.36-0.516-0.313-0.92l-0.107,0.182
							c-0.17,0.061,0.002-0.21-0.017-0.326c-0.08,0.142-0.042,0.256-0.138,0.286c-0.276-0.295-0.488-0.771-0.704-1.365
							c-0.216-0.59-0.457-1.316-0.735-1.952c-0.213-0.458-0.189,1.496-0.389,0.314l0.076-0.523c-0.094,0.016-0.18-0.036-0.267-0.134
							c-0.068-0.045-0.142-0.123-0.228-0.246c-0.169,0.429-0.367,0.849-0.469,1.642c-0.008-0.195-0.039-0.392-0.008-0.471
							c-0.145-0.291-0.254,0.651-0.17,0.97c-0.055,0.081-0.082-0.279-0.152-0.369c-0.132-0.039-0.029,0.927-0.172,0.648
							c-0.025-0.041-0.019-0.166-0.015-0.228c0.012,0.295-0.22,0.487-0.036,0.762c-0.186,0.119-0.14,0.686-0.331,0.703
							c0.139,0.449-0.302,0.319-0.021,0.758c-0.296-0.425-0.482,0.166-0.385,0.456c-0.082-0.146-0.18,0.049-0.303-0.134
							c-0.09,0.207-0.106,0.429,0.111,0.513c-0.34,0.071-0.27,0.172-0.237,0.305c0.037,0.124,0.062,0.232-0.272,0.121
							c0.058,0.408,0.053,0.763-0.006,1.079c-0.387-0.232,0.125-0.315-0.295-0.534c0.022,0.336,0.28,0.678,0.038,0.868
							c-0.091,0.032-0.147-0.135-0.201-0.195c0.015,0.342-0.315,0.452-0.243,0.796c-0.035-0.023-0.06-0.071-0.075-0.111
							c-0.014,0.05-0.117,0.064,0.059,0.168l-0.021-0.071c0.295,0.089,0.419,0.502,0.546,0.596
							c-0.448-0.388-0.263,0.136-0.812-0.382c0.014,0.048,0.073,0.135,0.192,0.204c-0.061,0.019-0.136-0.012-0.24-0.138
							c-0.005,0.21,0.212,0.277,0.118,0.411c-0.083-0.056-0.096-0.104-0.184-0.183c0.116,0.175,0.23,0.354,0.084,0.422
							c-0.045-0.041-0.118-0.071-0.094-0.104c-0.109,0.209,0.19,0.627-0.114,0.734c-0.304-0.315-0.167-0.011-0.478-0.222
							l0.007,0.176l0.179,0.063c-0.078,0.093,0.074,0.344-0.087,0.355l-0.068-0.166l-0.082,0.226l0.19-0.018
							c0.078,0.217,0.383,0.277,0.201,0.347c-0.008-0.05-0.083,0.095-0.296,0.009v-0.001c0.055,0.122,0.112,0.25-0.019,0.264
							c-0.107-0.057-0.308-0.275-0.379-0.313c0.203,0.243-0.11,0.279,0.091,0.549c-0.042-0.07-0.191-0.197-0.227-0.217l0.16,0.202
							c-0.099-0.009-0.134-0.029-0.247-0.137c-0.147,0.098,0.395,0.268,0.106,0.288c-0.005-0.026-0.038-0.045-0.045-0.095
							c-0.214,0.082-0.138,0.408-0.362,0.457c-0.312-0.217,0.044-0.18-0.231-0.35c-0.131,0.232-0.05,0.716-0.306,0.829l0.064-0.004
							c0.341,0.407-0.322-0.055-0.244,0.216c-0.003-0.051-0.17-0.245-0.136-0.196c-0.182,0.062-0.176,0.332-0.274,0.638
							l-0.062-0.126c-0.156-0.025-0.251,0.124-0.38,0.138c0.058,0.127-0.007,0.148,0.145,0.282c-0.726-0.412-0.303,0.732-0.92,0.363
							c0.03-0.021,0.008-0.148-0.016-0.133c-0.047,0.083-0.098,0.164-0.151,0.239c0.135,0.19,0.1,0.105,0.24,0.232
							c0.042,0.133,0.028,0.262-0.031,0.295c0.03-0.192-0.187-0.32-0.292-0.409c0.042,0.058,0.065,0.134,0.104,0.195
							c-0.319-0.293,0.204,0.418-0.097,0.269l-0.048-0.112c-0.033,0.087-0.016,0.268-0.104,0.268
							c-0.147-0.226,0.014-0.143-0.083-0.343c-0.083,0.06,0.029,0.544-0.174,0.345c0.011-0.087,0.07-0.115,0.079-0.2
							c-0.23-0.24-0.204-0.165-0.293-0.179l0.009,0.003l-0.212-0.06l0.073,0.06c0.152,0.701-0.19,0.219-0.203,0.704
							c0.021-0.464-0.058-0.245-0.146-0.534c-0.07-0.065-0.161-0.133-0.171-0.22c0.003,0.258-0.178-0.141-0.176,0.236
							c-0.032-0.089-0.083,0.013-0.134-0.226c-0.074,0.096,0.069,0.158,0.096,0.277c-0.077,0.358-0.448-0.303-0.573,0.188
							c-0.163,0.21-0.158,0.542-0.344,0.732c-0.083-0.146,0.018-0.361,0.018-0.361c-0.12-0.129-0.19-0.089-0.283,0.021
							c0.015-0.085-0.011-0.157-0.045-0.266c-0.074,0.027-0.036,0.356-0.145,0.214c0.015-0.109,0.032-0.284,0.063-0.393
							c-0.082,0.091-0.167,0.276-0.264,0.366c-0.023-0.169,0.059-0.259,0.088-0.371c-0.099,0.082-0.264,0.16-0.311,0.42l0.066,0.102
							c-0.041,0.01-0.011-0.233,0.019-0.279c0.095-0.209,0.127,0.091,0.133,0.19l-0.07,0.064c0.066,0.57,0.287-0.099,0.416-0.069
							l-0.041,0.417l0.13-0.348c0.037,0.108,0.078,0.338,0.008,0.402c0.124,0.203,0.083-0.149,0.194,0.067
							c0.014,0.034,0.011,0.055,0.003,0.073l0.093-0.137c-0.011,0.09,0.05,0.29-0.023,0.239c0.228,0.212,0.269-0.351,0.388-0.049
							l-0.012,0.027c0.243-0.177-0.02-0.299,0.1-0.689l0.282,0.707l-0.04-0.304c0.029,0.004,0.087,0.014,0.105,0.135
							c0.051-0.227-0.047-0.125-0.036-0.331c0.196,0.237,0.308-0.204,0.473,0.246c-0.024-0.237-0.169-0.131-0.086-0.33
							c0.194,0.486,0.124-0.138,0.31,0.052c0.055,0.267-0.104,0.171,0.092,0.358c-0.082-0.455,0.263,0.014,0.336-0.104
							c-0.131-0.339,0.149-0.233,0.257-0.415c0.039,0.115,0.384,0.051,0.586,0.079l0.024,0.056c-0.145-0.34,0.032-0.358,0.099-0.482
							c0.106,0.193,0.131,0.278,0.12,0.396l0.102-0.059c-0.035-0.115-0.035-0.186,0.008-0.258l0.116,0.249
							c0.128-0.095,0.088-0.442,0.354-0.396c-0.137-0.217-0.519-0.512-0.454-0.76c0.084,0.111,0.224,0.302,0.212,0.378
							c0.004-0.024-0.014-0.128,0.048-0.099l0.064,0.236c0.131,0.036-0.072-0.186-0.002-0.206c0.111,0.163,0.124,0.087,0.205,0.221
							c-0.004,0.026-0.098-0.033-0.077,0.046c0.087-0.014,0.235,0.027,0.347,0.127c-0.071-0.087-0.155-0.216-0.124-0.272
							c0.112-0.103,0.182,0.161,0.313,0.188c-0.052-0.132,0.112-0.079-0.065-0.315c0.036-0.025,0.126,0.079,0.189,0.131
							c-0.014-0.149,0.27-0.257,0.001-0.446l-0.028-0.003c0-0.007,0-0.01,0.001-0.018l0,0l0,0c0-0.389,0.509-0.209,0.61-0.477
							l0.066,0.073c0.032-0.186,0.196-0.279,0.124-0.504c0.032-0.03,0.202,0.057,0.271,0.153c0.032-0.131-0.043-0.22,0.188-0.225
							c0.044,0.204,0.137,0.077,0.008,0.174c0.164-0.048,0.303,0.035,0.218-0.267c0.146,0.214,0.311,0.135,0.305,0.032l-0.206-0.047
							c0.028-0.083,0.094-0.118,0.157-0.156l0.22,0.253c0.512,0.03-0.151-0.87,0.515-0.609c-0.126-0.211-0.232,0.023-0.394-0.208
							c0.123-0.076,0.583,0.111,0.613,0.076c0.267-0.037-0.265-0.446-0.04-0.523c-0.11-0.053-0.372-0.23-0.371-0.414
							c0.116-0.082,0.497,0.167,0.519,0.296c-0.012,0.033-0.052,0.023-0.083-0.003c0.007,0.062,0.012,0.141,0.146,0.176
							l-0.083-0.087c0.138,0.018,0.245-0.145,0.373,0.009c-0.026-0.154-0.128-0.154-0.225-0.128
							c0.246-0.041,0.174-0.223,0.378-0.303c-0.071-0.015-0.2-0.075-0.181-0.098c0.277-0.134-0.113-0.229-0.051-0.407
							c0.207,0.02,0.331,0.28,0.313,0.042c0.166-0.022,0.272,0.16,0.325,0.253c-0.09-0.27,0.309-0.175,0.397-0.235l0.029,0.129
							c-0.017-0.077,0.009-0.113,0.035-0.151l-0.226-0.09c0.063-0.021,0.089-0.058,0.17-0.002c-0.099-0.132-0.351-0.186-0.469-0.392
							c0.139,0.009,0.008-0.246,0.285-0.094c-0.21,0.124,0.278,0.153,0.217,0.337c-0.011-0.051,0.014-0.087,0.078-0.108
							c0.034,0.013,0.05,0.042,0.058,0.064c0.353-0.024-0.243-0.276-0.12-0.454c0.135,0.119,0.311,0.138,0.298,0.087
							c-0.05,0.073-0.272-0.124-0.345-0.264c0.19-0.044-0.007-0.182,0.044-0.235l-0.099,0.036c-0.136-0.118-0.08-0.164-0.077-0.274
							c0.122,0.066,0.035,0.124,0.105,0.127c-0.21-0.253,0.404-0.035,0.299-0.274c0.139,0.002,0.29,0.166,0.391,0.155
							c-0.112-0.262,0.303-0.034,0.23-0.284c-0.232-0.076-0.186-0.039-0.324-0.262l-0.003,0.334l-0.205-0.335
							c-0.047,0.073,0.036,0.233-0.025,0.258c-0.123-0.175-0.077-0.136-0.268-0.202c0.368,0.079-0.06-0.305,0.216-0.302l0.51,0.298
							c0.331-0.052-0.082-0.471,0.178-0.633l-0.131,0.026c-0.188-0.144,0.05-0.161,0.007-0.283c0.17,0.101,0.259,0.087,0.385,0.113
							c-0.131-0.065,0.105-0.168-0.231-0.374l0.286,0.015c0.189-0.136-0.377-0.498-0.243-0.611c0.167,0.145,0.325,0.144,0.414,0.306
							c0.037-0.067,0.06-0.033-0.052-0.114c0.109,0.058-0.18-0.235-0.011-0.154c-0.062-0.069-0.222-0.212-0.186-0.249
							c0.033,0.023,0.074,0.069,0.074,0.069c-0.076-0.066-0.063-0.171-0.249-0.289c0.268,0.152,0.292,0.078,0.32-0.033
							c0.024-0.103,0.055-0.242,0.22,0.019c-0.004-0.148,0.013-0.332,0.041-0.431c0.023,0.089,0.042,0.14,0.027,0.125
							c0.115,0.177-0.202-0.899-0.053-0.748c0.143,0.44,0.03,0.345,0.093,0.493c0.234,1.026,0.03-0.284,0.175,0.294l0.004,0.082
							c0.071,0.368-0.018-0.556,0.036-0.575c0,0,0.009,0.115,0.017,0.199c-0.017-0.335-0.014-0.6-0.002-0.825
							c0.014-0.255,0.039-0.473,0.063-0.636c-0.001,0.606-0.011,0.355,0.013,0.925c0.017-0.103-0.042-1.018,0.019-1.08
							c0.027,0.355,0.068,0.695,0.063,1.298l-0.039-0.033c0.021,0.826,0.044,0.049,0.066,0.225l-0.011,0.326
							c0.044-0.037,0.099-0.814,0.177-0.619l0.015-0.236c0.135-0.633-0.011,0.467,0.106,0.026l-0.095,0.713
							c0.043-0.136,0.212-0.483,0.313-0.476c-0.16,0.375-0.265,0.528-0.342,0.783c0.018,0.036,0.07,0.054,0.164-0.217
							c-0.026,0.04-0.074,0.173-0.06,0.063c0.142-0.446,0.27-0.565,0.336-0.437c-0.194,0.517-0.188,0.635-0.17,0.725
							c0.021,0.087,0.048,0.175-0.142,0.507c0.111-0.102,0.118-0.002,0.091,0.093c-0.028,0.095-0.091,0.181-0.06,0.202
							c0.507-0.337,0.025,0.019,0.57-0.263c0.054,0.031,0.053,0.056,0.018,0.075c-0.101,0.078-0.18,0.21-0.27,0.313
							c-0.149,0.106-0.153-0.023-0.281,0.028c0.014,0.163-0.221,0.145-0.338,0.29c0.2-0.087,0.318-0.045,0.272,0.063l0.222-0.203
							c0.39,0.117-0.405,0.325-0.057,0.451l-0.199-0.016c0.131,0.081,0.077,0.399,0.579,0.4c-0.065,0.036-0.223,0.099-0.276,0.06
							c-0.019,0.273,0.64,0.502,0.388,0.766l-0.152,0.001c0.054,0.043,0.297,0.048,0.162,0.132c-0.062,0.005-0.152,0-0.156,0.024
							c0.062,0.018,0.281,0.102,0.194,0.181l-0.169-0.039c-0.185,0.283,0.425,0.369,0.539,0.602
							c-0.439,0.026-0.573,0.242-0.639,0.345l-0.062-0.002c-0.045,0.301,0.416,0.517,0.539,0.826
							c-0.496,0.154-0.263,0.601-0.556,0.856c0.083-0.033,0.339,0.053,0.378,0.112c-0.095,0.055,0.284,0.238-0.114,0.164l0.01-0.023
							c-0.394-0.009-0.303,0.142-0.346,0.246l0.515,0.113c-0.82,0.13,0.097,0.816-0.608,0.81c0.112,0.101,0.091,0.185,0.203,0.289
							l-0.272-0.08c-0.106,0.168-0.177,0.246-0.195,0.49l-0.176-0.108c-0.062,0.117,0.717,0.415,0.688,0.544l-0.413-0.102
							c-0.076,0.23-0.501,0.318-0.224,0.681c-0.056-0.027-0.167-0.079-0.17-0.122c-0.039,0.105-0.425,0.284,0.121,0.477
							c-0.348-0.148-0.14,0.208-0.046,0.398l-0.244-0.135c0.276,0.248,0.362,0.294,0.383,0.479
							c-0.048,0.018-0.215-0.067-0.129-0.081c-0.185,0.048,0.196,0.202-0.002,0.274l-0.136-0.129
							c-0.074,0.105,0.017,0.138,0.171,0.296c0.064,0.124-0.167,0.19-0.398,0.088c0.13,0.087,0.277,0.246,0.174,0.277
							c-0.089-0.036-0.127-0.088-0.146-0.114c-0.273,0.093,0.123,0.433-0.19,0.427c-0.082-0.043-0.126-0.058-0.157-0.061
							c0.09-0.143,0.172-0.253,0.184-0.232c-0.226-0.123-0.332-0.03-0.589-0.293c0.117,0.184,0.389,0.553,0.218,0.607
							c-0.025-0.007-0.049-0.014-0.086-0.03l-0.018-0.026c-0.037,0.013-0.03,0.049-0.006,0.093
							c-0.057,0.015-0.098,0.022-0.121,0.055c-0.19-0.095-0.175,0.074-0.217,0.126c0.243,0.142,0.16,0.195,0.399,0.244
							c-0.022-0.001-0.022-0.029-0.009-0.074c-0.002-0.013,0-0.026-0.01-0.04l0.019,0.017c0.016-0.043,0.04-0.097,0.069-0.156
							c0.096,0.119,0.17,0.231-0.001,0.216c0.134,0.127,0.273,0.258,0.339,0.32c-0.383-0.122-0.65-0.08-0.872-0.191
							c0.017,0.256-0.185,0.456,0.177,0.863c0.022,0.088-0.164-0.028-0.245-0.057c-0.024-0.058,0.005-0.088-0.047-0.146
							c0.045,0.175-0.154,0.321,0.131,0.557c-0.221,0.029-0.23-0.266-0.297-0.06l-0.076-0.089c-0.699-0.021,0.353,1.094-0.523,0.999
							c0.056,0.004,0.082,0.005,0.134,0.038c-0.564,0.203-0.45,1.03-1.18,1.068c-0.177,0.033-0.014,0.203,0.056,0.391l-0.243-0.183
							l0.15,0.349c0.033,0.337-0.785-0.24-0.634,0.285l0.169,0.119c-0.097,0.041-0.138,0.305-0.289,0.125
							c0.019,0.034,0.124,0.174,0.023,0.125l-0.112-0.112l0.014,0.362c-0.214,0.042-0.408-0.477-0.621-0.322
							c-0.03,0.113,0.109,0.518,0.2,0.581c0.034-0.019,0.139,0.009,0.246,0.126l-0.016,0.123c0.293,0.362,0.526,0.792,0.95,0.853
							l-0.063-0.329l0.193,0.129l-0.098,0.11c0.204,0.101,0.117-0.075,0.072-0.209c0.092,0.079,0.167,0.124,0.224,0.132l-0.181-0.44
							c0.141,0.118,0.196,0.315,0.346,0.308c-0.087-0.204-0.336-0.243-0.338-0.431c0.205,0.096,0.308,0.236,0.25,0.039
							c0.093,0.076,0.132,0.145,0.142,0.21c-0.04-0.163,0.119-0.203-0.024-0.409c0.245,0.125,0.155-0.249,0.464,0.065
							c-0.057-0.094-0.146-0.35-0.106-0.419c0.284,0.469,0.221-0.191,0.608,0.224c-0.275-0.403,0.111-0.423,0.039-0.74
							c0.021,0.033,0.065,0.1,0.036,0.096c0.098-0.053,0.225,0.018,0.336,0.026c-0.285-0.27-0.246-0.453-0.372-0.677
							c0.369,0.15,0.297,0.36,0.598,0.568c-0.244-0.204-0.094-0.378-0.323-0.517c0.242,0.077,0.141,0.01,0.422,0.181
							c-0.363-0.329-0.003-0.124-0.181-0.379c0.278,0.046,0.377,0.265,0.365,0.05C116.055,122.862,116.098,123.08,116.098,123.08z
							 M117.542,119.521l0.005,0.003c-0.01,0.031-0.019,0.057-0.025,0.074C117.526,119.582,117.532,119.56,117.542,119.521z
							 M117.694,119.251c-0.028,0.027-0.054,0.067-0.077,0.111c-0.09-0.039-0.171-0.098-0.151-0.122
							C117.514,119.286,117.599,119.251,117.694,119.251z M115.695,118.813c-0.012-0.059,0.043-0.043,0.095-0.019
							c-0.006,0.021-0.01,0.047-0.01,0.085l0.027,0.022C115.764,118.87,115.723,118.84,115.695,118.813z"/>
						<path fill="#202020" d="M115.97,119.074c0.002,0.009,0.01,0.018,0.008,0.027c0.026,0.004,0.048,0.007,0.067,0.009l-0.067-0.06
							L115.97,119.074z"/>
						<path fill="#202020" d="M110.687,115.002l0.009,0.001c-0.011-0.005-0.022-0.01-0.036-0.022
							C110.671,114.989,110.678,114.995,110.687,115.002z"/>
						<polygon fill="#202020" points="119.838,115.396 119.769,115.379 119.823,115.422 						"/>
						<path fill="#202020" d="M108.797,115.129c-0.015-0.02-0.032-0.04-0.053-0.053C108.754,115.092,108.774,115.11,108.797,115.129
							z"/>
						<path fill="#202020" d="M108.181,115.371l-0.124-0.054C108.116,115.353,108.153,115.366,108.181,115.371z"/>
						<path fill="#202020" d="M107.67,115.429c0.013,0.048,0.023,0.084,0.032,0.117l0.001,0.002L107.67,115.429z"/>
						<path fill="#202020" d="M113.215,109.69c0.002-0.007,0.003-0.015,0-0.024C113.194,109.597,113.195,109.636,113.215,109.69z"/>
						<path fill="#202020" d="M112.316,112.117c-0.023-0.053-0.046-0.104-0.053-0.145
							C112.218,111.993,112.191,112.016,112.316,112.117z"/>
						<polygon fill="#202020" points="114.393,106.844 114.396,106.847 114.411,106.817 						"/>
						<path fill="#202020" d="M112.339,111.883c-0.071,0.001-0.086,0.037-0.077,0.088
							C112.3,111.955,112.351,111.939,112.339,111.883z"/>
						<path fill="#202020" d="M105.629,115.644l-0.022-0.014c-0.002,0.018-0.003,0.033-0.004,0.045L105.629,115.644z"/>
						<path fill="#202020" d="M105.603,115.675l-0.027,0.031C105.588,115.707,105.598,115.706,105.603,115.675z"/>
						<path fill="#202020" d="M105.52,115.772l0.057-0.066C105.558,115.704,105.536,115.693,105.52,115.772z"/>
						<path fill="#202020" d="M106.258,115.754l-0.002-0.103C106.254,115.673,106.255,115.706,106.258,115.754z"/>
						<path fill="#202020" d="M106.446,115.698c-0.049-0.017-0.137-0.201-0.191-0.129l0.001,0.082
							C106.27,115.496,106.421,115.875,106.446,115.698z"/>
						<path fill="#202020" d="M107.572,116.757l-0.212-0.032c0.059,0.097,0.142,0.228,0.058,0.275
							C107.749,117.253,107.308,116.777,107.572,116.757z"/>
						<path fill="#202020" d="M108.209,116.713c-0.085,0.083,0.056,0.148,0.072,0.207
							C108.313,116.804,108.319,116.776,108.209,116.713z"/>
						<path fill="#202020" d="M111.833,114.267l0.173,0.188C112.039,114.373,111.937,114.384,111.833,114.267z"/>
						<polygon fill="#202020" points="111.418,112.783 111.253,112.73 111.403,112.912 						"/>
						<polygon fill="#202020" points="113.098,113.629 113.103,113.68 113.121,113.517 						"/>
						<path fill="#202020" d="M116.505,108.143l-0.19-0.327C116.335,107.902,116.55,108.268,116.505,108.143z"/>
						<path fill="#202020" d="M117.009,107.077c-0.02,0.316-0.028,0.525,0.021,0.267
							C117.02,107.278,117.027,107.018,117.009,107.077z"/>
						<polygon fill="#202020" points="117.557,114.064 117.466,113.991 117.528,114.108 						"/>
					</g>
				</g>
			</g>
		</g>
	</g>
</g>
</svg>
