<?xml version="1.0" encoding="utf-8"?>
<!-- Generator: Adobe Illustrator 25.4.1, SVG Export Plug-In . SVG Version: 6.00 Build 0)  -->
<svg version="1.1" xmlns="http://www.w3.org/2000/svg" xmlns:xlink="http://www.w3.org/1999/xlink" x="0px" y="0px"
	 viewBox="0 0 100 100" style="enable-background:new 0 0 100 100;" xml:space="preserve">
<style type="text/css">
	.st0{fill:none;stroke:#FF8A00;stroke-width:4.6398;stroke-miterlimit:10;}
	.st1{fill:#FF8A00;}
</style>
<g id="Capa_1">
</g>
<g id="ELEMENTS">
	<g>
		<ellipse class="st0" cx="50" cy="50" rx="46" ry="46.8"/>
		<g>
			<path class="st1" d="M63.68,33.1c-1.67,0-3.03,1.38-3.03,3.08c0,1.7,1.36,3.08,3.03,3.08c1.67,0,3.03-1.38,3.03-3.08
				C66.71,34.48,65.35,33.1,63.68,33.1z"/>
			<path class="st1" d="M50.21,37.06c-7.02,0-12.72,5.81-12.72,12.94c0,7.14,5.71,12.94,12.72,12.94c7.01,0,12.72-5.81,12.72-12.94
				C62.93,42.86,57.23,37.06,50.21,37.06z M50.21,58.29c-4.49,0-8.15-3.72-8.15-8.29c0-4.57,3.66-8.29,8.15-8.29
				c4.49,0,8.15,3.72,8.15,8.29C58.36,54.57,54.71,58.29,50.21,58.29z"/>
			<path class="st1" d="M60.31,76.28H39.69c-8.56,0-15.52-7.08-15.52-15.79V39.51c0-8.71,6.96-15.79,15.52-15.79h20.63
				c8.56,0,15.52,7.08,15.52,15.79v20.99C75.83,69.2,68.87,76.28,60.31,76.28z M39.69,28.67c-5.88,0-10.66,4.86-10.66,10.84v20.99
				c0,5.98,4.78,10.84,10.66,10.84h20.63c5.88,0,10.66-4.86,10.66-10.84V39.51c0-5.98-4.78-10.84-10.66-10.84H39.69z"/>
		</g>
	</g>
</g>
</svg>
