<?xml version="1.0" encoding="utf-8"?>
<!-- Generator: Adobe Illustrator 26.5.0, SVG Export Plug-In . SVG Version: 6.00 Build 0)  -->
<svg version="1.1" id="Capa_1" xmlns="http://www.w3.org/2000/svg" xmlns:xlink="http://www.w3.org/1999/xlink" x="0px" y="0px"
	 viewBox="0 0 392 268" enable-background="new 0 0 392 268" xml:space="preserve">
<g>
	<rect y="0" fill="#FB3D2C" width="392" height="268"/>
	<path fill="#FFFFFF" stroke="#421D70" stroke-width="4" stroke-miterlimit="10" d="M244.737,73.199h-97.475
		c-21.053,0-38.12,17.067-38.12,38.12v45.361c0,21.054,17.067,38.12,38.12,38.12h97.475c21.053,0,38.12-17.066,38.12-38.12v-45.361
		C282.858,90.267,265.791,73.199,244.737,73.199z M222.869,139.277l-39.675,19.322c-2.478,1.206-5.363-0.598-5.363-3.353v-38.643
		c0-2.756,2.885-4.56,5.363-3.353l39.675,19.322C225.665,133.932,225.665,137.916,222.869,139.277z"/>
</g>
</svg>
