<?xml version="1.0" encoding="utf-8"?>
<!-- Generator: Adobe Illustrator 25.0.0, SVG Export Plug-In . SVG Version: 6.00 Build 0)  -->
<svg version="1.1" id="Capa_1" xmlns="http://www.w3.org/2000/svg" xmlns:xlink="http://www.w3.org/1999/xlink" x="0px" y="0px"
	 viewBox="0 0 393 268.5" style="enable-background:new 0 0 393 268.5;" xml:space="preserve">
<style type="text/css">
	.st0{fill:#816DAF;}
	.st1{fill:#FF5100;}
	.st2{fill:#F02B3C;}
	.st3{fill:#4E2583;}
</style>
<rect class="st0" width="393" height="268.5"/>
<g>
	<g>
		<path class="st1" d="M299.66,118.83c-12.48-12.97-33.56-12.73-46.29,0l-3.29,3.29c-0.76,0.76-1.99,0.76-2.75,0l-3.29-3.29
			c-12.73-12.73-33.81-12.97-46.29,0c-12.1,12.57-11.95,32.56,0.44,44.95l45.07,45.08c3,3,7.87,3,10.87,0l45.07-45.08
			C311.61,151.39,311.76,131.39,299.66,118.83z"/>
	</g>
	<g>
		<path class="st2" d="M198.2,163.78c-12.39-12.39-12.54-32.39-0.44-44.95c12.48-12.97,33.56-12.73,46.29,0l3.29,3.29
			c0.76,0.76,1.99,0.76,2.75,0l3.29-3.29c2.6-2.6,5.55-4.67,8.7-6.22c2.3-14.35-1.94-29.54-12.74-40.75
			c-18.59-19.32-49.98-18.96-68.94,0l-4.9,4.9c-1.13,1.13-2.96,1.13-4.09,0l-4.9-4.9c-18.96-18.96-50.35-19.32-68.94,0
			c-18.02,18.72-17.8,48.5,0.65,66.95l67.13,67.13c4.47,4.47,11.72,4.47,16.19,0l29.41-29.41L198.2,163.78z"/>
	</g>
	<g>
		<path class="st3" d="M248.71,213.49c-2.69,0-5.22-1.05-7.12-2.95l-45.07-45.07c-13.19-13.19-13.4-34.85-0.47-48.29
			c6.35-6.59,14.98-10.28,24.31-10.37c0.11,0,0.22,0,0.33,0c9.36,0,18.47,3.76,25.05,10.34l2.98,2.98l2.98-2.98
			c6.58-6.58,15.69-10.34,25.05-10.34c0.11,0,0.22,0,0.33,0c9.33,0.09,17.96,3.77,24.31,10.37l0,0
			c12.93,13.44,12.72,35.1-0.47,48.29l-45.07,45.07C253.93,212.44,251.4,213.49,248.71,213.49z M220.69,111.57c-0.1,0-0.19,0-0.29,0
			c-8.04,0.08-15.47,3.24-20.92,8.9c-11.14,11.58-10.96,30.25,0.41,41.62l45.07,45.07c1,1,2.33,1.55,3.75,1.55
			c1.42,0,2.75-0.55,3.75-1.55l45.08-45.07c11.37-11.37,11.55-30.04,0.41-41.62l0,0c-5.45-5.66-12.88-8.83-20.92-8.9
			c-8.2-0.1-16.21,3.18-21.96,8.94l-3.29,3.29c-0.82,0.82-1.9,1.27-3.06,1.27c-1.16,0-2.24-0.45-3.06-1.27l-3.29-3.29
			C236.68,114.82,228.79,111.57,220.69,111.57z"/>
	</g>
	<g>
		<path class="st3" d="M173.45,211.67c-3.54,0-7.08-1.35-9.78-4.04l-67.13-67.13c-9.36-9.36-14.58-21.8-14.7-35.04
			C81.72,92.24,86.7,79.72,95.85,70.2c9.24-9.6,21.8-14.95,35.38-15.08c0.16,0,0.32,0,0.49,0c13.63,0,26.9,5.47,36.48,15.05l4.9,4.9
			c0.25,0.25,0.47,0.25,0.72,0l4.9-4.9c9.7-9.7,23.16-15.15,36.96-15.05c13.58,0.13,26.14,5.49,35.38,15.08
			c10.99,11.42,15.87,26.97,13.39,42.67c-0.21,1.3-1.43,2.18-2.73,1.98c-1.3-0.21-2.19-1.43-1.98-2.73
			c2.25-14.21-2.17-28.29-12.12-38.62c-8.34-8.66-19.7-13.5-31.99-13.62c-0.15,0-0.3,0-0.44,0c-12.37,0-24.41,4.96-33.11,13.66
			l-4.9,4.9c-1,1-2.32,1.55-3.73,1.55c-1.41,0-2.73-0.55-3.73-1.55l-4.9-4.9c-8.69-8.69-20.74-13.66-33.11-13.66
			c-0.15,0-0.29,0-0.44,0c-12.29,0.12-23.65,4.95-31.99,13.62c-17.04,17.7-16.76,46.24,0.62,63.62l67.13,67.13
			c3.54,3.53,9.29,3.53,12.82,0l29.13-29.13c0.93-0.93,2.44-0.93,3.37,0c0.93,0.93,0.93,2.44,0,3.37l-29.13,29.13
			C180.54,210.32,176.99,211.67,173.45,211.67z"/>
	</g>
</g>
</svg>
