<?xml version="1.0" encoding="utf-8"?>
<!-- Generator: Adobe Illustrator 25.4.1, SVG Export Plug-In . SVG Version: 6.00 Build 0)  -->
<svg version="1.1" xmlns="http://www.w3.org/2000/svg" xmlns:xlink="http://www.w3.org/1999/xlink" x="0px" y="0px"
	 viewBox="0 0 392 268" style="enable-background:new 0 0 392 268;" xml:space="preserve">
<style type="text/css">
	.st0{fill:#F02536;}
	.st1{fill:#734EBC;stroke:#421872;stroke-width:2;stroke-miterlimit:10;}
	.st2{fill:#22BFF6;}
	.st3{fill:#F9E700;}
	.st4{clip-path:url(#SVGID_00000059306704980353534660000018396645614115383486_);}
	.st5{fill:#421872;}
	.st6{opacity:0.22;clip-path:url(#SVGID_00000059306704980353534660000018396645614115383486_);}
	.st7{fill:#FFFFFF;}
	.st8{fill:#806DAE;stroke:#421872;stroke-width:2;stroke-miterlimit:10;}
	.st9{fill:#4F2483;}
	.st10{fill:#22BFF6;stroke:#421872;stroke-width:2;stroke-linejoin:round;stroke-miterlimit:10;}
	.st11{fill:#F9E700;stroke:#421872;stroke-width:2;stroke-linejoin:round;stroke-miterlimit:10;}
	.st12{fill:#4AF264;stroke:#421872;stroke-width:2;stroke-linejoin:round;stroke-miterlimit:10;}
	.st13{fill:#9FD17B;}
	.st14{fill:#FF8901;}
	.st15{fill:#A2BDD2;}
	.st16{fill:#FB8484;}
	.st17{clip-path:url(#SVGID_00000059311119714685091780000013152538610128877959_);}
	.st18{fill:#FDA3A2;}
	.st19{fill:#F76E6E;}
	.st20{fill:#5F0591;}
	.st21{clip-path:url(#SVGID_00000044140125575501972350000017100167154153468565_);}
	.st22{clip-path:url(#SVGID_00000178912745415716882030000016971098417150487950_);}
	.st23{clip-path:url(#SVGID_00000047046295472019248700000016818379899103118751_);}
	.st24{clip-path:url(#SVGID_00000070817784915845802750000013335277265767374765_);}
	.st25{clip-path:url(#SVGID_00000086684613917584107420000009540065002299045795_);}
	.st26{clip-path:url(#SVGID_00000104664618208478683250000013535749159916602252_);}
	.st27{clip-path:url(#SVGID_00000178186832361567606850000013665362151235529147_);}
	.st28{clip-path:url(#SVGID_00000036967629885618128190000011801400945777635224_);}
	.st29{clip-path:url(#SVGID_00000050632237436910930500000002908931497657493134_);}
	.st30{clip-path:url(#SVGID_00000044884718494941293800000010368208807051210141_);}
	.st31{clip-path:url(#SVGID_00000159433150823972312640000003688536071959664011_);}
	.st32{clip-path:url(#SVGID_00000087403740758037087060000013352934390732084917_);}
	.st33{fill:none;}
</style>
<g id="Capa_1">
	<rect class="st0" width="392" height="268"/>
	<g>
		<path class="st1" d="M346.12,62.35H45.46c-11.07,0-20.04,8.97-20.04,20.04v106.86c0,11.07,8.97,20.04,20.04,20.04h300.66
			c11.07,0,20.04-8.97,20.04-20.04V82.39C366.15,71.32,357.18,62.35,346.12,62.35z"/>
	</g>
	<g>
		<g>
			
				<ellipse transform="matrix(0.7071 -0.7071 0.7071 0.7071 -9.8182 244.0903)" class="st2" cx="289.73" cy="133.9" rx="55.04" ry="55.04"/>
		</g>
		<g>
			<path class="st3" d="M289.73,189.93c-30.9,0-56.04-25.14-56.04-56.03s25.14-56.03,56.04-56.03s56.03,25.14,56.03,56.03
				S320.63,189.93,289.73,189.93z M289.73,79.86c-29.8,0-54.04,24.24-54.04,54.04s24.24,54.04,54.04,54.04
				c29.8,0,54.04-24.24,54.04-54.04S319.53,79.86,289.73,79.86z"/>
		</g>
	</g>
	<g>
		<g>
			<defs>
				
					<ellipse id="SVGID_1_" transform="matrix(0.9966 -0.0825 0.0825 0.9966 -10.0567 24.3536)" cx="289.73" cy="133.9" rx="49.06" ry="49.06"/>
			</defs>
			<clipPath id="SVGID_00000067955618930456460620000017848784621294552762_">
				<use xlink:href="#SVGID_1_"  style="overflow:visible;"/>
			</clipPath>
			<g style="clip-path:url(#SVGID_00000067955618930456460620000017848784621294552762_);">
				
					<ellipse transform="matrix(0.9732 -0.2298 0.2298 0.9732 -22.8577 70.0767)" class="st5" cx="289.5" cy="133.2" rx="51.63" ry="51.63"/>
			</g>
			<g style="opacity:0.22;clip-path:url(#SVGID_00000067955618930456460620000017848784621294552762_);">
				<path class="st7" d="M288.18,77.04l1.56,57.32l-52.02-26.48C237.71,107.89,249.55,83.28,288.18,77.04z"/>
			</g>
			<g style="opacity:0.22;clip-path:url(#SVGID_00000067955618930456460620000017848784621294552762_);">
				<path class="st7" d="M301.05,190.07l-11.57-56.16l55.85,16.97C345.34,150.87,337.99,177.17,301.05,190.07z"/>
			</g>
		</g>
		<g>
			<g>
				<circle class="st2" cx="289.73" cy="133.9" r="18.81"/>
			</g>
			<g>
				<path class="st3" d="M289.73,153.41c-10.76,0-19.51-8.75-19.51-19.51c0-10.76,8.75-19.51,19.51-19.51
					c10.76,0,19.51,8.75,19.51,19.51C309.24,144.65,300.49,153.41,289.73,153.41z M289.73,115.79c-9.98,0-18.11,8.12-18.11,18.11
					c0,9.98,8.12,18.11,18.11,18.11c9.98,0,18.11-8.12,18.11-18.11C307.84,123.91,299.72,115.79,289.73,115.79z"/>
			</g>
		</g>
		<g>
			<path class="st5" d="M292.23,133.9c0-1.38-1.12-2.49-2.49-2.49c-1.38,0-2.49,1.12-2.49,2.49c0,1.38,1.12,2.49,2.49,2.49
				C291.11,136.39,292.23,135.27,292.23,133.9z"/>
		</g>
		<g>
			<path class="st3" d="M294.04,121.18h-9.12c-0.06,0-0.11,0.05-0.11,0.11v1.12c0,0.06,0.05,0.11,0.11,0.11h9.12
				c0.06,0,0.11-0.05,0.11-0.11v-1.12C294.15,121.23,294.1,121.18,294.04,121.18z"/>
		</g>
		<g>
			<path class="st3" d="M298.74,124.05h-18.53c-0.06,0-0.11,0.05-0.11,0.11v1.12c0,0.06,0.05,0.11,0.11,0.11h18.53
				c0.06,0,0.11-0.05,0.11-0.11v-1.12C298.86,124.1,298.81,124.05,298.74,124.05z"/>
		</g>
		<g>
			<path class="st3" d="M298.74,126.21h-18.53c-0.06,0-0.11,0.05-0.11,0.11v1.12c0,0.06,0.05,0.11,0.11,0.11h18.53
				c0.06,0,0.11-0.05,0.11-0.11v-1.12C298.86,126.26,298.81,126.21,298.74,126.21z"/>
		</g>
	</g>
	<g>
		<g>
			
				<ellipse transform="matrix(0.7071 -0.7071 0.7071 0.7071 -65.7839 108.9774)" class="st5" cx="98.66" cy="133.9" rx="55.04" ry="55.04"/>
		</g>
		<g>
			<path class="st2" d="M98.66,189.93c-30.9,0-56.04-25.14-56.04-56.03s25.14-56.03,56.04-56.03c30.9,0,56.03,25.14,56.03,56.03
				S129.55,189.93,98.66,189.93z M98.66,79.86c-29.8,0-54.04,24.24-54.04,54.04s24.24,54.04,54.04,54.04
				c29.8,0,54.04-24.24,54.04-54.04S128.45,79.86,98.66,79.86z"/>
		</g>
	</g>
	<g>
		<path class="st7" d="M342.68,190.92c-0.2,0-0.4-0.03-0.61-0.09c-1.08-0.33-1.68-1.48-1.34-2.55l7.65-24.56
			c0.06-0.18,0.08-0.36,0.08-0.55V73.23c0-1.13,0.91-2.04,2.04-2.04s2.04,0.91,2.04,2.04v89.93c0,0.59-0.09,1.18-0.27,1.76
			l-7.65,24.57C344.36,190.36,343.55,190.92,342.68,190.92z"/>
	</g>
	<g>
		<rect x="344.04" y="74.6" class="st8" width="12.75" height="11.22"/>
	</g>
	<g>
		<polyline class="st9" points="344.55,193.85 350.93,195.38 344.81,191.81 344.3,194.36 		"/>
	</g>
	<g>
		
			<rect x="333.84" y="182.24" transform="matrix(0.335 -0.9422 0.9422 0.335 51.8942 447.2023)" class="st9" width="17.86" height="9.18"/>
	</g>
	<g>
		<circle class="st10" cx="235.12" cy="82.5" r="5.44"/>
	</g>
	<g>
		<circle class="st11" cx="193.46" cy="82.5" r="5.44"/>
	</g>
	<g>
		<circle class="st11" cx="175.51" cy="82.5" r="5.44"/>
	</g>
	<g>
		<circle class="st10" cx="158.63" cy="82.5" r="5.44"/>
	</g>
	<g>
		<circle class="st11" cx="249.28" cy="82.5" r="5.44"/>
	</g>
	<g>
		<circle class="st12" cx="216.33" cy="82.67" r="9.01"/>
	</g>
	<g>
		<path class="st9" d="M220.92,163.88c-1.69,0-3.06-1.04-3.06-2.33v-57.07c0-1.29,1.37-2.33,3.06-2.33c1.69,0,3.06,1.04,3.06,2.33
			v57.07C223.98,162.83,222.61,163.88,220.92,163.88z"/>
	</g>
	<g>
		<path class="st9" d="M208.16,163.88c-1.69,0-3.06-1.04-3.06-2.33v-57.07c0-1.29,1.37-2.33,3.06-2.33c1.69,0,3.06,1.04,3.06,2.33
			v57.07C211.22,162.83,209.85,163.88,208.16,163.88z"/>
	</g>
	<g>
		<path class="st9" d="M194.88,163.88c-1.69,0-3.06-1.04-3.06-2.33v-57.07c0-1.29,1.37-2.33,3.06-2.33c1.69,0,3.06,1.04,3.06,2.33
			v57.07C197.94,162.83,196.57,163.88,194.88,163.88z"/>
	</g>
	<g>
		<path class="st9" d="M181.59,163.88c-1.69,0-3.06-1.04-3.06-2.33v-57.07c0-1.29,1.37-2.33,3.06-2.33s3.06,1.04,3.06,2.33v57.07
			C184.65,162.83,183.28,163.88,181.59,163.88z"/>
	</g>
	<g>
		<path class="st9" d="M168.3,163.88c-1.69,0-3.06-1.04-3.06-2.33v-57.07c0-1.29,1.37-2.33,3.06-2.33s3.06,1.04,3.06,2.33v57.07
			C171.36,162.83,169.99,163.88,168.3,163.88z"/>
	</g>
	<g>
		<path class="st13" d="M226.18,108.1h-9.84c-0.19,0-0.35,0.16-0.35,0.35V112c0,0.19,0.16,0.35,0.35,0.35h9.84
			c0.19,0,0.35-0.16,0.35-0.35v-3.54C226.53,108.26,226.37,108.1,226.18,108.1z"/>
	</g>
	<g>
		<path class="st13" d="M186.55,149.07h-9.84c-0.19,0-0.35,0.16-0.35,0.35v3.54c0,0.19,0.16,0.35,0.35,0.35h9.84
			c0.19,0,0.35-0.16,0.35-0.35v-3.54C186.9,149.23,186.74,149.07,186.55,149.07z"/>
	</g>
	<g>
		<path class="st13" d="M173.49,117.7h-9.84c-0.19,0-0.35,0.16-0.35,0.35v3.54c0,0.19,0.16,0.35,0.35,0.35h9.84
			c0.19,0,0.35-0.16,0.35-0.35v-3.54C173.84,117.86,173.68,117.7,173.49,117.7z"/>
	</g>
	<g>
		<path class="st14" d="M212.91,133.27h-9.84c-0.19,0-0.35,0.16-0.35,0.35v3.54c0,0.19,0.16,0.35,0.35,0.35h9.84
			c0.19,0,0.35-0.16,0.35-0.35v-3.54C213.27,133.43,213.11,133.27,212.91,133.27z"/>
	</g>
	<g>
		<path class="st14" d="M199.75,114.06h-9.84c-0.19,0-0.35,0.16-0.35,0.35v3.54c0,0.19,0.16,0.35,0.35,0.35h9.84
			c0.19,0,0.35-0.16,0.35-0.35v-3.54C200.1,114.22,199.94,114.06,199.75,114.06z"/>
	</g>
	<g>
		<rect x="159.38" y="184.19" class="st14" width="74.18" height="20.88"/>
	</g>
	<g>
		<g>
			<path class="st7" d="M162.14,192.55h-1.02c-0.06,0-0.1,0.05-0.1,0.1v4.9c0,0.06,0.05,0.1,0.1,0.1h1.02c0.06,0,0.1-0.05,0.1-0.1
				v-4.9C162.24,192.6,162.2,192.55,162.14,192.55z"/>
		</g>
		<g>
			<path class="st7" d="M166.67,192.55h-1.02c-0.06,0-0.1,0.05-0.1,0.1v4.9c0,0.06,0.05,0.1,0.1,0.1h1.02c0.06,0,0.1-0.05,0.1-0.1
				v-4.9C166.77,192.6,166.73,192.55,166.67,192.55z"/>
		</g>
		<g>
			<path class="st7" d="M180.96,192.55h-1.02c-0.06,0-0.1,0.05-0.1,0.1v4.9c0,0.06,0.05,0.1,0.1,0.1h1.02c0.06,0,0.1-0.05,0.1-0.1
				v-4.9C181.06,192.6,181.02,192.55,180.96,192.55z"/>
		</g>
		<g>
			<path class="st7" d="M194.55,192.55h-1.02c-0.06,0-0.1,0.05-0.1,0.1v4.9c0,0.06,0.05,0.1,0.1,0.1h1.02c0.06,0,0.1-0.05,0.1-0.1
				v-4.9C194.66,192.6,194.61,192.55,194.55,192.55z"/>
		</g>
		<g>
			<path class="st7" d="M185.67,192.55h-1.02c-0.06,0-0.1,0.05-0.1,0.1v4.9c0,0.06,0.05,0.1,0.1,0.1h1.02c0.06,0,0.1-0.05,0.1-0.1
				v-4.9C185.77,192.6,185.72,192.55,185.67,192.55z"/>
		</g>
		<g>
			<path class="st7" d="M187.98,193.6h-1.02c-0.06,0-0.1,0.05-0.1,0.1v2.82c0,0.06,0.05,0.1,0.1,0.1h1.02c0.06,0,0.1-0.05,0.1-0.1
				v-2.82C188.08,193.64,188.03,193.6,187.98,193.6z"/>
		</g>
		<g>
			<path class="st7" d="M183.23,193.91h-1.02c-0.06,0-0.1,0.05-0.1,0.1v2.2c0,0.06,0.05,0.1,0.1,0.1h1.02c0.06,0,0.1-0.05,0.1-0.1
				v-2.2C183.33,193.95,183.28,193.91,183.23,193.91z"/>
		</g>
		<g>
			<path class="st7" d="M196.47,193.91h-1.02c-0.06,0-0.1,0.05-0.1,0.1v2.2c0,0.06,0.05,0.1,0.1,0.1h1.02c0.06,0,0.1-0.05,0.1-0.1
				v-2.2C196.57,193.95,196.53,193.91,196.47,193.91z"/>
		</g>
		<g>
			<path class="st7" d="M164.41,191.61h-1.02c-0.06,0-0.1,0.05-0.1,0.1v6.8c0,0.06,0.05,0.1,0.1,0.1h1.02c0.06,0,0.1-0.05,0.1-0.1
				v-6.8C164.51,191.65,164.46,191.61,164.41,191.61z"/>
		</g>
		<g>
			<path class="st7" d="M169.11,190.53h-1.02c-0.06,0-0.1,0.05-0.1,0.1v8.95c0,0.06,0.05,0.1,0.1,0.1h1.02c0.06,0,0.1-0.05,0.1-0.1
				v-8.95C169.21,190.58,169.17,190.53,169.11,190.53z"/>
		</g>
		<g>
			<path class="st7" d="M178.61,190.53h-1.02c-0.06,0-0.1,0.05-0.1,0.1v8.95c0,0.06,0.05,0.1,0.1,0.1h1.02c0.06,0,0.1-0.05,0.1-0.1
				v-8.95C178.71,190.58,178.67,190.53,178.61,190.53z"/>
		</g>
		<g>
			<path class="st7" d="M190.11,190.53h-1.02c-0.06,0-0.1,0.05-0.1,0.1v8.95c0,0.06,0.05,0.1,0.1,0.1h1.02c0.06,0,0.1-0.05,0.1-0.1
				v-8.95C190.21,190.58,190.17,190.53,190.11,190.53z"/>
		</g>
		<g>
			<path class="st7" d="M171.38,188.68h-1.02c-0.06,0-0.1,0.05-0.1,0.1v12.65c0,0.06,0.05,0.1,0.1,0.1h1.02c0.06,0,0.1-0.05,0.1-0.1
				v-12.65C171.48,188.73,171.43,188.68,171.38,188.68z"/>
		</g>
		<g>
			<path class="st7" d="M176.17,188.68h-1.02c-0.06,0-0.1,0.05-0.1,0.1v12.65c0,0.06,0.05,0.1,0.1,0.1h1.02c0.06,0,0.1-0.05,0.1-0.1
				v-12.65C176.27,188.73,176.23,188.68,176.17,188.68z"/>
		</g>
		<g>
			<path class="st7" d="M192.38,188.68h-1.02c-0.06,0-0.1,0.05-0.1,0.1v12.65c0,0.06,0.05,0.1,0.1,0.1h1.02c0.06,0,0.1-0.05,0.1-0.1
				v-12.65C192.48,188.73,192.43,188.68,192.38,188.68z"/>
		</g>
		<g>
			<path class="st7" d="M173.81,186.09h-1.07c-0.06,0-0.11,0.05-0.11,0.11v17.83c0,0.06,0.05,0.11,0.11,0.11h1.07
				c0.06,0,0.11-0.05,0.11-0.11v-17.83C173.92,186.13,173.87,186.09,173.81,186.09z"/>
		</g>
		<g>
			<path class="st7" d="M198.39,192.55h-1.02c-0.06,0-0.1,0.05-0.1,0.1v4.9c0,0.06,0.05,0.1,0.1,0.1h1.02c0.06,0,0.1-0.05,0.1-0.1
				v-4.9C198.49,192.6,198.44,192.55,198.39,192.55z"/>
		</g>
		<g>
			<path class="st7" d="M202.92,192.55h-1.02c-0.06,0-0.1,0.05-0.1,0.1v4.9c0,0.06,0.05,0.1,0.1,0.1h1.02c0.06,0,0.1-0.05,0.1-0.1
				v-4.9C203.02,192.6,202.97,192.55,202.92,192.55z"/>
		</g>
		<g>
			<path class="st7" d="M217.21,192.55h-1.02c-0.06,0-0.1,0.05-0.1,0.1v4.9c0,0.06,0.05,0.1,0.1,0.1h1.02c0.06,0,0.1-0.05,0.1-0.1
				v-4.9C217.31,192.6,217.26,192.55,217.21,192.55z"/>
		</g>
		<g>
			<path class="st7" d="M230.8,192.55h-1.02c-0.06,0-0.1,0.05-0.1,0.1v4.9c0,0.06,0.05,0.1,0.1,0.1h1.02c0.06,0,0.1-0.05,0.1-0.1
				v-4.9C230.9,192.6,230.86,192.55,230.8,192.55z"/>
		</g>
		<g>
			<path class="st7" d="M221.91,192.55h-1.02c-0.06,0-0.1,0.05-0.1,0.1v4.9c0,0.06,0.05,0.1,0.1,0.1h1.02c0.06,0,0.1-0.05,0.1-0.1
				v-4.9C222.01,192.6,221.97,192.55,221.91,192.55z"/>
		</g>
		<g>
			<path class="st7" d="M224.22,193.6h-1.02c-0.06,0-0.1,0.05-0.1,0.1v2.82c0,0.06,0.05,0.1,0.1,0.1h1.02c0.06,0,0.1-0.05,0.1-0.1
				v-2.82C224.32,193.64,224.28,193.6,224.22,193.6z"/>
		</g>
		<g>
			<path class="st7" d="M219.47,193.91h-1.02c-0.06,0-0.1,0.05-0.1,0.1v2.2c0,0.06,0.05,0.1,0.1,0.1h1.02c0.06,0,0.1-0.05,0.1-0.1
				v-2.2C219.57,193.95,219.53,193.91,219.47,193.91z"/>
		</g>
		<g>
			<path class="st7" d="M232.72,193.91h-1.02c-0.06,0-0.1,0.05-0.1,0.1v2.2c0,0.06,0.05,0.1,0.1,0.1h1.02c0.06,0,0.1-0.05,0.1-0.1
				v-2.2C232.82,193.95,232.77,193.91,232.72,193.91z"/>
		</g>
		<g>
			<path class="st7" d="M200.65,191.61h-1.02c-0.06,0-0.1,0.05-0.1,0.1v6.8c0,0.06,0.05,0.1,0.1,0.1h1.02c0.06,0,0.1-0.05,0.1-0.1
				v-6.8C200.75,191.65,200.71,191.61,200.65,191.61z"/>
		</g>
		<g>
			<path class="st7" d="M205.36,190.53h-1.02c-0.06,0-0.1,0.05-0.1,0.1v8.95c0,0.06,0.05,0.1,0.1,0.1h1.02c0.06,0,0.1-0.05,0.1-0.1
				v-8.95C205.46,190.58,205.41,190.53,205.36,190.53z"/>
		</g>
		<g>
			<path class="st7" d="M214.86,190.53h-1.02c-0.06,0-0.1,0.05-0.1,0.1v8.95c0,0.06,0.05,0.1,0.1,0.1h1.02c0.06,0,0.1-0.05,0.1-0.1
				v-8.95C214.96,190.58,214.91,190.53,214.86,190.53z"/>
		</g>
		<g>
			<path class="st7" d="M226.36,190.53h-1.02c-0.06,0-0.1,0.05-0.1,0.1v8.95c0,0.06,0.05,0.1,0.1,0.1h1.02c0.06,0,0.1-0.05,0.1-0.1
				v-8.95C226.46,190.58,226.41,190.53,226.36,190.53z"/>
		</g>
		<g>
			<path class="st7" d="M207.62,188.68h-1.02c-0.06,0-0.1,0.05-0.1,0.1v12.65c0,0.06,0.05,0.1,0.1,0.1h1.02c0.06,0,0.1-0.05,0.1-0.1
				v-12.65C207.73,188.73,207.68,188.68,207.62,188.68z"/>
		</g>
		<g>
			<path class="st7" d="M212.42,188.68h-1.02c-0.06,0-0.1,0.05-0.1,0.1v12.65c0,0.06,0.05,0.1,0.1,0.1h1.02c0.06,0,0.1-0.05,0.1-0.1
				v-12.65C212.52,188.73,212.47,188.68,212.42,188.68z"/>
		</g>
		<g>
			<path class="st7" d="M228.62,188.68h-1.02c-0.06,0-0.1,0.05-0.1,0.1v12.65c0,0.06,0.05,0.1,0.1,0.1h1.02c0.06,0,0.1-0.05,0.1-0.1
				v-12.65C228.72,188.73,228.68,188.68,228.62,188.68z"/>
		</g>
		<g>
			<path class="st7" d="M210.06,186.09h-1.07c-0.06,0-0.11,0.05-0.11,0.11v17.83c0,0.06,0.05,0.11,0.11,0.11h1.07
				c0.06,0,0.11-0.05,0.11-0.11v-17.83C210.16,186.13,210.12,186.09,210.06,186.09z"/>
		</g>
	</g>
	<g>
		<rect x="196.42" y="171.53" class="st9" width="6.89" height="6.89"/>
	</g>
	<g>
		<rect x="206.37" y="171.53" class="st9" width="6.89" height="6.89"/>
	</g>
	<g>
		<rect x="216.53" y="171.53" class="st9" width="6.89" height="6.89"/>
	</g>
	<g>
		<rect x="226.48" y="171.53" class="st9" width="6.89" height="6.89"/>
	</g>
	<g>
		<rect x="156.02" y="171.53" class="st9" width="6.89" height="6.89"/>
	</g>
	<g>
		<rect x="165.97" y="171.53" class="st9" width="6.89" height="6.89"/>
	</g>
	<g>
		<rect x="176.13" y="171.53" class="st9" width="6.89" height="6.89"/>
	</g>
	<g>
		<rect x="186.08" y="171.53" class="st9" width="6.89" height="6.89"/>
	</g>
	<g>
		<circle class="st10" cx="98.66" cy="133.17" r="42.09"/>
	</g>
	<g>
		<path class="st15" d="M98.66,89.95c-0.47,0-0.85-0.38-0.85-0.85v-7.44c0-0.47,0.38-0.85,0.85-0.85c0.47,0,0.85,0.38,0.85,0.85
			v7.44C99.51,89.56,99.12,89.95,98.66,89.95z"/>
	</g>
	<g>
		<path class="st15" d="M98.66,186.47c-0.47,0-0.85-0.38-0.85-0.85v-7.44c0-0.47,0.38-0.85,0.85-0.85c0.47,0,0.85,0.38,0.85,0.85
			v7.44C99.51,186.08,99.12,186.47,98.66,186.47z"/>
	</g>
	<g>
		<path class="st15" d="M109.98,91.64c-0.45-0.14-0.69-0.63-0.55-1.07l2.29-7.08c0.14-0.45,0.63-0.69,1.07-0.55
			c0.45,0.14,0.69,0.63,0.55,1.07l-2.29,7.08C110.91,91.54,110.43,91.79,109.98,91.64z"/>
	</g>
	<g>
		<path class="st15" d="M78.84,182.62c-0.45-0.14-0.69-0.63-0.55-1.07l2.29-7.08c0.14-0.45,0.63-0.69,1.07-0.55
			c0.45,0.14,0.69,0.63,0.55,1.07l-2.29,7.08C79.77,182.52,79.29,182.77,78.84,182.62z"/>
	</g>
	<g>
		<path class="st15" d="M122.05,97.06c-0.39-0.26-0.49-0.79-0.23-1.18l4.18-6.16c0.26-0.39,0.79-0.49,1.18-0.23
			c0.39,0.26,0.49,0.79,0.23,1.18l-4.18,6.16C122.97,97.22,122.44,97.32,122.05,97.06z"/>
	</g>
	<g>
		<path class="st15" d="M138.37,116.22c-0.17-0.44,0.04-0.93,0.48-1.1l6.92-2.75c0.44-0.17,0.93,0.04,1.1,0.48
			c0.17,0.44-0.04,0.93-0.48,1.1l-6.92,2.75C139.04,116.87,138.55,116.66,138.37,116.22z"/>
	</g>
	<g>
		<path class="st15" d="M141.32,126.57c-0.03-0.47,0.33-0.87,0.8-0.9l7.43-0.44c0.47-0.03,0.87,0.33,0.9,0.8
			c0.03,0.47-0.33,0.87-0.8,0.9l-7.43,0.44C141.75,127.4,141.34,127.04,141.32,126.57z"/>
	</g>
	<g>
		<path class="st15" d="M141.85,139.15c0.11-0.46,0.57-0.74,1.02-0.63l7.25,1.69c0.46,0.11,0.74,0.57,0.63,1.02
			c-0.11,0.46-0.57,0.74-1.02,0.63l-7.25-1.69C142.03,140.07,141.75,139.61,141.85,139.15z"/>
	</g>
	<g>
		<path class="st15" d="M138.36,150.74c0.26-0.39,0.78-0.5,1.18-0.25l6.24,4.06c0.39,0.26,0.5,0.78,0.25,1.18
			c-0.26,0.39-0.78,0.5-1.18,0.25l-6.24-4.06C138.22,151.66,138.11,151.13,138.36,150.74z"/>
	</g>
	<g>
		<path class="st15" d="M132.01,161.06c0.33-0.33,0.87-0.33,1.2,0l5.27,5.25c0.33,0.33,0.33,0.87,0,1.2s-0.87,0.33-1.2,0l-5.27-5.25
			C131.68,161.93,131.68,161.39,132.01,161.06z"/>
	</g>
	<g>
		<path class="st15" d="M124.32,168.83c0.41-0.23,0.93-0.09,1.16,0.31l3.72,6.44c0.23,0.41,0.09,0.93-0.31,1.16
			c-0.41,0.23-0.93,0.09-1.16-0.31l-3.72-6.44C123.77,169.59,123.91,169.07,124.32,168.83z"/>
	</g>
	<g>
		<path class="st15" d="M112.66,174.29c0.46-0.11,0.92,0.18,1.02,0.63l1.7,7.24c0.11,0.46-0.18,0.92-0.63,1.02
			c-0.46,0.11-0.92-0.18-1.02-0.63l-1.7-7.24C111.92,174.86,112.2,174.4,112.66,174.29z"/>
	</g>
	<g>
		<path class="st15" d="M64.88,175.08c-0.39-0.26-0.49-0.79-0.23-1.18l4.18-6.16c0.26-0.39,0.79-0.49,1.18-0.23
			c0.39,0.26,0.49,0.79,0.23,1.18l-4.18,6.16C65.8,175.24,65.27,175.35,64.88,175.08z"/>
	</g>
	<g>
		<path class="st15" d="M132.2,106.32c-0.27-0.38-0.19-0.91,0.19-1.19l6.03-4.36c0.38-0.27,0.91-0.19,1.19,0.19
			c0.27,0.38,0.19,0.91-0.19,1.19l-6.03,4.36C133.01,106.78,132.48,106.7,132.2,106.32z"/>
	</g>
	<g>
		<path class="st15" d="M54.02,162.91c-0.27-0.38-0.19-0.91,0.19-1.19l6.03-4.36c0.38-0.27,0.91-0.19,1.19,0.19
			c0.27,0.38,0.19,0.91-0.19,1.19l-6.03,4.36C54.82,163.38,54.29,163.29,54.02,162.91z"/>
	</g>
	<g>
		<path class="st15" d="M47.86,148.65c-0.15-0.44,0.09-0.93,0.54-1.08l7.05-2.37c0.44-0.15,0.93,0.09,1.08,0.54
			c0.15,0.44-0.09,0.93-0.54,1.08l-7.05,2.37C48.49,149.33,48.01,149.09,47.86,148.65z"/>
	</g>
	<g>
		<path class="st15" d="M46.21,136.09c-0.02-0.47,0.34-0.87,0.8-0.89l7.43-0.39c0.47-0.02,0.87,0.34,0.89,0.8
			c0.02,0.47-0.34,0.87-0.8,0.89l-7.43,0.39C46.63,136.92,46.23,136.56,46.21,136.09z"/>
	</g>
	<g>
		<path class="st15" d="M47.01,122.76c0.15-0.44,0.64-0.68,1.08-0.53l7.05,2.39c0.44,0.15,0.68,0.64,0.53,1.08s-0.64,0.68-1.08,0.53
			l-7.05-2.39C47.1,123.69,46.86,123.2,47.01,122.76z"/>
	</g>
	<g>
		<path class="st15" d="M51.25,109.97c0.24-0.4,0.77-0.53,1.17-0.29l6.38,3.84c0.4,0.24,0.53,0.77,0.29,1.17
			c-0.24,0.4-0.77,0.53-1.17,0.29l-6.38-3.84C51.14,110.89,51.01,110.37,51.25,109.97z"/>
	</g>
	<g>
		<path class="st15" d="M61.09,96.54c0.34-0.32,0.88-0.31,1.2,0.03l5.13,5.39c0.32,0.34,0.31,0.88-0.03,1.2
			c-0.34,0.32-0.88,0.31-1.2-0.03l-5.13-5.39C60.73,97.4,60.75,96.86,61.09,96.54z"/>
	</g>
	<g>
		<path class="st15" d="M71.99,88.32c0.41-0.22,0.93-0.07,1.15,0.34l3.54,6.55c0.22,0.41,0.07,0.93-0.34,1.15
			c-0.41,0.22-0.93,0.07-1.15-0.34l-3.54-6.55C71.42,89.06,71.58,88.54,71.99,88.32z"/>
	</g>
	<g>
		<path class="st15" d="M84.37,83.03c0.45-0.14,0.93,0.1,1.07,0.55l2.29,7.08c0.14,0.45-0.1,0.93-0.55,1.07
			c-0.45,0.14-0.93-0.1-1.07-0.55l-2.29-7.08C83.68,83.66,83.93,83.18,84.37,83.03z"/>
	</g>
	<g>
		<g>
			<g>
				<path class="st16" d="M17.68,79.16c-1.94,1.22-3.91,2.42-5.63,3.94c-1.31,1.16-2.54,2.71-2.42,4.46
					c0.07,1.02,0.58,1.94,1.11,2.81c1.27,2.1,2.81,3.75,4.33,5.67c0.79,1,1.68,2.01,2.88,2.46c2.03,0.75,4.63-0.56,6.44-1.74
					c4.35-2.85,8.24-6.34,12.11-9.81c1.69-1.52,3.37-3.03,5.06-4.55c3.6-3.23,7.25-6.53,9.79-10.65c0.24-0.39,0.47-0.8,0.51-1.26
					c0.03-0.39-0.08-0.77-0.21-1.13c-1.07-3.14-3.31-6.43-6.2-8.18c-3-1.81-5.25,1.44-7.46,3.24C31.7,69.53,24.55,74.83,17.68,79.16
					z"/>
			</g>
			<g>
				<defs>
					<path id="SVGID_00000121992011679261802930000004677962053318619275_" d="M17.75,79.07c-1.94,1.22-3.91,2.42-5.63,3.94
						c-1.31,1.16-2.54,2.71-2.42,4.46c0.07,1.02,0.58,1.94,1.11,2.81c1.27,2.1,2.81,3.75,4.33,5.67c0.79,1,1.68,2.01,2.88,2.46
						c2.03,0.75,4.63-0.56,6.44-1.74c4.35-2.85,8.24-6.34,12.11-9.81c1.69-1.52,3.37-3.03,5.06-4.55c3.6-3.23,7.25-6.53,9.79-10.65
						c0.24-0.39,0.47-0.8,0.51-1.26c0.03-0.39-0.08-0.77-0.21-1.13c-1.07-3.14-3.31-6.43-6.2-8.18c-3-1.81-5.25,1.44-7.46,3.24
						C31.76,69.44,24.62,74.74,17.75,79.07z"/>
				</defs>
				<clipPath id="SVGID_00000161616026890057249650000017644154384214009271_">
					<use xlink:href="#SVGID_00000121992011679261802930000004677962053318619275_"  style="overflow:visible;"/>
				</clipPath>
				<g style="clip-path:url(#SVGID_00000161616026890057249650000017644154384214009271_);">
					<path class="st18" d="M13.58,86.15c0.53-0.99,1.35-1.62,2.11-2.44c0.54-0.59,1.21-0.88,1.96-1.15s1.43,1.15,1.79,1.86
						c-0.5-0.65-0.13-2.81,0.25-3.53c0.38-0.73,1.02-1.28,1.64-1.81c1.16-0.99,2.32-1.98,3.49-2.98c0.93-0.8,1.89-1.61,3.03-2.05
						c1.14-0.45,2.52-0.48,3.52,0.24c-0.61-0.88-0.81-1.61-0.52-2.64c0.41-1.41,2.18-1.77,3.44-2.51c0.81-0.47,5.51-4.26,7.47-5.56
						c1.01-0.67,1.75-2.31,2.92-2.59c3.34-0.81,6.63,1.28,9.44,3.27c-1.11-2.91-2.84-5.57-5.05-7.77c-0.72-0.72-1.63-1.43-2.64-1.32
						c-0.55,0.06-1.04,0.36-1.5,0.68c-1.18,0.8-2.28,1.71-3.29,2.72c-1.7,1.69-3.15,3.67-5.13,5.01c-1.16,0.79-2.47,1.33-3.66,2.07
						c-1.38,0.86-2.57,1.98-3.8,3.04c-1.79,1.54-3.66,2.98-5.53,4.42c-1.13,0.87-2.26,1.74-3.47,2.48
						c-1.08,0.66-2.22,1.23-3.14,2.09c-1.02,0.97-1.7,2.25-2.73,3.21c-0.75,0.71-1.67,1.22-2.41,1.93
						c-1.58,1.52-2.22,3.88-1.89,6.05c0.31,2.03,1.58,4.63,3.38,5.71C12.6,91.94,12.21,88.7,13.58,86.15z"/>
				</g>
				<g style="clip-path:url(#SVGID_00000161616026890057249650000017644154384214009271_);">
					<path class="st19" d="M35.07,88.23c-0.83-0.18,4.62-6.05,3.98-6.47c-0.55-0.36-1.63-1.98-2.11-2.1
						c2.63,0.66,5.94-0.9,7.87-2.96c1.27-1.36,1.87-1.87,3.1-3.24c-0.4-0.27-0.84-0.49-1.28-0.72c1.37,0.06,2.94-0.47,3.44-1.75
						c0.4-1.03-0.06-1.87-0.25-2.85c-0.22-1.09,0.12-2.87-0.38-3.84c1.33,2.58,3.69,4.61,6.44,5.54c-2.21,3.31-5.15,6.04-8.07,8.74
						c-1.44,1.33-3.76,4.31-5.77,4.33C41.83,82.91,35.28,88.28,35.07,88.23z"/>
				</g>
			</g>
			<g>
				<path class="st20" d="M17.6,81.62l8.59,10.55l-1.53,1.25c-1.41,1.15-3.18,1.68-4.99,1.49c-1.81-0.19-3.44-1.07-4.58-2.47
					c-1.15-1.41-1.68-3.18-1.49-4.99c0.19-1.81,1.06-3.44,2.47-4.58L17.6,81.62z M24.87,92.04l-7.4-9.09l-0.8,0.65
					c-2.51,2.04-2.89,5.74-0.85,8.25c0.99,1.21,2.39,1.97,3.95,2.13c1.56,0.16,3.08-0.3,4.3-1.29L24.87,92.04z"/>
			</g>
			<g>
				<path class="st20" d="M48.12,62.55c1.74,1.74,3.21,4.08,4.06,6.56c0.13,0.39,0.27,0.84,0.23,1.33
					c-0.05,0.56-0.31,1.03-0.58,1.47c-2.59,4.21-6.3,7.54-9.88,10.75l-5.06,4.55c-3.82,3.43-7.78,6.98-12.17,9.86
					c-2.8,1.83-5.11,2.43-6.86,1.79c-1.32-0.49-2.29-1.6-3.08-2.6c-0.4-0.51-0.82-1.01-1.22-1.49c-1.13-1.37-2.21-2.67-3.15-4.23
					c-0.56-0.92-1.1-1.91-1.18-3.03c-0.11-1.6,0.76-3.23,2.58-4.85c1.6-1.42,3.43-2.56,5.19-3.67l0.49-0.31l0.25,0.4l-0.25-0.4
					c7.95-5,15.41-10.76,20.27-14.71c0.42-0.34,0.85-0.74,1.3-1.16c1.87-1.76,3.99-3.75,6.7-2.11
					C46.59,61.18,47.38,61.81,48.12,62.55z M16.54,96.84c0.49,0.49,1.02,0.9,1.65,1.12c1.82,0.67,4.28-0.55,6.02-1.69
					c4.33-2.83,8.26-6.36,12.05-9.77l5.06-4.55c3.53-3.17,7.18-6.45,9.7-10.54c0.22-0.35,0.41-0.7,0.44-1.05
					c0.02-0.3-0.08-0.63-0.18-0.94c-1.14-3.34-3.44-6.38-6-7.93c-2.1-1.27-3.78,0.31-5.57,1.99c-0.44,0.41-0.9,0.84-1.35,1.21
					C33.48,68.66,25.98,74.44,18,79.47l0,0l-0.49,0.31c-1.74,1.09-3.53,2.22-5.07,3.58c-1.59,1.41-2.35,2.78-2.26,4.08
					c0.06,0.91,0.55,1.78,1.04,2.6c0.91,1.51,1.96,2.78,3.07,4.12c0.4,0.49,0.82,0.99,1.23,1.5C15.84,96.06,16.17,96.47,16.54,96.84
					z"/>
			</g>
			<g>
				<g>
					<path class="st20" d="M26.63,86c-0.86-1.11-1.73-2.21-2.59-3.32c-0.16-0.2-0.5-0.16-0.67,0c-0.2,0.2-0.16,0.47,0,0.67
						c0.86,1.11,1.73,2.21,2.59,3.32c0.16,0.2,0.5,0.16,0.67,0C26.83,86.47,26.79,86.2,26.63,86L26.63,86z"/>
				</g>
			</g>
			<g>
				<g>
					<path class="st20" d="M27.38,83.96c-0.37-0.46-0.73-0.92-1.1-1.38c-0.07-0.09-0.23-0.14-0.33-0.14c-0.12,0-0.25,0.05-0.33,0.14
						c-0.08,0.09-0.14,0.21-0.14,0.33c0.01,0.13,0.06,0.23,0.14,0.33c0.37,0.46,0.73,0.92,1.1,1.38c0.07,0.09,0.23,0.14,0.33,0.14
						c0.12,0,0.25-0.05,0.33-0.14c0.08-0.09,0.14-0.21,0.14-0.33C27.51,84.16,27.46,84.06,27.38,83.96L27.38,83.96z"/>
				</g>
			</g>
			<g>
				<g>
					<path class="st20" d="M36.48,77.48c-1.04-0.96-2-2.01-2.87-3.12c-0.16-0.2-0.5-0.16-0.67,0c-0.2,0.2-0.16,0.47,0,0.67
						c0.87,1.12,1.83,2.16,2.87,3.12C36.25,78.55,36.92,77.89,36.48,77.48L36.48,77.48z"/>
				</g>
			</g>
			<g>
				<g>
					<path class="st20" d="M37.7,76.6c-1.39-1.51-2.64-3.15-3.73-4.89c-0.32-0.51-1.14-0.05-0.82,0.47
						c1.14,1.81,2.44,3.52,3.89,5.09C37.44,77.71,38.11,77.05,37.7,76.6L37.7,76.6z"/>
				</g>
			</g>
		</g>
		<g>
			<g>
				<path class="st16" d="M27.85,99.37c-2.09,2.12-4.22,4.22-5.94,6.64c-1.31,1.86-2.4,4.18-1.73,6.35
					c0.39,1.26,1.32,2.28,2.24,3.22c2.23,2.27,4.66,3.91,7.16,5.88c1.3,1.03,2.72,2.05,4.36,2.25c2.78,0.34,5.69-2.08,7.62-4.11
					c4.65-4.89,8.53-10.45,12.38-15.99c1.68-2.42,3.36-4.83,5.04-7.25c3.59-5.15,7.22-10.4,9.2-16.36c0.19-0.56,0.36-1.15,0.27-1.74
					c-0.07-0.5-0.33-0.95-0.6-1.37c-2.29-3.65-6.1-7.14-10.26-8.49c-4.32-1.4-6.2,3.38-8.46,6.31
					C42.7,83.05,35.25,91.86,27.85,99.37z"/>
			</g>
			<g>
				<defs>
					<path id="SVGID_00000016779664861608364150000008473757851217859456_" d="M27.91,99.24c-2.09,2.12-4.22,4.22-5.94,6.64
						c-1.31,1.86-2.4,4.18-1.73,6.35c0.39,1.26,1.32,2.28,2.24,3.22c2.23,2.27,4.66,3.91,7.16,5.88c1.3,1.03,2.72,2.05,4.36,2.25
						c2.78,0.34,5.69-2.08,7.62-4.11c4.65-4.89,8.53-10.45,12.38-15.99c1.68-2.42,3.36-4.83,5.04-7.25
						c3.59-5.15,7.22-10.4,9.2-16.36c0.19-0.56,0.36-1.15,0.27-1.74c-0.07-0.5-0.33-0.95-0.6-1.37c-2.29-3.65-6.1-7.14-10.26-8.49
						c-4.32-1.4-6.2,3.38-8.46,6.31C42.76,82.91,35.31,91.73,27.91,99.24z"/>
				</defs>
				<clipPath id="SVGID_00000062183723156874012140000006987724848134931847_">
					<use xlink:href="#SVGID_00000016779664861608364150000008473757851217859456_"  style="overflow:visible;"/>
				</clipPath>
				<g style="clip-path:url(#SVGID_00000062183723156874012140000006987724848134931847_);">
					<path class="st18" d="M24.75,109.42c0.37-1.4,1.22-2.45,1.94-3.71c0.51-0.9,1.27-1.47,2.14-2.03c0.87-0.56,2.15,1.03,2.81,1.82
						c-0.82-0.67-1-3.51-0.73-4.54c0.27-1.03,0.91-1.91,1.54-2.77c1.17-1.6,2.35-3.2,3.52-4.8c0.94-1.28,1.91-2.59,3.21-3.49
						c1.31-0.9,3.04-1.35,4.51-0.74c-1.03-0.94-1.51-1.8-1.44-3.18c0.09-1.9,2.22-2.89,3.6-4.2c0.88-0.84,5.7-7.02,7.79-9.24
						c1.07-1.14,1.53-3.44,2.92-4.15c3.99-2.01,8.76-0.35,12.9,1.32c-2.27-3.34-5.25-6.2-8.69-8.31c-1.13-0.69-2.49-1.33-3.73-0.88
						c-0.68,0.24-1.21,0.77-1.7,1.3c-1.25,1.36-2.38,2.84-3.35,4.41c-1.64,2.64-2.88,5.57-4.99,7.86c-1.23,1.34-2.73,2.42-4.01,3.71
						c-1.48,1.5-2.66,3.26-3.9,4.97c-1.8,2.48-3.74,4.86-5.68,7.23c-1.17,1.43-2.34,2.87-3.65,4.17c-1.16,1.15-2.45,2.21-3.35,3.58
						c-1.01,1.52-1.48,3.35-2.49,4.87c-0.74,1.11-1.75,2.03-2.47,3.16c-1.55,2.39-1.66,5.56-0.59,8.2c1,2.47,3.38,5.38,5.96,6.21
						C25.23,117.03,23.78,113.05,24.75,109.42z"/>
				</g>
				<g style="clip-path:url(#SVGID_00000062183723156874012140000006987724848134931847_);">
					<path class="st19" d="M52.52,105.67c-1.11,0.02,4.03-9.02,3.11-9.36c-0.8-0.29-2.65-2.01-3.29-2.02
						c3.52,0.05,7.24-2.9,9.06-6.08c1.2-2.1,1.81-2.92,2.95-5.02c-0.59-0.22-1.21-0.37-1.83-0.53c1.75-0.34,3.58-1.47,3.82-3.24
						c0.2-1.42-0.63-2.34-1.17-3.52c-0.59-1.31-0.71-3.66-1.63-4.73c2.45,2.86,6.04,4.72,9.79,5.08c-1.8,4.84-4.72,9.17-7.6,13.45
						c-1.43,2.11-3.46,6.56-6,7.18C59.48,96.94,52.8,105.66,52.52,105.67z"/>
				</g>
			</g>
			<g>
				<path class="st20" d="M42.28,113.31l-2.22,2.88c-1.22,1.58-2.98,2.6-4.97,2.85c-1.98,0.26-3.95-0.27-5.53-1.49l-1.91-1.47
					c-1.58-1.22-2.6-2.98-2.85-4.97c-0.26-1.98,0.27-3.95,1.49-5.53l2.22-2.88L42.28,113.31z M27.59,114.76
					c0.2,0.2,0.41,0.39,0.64,0.56l1.91,1.47c1.38,1.07,3.1,1.53,4.83,1.31c1.73-0.22,3.27-1.11,4.34-2.49l1.64-2.13l-12.27-9.46
					l-1.64,2.13c-1.07,1.38-1.53,3.1-1.31,4.83C25.92,112.44,26.57,113.75,27.59,114.76z"/>
			</g>
			<g>
				<path class="st20" d="M65.16,72.55c1.19,1.19,2.27,2.53,3.16,3.96c0.28,0.44,0.58,0.96,0.67,1.55c0.1,0.69-0.09,1.35-0.29,1.96
					c-2.02,6.07-5.7,11.36-9.26,16.48l-5.04,7.25c-3.81,5.47-7.74,11.12-12.43,16.05c-2.96,3.11-5.66,4.54-8.02,4.25
					c-1.78-0.22-3.31-1.32-4.6-2.34c-0.66-0.52-1.33-1.03-1.98-1.52c-1.84-1.39-3.57-2.71-5.22-4.4c-0.96-0.98-1.94-2.06-2.35-3.42
					c-0.6-1.95,0.01-4.23,1.8-6.77c1.59-2.26,3.56-4.24,5.46-6.17l0.53-0.54c8.56-8.69,16.28-18.18,21.25-24.62
					c0.44-0.57,0.86-1.2,1.3-1.86c1.82-2.74,3.87-5.84,7.68-4.6C60.36,68.65,62.95,70.34,65.16,72.55z M23,115.32
					c1.55,1.55,3.2,2.8,4.93,4.11c0.65,0.49,1.32,1,2,1.53c1.25,0.98,2.59,1.96,4.13,2.15c2.55,0.31,5.34-1.99,7.22-3.97
					c4.64-4.87,8.55-10.5,12.34-15.94l5.04-7.25c3.52-5.06,7.17-10.3,9.14-16.24c0.18-0.53,0.33-1.04,0.25-1.52
					c-0.06-0.42-0.3-0.82-0.53-1.19c-2.45-3.91-6.29-7.09-10.01-8.29c-3.13-1.01-4.82,1.53-6.61,4.23
					c-0.43,0.65-0.88,1.33-1.34,1.92c-4.99,6.46-12.74,15.98-21.33,24.7l-0.53,0.54c-1.87,1.9-3.81,3.86-5.36,6.05
					c-1.62,2.29-2.18,4.29-1.67,5.94c0.36,1.16,1.25,2.13,2.13,3.03C22.88,115.19,22.94,115.26,23,115.32z"/>
			</g>
			<g>
				<g>
					<path class="st20" d="M41.2,105.54c-1.42-1.14-2.84-2.28-4.26-3.43c-0.2-0.16-0.47-0.19-0.67,0c-0.17,0.17-0.2,0.51,0,0.67
						c1.42,1.14,2.84,2.28,4.26,3.43c0.2,0.16,0.47,0.19,0.67,0C41.37,106.04,41.4,105.7,41.2,105.54L41.2,105.54z"/>
				</g>
			</g>
			<g>
				<g>
					<path class="st20" d="M41.54,102.74c-0.6-0.47-1.2-0.94-1.79-1.42c-0.19-0.15-0.48-0.2-0.67,0c-0.16,0.17-0.21,0.5,0,0.67
						c0.6,0.47,1.2,0.94,1.79,1.42c0.19,0.15,0.48,0.2,0.67,0C41.7,103.23,41.75,102.9,41.54,102.74L41.54,102.74z"/>
				</g>
			</g>
			<g>
				<g>
					<path class="st20" d="M51.01,91.77c-1.56-0.89-3.05-1.89-4.45-3.02c-0.2-0.16-0.47-0.19-0.67,0c-0.17,0.17-0.2,0.51,0,0.67
						c1.47,1.18,3.02,2.24,4.65,3.17C51.07,92.89,51.54,92.07,51.01,91.77L51.01,91.77z"/>
				</g>
			</g>
			<g>
				<g>
					<path class="st20" d="M52.29,90.3c-2.22-1.5-4.29-3.21-6.19-5.1c-0.43-0.43-1.1,0.24-0.67,0.67c1.96,1.94,4.11,3.7,6.4,5.25
						c0.21,0.14,0.52,0.03,0.64-0.18C52.6,90.71,52.5,90.45,52.29,90.3L52.29,90.3z"/>
				</g>
			</g>
		</g>
		<g>
			<g>
				<path class="st16" d="M46.86,122.77c-1.82,3.18-3.69,6.34-4.97,9.77c-0.98,2.63-1.54,5.73-0.06,8.1
					c0.86,1.38,2.28,2.3,3.68,3.13c3.36,2,6.78,3.18,10.37,4.74c1.87,0.81,3.88,1.58,5.9,1.3c3.42-0.47,6.11-4.26,7.77-7.29
					c3.99-7.28,6.85-15.12,9.69-22.92c1.24-3.4,2.48-6.81,3.72-10.21c2.64-7.26,5.32-14.65,5.8-22.36c0.05-0.73,0.07-1.49-0.22-2.16
					c-0.25-0.57-0.69-1.02-1.14-1.44c-3.87-3.62-9.5-6.57-14.88-6.87c-5.58-0.31-6.31,5.97-8.08,10.17
					C59.39,98.69,53.3,111.52,46.86,122.77z"/>
			</g>
			<g>
				<defs>
					<path id="SVGID_00000032641890666625955980000002702869818794295707_" d="M46.89,122.6c-1.82,3.18-3.69,6.34-4.97,9.77
						c-0.98,2.63-1.54,5.73-0.06,8.1c0.86,1.38,2.28,2.3,3.68,3.13c3.36,2,6.78,3.18,10.37,4.74c1.87,0.81,3.88,1.58,5.9,1.3
						c3.42-0.47,6.11-4.26,7.77-7.29c3.99-7.28,6.85-15.12,9.69-22.92c1.24-3.4,2.48-6.81,3.72-10.21
						c2.64-7.26,5.32-14.65,5.8-22.36c0.05-0.73,0.07-1.49-0.22-2.16c-0.25-0.57-0.69-1.02-1.14-1.44
						c-3.87-3.62-9.5-6.57-14.88-6.87c-5.58-0.31-6.31,5.97-8.08,10.17C59.41,98.51,53.32,111.34,46.89,122.6z"/>
				</defs>
				<clipPath id="SVGID_00000116927249016413880990000008718513668331698322_">
					<use xlink:href="#SVGID_00000032641890666625955980000002702869818794295707_"  style="overflow:visible;"/>
				</clipPath>
				<g style="clip-path:url(#SVGID_00000116927249016413880990000008718513668331698322_);">
					<path class="st18" d="M46.33,135.71c0-1.78,0.68-3.3,1.14-5.02c0.32-1.23,1.04-2.15,1.91-3.09c0.86-0.94,2.88,0.55,3.92,1.29
						c-1.19-0.54-2.29-3.86-2.3-5.17c-0.01-1.31,0.48-2.56,0.96-3.78c0.89-2.27,1.78-4.54,2.68-6.81c0.72-1.82,1.45-3.68,2.72-5.17
						c1.27-1.49,3.2-2.56,5.13-2.3c-1.52-0.79-2.36-1.66-2.71-3.34c-0.49-2.29,1.74-4.13,2.96-6.13c0.78-1.28,4.57-10.14,6.35-13.44
						c0.92-1.69,0.73-4.57,2.17-5.85c4.11-3.65,10.31-3.18,15.76-2.49c-3.75-3.26-8.19-5.72-12.95-7.15
						c-1.56-0.47-3.37-0.8-4.72,0.12c-0.73,0.5-1.2,1.3-1.61,2.08c-1.06,2.01-1.93,4.13-2.6,6.31c-1.12,3.66-1.68,7.54-3.46,10.92
						c-1.05,1.98-2.48,3.73-3.6,5.67c-1.29,2.25-2.14,4.72-3.07,7.14c-1.36,3.52-2.92,6.95-4.47,10.39
						c-0.94,2.07-1.88,4.15-3.03,6.11c-1.02,1.74-2.21,3.4-2.86,5.31c-0.72,2.13-0.71,4.45-1.43,6.58
						c-0.53,1.56-1.44,2.97-1.95,4.53c-1.09,3.33-0.22,7.13,1.88,9.94c1.96,2.63,5.71,5.33,9.05,5.51
						C49.31,144.6,46.32,140.34,46.33,135.71z"/>
				</g>
				<g style="clip-path:url(#SVGID_00000116927249016413880990000008718513668331698322_);">
					<path class="st19" d="M78.18,122.5c-1.31,0.38,1.96-12,0.75-12.11c-1.05-0.1-3.78-1.56-4.55-1.37c4.2-1.05,7.7-5.73,8.86-10.08
						c0.77-2.88,1.24-4.04,1.93-6.9c-0.77-0.08-1.55-0.06-2.34-0.05c1.98-0.95,3.79-2.87,3.53-5.05c-0.21-1.76-1.49-2.59-2.5-3.83
						c-1.12-1.37-1.99-4.13-3.42-5.12c3.82,2.63,8.67,3.72,13.24,2.96c-0.62,6.32-2.72,12.39-4.81,18.39
						c-1.03,2.96-2.05,8.89-4.87,10.43C83.72,109.92,78.52,122.4,78.18,122.5z"/>
				</g>
			</g>
			<g>
				<path class="st20" d="M68.27,134.87l-2.32,5.51c-0.77,1.84-2.22,3.27-4.07,4.03c-1.85,0.76-3.88,0.74-5.73-0.03l-5.72-2.4
					c-1.84-0.77-3.27-2.22-4.03-4.07c-0.76-1.85-0.74-3.88,0.03-5.73l2.32-5.51L68.27,134.87z M48.71,139.71
					c0.59,0.59,1.3,1.07,2.09,1.4l5.72,2.4c1.61,0.68,3.39,0.69,5.01,0.03c1.62-0.66,2.88-1.91,3.56-3.52l1.95-4.64l-17.78-7.47
					l-1.95,4.64c-0.68,1.61-0.69,3.39-0.03,5.01C47.62,138.38,48.1,139.1,48.71,139.71z"/>
			</g>
			<g>
				<path class="st20" d="M88.04,83.22c0.36,0.36,0.72,0.79,0.95,1.3c0.33,0.76,0.31,1.59,0.26,2.37
					c-0.49,7.84-3.2,15.29-5.82,22.49l-3.72,10.21c-2.8,7.7-5.7,15.66-9.72,22.99c-2.52,4.6-5.26,7.13-8.12,7.53
					c-2.16,0.3-4.22-0.5-6.15-1.33c-0.96-0.42-1.91-0.81-2.84-1.19c-2.62-1.08-5.09-2.09-7.58-3.58c-1.44-0.86-2.93-1.82-3.84-3.29
					c-1.31-2.1-1.3-4.97,0.02-8.52c1.18-3.18,2.89-6.15,4.54-9.04l0.46-0.81c7.45-13.03,13.65-26.76,17.54-35.99
					c0.34-0.81,0.64-1.7,0.96-2.63c1.29-3.79,2.74-8.08,7.58-7.82c5.04,0.28,10.86,2.96,15.18,7
					C87.84,83.02,87.94,83.11,88.04,83.22z M43.08,141.25c0.77,0.77,1.74,1.38,2.7,1.95c2.43,1.45,4.87,2.45,7.46,3.52
					c0.93,0.38,1.89,0.78,2.85,1.2c1.81,0.78,3.73,1.53,5.65,1.26c3.18-0.44,5.79-4.07,7.42-7.05c3.99-7.27,6.87-15.19,9.67-22.86
					l3.72-10.21c2.6-7.14,5.29-14.52,5.77-22.23c0.04-0.7,0.06-1.37-0.19-1.94c-0.21-0.49-0.63-0.91-1.03-1.28
					c-4.17-3.89-9.76-6.48-14.59-6.74c-4.12-0.23-5.4,3.54-6.64,7.18c-0.31,0.91-0.63,1.85-0.99,2.7
					c-3.9,9.25-10.12,23.02-17.59,36.09l-0.46,0.81c-1.63,2.85-3.32,5.79-4.48,8.9c-1.21,3.26-1.25,5.85-0.1,7.69
					C42.49,140.6,42.76,140.93,43.08,141.25z"/>
			</g>
			<g>
				<g>
					<path class="st20" d="M64.63,126.01c-2.05-0.91-4.1-1.82-6.14-2.74c-0.23-0.1-0.51-0.06-0.64,0.18
						c-0.12,0.2-0.06,0.54,0.18,0.64c2.05,0.91,4.1,1.82,6.14,2.74c0.23,0.1,0.51,0.06,0.64-0.18
						C64.92,126.45,64.86,126.11,64.63,126.01L64.63,126.01z"/>
				</g>
			</g>
			<g>
				<g>
					<path class="st20" d="M64.15,122.56c-0.86-0.37-1.72-0.75-2.58-1.12c-0.23-0.1-0.52-0.07-0.64,0.18
						c-0.11,0.21-0.06,0.54,0.18,0.64c0.86,0.37,1.72,0.75,2.58,1.12c0.23,0.1,0.52,0.07,0.64-0.18
						C64.43,123,64.39,122.67,64.15,122.56L64.15,122.56z"/>
				</g>
			</g>
			<g>
				<g>
					<path class="st20" d="M71.99,106.55c-2.15-0.57-4.25-1.3-6.28-2.2c-0.23-0.1-0.51-0.06-0.64,0.18
						c-0.12,0.2-0.06,0.54,0.18,0.64c2.1,0.94,4.28,1.7,6.5,2.29C72.33,107.62,72.58,106.71,71.99,106.55L71.99,106.55z"/>
				</g>
			</g>
			<g>
				<g>
					<path class="st20" d="M73.05,104.4c-3.12-1.09-6.14-2.48-9-4.13c-0.53-0.3-0.99,0.52-0.47,0.82c2.94,1.69,6.03,3.1,9.23,4.22
						c0.24,0.08,0.51-0.1,0.58-0.34C73.46,104.71,73.29,104.49,73.05,104.4L73.05,104.4z"/>
				</g>
			</g>
		</g>
		<g>
			<g>
				<path class="st16" d="M81.57,133.23c-0.57,3.61-1.2,7.24-1.18,10.89c0.02,2.8,0.59,5.9,2.82,7.59c1.29,0.98,2.95,1.34,4.55,1.62
					c3.85,0.68,7.46,0.57,11.36,0.75c2.04,0.1,4.18,0.1,5.97-0.88c3.03-1.65,4.2-6.15,4.67-9.56c1.15-8.22,1.04-16.55,0.93-24.85
					c-0.05-3.62-0.1-7.24-0.15-10.85c-0.1-7.72-0.23-15.57-2.52-22.94c-0.22-0.7-0.47-1.41-0.97-1.94
					c-0.43-0.44-1.01-0.71-1.58-0.94c-4.9-2.01-11.2-2.77-16.34-1.14c-5.32,1.69-3.78,7.81-3.94,12.36
					C84.72,106.28,83.58,120.43,81.57,133.23z"/>
			</g>
			<g>
				<defs>
					<path id="SVGID_00000153681756677194315520000015273056763921685638_" d="M81.53,133.05c-0.57,3.61-1.2,7.24-1.18,10.89
						c0.02,2.8,0.59,5.9,2.82,7.59c1.29,0.98,2.95,1.34,4.55,1.62c3.85,0.68,7.46,0.57,11.36,0.75c2.04,0.1,4.18,0.1,5.97-0.88
						c3.03-1.65,4.2-6.15,4.67-9.56c1.15-8.22,1.04-16.55,0.93-24.85c-0.05-3.62-0.1-7.24-0.15-10.85
						c-0.1-7.72-0.23-15.57-2.52-22.94c-0.22-0.7-0.47-1.41-0.97-1.94c-0.43-0.44-1.01-0.71-1.58-0.94
						c-4.9-2.01-11.2-2.77-16.34-1.14c-5.32,1.69-3.78,7.81-3.94,12.36C84.68,106.11,83.55,120.26,81.53,133.05z"/>
				</defs>
				<clipPath id="SVGID_00000012458799842096126460000001278553119769907842_">
					<use xlink:href="#SVGID_00000153681756677194315520000015273056763921685638_"  style="overflow:visible;"/>
				</clipPath>
				<g style="clip-path:url(#SVGID_00000012458799842096126460000001278553119769907842_);">
					<path class="st18" d="M85.66,145.5c-0.63-1.67-0.53-3.32-0.72-5.1c-0.14-1.27,0.21-2.38,0.68-3.56
						c0.48-1.18,2.88-0.51,4.12-0.19c-1.3-0.08-3.51-2.79-3.98-4.01c-0.47-1.22-0.46-2.56-0.45-3.87c0.03-2.44,0.06-4.87,0.08-7.31
						c0.02-1.95,0.05-3.95,0.71-5.79c0.66-1.84,2.08-3.53,3.98-3.97c-1.7-0.2-2.79-0.72-3.71-2.15c-1.27-1.97,0.16-4.48,0.59-6.77
						c0.28-1.47,0.67-11.09,1.17-14.81c0.26-1.91-0.94-4.53-0.05-6.24c2.54-4.87,8.51-6.62,13.84-7.91
						c-4.66-1.72-9.68-2.44-14.63-2.09c-1.62,0.11-3.43,0.45-4.36,1.79c-0.5,0.73-0.66,1.64-0.76,2.51
						c-0.28,2.26-0.34,4.54-0.19,6.81c0.25,3.82,1.11,7.63,0.64,11.43c-0.27,2.22-0.99,4.37-1.35,6.58
						c-0.41,2.56-0.32,5.16-0.34,7.75c-0.02,3.77-0.26,7.53-0.5,11.29c-0.14,2.27-0.29,4.54-0.67,6.78
						c-0.34,1.98-0.86,3.96-0.78,5.97c0.09,2.24,0.91,4.41,0.99,6.65c0.06,1.64-0.29,3.28-0.21,4.93c0.16,3.5,2.32,6.74,5.28,8.62
						c2.77,1.76,7.22,2.95,10.41,1.94C91.59,152.75,87.29,149.83,85.66,145.5z"/>
				</g>
				<g style="clip-path:url(#SVGID_00000012458799842096126460000001278553119769907842_);">
					<path class="st19" d="M110.72,121.86c-1.09,0.82-2.43-11.9-3.6-11.58c-1.01,0.28-4.09-0.12-4.73,0.33
						c3.55-2.47,5.16-8.08,4.7-12.56c-0.3-2.96-0.28-4.21-0.65-7.13c-0.74,0.2-1.47,0.5-2.2,0.78c1.51-1.59,2.52-4.03,1.5-5.97
						c-0.82-1.57-2.31-1.89-3.69-2.69c-1.53-0.88-3.33-3.15-5.02-3.57c4.5,1.11,9.41,0.4,13.42-1.93
						c1.66,6.12,1.85,12.54,2.03,18.88c0.09,3.14,1.24,9.04-0.85,11.47C111.44,108.15,111,121.65,110.72,121.86z"/>
				</g>
			</g>
			<g>
				<path class="st20" d="M105.86,136.94l-0.18,5.23c-0.16,4.53-3.97,8.08-8.5,7.92l-4.72-0.16c-4.53-0.16-8.08-3.97-7.92-8.5
					l0.18-5.23L105.86,136.94z M87.61,146.86c1.26,1.26,2.97,2.06,4.88,2.13l4.72,0.17c4.01,0.14,7.38-3.01,7.52-7.01l0.15-4.29
					l-19.25-0.67l-0.15,4.29C85.4,143.56,86.23,145.48,87.61,146.86z"/>
			</g>
			<g>
				<path class="st20" d="M107.32,82.52c0.01,0.01,0.02,0.02,0.03,0.03c0.58,0.6,0.85,1.38,1.09,2.12
					c2.32,7.5,2.43,15.42,2.54,23.07l0.15,10.85c0.11,8.19,0.23,16.65-0.93,24.92c-0.73,5.19-2.38,8.53-4.91,9.91
					c-1.91,1.04-4.12,1.03-6.22,0.94c-1.04-0.05-2.07-0.08-3.07-0.1c-2.83-0.08-5.5-0.15-8.35-0.65c-1.65-0.29-3.38-0.66-4.75-1.71
					c-1.97-1.5-2.98-4.18-3-7.96c-0.02-3.39,0.52-6.77,1.04-10.05l0.15-0.92c2.33-14.81,3.25-29.84,3.62-39.84
					c0.03-0.88,0-1.82-0.04-2.8c-0.14-4-0.3-8.52,4.31-9.99c4.81-1.53,11.19-1.09,16.66,1.15
					C106.18,81.73,106.82,82.02,107.32,82.52z M82.94,150.71c0.16,0.16,0.33,0.31,0.52,0.45c1.2,0.92,2.81,1.26,4.34,1.53
					c2.79,0.49,5.42,0.56,8.22,0.64c1,0.03,2.04,0.06,3.09,0.1c1.97,0.09,4.03,0.1,5.72-0.82c2.81-1.54,3.96-5.86,4.43-9.22
					c1.15-8.2,1.03-16.63,0.92-24.78l-0.15-10.85c-0.1-7.59-0.21-15.44-2.49-22.81c-0.2-0.64-0.43-1.3-0.86-1.75
					c-0.37-0.38-0.91-0.62-1.42-0.83c-5.27-2.16-11.41-2.59-16.02-1.13c-3.93,1.25-3.79,5.22-3.65,9.06
					c0.03,0.96,0.07,1.95,0.04,2.87c-0.36,10.02-1.29,25.09-3.63,39.95l-0.15,0.92c-0.52,3.24-1.05,6.59-1.03,9.9
					C80.84,147.06,81.56,149.33,82.94,150.71z"/>
			</g>
			<g>
				<g>
					<path class="st20" d="M99.24,129.94c-2.24-0.13-4.47-0.25-6.71-0.38c-0.61-0.03-0.6,0.91,0,0.94c2.24,0.13,4.47,0.25,6.71,0.38
						C99.84,130.92,99.84,129.97,99.24,129.94L99.24,129.94z"/>
				</g>
			</g>
			<g>
				<g>
					<path class="st20" d="M97.57,126.89c-0.94-0.04-1.87-0.09-2.81-0.13c-0.25-0.01-0.48,0.23-0.47,0.47
						c0.01,0.27,0.21,0.46,0.47,0.47c0.94,0.04,1.87,0.09,2.81,0.13c0.25,0.01,0.48-0.23,0.47-0.47
						C98.03,127.1,97.83,126.91,97.57,126.89L97.57,126.89z"/>
				</g>
			</g>
			<g>
				<g>
					<path class="st20" d="M99.33,109.16c-2.25,0.24-4.51,0.29-6.77,0.17c-0.61-0.03-0.6,0.91,0,0.94c2.26,0.13,4.52,0.07,6.77-0.17
						c0.25-0.03,0.47-0.2,0.47-0.47C99.8,109.4,99.59,109.13,99.33,109.16L99.33,109.16z"/>
				</g>
			</g>
			<g>
				<g>
					<path class="st20" d="M99.56,106.77c-3.3,0.09-6.61-0.13-9.88-0.65c-0.25-0.04-0.51,0.07-0.58,0.34
						c-0.06,0.23,0.08,0.54,0.34,0.58c3.34,0.54,6.73,0.77,10.12,0.68C100.17,107.7,100.17,106.76,99.56,106.77L99.56,106.77z"/>
				</g>
			</g>
		</g>
		<g>
			<path class="st16" d="M125.86,40.63c1.63,1.73,2.56,4.22,3.49,6.37c0.93,2.15,2.18,3.97,2.71,6.27c0.58,2.51,0.77,5.09,1.49,7.57
				c0.76,2.59,2.09,5.01,3.87,7.04c1.56,1.78,3.76,2.59,5.68,3.96c1.85,1.33,3.61,3.23,3.53,5.5c-0.1,2.68-2.64,5.66-4.32,7.61
				c-3.5,4.08-8.72,3.72-13.19,1.67c-4.05-1.85-7.97-6.19-9.97-10.13c-4.19-8.25-0.23-16.02,2.82-23.84
				c1.09-2.78,1.65-5.45,2.35-8.34C124.69,42.85,125.33,41.94,125.86,40.63z"/>
		</g>
		<g>
			<defs>
				<path id="SVGID_00000066497356704662710260000007110070168680806045_" d="M125.86,40.63c1.63,1.73,2.56,4.22,3.49,6.37
					c0.93,2.15,2.18,3.97,2.71,6.27c0.58,2.51,0.77,5.09,1.49,7.57c0.76,2.59,2.09,5.01,3.87,7.04c1.56,1.78,3.76,2.59,5.68,3.96
					c1.85,1.33,3.61,3.23,3.53,5.5c-0.1,2.68-2.64,5.66-4.32,7.61c-3.5,4.08-8.72,3.72-13.19,1.67c-4.05-1.85-7.97-6.19-9.97-10.13
					c-4.19-8.25-0.23-16.02,2.82-23.84c1.09-2.78,1.65-5.45,2.35-8.34C124.69,42.85,125.33,41.94,125.86,40.63z"/>
			</defs>
			<clipPath id="SVGID_00000111158512886083168930000017583814129933191612_">
				<use xlink:href="#SVGID_00000066497356704662710260000007110070168680806045_"  style="overflow:visible;"/>
			</clipPath>
			<g style="clip-path:url(#SVGID_00000111158512886083168930000017583814129933191612_);">
				<path class="st19" d="M125.58,57.99c-0.07,0.56-0.08,1.34,0.48,1.46c0.25,0.06,0.5-0.07,0.72-0.19c0.94-0.53,1.84-1.11,2.7-1.76
					c-0.96,1.52-1.96,3.14-2.02,4.94c-0.07,2.12,1.18,4.04,2.37,5.79c0.86,1.27,1.74,2.55,2.91,3.55c1.8,1.54,4.13,2.28,6.22,3.39
					c3.06,1.63,5.74,4.28,6.59,7.64c2.08-0.05,3.93-1.63,4.7-3.57c0.76-1.94,0.58-4.15-0.1-6.12c-0.67-1.97-1.79-3.76-2.9-5.52
					c-0.69-1.1-1.39-2.21-2.08-3.31c-0.65-1.03-1.3-2.07-2.08-3c-1.24-1.49-2.78-2.7-4.1-4.12c-1.23-1.32-2.27-2.8-3.3-4.28
					c-3.32-4.75-6.64-9.5-9.95-14.26c-1.6,2.42-2.66,5.19-3.09,8.06c-0.14,0.97-0.85,2.27-0.82,3.2c0.04,1.13,0.68,1.28,1.46,2.04
					C124.91,53.5,125.86,55.74,125.58,57.99z"/>
			</g>
		</g>
		<g>
			<path class="st20" d="M125.7,39.77l0.5,0.53c1.48,1.58,2.41,3.76,3.23,5.69c0.12,0.28,0.23,0.55,0.35,0.82
				c0.3,0.7,0.65,1.38,0.99,2.04c0.68,1.34,1.39,2.72,1.75,4.31c0.25,1.07,0.43,2.17,0.6,3.23c0.23,1.43,0.48,2.91,0.89,4.32
				c0.73,2.5,2.04,4.87,3.77,6.86c0.96,1.09,2.18,1.8,3.46,2.55c0.71,0.41,1.44,0.84,2.13,1.34c1.75,1.26,3.82,3.31,3.73,5.91
				c-0.11,2.86-2.71,5.9-4.43,7.9c-3.17,3.69-8.18,4.34-13.75,1.79c-4.45-2.03-8.32-6.66-10.19-10.35
				c-3.87-7.63-0.95-14.88,1.88-21.9c0.31-0.76,0.62-1.55,0.93-2.33c0.9-2.3,1.43-4.54,2-6.9c0.11-0.46,0.22-0.92,0.33-1.38
				c0.24-0.99,0.62-1.76,0.98-2.5c0.19-0.39,0.39-0.8,0.57-1.24L125.7,39.77z M137.44,68.57c-0.13-0.13-0.25-0.26-0.37-0.39
				c-1.83-2.09-3.2-4.58-3.97-7.21c-0.43-1.46-0.67-2.97-0.91-4.43c-0.17-1.04-0.35-2.12-0.59-3.17c-0.34-1.47-0.99-2.75-1.67-4.09
				c-0.34-0.67-0.69-1.36-1.01-2.09c-0.12-0.27-0.23-0.54-0.35-0.82c-0.73-1.71-1.48-3.47-2.58-4.86c-0.1,0.21-0.19,0.41-0.29,0.6
				c-0.35,0.73-0.69,1.41-0.91,2.31c-0.11,0.46-0.22,0.92-0.33,1.38c-0.57,2.4-1.12,4.66-2.04,7.03c-0.3,0.78-0.62,1.57-0.93,2.33
				c-2.87,7.14-5.59,13.87-1.91,21.12c1.8,3.54,5.51,7.98,9.74,9.92c2.44,1.12,8.56,3.2,12.64-1.55c1.54-1.79,4.11-4.79,4.2-7.32
				c0.08-2.18-1.77-3.98-3.33-5.1c-0.66-0.47-1.37-0.89-2.06-1.29C139.62,70.25,138.44,69.56,137.44,68.57z"/>
		</g>
		<g>
			<path class="st5" d="M58.77,26.38c-6.95,10.76-14.71,20.85-19.5,32.84c0,0,0,0,0,0c-0.35,0.49-0.71,0.98-1.1,1.44
				c-0.44,1.32-1.23,2.51-2.34,3.46c1.27,0.31,2.56,0.31,3.65,0c0.79,1.99,1.35,4,1.66,5.99c1.44-0.09,2.89-0.19,4.33-0.28
				c1.23-0.08,2.63-0.12,3.79,0.56c1.55,0.92,1.84,2.66,3.25,3.73c2.43,1.85,5.86,0.4,8.82,1.45c1.67,0.6,2.89,1.88,4.18,2.98
				c1.3,1.1,3.1,2.16,4.65,1.9c0.42-0.07,0.79-0.23,1.22-0.27c2.59-0.2,4.63,3.84,7.22,3.64c1.01-0.08,1.76-0.83,2.69-0.85
				c0.4,0.14,0.81,0.28,1.21,0.42c0.17,0.13,0.33,0.27,0.48,0.41l3.49,3.24c0.31,0.29,0.64,0.59,1.06,0.73
				c0.3,0.1,0.61,0.11,0.91,0.11c2.13,0.01,4.19-0.18,6.16-0.54c0.46,0.14,0.92,0.28,1.39,0.42c1.16,1.12,2.31,2.24,3.47,3.37
				c0.24,0.23,0.51,0.48,0.84,0.54c0.33,0.07,0.61-0.07,0.84-0.2c0.94-0.51,1.89-1.03,2.83-1.54c0.43,0.1,0.85,0.19,1.28,0.28
				c0.63,0.96,1.41,1.87,2.32,2.72c0.24-0.95,0.77-1.64,1.4-2.26c0.96,0.15,1.85,0.42,2.52,1.03c0.21-0.78-0.27-1.67-1.05-2.41
				c0.09-0.09,0.19-0.19,0.28-0.29c-0.03-0.05-0.05-0.1-0.08-0.16c0,0,0,0,0,0c0.33-0.43,0.59-0.92,0.85-1.4
				c2.5-4.68,7-10.03,9.5-14.71c2.63-4.92,5.28-9.9,6.64-15.46c1.46-5.98,0.97-12.41-1.33-18.68c-2.78-7.61-12.28-11.3-19.09-14.86
				c-4.52-2.37-9.05-4.73-13.57-7.1c-2.93-1.53-5.94-3.09-9.08-3.57c-3.85-0.59-7.49,0.51-10.99,1.59
				c-2.48,0.77-4.99,1.55-7.13,2.92C63.12,19.7,60.91,23.08,58.77,26.38z M38.73,60.61c-0.08,0.21-0.16,0.42-0.23,0.63
				C38.57,61.03,38.65,60.82,38.73,60.61z M38.34,61.67c-0.13,0.36-0.26,0.73-0.38,1.1C38.09,62.39,38.21,62.03,38.34,61.67z
				 M109.94,89.55c0.08-0.06,0.15-0.12,0.22-0.19C110.09,89.42,110.02,89.49,109.94,89.55z M110.23,89.29
				c0.05-0.05,0.1-0.1,0.14-0.15C110.33,89.19,110.28,89.24,110.23,89.29z M110.44,89.07c0.05-0.06,0.1-0.12,0.15-0.19
				C110.54,88.95,110.49,89.01,110.44,89.07z"/>
		</g>
		<g>
			<path class="st5" d="M127.89,6.94c-0.22,0.13-0.44,0.26-0.66,0.39c-1.03-1.59-0.93-1.42-2.12-2.89
				c-0.17-0.21,19.75-4.26,19.75-4.26s-54.9-2.54-56.35,0c-3,5.26-9.28,11-14.23,14.42c3.89,2.38,8.22,3.17,12.3,4.97
				c3.83,1.7,7.38,4.26,11.05,6.44c9.63,5.73,20.48,9.12,28.84,16.9c0.79-6.18,2.19-12.28,4.23-18.17c1.3-3.76,2.96-7.38,4.77-10.92
				c0.85-1.65,2.42-3.61,2.88-5.4c0.24-0.93,0.13-1.03-1.02-1.08c-0.83-0.03-1.67,0.24-2.48,0.41c-1.13,0.24-2.47,0.26-3.25-0.6
				c-0.57-0.63-0.67-1.56-1.15-2.26C129.68,5.68,128.81,6.36,127.89,6.94z"/>
		</g>
		<g>
			<defs>
				<path id="SVGID_00000118393690907326345920000010998707834217256846_" d="M123.94,0.07C123.06,0.54,124.45,0.92,123.94,0.07
					c-0.51-0.86-4.07-0.48-4.07-0.48s-1.6,0.6-2.39,0.91c-0.2,0.08-0.42,0.15-0.63,0.11c-0.25-0.05-0.44-0.26-0.61-0.45
					c-0.93-1.08-1.86-2.17-2.78-3.25c-0.76,0.31-1.51,0.62-2.27,0.93c-0.17,0.07-0.34,0.14-0.52,0.12
					c-0.39-0.03-0.64-0.44-0.78-0.81c-0.33-0.84-1.41-2.24-1.41-2.24s-2.59,0.75-3.88,0.43c-1.38-0.34-3.11-2.81-3.11-2.81
					s-1.16,1.44-2.86,0.42c-0.51-1.2-1.19-2.33-2.03-3.33c-0.58,0.42-1.29,1.22-1.93,0.9c-1-0.5-2.67-3.05-2.67-3.05
					s-0.12,1.84-0.1,2.2c0.08,1.5,0.36,2.98,0.42,4.48c0.13,3-1.43,5.56-2.88,8.1c-3,5.26-7.89,8.94-12.83,12.35
					c3.89,2.38,8.22,3.17,12.3,4.97c3.83,1.7,7.38,4.26,11.05,6.44c9.63,5.73,19.69,11.57,28.04,19.35
					c0.79-6.18,2.98-14.73,5.03-20.62c1.3-3.76,2.96-7.38,4.77-10.92c0.85-1.65,6.62-11.87,7.07-13.66
					C145.1-0.76,124.45-0.21,123.94,0.07z"/>
			</defs>
			<clipPath id="SVGID_00000011000425361376010940000000348280842666381994_">
				<use xlink:href="#SVGID_00000118393690907326345920000010998707834217256846_"  style="overflow:visible;"/>
			</clipPath>
			<g style="clip-path:url(#SVGID_00000011000425361376010940000000348280842666381994_);">
				<path class="st5" d="M101.65,20.74c1.49,0.12,3.07,0.22,4.41-0.45c1.34-0.67,2.29-2.37,1.6-3.7c-0.43-0.83-1.32-1.28-2.16-1.67
					c-1.71-0.81-3.42-1.61-5.13-2.42c2.41,0.05,4.83,0.1,7.24,0.15c1.27,0.03,2.87-0.16,3.27-1.37c0.33-1-0.43-2-1.18-2.73
					c-1.67-1.6-3.62-2.92-5.73-3.88c3.49,0.74,7.15,1.31,10.6,0.38c3.45-0.93,6.62-3.74,6.9-7.3c1.89,3.38,9.78,0.94,13.53,1.91
					c3.75,0.96,14.14-4.35,6.81,7.01c-1.8,3.59-3.6,7.18-5.4,10.76c-1.23,2.46-2.47,4.92-3.49,7.48
					c-2.61,6.52-3.77,13.51-4.92,20.44c-2.25-2.59-5.12-4.56-7.96-6.49c-11.39-7.78-22.76-14.9-35.51-20.22
					C90.2,18.97,95.94,20.27,101.65,20.74z"/>
			</g>
		</g>
		<g>
			<g>
				<path class="st20" d="M136.48,67.93c0.58,1.95,1.03,3.97,1.93,5.81c0.42,0.87,0.97,1.71,1.71,2.35
					c0.84,0.73,1.84,1.26,2.79,1.82c1.01,0.59,2.04,1.25,2.65,2.28c0.31,0.52,1.13,0.06,0.82-0.47c-1.15-1.95-3.37-2.68-5.13-3.93
					c-1.61-1.15-2.35-3.05-2.93-4.86c-0.34-1.07-0.61-2.16-0.93-3.23C137.22,67.11,136.31,67.35,136.48,67.93L136.48,67.93z"/>
			</g>
		</g>
		<g>
			<defs>
				<path id="SVGID_00000178185378261621281880000001546529191778834858_" d="M107.49,23.48c-4.52-2.37-9.05-4.73-13.57-7.1
					c-2.93-1.53-5.94-3.09-9.08-3.57c-3.85-0.59-7.49,0.51-10.99,1.59c-2.48,0.77-4.99,1.55-7.13,2.92
					c-3.31,2.12-5.52,5.5-7.66,8.81c-7.62,11.8-16.22,22.8-20.81,36.38c1.02-1.4,3.03-1.92,4.68-2.55s4.01-0.13,5.01,1.58
					c0.99,1.68,0.45,4.02,1.99,5.24c1.58,1.26,3.5,0.01,5.21-0.55c2.13-0.7,4.8-0.11,6.75,1.49c1.75,1.44,2.97,3.62,4.99,4.57
					c3.03,1.43,6.26-0.65,9.4,0.4c3.84,1.28,7.35,14.23,11.25,15.1c1.44,0.32,7.11-0.79,8.53-0.84c0,0,1.55,2.96,3.39,4.2
					c2.4,1.6,3.57-2.78,5.8-0.92s3.01,0.61,4.99-0.93c0.69-0.53,1.12-1.33,1.53-2.1c2.5-4.68,7-10.03,9.5-14.71
					c2.63-4.92,5.28-9.9,6.64-15.46c1.46-5.98,0.97-12.41-1.33-18.68C123.79,30.73,114.29,27.04,107.49,23.48z"/>
			</defs>
			<clipPath id="SVGID_00000066500315645804985390000007882505125120546180_">
				<use xlink:href="#SVGID_00000178185378261621281880000001546529191778834858_"  style="overflow:visible;"/>
			</clipPath>
			<g style="clip-path:url(#SVGID_00000066500315645804985390000007882505125120546180_);">
				<path class="st5" d="M86.04,74.55c3.99,0.36,8.15-0.12,11.66-2.05c3.51-1.93,6.26-5.48,6.58-9.47s-2.18-8.22-6.04-9.29
					c2.87,0.74,6.01,1.37,8.71,0.14c3.81-1.74,5.22-6.74,4.1-10.77s-4.15-7.23-7.29-10c-8.1-7.14-17.73-12.62-28.16-15.41
					c3.29-1.13,6.9-0.55,10.27,0.25c13.32,3.18,25.8,9.86,35.84,19.18c2.75,2.55,5.33,5.32,7.26,8.53c0.82,1.37,1.53,2.82,1.86,4.38
					c0.24,1.12,0.29,2.28,0.28,3.43c-0.08,12.44-6.2,24.01-13.03,34.41c-1.49,2.27-8.03,7-5.93,5.27
					c10.28-8.42,37.91-30.52-5.8-0.94C95.6,99.5,82,84.49,71.64,73.38c2.02-0.56,3.34-1.11,5.45-0.65
					C80.09,73.37,82.96,74.28,86.04,74.55z"/>
			</g>
		</g>
	</g>
	<g>
		<g>
			<g>
				<path class="st16" d="M330.59,212.15c1.94-1.22,3.91-2.42,5.63-3.94c1.31-1.16,2.54-2.71,2.42-4.46
					c-0.07-1.02-0.58-1.94-1.11-2.81c-1.27-2.1-2.81-3.75-4.33-5.67c-0.79-1-1.68-2.01-2.88-2.46c-2.03-0.75-4.63,0.56-6.44,1.74
					c-4.35,2.85-8.24,6.34-12.11,9.81c-1.69,1.52-3.37,3.03-5.06,4.55c-3.6,3.23-7.25,6.53-9.79,10.65
					c-0.24,0.39-0.47,0.8-0.51,1.26c-0.03,0.39,0.08,0.77,0.21,1.13c1.07,3.14,3.31,6.43,6.2,8.18c3,1.81,5.25-1.44,7.46-3.24
					C316.58,221.77,323.72,216.48,330.59,212.15z"/>
			</g>
			<g>
				<defs>
					<path id="SVGID_00000130608059407593708020000004563504044202083477_" d="M330.53,212.24c1.94-1.22,3.91-2.42,5.63-3.94
						c1.31-1.16,2.54-2.71,2.42-4.46c-0.07-1.02-0.58-1.94-1.11-2.81c-1.27-2.1-2.81-3.75-4.33-5.67c-0.79-1-1.68-2.01-2.88-2.46
						c-2.03-0.75-4.63,0.56-6.44,1.74c-4.35,2.85-8.24,6.34-12.11,9.81c-1.69,1.52-3.37,3.03-5.06,4.55
						c-3.6,3.23-7.25,6.53-9.79,10.65c-0.24,0.39-0.47,0.8-0.51,1.26c-0.03,0.39,0.08,0.77,0.21,1.13c1.07,3.14,3.31,6.43,6.2,8.18
						c3,1.81,5.25-1.44,7.46-3.24C316.51,221.86,323.65,216.57,330.53,212.24z"/>
				</defs>
				<clipPath id="SVGID_00000030463880565712690690000006884422424924030385_">
					<use xlink:href="#SVGID_00000130608059407593708020000004563504044202083477_"  style="overflow:visible;"/>
				</clipPath>
				<g style="clip-path:url(#SVGID_00000030463880565712690690000006884422424924030385_);">
					<path class="st18" d="M334.7,205.16c-0.53,0.99-1.35,1.62-2.11,2.44c-0.54,0.59-1.21,0.88-1.96,1.15
						c-0.75,0.26-1.43-1.15-1.79-1.86c0.5,0.65,0.13,2.81-0.25,3.53s-1.02,1.28-1.64,1.81c-1.16,0.99-2.32,1.98-3.49,2.98
						c-0.93,0.8-1.89,1.61-3.03,2.05s-2.52,0.48-3.52-0.24c0.61,0.88,0.81,1.61,0.52,2.64c-0.41,1.41-2.18,1.77-3.44,2.51
						c-0.81,0.47-5.51,4.26-7.47,5.56c-1.01,0.67-1.75,2.31-2.92,2.59c-3.34,0.81-6.63-1.28-9.44-3.27
						c1.11,2.91,2.84,5.57,5.05,7.77c0.72,0.72,1.63,1.43,2.64,1.32c0.55-0.06,1.04-0.36,1.5-0.68c1.18-0.8,2.28-1.71,3.29-2.72
						c1.7-1.69,3.15-3.67,5.13-5.01c1.16-0.79,2.47-1.33,3.66-2.07c1.38-0.86,2.57-1.98,3.8-3.04c1.79-1.54,3.66-2.98,5.53-4.42
						c1.13-0.87,2.26-1.74,3.47-2.48c1.08-0.66,2.22-1.23,3.14-2.09c1.02-0.97,1.7-2.25,2.73-3.21c0.75-0.71,1.67-1.22,2.41-1.93
						c1.58-1.52,2.22-3.88,1.89-6.05c-0.31-2.03-1.58-4.63-3.38-5.71C335.67,199.37,336.07,202.6,334.7,205.16z"/>
				</g>
				<g style="clip-path:url(#SVGID_00000030463880565712690690000006884422424924030385_);">
					<path class="st19" d="M313.21,203.08c0.83,0.18-4.62,6.05-3.98,6.47c0.55,0.36,1.63,1.98,2.11,2.1
						c-2.63-0.66-5.94,0.9-7.87,2.96c-1.27,1.36-1.87,1.87-3.1,3.24c0.4,0.27,0.84,0.49,1.28,0.72c-1.37-0.06-2.94,0.47-3.44,1.75
						c-0.4,1.03,0.06,1.87,0.25,2.85c0.22,1.09-0.12,2.87,0.38,3.84c-1.33-2.58-3.69-4.61-6.44-5.54c2.21-3.31,5.15-6.04,8.07-8.74
						c1.44-1.33,3.76-4.31,5.77-4.33C306.44,208.39,312.99,203.03,313.21,203.08z"/>
				</g>
			</g>
			<g>
				<path class="st20" d="M330.67,209.69l-8.59-10.55l1.53-1.25c1.41-1.15,3.18-1.68,4.99-1.49c1.81,0.19,3.44,1.07,4.58,2.47
					c1.15,1.41,1.68,3.18,1.49,4.99c-0.19,1.81-1.06,3.44-2.47,4.58L330.67,209.69z M323.41,199.27l7.4,9.09l0.8-0.65
					c2.51-2.04,2.89-5.74,0.85-8.25c-0.99-1.21-2.39-1.97-3.95-2.13c-1.56-0.16-3.08,0.3-4.3,1.29L323.41,199.27z"/>
			</g>
			<g>
				<path class="st20" d="M300.16,228.75c-1.74-1.74-3.21-4.08-4.06-6.56c-0.13-0.39-0.27-0.84-0.23-1.33
					c0.05-0.56,0.31-1.03,0.58-1.47c2.59-4.21,6.3-7.54,9.88-10.75l5.06-4.55c3.82-3.43,7.78-6.98,12.17-9.86
					c2.8-1.83,5.11-2.43,6.86-1.79c1.32,0.49,2.29,1.6,3.08,2.6c0.4,0.51,0.82,1.01,1.22,1.49c1.13,1.37,2.21,2.67,3.15,4.23
					c0.56,0.92,1.1,1.91,1.18,3.03c0.11,1.6-0.76,3.23-2.58,4.85c-1.6,1.42-3.43,2.56-5.19,3.67l-0.49,0.31l-0.25-0.4l0.25,0.4
					c-7.95,5-15.41,10.76-20.27,14.71c-0.42,0.34-0.85,0.74-1.3,1.16c-1.87,1.76-3.99,3.75-6.7,2.11
					C301.69,230.13,300.9,229.49,300.16,228.75z M331.73,194.47c-0.49-0.49-1.02-0.9-1.64-1.12c-1.82-0.67-4.28,0.55-6.02,1.69
					c-4.33,2.83-8.26,6.36-12.05,9.77l-5.06,4.55c-3.53,3.17-7.18,6.45-9.7,10.54c-0.22,0.35-0.41,0.7-0.44,1.05
					c-0.02,0.3,0.08,0.63,0.18,0.94c1.14,3.34,3.44,6.38,6,7.93c2.1,1.27,3.78-0.31,5.57-1.99c0.44-0.41,0.9-0.84,1.35-1.21
					c4.88-3.97,12.38-9.75,20.37-14.77l0,0l0.49-0.31c1.74-1.09,3.53-2.22,5.07-3.58c1.59-1.41,2.35-2.78,2.26-4.08
					c-0.06-0.91-0.55-1.78-1.04-2.6c-0.91-1.51-1.96-2.78-3.07-4.12c-0.4-0.49-0.82-0.99-1.23-1.5
					C332.44,195.24,332.1,194.83,331.73,194.47z"/>
			</g>
			<g>
				<g>
					<path class="st20" d="M321.64,205.31c0.86,1.11,1.73,2.21,2.59,3.32c0.16,0.2,0.5,0.16,0.67,0c0.2-0.2,0.16-0.47,0-0.67
						c-0.86-1.11-1.73-2.21-2.59-3.32c-0.16-0.2-0.5-0.16-0.67,0C321.45,204.84,321.49,205.1,321.64,205.31L321.64,205.31z"/>
				</g>
			</g>
			<g>
				<g>
					<path class="st20" d="M320.89,207.35c0.37,0.46,0.73,0.92,1.1,1.38c0.07,0.09,0.23,0.14,0.33,0.14c0.12,0,0.25-0.05,0.33-0.14
						c0.08-0.09,0.14-0.21,0.14-0.33c-0.01-0.13-0.06-0.23-0.14-0.33c-0.37-0.46-0.73-0.92-1.1-1.38c-0.07-0.09-0.23-0.14-0.33-0.14
						c-0.12,0-0.25,0.05-0.33,0.14c-0.08,0.09-0.14,0.21-0.14,0.33C320.76,207.15,320.81,207.25,320.89,207.35L320.89,207.35z"/>
				</g>
			</g>
			<g>
				<g>
					<path class="st20" d="M311.8,213.83c1.04,0.96,2,2.01,2.87,3.12c0.16,0.2,0.5,0.16,0.67,0c0.2-0.2,0.16-0.47,0-0.67
						c-0.87-1.12-1.83-2.16-2.87-3.12C312.02,212.75,311.35,213.42,311.8,213.83L311.8,213.83z"/>
				</g>
			</g>
			<g>
				<g>
					<path class="st20" d="M310.58,214.71c1.39,1.51,2.64,3.15,3.73,4.89c0.32,0.51,1.14,0.05,0.82-0.47
						c-1.14-1.81-2.44-3.52-3.89-5.09C310.83,213.59,310.17,214.26,310.58,214.71L310.58,214.71z"/>
				</g>
			</g>
		</g>
		<g>
			<g>
				<path class="st16" d="M320.42,191.94c2.09-2.12,4.22-4.22,5.94-6.64c1.31-1.86,2.4-4.18,1.73-6.35
					c-0.39-1.26-1.32-2.28-2.24-3.22c-2.23-2.27-4.66-3.91-7.16-5.88c-1.3-1.03-2.72-2.05-4.36-2.25c-2.78-0.34-5.69,2.08-7.62,4.11
					c-4.65,4.89-8.53,10.45-12.38,15.99c-1.68,2.42-3.36,4.83-5.04,7.25c-3.59,5.15-7.22,10.4-9.2,16.36
					c-0.19,0.56-0.36,1.15-0.27,1.74c0.07,0.5,0.33,0.95,0.6,1.37c2.29,3.65,6.1,7.14,10.26,8.49c4.32,1.4,6.2-3.38,8.46-6.31
					C305.57,208.26,313.02,199.44,320.42,191.94z"/>
			</g>
			<g>
				<defs>
					<path id="SVGID_00000067198621827514291950000017241917497901340054_" d="M320.36,192.07c2.09-2.12,4.22-4.22,5.94-6.64
						c1.31-1.86,2.4-4.18,1.73-6.35c-0.39-1.26-1.32-2.28-2.24-3.22c-2.23-2.27-4.66-3.91-7.16-5.88c-1.3-1.03-2.72-2.05-4.36-2.25
						c-2.78-0.34-5.69,2.08-7.62,4.11c-4.65,4.89-8.53,10.45-12.38,15.99c-1.68,2.42-3.36,4.83-5.04,7.25
						c-3.59,5.15-7.22,10.4-9.2,16.36c-0.19,0.56-0.36,1.15-0.27,1.74c0.07,0.5,0.33,0.95,0.6,1.37c2.29,3.65,6.1,7.14,10.26,8.49
						c4.32,1.4,6.2-3.38,8.46-6.31C305.52,208.39,312.97,199.58,320.36,192.07z"/>
				</defs>
				<clipPath id="SVGID_00000070839547017492514340000013949965771288541878_">
					<use xlink:href="#SVGID_00000067198621827514291950000017241917497901340054_"  style="overflow:visible;"/>
				</clipPath>
				<g style="clip-path:url(#SVGID_00000070839547017492514340000013949965771288541878_);">
					<path class="st18" d="M323.53,181.89c-0.37,1.4-1.22,2.45-1.94,3.71c-0.51,0.9-1.27,1.47-2.14,2.03s-2.15-1.03-2.81-1.82
						c0.82,0.67,1,3.51,0.73,4.54c-0.27,1.03-0.91,1.91-1.54,2.77c-1.17,1.6-2.35,3.2-3.52,4.8c-0.94,1.28-1.91,2.59-3.21,3.49
						c-1.31,0.9-3.04,1.35-4.51,0.74c1.03,0.94,1.51,1.8,1.44,3.18c-0.09,1.9-2.22,2.89-3.6,4.2c-0.88,0.84-5.7,7.02-7.79,9.24
						c-1.07,1.14-1.53,3.44-2.92,4.15c-3.99,2.01-8.76,0.35-12.9-1.32c2.27,3.34,5.25,6.2,8.69,8.31c1.13,0.69,2.49,1.33,3.73,0.88
						c0.68-0.24,1.21-0.77,1.7-1.3c1.25-1.36,2.38-2.84,3.35-4.41c1.64-2.64,2.88-5.57,4.99-7.86c1.23-1.34,2.73-2.42,4.01-3.71
						c1.48-1.5,2.66-3.26,3.9-4.97c1.8-2.48,3.74-4.86,5.68-7.23c1.17-1.43,2.34-2.87,3.65-4.17c1.16-1.15,2.45-2.21,3.35-3.58
						c1.01-1.52,1.48-3.35,2.49-4.87c0.74-1.11,1.75-2.03,2.47-3.16c1.55-2.39,1.66-5.56,0.59-8.2c-1-2.47-3.38-5.38-5.96-6.21
						C323.04,174.28,324.5,178.25,323.53,181.89z"/>
				</g>
				<g style="clip-path:url(#SVGID_00000070839547017492514340000013949965771288541878_);">
					<path class="st19" d="M295.76,185.64c1.11-0.02-4.03,9.02-3.11,9.36c0.8,0.29,2.65,2.01,3.29,2.02
						c-3.52-0.05-7.24,2.9-9.06,6.08c-1.2,2.1-1.81,2.92-2.95,5.02c0.59,0.22,1.21,0.37,1.83,0.53c-1.75,0.34-3.58,1.47-3.82,3.24
						c-0.2,1.42,0.63,2.34,1.17,3.52c0.59,1.31,0.71,3.66,1.63,4.73c-2.45-2.86-6.04-4.72-9.79-5.08c1.8-4.84,4.72-9.17,7.6-13.45
						c1.43-2.11,3.46-6.56,6-7.18C288.79,194.37,295.47,185.65,295.76,185.64z"/>
				</g>
			</g>
			<g>
				<path class="st20" d="M305.99,178l2.22-2.88c1.22-1.58,2.98-2.6,4.97-2.85c1.98-0.26,3.95,0.27,5.53,1.49l1.91,1.47
					c1.58,1.22,2.6,2.98,2.85,4.97c0.26,1.98-0.27,3.95-1.49,5.53l-2.22,2.88L305.99,178z M320.68,176.54
					c-0.2-0.2-0.41-0.39-0.64-0.56l-1.91-1.47c-1.38-1.07-3.1-1.53-4.83-1.31c-1.73,0.22-3.27,1.11-4.34,2.49l-1.64,2.13l12.27,9.46
					l1.64-2.13c1.07-1.38,1.53-3.1,1.31-4.83C322.35,178.87,321.7,177.56,320.68,176.54z"/>
			</g>
			<g>
				<path class="st20" d="M283.11,218.75c-1.19-1.19-2.27-2.53-3.16-3.96c-0.28-0.44-0.58-0.96-0.67-1.55
					c-0.1-0.69,0.09-1.35,0.29-1.96c2.02-6.07,5.7-11.36,9.26-16.48l5.04-7.25c3.81-5.47,7.74-11.12,12.43-16.05
					c2.96-3.11,5.66-4.54,8.02-4.25c1.78,0.22,3.31,1.32,4.6,2.34c0.66,0.52,1.33,1.03,1.98,1.52c1.84,1.39,3.57,2.71,5.22,4.4
					c0.96,0.98,1.94,2.06,2.35,3.42c0.6,1.95-0.01,4.23-1.8,6.77c-1.59,2.26-3.56,4.24-5.46,6.17l-0.53,0.54
					c-8.56,8.69-16.28,18.18-21.25,24.62c-0.44,0.57-0.86,1.2-1.3,1.86c-1.82,2.74-3.87,5.84-7.68,4.6
					C287.92,222.66,285.32,220.96,283.11,218.75z M325.27,175.99c-1.55-1.55-3.2-2.8-4.93-4.11c-0.65-0.49-1.32-1-2-1.53
					c-1.25-0.98-2.59-1.96-4.13-2.15c-2.55-0.31-5.34,1.99-7.22,3.97c-4.64,4.87-8.55,10.5-12.34,15.94l-5.04,7.25
					c-3.52,5.06-7.17,10.3-9.14,16.24c-0.18,0.53-0.33,1.04-0.25,1.52c0.06,0.42,0.3,0.82,0.53,1.19c2.45,3.91,6.29,7.09,10.01,8.29
					c3.13,1.01,4.82-1.53,6.61-4.23c0.43-0.65,0.88-1.33,1.34-1.92c4.99-6.46,12.74-15.98,21.33-24.7l0.53-0.54
					c1.87-1.9,3.81-3.86,5.36-6.05c1.62-2.29,2.18-4.29,1.67-5.94c-0.36-1.16-1.25-2.13-2.13-3.03
					C325.39,176.11,325.33,176.05,325.27,175.99z"/>
			</g>
			<g>
				<g>
					<path class="st20" d="M307.07,185.76c1.42,1.14,2.84,2.28,4.26,3.43c0.2,0.16,0.47,0.19,0.67,0c0.17-0.17,0.2-0.51,0-0.67
						c-1.42-1.14-2.84-2.28-4.26-3.43c-0.2-0.16-0.47-0.19-0.67,0C306.9,185.26,306.87,185.6,307.07,185.76L307.07,185.76z"/>
				</g>
			</g>
			<g>
				<g>
					<path class="st20" d="M306.73,188.57c0.6,0.47,1.2,0.94,1.79,1.42c0.19,0.15,0.48,0.2,0.67,0c0.16-0.17,0.21-0.5,0-0.67
						c-0.6-0.47-1.2-0.94-1.79-1.42c-0.19-0.15-0.48-0.2-0.67,0C306.57,188.07,306.52,188.4,306.73,188.57L306.73,188.57z"/>
				</g>
			</g>
			<g>
				<g>
					<path class="st20" d="M297.26,199.54c1.56,0.89,3.05,1.89,4.45,3.02c0.2,0.16,0.47,0.19,0.67,0c0.17-0.17,0.2-0.51,0-0.67
						c-1.47-1.18-3.02-2.24-4.65-3.17C297.2,198.42,296.73,199.24,297.26,199.54L297.26,199.54z"/>
				</g>
			</g>
			<g>
				<g>
					<path class="st20" d="M295.98,201c2.22,1.5,4.29,3.21,6.19,5.1c0.43,0.43,1.1-0.24,0.67-0.67c-1.96-1.94-4.11-3.7-6.4-5.25
						c-0.21-0.14-0.52-0.03-0.64,0.18C295.67,200.6,295.77,200.86,295.98,201L295.98,201z"/>
				</g>
			</g>
		</g>
		<g>
			<g>
				<path class="st16" d="M301.41,168.53c1.82-3.18,3.69-6.34,4.97-9.77c0.98-2.63,1.54-5.73,0.06-8.1
					c-0.86-1.38-2.28-2.3-3.68-3.13c-3.36-2-6.78-3.18-10.37-4.74c-1.87-0.81-3.88-1.58-5.9-1.3c-3.42,0.47-6.11,4.26-7.77,7.29
					c-3.99,7.28-6.85,15.12-9.69,22.92c-1.24,3.4-2.48,6.81-3.72,10.21c-2.64,7.26-5.32,14.65-5.8,22.36
					c-0.05,0.73-0.07,1.49,0.22,2.16c0.25,0.57,0.69,1.02,1.14,1.44c3.87,3.62,9.5,6.57,14.88,6.87c5.58,0.31,6.31-5.97,8.08-10.17
					C288.89,192.62,294.98,179.79,301.41,168.53z"/>
			</g>
			<g>
				<defs>
					<path id="SVGID_00000087382605760055898580000016414782371750548107_" d="M301.39,168.71c1.82-3.18,3.69-6.34,4.97-9.77
						c0.98-2.63,1.54-5.73,0.06-8.1c-0.86-1.38-2.28-2.3-3.68-3.13c-3.36-2-6.78-3.18-10.37-4.74c-1.87-0.81-3.88-1.58-5.9-1.3
						c-3.42,0.47-6.11,4.26-7.77,7.29c-3.99,7.28-6.85,15.12-9.69,22.92c-1.24,3.4-2.48,6.81-3.72,10.21
						c-2.64,7.26-5.32,14.65-5.8,22.36c-0.05,0.73-0.07,1.49,0.22,2.16c0.25,0.57,0.69,1.02,1.14,1.44
						c3.87,3.62,9.5,6.57,14.88,6.87c5.58,0.31,6.31-5.97,8.08-10.17C288.86,192.8,294.95,179.97,301.39,168.71z"/>
				</defs>
				<clipPath id="SVGID_00000065792381009409056920000001178011836475012539_">
					<use xlink:href="#SVGID_00000087382605760055898580000016414782371750548107_"  style="overflow:visible;"/>
				</clipPath>
				<g style="clip-path:url(#SVGID_00000065792381009409056920000001178011836475012539_);">
					<path class="st18" d="M301.94,155.6c0,1.78-0.68,3.3-1.14,5.02c-0.32,1.23-1.04,2.15-1.91,3.09c-0.86,0.94-2.88-0.55-3.92-1.29
						c1.19,0.54,2.29,3.86,2.3,5.17c0.01,1.31-0.48,2.56-0.96,3.78c-0.89,2.27-1.78,4.54-2.68,6.81c-0.72,1.82-1.45,3.68-2.72,5.17
						s-3.2,2.56-5.13,2.3c1.52,0.79,2.36,1.66,2.71,3.34c0.49,2.29-1.74,4.13-2.96,6.13c-0.78,1.28-4.57,10.14-6.35,13.44
						c-0.92,1.69-0.73,4.57-2.17,5.85c-4.11,3.65-10.31,3.18-15.76,2.49c3.75,3.26,8.19,5.72,12.95,7.15
						c1.56,0.47,3.37,0.8,4.72-0.12c0.73-0.5,1.2-1.3,1.61-2.08c1.06-2.01,1.93-4.13,2.6-6.31c1.12-3.66,1.68-7.54,3.46-10.92
						c1.05-1.98,2.48-3.73,3.6-5.67c1.29-2.25,2.14-4.72,3.07-7.14c1.36-3.52,2.92-6.95,4.47-10.39c0.94-2.07,1.88-4.15,3.03-6.11
						c1.02-1.74,2.21-3.4,2.86-5.31c0.72-2.13,0.71-4.45,1.43-6.58c0.53-1.56,1.44-2.97,1.95-4.53c1.09-3.33,0.22-7.13-1.88-9.94
						c-1.96-2.63-5.71-5.33-9.05-5.51C298.97,146.7,301.95,150.97,301.94,155.6z"/>
				</g>
				<g style="clip-path:url(#SVGID_00000065792381009409056920000001178011836475012539_);">
					<path class="st19" d="M270.09,168.81c1.31-0.38-1.96,12-0.75,12.11c1.05,0.1,3.78,1.56,4.55,1.37
						c-4.2,1.05-7.7,5.73-8.86,10.08c-0.77,2.88-1.24,4.04-1.93,6.9c0.77,0.08,1.55,0.06,2.34,0.05c-1.98,0.95-3.79,2.87-3.53,5.05
						c0.21,1.76,1.49,2.59,2.5,3.83c1.12,1.37,1.99,4.13,3.42,5.12c-3.82-2.63-8.67-3.72-13.24-2.96
						c0.62-6.32,2.72-12.39,4.81-18.39c1.03-2.96,2.05-8.89,4.87-10.43C264.55,181.38,269.76,168.9,270.09,168.81z"/>
				</g>
			</g>
			<g>
				<path class="st20" d="M280,156.43l2.32-5.51c0.77-1.84,2.22-3.27,4.07-4.03c1.85-0.76,3.88-0.74,5.73,0.03l5.72,2.4
					c1.84,0.77,3.27,2.22,4.03,4.07c0.76,1.85,0.74,3.88-0.03,5.73l-2.32,5.51L280,156.43z M299.56,151.59
					c-0.59-0.59-1.3-1.07-2.09-1.4l-5.72-2.4c-1.61-0.68-3.39-0.69-5.01-0.03s-2.88,1.91-3.56,3.52l-1.95,4.64l17.78,7.47l1.95-4.64
					c0.68-1.61,0.69-3.39,0.03-5.01C300.66,152.93,300.17,152.2,299.56,151.59z"/>
			</g>
			<g>
				<path class="st20" d="M260.23,208.09c-0.36-0.36-0.72-0.79-0.95-1.3c-0.33-0.76-0.31-1.59-0.26-2.37
					c0.49-7.84,3.2-15.29,5.82-22.49l3.72-10.21c2.8-7.7,5.7-15.66,9.72-22.99c2.52-4.6,5.26-7.13,8.12-7.53
					c2.16-0.3,4.22,0.5,6.15,1.33c0.96,0.42,1.91,0.81,2.84,1.19c2.62,1.08,5.09,2.09,7.58,3.58c1.44,0.86,2.93,1.82,3.84,3.29
					c1.31,2.1,1.3,4.97-0.02,8.52c-1.18,3.18-2.89,6.15-4.54,9.04l-0.46,0.81c-7.45,13.03-13.65,26.76-17.54,35.99
					c-0.34,0.81-0.64,1.7-0.96,2.63c-1.29,3.79-2.74,8.08-7.58,7.82c-5.04-0.28-10.86-2.96-15.18-7
					C260.44,208.29,260.33,208.19,260.23,208.09z M305.2,150.06c-0.77-0.77-1.74-1.38-2.7-1.95c-2.43-1.45-4.87-2.45-7.46-3.52
					c-0.93-0.38-1.89-0.78-2.85-1.2c-1.81-0.78-3.73-1.53-5.65-1.26c-3.18,0.44-5.79,4.07-7.42,7.05
					c-3.99,7.27-6.87,15.19-9.67,22.86l-3.72,10.21c-2.6,7.14-5.29,14.52-5.77,22.23c-0.04,0.7-0.06,1.37,0.19,1.94
					c0.21,0.49,0.63,0.91,1.03,1.28c4.17,3.89,9.76,6.48,14.59,6.74c4.12,0.23,5.4-3.54,6.64-7.18c0.31-0.91,0.63-1.85,0.99-2.7
					c3.9-9.25,10.12-23.02,17.59-36.09l0.46-0.81c1.63-2.85,3.32-5.79,4.48-8.9c1.21-3.26,1.25-5.85,0.1-7.69
					C305.79,150.71,305.51,150.37,305.2,150.06z"/>
			</g>
			<g>
				<g>
					<path class="st20" d="M283.65,165.3c2.05,0.91,4.1,1.82,6.14,2.74c0.23,0.1,0.51,0.06,0.64-0.18c0.12-0.2,0.06-0.54-0.18-0.64
						c-2.05-0.91-4.1-1.82-6.14-2.74c-0.23-0.1-0.51-0.06-0.64,0.18C283.35,164.86,283.41,165.19,283.65,165.3L283.65,165.3z"/>
				</g>
			</g>
			<g>
				<g>
					<path class="st20" d="M284.12,168.74c0.86,0.37,1.72,0.75,2.58,1.12c0.23,0.1,0.52,0.07,0.64-0.18
						c0.11-0.21,0.06-0.54-0.18-0.64c-0.86-0.37-1.72-0.75-2.58-1.12c-0.23-0.1-0.52-0.07-0.64,0.18
						C283.84,168.31,283.88,168.64,284.12,168.74L284.12,168.74z"/>
				</g>
			</g>
			<g>
				<g>
					<path class="st20" d="M276.29,184.76c2.15,0.57,4.25,1.3,6.28,2.2c0.23,0.1,0.51,0.06,0.64-0.18c0.12-0.2,0.06-0.54-0.18-0.64
						c-2.1-0.94-4.28-1.7-6.5-2.29C275.94,183.69,275.7,184.6,276.29,184.76L276.29,184.76z"/>
				</g>
			</g>
			<g>
				<g>
					<path class="st20" d="M275.22,186.91c3.12,1.09,6.14,2.48,9,4.13c0.53,0.3,0.99-0.52,0.47-0.82c-2.94-1.69-6.03-3.1-9.23-4.22
						c-0.24-0.08-0.51,0.1-0.58,0.34C274.82,186.59,274.98,186.82,275.22,186.91L275.22,186.91z"/>
				</g>
			</g>
		</g>
		<g>
			<g>
				<path class="st16" d="M266.71,158.08c0.57-3.61,1.2-7.24,1.18-10.89c-0.02-2.8-0.59-5.9-2.82-7.59
					c-1.29-0.98-2.95-1.34-4.55-1.62c-3.85-0.68-7.46-0.57-11.36-0.75c-2.04-0.1-4.18-0.1-5.97,0.88c-3.03,1.65-4.2,6.15-4.67,9.56
					c-1.15,8.22-1.04,16.55-0.93,24.85c0.05,3.62,0.1,7.24,0.15,10.85c0.1,7.72,0.23,15.57,2.52,22.94c0.22,0.7,0.47,1.41,0.97,1.94
					c0.43,0.44,1.01,0.71,1.58,0.94c4.9,2.01,11.2,2.77,16.34,1.14c5.32-1.69,3.78-7.81,3.94-12.36
					C263.55,185.02,264.69,170.88,266.71,158.08z"/>
			</g>
			<g>
				<defs>
					<path id="SVGID_00000140727894586566034120000012389233709793142183_" d="M266.74,158.25c0.57-3.61,1.2-7.24,1.18-10.89
						c-0.02-2.8-0.59-5.9-2.82-7.59c-1.29-0.98-2.95-1.34-4.55-1.62c-3.85-0.68-7.46-0.57-11.36-0.75c-2.04-0.1-4.18-0.1-5.97,0.88
						c-3.03,1.65-4.2,6.15-4.67,9.56c-1.15,8.22-1.04,16.55-0.93,24.85c0.05,3.62,0.1,7.24,0.15,10.85
						c0.1,7.72,0.23,15.57,2.52,22.94c0.22,0.7,0.47,1.41,0.97,1.94c0.43,0.44,1.01,0.71,1.58,0.94c4.9,2.01,11.2,2.77,16.34,1.14
						c5.32-1.69,3.78-7.81,3.94-12.36C263.59,185.19,264.73,171.05,266.74,158.25z"/>
				</defs>
				<clipPath id="SVGID_00000138544331007104209650000006035993459395852946_">
					<use xlink:href="#SVGID_00000140727894586566034120000012389233709793142183_"  style="overflow:visible;"/>
				</clipPath>
				<g style="clip-path:url(#SVGID_00000138544331007104209650000006035993459395852946_);">
					<path class="st18" d="M262.61,145.81c0.63,1.67,0.53,3.32,0.72,5.1c0.14,1.27-0.21,2.38-0.68,3.56
						c-0.48,1.18-2.88,0.51-4.12,0.19c1.3,0.08,3.51,2.79,3.98,4.01s0.46,2.56,0.45,3.87c-0.03,2.44-0.06,4.87-0.08,7.31
						c-0.02,1.95-0.05,3.95-0.71,5.79s-2.08,3.53-3.98,3.97c1.7,0.2,2.79,0.72,3.71,2.15c1.27,1.97-0.16,4.48-0.59,6.77
						c-0.28,1.47-0.67,11.09-1.17,14.81c-0.26,1.91,0.94,4.53,0.05,6.24c-2.54,4.87-8.51,6.62-13.84,7.91
						c4.66,1.72,9.68,2.44,14.63,2.09c1.62-0.11,3.43-0.45,4.36-1.79c0.5-0.73,0.66-1.64,0.76-2.51c0.28-2.26,0.34-4.54,0.19-6.81
						c-0.25-3.82-1.11-7.63-0.64-11.43c0.27-2.22,0.99-4.37,1.35-6.58c0.41-2.56,0.32-5.16,0.34-7.75c0.02-3.77,0.26-7.53,0.5-11.29
						c0.14-2.27,0.29-4.54,0.67-6.78c0.34-1.98,0.86-3.96,0.78-5.97c-0.09-2.24-0.91-4.41-0.99-6.65c-0.06-1.64,0.29-3.28,0.21-4.93
						c-0.16-3.5-2.32-6.74-5.28-8.62c-2.77-1.76-7.22-2.95-10.41-1.94C256.68,138.55,260.98,141.48,262.61,145.81z"/>
				</g>
				<g style="clip-path:url(#SVGID_00000138544331007104209650000006035993459395852946_);">
					<path class="st19" d="M237.55,169.44c1.09-0.82,2.43,11.9,3.6,11.58c1.01-0.28,4.09,0.12,4.73-0.33
						c-3.55,2.47-5.16,8.08-4.7,12.56c0.3,2.96,0.28,4.21,0.65,7.13c0.74-0.2,1.47-0.5,2.2-0.78c-1.51,1.59-2.52,4.03-1.5,5.97
						c0.82,1.57,2.31,1.89,3.69,2.69c1.53,0.88,3.33,3.15,5.01,3.57c-4.5-1.11-9.41-0.4-13.42,1.93
						c-1.66-6.12-1.85-12.54-2.03-18.88c-0.09-3.14-1.24-9.04,0.85-11.47C236.84,183.16,237.27,169.65,237.55,169.44z"/>
				</g>
			</g>
			<g>
				<path class="st20" d="M242.42,154.37l0.18-5.23c0.16-4.53,3.97-8.08,8.5-7.92l4.72,0.17c4.53,0.16,8.08,3.97,7.92,8.5
					l-0.18,5.23L242.42,154.37z M260.67,144.45c-1.26-1.26-2.97-2.06-4.88-2.13l-4.72-0.17c-4.01-0.14-7.38,3.01-7.52,7.01
					l-0.15,4.29l19.25,0.67l0.15-4.29C262.87,147.75,262.04,145.82,260.67,144.45z"/>
			</g>
			<g>
				<path class="st20" d="M240.95,208.78c-0.01-0.01-0.02-0.02-0.03-0.03c-0.58-0.6-0.85-1.38-1.09-2.12
					c-2.32-7.5-2.43-15.42-2.54-23.07l-0.15-10.85c-0.11-8.19-0.23-16.65,0.93-24.92c0.73-5.19,2.38-8.53,4.91-9.91
					c1.91-1.04,4.12-1.03,6.22-0.94c1.04,0.05,2.07,0.08,3.07,0.1c2.83,0.08,5.5,0.15,8.35,0.65c1.65,0.29,3.38,0.66,4.75,1.71
					c1.97,1.5,2.98,4.18,3,7.96c0.02,3.39-0.52,6.77-1.04,10.05l-0.15,0.92c-2.33,14.81-3.25,29.84-3.62,39.84
					c-0.03,0.88,0,1.82,0.04,2.8c0.14,4,0.3,8.52-4.31,9.99c-4.81,1.53-11.19,1.09-16.66-1.15
					C242.09,209.57,241.45,209.28,240.95,208.78z M265.33,140.59c-0.16-0.16-0.33-0.31-0.52-0.45c-1.2-0.92-2.81-1.26-4.34-1.53
					c-2.79-0.49-5.42-0.56-8.22-0.64c-1-0.03-2.04-0.06-3.09-0.1c-1.97-0.09-4.03-0.1-5.72,0.82c-2.81,1.54-3.96,5.86-4.43,9.22
					c-1.15,8.2-1.03,16.63-0.92,24.78l0.15,10.85c0.1,7.59,0.21,15.44,2.49,22.81c0.2,0.64,0.43,1.3,0.86,1.75
					c0.37,0.38,0.91,0.62,1.42,0.83c5.27,2.16,11.41,2.59,16.02,1.13c3.93-1.25,3.79-5.22,3.65-9.06c-0.03-0.96-0.07-1.95-0.04-2.87
					c0.36-10.02,1.29-25.09,3.63-39.95l0.15-0.92c0.52-3.24,1.05-6.59,1.03-9.9C267.43,144.25,266.72,141.98,265.33,140.59z"/>
			</g>
			<g>
				<g>
					<path class="st20" d="M249.04,161.37c2.24,0.13,4.47,0.25,6.71,0.38c0.61,0.03,0.6-0.91,0-0.94c-2.24-0.13-4.47-0.25-6.71-0.38
						C248.43,160.39,248.43,161.33,249.04,161.37L249.04,161.37z"/>
				</g>
			</g>
			<g>
				<g>
					<path class="st20" d="M250.71,164.41c0.94,0.04,1.87,0.09,2.81,0.13c0.25,0.01,0.48-0.23,0.47-0.47
						c-0.01-0.27-0.21-0.46-0.47-0.47c-0.94-0.04-1.87-0.09-2.81-0.13c-0.25-0.01-0.48,0.23-0.47,0.47
						C250.25,164.21,250.44,164.4,250.71,164.41L250.71,164.41z"/>
				</g>
			</g>
			<g>
				<g>
					<path class="st20" d="M248.94,182.15c2.25-0.24,4.51-0.29,6.77-0.17c0.61,0.03,0.6-0.91,0-0.94c-2.26-0.13-4.52-0.07-6.77,0.17
						c-0.25,0.03-0.47,0.2-0.47,0.47C248.47,181.91,248.69,182.17,248.94,182.15L248.94,182.15z"/>
				</g>
			</g>
			<g>
				<g>
					<path class="st20" d="M248.71,184.53c3.3-0.09,6.61,0.13,9.88,0.65c0.25,0.04,0.51-0.07,0.58-0.34
						c0.06-0.23-0.08-0.54-0.34-0.58c-3.34-0.54-6.73-0.77-10.12-0.68C248.1,183.61,248.1,184.55,248.71,184.53L248.71,184.53z"/>
				</g>
			</g>
		</g>
		<g>
			<path class="st16" d="M222.41,250.68c-1.63-1.73-2.56-4.22-3.49-6.37c-0.93-2.15-2.18-3.97-2.71-6.27
				c-0.58-2.51-0.77-5.09-1.49-7.57c-0.76-2.59-2.09-5.01-3.87-7.04c-1.56-1.78-3.76-2.59-5.68-3.96c-1.85-1.33-3.61-3.23-3.53-5.5
				c0.1-2.68,2.64-5.66,4.32-7.61c3.5-4.08,8.72-3.72,13.19-1.67c4.05,1.85,7.97,6.19,9.97,10.13c4.19,8.25,0.23,16.02-2.82,23.84
				c-1.09,2.78-1.65,5.45-2.35,8.34C223.58,248.46,222.94,249.37,222.41,250.68z"/>
		</g>
		<g>
			<defs>
				<path id="SVGID_00000024684849098891261980000004612154155935002252_" d="M222.41,250.68c-1.63-1.73-2.56-4.22-3.49-6.37
					c-0.93-2.15-2.18-3.97-2.71-6.27c-0.58-2.51-0.77-5.09-1.49-7.57c-0.76-2.59-2.09-5.01-3.87-7.04
					c-1.56-1.78-3.76-2.59-5.68-3.96c-1.85-1.33-3.61-3.23-3.53-5.5c0.1-2.68,2.64-5.66,4.32-7.61c3.5-4.08,8.72-3.72,13.19-1.67
					c4.05,1.85,7.97,6.19,9.97,10.13c4.19,8.25,0.23,16.02-2.82,23.84c-1.09,2.78-1.65,5.45-2.35,8.34
					C223.58,248.46,222.94,249.37,222.41,250.68z"/>
			</defs>
			<clipPath id="SVGID_00000183245755491842399730000017622338588136313257_">
				<use xlink:href="#SVGID_00000024684849098891261980000004612154155935002252_"  style="overflow:visible;"/>
			</clipPath>
			<g style="clip-path:url(#SVGID_00000183245755491842399730000017622338588136313257_);">
				<path class="st19" d="M222.69,233.31c0.07-0.56,0.08-1.34-0.48-1.46c-0.25-0.06-0.5,0.07-0.72,0.19
					c-0.94,0.53-1.84,1.11-2.7,1.76c0.96-1.52,1.96-3.14,2.02-4.94c0.07-2.12-1.18-4.04-2.37-5.79c-0.86-1.27-1.74-2.55-2.91-3.55
					c-1.8-1.54-4.13-2.28-6.22-3.39c-3.06-1.63-5.74-4.28-6.59-7.64c-2.08,0.05-3.93,1.63-4.7,3.57c-0.76,1.94-0.58,4.15,0.1,6.12
					c0.67,1.97,1.79,3.76,2.9,5.52c0.69,1.1,1.39,2.21,2.08,3.31c0.65,1.03,1.3,2.07,2.08,3c1.24,1.49,2.78,2.7,4.1,4.12
					c1.23,1.32,2.27,2.8,3.3,4.28c3.32,4.75,6.64,9.5,9.95,14.26c1.6-2.42,2.66-5.19,3.09-8.06c0.14-0.97,0.85-2.27,0.82-3.2
					c-0.04-1.13-0.68-1.28-1.46-2.04C223.37,237.8,222.41,235.57,222.69,233.31z"/>
			</g>
		</g>
		<g>
			<path class="st20" d="M222.57,251.54l-0.5-0.53c-1.48-1.58-2.41-3.76-3.23-5.69c-0.12-0.28-0.23-0.55-0.35-0.82
				c-0.3-0.7-0.65-1.38-0.99-2.04c-0.68-1.34-1.39-2.72-1.75-4.31c-0.25-1.07-0.43-2.17-0.6-3.23c-0.23-1.43-0.48-2.91-0.89-4.32
				c-0.73-2.5-2.04-4.87-3.77-6.86c-0.96-1.09-2.18-1.8-3.46-2.55c-0.71-0.41-1.44-0.84-2.13-1.34c-1.75-1.26-3.82-3.31-3.73-5.91
				c0.11-2.86,2.71-5.9,4.43-7.9c3.17-3.69,8.18-4.34,13.75-1.79c4.45,2.03,8.32,6.66,10.19,10.35c3.87,7.63,0.95,14.88-1.88,21.9
				c-0.31,0.76-0.62,1.55-0.93,2.33c-0.9,2.3-1.43,4.54-2,6.9c-0.11,0.46-0.22,0.92-0.33,1.38c-0.24,0.99-0.62,1.76-0.98,2.5
				c-0.19,0.39-0.39,0.8-0.57,1.24L222.57,251.54z M210.83,222.74c0.13,0.13,0.25,0.26,0.37,0.39c1.83,2.09,3.2,4.58,3.97,7.21
				c0.43,1.46,0.67,2.97,0.91,4.43c0.17,1.04,0.35,2.12,0.59,3.17c0.34,1.47,0.99,2.75,1.67,4.09c0.34,0.67,0.69,1.36,1.01,2.09
				c0.12,0.27,0.23,0.54,0.35,0.82c0.73,1.71,1.48,3.47,2.58,4.86c0.1-0.21,0.19-0.41,0.29-0.6c0.35-0.73,0.69-1.41,0.91-2.31
				c0.11-0.46,0.22-0.92,0.33-1.38c0.57-2.4,1.12-4.66,2.04-7.03c0.3-0.78,0.62-1.57,0.93-2.33c2.87-7.14,5.59-13.87,1.91-21.12
				c-1.8-3.54-5.51-7.98-9.74-9.92c-2.44-1.12-8.56-3.2-12.64,1.55c-1.54,1.79-4.11,4.79-4.2,7.32c-0.08,2.18,1.77,3.98,3.33,5.1
				c0.66,0.47,1.37,0.89,2.06,1.29C208.65,221.05,209.84,221.74,210.83,222.74z"/>
		</g>
		<g>
			<path class="st5" d="M287.37,268.23c0,0,16.85-24.16,21.64-36.15c0,0,0,0,0,0c0.35-0.49,0.71-0.98,1.1-1.44
				c0.44-1.32,1.23-2.51,2.34-3.46c-1.27-0.31-2.56-0.31-3.65,0c-0.79-1.99-1.35-4-1.66-5.99c-1.44,0.09-2.89,0.19-4.33,0.28
				c-1.23,0.08-2.63,0.12-3.79-0.56c-1.55-0.92-1.84-2.66-3.25-3.73c-2.43-1.85-5.86-0.4-8.82-1.45c-1.67-0.6-2.89-1.88-4.18-2.98
				c-1.3-1.1-3.1-2.16-4.65-1.9c-0.42,0.07-0.79,0.23-1.22,0.27c-2.59,0.2-4.63-3.84-7.22-3.64c-1.01,0.08-1.76,0.83-2.69,0.85
				c-0.4-0.14-0.81-0.28-1.21-0.42c-0.17-0.13-0.33-0.27-0.48-0.41l-3.49-3.24c-0.31-0.29-0.64-0.59-1.06-0.73
				c-0.3-0.1-0.61-0.11-0.91-0.11c-2.13-0.01-4.19,0.18-6.16,0.54c-0.46-0.14-0.92-0.28-1.39-0.42c-1.16-1.12-2.31-2.24-3.47-3.37
				c-0.24-0.23-0.51-0.48-0.84-0.54c-0.33-0.07-0.61,0.07-0.84,0.2c-0.94,0.51-1.89,1.03-2.83,1.54c-0.43-0.1-0.85-0.19-1.28-0.28
				c-0.63-0.96-1.41-1.87-2.32-2.72c-0.24,0.95-0.77,1.64-1.4,2.26c-0.96-0.15-1.85-0.42-2.52-1.03c-0.21,0.78,0.27,1.67,1.05,2.41
				c-0.09,0.09-0.19,0.19-0.28,0.29c0.03,0.05,0.05,0.1,0.08,0.16c0,0,0,0,0,0c-0.33,0.43-0.59,0.92-0.85,1.4
				c-2.5,4.68-7,10.03-9.5,14.71c-2.63,4.92-5.28,9.9-6.64,15.46c-1.46,5.98-0.97,12.41,1.33,18.68
				c2.78,7.61,20.23,15.46,20.23,15.46L287.37,268.23z M309.54,230.69c0.08-0.21,0.16-0.42,0.23-0.63
				C309.7,230.27,309.62,230.48,309.54,230.69z M309.93,229.64c0.13-0.36,0.26-0.73,0.38-1.1
				C310.19,228.91,310.06,229.28,309.93,229.64z M238.33,201.76c-0.08,0.06-0.15,0.12-0.22,0.19
				C238.18,201.89,238.25,201.82,238.33,201.76z M238.04,202.02c-0.05,0.05-0.1,0.1-0.14,0.15
				C237.95,202.11,237.99,202.06,238.04,202.02z M237.84,202.24c-0.05,0.06-0.1,0.12-0.15,0.19
				C237.73,202.36,237.78,202.3,237.84,202.24z"/>
		</g>
		<g>
			<path class="st5" d="M214.61,268.17c0,0,0.51-1.18,0.75-1.78c2.61-6.52,3.77-13.51,4.92-20.44c2.25,2.59,5.12,4.56,7.96,6.49
				c8.43,5.76,25.83,15.73,25.83,15.73L214.61,268.17z"/>
		</g>
		<g>
			<g>
				<path class="st20" d="M211.79,223.37c-0.58-1.95-1.03-3.97-1.93-5.81c-0.42-0.87-0.97-1.71-1.71-2.35
					c-0.84-0.73-1.84-1.26-2.79-1.82c-1.01-0.59-2.04-1.25-2.65-2.28c-0.31-0.52-1.13-0.06-0.82,0.47c1.15,1.95,3.37,2.68,5.13,3.93
					c1.61,1.15,2.35,3.05,2.93,4.86c0.34,1.07,0.61,2.16,0.93,3.23C211.05,224.19,211.96,223.96,211.79,223.37L211.79,223.37z"/>
			</g>
		</g>
		<g>
			<defs>
				<path id="SVGID_00000011742316822020076630000006669660959539509136_" d="M240.79,267.83c4.52,2.37,9.05,4.73,13.57,7.1
					c2.93,1.53,5.94,3.09,9.08,3.57c3.85,0.59,7.49-0.51,10.99-1.59c2.48-0.77,4.99-1.55,7.13-2.92c3.31-2.12,5.52-5.5,7.66-8.81
					c7.62-11.8,16.22-22.8,20.81-36.38c-1.02,1.4-3.03,1.92-4.68,2.55c-1.64,0.63-4.01,0.13-5.01-1.58
					c-0.99-1.68-0.45-4.02-1.99-5.24c-1.58-1.26-3.5-0.01-5.21,0.55c-2.13,0.7-4.8,0.11-6.75-1.49c-1.75-1.44-2.97-3.62-4.99-4.57
					c-3.03-1.43-6.26,0.65-9.4-0.4c-3.84-1.28-7.35-14.23-11.25-15.1c-1.44-0.32-7.11,0.79-8.53,0.84c0,0-1.55-2.96-3.4-4.2
					c-2.4-1.6-3.57,2.78-5.8,0.92s-3.01-0.61-4.99,0.93c-0.69,0.53-1.12,1.33-1.53,2.1c-2.5,4.68-7,10.03-9.5,14.71
					c-2.63,4.92-5.28,9.9-6.64,15.46c-1.46,5.98-0.97,12.41,1.33,18.68C224.48,260.57,233.98,264.27,240.79,267.83z"/>
			</defs>
			<clipPath id="SVGID_00000113314983785499595990000004378514926969112712_">
				<use xlink:href="#SVGID_00000011742316822020076630000006669660959539509136_"  style="overflow:visible;"/>
			</clipPath>
			<g style="clip-path:url(#SVGID_00000113314983785499595990000004378514926969112712_);">
				<path class="st5" d="M262.23,216.75c-3.99-0.36-8.15,0.12-11.66,2.05c-3.51,1.93-6.26,5.48-6.58,9.47s2.18,8.22,6.04,9.29
					c-2.87-0.74-6.01-1.37-8.71-0.14c-3.81,1.74-5.22,6.74-4.1,10.77c1.12,4.03,4.15,7.23,7.29,10
					c3.81,3.36,12.53,10.01,12.53,10.01l-9.19,0.14c0,0-15.02-8.34-21.29-14.17c-2.75-2.55-5.33-5.32-7.26-8.53
					c-0.82-1.37-1.53-2.82-1.86-4.38c-0.24-1.12-0.29-2.28-0.28-3.43c0.08-12.44,6.2-24.01,13.03-34.41c1.49-2.27,8.03-7,5.93-5.27
					c-10.28,8.42-37.91,30.52,5.8,0.94c10.76-7.28,24.37,7.73,34.72,18.84c-2.02,0.56-3.34,1.11-5.45,0.65
					C268.18,217.93,265.31,217.03,262.23,216.75z"/>
			</g>
		</g>
		<path class="st33" d="M211.78,283.99"/>
	</g>
</g>
<g id="OBJECTS">
</g>
</svg>
