<?xml version="1.0" encoding="utf-8"?>
<!-- Generator: Adobe Illustrator 25.4.1, SVG Export Plug-In . SVG Version: 6.00 Build 0)  -->
<svg version="1.1" id="Capa_1" xmlns="http://www.w3.org/2000/svg" xmlns:xlink="http://www.w3.org/1999/xlink" x="0px" y="0px"
	 viewBox="0 0 393 268.5" style="enable-background:new 0 0 393 268.5;" xml:space="preserve">
<style type="text/css">
	.st0{fill:#F02B3C;}
	.st1{clip-path:url(#SVGID_00000096745330920326839560000008079716980223441549_);}
	.st2{fill:#E10D17;}
	.st3{fill:#FFFFFF;}
</style>
<rect class="st0" width="393" height="268.5"/>
<g>
	<g>
		<defs>
			<rect id="SVGID_1_" x="0.84" y="0.16" width="393" height="268.5"/>
		</defs>
		<clipPath id="SVGID_00000031886067976122701980000004834826120996683941_">
			<use xlink:href="#SVGID_1_"  style="overflow:visible;"/>
		</clipPath>
		<g style="clip-path:url(#SVGID_00000031886067976122701980000004834826120996683941_);">
			<g>
				<path class="st2" d="M45.02,395.16c1.55-3.13,1.79-6.95-0.22-9.73c-1.42-1.97-3.85-3.16-6.28-3.12s-4.81,1.28-6.26,3.23
					c-1.45-1.95-3.83-3.19-6.26-3.23s-4.86,1.15-6.28,3.12c-2.01,2.78-1.77,6.6-0.22,9.73H45.02z"/>
				<path class="st2" d="M92.26,395.16c1.55-3.13,1.79-6.95-0.22-9.73c-1.42-1.97-3.85-3.16-6.28-3.12s-4.81,1.28-6.26,3.23
					c-1.45-1.95-3.83-3.19-6.26-3.23s-4.86,1.15-6.28,3.12c-2.01,2.78-1.77,6.6-0.22,9.73H92.26z"/>
				<path class="st2" d="M139.51,395.16c1.55-3.13,1.79-6.95-0.22-9.73c-1.42-1.97-3.85-3.16-6.28-3.12s-4.81,1.28-6.26,3.23
					c-1.45-1.95-3.83-3.19-6.26-3.23s-4.86,1.15-6.28,3.12c-2.01,2.78-1.77,6.6-0.22,9.73H139.51z"/>
				<path class="st2" d="M186.75,395.16c1.55-3.13,1.79-6.95-0.22-9.73c-1.42-1.97-3.85-3.16-6.28-3.12s-4.81,1.28-6.26,3.23
					c-1.45-1.95-3.83-3.19-6.26-3.23s-4.86,1.15-6.28,3.12c-2.01,2.78-1.77,6.6-0.22,9.73H186.75z"/>
				<path class="st2" d="M234,395.16c1.55-3.13,1.79-6.95-0.22-9.73c-1.42-1.97-3.85-3.16-6.28-3.12s-4.81,1.28-6.26,3.23
					c-1.45-1.95-3.83-3.19-6.26-3.23s-4.86,1.15-6.28,3.12c-2.01,2.78-1.77,6.6-0.22,9.73H234z"/>
				<path class="st2" d="M281.24,395.16c1.55-3.13,1.79-6.95-0.22-9.73c-1.42-1.97-3.85-3.16-6.28-3.12s-4.81,1.28-6.26,3.23
					c-1.45-1.95-3.83-3.19-6.26-3.23c-2.43-0.04-4.86,1.15-6.28,3.12c-2.01,2.78-1.77,6.6-0.22,9.73H281.24z"/>
				<path class="st2" d="M328.49,395.16c1.55-3.13,1.79-6.95-0.22-9.73c-1.42-1.97-3.85-3.16-6.28-3.12s-4.81,1.28-6.26,3.23
					c-1.45-1.95-3.83-3.19-6.26-3.23c-2.43-0.04-4.86,1.15-6.28,3.12c-2.01,2.78-1.77,6.6-0.22,9.73H328.49z"/>
				<path class="st2" d="M375.73,395.16c1.55-3.13,1.79-6.95-0.22-9.73c-1.42-1.97-3.85-3.16-6.28-3.12s-4.81,1.28-6.26,3.23
					c-1.45-1.95-3.83-3.19-6.26-3.23c-2.43-0.04-4.86,1.15-6.28,3.12c-2.01,2.78-1.77,6.6-0.22,9.73H375.73z"/>
				<path class="st2" d="M21.17,355.18c-1.42-1.97-3.85-3.16-6.28-3.12s-4.81,1.28-6.26,3.23c-1.45-1.95-3.83-3.19-6.26-3.23
					c-0.51-0.01-1.03,0.04-1.53,0.14v18.07c2.45,1.64,5.32,2.91,7.79,4.15c3.84-1.92,8.68-3.94,11.36-7.3
					C22.68,363.76,23.69,358.66,21.17,355.18z"/>
				<path class="st2" d="M68.42,355.18c-1.42-1.97-3.85-3.16-6.28-3.12s-4.81,1.28-6.26,3.23c-1.45-1.95-3.83-3.19-6.26-3.23
					s-4.86,1.15-6.28,3.12c-2.52,3.48-1.5,8.58,1.18,11.94c2.68,3.36,7.52,5.38,11.37,7.3c3.84-1.92,8.68-3.94,11.36-7.3
					C69.92,363.76,70.94,358.66,68.42,355.18z"/>
				<path class="st2" d="M115.66,355.18c-1.42-1.97-3.85-3.16-6.28-3.12s-4.81,1.28-6.26,3.23c-1.45-1.95-3.83-3.19-6.26-3.23
					s-4.86,1.15-6.28,3.12c-2.52,3.48-1.5,8.58,1.18,11.94c2.68,3.36,7.52,5.38,11.37,7.3c3.84-1.92,8.68-3.94,11.36-7.3
					C117.17,363.76,118.18,358.66,115.66,355.18z"/>
				<path class="st2" d="M162.91,355.18c-1.42-1.97-3.85-3.16-6.28-3.12s-4.81,1.28-6.26,3.23c-1.45-1.95-3.83-3.19-6.26-3.23
					s-4.86,1.15-6.28,3.12c-2.52,3.48-1.5,8.58,1.18,11.94c2.68,3.36,7.52,5.38,11.37,7.3c3.84-1.92,8.68-3.94,11.36-7.3
					C164.41,363.76,165.43,358.66,162.91,355.18z"/>
				<path class="st2" d="M210.15,355.18c-1.42-1.97-3.85-3.16-6.28-3.12s-4.81,1.28-6.26,3.23c-1.45-1.95-3.83-3.19-6.26-3.23
					s-4.86,1.15-6.28,3.12c-2.52,3.48-1.5,8.58,1.18,11.94c2.68,3.36,7.52,5.38,11.36,7.3c3.84-1.92,8.68-3.94,11.37-7.3
					C211.66,363.76,212.67,358.66,210.15,355.18z"/>
				<path class="st2" d="M257.4,355.18c-1.42-1.97-3.85-3.16-6.28-3.12s-4.81,1.28-6.26,3.23c-1.45-1.95-3.83-3.19-6.26-3.23
					s-4.86,1.15-6.28,3.12c-2.52,3.48-1.5,8.58,1.18,11.94c2.68,3.36,7.52,5.38,11.36,7.3c3.84-1.92,8.68-3.94,11.37-7.3
					C258.9,363.76,259.92,358.66,257.4,355.18z"/>
				<path class="st2" d="M304.64,355.18c-1.42-1.97-3.85-3.16-6.28-3.12s-4.81,1.28-6.26,3.23c-1.45-1.95-3.83-3.19-6.26-3.23
					c-2.43-0.04-4.86,1.15-6.28,3.12c-2.52,3.48-1.5,8.58,1.18,11.94c2.68,3.36,7.52,5.38,11.36,7.3c3.84-1.92,8.68-3.94,11.37-7.3
					C306.15,363.76,307.16,358.66,304.64,355.18z"/>
				<path class="st2" d="M351.89,355.18c-1.42-1.97-3.85-3.16-6.28-3.12s-4.81,1.28-6.26,3.23c-1.45-1.95-3.83-3.19-6.26-3.23
					c-2.43-0.04-4.86,1.15-6.28,3.12c-2.52,3.48-1.5,8.58,1.18,11.94c2.68,3.36,7.52,5.38,11.36,7.3c3.84-1.92,8.68-3.94,11.37-7.3
					C353.39,363.76,354.41,358.66,351.89,355.18z"/>
				<path class="st2" d="M395.84,352.63c-0.95-0.39-1.97-0.59-2.99-0.57c-2.43,0.04-4.81,1.28-6.26,3.23
					c-1.45-1.95-3.83-3.19-6.26-3.23c-2.43-0.04-4.86,1.15-6.28,3.12c-2.52,3.48-1.5,8.58,1.18,11.94c2.68,3.36,7.52,5.38,11.36,7.3
					c2.98-1.49,6.54-3.03,9.25-5.21L395.84,352.63L395.84,352.63z"/>
				<path class="st2" d="M44.8,324.94c-1.42-1.97-3.85-3.16-6.28-3.12s-4.81,1.28-6.26,3.23c-1.45-1.95-3.83-3.19-6.26-3.23
					s-4.86,1.15-6.28,3.12c-2.52,3.48-1.5,8.58,1.18,11.94c2.68,3.36,7.52,5.38,11.36,7.3c3.84-1.92,8.68-3.94,11.37-7.3
					C46.3,333.52,47.32,328.42,44.8,324.94z"/>
				<path class="st2" d="M92.04,324.94c-1.42-1.97-3.85-3.16-6.28-3.12s-4.81,1.28-6.26,3.23c-1.45-1.95-3.83-3.19-6.26-3.23
					s-4.86,1.15-6.28,3.12c-2.52,3.48-1.5,8.58,1.18,11.94c2.68,3.36,7.52,5.38,11.36,7.3c3.84-1.92,8.68-3.94,11.37-7.3
					C93.55,333.52,94.56,328.42,92.04,324.94z"/>
				<path class="st2" d="M139.29,324.94c-1.42-1.97-3.85-3.16-6.28-3.12s-4.81,1.28-6.26,3.23c-1.45-1.95-3.83-3.19-6.26-3.23
					s-4.86,1.15-6.28,3.12c-2.52,3.48-1.5,8.58,1.18,11.94c2.68,3.36,7.52,5.38,11.36,7.3c3.84-1.92,8.68-3.94,11.37-7.3
					C140.79,333.52,141.81,328.42,139.29,324.94z"/>
				<path class="st2" d="M186.53,324.94c-1.42-1.97-3.85-3.16-6.28-3.12s-4.81,1.28-6.26,3.23c-1.45-1.95-3.83-3.19-6.26-3.23
					s-4.86,1.15-6.28,3.12c-2.52,3.48-1.5,8.58,1.18,11.94c2.68,3.36,7.52,5.38,11.37,7.3c3.84-1.92,8.68-3.94,11.37-7.3
					C188.04,333.52,189.05,328.42,186.53,324.94z"/>
				<path class="st2" d="M233.78,324.94c-1.42-1.97-3.85-3.16-6.28-3.12s-4.81,1.28-6.26,3.23c-1.45-1.95-3.83-3.19-6.26-3.23
					s-4.86,1.15-6.28,3.12c-2.52,3.48-1.5,8.58,1.18,11.94c2.68,3.36,7.52,5.38,11.37,7.3c3.84-1.92,8.68-3.94,11.36-7.3
					C235.28,333.52,236.3,328.42,233.78,324.94z"/>
				<path class="st2" d="M281.02,324.94c-1.42-1.97-3.85-3.16-6.28-3.12s-4.81,1.28-6.26,3.23c-1.45-1.95-3.83-3.19-6.26-3.23
					c-2.43-0.04-4.86,1.15-6.28,3.12c-2.52,3.48-1.5,8.58,1.18,11.94c2.68,3.36,7.52,5.38,11.37,7.3c3.84-1.92,8.68-3.94,11.37-7.3
					C282.53,333.52,283.54,328.42,281.02,324.94z"/>
				<path class="st2" d="M328.27,324.94c-1.42-1.97-3.85-3.16-6.28-3.12s-4.81,1.28-6.26,3.23c-1.45-1.95-3.83-3.19-6.26-3.23
					c-2.43-0.04-4.86,1.15-6.28,3.12c-2.52,3.48-1.5,8.58,1.18,11.94c2.68,3.36,7.52,5.38,11.37,7.3c3.84-1.92,8.68-3.94,11.37-7.3
					C329.77,333.52,330.79,328.42,328.27,324.94z"/>
				<path class="st2" d="M375.51,324.94c-1.42-1.97-3.85-3.16-6.28-3.12s-4.81,1.28-6.26,3.23c-1.45-1.95-3.83-3.19-6.26-3.23
					c-2.43-0.04-4.86,1.15-6.28,3.12c-2.52,3.48-1.5,8.58,1.18,11.94c2.68,3.36,7.52,5.38,11.37,7.3c3.84-1.92,8.68-3.94,11.37-7.3
					C377.02,333.52,378.03,328.42,375.51,324.94z"/>
				<path class="st2" d="M21.17,294.69c-1.42-1.97-3.85-3.16-6.28-3.12s-4.81,1.28-6.26,3.23c-1.45-1.95-3.83-3.19-6.26-3.23
					c-0.51-0.01-1.03,0.04-1.53,0.14v18.07c2.45,1.64,5.32,2.91,7.79,4.15c3.84-1.92,8.68-3.94,11.36-7.3
					C22.68,303.27,23.69,298.17,21.17,294.69z"/>
				<path class="st2" d="M68.42,294.69c-1.42-1.97-3.85-3.16-6.28-3.12s-4.81,1.28-6.26,3.23c-1.45-1.95-3.83-3.19-6.26-3.23
					s-4.86,1.15-6.28,3.12c-2.52,3.48-1.5,8.58,1.18,11.94c2.68,3.36,7.52,5.38,11.37,7.3c3.84-1.92,8.68-3.94,11.36-7.3
					C69.92,303.27,70.94,298.17,68.42,294.69z"/>
				<path class="st2" d="M115.66,294.69c-1.42-1.97-3.85-3.16-6.28-3.12s-4.81,1.28-6.26,3.23c-1.45-1.95-3.83-3.19-6.26-3.23
					s-4.86,1.15-6.28,3.12c-2.52,3.48-1.5,8.58,1.18,11.94c2.68,3.36,7.52,5.38,11.37,7.3c3.84-1.92,8.68-3.94,11.36-7.3
					C117.17,303.27,118.18,298.17,115.66,294.69z"/>
				<path class="st2" d="M162.91,294.69c-1.42-1.97-3.85-3.16-6.28-3.12s-4.81,1.28-6.26,3.23c-1.45-1.95-3.83-3.19-6.26-3.23
					s-4.86,1.15-6.28,3.12c-2.52,3.48-1.5,8.58,1.18,11.94c2.68,3.36,7.52,5.38,11.37,7.3c3.84-1.92,8.68-3.94,11.36-7.3
					C164.41,303.27,165.43,298.17,162.91,294.69z"/>
				<path class="st2" d="M210.15,294.69c-1.42-1.97-3.85-3.16-6.28-3.12s-4.81,1.28-6.26,3.23c-1.45-1.95-3.83-3.19-6.26-3.23
					s-4.86,1.15-6.28,3.12c-2.52,3.48-1.5,8.58,1.18,11.94c2.68,3.36,7.52,5.38,11.36,7.3c3.84-1.92,8.68-3.94,11.37-7.3
					C211.66,303.27,212.67,298.17,210.15,294.69z"/>
				<path class="st2" d="M257.4,294.69c-1.42-1.97-3.85-3.16-6.28-3.12s-4.81,1.28-6.26,3.23c-1.45-1.95-3.83-3.19-6.26-3.23
					s-4.86,1.15-6.28,3.12c-2.52,3.48-1.5,8.58,1.18,11.94c2.68,3.36,7.52,5.38,11.36,7.3c3.84-1.92,8.68-3.94,11.37-7.3
					C258.9,303.27,259.92,298.17,257.4,294.69z"/>
				<path class="st2" d="M304.64,294.69c-1.42-1.97-3.85-3.16-6.28-3.12s-4.81,1.28-6.26,3.23c-1.45-1.95-3.83-3.19-6.26-3.23
					c-2.43-0.04-4.86,1.15-6.28,3.12c-2.52,3.48-1.5,8.58,1.18,11.94c2.68,3.36,7.52,5.38,11.36,7.3c3.84-1.92,8.68-3.94,11.37-7.3
					C306.15,303.27,307.16,298.17,304.64,294.69z"/>
				<path class="st2" d="M351.89,294.69c-1.42-1.97-3.85-3.16-6.28-3.12s-4.81,1.28-6.26,3.23c-1.45-1.95-3.83-3.19-6.26-3.23
					c-2.43-0.04-4.86,1.15-6.28,3.12c-2.52,3.48-1.5,8.58,1.18,11.94c2.68,3.36,7.52,5.38,11.36,7.3c3.84-1.92,8.68-3.94,11.37-7.3
					C353.39,303.27,354.41,298.17,351.89,294.69z"/>
				<path class="st2" d="M395.84,292.14c-0.95-0.39-1.97-0.59-2.99-0.57c-2.43,0.04-4.81,1.28-6.26,3.23
					c-1.45-1.95-3.83-3.19-6.26-3.23c-2.43-0.04-4.86,1.15-6.28,3.12c-2.52,3.48-1.5,8.58,1.18,11.94c2.68,3.36,7.52,5.38,11.36,7.3
					c2.98-1.49,6.54-3.03,9.25-5.21L395.84,292.14L395.84,292.14z"/>
				<path class="st2" d="M44.8,264.45c-1.42-1.97-3.85-3.16-6.28-3.12s-4.81,1.28-6.26,3.23c-1.45-1.95-3.83-3.19-6.26-3.23
					s-4.86,1.15-6.28,3.12c-2.52,3.48-1.5,8.58,1.18,11.94c2.68,3.36,7.52,5.38,11.36,7.3c3.84-1.92,8.68-3.94,11.37-7.3
					C46.3,273.03,47.32,267.93,44.8,264.45z"/>
				<path class="st2" d="M92.04,264.45c-1.42-1.97-3.85-3.16-6.28-3.12s-4.81,1.28-6.26,3.23c-1.45-1.95-3.83-3.19-6.26-3.23
					s-4.86,1.15-6.28,3.12c-2.52,3.48-1.5,8.58,1.18,11.94c2.68,3.36,7.52,5.38,11.36,7.3c3.84-1.92,8.68-3.94,11.37-7.3
					C93.55,273.03,94.56,267.93,92.04,264.45z"/>
				<path class="st2" d="M139.29,264.45c-1.42-1.97-3.85-3.16-6.28-3.12s-4.81,1.28-6.26,3.23c-1.45-1.95-3.83-3.19-6.26-3.23
					s-4.86,1.15-6.28,3.12c-2.52,3.48-1.5,8.58,1.18,11.94c2.68,3.36,7.52,5.38,11.36,7.3c3.84-1.92,8.68-3.94,11.37-7.3
					C140.79,273.03,141.81,267.93,139.29,264.45z"/>
				<path class="st2" d="M186.53,264.45c-1.42-1.97-3.85-3.16-6.28-3.12s-4.81,1.28-6.26,3.23c-1.45-1.95-3.83-3.19-6.26-3.23
					s-4.86,1.15-6.28,3.12c-2.52,3.48-1.5,8.58,1.18,11.94c2.68,3.36,7.52,5.38,11.37,7.3c3.84-1.92,8.68-3.94,11.37-7.3
					C188.04,273.03,189.05,267.93,186.53,264.45z"/>
				<path class="st2" d="M233.78,264.45c-1.42-1.97-3.85-3.16-6.28-3.12s-4.81,1.28-6.26,3.23c-1.45-1.95-3.83-3.19-6.26-3.23
					s-4.86,1.15-6.28,3.12c-2.52,3.48-1.5,8.58,1.18,11.94c2.68,3.36,7.52,5.38,11.37,7.3c3.84-1.92,8.68-3.94,11.36-7.3
					C235.28,273.03,236.3,267.93,233.78,264.45z"/>
				<path class="st2" d="M281.02,264.45c-1.42-1.97-3.85-3.16-6.28-3.12s-4.81,1.28-6.26,3.23c-1.45-1.95-3.83-3.19-6.26-3.23
					c-2.43-0.04-4.86,1.15-6.28,3.12c-2.52,3.48-1.5,8.58,1.18,11.94c2.68,3.36,7.52,5.38,11.37,7.3c3.84-1.92,8.68-3.94,11.37-7.3
					C282.53,273.03,283.54,267.93,281.02,264.45z"/>
				<path class="st2" d="M328.27,264.45c-1.42-1.97-3.85-3.16-6.28-3.12s-4.81,1.28-6.26,3.23c-1.45-1.95-3.83-3.19-6.26-3.23
					c-2.43-0.04-4.86,1.15-6.28,3.12c-2.52,3.48-1.5,8.58,1.18,11.94c2.68,3.36,7.52,5.38,11.37,7.3c3.84-1.92,8.68-3.94,11.37-7.3
					C329.77,273.03,330.79,267.93,328.27,264.45z"/>
				<path class="st2" d="M375.51,264.45c-1.42-1.97-3.85-3.16-6.28-3.12s-4.81,1.28-6.26,3.23c-1.45-1.95-3.83-3.19-6.26-3.23
					c-2.43-0.04-4.86,1.15-6.28,3.12c-2.52,3.48-1.5,8.58,1.18,11.94c2.68,3.36,7.52,5.38,11.37,7.3c3.84-1.92,8.68-3.94,11.37-7.3
					C377.02,273.03,378.03,267.93,375.51,264.45z"/>
				<path class="st2" d="M21.17,234.2c-1.42-1.97-3.85-3.16-6.28-3.12c-2.43,0.04-4.81,1.28-6.26,3.23
					c-1.45-1.95-3.83-3.19-6.26-3.23c-0.51-0.01-1.03,0.04-1.53,0.14v18.07c2.45,1.64,5.32,2.91,7.79,4.15
					c3.84-1.92,8.68-3.94,11.36-7.3C22.68,242.78,23.69,237.68,21.17,234.2z"/>
				<path class="st2" d="M68.42,234.2c-1.42-1.97-3.85-3.16-6.28-3.12c-2.43,0.04-4.81,1.28-6.26,3.23
					c-1.45-1.95-3.83-3.19-6.26-3.23s-4.86,1.15-6.28,3.12c-2.52,3.48-1.5,8.58,1.18,11.94s7.52,5.38,11.37,7.3
					c3.84-1.92,8.68-3.94,11.36-7.3C69.92,242.78,70.94,237.68,68.42,234.2z"/>
				<path class="st2" d="M115.66,234.2c-1.42-1.97-3.85-3.16-6.28-3.12c-2.43,0.04-4.81,1.28-6.26,3.23
					c-1.45-1.95-3.83-3.19-6.26-3.23s-4.86,1.15-6.28,3.12c-2.52,3.48-1.5,8.58,1.18,11.94s7.52,5.38,11.37,7.3
					c3.84-1.92,8.68-3.94,11.36-7.3C117.17,242.78,118.18,237.68,115.66,234.2z"/>
				<path class="st2" d="M162.91,234.2c-1.42-1.97-3.85-3.16-6.28-3.12c-2.43,0.04-4.81,1.28-6.26,3.23
					c-1.45-1.95-3.83-3.19-6.26-3.23s-4.86,1.15-6.28,3.12c-2.52,3.48-1.5,8.58,1.18,11.94s7.52,5.38,11.37,7.3
					c3.84-1.92,8.68-3.94,11.36-7.3C164.41,242.78,165.43,237.68,162.91,234.2z"/>
				<path class="st2" d="M210.15,234.2c-1.42-1.97-3.85-3.16-6.28-3.12c-2.43,0.04-4.81,1.28-6.26,3.23
					c-1.45-1.95-3.83-3.19-6.26-3.23s-4.86,1.15-6.28,3.12c-2.52,3.48-1.5,8.58,1.18,11.94s7.52,5.38,11.36,7.3
					c3.84-1.92,8.68-3.94,11.37-7.3C211.66,242.78,212.67,237.68,210.15,234.2z"/>
				<path class="st2" d="M257.4,234.2c-1.42-1.97-3.85-3.16-6.28-3.12c-2.43,0.04-4.81,1.28-6.26,3.23
					c-1.45-1.95-3.83-3.19-6.26-3.23s-4.86,1.15-6.28,3.12c-2.52,3.48-1.5,8.58,1.18,11.94s7.52,5.38,11.36,7.3
					c3.84-1.92,8.68-3.94,11.37-7.3C258.9,242.78,259.92,237.68,257.4,234.2z"/>
				<path class="st2" d="M304.64,234.2c-1.42-1.97-3.85-3.16-6.28-3.12c-2.43,0.04-4.81,1.28-6.26,3.23
					c-1.45-1.95-3.83-3.19-6.26-3.23c-2.43-0.04-4.86,1.15-6.28,3.12c-2.52,3.48-1.5,8.58,1.18,11.94s7.52,5.38,11.36,7.3
					c3.84-1.92,8.68-3.94,11.37-7.3C306.15,242.78,307.16,237.68,304.64,234.2z"/>
				<path class="st2" d="M351.89,234.2c-1.42-1.97-3.85-3.16-6.28-3.12c-2.43,0.04-4.81,1.28-6.26,3.23
					c-1.45-1.95-3.83-3.19-6.26-3.23c-2.43-0.04-4.86,1.15-6.28,3.12c-2.52,3.48-1.5,8.58,1.18,11.94s7.52,5.38,11.36,7.3
					c3.84-1.92,8.68-3.94,11.37-7.3C353.39,242.78,354.41,237.68,351.89,234.2z"/>
				<path class="st2" d="M395.84,231.65c-0.95-0.39-1.97-0.59-2.99-0.57c-2.43,0.04-4.81,1.28-6.26,3.23
					c-1.45-1.95-3.83-3.19-6.26-3.23c-2.43-0.04-4.86,1.15-6.28,3.12c-2.52,3.48-1.5,8.58,1.18,11.94s7.52,5.38,11.36,7.3
					c2.98-1.49,6.54-3.03,9.25-5.21L395.84,231.65L395.84,231.65z"/>
				<path class="st2" d="M44.8,203.95c-1.42-1.97-3.85-3.16-6.28-3.12c-2.43,0.04-4.81,1.28-6.26,3.23
					c-1.45-1.95-3.83-3.19-6.26-3.23s-4.86,1.15-6.28,3.12c-2.52,3.48-1.5,8.58,1.18,11.94s7.52,5.38,11.36,7.3
					c3.84-1.92,8.68-3.94,11.37-7.3C46.3,212.54,47.32,207.44,44.8,203.95z"/>
				<path class="st2" d="M92.04,203.95c-1.42-1.97-3.85-3.16-6.28-3.12c-2.43,0.04-4.81,1.28-6.26,3.23
					c-1.45-1.95-3.83-3.19-6.26-3.23s-4.86,1.15-6.28,3.12c-2.52,3.48-1.5,8.58,1.18,11.94s7.52,5.38,11.36,7.3
					c3.84-1.92,8.68-3.94,11.37-7.3C93.55,212.54,94.56,207.44,92.04,203.95z"/>
				<path class="st2" d="M139.29,203.95c-1.42-1.97-3.85-3.16-6.28-3.12c-2.43,0.04-4.81,1.28-6.26,3.23
					c-1.45-1.95-3.83-3.19-6.26-3.23s-4.86,1.15-6.28,3.12c-2.52,3.48-1.5,8.58,1.18,11.94s7.52,5.38,11.36,7.3
					c3.84-1.92,8.68-3.94,11.37-7.3C140.79,212.54,141.81,207.44,139.29,203.95z"/>
				<path class="st2" d="M186.53,203.95c-1.42-1.97-3.85-3.16-6.28-3.12c-2.43,0.04-4.81,1.28-6.26,3.23
					c-1.45-1.95-3.83-3.19-6.26-3.23s-4.86,1.15-6.28,3.12c-2.52,3.48-1.5,8.58,1.18,11.94s7.52,5.38,11.37,7.3
					c3.84-1.92,8.68-3.94,11.37-7.3C188.04,212.54,189.05,207.44,186.53,203.95z"/>
				<path class="st2" d="M233.78,203.95c-1.42-1.97-3.85-3.16-6.28-3.12c-2.43,0.04-4.81,1.28-6.26,3.23
					c-1.45-1.95-3.83-3.19-6.26-3.23s-4.86,1.15-6.28,3.12c-2.52,3.48-1.5,8.58,1.18,11.94s7.52,5.38,11.37,7.3
					c3.84-1.92,8.68-3.94,11.36-7.3C235.28,212.54,236.3,207.44,233.78,203.95z"/>
				<path class="st2" d="M281.02,203.95c-1.42-1.97-3.85-3.16-6.28-3.12c-2.43,0.04-4.81,1.28-6.26,3.23
					c-1.45-1.95-3.83-3.19-6.26-3.23c-2.43-0.04-4.86,1.15-6.28,3.12c-2.52,3.48-1.5,8.58,1.18,11.94s7.52,5.38,11.37,7.3
					c3.84-1.92,8.68-3.94,11.37-7.3C282.53,212.54,283.54,207.44,281.02,203.95z"/>
				<path class="st2" d="M328.27,203.95c-1.42-1.97-3.85-3.16-6.28-3.12c-2.43,0.04-4.81,1.28-6.26,3.23
					c-1.45-1.95-3.83-3.19-6.26-3.23c-2.43-0.04-4.86,1.15-6.28,3.12c-2.52,3.48-1.5,8.58,1.18,11.94s7.52,5.38,11.37,7.3
					c3.84-1.92,8.68-3.94,11.37-7.3C329.77,212.54,330.79,207.44,328.27,203.95z"/>
				<path class="st2" d="M375.51,203.95c-1.42-1.97-3.85-3.16-6.28-3.12c-2.43,0.04-4.81,1.28-6.26,3.23
					c-1.45-1.95-3.83-3.19-6.26-3.23c-2.43-0.04-4.86,1.15-6.28,3.12c-2.52,3.48-1.5,8.58,1.18,11.94s7.52,5.38,11.37,7.3
					c3.84-1.92,8.68-3.94,11.37-7.3C377.02,212.54,378.03,207.44,375.51,203.95z"/>
				<path class="st2" d="M21.17,173.71c-1.42-1.97-3.85-3.16-6.28-3.12c-2.43,0.04-4.81,1.28-6.26,3.23
					c-1.45-1.95-3.83-3.19-6.26-3.23c-0.51-0.01-1.03,0.04-1.53,0.14v18.07c2.45,1.64,5.32,2.91,7.79,4.15
					c3.84-1.92,8.68-3.94,11.36-7.3C22.68,182.29,23.69,177.19,21.17,173.71z"/>
				<path class="st2" d="M68.42,173.71c-1.42-1.97-3.85-3.16-6.28-3.12c-2.43,0.04-4.81,1.28-6.26,3.23
					c-1.45-1.95-3.83-3.19-6.26-3.23s-4.86,1.15-6.28,3.12c-2.52,3.48-1.5,8.58,1.18,11.94s7.52,5.38,11.37,7.3
					c3.84-1.92,8.68-3.94,11.36-7.3C69.92,182.29,70.94,177.19,68.42,173.71z"/>
				<path class="st2" d="M115.66,173.71c-1.42-1.97-3.85-3.16-6.28-3.12c-2.43,0.04-4.81,1.28-6.26,3.23
					c-1.45-1.95-3.83-3.19-6.26-3.23s-4.86,1.15-6.28,3.12c-2.52,3.48-1.5,8.58,1.18,11.94s7.52,5.38,11.37,7.3
					c3.84-1.92,8.68-3.94,11.36-7.3C117.17,182.29,118.18,177.19,115.66,173.71z"/>
				<path class="st2" d="M162.91,173.71c-1.42-1.97-3.85-3.16-6.28-3.12c-2.43,0.04-4.81,1.28-6.26,3.23
					c-1.45-1.95-3.83-3.19-6.26-3.23s-4.86,1.15-6.28,3.12c-2.52,3.48-1.5,8.58,1.18,11.94s7.52,5.38,11.37,7.3
					c3.84-1.92,8.68-3.94,11.36-7.3C164.41,182.29,165.43,177.19,162.91,173.71z"/>
				<path class="st2" d="M210.15,173.71c-1.42-1.97-3.85-3.16-6.28-3.12c-2.43,0.04-4.81,1.28-6.26,3.23
					c-1.45-1.95-3.83-3.19-6.26-3.23s-4.86,1.15-6.28,3.12c-2.52,3.48-1.5,8.58,1.18,11.94s7.52,5.38,11.36,7.3
					c3.84-1.92,8.68-3.94,11.37-7.3C211.66,182.29,212.67,177.19,210.15,173.71z"/>
				<path class="st2" d="M257.4,173.71c-1.42-1.97-3.85-3.16-6.28-3.12c-2.43,0.04-4.81,1.28-6.26,3.23
					c-1.45-1.95-3.83-3.19-6.26-3.23s-4.86,1.15-6.28,3.12c-2.52,3.48-1.5,8.58,1.18,11.94s7.52,5.38,11.36,7.3
					c3.84-1.92,8.68-3.94,11.37-7.3C258.9,182.29,259.92,177.19,257.4,173.71z"/>
				<path class="st2" d="M304.64,173.71c-1.42-1.97-3.85-3.16-6.28-3.12c-2.43,0.04-4.81,1.28-6.26,3.23
					c-1.45-1.95-3.83-3.19-6.26-3.23c-2.43-0.04-4.86,1.15-6.28,3.12c-2.52,3.48-1.5,8.58,1.18,11.94s7.52,5.38,11.36,7.3
					c3.84-1.92,8.68-3.94,11.37-7.3C306.15,182.29,307.16,177.19,304.64,173.71z"/>
				<path class="st2" d="M351.89,173.71c-1.42-1.97-3.85-3.16-6.28-3.12c-2.43,0.04-4.81,1.28-6.26,3.23
					c-1.45-1.95-3.83-3.19-6.26-3.23c-2.43-0.04-4.86,1.15-6.28,3.12c-2.52,3.48-1.5,8.58,1.18,11.94s7.52,5.38,11.36,7.3
					c3.84-1.92,8.68-3.94,11.37-7.3C353.39,182.29,354.41,177.19,351.89,173.71z"/>
				<path class="st2" d="M395.84,171.16c-0.95-0.39-1.97-0.59-2.99-0.57c-2.43,0.04-4.81,1.28-6.26,3.23
					c-1.45-1.95-3.83-3.19-6.26-3.23c-2.43-0.04-4.86,1.15-6.28,3.12c-2.52,3.48-1.5,8.58,1.18,11.94s7.52,5.38,11.36,7.3
					c2.98-1.49,6.54-3.03,9.25-5.21L395.84,171.16L395.84,171.16z"/>
				<path class="st2" d="M44.8,143.46c-1.42-1.97-3.85-3.16-6.28-3.12c-2.43,0.04-4.81,1.28-6.26,3.23
					c-1.45-1.95-3.83-3.19-6.26-3.23s-4.86,1.15-6.28,3.12c-2.52,3.48-1.5,8.58,1.18,11.94s7.52,5.38,11.36,7.3
					c3.84-1.92,8.68-3.94,11.37-7.3C46.3,152.04,47.32,146.95,44.8,143.46z"/>
				<path class="st2" d="M92.04,143.46c-1.42-1.97-3.85-3.16-6.28-3.12c-2.43,0.04-4.81,1.28-6.26,3.23
					c-1.45-1.95-3.83-3.19-6.26-3.23s-4.86,1.15-6.28,3.12c-2.52,3.48-1.5,8.58,1.18,11.94s7.52,5.38,11.36,7.3
					c3.84-1.92,8.68-3.94,11.37-7.3C93.55,152.04,94.56,146.95,92.04,143.46z"/>
				<path class="st2" d="M139.29,143.46c-1.42-1.97-3.85-3.16-6.28-3.12c-2.43,0.04-4.81,1.28-6.26,3.23
					c-1.45-1.95-3.83-3.19-6.26-3.23s-4.86,1.15-6.28,3.12c-2.52,3.48-1.5,8.58,1.18,11.94s7.52,5.38,11.36,7.3
					c3.84-1.92,8.68-3.94,11.37-7.3C140.79,152.04,141.81,146.95,139.29,143.46z"/>
				<path class="st2" d="M186.53,143.46c-1.42-1.97-3.85-3.16-6.28-3.12c-2.43,0.04-4.81,1.28-6.26,3.23
					c-1.45-1.95-3.83-3.19-6.26-3.23s-4.86,1.15-6.28,3.12c-2.52,3.48-1.5,8.58,1.18,11.94s7.52,5.38,11.37,7.3
					c3.84-1.92,8.68-3.94,11.37-7.3C188.04,152.04,189.05,146.95,186.53,143.46z"/>
				<path class="st2" d="M233.78,143.46c-1.42-1.97-3.85-3.16-6.28-3.12c-2.43,0.04-4.81,1.28-6.26,3.23
					c-1.45-1.95-3.83-3.19-6.26-3.23s-4.86,1.15-6.28,3.12c-2.52,3.48-1.5,8.58,1.18,11.94s7.52,5.38,11.37,7.3
					c3.84-1.92,8.68-3.94,11.36-7.3C235.28,152.04,236.3,146.95,233.78,143.46z"/>
				<path class="st2" d="M281.02,143.46c-1.42-1.97-3.85-3.16-6.28-3.12c-2.43,0.04-4.81,1.28-6.26,3.23
					c-1.45-1.95-3.83-3.19-6.26-3.23c-2.43-0.04-4.86,1.15-6.28,3.12c-2.52,3.48-1.5,8.58,1.18,11.94s7.52,5.38,11.37,7.3
					c3.84-1.92,8.68-3.94,11.37-7.3C282.53,152.04,283.54,146.95,281.02,143.46z"/>
				<path class="st2" d="M328.27,143.46c-1.42-1.97-3.85-3.16-6.28-3.12c-2.43,0.04-4.81,1.28-6.26,3.23
					c-1.45-1.95-3.83-3.19-6.26-3.23c-2.43-0.04-4.86,1.15-6.28,3.12c-2.52,3.48-1.5,8.58,1.18,11.94s7.52,5.38,11.37,7.3
					c3.84-1.92,8.68-3.94,11.37-7.3C329.77,152.04,330.79,146.95,328.27,143.46z"/>
				<path class="st2" d="M375.51,143.46c-1.42-1.97-3.85-3.16-6.28-3.12c-2.43,0.04-4.81,1.28-6.26,3.23
					c-1.45-1.95-3.83-3.19-6.26-3.23c-2.43-0.04-4.86,1.15-6.28,3.12c-2.52,3.48-1.5,8.58,1.18,11.94s7.52,5.38,11.37,7.3
					c3.84-1.92,8.68-3.94,11.37-7.3C377.02,152.04,378.03,146.95,375.51,143.46z"/>
				<path class="st2" d="M21.17,113.22c-1.42-1.97-3.85-3.16-6.28-3.12s-4.81,1.28-6.26,3.23c-1.45-1.95-3.83-3.19-6.26-3.23
					c-0.51-0.01-1.03,0.04-1.53,0.14v18.07c2.45,1.64,5.32,2.91,7.79,4.15c3.84-1.92,8.68-3.94,11.36-7.3
					C22.68,121.8,23.69,116.7,21.17,113.22z"/>
				<path class="st2" d="M68.42,113.22c-1.42-1.97-3.85-3.16-6.28-3.12s-4.81,1.28-6.26,3.23c-1.45-1.95-3.83-3.19-6.26-3.23
					s-4.86,1.15-6.28,3.12c-2.52,3.48-1.5,8.58,1.18,11.94s7.52,5.38,11.37,7.3c3.84-1.92,8.68-3.94,11.36-7.3
					C69.92,121.8,70.94,116.7,68.42,113.22z"/>
				<path class="st2" d="M115.66,113.22c-1.42-1.97-3.85-3.16-6.28-3.12s-4.81,1.28-6.26,3.23c-1.45-1.95-3.83-3.19-6.26-3.23
					s-4.86,1.15-6.28,3.12c-2.52,3.48-1.5,8.58,1.18,11.94s7.52,5.38,11.37,7.3c3.84-1.92,8.68-3.94,11.36-7.3
					C117.17,121.8,118.18,116.7,115.66,113.22z"/>
				<path class="st2" d="M162.91,113.22c-1.42-1.97-3.85-3.16-6.28-3.12s-4.81,1.28-6.26,3.23c-1.45-1.95-3.83-3.19-6.26-3.23
					s-4.86,1.15-6.28,3.12c-2.52,3.48-1.5,8.58,1.18,11.94s7.52,5.38,11.37,7.3c3.84-1.92,8.68-3.94,11.36-7.3
					C164.41,121.8,165.43,116.7,162.91,113.22z"/>
				<path class="st2" d="M210.15,113.22c-1.42-1.97-3.85-3.16-6.28-3.12s-4.81,1.28-6.26,3.23c-1.45-1.95-3.83-3.19-6.26-3.23
					s-4.86,1.15-6.28,3.12c-2.52,3.48-1.5,8.58,1.18,11.94s7.52,5.38,11.36,7.3c3.84-1.92,8.68-3.94,11.37-7.3
					C211.66,121.8,212.67,116.7,210.15,113.22z"/>
				<path class="st2" d="M257.4,113.22c-1.42-1.97-3.85-3.16-6.28-3.12s-4.81,1.28-6.26,3.23c-1.45-1.95-3.83-3.19-6.26-3.23
					s-4.86,1.15-6.28,3.12c-2.52,3.48-1.5,8.58,1.18,11.94s7.52,5.38,11.36,7.3c3.84-1.92,8.68-3.94,11.37-7.3
					C258.9,121.8,259.92,116.7,257.4,113.22z"/>
				<path class="st2" d="M304.64,113.22c-1.42-1.97-3.85-3.16-6.28-3.12s-4.81,1.28-6.26,3.23c-1.45-1.95-3.83-3.19-6.26-3.23
					c-2.43-0.04-4.86,1.15-6.28,3.12c-2.52,3.48-1.5,8.58,1.18,11.94s7.52,5.38,11.36,7.3c3.84-1.92,8.68-3.94,11.37-7.3
					C306.15,121.8,307.16,116.7,304.64,113.22z"/>
				<path class="st2" d="M351.89,113.22c-1.42-1.97-3.85-3.16-6.28-3.12s-4.81,1.28-6.26,3.23c-1.45-1.95-3.83-3.19-6.26-3.23
					c-2.43-0.04-4.86,1.15-6.28,3.12c-2.52,3.48-1.5,8.58,1.18,11.94s7.52,5.38,11.36,7.3c3.84-1.92,8.68-3.94,11.37-7.3
					C353.39,121.8,354.41,116.7,351.89,113.22z"/>
				<path class="st2" d="M395.84,110.67c-0.95-0.39-1.97-0.59-2.99-0.57c-2.43,0.04-4.81,1.28-6.26,3.23
					c-1.45-1.95-3.83-3.19-6.26-3.23c-2.43-0.04-4.86,1.15-6.28,3.12c-2.52,3.48-1.5,8.58,1.18,11.94s7.52,5.38,11.36,7.3
					c2.98-1.49,6.54-3.03,9.25-5.21L395.84,110.67L395.84,110.67z"/>
				<path class="st2" d="M44.8,82.97c-1.42-1.97-3.85-3.16-6.28-3.12s-4.81,1.28-6.26,3.23c-1.45-1.95-3.83-3.19-6.26-3.23
					s-4.86,1.15-6.28,3.12c-2.52,3.48-1.5,8.58,1.18,11.94s7.52,5.38,11.36,7.3c3.84-1.92,8.68-3.94,11.37-7.3
					C46.3,91.55,47.32,86.45,44.8,82.97z"/>
				<path class="st2" d="M92.04,82.97c-1.42-1.97-3.85-3.16-6.28-3.12s-4.81,1.28-6.26,3.23c-1.45-1.95-3.83-3.19-6.26-3.23
					s-4.86,1.15-6.28,3.12c-2.52,3.48-1.5,8.58,1.18,11.94s7.52,5.38,11.36,7.3c3.84-1.92,8.68-3.94,11.37-7.3
					C93.55,91.55,94.56,86.45,92.04,82.97z"/>
				<path class="st2" d="M139.29,82.97c-1.42-1.97-3.85-3.16-6.28-3.12s-4.81,1.28-6.26,3.23c-1.45-1.95-3.83-3.19-6.26-3.23
					s-4.86,1.15-6.28,3.12c-2.52,3.48-1.5,8.58,1.18,11.94s7.52,5.38,11.36,7.3c3.84-1.92,8.68-3.94,11.37-7.3
					C140.79,91.55,141.81,86.45,139.29,82.97z"/>
				<path class="st2" d="M186.53,82.97c-1.42-1.97-3.85-3.16-6.28-3.12s-4.81,1.28-6.26,3.23c-1.45-1.95-3.83-3.19-6.26-3.23
					s-4.86,1.15-6.28,3.12c-2.52,3.48-1.5,8.58,1.18,11.94s7.52,5.38,11.37,7.3c3.84-1.92,8.68-3.94,11.37-7.3
					C188.04,91.55,189.05,86.45,186.53,82.97z"/>
				<path class="st2" d="M233.78,82.97c-1.42-1.97-3.85-3.16-6.28-3.12s-4.81,1.28-6.26,3.23c-1.45-1.95-3.83-3.19-6.26-3.23
					s-4.86,1.15-6.28,3.12c-2.52,3.48-1.5,8.58,1.18,11.94s7.52,5.38,11.37,7.3c3.84-1.92,8.68-3.94,11.36-7.3
					C235.28,91.55,236.3,86.45,233.78,82.97z"/>
				<path class="st2" d="M281.02,82.97c-1.42-1.97-3.85-3.16-6.28-3.12s-4.81,1.28-6.26,3.23c-1.45-1.95-3.83-3.19-6.26-3.23
					c-2.43-0.04-4.86,1.15-6.28,3.12c-2.52,3.48-1.5,8.58,1.18,11.94s7.52,5.38,11.37,7.3c3.84-1.92,8.68-3.94,11.37-7.3
					C282.53,91.55,283.54,86.45,281.02,82.97z"/>
				<path class="st2" d="M328.27,82.97c-1.42-1.97-3.85-3.16-6.28-3.12s-4.81,1.28-6.26,3.23c-1.45-1.95-3.83-3.19-6.26-3.23
					c-2.43-0.04-4.86,1.15-6.28,3.12c-2.52,3.48-1.5,8.58,1.18,11.94s7.52,5.38,11.37,7.3c3.84-1.92,8.68-3.94,11.37-7.3
					C329.77,91.55,330.79,86.45,328.27,82.97z"/>
				<path class="st2" d="M375.51,82.97c-1.42-1.97-3.85-3.16-6.28-3.12s-4.81,1.28-6.26,3.23c-1.45-1.95-3.83-3.19-6.26-3.23
					c-2.43-0.04-4.86,1.15-6.28,3.12c-2.52,3.48-1.5,8.58,1.18,11.94s7.52,5.38,11.37,7.3c3.84-1.92,8.68-3.94,11.37-7.3
					C377.02,91.55,378.03,86.45,375.51,82.97z"/>
				<path class="st2" d="M21.17,52.73c-1.42-1.97-3.85-3.16-6.28-3.12s-4.81,1.28-6.26,3.23c-1.45-1.95-3.83-3.19-6.26-3.23
					c-0.51-0.01-1.03,0.04-1.53,0.14v18.07c2.45,1.64,5.32,2.91,7.79,4.15c3.84-1.92,8.68-3.94,11.36-7.3
					C22.68,61.31,23.69,56.21,21.17,52.73z"/>
				<path class="st2" d="M68.42,52.73c-1.42-1.97-3.85-3.16-6.28-3.12s-4.81,1.28-6.26,3.23c-1.45-1.95-3.83-3.19-6.26-3.23
					s-4.86,1.15-6.28,3.12c-2.52,3.48-1.5,8.58,1.18,11.94s7.52,5.38,11.37,7.3c3.84-1.92,8.68-3.94,11.36-7.3
					C69.92,61.31,70.94,56.21,68.42,52.73z"/>
				<path class="st2" d="M115.66,52.73c-1.42-1.97-3.85-3.16-6.28-3.12s-4.81,1.28-6.26,3.23c-1.45-1.95-3.83-3.19-6.26-3.23
					s-4.86,1.15-6.28,3.12c-2.52,3.48-1.5,8.58,1.18,11.94s7.52,5.38,11.37,7.3c3.84-1.92,8.68-3.94,11.36-7.3
					C117.17,61.31,118.18,56.21,115.66,52.73z"/>
				<path class="st2" d="M162.91,52.73c-1.42-1.97-3.85-3.16-6.28-3.12s-4.81,1.28-6.26,3.23c-1.45-1.95-3.83-3.19-6.26-3.23
					s-4.86,1.15-6.28,3.12c-2.52,3.48-1.5,8.58,1.18,11.94s7.52,5.38,11.37,7.3c3.84-1.92,8.68-3.94,11.36-7.3
					C164.41,61.31,165.43,56.21,162.91,52.73z"/>
				<path class="st2" d="M210.15,52.73c-1.42-1.97-3.85-3.16-6.28-3.12s-4.81,1.28-6.26,3.23c-1.45-1.95-3.83-3.19-6.26-3.23
					s-4.86,1.15-6.28,3.12c-2.52,3.48-1.5,8.58,1.18,11.94s7.52,5.38,11.36,7.3c3.84-1.92,8.68-3.94,11.37-7.3
					C211.66,61.31,212.67,56.21,210.15,52.73z"/>
				<path class="st2" d="M257.4,52.73c-1.42-1.97-3.85-3.16-6.28-3.12s-4.81,1.28-6.26,3.23c-1.45-1.95-3.83-3.19-6.26-3.23
					s-4.86,1.15-6.28,3.12c-2.52,3.48-1.5,8.58,1.18,11.94s7.52,5.38,11.36,7.3c3.84-1.92,8.68-3.94,11.37-7.3
					C258.9,61.31,259.92,56.21,257.4,52.73z"/>
				<path class="st2" d="M304.64,52.73c-1.42-1.97-3.85-3.16-6.28-3.12s-4.81,1.28-6.26,3.23c-1.45-1.95-3.83-3.19-6.26-3.23
					c-2.43-0.04-4.86,1.15-6.28,3.12c-2.52,3.48-1.5,8.58,1.18,11.94s7.52,5.38,11.36,7.3c3.84-1.92,8.68-3.94,11.37-7.3
					C306.15,61.31,307.16,56.21,304.64,52.73z"/>
				<path class="st2" d="M351.89,52.73c-1.42-1.97-3.85-3.16-6.28-3.12s-4.81,1.28-6.26,3.23c-1.45-1.95-3.83-3.19-6.26-3.23
					c-2.43-0.04-4.86,1.15-6.28,3.12c-2.52,3.48-1.5,8.58,1.18,11.94s7.52,5.38,11.36,7.3c3.84-1.92,8.68-3.94,11.37-7.3
					C353.39,61.31,354.41,56.21,351.89,52.73z"/>
				<path class="st2" d="M395.84,50.18c-0.95-0.39-1.97-0.59-2.99-0.57c-2.43,0.04-4.81,1.28-6.26,3.23
					c-1.45-1.95-3.83-3.19-6.26-3.23c-2.43-0.04-4.86,1.15-6.28,3.12c-2.52,3.48-1.5,8.58,1.18,11.94s7.52,5.38,11.36,7.3
					c2.98-1.49,6.54-3.03,9.25-5.21L395.84,50.18L395.84,50.18z"/>
				<path class="st2" d="M44.8,22.48c-1.42-1.97-3.85-3.16-6.28-3.12s-4.81,1.28-6.26,3.23c-1.45-1.95-3.83-3.19-6.26-3.23
					c-2.43-0.04-4.86,1.15-6.28,3.12c-2.52,3.48-1.5,8.58,1.18,11.94s7.52,5.38,11.36,7.3c3.84-1.92,8.68-3.94,11.37-7.3
					C46.3,31.06,47.32,25.96,44.8,22.48z"/>
				<path class="st2" d="M92.04,22.48c-1.42-1.97-3.85-3.16-6.28-3.12s-4.81,1.28-6.26,3.23c-1.45-1.95-3.83-3.19-6.26-3.23
					c-2.43-0.04-4.86,1.15-6.28,3.12c-2.52,3.48-1.5,8.58,1.18,11.94s7.52,5.38,11.36,7.3c3.84-1.92,8.68-3.94,11.37-7.3
					C93.55,31.06,94.56,25.96,92.04,22.48z"/>
				<path class="st2" d="M139.29,22.48c-1.42-1.97-3.85-3.16-6.28-3.12s-4.81,1.28-6.26,3.23c-1.45-1.95-3.83-3.19-6.26-3.23
					c-2.43-0.04-4.86,1.15-6.28,3.12c-2.52,3.48-1.5,8.58,1.18,11.94s7.52,5.38,11.36,7.3c3.84-1.92,8.68-3.94,11.37-7.3
					C140.79,31.06,141.81,25.96,139.29,22.48z"/>
				<path class="st2" d="M186.53,22.48c-1.42-1.97-3.85-3.16-6.28-3.12s-4.81,1.28-6.26,3.23c-1.45-1.95-3.83-3.19-6.26-3.23
					c-2.43-0.04-4.86,1.15-6.28,3.12c-2.52,3.48-1.5,8.58,1.18,11.94s7.52,5.38,11.37,7.3c3.84-1.92,8.68-3.94,11.37-7.3
					C188.04,31.06,189.05,25.96,186.53,22.48z"/>
				<path class="st2" d="M233.78,22.48c-1.42-1.97-3.85-3.16-6.28-3.12s-4.81,1.28-6.26,3.23c-1.45-1.95-3.83-3.19-6.26-3.23
					c-2.43-0.04-4.86,1.15-6.28,3.12c-2.52,3.48-1.5,8.58,1.18,11.94s7.52,5.38,11.37,7.3c3.84-1.92,8.68-3.94,11.36-7.3
					C235.28,31.06,236.3,25.96,233.78,22.48z"/>
				<path class="st2" d="M281.02,22.48c-1.42-1.97-3.85-3.16-6.28-3.12s-4.81,1.28-6.26,3.23c-1.45-1.95-3.83-3.19-6.26-3.23
					c-2.43-0.04-4.86,1.15-6.28,3.12c-2.52,3.48-1.5,8.58,1.18,11.94s7.52,5.38,11.37,7.3c3.84-1.92,8.68-3.94,11.37-7.3
					C282.53,31.06,283.54,25.96,281.02,22.48z"/>
				<path class="st2" d="M328.27,22.48c-1.42-1.97-3.85-3.16-6.28-3.12s-4.81,1.28-6.26,3.23c-1.45-1.95-3.83-3.19-6.26-3.23
					c-2.43-0.04-4.86,1.15-6.28,3.12c-2.52,3.48-1.5,8.58,1.18,11.94s7.52,5.38,11.37,7.3c3.84-1.92,8.68-3.94,11.37-7.3
					C329.77,31.06,330.79,25.96,328.27,22.48z"/>
				<path class="st2" d="M375.51,22.48c-1.42-1.97-3.85-3.16-6.28-3.12s-4.81,1.28-6.26,3.23c-1.45-1.95-3.83-3.19-6.26-3.23
					c-2.43-0.04-4.86,1.15-6.28,3.12c-2.52,3.48-1.5,8.58,1.18,11.94s7.52,5.38,11.37,7.3c3.84-1.92,8.68-3.94,11.37-7.3
					C377.02,31.06,378.03,25.96,375.51,22.48z"/>
				<path class="st2" d="M0.84,0.16v7.16c2.45,1.64,5.32,2.91,7.79,4.15c3.84-1.92,8.68-3.94,11.36-7.3
					c0.94-1.17,1.67-2.56,2.12-4.01C22.11,0.16,0.84,0.16,0.84,0.16z"/>
				<path class="st2" d="M42.39,0.16c0.45,1.46,1.18,2.84,2.12,4.01c2.68,3.36,7.52,5.38,11.37,7.3c3.84-1.92,8.68-3.94,11.36-7.3
					c0.94-1.17,1.67-2.56,2.12-4.01C69.36,0.16,42.39,0.16,42.39,0.16z"/>
				<path class="st2" d="M89.64,0.16c0.45,1.46,1.18,2.84,2.12,4.01c2.68,3.36,7.52,5.38,11.37,7.3c3.84-1.92,8.68-3.94,11.36-7.3
					c0.94-1.17,1.67-2.56,2.12-4.01C116.61,0.16,89.64,0.16,89.64,0.16z"/>
				<path class="st2" d="M136.88,0.16c0.45,1.46,1.18,2.84,2.12,4.01c2.68,3.36,7.52,5.38,11.37,7.3c3.84-1.92,8.68-3.94,11.36-7.3
					c0.94-1.17,1.67-2.56,2.12-4.01C163.85,0.16,136.88,0.16,136.88,0.16z"/>
				<path class="st2" d="M184.13,0.16c0.45,1.46,1.18,2.84,2.12,4.01c2.68,3.36,7.52,5.38,11.36,7.3c3.84-1.92,8.68-3.94,11.37-7.3
					c0.94-1.17,1.67-2.56,2.12-4.01C211.1,0.16,184.13,0.16,184.13,0.16z"/>
				<path class="st2" d="M231.37,0.16c0.45,1.46,1.18,2.84,2.12,4.01c2.68,3.36,7.52,5.38,11.36,7.3c3.84-1.92,8.68-3.94,11.37-7.3
					c0.94-1.17,1.67-2.56,2.12-4.01C258.34,0.16,231.37,0.16,231.37,0.16z"/>
				<path class="st2" d="M278.62,0.16c0.45,1.46,1.18,2.84,2.12,4.01c2.68,3.36,7.52,5.38,11.36,7.3c3.84-1.92,8.68-3.94,11.37-7.3
					c0.94-1.17,1.67-2.56,2.12-4.01C305.59,0.16,278.62,0.16,278.62,0.16z"/>
				<path class="st2" d="M325.86,0.16c0.45,1.46,1.18,2.84,2.12,4.01c2.68,3.36,7.52,5.38,11.36,7.3c3.84-1.92,8.68-3.94,11.37-7.3
					c0.94-1.17,1.67-2.56,2.12-4.01C352.83,0.16,325.86,0.16,325.86,0.16z"/>
				<path class="st2" d="M395.84,0.16H373.1c0.45,1.46,1.18,2.84,2.12,4.01c2.68,3.36,7.52,5.38,11.36,7.3
					c2.98-1.49,6.54-3.03,9.25-5.21v-6.1H395.84z"/>
			</g>
		</g>
	</g>
</g>
<g>
	<g>
		<path class="st3" d="M90.96,155.23v-47.57c0-0.26,0.09-0.49,0.28-0.7s0.42-0.32,0.7-0.32h32.13c0.3,0,0.56,0.11,0.77,0.32
			s0.32,0.45,0.32,0.7v10.86c0,0.3-0.1,0.56-0.3,0.77s-0.46,0.32-0.79,0.32H105.8v6.54h14.45c0.3,0,0.55,0.1,0.74,0.3
			s0.26,0.42,0.21,0.65l-1.02,10.05c-0.05,0.23-0.19,0.45-0.42,0.65s-0.5,0.3-0.81,0.3H105.8v17.19c0,0.26-0.11,0.49-0.33,0.7
			s-0.47,0.32-0.76,0.32H91.95c-0.26,0-0.49-0.12-0.69-0.35S90.96,155.49,90.96,155.23z"/>
		<path class="st3" d="M128.16,155.3v-47.57c0-0.28,0.1-0.53,0.31-0.76s0.46-0.33,0.74-0.33h12.7c0.28,0,0.53,0.11,0.75,0.33
			c0.22,0.22,0.33,0.47,0.33,0.76v35.61h13.46c0.26,0,0.48,0.1,0.65,0.3s0.27,0.44,0.27,0.72l-0.98,10.93
			c-0.05,0.26-0.18,0.49-0.4,0.7s-0.47,0.32-0.76,0.32h-26.02c-0.28,0-0.53-0.11-0.74-0.32S128.16,155.56,128.16,155.3z"/>
		<path class="st3" d="M160.39,155.3v-47.57c0-0.28,0.1-0.53,0.3-0.76s0.43-0.33,0.69-0.33h12.76c0.3,0,0.56,0.11,0.77,0.33
			s0.32,0.47,0.32,0.76v47.57c0,0.26-0.11,0.49-0.32,0.7s-0.47,0.32-0.77,0.32h-12.76c-0.23,0-0.46-0.11-0.67-0.32
			S160.39,155.56,160.39,155.3z"/>
		<path class="st3" d="M180.4,155.3v-47.57c0-0.28,0.1-0.53,0.32-0.76s0.46-0.33,0.74-0.33h19c5.53,0,9.98,1.49,13.35,4.46
			c3.37,2.98,5.06,6.91,5.06,11.81c0,2.91-0.8,5.64-2.41,8.19s-3.74,4.41-6.42,5.55l11.43,18.49c0.16,0.3,0.16,0.57-0.02,0.81
			s-0.43,0.35-0.76,0.35h-15.44c-0.75,0-1.3-0.39-1.66-1.16l-7.51-15.68h-0.85v15.82c0,0.26-0.12,0.49-0.35,0.7
			c-0.23,0.21-0.5,0.32-0.8,0.32h-12.63c-0.28,0-0.53-0.11-0.74-0.32S180.4,155.56,180.4,155.3z M195.23,127.25h4.24
			c1.25,0,2.25-0.35,3-1.05s1.13-1.63,1.13-2.78s-0.38-2.07-1.13-2.76s-1.75-1.04-3-1.04h-4.24V127.25z"/>
		<path class="st3" d="M221.64,118.6v-10.86c0-0.28,0.11-0.53,0.32-0.76s0.45-0.33,0.7-0.33h38.71c0.3,0,0.56,0.11,0.77,0.32
			s0.29,0.45,0.25,0.7l-1.09,10.93c-0.02,0.28-0.15,0.52-0.39,0.72s-0.48,0.3-0.74,0.3h-10.72v35.68c0,0.26-0.1,0.49-0.3,0.7
			s-0.44,0.32-0.72,0.32h-12.76c-0.28,0-0.53-0.11-0.74-0.32s-0.32-0.45-0.32-0.7v-35.68h-11.95c-0.26,0-0.49-0.1-0.7-0.3
			S221.64,118.88,221.64,118.6z"/>
		<path class="st3" d="M261.82,107.8c-0.16-0.3-0.16-0.57,0.02-0.81s0.43-0.35,0.76-0.35h14.98c0.75,0,1.3,0.39,1.65,1.16
			l5.91,12.94l5.91-12.94c0.35-0.77,0.9-1.16,1.65-1.16h14.98c0.33,0,0.59,0.12,0.77,0.35s0.2,0.5,0.04,0.81l-15.93,28.65v18.84
			c0,0.26-0.11,0.49-0.33,0.7s-0.47,0.32-0.76,0.32H278.8c-0.28,0-0.53-0.11-0.76-0.32s-0.33-0.45-0.33-0.7v-18.84L261.82,107.8z"/>
	</g>
</g>
</svg>
