<?xml version="1.0" encoding="utf-8"?>
<!-- Generator: Adobe Illustrator 25.0.0, SVG Export Plug-In . SVG Version: 6.00 Build 0)  -->
<svg version="1.1" id="Capa_1" xmlns="http://www.w3.org/2000/svg" xmlns:xlink="http://www.w3.org/1999/xlink" x="0px" y="0px"
	 viewBox="0 0 393 268.5" style="enable-background:new 0 0 393 268.5;" xml:space="preserve">
<style type="text/css">
	.st0{fill:#F02B3C;}
	.st1{fill:#816DAF;}
	.st2{fill:#38D430;}
	.st3{fill:#FFD200;}
	.st4{fill:#4DCCEF;}
	.st5{fill:#FFFFFF;}
	.st6{fill:#4E2583;}
</style>
<rect class="st0" width="393" height="268.5"/>
<g>
	<g>
		<rect x="197.76" y="208.06" class="st1" width="15.32" height="38.53"/>
	</g>
	<g>
		<path class="st2" d="M275.02,201.59l-28.19-41.02h-82.81l-28.19,41.02c-1.88,2.74,0.08,6.47,3.41,6.47h132.38
			C274.94,208.06,276.91,204.33,275.02,201.59z"/>
	</g>
	<g>
		<path class="st2" d="M258.55,154.45l-24.26-35.3h-57.73l-24.26,35.3c-1.78,2.59,0.07,6.11,3.22,6.11h99.82
			C258.48,160.56,260.33,157.04,258.55,154.45z"/>
	</g>
	<g>
		<path class="st3" d="M217.02,68.95l-5.66-11.19c-0.81-1.59,0.91-3.28,2.49-2.45l0,0c1.55,0.82,3.37-0.5,3.07-2.23l-1.42-8.29
			c-0.12-0.69,0.11-1.39,0.61-1.87l6.02-5.87c1.26-1.22,0.56-3.36-1.17-3.61l-8.32-1.21c-0.69-0.1-1.29-0.53-1.59-1.16l-3.72-7.54
			c-0.78-1.57-3.02-1.57-3.8,0l-3.72,7.54c-0.31,0.62-0.9,1.06-1.59,1.16l-8.32,1.21c-1.74,0.25-2.43,2.39-1.17,3.61l6.02,5.87
			c0.5,0.49,0.73,1.19,0.61,1.87l-1.42,8.29c-0.3,1.73,1.52,3.05,3.07,2.23l0,0c1.58-0.83,3.3,0.86,2.49,2.45l-5.66,11.19
			c-0.66,1.31,0.29,2.87,1.76,2.87h19.67C216.73,71.82,217.69,70.26,217.02,68.95z"/>
	</g>
	<g>
		<path class="st2" d="M243.5,113.34l-28.54-41.53h-19.07l-28.54,41.53c-1.69,2.46,0.07,5.8,3.05,5.8h70.04
			C243.43,119.15,245.19,115.8,243.5,113.34z"/>
	</g>
	<g>
		<polygon class="st4" points="256.42,59.72 256.42,69.37 264.77,74.19 273.13,69.37 273.13,59.72 264.77,54.9 		"/>
	</g>
	<g>
		<polygon class="st4" points="119.18,125.15 119.18,133.96 126.81,138.36 134.43,133.96 134.43,125.15 126.81,120.75 		"/>
	</g>
	<g>
		<path class="st5" d="M228.94,92.15c-1.48,5.01-6.11,8.67-11.6,8.67c-5.85,0-10.73-4.16-11.85-9.68h-0.11
			c-1.12,5.52-6,9.68-11.85,9.68c-5.49,0-10.12-3.66-11.6-8.67l-14.56,21.19c-1.69,2.46,0.07,5.8,3.05,5.8h70.04
			c2.98,0,4.74-3.35,3.05-5.8L228.94,92.15z"/>
	</g>
	<g>
		<path class="st5" d="M248.47,139.77c-2.03,1.54-4.56,2.47-7.31,2.47c-5.85,0-10.73-4.16-11.85-9.68h-0.11
			c-1.12,5.52-6,9.68-11.85,9.68s-10.73-4.16-11.85-9.68h-0.11c-1.12,5.52-6,9.68-11.85,9.68s-10.73-4.16-11.85-9.68h-0.11
			c-1.12,5.52-6,9.68-11.85,9.68c-2.75,0-5.28-0.93-7.31-2.47l-10.09,14.68c-1.78,2.59,0.07,6.11,3.22,6.11h99.82
			c3.14,0,5-3.52,3.22-6.11L248.47,139.77z"/>
	</g>
	<g>
		<path class="st5" d="M263.15,184.31c-2.17,3.27-5.87,5.43-10.08,5.43c-5.85,0-10.73-4.16-11.85-9.68h-0.11
			c-1.12,5.52-6,9.68-11.85,9.68c-5.85,0-10.73-4.16-11.85-9.68h-0.11c-1.12,5.52-6,9.68-11.85,9.68s-10.73-4.16-11.85-9.68h-0.11
			c-1.12,5.52-6,9.68-11.85,9.68s-10.73-4.16-11.85-9.68h-0.11c-1.12,5.52-6,9.68-11.85,9.68c-4.21,0-7.92-2.16-10.08-5.43
			l-11.87,17.28c-1.88,2.74,0.08,6.47,3.41,6.47h132.38c3.33,0,5.29-3.73,3.41-6.47L263.15,184.31z"/>
	</g>
	<g>
		<path class="st6" d="M213.09,248.83c-1.23,0-2.23-1-2.23-2.23v-37.52c0-1.23,1-2.23,2.23-2.23s2.23,1,2.23,2.23v37.52
			C215.32,247.83,214.32,248.83,213.09,248.83z"/>
	</g>
	<g>
		<path class="st6" d="M197.76,248.83c-1.23,0-2.23-1-2.23-2.23v-37.49c0-1.23,1-2.23,2.23-2.23c1.23,0,2.23,1,2.23,2.23v37.49
			C200,247.83,199,248.83,197.76,248.83z"/>
	</g>
	<g>
		<path class="st6" d="M264.77,92.69c-1.23,0-2.23-1-2.23-2.23V74.93c0-1.23,1-2.23,2.23-2.23c1.23,0,2.23,1,2.23,2.23v15.52
			C267.01,91.69,266.01,92.69,264.77,92.69z"/>
	</g>
	<g>
		<path class="st6" d="M264.77,56.6c-1.23,0-2.23-1-2.23-2.23V38.64c0-1.23,1-2.23,2.23-2.23c1.23,0,2.23,1,2.23,2.23v15.73
			C267.01,55.6,266.01,56.6,264.77,56.6z"/>
	</g>
	<g>
		<path class="st6" d="M264.77,50.84c-0.39,0-0.77-0.1-1.12-0.3l-8.36-4.82c-1.07-0.62-1.43-1.98-0.82-3.05
			c0.62-1.07,1.98-1.44,3.05-0.82l7.24,4.18l7.24-4.18c1.07-0.62,2.43-0.25,3.05,0.82c0.62,1.07,0.25,2.43-0.82,3.05l-8.36,4.82
			C265.54,50.74,265.16,50.84,264.77,50.84z"/>
	</g>
	<g>
		<path class="st6" d="M273.13,87.55c-0.38,0-0.76-0.1-1.11-0.3l-7.24-4.18l-7.24,4.18c-1.07,0.62-2.44,0.25-3.05-0.82
			c-0.62-1.07-0.25-2.43,0.82-3.05l8.36-4.82c0.69-0.4,1.54-0.4,2.23,0l8.36,4.82c1.07,0.62,1.43,1.98,0.82,3.05
			C274.65,87.14,273.9,87.55,273.13,87.55z"/>
	</g>
	<g>
		<path class="st6" d="M287.21,79.73c-0.38,0-0.76-0.1-1.11-0.3l-13.44-7.76c-1.07-0.62-1.43-1.98-0.82-3.05
			c0.62-1.07,1.98-1.44,3.05-0.82l13.44,7.76c1.07,0.62,1.43,1.98,0.82,3.05C288.73,79.33,287.98,79.73,287.21,79.73z"/>
	</g>
	<g>
		<path class="st6" d="M255.96,61.69c-0.38,0-0.76-0.1-1.11-0.3l-13.62-7.87c-1.07-0.62-1.43-1.98-0.82-3.05
			c0.62-1.07,1.98-1.44,3.05-0.82l13.62,7.87c1.07,0.62,1.43,1.98,0.82,3.05C257.48,61.29,256.73,61.69,255.96,61.69z"/>
	</g>
	<g>
		<path class="st6" d="M242.61,63.63c-0.77,0-1.52-0.4-1.94-1.12c-0.62-1.07-0.25-2.43,0.82-3.05l7.24-4.18v-8.36
			c0-1.23,1-2.23,2.23-2.23s2.23,1,2.23,2.23v9.65c0,0.8-0.43,1.54-1.12,1.93l-8.36,4.82C243.38,63.54,242.99,63.63,242.61,63.63z"
			/>
	</g>
	<g>
		<path class="st6" d="M278.58,84.4c-1.23,0-2.23-1-2.23-2.23v-9.65c0-0.8,0.43-1.54,1.12-1.93l8.36-4.82
			c1.07-0.62,2.43-0.25,3.05,0.82c0.62,1.07,0.25,2.43-0.82,3.05l-7.24,4.18v8.36C280.81,83.4,279.81,84.4,278.58,84.4z"/>
	</g>
	<g>
		<path class="st6" d="M273.77,61.59c-0.77,0-1.52-0.4-1.94-1.12c-0.62-1.07-0.25-2.43,0.82-3.05l13.44-7.76
			c1.07-0.62,2.43-0.25,3.05,0.82c0.62,1.07,0.25,2.43-0.82,3.05l-13.44,7.76C274.53,61.49,274.15,61.59,273.77,61.59z"/>
	</g>
	<g>
		<path class="st6" d="M242.34,79.73c-0.77,0-1.52-0.4-1.94-1.12c-0.62-1.07-0.25-2.43,0.82-3.05l13.62-7.86
			c1.07-0.62,2.43-0.25,3.05,0.82c0.62,1.07,0.25,2.43-0.82,3.05l-13.62,7.86C243.1,79.64,242.72,79.73,242.34,79.73z"/>
	</g>
	<g>
		<path class="st6" d="M250.97,84.4c-1.23,0-2.23-1-2.23-2.23v-8.36l-7.24-4.18c-1.07-0.62-1.43-1.98-0.82-3.05
			c0.62-1.07,1.98-1.44,3.05-0.82l8.36,4.82c0.69,0.4,1.12,1.14,1.12,1.93v9.65C253.2,83.4,252.2,84.4,250.97,84.4z"/>
	</g>
	<g>
		<path class="st6" d="M286.93,63.63c-0.38,0-0.76-0.1-1.11-0.3l-8.36-4.82c-0.69-0.4-1.12-1.14-1.12-1.93v-9.65
			c0-1.23,1-2.23,2.23-2.23c1.23,0,2.23,1,2.23,2.23v8.36l7.24,4.18c1.07,0.62,1.43,1.98,0.82,3.05
			C288.45,63.23,287.7,63.63,286.93,63.63z"/>
	</g>
	<g>
		<path class="st6" d="M126.81,155.44c-1.23,0-2.23-1-2.23-2.23v-14.17c0-1.23,1-2.23,2.23-2.23s2.23,1,2.23,2.23v14.17
			C129.04,154.44,128.04,155.44,126.81,155.44z"/>
	</g>
	<g>
		<path class="st6" d="M126.81,122.5c-1.23,0-2.23-1-2.23-2.23V105.9c0-1.23,1-2.23,2.23-2.23s2.23,1,2.23,2.23v14.36
			C129.04,121.5,128.04,122.5,126.81,122.5z"/>
	</g>
	<g>
		<path class="st6" d="M126.81,117.23c-0.39,0-0.77-0.1-1.12-0.3l-7.63-4.4c-1.07-0.62-1.43-1.98-0.82-3.05
			c0.62-1.07,1.98-1.44,3.05-0.82l6.51,3.76l6.51-3.76c1.07-0.62,2.43-0.25,3.05,0.82c0.62,1.07,0.25,2.43-0.82,3.05l-7.63,4.4
			C127.58,117.13,127.19,117.23,126.81,117.23z"/>
	</g>
	<g>
		<path class="st6" d="M134.43,150.75c-0.38,0-0.76-0.1-1.11-0.3l-6.51-3.76l-6.51,3.76c-1.07,0.62-2.44,0.25-3.05-0.82
			c-0.62-1.07-0.25-2.43,0.82-3.05l7.63-4.4c0.69-0.4,1.54-0.4,2.23,0l7.63,4.4c1.07,0.62,1.43,1.98,0.82,3.05
			C135.95,150.34,135.2,150.75,134.43,150.75z"/>
	</g>
	<g>
		<path class="st6" d="M147.29,143.61c-0.38,0-0.76-0.1-1.11-0.3l-12.27-7.09c-1.07-0.62-1.43-1.98-0.82-3.05
			c0.62-1.07,1.98-1.44,3.05-0.82l12.27,7.09c1.07,0.62,1.43,1.98,0.82,3.05C148.81,143.21,148.06,143.61,147.29,143.61z"/>
	</g>
	<g>
		<path class="st6" d="M118.76,127.14c-0.38,0-0.76-0.1-1.11-0.3l-12.44-7.18c-1.07-0.62-1.43-1.98-0.82-3.05
			c0.62-1.07,1.98-1.44,3.05-0.82l12.44,7.18c1.07,0.62,1.43,1.98,0.82,3.05C120.28,126.74,119.53,127.14,118.76,127.14z"/>
	</g>
	<g>
		<path class="st6" d="M106.58,128.92c-0.77,0-1.52-0.4-1.94-1.12c-0.62-1.07-0.25-2.43,0.82-3.05l6.51-3.76v-7.52
			c0-1.23,1-2.23,2.23-2.23s2.23,1,2.23,2.23v8.81c0,0.8-0.43,1.54-1.12,1.93l-7.63,4.4C107.34,128.82,106.96,128.92,106.58,128.92z
			"/>
	</g>
	<g>
		<path class="st6" d="M139.41,147.87c-1.23,0-2.23-1-2.23-2.23v-8.81c0-0.8,0.43-1.54,1.12-1.93l7.63-4.4
			c1.07-0.62,2.43-0.25,3.05,0.82c0.62,1.07,0.25,2.43-0.82,3.05l-6.51,3.76v7.52C141.64,146.87,140.64,147.87,139.41,147.87z"/>
	</g>
	<g>
		<path class="st6" d="M135.02,127.05c-0.77,0-1.52-0.4-1.94-1.12c-0.62-1.07-0.25-2.43,0.82-3.05l12.27-7.09
			c1.07-0.62,2.43-0.25,3.05,0.82c0.62,1.07,0.25,2.43-0.82,3.05l-12.27,7.09C135.78,126.95,135.4,127.05,135.02,127.05z"/>
	</g>
	<g>
		<path class="st6" d="M106.33,143.61c-0.77,0-1.52-0.4-1.94-1.12c-0.62-1.07-0.25-2.43,0.82-3.05l12.44-7.18
			c1.07-0.62,2.43-0.25,3.05,0.82c0.62,1.07,0.25,2.43-0.82,3.05l-12.44,7.18C107.09,143.52,106.7,143.61,106.33,143.61z"/>
	</g>
	<g>
		<path class="st6" d="M114.2,147.87c-1.23,0-2.23-1-2.23-2.23v-7.52l-6.51-3.76c-1.07-0.62-1.43-1.98-0.82-3.05
			c0.62-1.07,1.98-1.44,3.05-0.82l7.63,4.4c0.69,0.4,1.12,1.14,1.12,1.93v8.81C116.44,146.87,115.44,147.87,114.2,147.87z"/>
	</g>
	<g>
		<path class="st6" d="M147.04,128.92c-0.38,0-0.76-0.1-1.11-0.3l-7.63-4.4c-0.69-0.4-1.12-1.14-1.12-1.93v-8.81
			c0-1.23,1-2.23,2.23-2.23s2.23,1,2.23,2.23v7.52l6.51,3.76c1.07,0.62,1.43,1.98,0.82,3.05
			C148.56,128.51,147.81,128.92,147.04,128.92z"/>
	</g>
	<g>
		<path class="st6" d="M271.62,210.3H139.24c-2.37,0-4.53-1.3-5.63-3.4c-1.1-2.1-0.96-4.62,0.39-6.57l27.89-40.59
			c0.7-1.02,2.09-1.28,3.11-0.58c1.02,0.7,1.27,2.09,0.58,3.11l-27.89,40.59c-0.59,0.85-0.28,1.65-0.12,1.96
			c0.16,0.31,0.65,1.02,1.68,1.02h132.38c1.04,0,1.52-0.71,1.68-1.02s0.47-1.11-0.12-1.96l-27.72-40.33
			c-0.7-1.02-0.44-2.41,0.58-3.11c1.02-0.7,2.41-0.44,3.11,0.58l27.72,40.33c1.34,1.95,1.49,4.47,0.39,6.57
			C276.15,208.99,273.99,210.3,271.62,210.3z"/>
	</g>
	<g>
		<path class="st6" d="M255.34,162.8h-99.82c-2.29,0-4.37-1.26-5.43-3.28c-1.06-2.02-0.92-4.45,0.37-6.33l23.85-34.7
			c0.7-1.02,2.09-1.27,3.11-0.58c1.02,0.7,1.27,2.09,0.58,3.11l-23.85,34.7c-0.52,0.75-0.24,1.45-0.1,1.72
			c0.14,0.27,0.57,0.89,1.48,0.89h99.82c0.91,0,1.34-0.62,1.48-0.89c0.14-0.27,0.41-0.97-0.1-1.72l-23.88-34.75
			c-0.7-1.02-0.44-2.41,0.58-3.11c1.02-0.7,2.41-0.44,3.11,0.58l23.88,34.75c1.29,1.88,1.44,4.31,0.37,6.33
			C259.7,161.54,257.62,162.8,255.34,162.8z"/>
	</g>
	<g>
		<path class="st6" d="M215.26,74.05h-19.67c-1.47,0-2.81-0.75-3.59-2c-0.77-1.26-0.84-2.79-0.17-4.1l5.2-10.28
			c-1.22,0.3-2.52,0.05-3.58-0.71c-1.35-0.98-2.01-2.61-1.73-4.26l1.41-8.23l-5.98-5.83c-1.19-1.16-1.62-2.87-1.1-4.46
			c0.52-1.59,1.86-2.72,3.51-2.96l8.26-1.2l3.69-7.49c0.74-1.5,2.23-2.43,3.9-2.43c0,0,0,0,0,0c1.67,0,3.16,0.93,3.9,2.43l3.69,7.49
			l8.26,1.2c1.65,0.24,3,1.37,3.51,2.96c0.52,1.59,0.09,3.3-1.1,4.46l-5.98,5.83l1.41,8.23c0.28,1.64-0.38,3.27-1.73,4.26
			c-1.05,0.77-2.35,1.01-3.58,0.71l5.2,10.28l0,0c0.66,1.31,0.6,2.85-0.17,4.1C218.07,73.3,216.73,74.05,215.26,74.05z
			 M215.03,69.96C215.03,69.96,215.03,69.96,215.03,69.96L215.03,69.96z M196.01,69.58h18.83l-5.47-10.82
			c-0.8-1.59-0.49-3.49,0.78-4.73c1.21-1.19,3.01-1.5,4.54-0.8l-1.38-8.06c-0.24-1.41,0.23-2.85,1.25-3.85l5.85-5.7l-8.09-1.18
			c-1.42-0.21-2.64-1.1-3.28-2.38l-3.62-7.33l-3.62,7.33c-0.63,1.28-1.86,2.17-3.28,2.38l-8.09,1.18l5.85,5.71
			c1.03,1,1.49,2.44,1.25,3.85l-1.38,8.06c1.53-0.7,3.33-0.39,4.54,0.8c1.27,1.25,1.58,3.15,0.78,4.73L196.01,69.58z"/>
	</g>
	<g>
		<path class="st6" d="M240.45,121.38h-70.04c-2.21,0-4.23-1.22-5.26-3.17c-1.03-1.96-0.89-4.31,0.36-6.13l28.15-40.97
			c0.7-1.02,2.09-1.27,3.11-0.58c1.02,0.7,1.27,2.09,0.58,3.11l-28.15,40.97c-0.45,0.66-0.21,1.28-0.09,1.52s0.5,0.79,1.3,0.79
			h70.04c0.8,0,1.18-0.55,1.3-0.79s0.36-0.86-0.09-1.52l-28.15-40.97c-0.7-1.02-0.44-2.41,0.58-3.11c1.02-0.7,2.41-0.44,3.11,0.58
			l28.15,40.97c1.25,1.82,1.39,4.17,0.36,6.13S242.66,121.38,240.45,121.38z"/>
	</g>
	<g>
		<path class="st6" d="M264.77,76.43c-0.39,0-0.77-0.1-1.12-0.3l-8.36-4.82c-0.69-0.4-1.12-1.14-1.12-1.93v-9.65
			c0-0.8,0.43-1.54,1.12-1.93l8.36-4.82c0.69-0.4,1.54-0.4,2.23,0l8.36,4.82c0.69,0.4,1.12,1.14,1.12,1.93v9.65
			c0,0.8-0.43,1.54-1.12,1.93l-8.36,4.82C265.54,76.33,265.16,76.43,264.77,76.43z M258.65,68.08l6.12,3.53l6.12-3.53v-7.07
			l-6.12-3.53l-6.12,3.53V68.08z"/>
	</g>
	<g>
		<path class="st6" d="M126.81,140.6c-0.39,0-0.77-0.1-1.12-0.3l-7.63-4.4c-0.69-0.4-1.12-1.14-1.12-1.93v-8.81
			c0-0.8,0.43-1.54,1.12-1.93l7.63-4.4c0.69-0.4,1.54-0.4,2.23,0l7.63,4.4c0.69,0.4,1.12,1.14,1.12,1.93v8.81
			c0,0.8-0.43,1.54-1.12,1.93l-7.63,4.4C127.58,140.5,127.19,140.6,126.81,140.6z M121.41,132.67l5.39,3.11l5.39-3.11v-6.23
			l-5.39-3.11l-5.39,3.11V132.67z"/>
	</g>
	<g>
		<path class="st6" d="M217.34,103.06c-4.88,0-9.31-2.49-11.91-6.37c-2.6,3.87-7.03,6.37-11.91,6.37c-6.22,0-11.7-3.97-13.63-9.89
			c-0.38-1.17,0.26-2.43,1.43-2.82c1.17-0.38,2.43,0.26,2.82,1.43c1.33,4.07,5.09,6.8,9.38,6.8c4.67,0,8.74-3.32,9.66-7.89
			c0.21-1.04,1.13-1.79,2.19-1.79h0.11c1.06,0,1.98,0.75,2.19,1.79c0.93,4.57,4.99,7.89,9.66,7.89c4.31,0,8.09-2.76,9.4-6.87
			c0.37-1.18,1.63-1.83,2.81-1.45c1.18,0.37,1.82,1.63,1.45,2.81C229.09,99.04,223.61,103.06,217.34,103.06z"/>
	</g>
	<g>
		<path class="st6" d="M241.16,144.47c-4.88,0-9.31-2.49-11.91-6.37c-2.6,3.87-7.03,6.37-11.91,6.37c-4.88,0-9.31-2.49-11.91-6.37
			c-2.6,3.87-7.03,6.37-11.91,6.37c-4.88,0-9.31-2.49-11.91-6.37c-2.6,3.87-7.03,6.37-11.91,6.37c-2.96,0-5.81-0.9-8.23-2.61
			c-1.01-0.71-1.25-2.1-0.54-3.11c0.71-1.01,2.1-1.25,3.11-0.54c1.67,1.18,3.63,1.8,5.66,1.8c4.67,0,8.74-3.32,9.66-7.89
			c0.21-1.04,1.13-1.79,2.19-1.79h0.11c1.06,0,1.98,0.75,2.19,1.79c0.93,4.57,4.99,7.89,9.66,7.89c4.67,0,8.74-3.32,9.66-7.89
			c0.21-1.04,1.13-1.79,2.19-1.79h0.11c1.06,0,1.98,0.75,2.19,1.79c0.93,4.57,4.99,7.89,9.66,7.89c4.67,0,8.74-3.32,9.66-7.89
			c0.21-1.04,1.13-1.79,2.19-1.79h0.11c1.06,0,1.98,0.75,2.19,1.79c0.93,4.57,4.99,7.89,9.66,7.89c1.98,0,3.9-0.59,5.54-1.72
			c1.02-0.7,2.41-0.43,3.1,0.58c0.7,1.02,0.43,2.41-0.58,3.1C246.83,143.61,244.04,144.47,241.16,144.47z"/>
	</g>
	<g>
		<path class="st6" d="M253.07,191.97c-4.88,0-9.31-2.49-11.91-6.37c-2.6,3.87-7.03,6.37-11.91,6.37c-4.88,0-9.31-2.49-11.91-6.37
			c-2.6,3.87-7.03,6.37-11.91,6.37c-4.88,0-9.31-2.49-11.91-6.37c-2.6,3.87-7.03,6.37-11.91,6.37c-4.88,0-9.31-2.49-11.91-6.37
			c-2.6,3.87-7.03,6.37-11.91,6.37c-4.58,0-8.92-2.23-11.61-5.96c-0.72-1-0.5-2.4,0.5-3.12c1-0.72,2.4-0.5,3.12,0.5
			c1.85,2.57,4.84,4.1,7.99,4.1c4.67,0,8.74-3.32,9.66-7.89c0.21-1.04,1.13-1.79,2.19-1.79h0.11c1.06,0,1.98,0.75,2.19,1.79
			c0.93,4.57,4.99,7.89,9.66,7.89c4.67,0,8.74-3.32,9.66-7.89c0.21-1.04,1.13-1.79,2.19-1.79h0.11c1.06,0,1.98,0.75,2.19,1.79
			c0.93,4.57,4.99,7.89,9.66,7.89s8.74-3.32,9.66-7.89c0.21-1.04,1.13-1.79,2.19-1.79h0.11c1.06,0,1.98,0.75,2.19,1.79
			c0.93,4.57,4.99,7.89,9.66,7.89c4.67,0,8.74-3.32,9.66-7.89c0.21-1.04,1.13-1.79,2.19-1.79h0.11c1.06,0,1.98,0.75,2.19,1.79
			c0.93,4.57,4.99,7.89,9.66,7.89c3.17,0,6.07-1.48,7.96-4.05c0.73-1,2.13-1.21,3.12-0.49c1,0.73,1.21,2.12,0.49,3.12
			C261.94,189.77,257.62,191.97,253.07,191.97z"/>
	</g>
</g>
</svg>
