<?xml version="1.0" encoding="utf-8"?>
<!-- Generator: Adobe Illustrator 25.4.1, SVG Export Plug-In . SVG Version: 6.00 Build 0)  -->
<svg version="1.1" xmlns="http://www.w3.org/2000/svg" xmlns:xlink="http://www.w3.org/1999/xlink" x="0px" y="0px"
	 viewBox="0 0 392 268" style="enable-background:new 0 0 392 268;" xml:space="preserve">
<style type="text/css">
	.st0{fill:#FFD300;}
	.st1{fill:#CACFDA;}
	.st2{fill:#FFFFFF;}
	.st3{fill:#8A7FB0;}
	.st4{fill:#806DAD;}
	.st5{fill:#5C5F7D;}
	.st6{fill:#5F0591;}
	.st7{fill:#FB8484;}
	.st8{clip-path:url(#SVGID_00000183216800560504175270000006863017816052892601_);fill:#F76E6E;}
	.st9{clip-path:url(#SVGID_00000183216800560504175270000006863017816052892601_);}
	.st10{fill:#FDA3A2;}
	.st11{clip-path:url(#SVGID_00000080910010627652034980000017905526003233992841_);fill:#FDA3A2;}
	.st12{clip-path:url(#SVGID_00000080910010627652034980000017905526003233992841_);}
	.st13{clip-path:url(#SVGID_00000080910010627652034980000017905526003233992841_);fill:#F76E6E;}
	.st14{clip-path:url(#SVGID_00000028318777926228399480000007850949705654593724_);fill:#F76E6E;}
	.st15{clip-path:url(#SVGID_00000028318777926228399480000007850949705654593724_);}
	.st16{clip-path:url(#SVGID_00000115506533698074735620000000363997325315695528_);fill:#F76E6E;}
	.st17{clip-path:url(#SVGID_00000115506533698074735620000000363997325315695528_);}
	.st18{clip-path:url(#SVGID_00000105413745831865428170000010582469369480348835_);fill:#F76E6E;}
	.st19{clip-path:url(#SVGID_00000105413745831865428170000010582469369480348835_);}
	.st20{clip-path:url(#SVGID_00000151515274757675754490000010016516653565743019_);fill:#FDA3A2;}
	.st21{clip-path:url(#SVGID_00000151515274757675754490000010016516653565743019_);}
	.st22{clip-path:url(#SVGID_00000151515274757675754490000010016516653565743019_);fill:#F76E6E;}
	.st23{fill:none;stroke:#5F0591;stroke-width:1.2384;stroke-miterlimit:10;}
	.st24{fill:none;stroke:#5F0591;stroke-width:1.2384;stroke-linecap:round;stroke-miterlimit:10;}
	.st25{fill:none;stroke:#5F0591;stroke-width:1.4861;stroke-linecap:round;stroke-miterlimit:10;}
	.st26{fill:#421872;}
	.st27{clip-path:url(#SVGID_00000179612704004778895850000013057426381422212539_);fill:#2F1356;}
	.st28{fill:#2CD51B;}
</style>
<g id="Capa_1">
	<rect class="st0" width="392" height="268"/>
	<g>
		<path class="st1" d="M386.83,181.94c0,18.33-6.19,35.2-16.59,48.64c-8.95,11.56-21.02,20.58-34.93,25.83
			c-8.72,3.28-18.16,5.08-28.03,5.08s-19.31-1.79-28.03-5.08c-13.91-5.25-25.98-14.27-34.93-25.83
			c-10.39-13.44-16.59-30.31-16.59-48.64c0-0.34,0-0.68,0.02-1c0.19-15.45,4.77-29.84,12.56-41.97
			c10.32-16.04,26.27-28.14,45.03-33.51c6.97-2,14.33-3.06,21.93-3.06s14.96,1.07,21.93,3.06c18.77,5.36,34.71,17.47,45.03,33.51
			c7.78,12.13,12.37,26.52,12.56,41.97C386.83,181.26,386.83,181.6,386.83,181.94z"/>
		<path class="st2" d="M385.14,175.17c0,16.77-6.06,32.21-16.23,44.49c-0.58,0.71-1.18,1.4-1.78,2.08
			c-8.56,9.58-19.7,17.08-32.41,21.56c-1.76,0.61-3.55,1.17-5.36,1.68c-6.99,1.93-14.4,2.96-22.07,2.96
			c-7.67,0-15.08-1.03-22.07-2.96c-1.81-0.51-3.6-1.07-5.36-1.68c-12.71-4.48-23.85-11.98-32.39-21.56
			c-0.61-0.68-1.22-1.37-1.79-2.08c-10.17-12.29-16.23-27.72-16.23-44.49c0-0.3,0-0.63,0.02-0.91c0.19-14.13,4.67-27.3,12.29-38.4
			c10.1-14.67,25.71-25.74,44.09-30.65c6.82-1.83,14.03-2.81,21.46-2.81s14.64,0.98,21.46,2.81c18.38,4.91,33.98,15.98,44.09,30.65
			c7.62,11.1,12.1,24.27,12.29,38.4C385.14,174.55,385.14,174.87,385.14,175.17z"/>
		<polygon class="st3" points="331.93,177.32 322.52,206.29 292.06,206.29 282.65,177.32 285.68,175.12 307.29,159.42 328.9,175.12 
					"/>
		<path class="st4" d="M328.9,175.12l-3.56,10.98c-2.54,7.82-9.83,13.12-18.05,13.12h0c-8.22,0-15.51-5.3-18.05-13.12l-3.56-10.98
			l21.61-15.71L328.9,175.12z"/>
		<path class="st3" d="M331.93,113.79l-24.64,17.91l-24.64-17.91l2.71-8.33c6.97-2,14.33-3.06,21.93-3.06s14.96,1.07,21.93,3.06
			L331.93,113.79z"/>
		<path class="st4" d="M331.93,113.79l-24.64,17.91l-24.64-17.91l0.88-2.72c1.52-0.49,3.06-0.91,4.62-1.3
			c6.09-1.49,12.51-2.28,19.14-2.28c6.63,0,13.05,0.8,19.14,2.28c1.56,0.39,3.1,0.81,4.62,1.3L331.93,113.79z"/>
		<g>
			<path class="st3" d="M386.82,180.94l-6.75,4.91l-24.64-17.91l9.41-28.97h9.43C382.04,151.11,386.63,165.49,386.82,180.94z"/>
			<path class="st3" d="M259.16,167.94l-24.64,17.91l-6.75-4.91c0.19-15.45,4.77-29.84,12.56-41.97h9.43L259.16,167.94z"/>
		</g>
		<g>
			<path class="st4" d="M376.68,166.71c0,5.2-0.78,10.24-2.25,15.05l-19.01-13.81l9.41-28.97h3.77c5.03,8.07,7.92,17.25,8.06,26.99
				C376.68,166.2,376.68,166.46,376.68,166.71z"/>
			<path class="st4" d="M259.16,167.94l-19.01,13.81c-1.47-4.81-2.25-9.85-2.25-15.05c0-0.25,0-0.51,0.02-0.74
				c0.14-9.75,3.03-18.92,8.06-26.99h3.77L259.16,167.94z"/>
		</g>
		<path class="st5" d="M370.25,230.58c-8.95,11.56-21.02,20.58-34.93,25.83l-7.82-5.69l9.41-28.97h30.46L370.25,230.58z"/>
		<path class="st5" d="M287.08,250.72l-7.82,5.69c-13.91-5.25-25.98-14.27-34.93-25.83l2.88-8.83h30.46L287.08,250.72z"/>
		<path class="st3" d="M370.25,230.58c-8.95,11.56-21.02,20.58-34.93,25.83l-7.82-5.69l1.86-5.74c1.81-0.51,3.6-1.07,5.36-1.68
			c12.71-4.48,23.85-11.98,32.41-21.56h0.24L370.25,230.58z"/>
		<path class="st4" d="M367.13,221.75c-8.56,9.58-19.7,17.08-32.41,21.56c-1.76,0.61-3.55,1.17-5.36,1.68l7.55-23.24H367.13z"/>
		<path class="st3" d="M287.08,250.65l-7.82,5.69c-13.91-5.25-25.98-14.27-34.93-25.83l2.88-8.83h0.25
			c8.55,9.58,19.68,17.08,32.39,21.56c1.76,0.61,3.55,1.17,5.36,1.68L287.08,250.65z"/>
		<path class="st4" d="M285.22,244.98c-1.81-0.51-3.6-1.07-5.36-1.68c-12.71-4.48-23.85-11.98-32.39-21.56h30.21L285.22,244.98z"/>
		<path class="st6" d="M388.51,180.92c-0.03-2.86-0.22-5.7-0.55-8.52c-1.43-12.21-5.61-23.95-12.28-34.34c0,0,0,0,0,0
			c-10.72-16.65-27.05-28.8-45.99-34.22c-7.25-2.08-14.82-3.11-22.4-3.11c-3.79,0-7.58,0.26-11.32,0.78
			c-3.75,0.52-7.45,1.3-11.08,2.34c0,0,0,0,0,0c-18.94,5.41-35.27,17.57-45.99,34.22c-7.7,12-12.08,25.8-12.74,40
			c-0.04,0.95-0.07,1.91-0.08,2.86c0,0,0,0.01,0,0.01c-0.01,0.33-0.02,0.67-0.02,1.01c0,18.17,5.86,35.34,16.94,49.68
			c2.31,2.99,4.82,5.79,7.49,8.41c8.03,7.85,17.61,13.98,28.18,17.96c9.13,3.44,18.77,5.19,28.62,5.19c9.86,0,19.49-1.74,28.62-5.19
			c5.28-1.99,10.32-4.52,15.04-7.53c3.48-2.22,6.77-4.73,9.87-7.45c3.92-3.43,7.54-7.23,10.76-11.39
			c11.08-14.33,16.94-31.51,16.94-49.68C388.53,181.57,388.53,181.21,388.51,180.92z M370.84,226.94l-1.86-5.72
			c-0.23-0.7-0.88-1.17-1.61-1.17h-29.72l-13.21-14.19l8.86-27.27l21.88-8.73l23.89,17.36c0.3,0.22,0.65,0.32,0.99,0.32
			s0.7-0.11,0.99-0.32l4.03-2.93C384.64,199.75,379.76,214.39,370.84,226.94z M365.23,233.94c-0.71,0.79-1.46,1.54-2.2,2.3
			c-0.49,0.5-0.96,1.02-1.46,1.51c-0.84,0.82-1.72,1.59-2.6,2.37c-0.44,0.39-0.85,0.8-1.3,1.17c-1.34,1.13-2.71,2.23-4.12,3.27
			c-0.07,0.05-0.14,0.09-0.21,0.14c-1.34,0.99-2.72,1.93-4.12,2.83c-0.5,0.32-1.03,0.61-1.53,0.92c-0.99,0.6-1.97,1.21-2.99,1.76
			c-0.62,0.34-1.26,0.64-1.89,0.96c-0.93,0.48-1.86,0.97-2.82,1.41c-0.68,0.32-1.38,0.59-2.07,0.89c-0.79,0.34-1.58,0.68-2.38,0.99
			l-6.06-4.4l8.65-26.64h28l2.21,6.78c-0.54,0.68-1.11,1.35-1.67,2.01C366.2,232.8,365.73,233.39,365.23,233.94z M279.04,254.48
			c-0.79-0.31-1.57-0.65-2.35-0.98c-0.7-0.3-1.41-0.58-2.11-0.9c-0.95-0.44-1.87-0.93-2.8-1.4c-0.63-0.33-1.28-0.63-1.9-0.97
			c-1.01-0.55-1.99-1.16-2.97-1.76c-0.51-0.31-1.04-0.6-1.55-0.92c-1.39-0.89-2.76-1.83-4.09-2.81c-0.08-0.06-0.16-0.11-0.24-0.16
			c-1.41-1.04-2.78-2.13-4.11-3.27c-0.44-0.37-0.85-0.78-1.29-1.16c-0.88-0.78-1.76-1.56-2.61-2.38c-0.5-0.49-0.97-1-1.45-1.5
			c-0.74-0.76-1.49-1.52-2.2-2.31c-0.5-0.55-0.96-1.14-1.45-1.71c-0.57-0.67-1.13-1.33-1.68-2.02l2.21-6.78h28l8.65,26.64
			L279.04,254.48z M276.93,220.05h-29.72c-0.73,0-1.38,0.47-1.61,1.17l-1.86,5.72c-8.92-12.55-13.8-27.19-14.25-42.65l4.03,2.93
			c0.3,0.22,0.65,0.32,0.99,0.32c0.35,0,0.7-0.11,0.99-0.32l23.89-17.36l21.88,8.73l8.86,27.27L276.93,220.05z M229.63,177.4
			c0.04-0.73,0.06-1.47,0.12-2.2c0.09-1.1,0.24-2.19,0.39-3.29c0.09-0.67,0.15-1.34,0.25-2c0.19-1.22,0.44-2.43,0.69-3.64
			c0.11-0.53,0.19-1.06,0.31-1.59c0.39-1.73,0.84-3.44,1.34-5.13c0.05-0.15,0.11-0.3,0.15-0.45c0.47-1.54,0.98-3.06,1.54-4.57
			c0.22-0.58,0.48-1.14,0.71-1.72c0.43-1.07,0.85-2.13,1.33-3.18c0.3-0.66,0.64-1.3,0.96-1.95c0.46-0.94,0.91-1.89,1.41-2.81
			c0.36-0.67,0.77-1.33,1.15-1.99c0.43-0.74,0.86-1.49,1.32-2.22h7.23l8.65,26.64l-22.65,16.46l-5.02-3.65
			C229.52,179.2,229.57,178.3,229.63,177.4z M293.29,204.6l-8.65-26.63l22.52-16.36c0.05,0,0.09,0.03,0.14,0.03
			c0.05,0,0.09-0.02,0.14-0.03l22.52,16.36l-8.65,26.63H293.29z M286.68,106.88c0.8-0.22,1.61-0.41,2.41-0.6
			c0.79-0.19,1.57-0.4,2.36-0.56c0.8-0.17,1.61-0.28,2.41-0.42c0.97-0.17,1.93-0.35,2.91-0.49c0.46-0.06,0.92-0.09,1.38-0.14
			c6.06-0.7,12.21-0.7,18.27,0c0.46,0.05,0.92,0.08,1.38,0.14c0.98,0.13,1.94,0.32,2.91,0.49c0.8,0.14,1.61,0.26,2.41,0.42
			c0.8,0.16,1.58,0.37,2.37,0.56c0.8,0.19,1.61,0.38,2.4,0.6l2.04,6.27l-22.65,16.46l-22.65-16.46L286.68,106.88z M373.3,140.66
			c0.47,0.74,0.9,1.5,1.34,2.26c0.37,0.65,0.77,1.28,1.12,1.94c0.52,0.95,0.98,1.93,1.46,2.91c0.3,0.62,0.63,1.23,0.91,1.85
			c0.51,1.13,0.97,2.28,1.43,3.44c0.19,0.49,0.41,0.96,0.6,1.46c1.25,3.33,2.27,6.75,3.05,10.22c0.06,0.29,0.11,0.58,0.17,0.87
			c0.31,1.45,0.6,2.9,0.82,4.37c0.08,0.52,0.12,1.04,0.19,1.57c0.17,1.24,0.33,2.47,0.43,3.72c0.06,0.7,0.08,1.4,0.12,2.09
			c0.05,0.92,0.11,1.84,0.13,2.76l-5.02,3.65l-22.65-16.46l8.65-26.64H373.3z M371.07,137.28h-6.24c-0.73,0-1.38,0.47-1.61,1.17
			l-9.17,28.22l-21.88,8.73l-23.19-16.85v-25.99l23.94-17.4c0.59-0.43,0.84-1.2,0.61-1.89l-1.7-5.22
			C347.69,113.3,361.44,123.54,371.07,137.28z M282.74,108.05l-1.7,5.22c-0.23,0.7,0.02,1.46,0.61,1.89l23.94,17.4v25.99
			l-23.19,16.85l-21.88-8.73l-9.17-28.22c-0.23-0.7-0.88-1.17-1.61-1.17h-6.24C253.15,123.54,266.89,113.3,282.74,108.05z
			 M282.87,255.88l5.21-3.79c0.59-0.43,0.84-1.19,0.61-1.89l-9.1-28.03l13.21-14.18h28.99l13.21,14.18l-9.1,28.03
			c-0.23,0.7,0.02,1.46,0.61,1.89l5.21,3.79c-7.85,2.59-16.05,3.91-24.42,3.91C298.92,259.79,290.72,258.47,282.87,255.88z"/>
	</g>
	<g>
		<path class="st7" d="M-11.15,120.45c-1.2,8.5,2.43,17.2,8.27,23.49c5.84,6.29,13.67,10.42,21.74,13.32
			c21.4,7.7,46.22,7.16,66.05-3.98c9.63-5.41,17.84-13.07,27.47-18.49c6.59-3.71,28.81-10.93,36.62-11.04
			c9.65-0.14,28.33-1.64,37.98-1.77c3.21-6.91-0.13-14.66-4.05-21.19c-12.37-20.61-33.26-37.63-57.26-39
			c-21.56-1.23-41.7,9.95-59.97,21.46s-37.06,24.09-58.56,26.18c-3.58,0.35-7.27,0.41-10.64,1.68S-10.65,116.88-11.15,120.45z"/>
		<path class="st7" d="M198.75,118.28c2.58,2.27,6.2,2.82,9.6,3.28c2.64,0.35,5.5,0.66,7.8-0.68c3.36-1.96,4-6.88,2.23-10.35
			c-1.77-3.47-5.27-5.7-8.81-7.31c-2.54-1.15-5.21-2.08-7.99-2.28c-3.16-0.22-6.31,0.51-9.39,1.25c-5.86,1.39-11.72,2.78-17.57,4.17
			c-0.74,0.17-1.54,0.4-1.96,1.03c-0.35,0.53-0.33,1.2-0.28,1.83c0.42,5.34,1.57,11.8,7.24,13.33
			C185.96,124.28,193.63,122.17,198.75,118.28z"/>
		<g>
			<defs>
				<path id="SVGID_1_" d="M198.75,118.28c2.58,2.27,6.2,2.82,9.6,3.28c2.64,0.35,5.5,0.66,7.8-0.68c3.36-1.96,4-6.88,2.23-10.35
					c-1.77-3.47-5.27-5.7-8.81-7.31c-2.54-1.15-5.21-2.08-7.99-2.28c-3.16-0.22-6.31,0.51-9.39,1.25
					c-5.86,1.39-11.72,2.78-17.57,4.17c-0.74,0.17-1.54,0.4-1.96,1.03c-0.35,0.53-0.33,1.2-0.28,1.83
					c0.42,5.34,1.57,11.8,7.24,13.33C185.96,124.28,193.63,122.17,198.75,118.28z"/>
			</defs>
			<clipPath id="SVGID_00000074420471378439789710000007300496573777862300_">
				<use xlink:href="#SVGID_1_"  style="overflow:visible;"/>
			</clipPath>
			<path style="clip-path:url(#SVGID_00000074420471378439789710000007300496573777862300_);fill:#F76E6E;" d="M175.13,109.25
				c1.56,3.13,4.82,5.34,8.31,5.64c0.25,1.14,0.99,2.17,2,2.75c-0.43-0.73-0.63-1.6-0.58-2.45c0.01-0.14,0.03-0.28,0.13-0.38
				c0.14-0.14,0.36-0.12,0.55-0.1c1.56,0.17,3.17-0.22,4.47-1.09c0.23-0.15,0.5-0.33,0.76-0.25c0.17,0.05,0.3,0.21,0.41,0.35
				c0.78,0.91,1.96,1.47,3.15,1.49c-0.67-1.37-0.46-3.12,0.51-4.3c1.08,1.46,2.17,2.94,3.61,4.05c1.44,1.11,3.28,1.82,5.07,1.5
				c0.4,0.84,1.19,1.49,2.09,1.72c-0.39-0.6-0.65-1.29-0.76-1.99c1.62-0.27,3.47,0.88,4.83-0.05c0.99-0.68,1.08-2.12,0.8-3.29
				c-0.13-0.53-0.33-1.07-0.73-1.43c-0.4-0.36-1.06-0.5-1.5-0.18c-0.44,0.32-0.43,1.14,0.08,1.34c-1.77-0.89-2.3-3.55-1.01-5.05
				c0.18,0.04,0.35,0.09,0.53,0.13c1.67,0.41,3.46,0.08,5.17,0.31c1.84,0.25,3.87,0.6,5.02,2.06c0.54,0.69,0.81,1.56,1.01,2.42
				c0.54,2.3,0.51,6.02-0.76,8.01c-0.86,1.35-2.27,2.29-3.79,2.79s-3.15,0.57-4.75,0.46c-2.89-0.21-5.73-1.04-8.27-2.43
				c-0.61-0.33-1.21-0.7-1.88-0.83c-1.36-0.27-2.7,0.46-3.93,1.09c-2.65,1.37-5.48,2.45-8.44,2.88c-2.95,0.44-6.04,0.21-8.79-0.96
				c-0.61-0.26-1.21-0.57-1.64-1.06c-0.74-0.83-0.77-3.17-0.88-4.28C175.62,115.26,175.42,112.14,175.13,109.25z"/>
			<g style="clip-path:url(#SVGID_00000074420471378439789710000007300496573777862300_);">
				<g>
					<path class="st10" d="M216.81,109.97c1.39,2.21,1.59,4.96,0.39,7.3c-0.36,0.71,0.71,1.34,1.07,0.63
						c1.4-2.73,1.25-5.95-0.39-8.55C217.45,108.67,216.38,109.29,216.81,109.97L216.81,109.97z"/>
				</g>
			</g>
			<g style="clip-path:url(#SVGID_00000074420471378439789710000007300496573777862300_);">
				<g>
					<path class="st10" d="M195.54,111.74c0.1,0.34,0.13,0.7,0.2,1.05c0.1,0.56,0.26,1.11,0.48,1.63c0.88,2.16,2.44,3.98,4.06,5.62
						c0.56,0.57,1.44-0.31,0.88-0.88c-1.48-1.5-3.03-3.28-3.79-5.2c-0.2-0.5-0.34-1.02-0.44-1.55c-0.06-0.34-0.09-0.68-0.19-1.01
						C196.5,110.65,195.31,110.97,195.54,111.74L195.54,111.74z"/>
				</g>
			</g>
			<g style="clip-path:url(#SVGID_00000074420471378439789710000007300496573777862300_);">
				<g>
					<path class="st10" d="M191.37,113.34c0.28,1.33,1.23,2.54,2.22,3.43c1.38,1.25,3.07,2.03,4.92,2.27
						c0.33,0.04,0.62-0.31,0.62-0.62c0-0.37-0.29-0.58-0.62-0.62c-1.53-0.19-2.98-0.92-4.1-1.96c-0.48-0.44-0.9-0.92-1.24-1.46
						c-0.31-0.49-0.48-0.82-0.6-1.36C192.4,112.23,191.2,112.56,191.37,113.34L191.37,113.34z"/>
				</g>
			</g>
		</g>
		<path class="st7" d="M175.06,25.72c-0.88-1.22-2-2.32-3.37-2.95c-1.12-0.51-2.37-0.68-3.6-0.78c-5.77-0.5-11.38,0.88-17.09,1.63
			c-6.06,0.8-12.12,1.66-18.19,2.4c-2.77,0.37-5.58,0.74-8.16,1.83c-6.86,2.91-10.63,10.12-15.72,15.56
			c-3.13,3.33-6.84,6.05-10.35,8.98c-9.92,8.27-18.35,18.33-24.77,29.54c-0.36,0.63-0.72,1.37-0.45,2.03
			c0.15,0.37,0.46,0.64,0.77,0.88c4.17,3.21,9.86,3.67,15.08,3.04c5.22-0.63,10.32-2.19,15.57-2.54c7.32-0.48,14.81,1.42,21.93-0.34
			c6.1-1.51,11.51-5.56,13.71-11.58c1.08-2.94,1.31-6.13,0.82-9.21c-0.49-3.09-0.95-6.44-0.15-9.52c1.02-3.9,3.47-4.18,6.54-6.13
			c0.84-0.53,1.65-1.14,2.61-1.42c2.51-0.74,5.62-0.22,8.14,0.15c2.48,0.37,5,0.67,7.48,0.3c4.69-0.71,8.9-3.99,10.74-8.36
			C178.44,34.87,177.83,29.57,175.06,25.72z"/>
		<g>
			<defs>
				<path id="SVGID_00000021828733191560985880000010106190076090111408_" d="M175.06,25.72c-0.88-1.22-2-2.32-3.37-2.95
					c-1.12-0.51-2.37-0.68-3.6-0.78c-5.77-0.5-11.38,0.88-17.09,1.63c-6.06,0.8-12.12,1.66-18.19,2.4
					c-2.77,0.37-5.58,0.74-8.16,1.83c-6.86,2.91-10.63,10.12-15.72,15.56c-3.13,3.33-6.84,6.05-10.35,8.98
					c-9.92,8.27-18.35,18.33-24.77,29.54c-0.36,0.63-0.72,1.37-0.45,2.03c0.15,0.37,0.46,0.64,0.77,0.88
					c4.17,3.21,9.86,3.67,15.08,3.04c5.22-0.63,10.32-2.19,15.57-2.54c7.32-0.48,14.81,1.42,21.93-0.34
					c6.1-1.51,11.51-5.56,13.71-11.58c1.08-2.94,1.31-6.13,0.82-9.21c-0.49-3.09-0.95-6.44-0.15-9.52c1.02-3.9,3.47-4.18,6.54-6.13
					c0.84-0.53,1.65-1.14,2.61-1.42c2.51-0.74,5.62-0.22,8.14,0.15c2.48,0.37,5,0.67,7.48,0.3c4.69-0.71,8.9-3.99,10.74-8.36
					C178.44,34.87,177.83,29.57,175.06,25.72z"/>
			</defs>
			<clipPath id="SVGID_00000179621003084457916060000001140421293815682995_">
				<use xlink:href="#SVGID_00000021828733191560985880000010106190076090111408_"  style="overflow:visible;"/>
			</clipPath>
			<path style="clip-path:url(#SVGID_00000179621003084457916060000001140421293815682995_);fill:#FDA3A2;" d="M177.93,32.52
				c-0.17-0.52-0.25-1.06-0.45-1.57c-0.23-0.61-0.55-1.18-0.81-1.78c-1.5-0.68-2.85-1.67-4.37-2.35c-2.47-1.09-4.82-1.63-7.53-1.65
				c-2.66-0.02-5.3,0.21-7.96,0.16c-1.3-0.03-2.61-0.03-3.89-0.18c1.14,0.4,2.33,0.67,3.51,0.86c2.86,0.46,5.79,0.58,8.54,1.5
				c2.74,0.92,5.37,2.85,6.14,5.64c0.64,2.31-0.09,4.76-0.82,7.05c1.45-0.62,2.52-2.05,2.7-3.61c0.5,3.25-1.07,5.75-2.82,8.22
				c3.95,0.11,6.24-5.64,7.27-8.73c0.31-0.95,0.53-2.01,0.66-3.12C178.04,32.81,177.98,32.67,177.93,32.52z"/>
			<g style="clip-path:url(#SVGID_00000179621003084457916060000001140421293815682995_);">
				<g>
					<path class="st10" d="M139.32,47.29c2.88,1.23,6.02,1.72,9.13,1.37c0.33-0.04,0.62-0.26,0.62-0.62c0-0.31-0.29-0.66-0.62-0.62
						c-2.89,0.33-5.83-0.06-8.51-1.2c-0.31-0.13-0.66-0.09-0.85,0.22C138.95,46.7,139.02,47.16,139.32,47.29L139.32,47.29z"/>
				</g>
			</g>
			<g style="clip-path:url(#SVGID_00000179621003084457916060000001140421293815682995_);">
				<g>
					<path class="st10" d="M144.69,41.29c0.38,0.93,1.09,1.55,1.88,2.14c0.8,0.6,1.67,1.13,2.57,1.57c1.82,0.88,3.76,1.41,5.78,1.6
						c0.79,0.07,0.79-1.16,0-1.24c-1.73-0.16-3.44-0.62-5-1.36c-0.79-0.37-1.54-0.81-2.25-1.3c-0.64-0.45-1.47-0.98-1.78-1.74
						c-0.13-0.31-0.41-0.53-0.76-0.43C144.83,40.6,144.56,40.98,144.69,41.29L144.69,41.29z"/>
				</g>
			</g>
			<path style="clip-path:url(#SVGID_00000179621003084457916060000001140421293815682995_);fill:#FDA3A2;" d="M133.12,21.49
				c-2.79,0.57-5.6,1.15-8.19,2.32c-2.43,1.1-4.6,2.68-6.75,4.25c-5.85,4.28-11.74,8.6-16.57,14c-2.7,3.02-5.03,6.34-7.36,9.66
				c-2.6,3.71-5.22,7.44-7.15,11.55c7.51-2.9,14.45-7.29,20.27-12.84c1.78-1.7,3.54-3.55,5.84-4.44c4.02-1.55,8.87,0.18,12.67-1.83
				c-2.34,0.7-5.32,0.13-6.44-2.05c-1.11-2.18,0.2-4.96,2.23-6.32s4.58-1.64,7.01-1.88c-1.31,0.59-2.46-1.54-1.68-2.75
				s2.36-1.55,3.78-1.81c3.77-0.7,7.58-1.7,10.76-3.84c1.95-1.31,2.58-3.66,0.24-4.81C139.63,19.61,135.34,21.04,133.12,21.49z"/>
			<path style="clip-path:url(#SVGID_00000179621003084457916060000001140421293815682995_);fill:#F76E6E;" d="M145.09,47.39
				c-0.07,0.77-2.18,0.82-2.94,1.01c1.5,0.71,3.26,0.81,4.87,0.38s3.05-1.37,4.19-2.59c-0.63,0.68-4.84-3.56-5.53-3.36
				C144.73,43.1,146.88,45.15,145.09,47.39z"/>
		</g>
		<g>
			<defs>
				<path id="SVGID_00000129921480334840864650000008379911640064960445_" d="M-11.15,120.45c-1.2,8.5,2.43,17.2,8.27,23.49
					c5.84,6.29,13.67,10.42,21.74,13.32c21.4,7.7,46.22,7.16,66.05-3.98c9.63-5.41,17.84-13.07,27.47-18.49
					c6.59-3.71,28.81-10.93,36.62-11.04c9.65-0.14,28.33-1.64,37.98-1.77c3.21-6.91-0.13-14.66-4.05-21.19
					c-12.37-20.61-33.26-37.63-57.26-39c-21.56-1.23-41.7,9.95-59.97,21.46s-37.06,24.09-58.56,26.18
					c-3.58,0.35-7.27,0.41-10.64,1.68S-10.65,116.88-11.15,120.45z"/>
			</defs>
			<clipPath id="SVGID_00000036209696046697170360000011068269051939427005_">
				<use xlink:href="#SVGID_00000129921480334840864650000008379911640064960445_"  style="overflow:visible;"/>
			</clipPath>
			<path style="clip-path:url(#SVGID_00000036209696046697170360000011068269051939427005_);fill:#F76E6E;" d="M140.35,118.7
				c-0.91-0.06-1.89-0.16-2.6-0.75c-1.5-1.23-0.83-3.74,0.5-5.16c1.33-1.41,5.6-4.79,6.62-6.44c-6.38,4.92-17.8,5.8-25.86,6
				c-11.78,0.3-23.27,4.99-32.43,12.4c-4.2,3.4-7.96,7.35-12.43,10.39c-4.47,3.04-9.93,5.14-15.24,4.17s-10.13-5.79-9.68-11.17
				c-3.21,3.64-3.03,9.77,0.39,13.21c-5.98-0.68-11.42-4.94-13.52-10.59c-1.95,4.19-0.94,10.33,2.48,13.44
				c-4.79-0.24-10.45-2.48-13.43-6.24c-2.2,0.05-1.16,9.13,2.57,14.24c-6.54,1.9-13.27-1.8-18.98-5.5
				c-6.54-4.24-14-8.05-24.06-29.26c-0.13,6.55,7.84,28.8,12.39,33.52c4.54,4.72,10.39,7.99,16.41,10.57
				c22.32,9.58,48.76,10.15,70.72-0.23c19.23-9.08,34.48-25.87,54.71-32.42c9.95-3.22,20.55-3.76,31-4.23
				c3.19-0.14,6.61-0.36,9.12-2.33c-0.93-2.55-1.27-11.71-3.92-13.08c-3.32,4.67-8.32,5.74-11.06,6.59
				C156.43,118.23,148.35,119.22,140.35,118.7z"/>
			<g style="clip-path:url(#SVGID_00000036209696046697170360000011068269051939427005_);">
				<g>
					<path class="st10" d="M152.43,98.26c-2.16,3.28-5.6,5.24-9.05,6.92c-3.76,1.83-7.77,3.39-11.92,4.04
						c-4.26,0.67-8.61,0.59-12.89,1.16c-4.13,0.56-8.41,0.83-12.46,1.85c-2.15,0.54-4.34,0.9-6.44,1.61
						c-2.15,0.73-4.2,1.71-6.18,2.81c-0.7,0.39-0.07,1.46,0.63,1.07c7.68-4.29,16.52-5.08,25.09-6.19
						c4.25-0.55,8.57-0.45,12.81-1.16c4.1-0.69,8.05-2.23,11.78-4.03c3.72-1.8,7.38-3.93,9.7-7.46
						C153.93,98.22,152.86,97.6,152.43,98.26L152.43,98.26z"/>
				</g>
			</g>
		</g>
		<path class="st7" d="M197.36,101.7c6.96,5.64,16.32,8.2,25.17,6.89c1.35-0.2,2.73-0.5,3.82-1.31c2.76-2.05,2.51-6.3,1.24-9.5
			c-4.01-10.1-14.94-16.13-25.75-17.31c-10.81-1.18-21.62,1.64-32.06,4.67c-0.71,0.21-1.47,0.44-1.93,1.03
			c-0.49,0.63-0.51,1.49-0.5,2.29c0.11,6.36-0.99,17.26,6.87,18.21c3.86,0.47,7.93,0.23,11.73-0.54
			C187.14,105.87,197.35,101.69,197.36,101.7z"/>
		<g>
			<defs>
				<path id="SVGID_00000046339192932333532980000009001515634345494930_" d="M197.36,101.7c6.96,5.64,16.32,8.2,25.17,6.89
					c1.35-0.2,2.73-0.5,3.82-1.31c2.76-2.05,2.51-6.3,1.24-9.5c-4.01-10.1-14.94-16.13-25.75-17.31
					c-10.81-1.18-21.62,1.64-32.06,4.67c-0.71,0.21-1.47,0.44-1.93,1.03c-0.49,0.63-0.51,1.49-0.5,2.29
					c0.11,6.36-0.99,17.26,6.87,18.21c3.86,0.47,7.93,0.23,11.73-0.54C187.14,105.87,197.35,101.69,197.36,101.7z"/>
			</defs>
			<clipPath id="SVGID_00000101090148870766342880000011412468303106933662_">
				<use xlink:href="#SVGID_00000046339192932333532980000009001515634345494930_"  style="overflow:visible;"/>
			</clipPath>
			<path style="clip-path:url(#SVGID_00000101090148870766342880000011412468303106933662_);fill:#F76E6E;" d="M197.36,101.7
				c-3.97,0.68-8.33,4.48-12.36,4.6s-7.03,1.89-10.76,0.36c-0.33-1.85-3.45-10.26-3.27-12.13c2.38,2.44,4.56,6.73,10.8,5.97
				c0.44-0.05,0.91,0.05,1.29,0.28c0.7,0.43,1.01,1.52,1.83,1.54c-0.6-0.47,0.16-1.99,0.16-1.99s2.1,1.53,8.29-1.34
				c-0.12-1.63,0.29-2.2,1.3-3.49c3.47,4.7,8.76,8.17,14.54,9c0.48,0.07,0.98,0.13,1.42,0.32c0.9,0.4,1.62,1.37,2.6,1.26
				c-0.31-0.52-0.61-1.03-0.92-1.55c2.21,0.31,4.53,0.61,6.62-0.17s3.81-3.04,3.18-5.19c1.27,0.53,2.3,1.62,2.76,2.91
				c0.07,0.21,0.15,0.43,0.34,0.54c0.32,0.19,0.71-0.1,0.96-0.37c0.65-0.7,1.22-1.48,1.7-2.31c1.02,1.72,1.44,3.87,0.39,5.58
				c-1.04,1.71-3.44,3.02-5.34,3.63c-1.91,0.61-3.94,0.72-5.94,0.66C209.73,109.6,202.37,106.9,197.36,101.7z"/>
			<g style="clip-path:url(#SVGID_00000101090148870766342880000011412468303106933662_);">
				<g>
					<path class="st10" d="M225.82,96.8c1.25,1.73,1.08,4.07-0.47,5.56c-0.58,0.55,0.3,1.43,0.88,0.88c1.92-1.84,2.23-4.9,0.67-7.06
						c-0.2-0.27-0.54-0.4-0.85-0.22C225.77,96.11,225.62,96.53,225.82,96.8L225.82,96.8z"/>
				</g>
			</g>
			<g style="clip-path:url(#SVGID_00000101090148870766342880000011412468303106933662_);">
				<g>
					<path class="st10" d="M195.14,95.45c-0.02,1.35,0.3,2.66,0.78,3.91c0.24,0.63,0.52,1.25,0.81,1.86
						c0.24,0.51,0.49,1.38,1.14,1.47c0.33,0.05,0.67-0.08,0.76-0.43c0.08-0.29-0.1-0.71-0.43-0.76c0.05,0.07,0.07,0.08,0.06,0.04
						c-0.03-0.06-0.06-0.12-0.09-0.18c-0.05-0.11-0.1-0.22-0.16-0.32c-0.12-0.25-0.24-0.51-0.36-0.76
						c-0.24-0.52-0.46-1.04-0.65-1.57c-0.38-1.05-0.63-2.13-0.61-3.25C196.39,94.66,195.15,94.65,195.14,95.45L195.14,95.45z"/>
				</g>
			</g>
		</g>
		<path class="st7" d="M192.24,87.95c0.56-0.12,1.14-0.24,1.71-0.14c0.73,0.14,1.33,0.62,1.9,1.1c5.13,4.29,10.42,8.9,16.96,10.28
			c6.54,1.38,14.61-1.95,15.82-8.52c0.67-3.67-0.92-7.42-3.16-10.4c-4.03-5.36-10.12-8.89-16.51-10.92
			c-6.39-2.03-13.13-2.67-19.82-3.18c-7.09-0.53-14.33-0.9-21.22,0.87c-4.09,1.05-8.38,3.28-9.68,7.29
			c-1.24,3.81,0.63,7.87,2.44,11.44C166.85,97.94,181.84,90.18,192.24,87.95z"/>
		<g>
			<defs>
				<path id="SVGID_00000116211388114661268080000002590032985503653299_" d="M192.24,87.95c0.56-0.12,1.14-0.24,1.71-0.14
					c0.73,0.14,1.33,0.62,1.9,1.1c5.13,4.29,10.42,8.9,16.96,10.28c6.54,1.38,14.61-1.95,15.82-8.52c0.67-3.67-0.92-7.42-3.16-10.4
					c-4.03-5.36-10.12-8.89-16.51-10.92c-6.39-2.03-13.13-2.67-19.82-3.18c-7.09-0.53-14.33-0.9-21.22,0.87
					c-4.09,1.05-8.38,3.28-9.68,7.29c-1.24,3.81,0.63,7.87,2.44,11.44C166.85,97.94,181.84,90.18,192.24,87.95z"/>
			</defs>
			<clipPath id="SVGID_00000102527567689999788840000012903270512885687179_">
				<use xlink:href="#SVGID_00000116211388114661268080000002590032985503653299_"  style="overflow:visible;"/>
			</clipPath>
			<path style="clip-path:url(#SVGID_00000102527567689999788840000012903270512885687179_);fill:#F76E6E;" d="M173.1,85.11
				c0.96,1.05,2.84,2.42,4.27,2.31c-0.95-0.54-1.91-2.13-2.4-3.1c2.06,0.22,4.2,0.21,6.13-0.54c1.93-0.75,5.76-3.93,5.34-5.01
				c0.68,0.82,2.13,1.85,2.86,1.32c-0.74-1.78,1.18-7.01,1.6-7.92c-0.38,8.52,1.32,11.06,3.05,15.64c-2.71,0.28-6.8,2.46-9.39,3.29
				c-2.13,0.68-4.2,1.55-6.38,2.07c-3.16,0.76-5.59-0.92-8.84-1.02c-0.26-0.01-1.44-2.26-1.66-2.39c-0.23-0.13-0.37-0.37-0.5-0.6
				c-0.66-1.14-3.66-4.66-0.71-4.01C168.95,85.7,170.62,86.41,173.1,85.11z"/>
			<g style="clip-path:url(#SVGID_00000102527567689999788840000012903270512885687179_);">
				<g>
					<path class="st10" d="M187.07,78.99c0.03,1.01,0.25,1.97,0.68,2.88c0.44,0.92,1.07,1.73,1.69,2.52
						c1.32,1.67,3.23,2.58,5.08,3.52c0.71,0.36,1.34-0.71,0.63-1.07c-1.67-0.85-3.43-1.64-4.66-3.11c-1.15-1.39-2.14-2.89-2.19-4.74
						C188.29,78.19,187.05,78.19,187.07,78.99L187.07,78.99z"/>
				</g>
			</g>
			<path style="clip-path:url(#SVGID_00000102527567689999788840000012903270512885687179_);fill:#F76E6E;" d="M215.66,96.26
				c0.22,0.5,0.33,1.04,0.32,1.58c0.31,0.13,0.61-0.23,0.71-0.55c0.1-0.33,0.15-0.72,0.46-0.88c0.14-0.07,0.31-0.07,0.47-0.08
				c2.17-0.05,4.33-0.8,6.05-2.12c0.97-0.74,1.88-1.87,1.63-3.07c0.91,0.29,1.81,0.58,2.72,0.86c-0.08,0.69-2.31,3.74-3.25,4.66
				c-0.77,0.75-2.21,1.32-3.14,1.86c-1.93,1.14-4.3,1.23-6.53,1.02c-7.14-0.68-13.95-4.29-18.51-9.82c1.75,1.06,3.56,1.28,5.56,1.31
				c1.74,0.02,2.18,0.44,3.33,1.61c1.28,1.3,3.01,2.16,4.72,2.75C210.73,95.58,215.63,96.21,215.66,96.26z"/>
			<g style="clip-path:url(#SVGID_00000102527567689999788840000012903270512885687179_);">
				<g>
					<path class="st10" d="M220.68,75.36c-0.74,0.07-1.45,0.31-2.05,0.75c-0.13,0.1-0.24,0.2-0.28,0.37
						c-0.04,0.15-0.02,0.35,0.06,0.48c0.09,0.13,0.21,0.25,0.37,0.28c0.15,0.03,0.35,0.03,0.48-0.06c0.23-0.17,0.47-0.3,0.73-0.41
						c-0.05,0.02-0.1,0.04-0.15,0.06c0.28-0.11,0.57-0.19,0.86-0.24c-0.05,0.01-0.11,0.01-0.16,0.02c0.05-0.01,0.1-0.01,0.15-0.02
						c0.17-0.02,0.31-0.06,0.44-0.18c0.11-0.11,0.19-0.28,0.18-0.44c-0.01-0.16-0.06-0.33-0.18-0.44
						C221,75.44,220.84,75.35,220.68,75.36L220.68,75.36z"/>
				</g>
			</g>
			<g style="clip-path:url(#SVGID_00000102527567689999788840000012903270512885687179_);">
				<g>
					<path class="st10" d="M221.1,77.83c3.87,3.36,6.75,8.32,5.58,13.6c-0.17,0.78,1.02,1.11,1.19,0.33
						c1.27-5.71-1.67-11.13-5.9-14.8C221.38,76.43,220.5,77.3,221.1,77.83L221.1,77.83z"/>
				</g>
			</g>
		</g>
		<path class="st7" d="M139.04,59.15c11.71-0.68,23.4-2.64,34.47-6.51c5.38-1.88,10.65-4.22,16.25-5.31
			c5.6-1.09,14.09-2.55,18.88,0.55c4.51,2.92,6.54,5.95,8.03,10.03c1.22,3.35,1.67,6.93,1.38,10.49
			c-0.62,7.73-0.88,17.66-6.77,21.04c-5.1,2.93-12.56,2.84-16.5-1.53c-3.94-4.37-4.61-13.79-2.15-19.13
			c-3.95,5.1-10.71,6.93-16.98,8.44c-6.14,1.49-12.4,2.98-18.69,2.42c-10.37-0.92-19.12-7.13-28.02-11.95
			c-2.96-1.6-10.86-3.56-5.35-6.8C127.45,58.63,134.72,59.4,139.04,59.15z"/>
		<g>
			<defs>
				<path id="SVGID_00000098925402140157640220000006595737337285939341_" d="M139.04,59.15c11.71-0.68,23.4-2.64,34.47-6.51
					c5.38-1.88,10.65-4.22,16.25-5.31c5.6-1.09,14.09-2.55,18.88,0.55c4.51,2.92,6.54,5.95,8.03,10.03
					c1.22,3.35,1.67,6.93,1.38,10.49c-0.62,7.73-0.88,17.66-6.77,21.04c-5.1,2.93-12.56,2.84-16.5-1.53
					c-3.94-4.37-4.61-13.79-2.15-19.13c-3.95,5.1-10.71,6.93-16.98,8.44c-6.14,1.49-12.4,2.98-18.69,2.42
					c-10.37-0.92-19.12-7.13-28.02-11.95c-2.96-1.6-16.89-1.92-11.38-5.16C121.41,60.27,134.72,59.4,139.04,59.15z"/>
			</defs>
			<clipPath id="SVGID_00000054957413514754710400000011374553801814103463_">
				<use xlink:href="#SVGID_00000098925402140157640220000006595737337285939341_"  style="overflow:visible;"/>
			</clipPath>
			<path style="clip-path:url(#SVGID_00000054957413514754710400000011374553801814103463_);fill:#FDA3A2;" d="M157.62,70.55
				c-0.15-1.91-1.69-5.85-0.18-7.02c1.51-1.17,3.4-1.74,5.28-2.09c4-0.75,15.55-6.13,17.93-7.08c1.9-0.76,4.09-3.16,4.62-2.94
				c1.08,0.47,1.43,2.4,2.58,2.16c-0.41-1.17,0.25-2.51,1.24-3.26c0.99-0.76,2.24-1.06,3.45-1.35c6.11-1.46,12.48-2.93,18.6-1.52
				c-3.74-6.04-9.97-4.09-15.86-2.95c-6.3,1.22-12.46,3.1-18.55,5.09c-11.84,3.86-23.69,8.29-36.19,9.39
				c-5.35,0.47-10.78,0.33-16.04,1.42c-2.58,0.54-5.3,1.32-7.61,2.6c2.61,0.27,18.08-1.55,32.06,1.71
				C150.78,65.13,157.51,69.13,157.62,70.55z"/>
			<g style="clip-path:url(#SVGID_00000054957413514754710400000011374553801814103463_);">
				<g>
					<path class="st10" d="M191.4,59.89c-0.71,2.88-0.66,5.9,0.17,8.74c0.22,0.76,1.42,0.44,1.19-0.33
						c-0.77-2.64-0.83-5.42-0.17-8.08C192.79,59.44,191.59,59.11,191.4,59.89L191.4,59.89z"/>
				</g>
			</g>
			<g style="clip-path:url(#SVGID_00000054957413514754710400000011374553801814103463_);">
				<g>
					<path class="st10" d="M191.81,68.34c-2.86,0.4-5.86-0.59-7.97-2.56c-0.58-0.54-1.46,0.33-0.88,0.88
						c2.46,2.3,5.84,3.34,9.17,2.87c0.33-0.05,0.51-0.47,0.43-0.76C192.48,68.41,192.14,68.29,191.81,68.34L191.81,68.34z"/>
				</g>
			</g>
			<g style="clip-path:url(#SVGID_00000054957413514754710400000011374553801814103463_);">
				<g>
					<path class="st10" d="M215.11,64.85c-1.03-0.38-2.14-0.57-3.24-0.55c-0.32,0-0.63,0.28-0.62,0.62
						c0.01,0.33,0.27,0.62,0.62,0.62c0.27,0,0.53,0,0.8,0.02c0.11,0.01,0.23,0.02,0.34,0.03c0.07,0.01,0.08,0.01,0.01,0
						c0.04,0.01,0.08,0.01,0.11,0.02c0.06,0.01,0.11,0.02,0.17,0.03c0.51,0.09,1,0.23,1.48,0.41c0.3,0.11,0.69-0.13,0.76-0.43
						C215.62,65.26,215.43,64.97,215.11,64.85L215.11,64.85z"/>
				</g>
			</g>
			<g style="clip-path:url(#SVGID_00000054957413514754710400000011374553801814103463_);">
				<g>
					<path class="st10" d="M212.42,71.07c1.04,0.27,2.68,0.36,2.97,1.62c0.26,1.15-0.07,2.52-0.29,3.65
						c-0.61,3.07-1.36,6.11-2.39,9.07c-0.26,0.75,0.93,1.08,1.19,0.33c1.16-3.35,2.09-6.86,2.62-10.37c0.18-1.19,0.42-2.7-0.25-3.79
						c-0.74-1.21-2.27-1.39-3.52-1.71C211.98,69.68,211.65,70.87,212.42,71.07L212.42,71.07z"/>
				</g>
			</g>
			<g style="clip-path:url(#SVGID_00000054957413514754710400000011374553801814103463_);">
				<g>
					<path class="st10" d="M205.95,47.25c-0.81,0.83-1.43,1.79-1.87,2.86c-0.06,0.14-0.01,0.36,0.06,0.48
						c0.08,0.13,0.22,0.25,0.37,0.28c0.16,0.04,0.34,0.03,0.48-0.06c0.14-0.09,0.22-0.21,0.28-0.37c-0.02,0.04-0.04,0.1-0.01,0.03
						c0.01-0.03,0.03-0.07,0.04-0.1c0.02-0.05,0.05-0.11,0.07-0.16c0.05-0.11,0.11-0.22,0.17-0.33c0.12-0.23,0.25-0.45,0.39-0.66
						c0.07-0.1,0.14-0.21,0.21-0.31c0.03-0.04,0.08-0.09,0.11-0.14c-0.02,0.03-0.07,0.08-0.02,0.02c0.02-0.03,0.05-0.06,0.07-0.09
						c0.16-0.2,0.33-0.39,0.51-0.57c0.23-0.23,0.25-0.65,0-0.88C206.58,47.02,206.19,47,205.95,47.25L205.95,47.25z"/>
				</g>
			</g>
			<path style="clip-path:url(#SVGID_00000054957413514754710400000011374553801814103463_);fill:#FDA3A2;" d="M219.29,56.81
				c1.21,5.45,0.49,11.31-2,16.3c-0.41-1.52-1.59-2.8-3.07-3.33c1.68-2.34,2.15-5.5,1.23-8.23c-0.67,0.56-1.17,1.34-1.38,2.18
				c0.65-4.43-0.84-9.12-3.92-12.37c-1.36-1.43-4.68-3.77-3.98-6.18c0.71-2.43,2.95-1.47,4.71-0.52
				C215.31,47.04,218.22,52.01,219.29,56.81z"/>
			<path style="clip-path:url(#SVGID_00000054957413514754710400000011374553801814103463_);fill:#F76E6E;" d="M209.52,90.48
				c-2.64,0.21-5.39,0.05-7.77-1.1s-3.01-3.94-3.15-6.58c-1.15-0.03-2.27,0.75-2.64,1.83c-2.39-4.36-2.78-7.25-2.23-10.95
				c0.39-2.59,1.87-4.94,3.4-7.07c1.86-2.59,4.75-4.21,7.54-5.76c-4.52-0.55-8.7,2.74-11.1,6.61c-2.6,4.19-3.75,9.41-2.46,14.17
				s5.26,8.86,10.13,9.67c4.68,0.78,9.3-1.39,13.55-3.51"/>
			<path style="clip-path:url(#SVGID_00000054957413514754710400000011374553801814103463_);fill:#F76E6E;" d="M186.66,68.07
				c0.69-0.24,1.14-0.91,1.39-1.6s0.36-1.42,0.63-2.1c0.31-0.79,0.85-1.49,1.54-2c-0.03,1.46,0.39,2.92,1.17,4.15
				c0-1.02,0.71-1.94,1.61-2.42c0.9-0.48,1.95-0.58,2.97-0.55c-0.32,0.73-1,1.22-1.57,1.79c-0.94,0.94-1.62,2.14-1.93,3.43
				c-0.07,0.28-0.12,0.57-0.27,0.82c-0.45,0.75-1.51,0.79-2.38,0.67c-1.72-0.25-3.4-0.77-4.95-1.55c-0.79-0.4-1.77-1.02-1.84-1.98
				C184.18,67.21,185.28,68.56,186.66,68.07z"/>
			<path style="clip-path:url(#SVGID_00000054957413514754710400000011374553801814103463_);fill:#F76E6E;" d="M167.6,75.86
				c5.79-0.83,2.12-1.6,3.73-1.51c0.92,0.05,2.05,0.26,2.95,0.06s1.82-0.93,2.43-2.08c0.86,1.17,2.52,1.33,4.08,0.9
				c4.81-1.1,5.7-2.88,6.78-3.46c1.45-0.77,1.47-1.36,2.62-2.53c0.05,1.2,1.47,2.54,0.68,3.45c-3.07,3.52-9.53,5.58-14.05,6.77
				c-4.52,1.19-9.35,3.3-14,2.91c-0.89-0.08-1.93-2.07-2.7-2.51C155.85,75.54,163.87,77.62,167.6,75.86z"/>
		</g>
		<path class="st23" d="M227.6,97.77c-0.36-0.9-0.77-1.76-1.23-2.59c1.13-1.26,1.94-2.77,2.26-4.51c0.67-3.67-0.92-7.42-3.16-10.4
			c-2.12-2.81-4.81-5.12-7.81-6.97c0.15-1.68,0.26-3.33,0.38-4.9c0.29-3.56-0.16-7.14-1.38-10.49c-1.49-4.07-3.52-7.11-8.03-10.03
			c-4.79-3.1-13.28-1.64-18.88-0.55c-5.6,1.09-10.86,3.43-16.25,5.31c-10.56,3.69-21.67,5.64-32.83,6.4
			c-0.04-1.47,0.06-2.93,0.42-4.33c1.02-3.9,3.47-4.18,6.54-6.13c0.84-0.53,1.65-1.14,2.61-1.42c2.51-0.74,5.62-0.22,8.14,0.15
			c2.48,0.37,5,0.67,7.48,0.3c4.69-0.71,8.9-3.99,10.74-8.36c1.84-4.37,1.23-9.68-1.54-13.52c-0.88-1.22-2-2.32-3.37-2.95
			c-1.12-0.51-2.37-0.68-3.6-0.78c-5.77-0.5-11.38,0.88-17.09,1.63c-6.06,0.8-12.12,1.66-18.19,2.4c-2.77,0.37-5.58,0.74-8.16,1.83
			c-6.86,2.91-10.63,10.12-15.72,15.56c-3.13,3.33-6.84,6.05-10.35,8.98c-8.21,6.85-15.4,14.92-21.28,23.86
			c-3.95,2.25-7.82,4.63-11.61,7.02c-18.27,11.51-37.06,24.09-58.56,26.18c-3.58,0.35-7.27,0.41-10.64,1.68
			c-3.37,1.27-7.16,5.76-7.66,9.33c-1.2,8.5,2.43,17.2,8.27,23.49c5.84,6.29,13.67,10.42,21.74,13.32
			c21.4,7.7,46.22,7.16,66.05-3.98c9.63-5.41,17.84-13.07,27.47-18.49c6.59-3.71,28.81-10.93,36.62-11.04
			c7.35-0.1,19.94-1,29.78-1.48c0.27,0.1,0.54,0.2,0.83,0.28c6.35,1.72,14.02-0.39,19.14-4.28c2.58,2.27,6.2,2.82,9.6,3.28
			c2.64,0.35,5.5,0.66,7.8-0.68c3.36-1.96,4-6.88,2.23-10.35c-0.29-0.57-0.64-1.11-1.02-1.62c1.73,0.03,3.45-0.08,5.16-0.33
			c1.35-0.2,2.73-0.5,3.82-1.31C229.12,105.23,228.87,100.97,227.6,97.77z"/>
		<path class="st24" d="M142.18,58.96c-7.22,0.73-24.66-1.77-43.34,15.14"/>
		<path class="st25" d="M156.84,76.3c6.24,2.81,9.65,9.47,12.43,15.72c3.45,7.73,6.72,15.89,6.31,24.35"/>
		<path class="st23" d="M192.62,68.77c-3.95,5.1-10.71,6.93-16.98,8.44c-4.37,1.06-8.82,2.12-13.29,2.45"/>
		<path class="st23" d="M139.04,59.15c11.71-0.68,23.4-2.64,34.47-6.51c5.38-1.88,10.65-4.22,16.25-5.31
			c5.6-1.09,14.09-2.55,18.88,0.55c4.51,2.92,6.54,5.95,8.03,10.03c1.22,3.35,1.67,6.93,1.38,10.49
			c-0.62,7.73-0.88,17.66-6.77,21.04c-5.1,2.93-12.56,2.84-16.5-1.53c-3.36-3.73-4.34-11.13-3.03-16.55"/>
		<path class="st24" d="M191.79,71.78c0.31-3.17,2.22-6.05,4.78-7.94c2.56-1.89,5.72-2.84,8.89-3.14"/>
		<path class="st23" d="M169.24,92.23c7.05,1.17,16.05-2.79,23-4.29c0.56-0.12,1.14-0.24,1.71-0.14c0.73,0.14,1.33,0.62,1.9,1.1
			c5.13,4.29,10.42,8.9,16.96,10.28c6.54,1.38,14.61-1.95,15.82-8.52c0.67-3.67-0.92-7.42-3.16-10.4c-2.12-2.81-4.8-5.13-7.8-6.98"
			/>
		<path class="st23" d="M174.24,106.66c3.86,0.47,7.93,0.23,11.73-0.54c1.17-0.24,11.38-4.42,11.39-4.42
			c6.96,5.64,16.32,8.2,25.17,6.89c1.35-0.2,2.73-0.5,3.82-1.31c2.76-2.05,2.51-6.3,1.24-9.5c-0.36-0.9-0.76-1.76-1.22-2.59"/>
		<g>
			<g>
				<path class="st6" d="M199.31,117.94c-1.78-1.79-2.98-4.06-3.48-6.54c-0.16-0.78-1.35-0.45-1.19,0.33
					c0.54,2.67,1.88,5.15,3.8,7.08C199,119.38,199.87,118.5,199.31,117.94L199.31,117.94z"/>
			</g>
		</g>
		<g>
			<g>
				<path class="st6" d="M153.17,45.98c-3.05-0.65-5.8-2.24-7.89-4.55c-0.54-0.59-1.41,0.29-0.88,0.88c2.22,2.45,5.2,4.17,8.44,4.86
					C153.62,47.34,153.95,46.15,153.17,45.98L153.17,45.98z"/>
			</g>
		</g>
		<g>
			<g>
				<path class="st6" d="M150.21,46c-0.92,1.44-2.59,2.22-4.26,2.35c-2.13,0.17-4.2-0.57-6.11-1.43c-0.72-0.33-1.35,0.74-0.63,1.07
					c2.2,1,4.61,1.87,7.06,1.57c2-0.24,3.9-1.2,5-2.93C151.71,45.96,150.64,45.33,150.21,46L150.21,46z"/>
			</g>
		</g>
		<g>
			<g>
				<path class="st6" d="M177.99,32.33c-1.39-4.88-6.21-7.35-10.98-7.74c-5.47-0.45-11.79,2.37-16.85-0.6
					c-0.69-0.4-1.31,0.67-0.63,1.07c4.45,2.61,9.6,1,14.41,0.74c5.11-0.28,11.27,1.32,12.86,6.86
					C177.02,33.42,178.21,33.1,177.99,32.33L177.99,32.33z"/>
			</g>
		</g>
		<g>
			<g>
				<path class="st6" d="M121.93,30.86c0.68,0.99,1.67,1.72,2.82,2.05c0.31,0.09,0.69-0.11,0.76-0.43c0.08-0.33-0.1-0.67-0.43-0.76
					c-0.12-0.03-0.23-0.07-0.35-0.11c-0.03-0.01-0.06-0.02-0.09-0.03c-0.1-0.04,0.09,0.04,0.02,0.01c-0.05-0.02-0.11-0.05-0.16-0.07
					c-0.23-0.11-0.44-0.24-0.64-0.38c-0.02-0.01-0.04-0.03-0.06-0.05c-0.09-0.06,0-0.02,0.02,0.02c-0.02-0.04-0.11-0.09-0.15-0.12
					c-0.09-0.08-0.18-0.16-0.27-0.25c-0.09-0.09-0.17-0.18-0.25-0.27c-0.02-0.02-0.04-0.05-0.06-0.07
					c-0.05-0.06,0.09,0.13,0.01,0.02c-0.04-0.05-0.08-0.1-0.11-0.16c-0.18-0.27-0.55-0.41-0.85-0.22
					C121.89,30.18,121.74,30.57,121.93,30.86L121.93,30.86z"/>
			</g>
		</g>
		<g>
			<g>
				<path class="st6" d="M192.23,68.04c-2-2.07-1.19-5.24-0.54-7.69c0.21-0.77-0.99-1.1-1.19-0.33c-0.78,2.93-1.5,6.46,0.85,8.89
					C191.9,69.49,192.78,68.62,192.23,68.04L192.23,68.04z"/>
			</g>
		</g>
		<g>
			<g>
				<path class="st6" d="M191.49,68.87c-3.05,1.01-6.51-0.07-8.47-2.6c-0.21-0.27-0.66-0.21-0.88,0c-0.26,0.26-0.2,0.61,0,0.88
					c2.22,2.85,6.26,4.05,9.68,2.92C192.57,69.81,192.25,68.62,191.49,68.87L191.49,68.87z"/>
			</g>
		</g>
		<g>
			<g>
				<path class="st6" d="M217.3,75.73c0.06-1.52,0.05-3.14-0.66-4.53c-0.8-1.57-2.36-2.06-3.99-2.33c-1.11-0.18-2.23-0.38-3.35-0.53
					c-0.84-0.11-1.58-0.02-2.22,0.57c-1.27,1.15-2.17,2.91-2.83,4.46c-1.39,3.28-1.78,7.09-0.87,10.56
					c0.19,0.71,0.48,1.42,1.09,1.88c0.68,0.51,1.53,0.5,2.34,0.47c1.08-0.04,2.14,0.05,3.19,0.32c0.91,0.23,1.84,0.76,2.8,0.61
					c0.87-0.14,1.28-0.78,1.65-1.51c0.5-0.99,0.95-2,1.35-3.04c0.85-2.22,1.38-4.54,1.51-6.91c0.04-0.8-1.2-0.79-1.24,0
					c-0.18,3.32-1.22,6.7-2.83,9.61c-0.44,0.79-0.98,0.67-1.74,0.42c-0.81-0.27-1.6-0.5-2.45-0.62c-0.75-0.11-1.49-0.14-2.24-0.11
					c-0.88,0.03-1.68,0.04-2.07-0.9c-1.06-2.61-0.72-6.05,0.07-8.67c0.42-1.41,1.04-2.75,1.84-3.99c0.36-0.55,0.74-1.15,1.22-1.6
					c0.7-0.66,1.91-0.21,2.76-0.08c1.54,0.24,3.74,0.23,4.73,1.64c0.85,1.2,0.77,2.89,0.71,4.29
					C216.03,76.52,217.27,76.52,217.3,75.73L217.3,75.73z"/>
			</g>
		</g>
		<g>
			<g>
				<path class="st6" d="M214.84,65.8c-0.93-0.72-2.16-0.96-3.31-0.75c-0.32,0.06-0.53,0.46-0.43,0.76c0.11,0.34,0.42,0.5,0.76,0.43
					c0.04-0.01,0.23-0.06,0.06-0.01c0.06-0.02,0.13-0.01,0.18-0.02c0.12-0.01,0.25-0.01,0.37,0c0.06,0,0.12,0.01,0.18,0.01
					c0.04,0,0.18,0.01,0.02,0c0.12,0.01,0.25,0.04,0.36,0.07c0.12,0.03,0.24,0.07,0.35,0.11c0.01,0,0.13,0.04,0.13,0.05
					c-0.08-0.03-0.08-0.04-0.02-0.01c0.03,0.01,0.06,0.03,0.08,0.04c0.22,0.11,0.43,0.24,0.63,0.39c0.12,0.09,0.34,0.1,0.48,0.06
					c0.14-0.04,0.3-0.15,0.37-0.28c0.08-0.14,0.11-0.32,0.06-0.48C215.07,66.01,214.97,65.91,214.84,65.8L214.84,65.8z"/>
			</g>
		</g>
		<g>
			<g>
				<path class="st6" d="M205.18,47.09c-0.82,0.72-1.42,1.68-1.72,2.73c-0.09,0.31,0.11,0.69,0.43,0.76
					c0.33,0.08,0.67-0.1,0.76-0.43c0.03-0.12,0.07-0.23,0.11-0.34c0.02-0.06,0.04-0.11,0.06-0.17c0.03-0.08-0.05,0.11-0.02,0.04
					c0.01-0.03,0.03-0.06,0.04-0.09c0.1-0.22,0.21-0.43,0.34-0.63c0.06-0.1,0.12-0.19,0.19-0.28c0.01-0.01,0.05-0.08,0.06-0.08
					c-0.01,0-0.08,0.11-0.02,0.03c0.04-0.05,0.08-0.09,0.11-0.14c0.16-0.19,0.33-0.36,0.52-0.52c0.24-0.21,0.24-0.66,0-0.88
					C205.79,46.85,205.44,46.86,205.18,47.09L205.18,47.09z"/>
			</g>
		</g>
		<g>
			<g>
				<path class="st6" d="M207.06,47.68c-0.71,0.37-1.25,1.06-1.45,1.84c-0.04,0.16-0.02,0.34,0.06,0.48
					c0.08,0.13,0.22,0.25,0.37,0.28c0.32,0.07,0.67-0.1,0.76-0.43c0.03-0.11,0.06-0.21,0.11-0.31c-0.02,0.05-0.04,0.1-0.06,0.15
					c0.08-0.18,0.18-0.36,0.3-0.52c-0.03,0.04-0.06,0.08-0.1,0.13c0.12-0.16,0.26-0.3,0.42-0.42c-0.04,0.03-0.08,0.06-0.13,0.1
					c0.11-0.08,0.22-0.15,0.34-0.21c0.29-0.15,0.4-0.58,0.22-0.85C207.72,47.6,207.37,47.51,207.06,47.68L207.06,47.68z"/>
			</g>
		</g>
		<g>
			<g>
				<path class="st6" d="M193.87,86.37c-3.27-1.22-5.8-4.08-6.67-7.45c-0.2-0.77-1.39-0.44-1.19,0.33c0.98,3.81,3.86,6.95,7.54,8.32
					C194.29,87.84,194.62,86.64,193.87,86.37L193.87,86.37z"/>
			</g>
		</g>
		<g>
			<g>
				<path class="st6" d="M198.55,101.75c-1.98-1.24-3.16-3.7-2.79-6.03c0.05-0.33-0.08-0.67-0.43-0.76
					c-0.29-0.08-0.71,0.1-0.76,0.43c-0.45,2.89,0.87,5.87,3.36,7.42C198.6,103.25,199.22,102.17,198.55,101.75L198.55,101.75z"/>
			</g>
		</g>
		<g>
			<g>
				<path class="st6" d="M222.42,76.29c-0.52-0.21-1.29,0.03-1.79,0.17c-0.6,0.17-1.32,0.38-1.79,0.8c-0.7,0.61-0.21,1.33,0.22,1.94
					c0.69,1,1.18,2.12,1.44,3.31c0.25,1.15,0.18,2.26,0.13,3.42c-0.04,0.95-0.03,1.97,0.42,2.84c0.51,0.97,1.44,1.36,2.4,1.75
					c1.34,0.54,2.69,1.08,4.03,1.62c0.74,0.3,1.06-0.9,0.33-1.19c-1.07-0.43-2.15-0.86-3.22-1.3c-0.86-0.35-2.04-0.61-2.48-1.52
					c-0.35-0.74-0.28-1.62-0.24-2.41c0.04-0.9,0.08-1.79-0.04-2.69c-0.25-1.88-1.04-3.44-2.08-4.99c-0.02-0.03-0.16,0.2-0.08,0.14
					c0.09-0.07,0.21-0.12,0.31-0.17c0.26-0.13,0.55-0.22,0.83-0.3c0.34-0.1,1-0.33,1.29-0.21
					C222.83,77.79,223.15,76.59,222.42,76.29L222.42,76.29z"/>
			</g>
		</g>
		<g>
			<g>
				<path class="st6" d="M227.78,100.83c-0.41,0.68-1.07,1.19-1.67,1.7c-0.15,0.13-0.29,0.26-0.44,0.38
					c-0.04,0.03-0.22,0.12-0.22,0.14c-0.01,0-0.02,0-0.02,0c-0.03-0.01,0,0,0.07,0.02c0.03,0.07-0.05-0.09-0.01-0.01
					c-0.01-0.03-0.05-0.15-0.06-0.21c-0.03-0.15-0.04-0.26-0.06-0.42c-0.21-1.71-1.12-3.23-2.51-4.24c-0.27-0.2-0.69-0.05-0.85,0.22
					c-0.18,0.31-0.05,0.65,0.22,0.85c0.68,0.5,1.22,1.21,1.56,1.98c0.17,0.39,0.28,0.81,0.34,1.22c0.06,0.41,0.07,0.82,0.27,1.19
					c0.25,0.46,0.76,0.71,1.28,0.61c0.5-0.1,0.86-0.47,1.24-0.79c0.7-0.61,1.44-1.2,1.93-2.01
					C229.26,100.77,228.19,100.15,227.78,100.83L227.78,100.83z"/>
			</g>
		</g>
		<g>
			<g>
				<path class="st6" d="M214.66,108.34c-0.5,0.62-0.61,1.38-0.39,2.15c0.24,0.83,0.85,1.5,1.07,2.34c0.22,0.83,0.13,1.72,0.01,2.56
					c-0.12,0.85-0.38,1.71-0.03,2.53c0.09,0.2,0.33,0.29,0.53,0.31c1.09,0.07,2.24,0.22,3.26-0.28c0.71-0.35,0.09-1.42-0.63-1.07
					c-0.68,0.33-1.8,0.17-2.63,0.11c0.18,0.1,0.36,0.2,0.53,0.31c-0.11-0.26,0.02-0.68,0.06-0.95c0.06-0.37,0.11-0.74,0.16-1.11
					c0.1-0.76,0.14-1.52,0.02-2.28c-0.11-0.73-0.43-1.36-0.79-2c-0.25-0.44-0.71-1.24-0.3-1.73
					C216.03,108.6,215.16,107.72,214.66,108.34L214.66,108.34z"/>
			</g>
		</g>
		<g>
			<g>
				<path class="st6" d="M190.56,113.99c1.49,3.17,4.88,5.28,8.38,5.27c0.8,0,0.8-1.24,0-1.24c-3.1,0.01-6-1.86-7.31-4.66
					C191.29,112.65,190.22,113.28,190.56,113.99L190.56,113.99z"/>
			</g>
		</g>
		<g>
			<g>
				<path class="st6" d="M153.52,98.71c-10.85,13.36-30.21,11.59-45.43,14.43c-4.83,0.9-9.55,2.32-13.88,4.67
					c-0.7,0.38-0.08,1.45,0.63,1.07c15.25-8.29,33.82-4.15,49.41-11.53c3.9-1.84,7.42-4.41,10.15-7.77
					C154.9,98.97,154.03,98.09,153.52,98.71L153.52,98.71z"/>
			</g>
		</g>
		<g>
			<g>
				<path class="st6" d="M36.52,130.42c-0.08,6.21,5.3,11.81,11.5,12.01c0.8,0.03,0.8-1.21,0-1.24
					c-5.54-0.18-10.33-5.24-10.26-10.77C37.77,129.62,36.53,129.62,36.52,130.42L36.52,130.42z"/>
			</g>
		</g>
		<g>
			<g>
				<path class="st6" d="M25.68,140.09c4.81,5.04,12.57,6.82,19.09,4.33c0.74-0.28,0.42-1.48-0.33-1.19
					c-6.13,2.34-13.35,0.74-17.88-4.01C26,138.64,25.13,139.51,25.68,140.09L25.68,140.09z"/>
			</g>
		</g>
		<path class="st26" d="M-12.03,102c-1.56,7.36-3.12,14.71-4.68,22.07c6.29-1.64,9.53-9.11,15.66-11.29
			c3.34-1.19,7.01-0.61,10.56-0.6c13.72,0.02,25.75-8.59,36.72-16.83c1.06,1.23,1.45,3.02,0.98,4.58
			c6.99-3.33,8.84-10.17,15.69-13.79c2.61-1.38,5.63-1.73,8.47-2.58c2.83-0.85,5.73-2.47,6.75-5.25c0.4-1.1,0.47-2.29,0.81-3.42
			c1.06-3.58,4.51-5.81,7.66-7.83c9.15-5.86,14.04-5.81,26.12-22.53c-5.04,5.05-13.29,4.41-20.3,3.11
			c-7.86-1.46-10.47-8.1-16.25-13.62c2.03-1.58,4.07-3.17,6.1-4.75c-11.92-2.09-11.77-2.3-20.86-10.29S48.49-3.39,41.01-12.9
			C30.46-8.17-0.37-0.25-10.93,4.49c-1.11,0.5-2.26,1.02-3.07,1.93c-1.49,1.68-1.45,4.17-1.35,6.41c1.04,22.7,0.63,45.47-1.24,68.11
			c0.01-0.17,2.44,3.28,2.6,3.96c0.44,1.84,0.18,4.07,0.22,5.96c0.08,4.23-0.99,8.19-1.28,12.35C-14,102.91-13.04,102.44-12.03,102z
			"/>
		<g>
			<defs>
				<path id="SVGID_00000031890888408430881960000001697809220827275948_" d="M-12.03,102c-1.56,7.36-3.12,14.71-4.68,22.07
					c6.29-1.64,9.53-9.11,15.66-11.29c3.34-1.19,7.01-0.61,10.56-0.6c13.72,0.02,25.75-8.59,36.72-16.83
					c1.06,1.23,1.45,3.02,0.98,4.58c6.99-3.33,8.84-10.17,15.69-13.79c2.61-1.38,5.63-1.73,8.47-2.58c2.83-0.85,5.73-2.47,6.75-5.25
					c0.4-1.1,0.47-2.29,0.81-3.42c1.06-3.58,4.51-5.81,7.66-7.83c9.15-5.86,14.04-5.81,26.12-22.53c-5.04,5.05-13.29,4.41-20.3,3.11
					c-7.86-1.46-10.47-8.1-16.25-13.62c2.03-1.58,4.07-3.17,6.1-4.75c-11.92-2.09-11.77-2.3-20.86-10.29S44.78,1.42,37.3-8.09
					C26.74-3.36-0.37-0.25-10.93,4.49c-1.11,0.5-2.26,1.02-3.07,1.93c-1.49,1.68-1.45,4.17-1.35,6.41
					c1.04,22.7,0.63,45.47-1.24,68.11c0.01-0.17,2.44,3.28,2.6,3.96c0.44,1.84,0.18,4.07,0.22,5.96c0.08,4.23-0.99,8.19-1.28,12.35
					C-14,102.91-13.04,102.44-12.03,102z"/>
			</defs>
			<clipPath id="SVGID_00000057849216970099826890000013641884221208241072_">
				<use xlink:href="#SVGID_00000031890888408430881960000001697809220827275948_"  style="overflow:visible;"/>
			</clipPath>
			<path style="clip-path:url(#SVGID_00000057849216970099826890000013641884221208241072_);fill:#2F1356;" d="M3.8,13.23
				C5,18.65,9.04,23.36,14.21,25.38c-5.92,1.38-10.98,5.99-12.9,11.75c3.88-2.34,8.23-3.9,12.71-4.56c0.63-0.09,1.29-0.16,1.87,0.09
				c0.88,0.39,1.28,1.39,1.63,2.29c5.12,13.31,15.77,24.4,28.86,30.06c-2.37,3.67-3.72,8-3.84,12.38c2.21-4.08,4.79-8.48,9.16-10.03
				c3.11-1.1,6.53-0.51,9.82-0.18c10.3,1.02,20.86-0.76,30.26-5.09c-2.28,4.19-7.24,6.13-10.33,9.76c-1.83,2.14-2.93,4.79-4.01,7.39
				c-2.28,5.51-4.57,11.01-6.85,16.52c-1.86,4.49-3.79,9.09-7.09,12.66c-2.52,2.73-5.73,4.73-9.01,6.49
				c-3.83,2.05-7.84,3.82-12.09,4.7c-9.73,2.01-19.78-0.81-29.7-0.39c-5.51,0.23-10.98,1.48-16.05,3.66
				c-6.32,2.72-12.94,6.97-19.53,4.98c3.55-11.4,0.86-23.65-0.43-35.52c-0.9-8.24-1.1-16.54-1.3-24.83
				c-0.3-12.52-0.6-25.03-0.9-37.55c-0.17-6.9-0.33-13.81,0.11-20.7c0.11-1.75,0.29-3.59,1.28-5.04c0.93-1.36,2.44-2.18,3.91-2.91
				C-9.98-3.8,1.25-6.91,12.66-7.8c-1.12,0.09-6.35,7.7-7.09,9.07C3.6,4.89,2.9,9.2,3.8,13.23z"/>
		</g>
	</g>
</g>
<g id="OBJECTS">
	<g>
		<path class="st28" d="M388.84,230.87c1.43,10.97-3.34,25.94-3.34,25.94c-4.77-13.29-4.29-31-4.29-31
			c-5.72,5.41-14.19,29.53-14.19,29.53c3.92-20.67-0.58-38.87-0.58-38.87c2.86,15.75-5.72,34.45-5.72,34.45
			c1.43-9.35-2.61-27.56-2.61-27.56c0.25,11.81-4.06,22.14-4.06,22.14c-7.15-24.6,4.06-46.75,4.06-46.75
			c-11.07,12.07-19.62,44.18-21.99,53.82c3.7-17.59-4.47-28.72-4.47-28.72c4.29,12.3-3.82,29.52-3.82,29.52
			c0-25.59-9.06-37.4-9.06-37.4c7.63,14.76,0,40.84,0,40.84c-6.2-12.3-2.38-25.94-2.38-25.94c-4.41,6.76-5.68,15.54-6.05,20.04
			c0.63-18.23-5.39-23.13-5.39-23.13c1.88,11.97,0,24.61,0,24.61c-9.06-25.1,1.91-48.72,1.91-48.72
			c-10.96,7.87-10.96,37.4-10.96,37.4c-0.95-21.16-12.87-54.83-12.87-54.83c8.58,25.38,6.2,68.61,6.2,68.61
			c-6.67-8.86-4.29-21.16-4.29-21.16c-5.24,6.4-10.49,26.08-10.49,26.08c4.29-19.19-2.86-32.97-2.86-32.97
			c2.86,16.24-4.77,32.97-4.77,32.97c1.91-11.81,0-20.18,0-20.18c0,10.33-7.63,20.67-7.63,20.67c4.77-29.03-6.67-55.6-6.67-55.6
			c8.1,21.16,0,55.6,0,55.6c-9.06-16.24-4.05-29.38-4.05-29.38c-6.91,9.98-6.43,22.49-6.43,22.49c-0.95-18.7-7.24-28.54-7.24-28.54
			c5.16,12.3,0,32.48,0,32.48c2.3-12.79-5.16-24.11-5.16-24.11c0.95,10.33-4.77,23.13-4.77,23.13c-5.24-50.68,0-70.08,0-70.08
			c-11.44,19.97-8.58,70.58-8.58,70.58c-1.91-30.51-17.87-62.99-17.87-62.99c12.95,37.26,9.77,70.37,9.77,70.37
			c0-14.76-6.67-25.59-6.67-25.59c2.86,14.76,0,21.16,0,21.16c0-14.76-6.2-23.13-6.2-23.13c1.88,8.35,1.23,16.16-0.23,22.56
			c-3.24-13.02-5.25-28.33-5.25-28.33c1.43,10.97-3.34,25.94-3.34,25.94c-4.77-13.29-4.29-31-4.29-31
			c-5.72,5.41-14.19,29.53-14.19,29.53c3.92-20.67-0.58-38.87-0.58-38.87c2.86,15.75-5.72,34.45-5.72,34.45
			c1.43-9.35-2.61-27.56-2.61-27.56c0.25,11.81-4.06,22.14-4.06,22.14c-7.15-24.6,4.06-46.75,4.06-46.75
			c-11.07,12.07-19.62,44.19-21.99,53.82c3.7-17.59-4.47-28.72-4.47-28.72c4.29,12.3-3.82,29.52-3.82,29.52
			c0-25.59-9.06-37.4-9.06-37.4c7.63,14.76,0,40.84,0,40.84c-6.2-12.3-2.38-25.94-2.38-25.94c-4.41,6.75-5.68,15.53-6.05,20.03
			c0.63-18.23-5.39-23.13-5.39-23.13c1.88,11.97,0,24.61,0,24.61c-9.06-25.1,1.91-48.72,1.91-48.72
			c-10.96,7.87-10.96,37.4-10.96,37.4c-0.95-21.16-12.87-54.83-12.87-54.83c8.58,25.38,6.2,68.61,6.2,68.61
			c-6.67-8.86-4.29-21.16-4.29-21.16c-5.24,6.4-10.49,26.08-10.49,26.08c4.29-19.19-2.86-32.97-2.86-32.97
			c2.86,16.24-4.77,32.97-4.77,32.97c1.91-11.81,0-20.18,0-20.18c0,10.33-7.63,20.67-7.63,20.67c4.77-29.03-6.67-55.6-6.67-55.6
			c8.1,21.16,0,55.6,0,55.6c-9.06-16.24-4.05-29.38-4.05-29.38c-6.91,9.98-6.43,22.49-6.43,22.49c-0.95-18.7-7.23-28.54-7.23-28.54
			c5.16,12.3,0,32.48,0,32.48c2.3-12.79-5.16-24.11-5.16-24.11c0.95,10.33-4.77,23.13-4.77,23.13c-5.24-50.68,0-70.08,0-70.08
			c-11.44,19.97-8.58,70.58-8.58,70.58C15.37,226.3-0.6,193.82-0.6,193.82c12.95,37.26,9.77,70.37,9.77,70.37
			c0-14.76-6.67-25.59-6.67-25.59c2.86,14.76,0,21.16,0,21.16c0-14.76-6.2-23.13-6.2-23.13c4.77,21.16-6.67,38.87-6.67,38.87h199.01
			h12.63h199.01C393.61,267.14,388.84,230.87,388.84,230.87z"/>
		<g>
			<path class="st6" d="M388.37,230.99c0.98,8.57-0.76,17.72-3.33,25.88c0.31-0.07,0.62-0.13,0.93-0.2
				c-3.39-9.76-4.54-20.65-4.29-31c0.01-0.3-0.81,0.06-0.89,0.14c-4.23,4.21-6.65,10.73-8.98,16.16c-1.89,4.41-3.65,8.89-5.25,13.43
				c0.31-0.05,0.62-0.1,0.93-0.15c2.29-12.6,2.47-26.41-0.58-38.93c-0.07-0.27-0.98-0.03-0.93,0.26c1.89,11.4-0.99,24-5.72,34.39
				c0.31-0.05,0.62-0.1,0.93-0.15c1.23-9.02-0.67-18.81-2.61-27.61c-0.06-0.28-0.94-0.03-0.93,0.26c0.06,7.43-1.23,15.21-4.06,22.09
				c0.31-0.07,0.62-0.13,0.93-0.2c-4.18-14.96-2.95-32.71,4.06-46.69c0.13-0.26-0.77-0.04-0.89,0.09
				c-6.8,7.59-10.7,17.91-14.14,27.46c-3.11,8.63-5.68,17.49-7.88,26.41c0.31-0.05,0.62-0.1,0.93-0.15
				c1.85-9.37,1.27-20.84-4.5-28.82c-0.14-0.19-0.99,0.05-0.9,0.3c3.05,9.44,0.26,20.72-3.81,29.47c0.31-0.07,0.62-0.13,0.93-0.2
				c-0.05-9.62-1.25-19.25-4.53-28.3c-1.14-3.14-2.54-6.48-4.56-9.15c-0.15-0.19-1.01,0.08-0.9,0.31c5.95,12.04,3.63,28.28,0,40.79
				c0.31-0.07,0.62-0.13,0.93-0.2c-3.74-7.81-4.69-17.44-2.39-25.88c0.08-0.3-0.79-0.08-0.89,0.09c-3.76,6.01-5.47,13.03-6.08,20.1
				c0.31-0.07,0.62-0.13,0.93-0.2c0.17-6.2-0.17-12.59-2.46-18.4c-0.65-1.64-1.59-3.63-2.96-4.78c-0.18-0.15-0.95,0-0.9,0.3
				c1.18,8.06,1.18,16.48,0,24.55c0.31-0.07,0.62-0.13,0.93-0.2c-5.32-15.26-4.91-33.84,1.9-48.66c0.13-0.29-0.74-0.04-0.83,0.03
				c-6.22,4.7-8.27,13.68-9.57,21.07c-0.95,5.41-1.48,11-1.49,16.5c0.31-0.09,0.62-0.17,0.93-0.26
				c-0.95-18.58-6.72-37.43-12.87-54.83c-0.1-0.28-1.02,0-0.93,0.26c4.64,13.99,5.79,29.14,6.32,43.82
				c0.29,8.24,0.33,16.55-0.12,24.79c0.3-0.1,0.6-0.2,0.9-0.31c-4.19-5.88-5.6-13.91-4.26-21.06c0.06-0.34-0.78-0.05-0.89,0.09
				c-5.59,7.12-8.19,17.44-10.52,26.14c0.31-0.05,0.62-0.1,0.93-0.15c2.24-10.56,2.17-23.2-2.86-33.03
				c-0.13-0.25-0.98-0.03-0.93,0.26c1.75,10.89-0.25,22.9-4.76,32.91c0.31-0.05,0.62-0.1,0.93-0.15c0.99-6.56,1.45-13.69,0-20.23
				c-0.06-0.28-0.93-0.03-0.93,0.26c-0.18,7.33-3.34,14.74-7.59,20.55c0.3-0.03,0.59-0.06,0.89-0.09
				c2.86-18.24,0.6-38.65-6.67-55.66c-0.12-0.28-1.02,0.01-0.93,0.26c4.17,11.26,4.07,23.85,3.04,35.68
				c-0.58,6.65-1.52,13.37-3.04,19.87c0.31-0.07,0.62-0.13,0.93-0.2c-4.55-8.43-7.57-19.86-4.06-29.33c0.1-0.28-0.78-0.08-0.89,0.09
				c-4.31,6.47-6.73,14.71-6.47,22.61c0.31-0.09,0.62-0.17,0.93-0.26c-0.55-9.43-2.11-20.4-7.24-28.54c-0.15-0.24-1.03,0-0.93,0.26
				c3.94,9.93,2.57,22.26,0,32.42c0.31-0.05,0.62-0.1,0.93-0.15c1.3-8.24-0.66-17.26-5.18-24.21c-0.14-0.21-0.92,0.04-0.9,0.3
				c0.56,7.79-1.64,16.01-4.76,23.07c0.31-0.07,0.62-0.13,0.93-0.2c-1.82-17.82-2.98-35.84-1.98-53.76
				c0.3-5.36,0.59-11.06,1.98-16.27c0.09-0.32-0.81-0.05-0.93,0.15c-6.89,12.3-7.83,28.19-8.55,42.06
				c-0.49,9.49-0.57,19.08-0.04,28.57c0.31-0.09,0.62-0.17,0.93-0.26c-1.47-21.62-8.41-43.67-17.87-62.99
				c-0.13-0.26-1.02,0-0.93,0.26c5.34,15.57,8.52,31.82,9.68,48.29c0.51,7.27,0.78,14.75,0.09,22.03c0.31-0.07,0.62-0.13,0.93-0.2
				c-0.11-8.71-2.13-18.12-6.67-25.59c-0.14-0.24-0.99-0.04-0.93,0.26c1.18,6.33,2.69,14.89,0,21.1c0.31-0.07,0.62-0.13,0.93-0.2
				c-0.09-7.77-1.56-16.77-6.23-23.17c-0.14-0.19-0.96,0.03-0.9,0.3c1.58,7.5,1.42,15.04-0.23,22.51c0.31-0.07,0.62-0.14,0.93-0.2
				c-2.28-9.31-3.99-18.81-5.25-28.33c-0.03-0.26-0.97-0.05-0.93,0.26c0.98,8.57-0.76,17.72-3.33,25.88
				c0.31-0.07,0.62-0.13,0.93-0.2c-3.39-9.76-4.54-20.65-4.29-31c0.01-0.3-0.81,0.06-0.89,0.14c-4.23,4.21-6.65,10.73-8.98,16.16
				c-1.89,4.41-3.65,8.89-5.25,13.43c0.31-0.05,0.62-0.1,0.93-0.15c2.29-12.6,2.47-26.41-0.58-38.93c-0.07-0.27-0.98-0.03-0.93,0.26
				c1.89,11.4-0.99,24-5.72,34.39c0.31-0.05,0.62-0.1,0.93-0.15c1.23-9.02-0.67-18.81-2.61-27.61c-0.06-0.28-0.94-0.03-0.93,0.26
				c0.06,7.43-1.23,15.21-4.06,22.09c0.31-0.07,0.62-0.13,0.93-0.2c-4.18-14.96-2.95-32.71,4.06-46.69
				c0.13-0.26-0.77-0.04-0.89,0.09c-6.8,7.59-10.71,17.91-14.14,27.46c-3.11,8.63-5.67,17.49-7.88,26.41
				c0.31-0.05,0.62-0.1,0.93-0.15c1.85-9.37,1.27-20.85-4.5-28.82c-0.14-0.19-0.99,0.05-0.9,0.3c3.05,9.44,0.27,20.72-3.81,29.47
				c0.31-0.07,0.62-0.13,0.93-0.2c-0.06-9.62-1.25-19.25-4.53-28.3c-1.14-3.14-2.54-6.48-4.56-9.15c-0.15-0.19-1.01,0.08-0.9,0.31
				c5.95,12.04,3.63,28.28,0,40.79c0.31-0.07,0.62-0.13,0.93-0.2c-3.74-7.81-4.69-17.44-2.39-25.88c0.08-0.3-0.79-0.08-0.89,0.09
				c-3.76,6.01-5.47,13.03-6.08,20.09c0.31-0.07,0.62-0.13,0.93-0.2c0.17-6.2-0.17-12.59-2.46-18.4c-0.65-1.64-1.59-3.62-2.96-4.78
				c-0.18-0.15-0.95,0-0.9,0.3c1.18,8.06,1.18,16.48,0,24.55c0.31-0.07,0.62-0.13,0.93-0.2c-5.32-15.26-4.91-33.84,1.9-48.66
				c0.13-0.29-0.74-0.04-0.83,0.03c-6.22,4.7-8.27,13.68-9.57,21.07c-0.95,5.41-1.48,11-1.49,16.5c0.31-0.09,0.62-0.17,0.93-0.26
				c-0.95-18.58-6.72-37.43-12.87-54.83c-0.1-0.28-1.02,0-0.93,0.26c4.64,13.99,5.79,29.14,6.32,43.82
				c0.29,8.24,0.33,16.55-0.12,24.79c0.3-0.1,0.6-0.2,0.9-0.31c-4.19-5.88-5.6-13.91-4.26-21.06c0.06-0.34-0.78-0.05-0.89,0.09
				c-5.59,7.12-8.19,17.44-10.52,26.14c0.31-0.05,0.62-0.1,0.93-0.15c2.24-10.56,2.17-23.2-2.86-33.03
				c-0.13-0.25-0.98-0.03-0.93,0.26c1.75,10.89-0.25,22.9-4.76,32.91c0.31-0.05,0.62-0.1,0.93-0.15c0.99-6.56,1.45-13.69,0-20.23
				c-0.06-0.28-0.93-0.03-0.93,0.26c-0.18,7.33-3.34,14.74-7.59,20.55c0.3-0.03,0.59-0.06,0.89-0.09
				c2.86-18.24,0.6-38.65-6.67-55.66c-0.12-0.28-1.03,0.01-0.93,0.26c4.17,11.26,4.07,23.85,3.04,35.68
				c-0.58,6.65-1.52,13.37-3.04,19.87c0.31-0.07,0.62-0.13,0.93-0.2c-4.55-8.43-7.57-19.86-4.06-29.33c0.1-0.28-0.78-0.08-0.89,0.09
				c-4.31,6.47-6.73,14.71-6.47,22.61c0.31-0.09,0.62-0.17,0.93-0.26c-0.55-9.43-2.11-20.4-7.23-28.54c-0.15-0.24-1.03,0-0.93,0.26
				c3.94,9.93,2.57,22.26,0,32.42c0.31-0.05,0.62-0.1,0.93-0.15c1.3-8.24-0.67-17.26-5.19-24.21c-0.14-0.21-0.92,0.04-0.9,0.3
				c0.56,7.79-1.64,16.01-4.76,23.07c0.31-0.07,0.62-0.13,0.93-0.2c-1.82-17.82-2.98-35.84-1.98-53.76
				c0.3-5.36,0.59-11.06,1.98-16.27c0.09-0.32-0.81-0.05-0.93,0.15c-6.89,12.3-7.83,28.19-8.55,42.06
				c-0.49,9.49-0.57,19.08-0.04,28.57c0.31-0.09,0.62-0.17,0.93-0.26C16.27,235.06,9.33,213-0.13,193.69
				c-0.13-0.26-1.02,0-0.93,0.26c5.34,15.57,8.52,31.82,9.68,48.29c0.51,7.27,0.78,14.75,0.09,22.03c0.31-0.07,0.62-0.13,0.93-0.2
				c-0.11-8.71-2.13-18.12-6.67-25.59c-0.14-0.24-0.99-0.04-0.93,0.26c1.18,6.33,2.69,14.89,0,21.1c0.31-0.07,0.62-0.13,0.93-0.2
				c-0.09-7.77-1.56-16.77-6.23-23.17c-0.14-0.19-0.96,0.03-0.9,0.3c2.72,12.81,0.45,27.68-6.63,38.76
				c-0.12,0.18,0.1,0.22,0.24,0.22c26.35,0,52.7,0,79.05,0c36.55,0,73.1,0,109.65,0c16.45,0,32.9,0,49.35,0c39.7,0,79.39,0,119.09,0
				c17.84,0,35.68,0,53.51,0c0.13,0,0.82-0.16,0.63-0.41c-2.29-2.99-3.47-6.87-4.57-10.46c-1.5-4.9-2.6-9.93-3.62-14.95
				c-1.28-6.35-2.37-12.76-3.22-19.18C389.27,230.48,388.33,230.69,388.37,230.99c0.85,6.43,1.95,12.83,3.22,19.18
				c1,5.03,2.15,10.04,3.62,14.95c1.08,3.63,2.32,7.53,4.63,10.55c0.21-0.13,0.42-0.27,0.63-0.41c-26.35,0-52.7,0-79.05,0
				c-36.55,0-73.1,0-109.65,0c-16.45,0-32.9,0-49.35,0c-39.7,0-79.39,0-119.09,0c-14.99,0-29.97,0-44.96,0c-2.79,0-5.58,0-8.38,0
				c-0.28,0,0.06,0.23,0.32-0.21c0.83-1.38,1.55-2.83,2.23-4.29c2.93-6.25,4.67-13.07,5.24-19.98c0.39-4.79-0.03-9.61-1.03-14.29
				c-0.3,0.1-0.6,0.2-0.9,0.3c4.64,6.36,6.08,15.37,6.17,23.08c0,0.28,0.85-0.02,0.93-0.2c2.7-6.24,1.18-14.9,0-21.22
				c-0.31,0.09-0.62,0.17-0.93,0.26c4.55,7.47,6.57,16.88,6.67,25.59c0,0.23,0.91,0.05,0.93-0.2c0.64-6.76,0.41-13.65,0.03-20.41
				c-0.97-17.03-4.28-33.93-9.79-50.01c-0.31,0.09-0.62,0.17-0.93,0.26c9.46,19.31,16.41,41.37,17.87,62.99
				c0.02,0.24,0.95,0.06,0.93-0.26c-0.5-8.99-0.42-18.04-0.04-27.03c0.61-14.27,1.52-30.83,8.61-43.49
				c-0.31,0.05-0.62,0.1-0.93,0.15c-1.36,5.07-1.65,10.59-1.95,15.8c-1.06,18.11,0.11,36.33,1.95,54.34c0.03,0.3,0.85-0.02,0.93-0.2
				c3.15-7.11,5.34-15.33,4.77-23.18c-0.3,0.1-0.6,0.2-0.9,0.3c4.46,6.87,6.42,15.89,5.13,24.01c-0.05,0.31,0.86,0.12,0.93-0.15
				c2.57-10.17,3.94-22.61,0-32.53c-0.31,0.09-0.62,0.17-0.93,0.26c5.13,8.14,6.69,19.11,7.23,28.54c0.01,0.24,0.94,0.06,0.93-0.26
				c-0.25-7.79,2.15-16,6.39-22.38c-0.3,0.03-0.59,0.06-0.89,0.09c-3.53,9.49-0.51,21,4.05,29.44c0.13,0.25,0.87,0.05,0.93-0.2
				c1.52-6.51,2.42-13.21,3.04-19.87c1.1-11.85,1.14-24.53-3.04-35.79c-0.31,0.09-0.62,0.17-0.93,0.26
				c7.25,16.96,9.52,37.37,6.68,55.55c-0.05,0.34,0.78,0.06,0.89-0.09c4.31-5.9,7.49-13.35,7.67-20.78
				c-0.31,0.09-0.62,0.17-0.93,0.26c1.44,6.51,0.99,13.6,0,20.12c-0.05,0.34,0.83,0.07,0.93-0.15c4.53-10.04,6.53-22.09,4.77-33.03
				c-0.31,0.09-0.62,0.17-0.93,0.26c5,9.78,5.09,22.42,2.86,32.91c-0.06,0.3,0.85,0.12,0.93-0.15c2.31-8.64,4.91-18.96,10.45-26.02
				c-0.3,0.03-0.59,0.06-0.89,0.09c-1.35,7.24,0.07,15.31,4.32,21.26c0.16,0.22,0.89-0.04,0.9-0.31c0.45-8.24,0.39-16.54,0.12-24.79
				c-0.48-14.67-1.69-29.85-6.32-43.82c-0.31,0.09-0.62,0.17-0.93,0.26c6.15,17.4,11.92,36.25,12.87,54.83
				c0.01,0.24,0.93,0.05,0.93-0.26c0.01-5.01,0.5-10.05,1.26-15c1.16-7.64,3.19-17.38,9.61-22.23c-0.28,0.01-0.55,0.02-0.83,0.03
				c-6.81,14.83-7.24,33.5-1.91,48.77c0.09,0.26,0.89,0.04,0.93-0.2c1.18-8.11,1.19-16.57,0-24.66c-0.3,0.1-0.6,0.2-0.9,0.3
				c1.38,1.15,2.22,3.05,2.9,4.68c2.4,5.7,2.62,12.29,2.46,18.4c-0.01,0.22,0.91,0.06,0.93-0.2c0.61-7.01,2.28-14.01,6.01-19.98
				c-0.3,0.03-0.59,0.06-0.89,0.09c-2.31,8.46-1.37,18.17,2.38,25.99c0.13,0.26,0.86,0.04,0.93-0.2c3.62-12.5,5.95-28.86,0-40.9
				c-0.3,0.1-0.6,0.2-0.9,0.31c2.01,2.65,3.34,5.95,4.5,9.06c3.36,8.97,4.47,18.73,4.53,28.3c0,0.29,0.85-0.02,0.93-0.2
				c4.09-8.76,6.89-20.1,3.82-29.58c-0.3,0.1-0.6,0.2-0.9,0.3c5.71,7.89,6.27,19.39,4.45,28.62c-0.06,0.3,0.86,0.12,0.93-0.15
				c2.14-8.64,4.64-17.19,7.58-25.58c3.43-9.78,7.43-20.43,14.37-28.18c-0.3,0.03-0.59,0.06-0.89,0.09
				c-7.02,14-8.25,31.82-4.07,46.8c0.08,0.3,0.85,0,0.93-0.2c2.85-6.92,4.13-14.71,4.07-22.2c-0.31,0.09-0.62,0.17-0.93,0.26
				c1.93,8.75,3.84,18.54,2.61,27.5c-0.05,0.34,0.83,0.07,0.93-0.15c4.74-10.42,7.62-23.05,5.72-34.5
				c-0.31,0.09-0.62,0.17-0.93,0.26c3.04,12.48,2.87,26.27,0.59,38.82c-0.06,0.31,0.84,0.1,0.93-0.15
				c1.43-4.06,3.01-8.07,4.66-12.04c2.43-5.83,4.98-12.94,9.5-17.42c-0.3,0.05-0.6,0.1-0.89,0.14c-0.25,10.35,0.9,21.24,4.29,31
				c0.1,0.28,0.86,0.02,0.93-0.2c2.59-8.2,4.32-17.37,3.34-25.99c-0.31,0.09-0.62,0.17-0.93,0.26c1.26,9.52,2.97,19.02,5.25,28.33
				c0.07,0.27,0.88,0.02,0.93-0.2c1.66-7.51,1.83-15.07,0.24-22.62c-0.3,0.1-0.6,0.2-0.9,0.3c4.64,6.36,6.08,15.37,6.17,23.08
				c0,0.28,0.85-0.02,0.93-0.2c2.7-6.24,1.18-14.9,0-21.22c-0.31,0.09-0.62,0.17-0.93,0.26c4.55,7.47,6.57,16.88,6.67,25.59
				c0,0.23,0.91,0.05,0.93-0.2c0.64-6.76,0.41-13.65,0.03-20.41c-0.97-17.03-4.27-33.93-9.79-50.01c-0.31,0.09-0.62,0.17-0.93,0.26
				c9.46,19.31,16.41,41.37,17.87,62.99c0.02,0.24,0.95,0.06,0.93-0.26c-0.5-8.99-0.42-18.04-0.03-27.03
				c0.61-14.27,1.52-30.83,8.61-43.49c-0.31,0.05-0.62,0.1-0.93,0.15c-1.36,5.07-1.65,10.59-1.95,15.8
				c-1.06,18.11,0.11,36.33,1.95,54.34c0.03,0.3,0.85-0.02,0.93-0.2c3.15-7.11,5.34-15.33,4.77-23.18c-0.3,0.1-0.6,0.2-0.9,0.3
				c4.46,6.87,6.42,15.89,5.13,24.01c-0.05,0.31,0.86,0.12,0.93-0.15c2.57-10.17,3.94-22.61,0-32.53c-0.31,0.09-0.62,0.17-0.93,0.26
				c5.13,8.14,6.69,19.11,7.24,28.54c0.01,0.24,0.94,0.06,0.93-0.26c-0.25-7.79,2.14-16,6.39-22.38c-0.3,0.03-0.59,0.06-0.89,0.09
				c-3.53,9.49-0.51,21,4.05,29.44c0.13,0.25,0.87,0.05,0.93-0.2c1.52-6.51,2.42-13.21,3.04-19.87c1.1-11.85,1.14-24.53-3.04-35.79
				c-0.31,0.09-0.62,0.17-0.93,0.26c7.25,16.96,9.52,37.37,6.68,55.55c-0.05,0.34,0.78,0.06,0.89-0.09
				c4.31-5.9,7.49-13.35,7.67-20.78c-0.31,0.09-0.62,0.17-0.93,0.26c1.44,6.51,0.99,13.6,0,20.12c-0.05,0.34,0.83,0.07,0.93-0.15
				c4.53-10.04,6.53-22.09,4.77-33.03c-0.31,0.09-0.62,0.17-0.93,0.26c5.01,9.78,5.09,22.42,2.86,32.91
				c-0.06,0.3,0.85,0.12,0.93-0.15c2.31-8.64,4.91-18.96,10.45-26.02c-0.3,0.03-0.59,0.06-0.89,0.09
				c-1.35,7.24,0.07,15.31,4.32,21.26c0.16,0.22,0.89-0.04,0.9-0.31c0.45-8.24,0.39-16.54,0.12-24.79
				c-0.48-14.67-1.69-29.85-6.32-43.82c-0.31,0.09-0.62,0.17-0.93,0.26c6.15,17.4,11.92,36.25,12.87,54.83
				c0.01,0.24,0.93,0.05,0.93-0.26c0.01-5.01,0.5-10.05,1.26-15c1.16-7.64,3.19-17.38,9.61-22.23c-0.28,0.01-0.55,0.02-0.83,0.03
				c-6.82,14.83-7.24,33.5-1.91,48.77c0.09,0.26,0.9,0.04,0.93-0.2c1.18-8.11,1.19-16.57,0-24.66c-0.3,0.1-0.6,0.2-0.9,0.3
				c1.38,1.15,2.22,3.05,2.9,4.68c2.4,5.7,2.62,12.29,2.46,18.4c-0.01,0.22,0.91,0.06,0.93-0.2c0.61-7.01,2.28-14.01,6.01-19.98
				c-0.3,0.03-0.59,0.06-0.89,0.09c-2.31,8.46-1.37,18.17,2.38,25.99c0.13,0.26,0.86,0.04,0.93-0.2c3.62-12.5,5.95-28.86,0-40.9
				c-0.3,0.1-0.6,0.2-0.9,0.31c2.01,2.65,3.34,5.95,4.5,9.06c3.36,8.97,4.47,18.73,4.53,28.3c0,0.29,0.85-0.02,0.93-0.2
				c4.09-8.76,6.89-20.1,3.82-29.58c-0.3,0.1-0.6,0.2-0.9,0.3c5.71,7.89,6.27,19.39,4.45,28.62c-0.06,0.3,0.86,0.12,0.93-0.15
				c2.14-8.64,4.64-17.19,7.58-25.58c3.43-9.78,7.43-20.43,14.37-28.18c-0.3,0.03-0.59,0.06-0.89,0.09
				c-7.02,14-8.25,31.82-4.07,46.8c0.08,0.3,0.85,0,0.93-0.2c2.85-6.92,4.13-14.71,4.07-22.2c-0.31,0.09-0.62,0.17-0.93,0.26
				c1.93,8.75,3.84,18.54,2.61,27.5c-0.05,0.34,0.83,0.07,0.93-0.15c4.74-10.42,7.62-23.05,5.72-34.5
				c-0.31,0.09-0.62,0.17-0.93,0.26c3.04,12.48,2.87,26.27,0.59,38.82c-0.06,0.31,0.84,0.1,0.93-0.15
				c1.43-4.06,3.01-8.07,4.66-12.04c2.43-5.83,4.98-12.94,9.5-17.42c-0.3,0.05-0.6,0.1-0.9,0.14c-0.25,10.35,0.9,21.24,4.29,31
				c0.1,0.28,0.86,0.02,0.93-0.2c2.59-8.2,4.32-17.37,3.34-25.99C389.28,230.48,388.34,230.69,388.37,230.99z"/>
		</g>
	</g>
</g>
</svg>
