<?xml version="1.0" encoding="utf-8"?>
<!-- Generator: Adobe Illustrator 25.0.0, SVG Export Plug-In . SVG Version: 6.00 Build 0)  -->
<svg version="1.1" id="Capa_1" xmlns="http://www.w3.org/2000/svg" xmlns:xlink="http://www.w3.org/1999/xlink" x="0px" y="0px"
	 viewBox="0 0 393 268.5" style="enable-background:new 0 0 393 268.5;" xml:space="preserve">
<style type="text/css">
	.st0{fill:#38D430;}
	.st1{fill:#0097CE;}
	.st2{fill:#4DCCEF;}
	.st3{fill:#F02B3C;}
	.st4{fill:#FE3B1F;}
	.st5{fill:#DC5D6B;}
	.st6{fill:#4E2583;}
</style>
<rect class="st0" width="393" height="268.5"/>
<g>
	<rect x="116.37" y="204.65" class="st1" width="65" height="32.5"/>
	<path class="st1" d="M154.44,237.15h-38.07v-32.5h38.07c7.69,0,13.93,6.24,13.93,13.93v4.64
		C168.37,230.92,162.13,237.15,154.44,237.15z"/>
	<rect x="116.37" y="213.32" class="st2" width="28.17" height="15.17"/>
	
		<rect x="211.7" y="141.82" transform="matrix(-1 -1.224647e-16 1.224647e-16 -1 488.3972 316.1383)" class="st1" width="65" height="32.5"/>
	<path class="st1" d="M238.63,141.82h38.07v32.5h-38.07c-7.69,0-13.93-6.24-13.93-13.93v-4.64
		C224.7,148.06,230.93,141.82,238.63,141.82z"/>
	
		<rect x="248.53" y="150.49" transform="matrix(-1 -1.224647e-16 1.224647e-16 -1 525.2305 316.1383)" class="st2" width="28.17" height="15.17"/>
	<path class="st3" d="M194.37,122.32v32.5c0,14.06-4.57,27.75-13,39v10.83h-65v-8.67l-13.26-19.89c-5.48-8.21-8.41-17.9-8.41-27.78
		c0-3.6,1.45-6.85,3.81-9.19c1.11-1.11,2.4-2.02,3.84-2.67c0.39-0.17,0.8-0.35,1.21-0.48l-0.2-0.67v-13
		c0-8.84,4.42-16.66,11.16-21.34c4.2-2.95,9.32-4.66,14.84-4.66h39C182.73,96.32,194.37,107.95,194.37,122.32z"/>
	<path class="st4" d="M109.78,150.49c-4.72,0-8.58-3.84-8.58-8.58v-0.09c0-1.91,0.41-3.73,1.15-5.35c0.17-0.39,0.37-0.78,0.61-1.15
		h22.92c5.52,0,9.99,4.46,9.99,9.99v0.85c0-1.13-0.17-2.21-0.48-3.25c-0.54,1.69-1.47,3.18-2.69,4.42
		c-1.97,1.95-4.68,3.16-7.67,3.16H109.78z"/>
	<path class="st5" d="M132.7,153.82c1.95-1.97,3.16-4.68,3.16-7.67V147c0,5.52-4.46,9.99-9.99,9.99h-0.85
		C128.02,156.99,130.73,155.77,132.7,153.82z"/>
	<path class="st4" d="M194.37,122.32v32.5c0,14.06-4.57,27.75-13,39v4.33h-49.83c-4.79,0-8.67-3.88-8.67-8.67l-13.26-19.89
		c-0.93-1.41-1.37-2.95-1.37-4.46c0-0.56,0.07-1.11,0.17-1.65h16.62c4.79,0,9.12-1.95,12.26-5.07c3.39-3.41,5.39-8.22,5.03-13.5
		c-0.64-9.19-8.74-16.1-17.96-16.1h-1.5c-7.18,0-13-5.82-13-13v0c0-5.52,1.71-10.64,4.66-14.84c4.2-2.95,9.32-4.66,14.84-4.66h39
		C182.72,96.32,194.37,107.96,194.37,122.32z"/>
	<path class="st3" d="M179.2,128.82v6.5c0,9.58-7.76,17.33-17.33,17.33H133.7v-6.5h28.17C171.44,146.15,179.2,138.4,179.2,128.82z"
		/>
	<path class="st3" d="M176.9,130.99c-1.06,8.56-8.36,15.17-17.2,15.17h-23.83v-6.5h23.83c6.41,0,12.02-3.49,14.99-8.67H176.9z"/>
	<path class="st3" d="M298.37,85.49c0,9.88-2.92,19.56-8.41,27.78l-13.26,19.89v8.67h-65v-10.83c-8.43-11.25-13-24.94-13-39v-32.5
		c0-8.84,4.42-16.66,11.16-21.34c4.2-2.95,9.32-4.66,14.84-4.66h39c14.37,0,26,11.63,26,26v13l-0.2,0.67
		c1.93,0.65,3.64,1.73,5.05,3.14C296.91,78.64,298.37,81.89,298.37,85.49z"/>
	<path class="st4" d="M298.37,85.49c0,9.88-2.92,19.56-8.41,27.78l-13.26,19.89v2.17h-47.67c-5.98,0-10.83-4.85-10.83-10.83v0
		c-8.43-11.25-13-24.94-13-39v-32.5c0-5.52,1.71-10.64,4.66-14.84c4.2-2.95,9.32-4.66,14.84-4.66h39c14.36,0,26,11.64,26,26v13
		l-0.2,0.67c1.93,0.65,3.64,1.73,5.05,3.14C296.91,78.64,298.37,81.89,298.37,85.49z"/>
	<path class="st4" d="M289.7,65.99v6.5h-20.65c-6.2,0-11.29,4.77-11.79,10.83h-4.4v-5.48c0-6.54,5.31-11.85,11.85-11.85H289.7z"/>
	<path class="st3" d="M285.37,94.15L285.37,94.15l-17.06,0c-5.13,0-9.77-3.46-10.85-8.47c-0.43-1.99-0.29-3.86,0.22-5.61
		c1.39,4.4,5.5,7.58,10.36,7.58h10.83C282.46,87.65,285.37,90.56,285.37,94.15z"/>
	<path class="st3" d="M257.2,83.32v6.5h-30.33c-7.17,0-13-5.83-13-13v-8.67h2.17v2.17c0,7.17,5.83,13,13,13H257.2z"/>
	<path class="st3" d="M257.2,76.82v6.5h-30.33c-7.17,0-13-5.83-13-13v-2.17h2.92c1.76,5.05,6.59,8.67,12.24,8.67H257.2z"/>
	<g>
		<path class="st6" d="M168.37,94.15h-39c-15.53,0-28.17,12.64-28.17,28.17v12.3c-5.12,2.44-8.67,7.66-8.67,13.7
			c0,10.35,3.03,20.38,8.78,28.99l12.89,19.33v8.01v8.67v15.17v8.67c0,1.2,0.97,2.17,2.17,2.17h35.75h29.25
			c1.2,0,2.17-0.97,2.17-2.17v-32.5v-10.12c8.39-11.45,13-25.52,13-39.72v-32.5C196.53,106.79,183.9,94.15,168.37,94.15z
			 M118.53,215.49h23.83v10.83h-23.83V215.49z M118.53,234.99v-4.33h26c1.2,0,2.17-0.97,2.17-2.17v-15.17c0-1.2-0.97-2.17-2.17-2.17
			h-26v-4.33h33.58c7.77,0,14.08,6.32,14.08,14.08s-6.32,14.08-14.08,14.08H118.53z M179.2,234.99h-15.24
			c4.01-3.38,6.57-8.44,6.57-14.08s-2.56-10.7-6.57-14.08h15.24V234.99z M192.2,154.82c0,13.51-4.46,26.9-12.57,37.7
			c-0.28,0.38-0.43,0.83-0.43,1.3v8.67h-27.08h-1.08v-21.67c0-1.2-0.97-2.17-2.17-2.17s-2.17,0.97-2.17,2.17v21.67h-28.17v-6.5
			c0-0.43-0.13-0.85-0.36-1.2l-13.25-19.88c-5.27-7.9-8.05-17.09-8.05-26.58c0-5.97,4.86-10.83,10.83-10.83h17.33
			c4.78,0,8.67,3.89,8.67,8.67s-3.89,8.67-8.67,8.67h-15.17c-1.2,0-2.17,0.97-2.17,2.17s0.97,2.17,2.17,2.17h15.17
			c6.43,0,11.77-4.69,12.8-10.83h24.03c9.56,0,17.33-7.78,17.33-17.33c0-1.2-0.97-2.17-2.17-2.17c-1.2,0-2.17,0.97-2.17,2.17
			c0,7.17-5.83,13-13,13h-24.03c-1.04-6.14-6.38-10.83-12.8-10.83H107.7c-0.74,0-1.46,0.05-2.17,0.15v-10.99
			c0-13.14,10.69-23.83,23.83-23.83h39c13.14,0,23.83,10.69,23.83,23.83V154.82z"/>
		<path class="st6" d="M291.87,71.78v-12.3c0-15.53-12.64-28.17-28.17-28.17h-39c-15.53,0-28.17,12.64-28.17,28.17v32.5
			c0,14.2,4.61,28.27,13,39.72v10.12v32.5c0,1.2,0.97,2.17,2.17,2.17h29.25h35.75c1.2,0,2.17-0.97,2.17-2.17v-8.67v-15.17v-8.67
			v-8.01l12.89-19.33c5.74-8.61,8.78-18.64,8.78-28.99C300.53,79.45,296.99,74.22,291.87,71.78z M213.87,172.15v-28.17h15.24
			c-4.01,3.38-6.57,8.44-6.57,14.08c0,5.65,2.56,10.7,6.57,14.08H213.87z M240.95,172.15c-7.77,0-14.08-6.32-14.08-14.08
			c0-7.77,6.32-14.08,14.08-14.08h33.58v4.33h-26c-1.2,0-2.17,0.97-2.17,2.17v15.17c0,1.2,0.97,2.17,2.17,2.17h26v4.33H240.95z
			 M274.53,163.49H250.7v-10.83h23.83V163.49z M288.15,112.07l-13.25,19.88c-0.24,0.36-0.36,0.77-0.36,1.2v6.5h-28.17v-21.67
			c0-1.2-0.97-2.17-2.17-2.17c-1.2,0-2.17,0.97-2.17,2.17v21.67h-1.08h-27.08v-8.67c0-0.47-0.15-0.92-0.43-1.3
			c-8.1-10.8-12.57-24.19-12.57-37.7v-32.5c0-13.14,10.69-23.83,23.83-23.83h39c13.14,0,23.83,10.69,23.83,23.83v10.99
			c-0.71-0.1-1.43-0.15-2.17-0.15h-17.33c-6.43,0-11.77,4.69-12.8,10.83H231.2c-7.17,0-13-5.83-13-13c0-1.2-0.97-2.17-2.17-2.17
			c-1.2,0-2.17,0.97-2.17,2.17c0,9.56,7.78,17.33,17.33,17.33h24.03c1.04,6.14,6.38,10.83,12.8,10.83h15.17
			c1.2,0,2.17-0.97,2.17-2.17s-0.97-2.17-2.17-2.17h-15.17c-4.78,0-8.67-3.89-8.67-8.67c0-4.78,3.89-8.67,8.67-8.67h17.33
			c5.97,0,10.83,4.86,10.83,10.83C296.2,94.98,293.42,104.17,288.15,112.07z"/>
	</g>
</g>
</svg>
