<?xml version="1.0" encoding="utf-8"?>
<!-- Generator: Adobe Illustrator 26.5.0, SVG Export Plug-In . SVG Version: 6.00 Build 0)  -->
<svg version="1.1" id="Capa_1" xmlns="http://www.w3.org/2000/svg" xmlns:xlink="http://www.w3.org/1999/xlink" x="0px" y="0px"
	 viewBox="0 0 392 268" enable-background="new 0 0 392 268" xml:space="preserve">
<g>
	<rect y="0" fill="#F23994" width="392" height="268"/>
	<g>
		<path fill="#FFFFFF" stroke="#421D70" stroke-width="4" stroke-miterlimit="10" d="M233.558,88.397
			c-4.593,0-8.317,3.723-8.317,8.316c0,4.594,3.724,8.318,8.317,8.318c4.594,0,8.318-3.724,8.318-8.318
			C241.876,92.12,238.152,88.397,233.558,88.397z"/>
		<path fill="#FFFFFF" stroke="#421D70" stroke-width="4" stroke-miterlimit="10" d="M196.582,99.063
			c-19.264,0-34.938,15.673-34.938,34.938c0,19.263,15.674,34.937,34.938,34.937s34.937-15.674,34.937-34.937
			C231.52,114.735,215.846,99.063,196.582,99.063z M196.582,156.38c-12.341,0-22.38-10.039-22.38-22.379
			c0-12.341,10.039-22.38,22.38-22.38c12.341,0,22.379,10.039,22.379,22.38C218.962,146.341,208.923,156.38,196.582,156.38z"/>
		<path fill="#FFFFFF" stroke="#421D70" stroke-width="4" stroke-miterlimit="10" d="M224.319,204.934h-56.64
			c-23.496,0-42.612-19.116-42.612-42.613v-56.643c0-23.498,19.116-42.613,42.612-42.613h56.64
			c23.496,0,42.615,19.115,42.615,42.613v56.643C266.934,185.818,247.815,204.934,224.319,204.934z M167.678,76.414
			c-16.138,0-29.266,13.127-29.266,29.265v56.643c0,16.138,13.128,29.266,29.266,29.266h56.64c16.138,0,29.268-13.128,29.268-29.266
			v-56.643c0-16.139-13.13-29.265-29.268-29.265H167.678z"/>
	</g>
</g>
</svg>
