<?xml version="1.0" encoding="utf-8"?>
<!-- Generator: Adobe Illustrator 25.4.1, SVG Export Plug-In . SVG Version: 6.00 Build 0)  -->
<svg version="1.1" xmlns="http://www.w3.org/2000/svg" xmlns:xlink="http://www.w3.org/1999/xlink" x="0px" y="0px"
	 viewBox="0 0 100 100" style="enable-background:new 0 0 100 100;" xml:space="preserve">
<style type="text/css">
	.st0{fill:#33BEF0;}
</style>
<g id="Capa_1">
</g>
<g id="ELEMENTS">
	<g>
		<g>
			<path class="st0" d="M50,7.25c23.57,0,42.75,19.18,42.75,42.75S73.57,92.75,50,92.75S7.25,73.57,7.25,50S26.43,7.25,50,7.25
				 M50,2.5C23.77,2.5,2.5,23.77,2.5,50S23.77,97.5,50,97.5c26.23,0,47.5-21.27,47.5-47.5S76.23,2.5,50,2.5L50,2.5z"/>
		</g>
		<g>
			<path class="st0" d="M66.31,31.78H61.1c-5.13,0-6.74,3.19-6.74,6.45v7.75h11.46l-1.83,11.95h-9.63v28.88H41.45V57.94H30.95V45.99
				h10.49v-9.11c0-10.36,6.17-16.08,15.61-16.08c4.52,0,9.25,0.81,9.25,0.81V31.78z"/>
		</g>
	</g>
</g>
</svg>
