<?xml version="1.0" encoding="utf-8"?>
<!-- Generator: Adobe Illustrator 26.5.0, SVG Export Plug-In . SVG Version: 6.00 Build 0)  -->
<svg version="1.1" id="Capa_1" xmlns="http://www.w3.org/2000/svg" xmlns:xlink="http://www.w3.org/1999/xlink" x="0px" y="0px"
	 viewBox="0 0 392 268" enable-background="new 0 0 392 268" xml:space="preserve">
<g>
	<rect y="0" fill="#21C8CE" width="392" height="268"/>
	<g>
		<path fill-rule="evenodd" clip-rule="evenodd" fill="#976CFF" stroke="#421D70" stroke-width="4" stroke-miterlimit="10" d="
			M227.067,113.759c9.4,6.716,20.918,10.669,33.355,10.669v-23.924c-2.354,0.001-4.702-0.244-7.005-0.732v18.831
			c-12.438,0-23.952-3.952-33.355-10.668v48.819c0,24.423-19.808,44.219-44.241,44.219c-9.116,0-17.59-2.755-24.629-7.48
			c8.033,8.211,19.237,13.305,31.632,13.305c24.435,0,44.244-19.797,44.244-44.22L227.067,113.759L227.067,113.759z M235.708,89.624
			c-4.804-5.246-7.958-12.026-8.641-19.521v-3.077h-6.638C222.099,76.552,227.798,84.69,235.708,89.624L235.708,89.624z
			 M166.644,174.754c-2.683-3.517-4.134-7.822-4.128-12.246c0-11.17,9.06-20.226,20.239-20.226c2.083-0.001,4.154,0.318,6.139,0.948
			v-24.459c-2.321-0.317-4.662-0.451-7.002-0.402v19.037c-1.986-0.629-4.058-0.949-6.142-0.948
			c-11.179,0-20.237,9.056-20.237,20.227C155.513,164.583,160.041,171.423,166.644,174.754z"/>
		<path fill-rule="evenodd" clip-rule="evenodd" fill="#FFFFFF" stroke="#421D70" stroke-width="4" stroke-miterlimit="10" d="
			M220.062,107.934c9.403,6.716,20.918,10.668,33.355,10.668V99.772c-6.943-1.477-13.088-5.104-17.71-10.148
			c-7.91-4.933-13.609-13.072-15.279-22.598h-17.436v95.552c-0.039,11.139-9.084,20.158-20.239,20.158
			c-6.572,0-12.412-3.131-16.11-7.981c-6.604-3.331-11.132-10.171-11.132-18.069c0-11.171,9.059-20.227,20.237-20.227
			c2.141,0,4.206,0.333,6.142,0.948v-19.037c-24.004,0.496-43.31,20.099-43.31,44.209c0,12.034,4.808,22.945,12.611,30.916
			c7.039,4.725,15.513,7.479,24.629,7.479c24.433,0,44.241-19.797,44.241-44.219V107.934z"/>
		<path fill-rule="evenodd" clip-rule="evenodd" fill="#976CFF" stroke="#421D70" stroke-width="4" stroke-miterlimit="10" d="
			M253.418,99.772v-5.092c-6.261,0.01-12.398-1.743-17.71-5.057C240.409,94.768,246.601,98.316,253.418,99.772z M220.428,67.025
			c-0.159-0.91-0.282-1.826-0.366-2.747v-3.077h-24.075v95.551c-0.039,11.139-9.083,20.158-20.238,20.158
			c-3.275,0-6.367-0.776-9.105-2.157c3.698,4.85,9.538,7.981,16.11,7.981c11.153,0,20.199-9.019,20.239-20.158V67.025H220.428z
			 M181.892,118.369v-5.421c-2.012-0.275-4.04-0.413-6.07-0.411c-24.436-0.001-44.244,19.797-44.244,44.216
			c0,15.311,7.784,28.804,19.614,36.74c-7.801-7.97-12.609-18.881-12.609-30.916C138.583,138.468,157.887,118.865,181.892,118.369
			L181.892,118.369z"/>
	</g>
</g>
</svg>
