<?xml version="1.0" encoding="UTF-8"?><svg xmlns="http://www.w3.org/2000/svg" viewBox="0 0 399.55 268.47"><defs><style>.cls-1{fill:none;}.cls-2{fill:#fd8a25;}.cls-3,.cls-4{fill:#fed130;}.cls-4{stroke:#fd8a25;stroke-linejoin:round;stroke-width:2px;}.cls-5{isolation:isolate;}.cls-6{mix-blend-mode:multiply;opacity:.6;}</style></defs><g class="cls-5"><g id="Capa_2"><g id="Capa_1-2"><g><rect class="cls-3" x="2.24" y=".47" width="393.54" height="268"/><g class="cls-6"><g id="_6TsFBo"><g><path class="cls-3" d="M363.58,267.64c-8.08,0-16.16,0-24.24,0-2.12,0-3.62-1.37-3.86-3.47-.6-5.25-1.23-10.49-1.84-15.74-.56-4.75-1.11-9.5-1.66-14.26-.58-4.99-1.17-9.97-1.75-14.96-.49-4.18-.97-8.37-1.46-12.55-.21-1.78-.42-3.55-.63-5.33-.06-.47-.04-.5,.42-.5,1.34,0,2.68,.01,4.03,0,.73-.01,1.25,.28,1.62,.92,2.63,4.49,5.27,8.98,7.91,13.47,1.8,3.06,3.59,6.13,5.4,9.19,.94,1.6,2.36,2.41,4.22,2.41,3.59,0,7.18-.01,10.78-.02,4.11,0,8.23-.02,12.34,0,.94,0,1.83-.08,2.68-.51,.85-.44,1.51-1.08,2-1.9,4.47-7.52,8.95-15.04,13.41-22.56,.41-.7,.95-1.02,1.76-1,1.33,.03,2.66,.02,3.99,0,.34,0,.43,.1,.39,.44-.88,7.47-1.76,14.93-2.63,22.4-.71,6.07-1.41,12.14-2.12,18.22-.81,6.92-1.62,13.85-2.43,20.77-.06,.51-.12,1.01-.17,1.52-.21,2.07-1.75,3.46-3.83,3.46-8.1,0-16.21,0-24.31,0Z"/><path class="cls-3" d="M378.51,222.5c-.09-1.28-.19-2.53-.28-3.78-.34-4.66-.68-9.32-1.02-13.98-.19-2.63-.39-5.25-.56-7.88-.06-.87-.25-1.67-.9-2.3-.08-.07-.1-.15-.1-.26,0-4.46,.01-8.92,.02-13.38,0-.97,.42-1.39,1.38-1.39,1.54,0,3.08,0,4.62,0,.94,0,1.36,.43,1.36,1.37,0,11.27,0,22.54,0,33.81,0,.2-.02,.38-.13,.57-1.39,2.32-2.77,4.65-4.16,6.98-.05,.08-.08,.18-.23,.24Z"/><path class="cls-3" d="M372.62,225.03c-.92,0-1.84-.01-2.76,0-.3,0-.37-.09-.39-.37-.28-4-.57-8.01-.86-12.01-.37-5.07-.73-10.14-1.1-15.21,0-.11-.02-.22-.02-.33-.03-.74,.4-1.23,1.15-1.28,1.64-.12,3.27-.24,4.91-.36,.74-.05,1.25,.4,1.31,1.16,.16,2.12,.31,4.24,.46,6.36,.36,4.95,.72,9.89,1.08,14.84,.16,2.14,.31,4.29,.48,6.43,.03,.33-.09,.47-.37,.57-.53,.19-1.07,.22-1.62,.22-.76,0-1.52,0-2.27,0,0,0,0-.01,0-.02Z"/><path class="cls-3" d="M362.56,207.76c.19-2.3,.36-4.61,.58-6.91,.1-1.06-.08-2-.87-2.77-.56-.55-1.25-.79-2.02-.83-.61-.04-.61-.04-.78-.6-1.3-4.38-2.6-8.76-3.9-13.15-.25-.86,.05-1.42,.9-1.65,1.56-.42,3.12-.84,4.68-1.25,.74-.19,1.29,.12,1.51,.87,1.31,4.37,2.61,8.74,3.92,13.1,.05,.16,.08,.29-.07,.43-.61,.63-.83,1.4-.77,2.26,.4,5.54,.8,11.08,1.2,16.62,.26,3.57,.52,7.14,.76,10.71,.01,.15,.16,.41-.18,.42-.25,0-.48,.07-.59-.32-1.43-5.46-2.88-10.91-4.32-16.36-.05-.2-.07-.39-.05-.59Z"/><path class="cls-3" d="M355.68,225.06c-1.11,0-2.21-.02-3.32,0-.37,0-.43-.11-.4-.44,.27-3.16,.53-6.31,.79-9.47,.29-3.43,.57-6.86,.86-10.29,.14-1.71,.28-3.42,.43-5.12,.07-.76,.59-1.18,1.34-1.12,1.61,.13,3.22,.27,4.83,.4,.82,.07,1.24,.56,1.17,1.39-.46,5.66-.92,11.32-1.37,16.97-.2,2.41-.4,4.83-.58,7.24-.03,.33-.13,.43-.47,.43-1.09-.02-2.19,0-3.28,0h0Z"/><path class="cls-3" d="M384.8,211.91v-.36c0-3.47,0-6.93,0-10.4,0-.24,.04-.46,.13-.69,2.55-6.26,5.09-12.52,7.63-18.78,.33-.82,.92-1.08,1.73-.75,1.46,.59,2.92,1.18,4.38,1.78,.82,.34,1.07,.92,.74,1.73-1.94,4.77-3.88,9.55-5.81,14.33-.12,.31-.29,.5-.6,.64-.66,.28-1.13,.79-1.5,1.4-2.15,3.62-4.3,7.24-6.46,10.86-.05,.08-.1,.17-.15,.25-.03,0-.06-.01-.09-.02Z"/><path class="cls-3" d="M350.17,224.66c-.36-.2-.66-.38-.73-.83-.72-4.51-1.46-9.02-2.2-13.53-.98-5.99-1.96-11.99-2.94-17.98-.17-1.01,.2-1.48,1.22-1.63,1.52-.23,3.05-.46,4.57-.7,.8-.12,1.33,.25,1.46,1.05,.34,2.18,.65,4.37,1.03,6.55,.08,.46,.07,.84-.13,1.26-.24,.51-.2,1.1-.24,1.65-.55,6.54-1.09,13.07-1.64,19.61-.12,1.45-.24,2.9-.36,4.35,0,.06-.02,.12-.04,.21Z"/><path class="cls-3" d="M341.9,211.39c-.57-.97-1.09-1.86-1.61-2.75-.06-.1-.04-.22-.03-.33,.22-4.37,.43-8.73,.65-13.1,.14-2.93,.3-5.86,.42-8.79,.07-1.67-1.18-2.97-2.86-3.04-.33-.01-.77,.11-.97-.1-.2-.22,0-.64,.03-.97,.29-2.84,.59-5.68,.9-8.52,.1-.96,.56-1.33,1.52-1.24,1.56,.15,3.11,.31,4.67,.48,.85,.09,1.25,.58,1.16,1.45-.35,3.4-.71,6.8-1.07,10.19-.14,1.37-.29,2.74-.43,4.11-.03,.28-.11,.46-.38,.61-1.06,.61-1.57,1.76-1.37,2.99,.26,1.59,.51,3.19,.79,4.78,.09,.49-.02,.96-.07,1.44-.42,4.18-.86,8.35-1.29,12.53,0,.05-.02,.09-.06,.25Z"/><path class="cls-3" d="M369.06,181.12c.24,4.04,.47,8.09,.71,12.13,0,.15,0,.3,.02,.45,.03,.21-.04,.29-.26,.3-.32,0-.65,.02-.97,.08-.26,.04-.34-.05-.41-.28-.49-1.67-.99-3.33-1.49-5-.77-2.57-1.54-5.14-2.3-7.71-.39-1.32-1.22-2.1-2.6-2.26-.22-.03-.25-.13-.26-.32-.14-2.52-.29-5.04-.44-7.55-.04-.65-.08-1.29-.11-1.94-.04-.8,.37-1.28,1.17-1.33,1.64-.1,3.27-.2,4.91-.28,.75-.04,1.23,.4,1.27,1.15,.25,4.19,.49,8.38,.74,12.58,0,0,0,0,0,0Z"/><path class="cls-3" d="M338.53,205.64c-.14-.24-.29-.48-.43-.72-.8-1.36-1.6-2.72-2.4-4.08-.69-1.17-1.71-1.77-3.07-1.76-.26,0-.52-.01-.78,0-.23,.01-.3-.06-.29-.3,.1-2,.2-3.99,.3-5.99,.11-2.22,.22-4.44,.34-6.66,.04-.82,.51-1.26,1.32-1.22,1.63,.08,3.25,.16,4.88,.24,.76,.04,1.21,.53,1.17,1.29-.28,5.74-.57,11.49-.85,17.23-.03,.64-.06,1.29-.09,1.93-.03,.01-.06,.02-.09,.03Z"/><path class="cls-3" d="M362.17,213.58c.21,.8,.42,1.6,.64,2.4,.76,2.88,1.52,5.76,2.29,8.64,.09,.34,.04,.42-.32,.42-1.09-.01-2.18,0-3.28,.02-.27,0-.36-.05-.34-.35,.3-3.55,.58-7.1,.87-10.65,.01-.16,.03-.31,.05-.47,.02,0,.05,0,.07,0Z"/><path class="cls-3" d="M347.04,220.01c-.16-.08-.2-.21-.26-.31-1.06-1.8-2.11-3.6-3.17-5.39-.12-.2-.17-.4-.15-.63,.31-2.98,.62-5.95,.92-8.93,.01-.1,.04-.19,.11-.29,.84,5.17,1.69,10.34,2.54,15.56Z"/></g></g><g id="_6TsFBo-2"><g><path class="cls-3" d="M281.55,267.64c-8.08,0-16.16,0-24.24,0-2.12,0-3.62-1.37-3.86-3.47-.6-5.25-1.23-10.49-1.84-15.74-.56-4.75-1.11-9.5-1.66-14.26-.58-4.99-1.17-9.97-1.75-14.96-.49-4.18-.97-8.37-1.46-12.55-.21-1.78-.42-3.55-.63-5.33-.06-.47-.04-.5,.42-.5,1.34,0,2.68,.01,4.03,0,.73-.01,1.25,.28,1.62,.92,2.63,4.49,5.27,8.98,7.91,13.47,1.8,3.06,3.59,6.13,5.4,9.19,.94,1.6,2.36,2.41,4.22,2.41,3.59,0,7.18-.01,10.78-.02,4.11,0,8.23-.02,12.34,0,.94,0,1.83-.08,2.68-.51,.85-.44,1.51-1.08,2-1.9,4.47-7.52,8.95-15.04,13.41-22.56,.41-.7,.95-1.02,1.76-1,1.33,.03,2.66,.02,3.99,0,.34,0,.43,.1,.39,.44-.88,7.47-1.76,14.93-2.63,22.4-.71,6.07-1.41,12.14-2.12,18.22-.81,6.92-1.62,13.85-2.43,20.77-.06,.51-.12,1.01-.17,1.52-.21,2.07-1.75,3.46-3.83,3.46-8.1,0-16.21,0-24.31,0Z"/><path class="cls-3" d="M296.48,222.5c-.09-1.28-.19-2.53-.28-3.78-.34-4.66-.68-9.32-1.02-13.98-.19-2.63-.39-5.25-.56-7.88-.06-.87-.25-1.67-.9-2.3-.08-.07-.1-.15-.1-.26,0-4.46,.01-8.92,.02-13.38,0-.97,.42-1.39,1.38-1.39,1.54,0,3.08,0,4.62,0,.94,0,1.36,.43,1.36,1.37,0,11.27,0,22.54,0,33.81,0,.2-.02,.38-.13,.57-1.39,2.32-2.77,4.65-4.16,6.98-.05,.08-.08,.18-.23,.24Z"/><path class="cls-3" d="M290.59,225.03c-.92,0-1.84-.01-2.76,0-.3,0-.37-.09-.39-.37-.28-4-.57-8.01-.86-12.01-.37-5.07-.73-10.14-1.1-15.21,0-.11-.02-.22-.02-.33-.03-.74,.4-1.23,1.15-1.28,1.64-.12,3.27-.24,4.91-.36,.74-.05,1.25,.4,1.31,1.16,.16,2.12,.31,4.24,.46,6.36,.36,4.95,.72,9.89,1.08,14.84,.16,2.14,.31,4.29,.48,6.43,.03,.33-.09,.47-.37,.57-.53,.19-1.07,.22-1.62,.22-.76,0-1.52,0-2.27,0,0,0,0-.01,0-.02Z"/><path class="cls-3" d="M280.53,207.76c.19-2.3,.36-4.61,.58-6.91,.1-1.06-.08-2-.87-2.77-.56-.55-1.25-.79-2.02-.83-.61-.04-.61-.04-.78-.6-1.3-4.38-2.6-8.76-3.9-13.15-.25-.86,.05-1.42,.9-1.65,1.56-.42,3.12-.84,4.68-1.25,.74-.19,1.29,.12,1.51,.87,1.31,4.37,2.61,8.74,3.92,13.1,.05,.16,.08,.29-.07,.43-.61,.63-.83,1.4-.77,2.26,.4,5.54,.8,11.08,1.2,16.62,.26,3.57,.52,7.14,.76,10.71,.01,.15,.16,.41-.18,.42-.25,0-.48,.07-.59-.32-1.43-5.46-2.88-10.91-4.32-16.36-.05-.2-.07-.39-.05-.59Z"/><path class="cls-3" d="M273.65,225.06c-1.11,0-2.21-.02-3.32,0-.37,0-.43-.11-.4-.44,.27-3.16,.53-6.31,.79-9.47,.29-3.43,.57-6.86,.86-10.29,.14-1.71,.28-3.42,.43-5.12,.07-.76,.59-1.18,1.34-1.12,1.61,.13,3.22,.27,4.83,.4,.82,.07,1.24,.56,1.17,1.39-.46,5.66-.92,11.32-1.37,16.97-.2,2.41-.4,4.83-.58,7.24-.03,.33-.13,.43-.47,.43-1.09-.02-2.19,0-3.28,0h0Z"/><path class="cls-3" d="M302.77,211.91v-.36c0-3.47,0-6.93,0-10.4,0-.24,.04-.46,.13-.69,2.55-6.26,5.09-12.52,7.63-18.78,.33-.82,.92-1.08,1.73-.75,1.46,.59,2.92,1.18,4.38,1.78,.82,.34,1.07,.92,.74,1.73-1.94,4.77-3.88,9.55-5.81,14.33-.12,.31-.29,.5-.6,.64-.66,.28-1.13,.79-1.5,1.4-2.15,3.62-4.3,7.24-6.46,10.86-.05,.08-.1,.17-.15,.25-.03,0-.06-.01-.09-.02Z"/><path class="cls-3" d="M268.14,224.66c-.36-.2-.66-.38-.73-.83-.72-4.51-1.46-9.02-2.2-13.53-.98-5.99-1.96-11.99-2.94-17.98-.17-1.01,.2-1.48,1.22-1.63,1.52-.23,3.05-.46,4.57-.7,.8-.12,1.33,.25,1.46,1.05,.34,2.18,.65,4.37,1.03,6.55,.08,.46,.07,.84-.13,1.26-.24,.51-.2,1.1-.24,1.65-.55,6.54-1.09,13.07-1.64,19.61-.12,1.45-.24,2.9-.36,4.35,0,.06-.02,.12-.04,.21Z"/><path class="cls-3" d="M259.87,211.39c-.57-.97-1.09-1.86-1.61-2.75-.06-.1-.04-.22-.03-.33,.22-4.37,.43-8.73,.65-13.1,.14-2.93,.3-5.86,.42-8.79,.07-1.67-1.18-2.97-2.86-3.04-.33-.01-.77,.11-.97-.1-.2-.22,0-.64,.03-.97,.29-2.84,.59-5.68,.9-8.52,.1-.96,.56-1.33,1.52-1.24,1.56,.15,3.11,.31,4.67,.48,.85,.09,1.25,.58,1.16,1.45-.35,3.4-.71,6.8-1.07,10.19-.14,1.37-.29,2.74-.43,4.11-.03,.28-.11,.46-.38,.61-1.06,.61-1.57,1.76-1.37,2.99,.26,1.59,.51,3.19,.79,4.78,.09,.49-.02,.96-.07,1.44-.42,4.18-.86,8.35-1.29,12.53,0,.05-.02,.09-.06,.25Z"/><path class="cls-3" d="M287.03,181.12c.24,4.04,.47,8.09,.71,12.13,0,.15,0,.3,.02,.45,.03,.21-.04,.29-.26,.3-.32,0-.65,.02-.97,.08-.26,.04-.34-.05-.41-.28-.49-1.67-.99-3.33-1.49-5-.77-2.57-1.54-5.14-2.3-7.71-.39-1.32-1.22-2.1-2.6-2.26-.22-.03-.25-.13-.26-.32-.14-2.52-.29-5.04-.44-7.55-.04-.65-.08-1.29-.11-1.94-.04-.8,.37-1.28,1.17-1.33,1.64-.1,3.27-.2,4.91-.28,.75-.04,1.23,.4,1.27,1.15,.25,4.19,.49,8.38,.74,12.58,0,0,0,0,0,0Z"/><path class="cls-3" d="M256.5,205.64c-.14-.24-.29-.48-.43-.72-.8-1.36-1.6-2.72-2.4-4.08-.69-1.17-1.71-1.77-3.07-1.76-.26,0-.52-.01-.78,0-.23,.01-.3-.06-.29-.3,.1-2,.2-3.99,.3-5.99,.11-2.22,.22-4.44,.34-6.66,.04-.82,.51-1.26,1.32-1.22,1.63,.08,3.25,.16,4.88,.24,.76,.04,1.21,.53,1.17,1.29-.28,5.74-.57,11.49-.85,17.23-.03,.64-.06,1.29-.09,1.93-.03,.01-.06,.02-.09,.03Z"/><path class="cls-3" d="M280.14,213.58c.21,.8,.42,1.6,.64,2.4,.76,2.88,1.52,5.76,2.29,8.64,.09,.34,.04,.42-.32,.42-1.09-.01-2.18,0-3.28,.02-.27,0-.36-.05-.34-.35,.3-3.55,.58-7.1,.87-10.65,.01-.16,.03-.31,.05-.47,.02,0,.05,0,.07,0Z"/><path class="cls-3" d="M265.01,220.01c-.16-.08-.2-.21-.26-.31-1.06-1.8-2.11-3.6-3.17-5.39-.12-.2-.17-.4-.15-.63,.31-2.98,.62-5.95,.92-8.93,.01-.1,.04-.19,.11-.29,.84,5.17,1.69,10.34,2.54,15.56Z"/></g></g><g id="_6TsFBo-3"><g><path class="cls-3" d="M199.52,267.64c-8.08,0-16.16,0-24.24,0-2.12,0-3.62-1.37-3.86-3.47-.6-5.25-1.23-10.49-1.84-15.74-.56-4.75-1.11-9.5-1.66-14.26-.58-4.99-1.17-9.97-1.75-14.96-.49-4.18-.97-8.37-1.46-12.55-.21-1.78-.42-3.55-.63-5.33-.06-.47-.04-.5,.42-.5,1.34,0,2.68,.01,4.03,0,.73-.01,1.25,.28,1.62,.92,2.63,4.49,5.27,8.98,7.91,13.47,1.8,3.06,3.59,6.13,5.4,9.19,.94,1.6,2.36,2.41,4.22,2.41,3.59,0,7.18-.01,10.78-.02,4.11,0,8.23-.02,12.34,0,.94,0,1.83-.08,2.68-.51,.85-.44,1.51-1.08,2-1.9,4.47-7.52,8.95-15.04,13.41-22.56,.41-.7,.95-1.02,1.76-1,1.33,.03,2.66,.02,3.99,0,.34,0,.43,.1,.39,.44-.88,7.47-1.76,14.93-2.63,22.4-.71,6.07-1.41,12.14-2.12,18.22-.81,6.92-1.62,13.85-2.43,20.77-.06,.51-.12,1.01-.17,1.52-.21,2.07-1.75,3.46-3.83,3.46-8.1,0-16.21,0-24.31,0Z"/><path class="cls-3" d="M214.45,222.5c-.09-1.28-.19-2.53-.28-3.78-.34-4.66-.68-9.32-1.02-13.98-.19-2.63-.39-5.25-.56-7.88-.06-.87-.25-1.67-.9-2.3-.08-.07-.1-.15-.1-.26,0-4.46,.01-8.92,.02-13.38,0-.97,.42-1.39,1.38-1.39,1.54,0,3.08,0,4.62,0,.94,0,1.36,.43,1.36,1.37,0,11.27,0,22.54,0,33.81,0,.2-.02,.38-.13,.57-1.39,2.32-2.77,4.65-4.16,6.98-.05,.08-.08,.18-.23,.24Z"/><path class="cls-3" d="M208.56,225.03c-.92,0-1.84-.01-2.76,0-.3,0-.37-.09-.39-.37-.28-4-.57-8.01-.86-12.01-.37-5.07-.73-10.14-1.1-15.21,0-.11-.02-.22-.02-.33-.03-.74,.4-1.23,1.15-1.28,1.64-.12,3.27-.24,4.91-.36,.74-.05,1.25,.4,1.31,1.16,.16,2.12,.31,4.24,.46,6.36,.36,4.95,.72,9.89,1.08,14.84,.16,2.14,.31,4.29,.48,6.43,.03,.33-.09,.47-.37,.57-.53,.19-1.07,.22-1.62,.22-.76,0-1.52,0-2.27,0,0,0,0-.01,0-.02Z"/><path class="cls-3" d="M198.5,207.76c.19-2.3,.36-4.61,.58-6.91,.1-1.06-.08-2-.87-2.77-.56-.55-1.25-.79-2.02-.83-.61-.04-.61-.04-.78-.6-1.3-4.38-2.6-8.76-3.9-13.15-.25-.86,.05-1.42,.9-1.65,1.56-.42,3.12-.84,4.68-1.25,.74-.19,1.29,.12,1.51,.87,1.31,4.37,2.61,8.74,3.92,13.1,.05,.16,.08,.29-.07,.43-.61,.63-.83,1.4-.77,2.26,.4,5.54,.8,11.08,1.2,16.62,.26,3.57,.52,7.14,.76,10.71,.01,.15,.16,.41-.18,.42-.25,0-.48,.07-.59-.32-1.43-5.46-2.88-10.91-4.32-16.36-.05-.2-.07-.39-.05-.59Z"/><path class="cls-3" d="M191.62,225.06c-1.11,0-2.21-.02-3.32,0-.37,0-.43-.11-.4-.44,.27-3.16,.53-6.31,.79-9.47,.29-3.43,.57-6.86,.86-10.29,.14-1.71,.28-3.42,.43-5.12,.07-.76,.59-1.18,1.34-1.12,1.61,.13,3.22,.27,4.83,.4,.82,.07,1.24,.56,1.17,1.39-.46,5.66-.92,11.32-1.37,16.97-.2,2.41-.4,4.83-.58,7.24-.03,.33-.13,.43-.47,.43-1.09-.02-2.19,0-3.28,0h0Z"/><path class="cls-3" d="M220.74,211.91v-.36c0-3.47,0-6.93,0-10.4,0-.24,.04-.46,.13-.69,2.55-6.26,5.09-12.52,7.63-18.78,.33-.82,.92-1.08,1.73-.75,1.46,.59,2.92,1.18,4.38,1.78,.82,.34,1.07,.92,.74,1.73-1.94,4.77-3.88,9.55-5.81,14.33-.12,.31-.29,.5-.6,.64-.66,.28-1.13,.79-1.5,1.4-2.15,3.62-4.3,7.24-6.46,10.86-.05,.08-.1,.17-.15,.25-.03,0-.06-.01-.09-.02Z"/><path class="cls-3" d="M186.11,224.66c-.36-.2-.66-.38-.73-.83-.72-4.51-1.46-9.02-2.2-13.53-.98-5.99-1.96-11.99-2.94-17.98-.17-1.01,.2-1.48,1.22-1.63,1.52-.23,3.05-.46,4.57-.7,.8-.12,1.33,.25,1.46,1.05,.34,2.18,.65,4.37,1.03,6.55,.08,.46,.07,.84-.13,1.26-.24,.51-.2,1.1-.24,1.65-.55,6.54-1.09,13.07-1.64,19.61-.12,1.45-.24,2.9-.36,4.35,0,.06-.02,.12-.04,.21Z"/><path class="cls-3" d="M177.84,211.39c-.57-.97-1.09-1.86-1.61-2.75-.06-.1-.04-.22-.03-.33,.22-4.37,.43-8.73,.65-13.1,.14-2.93,.3-5.86,.42-8.79,.07-1.67-1.18-2.97-2.86-3.04-.33-.01-.77,.11-.97-.1-.2-.22,0-.64,.03-.97,.29-2.84,.59-5.68,.9-8.52,.1-.96,.56-1.33,1.52-1.24,1.56,.15,3.11,.31,4.67,.48,.85,.09,1.25,.58,1.16,1.45-.35,3.4-.71,6.8-1.07,10.19-.14,1.37-.29,2.74-.43,4.11-.03,.28-.11,.46-.38,.61-1.06,.61-1.57,1.76-1.37,2.99,.26,1.59,.51,3.19,.79,4.78,.09,.49-.02,.96-.07,1.44-.42,4.18-.86,8.35-1.29,12.53,0,.05-.02,.09-.06,.25Z"/><path class="cls-3" d="M205,181.12c.24,4.04,.47,8.09,.71,12.13,0,.15,0,.3,.02,.45,.03,.21-.04,.29-.26,.3-.32,0-.65,.02-.97,.08-.26,.04-.34-.05-.41-.28-.49-1.67-.99-3.33-1.49-5-.77-2.57-1.54-5.14-2.3-7.71-.39-1.32-1.22-2.1-2.6-2.26-.22-.03-.25-.13-.26-.32-.14-2.52-.29-5.04-.44-7.55-.04-.65-.08-1.29-.11-1.94-.04-.8,.37-1.28,1.17-1.33,1.64-.1,3.27-.2,4.91-.28,.75-.04,1.23,.4,1.27,1.15,.25,4.19,.49,8.38,.74,12.58,0,0,0,0,0,0Z"/><path class="cls-3" d="M174.47,205.64c-.14-.24-.29-.48-.43-.72-.8-1.36-1.6-2.72-2.4-4.08-.69-1.17-1.71-1.77-3.07-1.76-.26,0-.52-.01-.78,0-.23,.01-.3-.06-.29-.3,.1-2,.2-3.99,.3-5.99,.11-2.22,.22-4.44,.34-6.66,.04-.82,.51-1.26,1.32-1.22,1.63,.08,3.25,.16,4.88,.24,.76,.04,1.21,.53,1.17,1.29-.28,5.74-.57,11.49-.85,17.23-.03,.64-.06,1.29-.09,1.93-.03,.01-.06,.02-.09,.03Z"/><path class="cls-3" d="M198.11,213.58c.21,.8,.42,1.6,.64,2.4,.76,2.88,1.52,5.76,2.29,8.64,.09,.34,.04,.42-.32,.42-1.09-.01-2.18,0-3.28,.02-.27,0-.36-.05-.34-.35,.3-3.55,.58-7.1,.87-10.65,.01-.16,.03-.31,.05-.47,.02,0,.05,0,.07,0Z"/><path class="cls-3" d="M182.98,220.01c-.16-.08-.2-.21-.26-.31-1.06-1.8-2.11-3.6-3.17-5.39-.12-.2-.17-.4-.15-.63,.31-2.98,.62-5.95,.92-8.93,.01-.1,.04-.19,.11-.29,.84,5.17,1.69,10.34,2.54,15.56Z"/></g></g><g id="_6TsFBo-4"><g><path class="cls-3" d="M117.49,267.64c-8.08,0-16.16,0-24.24,0-2.12,0-3.62-1.37-3.86-3.47-.6-5.25-1.23-10.49-1.84-15.74-.56-4.75-1.11-9.5-1.66-14.26-.58-4.99-1.17-9.97-1.75-14.96-.49-4.18-.97-8.37-1.46-12.55-.21-1.78-.42-3.55-.63-5.33-.06-.47-.04-.5,.42-.5,1.34,0,2.68,.01,4.03,0,.73-.01,1.25,.28,1.62,.92,2.63,4.49,5.27,8.98,7.91,13.47,1.8,3.06,3.59,6.13,5.4,9.19,.94,1.6,2.36,2.41,4.22,2.41,3.59,0,7.18-.01,10.78-.02,4.11,0,8.23-.02,12.34,0,.94,0,1.83-.08,2.68-.51,.85-.44,1.51-1.08,2-1.9,4.47-7.52,8.95-15.04,13.41-22.56,.41-.7,.95-1.02,1.76-1,1.33,.03,2.66,.02,3.99,0,.34,0,.43,.1,.39,.44-.88,7.47-1.76,14.93-2.63,22.4-.71,6.07-1.41,12.14-2.12,18.22-.81,6.92-1.62,13.85-2.43,20.77-.06,.51-.12,1.01-.17,1.52-.21,2.07-1.75,3.46-3.83,3.46-8.1,0-16.21,0-24.31,0Z"/><path class="cls-3" d="M132.42,222.5c-.09-1.28-.19-2.53-.28-3.78-.34-4.66-.68-9.32-1.02-13.98-.19-2.63-.39-5.25-.56-7.88-.06-.87-.25-1.67-.9-2.3-.08-.07-.1-.15-.1-.26,0-4.46,.01-8.92,.02-13.38,0-.97,.42-1.39,1.38-1.39,1.54,0,3.08,0,4.62,0,.94,0,1.36,.43,1.36,1.37,0,11.27,0,22.54,0,33.81,0,.2-.02,.38-.13,.57-1.39,2.32-2.77,4.65-4.16,6.98-.05,.08-.08,.18-.23,.24Z"/><path class="cls-3" d="M126.53,225.03c-.92,0-1.84-.01-2.76,0-.3,0-.37-.09-.39-.37-.28-4-.57-8.01-.86-12.01-.37-5.07-.73-10.14-1.1-15.21,0-.11-.02-.22-.02-.33-.03-.74,.4-1.23,1.15-1.28,1.64-.12,3.27-.24,4.91-.36,.74-.05,1.25,.4,1.31,1.16,.16,2.12,.31,4.24,.46,6.36,.36,4.95,.72,9.89,1.08,14.84,.16,2.14,.31,4.29,.48,6.43,.03,.33-.09,.47-.37,.57-.53,.19-1.07,.22-1.62,.22-.76,0-1.52,0-2.27,0,0,0,0-.01,0-.02Z"/><path class="cls-3" d="M116.47,207.76c.19-2.3,.36-4.61,.58-6.91,.1-1.06-.08-2-.87-2.77-.56-.55-1.25-.79-2.02-.83-.61-.04-.61-.04-.78-.6-1.3-4.38-2.6-8.76-3.9-13.15-.25-.86,.05-1.42,.9-1.65,1.56-.42,3.12-.84,4.68-1.25,.74-.19,1.29,.12,1.51,.87,1.31,4.37,2.61,8.74,3.92,13.1,.05,.16,.08,.29-.07,.43-.61,.63-.83,1.4-.77,2.26,.4,5.54,.8,11.08,1.2,16.62,.26,3.57,.52,7.14,.76,10.71,.01,.15,.16,.41-.18,.42-.25,0-.48,.07-.59-.32-1.43-5.46-2.88-10.91-4.32-16.36-.05-.2-.07-.39-.05-.59Z"/><path class="cls-3" d="M109.59,225.06c-1.11,0-2.21-.02-3.32,0-.37,0-.43-.11-.4-.44,.27-3.16,.53-6.31,.79-9.47,.29-3.43,.57-6.86,.86-10.29,.14-1.71,.28-3.42,.43-5.12,.07-.76,.59-1.18,1.34-1.12,1.61,.13,3.22,.27,4.83,.4,.82,.07,1.24,.56,1.17,1.39-.46,5.66-.92,11.32-1.37,16.97-.2,2.41-.4,4.83-.58,7.24-.03,.33-.13,.43-.47,.43-1.09-.02-2.19,0-3.28,0h0Z"/><path class="cls-3" d="M138.71,211.91v-.36c0-3.47,0-6.93,0-10.4,0-.24,.04-.46,.13-.69,2.55-6.26,5.09-12.52,7.63-18.78,.33-.82,.92-1.08,1.73-.75,1.46,.59,2.92,1.18,4.38,1.78,.82,.34,1.07,.92,.74,1.73-1.94,4.77-3.88,9.55-5.81,14.33-.12,.31-.29,.5-.6,.64-.66,.28-1.13,.79-1.5,1.4-2.15,3.62-4.3,7.24-6.46,10.86-.05,.08-.1,.17-.15,.25-.03,0-.06-.01-.09-.02Z"/><path class="cls-3" d="M104.08,224.66c-.36-.2-.66-.38-.73-.83-.72-4.51-1.46-9.02-2.2-13.53-.98-5.99-1.96-11.99-2.94-17.98-.17-1.01,.2-1.48,1.22-1.63,1.52-.23,3.05-.46,4.57-.7,.8-.12,1.33,.25,1.46,1.05,.34,2.18,.65,4.37,1.03,6.55,.08,.46,.07,.84-.13,1.26-.24,.51-.2,1.1-.24,1.65-.55,6.54-1.09,13.07-1.64,19.61-.12,1.45-.24,2.9-.36,4.35,0,.06-.02,.12-.04,.21Z"/><path class="cls-3" d="M95.81,211.39c-.57-.97-1.09-1.86-1.61-2.75-.06-.1-.04-.22-.03-.33,.22-4.37,.43-8.73,.65-13.1,.14-2.93,.3-5.86,.42-8.79,.07-1.67-1.18-2.97-2.86-3.04-.33-.01-.77,.11-.97-.1-.2-.22,0-.64,.03-.97,.29-2.84,.59-5.68,.9-8.52,.1-.96,.56-1.33,1.52-1.24,1.56,.15,3.11,.31,4.67,.48,.85,.09,1.25,.58,1.16,1.45-.35,3.4-.71,6.8-1.07,10.19-.14,1.37-.29,2.74-.43,4.11-.03,.28-.11,.46-.38,.61-1.06,.61-1.57,1.76-1.37,2.99,.26,1.59,.51,3.19,.79,4.78,.09,.49-.02,.96-.07,1.44-.42,4.18-.86,8.35-1.29,12.53,0,.05-.02,.09-.06,.25Z"/><path class="cls-3" d="M122.97,181.12c.24,4.04,.47,8.09,.71,12.13,0,.15,0,.3,.02,.45,.03,.21-.04,.29-.26,.3-.32,0-.65,.02-.97,.08-.26,.04-.34-.05-.41-.28-.49-1.67-.99-3.33-1.49-5-.77-2.57-1.54-5.14-2.3-7.71-.39-1.32-1.22-2.1-2.6-2.26-.22-.03-.25-.13-.26-.32-.14-2.52-.29-5.04-.44-7.55-.04-.65-.08-1.29-.11-1.94-.04-.8,.37-1.28,1.17-1.33,1.64-.1,3.27-.2,4.91-.28,.75-.04,1.23,.4,1.27,1.15,.25,4.19,.49,8.38,.74,12.58,0,0,0,0,0,0Z"/><path class="cls-3" d="M92.44,205.64c-.14-.24-.29-.48-.43-.72-.8-1.36-1.6-2.72-2.4-4.08-.69-1.17-1.71-1.77-3.07-1.76-.26,0-.52-.01-.78,0-.23,.01-.3-.06-.29-.3,.1-2,.2-3.99,.3-5.99,.11-2.22,.22-4.44,.34-6.66,.04-.82,.51-1.26,1.32-1.22,1.63,.08,3.25,.16,4.88,.24,.76,.04,1.21,.53,1.17,1.29-.28,5.74-.57,11.49-.85,17.23-.03,.64-.06,1.29-.09,1.93-.03,.01-.06,.02-.09,.03Z"/><path class="cls-3" d="M116.08,213.58c.21,.8,.42,1.6,.64,2.4,.76,2.88,1.52,5.76,2.29,8.64,.09,.34,.04,.42-.32,.42-1.09-.01-2.18,0-3.28,.02-.27,0-.36-.05-.34-.35,.3-3.55,.58-7.1,.87-10.65,.01-.16,.03-.31,.05-.47,.02,0,.05,0,.07,0Z"/><path class="cls-3" d="M100.95,220.01c-.16-.08-.2-.21-.26-.31-1.06-1.8-2.11-3.6-3.17-5.39-.12-.2-.17-.4-.15-.63,.31-2.98,.62-5.95,.92-8.93,.01-.1,.04-.19,.11-.29,.84,5.17,1.69,10.34,2.54,15.56Z"/></g></g><g id="_6TsFBo-5"><g><path class="cls-3" d="M35.46,267.64c-8.08,0-16.16,0-24.24,0-2.12,0-3.62-1.37-3.86-3.47-.6-5.25-1.23-10.49-1.84-15.74-.56-4.75-1.11-9.5-1.66-14.26-.58-4.99-1.17-9.97-1.75-14.96-.49-4.18-.97-8.37-1.46-12.55-.21-1.78-.42-3.55-.63-5.33-.06-.47-.04-.5,.42-.5,1.34,0,2.68,.01,4.03,0,.73-.01,1.25,.28,1.62,.92,2.63,4.49,5.27,8.98,7.91,13.47,1.8,3.06,3.59,6.13,5.4,9.19,.94,1.6,2.36,2.41,4.22,2.41,3.59,0,7.18-.01,10.78-.02,4.11,0,8.23-.02,12.34,0,.94,0,1.83-.08,2.68-.51,.85-.44,1.51-1.08,2-1.9,4.47-7.52,8.95-15.04,13.41-22.56,.41-.7,.95-1.02,1.76-1,1.33,.03,2.66,.02,3.99,0,.34,0,.43,.1,.39,.44-.88,7.47-1.76,14.93-2.63,22.4-.71,6.07-1.41,12.14-2.12,18.22-.81,6.92-1.62,13.85-2.43,20.77-.06,.51-.12,1.01-.17,1.52-.21,2.07-1.75,3.46-3.83,3.46-8.1,0-16.21,0-24.31,0Z"/><path class="cls-3" d="M50.4,222.5c-.09-1.28-.19-2.53-.28-3.78-.34-4.66-.68-9.32-1.02-13.98-.19-2.63-.39-5.25-.56-7.88-.06-.87-.25-1.67-.9-2.3-.08-.07-.1-.15-.1-.26,0-4.46,.01-8.92,.02-13.38,0-.97,.42-1.39,1.38-1.39,1.54,0,3.08,0,4.62,0,.94,0,1.36,.43,1.36,1.37,0,11.27,0,22.54,0,33.81,0,.2-.02,.38-.13,.57-1.39,2.32-2.77,4.65-4.16,6.98-.05,.08-.08,.18-.23,.24Z"/><path class="cls-3" d="M44.5,225.03c-.92,0-1.84-.01-2.76,0-.3,0-.37-.09-.39-.37-.28-4-.57-8.01-.86-12.01-.37-5.07-.73-10.14-1.1-15.21,0-.11-.02-.22-.02-.33-.03-.74,.4-1.23,1.15-1.28,1.64-.12,3.27-.24,4.91-.36,.74-.05,1.25,.4,1.31,1.16,.16,2.12,.31,4.24,.46,6.36,.36,4.95,.72,9.89,1.08,14.84,.16,2.14,.31,4.29,.48,6.43,.03,.33-.09,.47-.37,.57-.53,.19-1.07,.22-1.62,.22-.76,0-1.52,0-2.27,0,0,0,0-.01,0-.02Z"/><path class="cls-3" d="M34.44,207.76c.19-2.3,.36-4.61,.58-6.91,.1-1.06-.08-2-.87-2.77-.56-.55-1.25-.79-2.02-.83-.61-.04-.61-.04-.78-.6-1.3-4.38-2.6-8.76-3.9-13.15-.25-.86,.05-1.42,.9-1.65,1.56-.42,3.12-.84,4.68-1.25,.74-.19,1.29,.12,1.51,.87,1.31,4.37,2.61,8.74,3.92,13.1,.05,.16,.08,.29-.07,.43-.61,.63-.83,1.4-.77,2.26,.4,5.54,.8,11.08,1.2,16.62,.26,3.57,.52,7.14,.76,10.71,.01,.15,.16,.41-.18,.42-.25,0-.48,.07-.59-.32-1.43-5.46-2.88-10.91-4.32-16.36-.05-.2-.07-.39-.05-.59Z"/><path class="cls-3" d="M27.56,225.06c-1.11,0-2.21-.02-3.32,0-.37,0-.43-.11-.4-.44,.27-3.16,.53-6.31,.79-9.47,.29-3.43,.57-6.86,.86-10.29,.14-1.71,.28-3.42,.43-5.12,.07-.76,.59-1.18,1.34-1.12,1.61,.13,3.22,.27,4.83,.4,.82,.07,1.24,.56,1.17,1.39-.46,5.66-.92,11.32-1.37,16.97-.2,2.41-.4,4.83-.58,7.24-.03,.33-.13,.43-.47,.43-1.09-.02-2.19,0-3.28,0h0Z"/><path class="cls-3" d="M56.68,211.91v-.36c0-3.47,0-6.93,0-10.4,0-.24,.04-.46,.13-.69,2.55-6.26,5.09-12.52,7.63-18.78,.33-.82,.92-1.08,1.73-.75,1.46,.59,2.92,1.18,4.38,1.78,.82,.34,1.07,.92,.74,1.73-1.94,4.77-3.88,9.55-5.81,14.33-.12,.31-.29,.5-.6,.64-.66,.28-1.13,.79-1.5,1.4-2.15,3.62-4.3,7.24-6.46,10.86-.05,.08-.1,.17-.15,.25-.03,0-.06-.01-.09-.02Z"/><path class="cls-3" d="M22.05,224.66c-.36-.2-.66-.38-.73-.83-.72-4.51-1.46-9.02-2.2-13.53-.98-5.99-1.96-11.99-2.94-17.98-.17-1.01,.2-1.48,1.22-1.63,1.52-.23,3.05-.46,4.57-.7,.8-.12,1.33,.25,1.46,1.05,.34,2.18,.65,4.37,1.03,6.55,.08,.46,.07,.84-.13,1.26-.24,.51-.2,1.1-.24,1.65-.55,6.54-1.09,13.07-1.64,19.61-.12,1.45-.24,2.9-.36,4.35,0,.06-.02,.12-.04,.21Z"/><path class="cls-3" d="M13.79,211.39c-.57-.97-1.09-1.86-1.61-2.75-.06-.1-.04-.22-.03-.33,.22-4.37,.43-8.73,.65-13.1,.14-2.93,.3-5.86,.42-8.79,.07-1.67-1.18-2.97-2.86-3.04-.33-.01-.77,.11-.97-.1-.2-.22,0-.64,.03-.97,.29-2.84,.59-5.68,.9-8.52,.1-.96,.56-1.33,1.52-1.24,1.56,.15,3.11,.31,4.67,.48,.85,.09,1.25,.58,1.16,1.45-.35,3.4-.71,6.8-1.07,10.19-.14,1.37-.29,2.74-.43,4.11-.03,.28-.11,.46-.38,.61-1.06,.61-1.57,1.76-1.37,2.99,.26,1.59,.51,3.19,.79,4.78,.09,.49-.02,.96-.07,1.44-.42,4.18-.86,8.35-1.29,12.53,0,.05-.02,.09-.06,.25Z"/><path class="cls-3" d="M40.94,181.12c.24,4.04,.47,8.09,.71,12.13,0,.15,0,.3,.02,.45,.03,.21-.04,.29-.26,.3-.32,0-.65,.02-.97,.08-.26,.04-.34-.05-.41-.28-.49-1.67-.99-3.33-1.49-5-.77-2.57-1.54-5.14-2.3-7.71-.39-1.32-1.22-2.1-2.6-2.26-.22-.03-.25-.13-.26-.32-.14-2.52-.29-5.04-.44-7.55-.04-.65-.08-1.29-.11-1.94-.04-.8,.37-1.28,1.17-1.33,1.64-.1,3.27-.2,4.91-.28,.75-.04,1.23,.4,1.27,1.15,.25,4.19,.49,8.38,.74,12.58,0,0,0,0,0,0Z"/><path class="cls-3" d="M10.41,205.64c-.14-.24-.29-.48-.43-.72-.8-1.36-1.6-2.72-2.4-4.08-.69-1.17-1.71-1.77-3.07-1.76-.26,0-.52-.01-.78,0-.23,.01-.3-.06-.29-.3,.1-2,.2-3.99,.3-5.99,.11-2.22,.22-4.44,.34-6.66,.04-.82,.51-1.26,1.32-1.22,1.63,.08,3.25,.16,4.88,.24,.76,.04,1.21,.53,1.17,1.29-.28,5.74-.57,11.49-.85,17.23-.03,.64-.06,1.29-.09,1.93-.03,.01-.06,.02-.09,.03Z"/><path class="cls-3" d="M34.06,213.58c.21,.8,.42,1.6,.64,2.4,.76,2.88,1.52,5.76,2.29,8.64,.09,.34,.04,.42-.32,.42-1.09-.01-2.18,0-3.28,.02-.27,0-.36-.05-.34-.35,.3-3.55,.58-7.1,.87-10.65,.01-.16,.03-.31,.05-.47,.02,0,.05,0,.07,0Z"/><path class="cls-3" d="M18.92,220.01c-.16-.08-.2-.21-.26-.31-1.06-1.8-2.11-3.6-3.17-5.39-.12-.2-.17-.4-.15-.63,.31-2.98,.62-5.95,.92-8.93,.01-.1,.04-.19,.11-.29,.84,5.17,1.69,10.34,2.54,15.56Z"/></g></g></g><g class="cls-6"><g id="_6TsFBo-6"><g><path class="cls-3" d="M37.87,0c7.99,0,15.97,0,23.96,0,2.09,0,3.58,1.36,3.81,3.43,.6,5.19,1.21,10.37,1.82,15.55,.55,4.7,1.09,9.39,1.64,14.09,.58,4.93,1.15,9.86,1.73,14.78,.48,4.14,.96,8.27,1.45,12.41,.21,1.76,.41,3.51,.62,5.27,.06,.47,.04,.49-.42,.49-1.33,0-2.65-.01-3.98,0-.73,.01-1.23-.28-1.6-.91-2.6-4.44-5.21-8.88-7.81-13.31-1.78-3.03-3.55-6.06-5.34-9.09-.93-1.58-2.33-2.38-4.17-2.38-3.55,0-7.1,.01-10.65,.02-4.07,0-8.13,.02-12.2,0-.92,0-1.81,.07-2.65,.5-.84,.43-1.49,1.06-1.98,1.88-4.42,7.43-8.84,14.86-13.25,22.3-.41,.69-.94,1.01-1.74,.99-1.31-.03-2.63-.02-3.94,0-.33,0-.43-.1-.39-.43,.87-7.38,1.74-14.76,2.6-22.14,.7-6,1.4-12,2.1-18.01,.8-6.84,1.6-13.69,2.41-20.53,.06-.5,.12-1,.17-1.5C10.27,1.38,11.78,0,13.84,0,21.85,0,29.86,0,37.87,0Z"/><path class="cls-3" d="M23.11,44.62c.09,1.27,.18,2.5,.27,3.74,.34,4.61,.67,9.21,1.01,13.82,.19,2.6,.38,5.19,.56,7.79,.06,.86,.25,1.65,.89,2.27,.07,.07,.1,.15,.1,.26,0,4.41-.01,8.82-.02,13.23,0,.96-.41,1.38-1.36,1.38-1.52,0-3.05,0-4.57,0-.93,0-1.35-.43-1.35-1.36,0-11.14,0-22.28,0-33.42,0-.2,.02-.38,.13-.56,1.37-2.3,2.74-4.6,4.11-6.9,.05-.08,.08-.18,.23-.24Z"/><path class="cls-3" d="M28.93,42.12c.91,0,1.82,.01,2.73,0,.29,0,.37,.09,.39,.37,.28,3.96,.57,7.91,.85,11.87,.36,5.01,.72,10.02,1.08,15.03,0,.11,.02,.22,.02,.33,.03,.73-.4,1.21-1.14,1.27-1.62,.12-3.23,.24-4.85,.35-.73,.05-1.24-.4-1.29-1.15-.15-2.09-.3-4.19-.46-6.28-.36-4.89-.71-9.78-1.07-14.66-.15-2.12-.3-4.24-.47-6.36-.03-.32,.09-.46,.37-.56,.52-.19,1.05-.22,1.6-.22,.75,0,1.5,0,2.25,0,0,0,0,.01,0,.02Z"/><path class="cls-3" d="M38.88,59.19c-.19,2.28-.36,4.56-.57,6.83-.1,1.05,.08,1.98,.86,2.74,.56,.54,1.24,.78,2,.82,.6,.04,.61,.04,.77,.59,1.29,4.33,2.57,8.66,3.86,12.99,.25,.85-.05,1.4-.89,1.63-1.54,.42-3.08,.83-4.63,1.23-.73,.19-1.28-.12-1.5-.86-1.29-4.32-2.58-8.63-3.87-12.95-.05-.16-.07-.28,.07-.43,.6-.62,.82-1.38,.76-2.23-.39-5.48-.79-10.95-1.18-16.43-.25-3.53-.51-7.06-.76-10.58-.01-.15-.15-.4,.18-.41,.25,0,.48-.07,.58,.31,1.41,5.39,2.84,10.78,4.27,16.17,.05,.19,.07,.39,.05,.58Z"/><path class="cls-3" d="M45.68,42.09c1.09,0,2.19,.02,3.28,0,.36,0,.42,.11,.39,.44-.27,3.12-.52,6.24-.78,9.36-.28,3.39-.56,6.78-.85,10.17-.14,1.69-.28,3.38-.43,5.07-.07,.75-.58,1.17-1.32,1.11-1.59-.13-3.18-.26-4.77-.39-.81-.07-1.23-.55-1.16-1.38,.45-5.59,.91-11.19,1.36-16.78,.19-2.39,.39-4.77,.58-7.16,.03-.33,.13-.43,.46-.42,1.08,.02,2.16,0,3.24,0h0Z"/><path class="cls-3" d="M16.9,55.08v.35c0,3.43,0,6.85,0,10.28,0,.24-.04,.46-.13,.68-2.52,6.19-5.03,12.37-7.54,18.56-.33,.81-.91,1.06-1.71,.74-1.45-.58-2.89-1.17-4.33-1.76-.81-.33-1.06-.91-.73-1.71,1.92-4.72,3.84-9.44,5.75-14.16,.12-.3,.29-.5,.6-.63,.65-.28,1.12-.78,1.48-1.39,2.12-3.58,4.25-7.16,6.38-10.73,.05-.08,.1-.16,.15-.25,.03,0,.06,.01,.09,.02Z"/><path class="cls-3" d="M51.12,42.49c.36,.2,.65,.38,.72,.82,.72,4.46,1.45,8.92,2.17,13.38,.97,5.92,1.94,11.85,2.9,17.77,.16,1-.19,1.46-1.21,1.61-1.51,.22-3.01,.46-4.51,.69-.79,.12-1.32-.24-1.44-1.04-.34-2.16-.65-4.32-1.02-6.48-.08-.45-.07-.83,.13-1.24,.24-.51,.19-1.08,.24-1.63,.54-6.46,1.08-12.92,1.62-19.38,.12-1.43,.24-2.86,.36-4.29,0-.06,.02-.12,.04-.21Z"/><path class="cls-3" d="M59.29,55.6c.56,.96,1.08,1.84,1.59,2.71,.06,.1,.04,.22,.03,.32-.21,4.32-.43,8.63-.64,12.95-.14,2.89-.29,5.79-.41,8.68-.07,1.66,1.17,2.94,2.83,3.01,.33,.01,.76-.11,.96,.1,.2,.21,0,.63-.03,.96-.29,2.81-.59,5.62-.89,8.43-.1,.95-.55,1.32-1.5,1.22-1.54-.15-3.08-.31-4.62-.47-.84-.09-1.24-.57-1.15-1.43,.35-3.36,.7-6.72,1.06-10.07,.14-1.36,.29-2.71,.42-4.07,.03-.27,.11-.45,.37-.61,1.05-.61,1.55-1.74,1.35-2.95-.26-1.57-.51-3.15-.78-4.72-.08-.49,.02-.95,.07-1.42,.42-4.13,.85-8.26,1.27-12.39,0-.05,.02-.09,.06-.25Z"/><path class="cls-3" d="M32.45,85.52c-.23-4-.47-7.99-.7-11.99,0-.15,0-.3-.02-.44-.03-.2,.04-.29,.25-.29,.32,0,.64-.02,.95-.08,.25-.04,.34,.05,.41,.28,.48,1.65,.98,3.3,1.47,4.94,.76,2.54,1.52,5.08,2.27,7.62,.38,1.3,1.21,2.08,2.57,2.24,.22,.03,.25,.13,.26,.31,.14,2.49,.29,4.98,.43,7.47,.04,.64,.08,1.28,.11,1.91,.04,.79-.37,1.26-1.16,1.31-1.62,.1-3.24,.2-4.85,.28-.74,.04-1.21-.39-1.26-1.14-.25-4.14-.49-8.29-.73-12.43,0,0,0,0,0,0Z"/><path class="cls-3" d="M62.63,61.28c.14,.24,.28,.48,.42,.72,.79,1.34,1.58,2.69,2.37,4.03,.68,1.16,1.69,1.75,3.03,1.74,.26,0,.52,.01,.77,0,.22-.01,.3,.06,.29,.29-.1,1.97-.2,3.95-.29,5.92-.11,2.19-.22,4.39-.33,6.58-.04,.81-.51,1.24-1.3,1.2-1.61-.08-3.21-.16-4.82-.24-.75-.04-1.2-.53-1.16-1.28,.28-5.68,.56-11.35,.84-17.03,.03-.64,.06-1.27,.09-1.91,.03-.01,.06-.02,.09-.03Z"/><path class="cls-3" d="M39.26,53.44c-.21-.79-.42-1.58-.63-2.37-.75-2.85-1.5-5.69-2.27-8.53-.09-.33-.04-.42,.31-.41,1.08,.01,2.16,0,3.24-.02,.27,0,.36,.05,.33,.35-.3,3.51-.58,7.02-.86,10.53-.01,.15-.03,.31-.05,.46-.02,0-.05,0-.07,0Z"/><path class="cls-3" d="M54.22,47.09c.16,.08,.2,.2,.26,.31,1.05,1.78,2.09,3.56,3.14,5.33,.12,.2,.17,.39,.14,.62-.31,2.94-.61,5.88-.91,8.83,0,.1-.04,.19-.11,.29-.83-5.11-1.67-10.22-2.51-15.38Z"/></g></g><g id="_6TsFBo-7"><g><path class="cls-3" d="M118.95,0c7.99,0,15.97,0,23.96,0,2.09,0,3.58,1.36,3.81,3.43,.6,5.19,1.21,10.37,1.82,15.55,.55,4.7,1.09,9.39,1.64,14.09,.58,4.93,1.15,9.86,1.73,14.78,.48,4.14,.96,8.27,1.45,12.41,.21,1.76,.41,3.51,.62,5.27,.06,.47,.04,.49-.42,.49-1.33,0-2.65-.01-3.98,0-.73,.01-1.23-.28-1.6-.91-2.6-4.44-5.21-8.88-7.81-13.31-1.78-3.03-3.55-6.06-5.34-9.09-.93-1.58-2.33-2.38-4.17-2.38-3.55,0-7.1,.01-10.65,.02-4.07,0-8.13,.02-12.2,0-.92,0-1.81,.07-2.65,.5-.84,.43-1.49,1.06-1.98,1.88-4.42,7.43-8.84,14.86-13.25,22.3-.41,.69-.94,1.01-1.74,.99-1.31-.03-2.63-.02-3.94,0-.33,0-.43-.1-.39-.43,.87-7.38,1.74-14.76,2.6-22.14,.7-6,1.4-12,2.1-18.01,.8-6.84,1.6-13.69,2.41-20.53,.06-.5,.12-1,.17-1.5C91.34,1.38,92.86,0,94.92,0c8.01,0,16.02,0,24.03,0Z"/><path class="cls-3" d="M104.19,44.62c.09,1.27,.18,2.5,.27,3.74,.34,4.61,.67,9.21,1.01,13.82,.19,2.6,.38,5.19,.56,7.79,.06,.86,.25,1.65,.89,2.27,.07,.07,.1,.15,.1,.26,0,4.41-.01,8.82-.02,13.23,0,.96-.41,1.38-1.36,1.38-1.52,0-3.05,0-4.57,0-.93,0-1.35-.43-1.35-1.36,0-11.14,0-22.28,0-33.42,0-.2,.02-.38,.13-.56,1.37-2.3,2.74-4.6,4.11-6.9,.05-.08,.08-.18,.23-.24Z"/><path class="cls-3" d="M110.01,42.12c.91,0,1.82,.01,2.73,0,.29,0,.37,.09,.39,.37,.28,3.96,.57,7.91,.85,11.87,.36,5.01,.72,10.02,1.08,15.03,0,.11,.02,.22,.02,.33,.03,.73-.4,1.21-1.14,1.27-1.62,.12-3.23,.24-4.85,.35-.73,.05-1.24-.4-1.29-1.15-.15-2.09-.3-4.19-.46-6.28-.36-4.89-.71-9.78-1.07-14.66-.15-2.12-.3-4.24-.47-6.36-.03-.32,.09-.46,.37-.56,.52-.19,1.05-.22,1.6-.22,.75,0,1.5,0,2.25,0,0,0,0,.01,0,.02Z"/><path class="cls-3" d="M119.95,59.19c-.19,2.28-.36,4.56-.57,6.83-.1,1.05,.08,1.98,.86,2.74,.56,.54,1.24,.78,2,.82,.6,.04,.61,.04,.77,.59,1.29,4.33,2.57,8.66,3.86,12.99,.25,.85-.05,1.4-.89,1.63-1.54,.42-3.08,.83-4.63,1.23-.73,.19-1.28-.12-1.5-.86-1.29-4.32-2.58-8.63-3.87-12.95-.05-.16-.07-.28,.07-.43,.6-.62,.82-1.38,.76-2.23-.39-5.48-.79-10.95-1.18-16.43-.25-3.53-.51-7.06-.76-10.58-.01-.15-.15-.4,.18-.41,.25,0,.48-.07,.58,.31,1.41,5.39,2.84,10.78,4.27,16.17,.05,.19,.07,.39,.05,.58Z"/><path class="cls-3" d="M126.75,42.09c1.09,0,2.19,.02,3.28,0,.36,0,.42,.11,.39,.44-.27,3.12-.52,6.24-.78,9.36-.28,3.39-.56,6.78-.85,10.17-.14,1.69-.28,3.38-.43,5.07-.07,.75-.58,1.17-1.32,1.11-1.59-.13-3.18-.26-4.77-.39-.81-.07-1.23-.55-1.16-1.38,.45-5.59,.91-11.19,1.36-16.78,.19-2.39,.39-4.77,.58-7.16,.03-.33,.13-.43,.46-.42,1.08,.02,2.16,0,3.24,0h0Z"/><path class="cls-3" d="M97.97,55.08v.35c0,3.43,0,6.85,0,10.28,0,.24-.04,.46-.13,.68-2.52,6.19-5.03,12.37-7.54,18.56-.33,.81-.91,1.06-1.71,.74-1.45-.58-2.89-1.17-4.33-1.76-.81-.33-1.06-.91-.73-1.71,1.92-4.72,3.84-9.44,5.75-14.16,.12-.3,.29-.5,.6-.63,.65-.28,1.12-.78,1.48-1.39,2.12-3.58,4.25-7.16,6.38-10.73,.05-.08,.1-.16,.15-.25,.03,0,.06,.01,.09,.02Z"/><path class="cls-3" d="M132.2,42.49c.36,.2,.65,.38,.72,.82,.72,4.46,1.45,8.92,2.17,13.38,.97,5.92,1.94,11.85,2.9,17.77,.16,1-.19,1.46-1.21,1.61-1.51,.22-3.01,.46-4.51,.69-.79,.12-1.32-.24-1.44-1.04-.34-2.16-.65-4.32-1.02-6.48-.08-.45-.07-.83,.13-1.24,.24-.51,.19-1.08,.24-1.63,.54-6.46,1.08-12.92,1.62-19.38,.12-1.43,.24-2.86,.36-4.29,0-.06,.02-.12,.04-.21Z"/><path class="cls-3" d="M140.37,55.6c.56,.96,1.08,1.84,1.59,2.71,.06,.1,.04,.22,.03,.32-.21,4.32-.43,8.63-.64,12.95-.14,2.89-.29,5.79-.41,8.68-.07,1.66,1.17,2.94,2.83,3.01,.33,.01,.76-.11,.96,.1,.2,.21,0,.63-.03,.96-.29,2.81-.59,5.62-.89,8.43-.1,.95-.55,1.32-1.5,1.22-1.54-.15-3.08-.31-4.62-.47-.84-.09-1.24-.57-1.15-1.43,.35-3.36,.7-6.72,1.06-10.07,.14-1.36,.29-2.71,.42-4.07,.03-.27,.11-.45,.37-.61,1.05-.61,1.55-1.74,1.35-2.95-.26-1.57-.51-3.15-.78-4.72-.08-.49,.02-.95,.07-1.42,.42-4.13,.85-8.26,1.27-12.39,0-.05,.02-.09,.06-.25Z"/><path class="cls-3" d="M113.53,85.52c-.23-4-.47-7.99-.7-11.99,0-.15,0-.3-.02-.44-.03-.2,.04-.29,.25-.29,.32,0,.64-.02,.95-.08,.25-.04,.34,.05,.41,.28,.48,1.65,.98,3.3,1.47,4.94,.76,2.54,1.52,5.08,2.27,7.62,.38,1.3,1.21,2.08,2.57,2.24,.22,.03,.25,.13,.26,.31,.14,2.49,.29,4.98,.43,7.47,.04,.64,.08,1.28,.11,1.91,.04,.79-.37,1.26-1.16,1.31-1.62,.1-3.24,.2-4.85,.28-.74,.04-1.21-.39-1.26-1.14-.25-4.14-.49-8.29-.73-12.43,0,0,0,0,0,0Z"/><path class="cls-3" d="M143.7,61.28c.14,.24,.28,.48,.42,.72,.79,1.34,1.58,2.69,2.37,4.03,.68,1.16,1.69,1.75,3.03,1.74,.26,0,.52,.01,.77,0,.22-.01,.3,.06,.29,.29-.1,1.97-.2,3.95-.29,5.92-.11,2.19-.22,4.39-.33,6.58-.04,.81-.51,1.24-1.3,1.2-1.61-.08-3.21-.16-4.82-.24-.75-.04-1.2-.53-1.16-1.28,.28-5.68,.56-11.35,.84-17.03,.03-.64,.06-1.27,.09-1.91,.03-.01,.06-.02,.09-.03Z"/><path class="cls-3" d="M120.34,53.44c-.21-.79-.42-1.58-.63-2.37-.75-2.85-1.5-5.69-2.27-8.53-.09-.33-.04-.42,.31-.41,1.08,.01,2.16,0,3.24-.02,.27,0,.36,.05,.33,.35-.3,3.51-.58,7.02-.86,10.53-.01,.15-.03,.31-.05,.46-.02,0-.05,0-.07,0Z"/><path class="cls-3" d="M135.29,47.09c.16,.08,.2,.2,.26,.31,1.05,1.78,2.09,3.56,3.14,5.33,.12,.2,.17,.39,.14,.62-.31,2.94-.61,5.88-.91,8.83,0,.1-.04,.19-.11,.29-.83-5.11-1.67-10.22-2.51-15.38Z"/></g></g><g id="_6TsFBo-8"><g><path class="cls-3" d="M200.02,0c7.99,0,15.97,0,23.96,0,2.09,0,3.58,1.36,3.81,3.43,.6,5.19,1.21,10.37,1.82,15.55,.55,4.7,1.09,9.39,1.64,14.09,.58,4.93,1.15,9.86,1.73,14.78,.48,4.14,.96,8.27,1.45,12.41,.21,1.76,.41,3.51,.62,5.27,.06,.47,.04,.49-.42,.49-1.33,0-2.65-.01-3.98,0-.73,.01-1.23-.28-1.6-.91-2.6-4.44-5.21-8.88-7.81-13.31-1.78-3.03-3.55-6.06-5.34-9.09-.93-1.58-2.33-2.38-4.17-2.38-3.55,0-7.1,.01-10.65,.02-4.07,0-8.13,.02-12.2,0-.92,0-1.81,.07-2.65,.5-.84,.43-1.49,1.06-1.98,1.88-4.42,7.43-8.84,14.86-13.25,22.3-.41,.69-.94,1.01-1.74,.99-1.31-.03-2.63-.02-3.94,0-.33,0-.43-.1-.39-.43,.87-7.38,1.74-14.76,2.6-22.14,.7-6,1.4-12,2.1-18.01,.8-6.84,1.6-13.69,2.41-20.53,.06-.5,.12-1,.17-1.5C172.42,1.38,173.94,0,175.99,0c8.01,0,16.02,0,24.03,0Z"/><path class="cls-3" d="M185.26,44.62c.09,1.27,.18,2.5,.27,3.74,.34,4.61,.67,9.21,1.01,13.82,.19,2.6,.38,5.19,.56,7.79,.06,.86,.25,1.65,.89,2.27,.07,.07,.1,.15,.1,.26,0,4.41-.01,8.82-.02,13.23,0,.96-.41,1.38-1.36,1.38-1.52,0-3.05,0-4.57,0-.93,0-1.35-.43-1.35-1.36,0-11.14,0-22.28,0-33.42,0-.2,.02-.38,.13-.56,1.37-2.3,2.74-4.6,4.11-6.9,.05-.08,.08-.18,.23-.24Z"/><path class="cls-3" d="M191.09,42.12c.91,0,1.82,.01,2.73,0,.29,0,.37,.09,.39,.37,.28,3.96,.57,7.91,.85,11.87,.36,5.01,.72,10.02,1.08,15.03,0,.11,.02,.22,.02,.33,.03,.73-.4,1.21-1.14,1.27-1.62,.12-3.23,.24-4.85,.35-.73,.05-1.24-.4-1.29-1.15-.15-2.09-.3-4.19-.46-6.28-.36-4.89-.71-9.78-1.07-14.66-.15-2.12-.3-4.24-.47-6.36-.03-.32,.09-.46,.37-.56,.52-.19,1.05-.22,1.6-.22,.75,0,1.5,0,2.25,0,0,0,0,.01,0,.02Z"/><path class="cls-3" d="M201.03,59.19c-.19,2.28-.36,4.56-.57,6.83-.1,1.05,.08,1.98,.86,2.74,.56,.54,1.24,.78,2,.82,.6,.04,.61,.04,.77,.59,1.29,4.33,2.57,8.66,3.86,12.99,.25,.85-.05,1.4-.89,1.63-1.54,.42-3.08,.83-4.63,1.23-.73,.19-1.28-.12-1.5-.86-1.29-4.32-2.58-8.63-3.87-12.95-.05-.16-.07-.28,.07-.43,.6-.62,.82-1.38,.76-2.23-.39-5.48-.79-10.95-1.18-16.43-.25-3.53-.51-7.06-.76-10.58-.01-.15-.15-.4,.18-.41,.25,0,.48-.07,.58,.31,1.41,5.39,2.84,10.78,4.27,16.17,.05,.19,.07,.39,.05,.58Z"/><path class="cls-3" d="M207.83,42.09c1.09,0,2.19,.02,3.28,0,.36,0,.42,.11,.39,.44-.27,3.12-.52,6.24-.78,9.36-.28,3.39-.56,6.78-.85,10.17-.14,1.69-.28,3.38-.43,5.07-.07,.75-.58,1.17-1.32,1.11-1.59-.13-3.18-.26-4.77-.39-.81-.07-1.23-.55-1.16-1.38,.45-5.59,.91-11.19,1.36-16.78,.19-2.39,.39-4.77,.58-7.16,.03-.33,.13-.43,.46-.42,1.08,.02,2.16,0,3.24,0h0Z"/><path class="cls-3" d="M179.05,55.08v.35c0,3.43,0,6.85,0,10.28,0,.24-.04,.46-.13,.68-2.52,6.19-5.03,12.37-7.54,18.56-.33,.81-.91,1.06-1.71,.74-1.45-.58-2.89-1.17-4.33-1.76-.81-.33-1.06-.91-.73-1.71,1.92-4.72,3.84-9.44,5.75-14.16,.12-.3,.29-.5,.6-.63,.65-.28,1.12-.78,1.48-1.39,2.12-3.58,4.25-7.16,6.38-10.73,.05-.08,.1-.16,.15-.25,.03,0,.06,.01,.09,.02Z"/><path class="cls-3" d="M213.28,42.49c.36,.2,.65,.38,.72,.82,.72,4.46,1.45,8.92,2.17,13.38,.97,5.92,1.94,11.85,2.9,17.77,.16,1-.19,1.46-1.21,1.61-1.51,.22-3.01,.46-4.51,.69-.79,.12-1.32-.24-1.44-1.04-.34-2.16-.65-4.32-1.02-6.48-.08-.45-.07-.83,.13-1.24,.24-.51,.19-1.08,.24-1.63,.54-6.46,1.08-12.92,1.62-19.38,.12-1.43,.24-2.86,.36-4.29,0-.06,.02-.12,.04-.21Z"/><path class="cls-3" d="M221.45,55.6c.56,.96,1.08,1.84,1.59,2.71,.06,.1,.04,.22,.03,.32-.21,4.32-.43,8.63-.64,12.95-.14,2.89-.29,5.79-.41,8.68-.07,1.66,1.17,2.94,2.83,3.01,.33,.01,.76-.11,.96,.1,.2,.21,0,.63-.03,.96-.29,2.81-.59,5.62-.89,8.43-.1,.95-.55,1.32-1.5,1.22-1.54-.15-3.08-.31-4.62-.47-.84-.09-1.24-.57-1.15-1.43,.35-3.36,.7-6.72,1.06-10.07,.14-1.36,.29-2.71,.42-4.07,.03-.27,.11-.45,.37-.61,1.05-.61,1.55-1.74,1.35-2.95-.26-1.57-.51-3.15-.78-4.72-.08-.49,.02-.95,.07-1.42,.42-4.13,.85-8.26,1.27-12.39,0-.05,.02-.09,.06-.25Z"/><path class="cls-3" d="M194.61,85.52c-.23-4-.47-7.99-.7-11.99,0-.15,0-.3-.02-.44-.03-.2,.04-.29,.25-.29,.32,0,.64-.02,.95-.08,.25-.04,.34,.05,.41,.28,.48,1.65,.98,3.3,1.47,4.94,.76,2.54,1.52,5.08,2.27,7.62,.38,1.3,1.21,2.08,2.57,2.24,.22,.03,.25,.13,.26,.31,.14,2.49,.29,4.98,.43,7.47,.04,.64,.08,1.28,.11,1.91,.04,.79-.37,1.26-1.16,1.31-1.62,.1-3.24,.2-4.85,.28-.74,.04-1.21-.39-1.26-1.14-.25-4.14-.49-8.29-.73-12.43,0,0,0,0,0,0Z"/><path class="cls-3" d="M224.78,61.28c.14,.24,.28,.48,.42,.72,.79,1.34,1.58,2.69,2.37,4.03,.68,1.16,1.69,1.75,3.03,1.74,.26,0,.52,.01,.77,0,.22-.01,.3,.06,.29,.29-.1,1.97-.2,3.95-.29,5.92-.11,2.19-.22,4.39-.33,6.58-.04,.81-.51,1.24-1.3,1.2-1.61-.08-3.21-.16-4.82-.24-.75-.04-1.2-.53-1.16-1.28,.28-5.68,.56-11.35,.84-17.03,.03-.64,.06-1.27,.09-1.91,.03-.01,.06-.02,.09-.03Z"/><path class="cls-3" d="M201.41,53.44c-.21-.79-.42-1.58-.63-2.37-.75-2.85-1.5-5.69-2.27-8.53-.09-.33-.04-.42,.31-.41,1.08,.01,2.16,0,3.24-.02,.27,0,.36,.05,.33,.35-.3,3.51-.58,7.02-.86,10.53-.01,.15-.03,.31-.05,.46-.02,0-.05,0-.07,0Z"/><path class="cls-3" d="M216.37,47.09c.16,.08,.2,.2,.26,.31,1.05,1.78,2.09,3.56,3.14,5.33,.12,.2,.17,.39,.14,.62-.31,2.94-.61,5.88-.91,8.83,0,.1-.04,.19-.11,.29-.83-5.11-1.67-10.22-2.51-15.38Z"/></g></g><g id="_6TsFBo-9"><g><path class="cls-3" d="M281.1,0c7.99,0,15.97,0,23.96,0,2.09,0,3.58,1.36,3.81,3.43,.6,5.19,1.21,10.37,1.82,15.55,.55,4.7,1.09,9.39,1.64,14.09,.58,4.93,1.15,9.86,1.73,14.78,.48,4.14,.96,8.27,1.45,12.41,.21,1.76,.41,3.51,.62,5.27,.06,.47,.04,.49-.42,.49-1.33,0-2.65-.01-3.98,0-.73,.01-1.23-.28-1.6-.91-2.6-4.44-5.21-8.88-7.81-13.31-1.78-3.03-3.55-6.06-5.34-9.09-.93-1.58-2.33-2.38-4.17-2.38-3.55,0-7.1,.01-10.65,.02-4.07,0-8.13,.02-12.2,0-.92,0-1.81,.07-2.65,.5-.84,.43-1.49,1.06-1.98,1.88-4.42,7.43-8.84,14.86-13.25,22.3-.41,.69-.94,1.01-1.74,.99-1.31-.03-2.63-.02-3.94,0-.33,0-.43-.1-.39-.43,.87-7.38,1.74-14.76,2.6-22.14,.7-6,1.4-12,2.1-18.01,.8-6.84,1.6-13.69,2.41-20.53,.06-.5,.12-1,.17-1.5,.21-2.05,1.73-3.42,3.79-3.42,8.01,0,16.02,0,24.03,0Z"/><path class="cls-3" d="M266.34,44.62c.09,1.27,.18,2.5,.27,3.74,.34,4.61,.67,9.21,1.01,13.82,.19,2.6,.38,5.19,.56,7.79,.06,.86,.25,1.65,.89,2.27,.07,.07,.1,.15,.1,.26,0,4.41-.01,8.82-.02,13.23,0,.96-.41,1.38-1.36,1.38-1.52,0-3.05,0-4.57,0-.93,0-1.35-.43-1.35-1.36,0-11.14,0-22.28,0-33.42,0-.2,.02-.38,.13-.56,1.37-2.3,2.74-4.6,4.11-6.9,.05-.08,.08-.18,.23-.24Z"/><path class="cls-3" d="M272.17,42.12c.91,0,1.82,.01,2.73,0,.29,0,.37,.09,.39,.37,.28,3.96,.57,7.91,.85,11.87,.36,5.01,.72,10.02,1.08,15.03,0,.11,.02,.22,.02,.33,.03,.73-.4,1.21-1.14,1.27-1.62,.12-3.23,.24-4.85,.35-.73,.05-1.24-.4-1.29-1.15-.15-2.09-.3-4.19-.46-6.28-.36-4.89-.71-9.78-1.07-14.66-.15-2.12-.3-4.24-.47-6.36-.03-.32,.09-.46,.37-.56,.52-.19,1.05-.22,1.6-.22,.75,0,1.5,0,2.25,0,0,0,0,.01,0,.02Z"/><path class="cls-3" d="M282.11,59.19c-.19,2.28-.36,4.56-.57,6.83-.1,1.05,.08,1.98,.86,2.74,.56,.54,1.24,.78,2,.82,.6,.04,.61,.04,.77,.59,1.29,4.33,2.57,8.66,3.86,12.99,.25,.85-.05,1.4-.89,1.63-1.54,.42-3.08,.83-4.63,1.23-.73,.19-1.28-.12-1.5-.86-1.29-4.32-2.58-8.63-3.87-12.95-.05-.16-.07-.28,.07-.43,.6-.62,.82-1.38,.76-2.23-.39-5.48-.79-10.95-1.18-16.43-.25-3.53-.51-7.06-.76-10.58-.01-.15-.15-.4,.18-.41,.25,0,.48-.07,.58,.31,1.41,5.39,2.84,10.78,4.27,16.17,.05,.19,.07,.39,.05,.58Z"/><path class="cls-3" d="M288.91,42.09c1.09,0,2.19,.02,3.28,0,.36,0,.42,.11,.39,.44-.27,3.12-.52,6.24-.78,9.36-.28,3.39-.56,6.78-.85,10.17-.14,1.69-.28,3.38-.43,5.07-.07,.75-.58,1.17-1.32,1.11-1.59-.13-3.18-.26-4.77-.39-.81-.07-1.23-.55-1.16-1.38,.45-5.59,.91-11.19,1.36-16.78,.19-2.39,.39-4.77,.58-7.16,.03-.33,.13-.43,.46-.42,1.08,.02,2.16,0,3.24,0h0Z"/><path class="cls-3" d="M260.13,55.08v.35c0,3.43,0,6.85,0,10.28,0,.24-.04,.46-.13,.68-2.52,6.19-5.03,12.37-7.54,18.56-.33,.81-.91,1.06-1.71,.74-1.45-.58-2.89-1.17-4.33-1.76-.81-.33-1.06-.91-.73-1.71,1.92-4.72,3.84-9.44,5.75-14.16,.12-.3,.29-.5,.6-.63,.65-.28,1.12-.78,1.48-1.39,2.12-3.58,4.25-7.16,6.38-10.73,.05-.08,.1-.16,.15-.25,.03,0,.06,.01,.09,.02Z"/><path class="cls-3" d="M294.36,42.49c.36,.2,.65,.38,.72,.82,.72,4.46,1.45,8.92,2.17,13.38,.97,5.92,1.94,11.85,2.9,17.77,.16,1-.19,1.46-1.21,1.61-1.51,.22-3.01,.46-4.51,.69-.79,.12-1.32-.24-1.44-1.04-.34-2.16-.65-4.32-1.02-6.48-.08-.45-.07-.83,.13-1.24,.24-.51,.19-1.08,.24-1.63,.54-6.46,1.08-12.92,1.62-19.38,.12-1.43,.24-2.86,.36-4.29,0-.06,.02-.12,.04-.21Z"/><path class="cls-3" d="M302.53,55.6c.56,.96,1.08,1.84,1.59,2.71,.06,.1,.04,.22,.03,.32-.21,4.32-.43,8.63-.64,12.95-.14,2.89-.29,5.79-.41,8.68-.07,1.66,1.17,2.94,2.83,3.01,.33,.01,.76-.11,.96,.1,.2,.21,0,.63-.03,.96-.29,2.81-.59,5.62-.89,8.43-.1,.95-.55,1.32-1.5,1.22-1.54-.15-3.08-.31-4.62-.47-.84-.09-1.24-.57-1.15-1.43,.35-3.36,.7-6.72,1.06-10.07,.14-1.36,.29-2.71,.42-4.07,.03-.27,.11-.45,.37-.61,1.05-.61,1.55-1.74,1.35-2.95-.26-1.57-.51-3.15-.78-4.72-.08-.49,.02-.95,.07-1.42,.42-4.13,.85-8.26,1.27-12.39,0-.05,.02-.09,.06-.25Z"/><path class="cls-3" d="M275.68,85.52c-.23-4-.47-7.99-.7-11.99,0-.15,0-.3-.02-.44-.03-.2,.04-.29,.25-.29,.32,0,.64-.02,.95-.08,.25-.04,.34,.05,.41,.28,.48,1.65,.98,3.3,1.47,4.94,.76,2.54,1.52,5.08,2.27,7.62,.38,1.3,1.21,2.08,2.57,2.24,.22,.03,.25,.13,.26,.31,.14,2.49,.29,4.98,.43,7.47,.04,.64,.08,1.28,.11,1.91,.04,.79-.37,1.26-1.16,1.31-1.62,.1-3.24,.2-4.85,.28-.74,.04-1.21-.39-1.26-1.14-.25-4.14-.49-8.29-.73-12.43,0,0,0,0,0,0Z"/><path class="cls-3" d="M305.86,61.28c.14,.24,.28,.48,.42,.72,.79,1.34,1.58,2.69,2.37,4.03,.68,1.16,1.69,1.75,3.03,1.74,.26,0,.52,.01,.77,0,.22-.01,.3,.06,.29,.29-.1,1.97-.2,3.95-.29,5.92-.11,2.19-.22,4.39-.33,6.58-.04,.81-.51,1.24-1.3,1.2-1.61-.08-3.21-.16-4.82-.24-.75-.04-1.2-.53-1.16-1.28,.28-5.68,.56-11.35,.84-17.03,.03-.64,.06-1.27,.09-1.91,.03-.01,.06-.02,.09-.03Z"/><path class="cls-3" d="M282.49,53.44c-.21-.79-.42-1.58-.63-2.37-.75-2.85-1.5-5.69-2.27-8.53-.09-.33-.04-.42,.31-.41,1.08,.01,2.16,0,3.24-.02,.27,0,.36,.05,.33,.35-.3,3.51-.58,7.02-.86,10.53-.01,.15-.03,.31-.05,.46-.02,0-.05,0-.07,0Z"/><path class="cls-3" d="M297.45,47.09c.16,.08,.2,.2,.26,.31,1.05,1.78,2.09,3.56,3.14,5.33,.12,.2,.17,.39,.14,.62-.31,2.94-.61,5.88-.91,8.83,0,.1-.04,.19-.11,.29-.83-5.11-1.67-10.22-2.51-15.38Z"/></g></g><g id="_6TsFBo-10"><g><path class="cls-3" d="M362.18,0c7.99,0,15.97,0,23.96,0,2.09,0,3.58,1.36,3.81,3.43,.6,5.19,1.21,10.37,1.82,15.55,.55,4.7,1.09,9.39,1.64,14.09,.58,4.93,1.15,9.86,1.73,14.78,.48,4.14,.96,8.27,1.45,12.41,.21,1.76,.41,3.51,.62,5.27,.06,.47,.04,.49-.42,.49-1.33,0-2.65-.01-3.98,0-.73,.01-1.23-.28-1.6-.91-2.6-4.44-5.21-8.88-7.81-13.31-1.78-3.03-3.55-6.06-5.34-9.09-.93-1.58-2.33-2.38-4.17-2.38-3.55,0-7.1,.01-10.65,.02-4.07,0-8.13,.02-12.2,0-.92,0-1.81,.07-2.65,.5-.84,.43-1.49,1.06-1.98,1.88-4.42,7.43-8.84,14.86-13.25,22.3-.41,.69-.94,1.01-1.74,.99-1.31-.03-2.63-.02-3.94,0-.33,0-.43-.1-.39-.43,.87-7.38,1.74-14.76,2.6-22.14,.7-6,1.4-12,2.1-18.01,.8-6.84,1.6-13.69,2.41-20.53,.06-.5,.12-1,.17-1.5,.21-2.05,1.73-3.42,3.79-3.42,8.01,0,16.02,0,24.03,0Z"/><path class="cls-3" d="M347.42,44.62c.09,1.27,.18,2.5,.27,3.74,.34,4.61,.67,9.21,1.01,13.82,.19,2.6,.38,5.19,.56,7.79,.06,.86,.25,1.65,.89,2.27,.07,.07,.1,.15,.1,.26,0,4.41-.01,8.82-.02,13.23,0,.96-.41,1.38-1.36,1.38-1.52,0-3.05,0-4.57,0-.93,0-1.35-.43-1.35-1.36,0-11.14,0-22.28,0-33.42,0-.2,.02-.38,.13-.56,1.37-2.3,2.74-4.6,4.11-6.9,.05-.08,.08-.18,.23-.24Z"/><path class="cls-3" d="M353.24,42.12c.91,0,1.82,.01,2.73,0,.29,0,.37,.09,.39,.37,.28,3.96,.57,7.91,.85,11.87,.36,5.01,.72,10.02,1.08,15.03,0,.11,.02,.22,.02,.33,.03,.73-.4,1.21-1.14,1.27-1.62,.12-3.23,.24-4.85,.35-.73,.05-1.24-.4-1.29-1.15-.15-2.09-.3-4.19-.46-6.28-.36-4.89-.71-9.78-1.07-14.66-.15-2.12-.3-4.24-.47-6.36-.03-.32,.09-.46,.37-.56,.52-.19,1.05-.22,1.6-.22,.75,0,1.5,0,2.25,0,0,0,0,.01,0,.02Z"/><path class="cls-3" d="M363.19,59.19c-.19,2.28-.36,4.56-.57,6.83-.1,1.05,.08,1.98,.86,2.74,.56,.54,1.24,.78,2,.82,.6,.04,.61,.04,.77,.59,1.29,4.33,2.57,8.66,3.86,12.99,.25,.85-.05,1.4-.89,1.63-1.54,.42-3.08,.83-4.63,1.23-.73,.19-1.28-.12-1.5-.86-1.29-4.32-2.58-8.63-3.87-12.95-.05-.16-.07-.28,.07-.43,.6-.62,.82-1.38,.76-2.23-.39-5.48-.79-10.95-1.18-16.43-.25-3.53-.51-7.06-.76-10.58-.01-.15-.15-.4,.18-.41,.25,0,.48-.07,.58,.31,1.41,5.39,2.84,10.78,4.27,16.17,.05,.19,.07,.39,.05,.58Z"/><path class="cls-3" d="M369.99,42.09c1.09,0,2.19,.02,3.28,0,.36,0,.42,.11,.39,.44-.27,3.12-.52,6.24-.78,9.36-.28,3.39-.56,6.78-.85,10.17-.14,1.69-.28,3.38-.43,5.07-.07,.75-.58,1.17-1.32,1.11-1.59-.13-3.18-.26-4.77-.39-.81-.07-1.23-.55-1.16-1.38,.45-5.59,.91-11.19,1.36-16.78,.19-2.39,.39-4.77,.58-7.16,.03-.33,.13-.43,.46-.42,1.08,.02,2.16,0,3.24,0h0Z"/><path class="cls-3" d="M341.21,55.08v.35c0,3.43,0,6.85,0,10.28,0,.24-.04,.46-.13,.68-2.52,6.19-5.03,12.37-7.54,18.56-.33,.81-.91,1.06-1.71,.74-1.45-.58-2.89-1.17-4.33-1.76-.81-.33-1.06-.91-.73-1.71,1.92-4.72,3.84-9.44,5.75-14.16,.12-.3,.29-.5,.6-.63,.65-.28,1.12-.78,1.48-1.39,2.12-3.58,4.25-7.16,6.38-10.73,.05-.08,.1-.16,.15-.25,.03,0,.06,.01,.09,.02Z"/><path class="cls-3" d="M375.43,42.49c.36,.2,.65,.38,.72,.82,.72,4.46,1.45,8.92,2.17,13.38,.97,5.92,1.94,11.85,2.9,17.77,.16,1-.19,1.46-1.21,1.61-1.51,.22-3.01,.46-4.51,.69-.79,.12-1.32-.24-1.44-1.04-.34-2.16-.65-4.32-1.02-6.48-.08-.45-.07-.83,.13-1.24,.24-.51,.19-1.08,.24-1.63,.54-6.46,1.08-12.92,1.62-19.38,.12-1.43,.24-2.86,.36-4.29,0-.06,.02-.12,.04-.21Z"/><path class="cls-3" d="M383.61,55.6c.56,.96,1.08,1.84,1.59,2.71,.06,.1,.04,.22,.03,.32-.21,4.32-.43,8.63-.64,12.95-.14,2.89-.29,5.79-.41,8.68-.07,1.66,1.17,2.94,2.83,3.01,.33,.01,.76-.11,.96,.1,.2,.21,0,.63-.03,.96-.29,2.81-.59,5.62-.89,8.43-.1,.95-.55,1.32-1.5,1.22-1.54-.15-3.08-.31-4.62-.47-.84-.09-1.24-.57-1.15-1.43,.35-3.36,.7-6.72,1.06-10.07,.14-1.36,.29-2.71,.42-4.07,.03-.27,.11-.45,.37-.61,1.05-.61,1.55-1.74,1.35-2.95-.26-1.57-.51-3.15-.78-4.72-.08-.49,.02-.95,.07-1.42,.42-4.13,.85-8.26,1.27-12.39,0-.05,.02-.09,.06-.25Z"/><path class="cls-3" d="M356.76,85.52c-.23-4-.47-7.99-.7-11.99,0-.15,0-.3-.02-.44-.03-.2,.04-.29,.25-.29,.32,0,.64-.02,.95-.08,.25-.04,.34,.05,.41,.28,.48,1.65,.98,3.3,1.47,4.94,.76,2.54,1.52,5.08,2.27,7.62,.38,1.3,1.21,2.08,2.57,2.24,.22,.03,.25,.13,.26,.31,.14,2.49,.29,4.98,.43,7.47,.04,.64,.08,1.28,.11,1.91,.04,.79-.37,1.26-1.16,1.31-1.62,.1-3.24,.2-4.85,.28-.74,.04-1.21-.39-1.26-1.14-.25-4.14-.49-8.29-.73-12.43,0,0,0,0,0,0Z"/><path class="cls-3" d="M386.94,61.28c.14,.24,.28,.48,.42,.72,.79,1.34,1.58,2.69,2.37,4.03,.68,1.16,1.69,1.75,3.03,1.74,.26,0,.52,.01,.77,0,.22-.01,.3,.06,.29,.29-.1,1.97-.2,3.95-.29,5.92-.11,2.19-.22,4.39-.33,6.58-.04,.81-.51,1.24-1.3,1.2-1.61-.08-3.21-.16-4.82-.24-.75-.04-1.2-.53-1.16-1.28,.28-5.68,.56-11.35,.84-17.03,.03-.64,.06-1.27,.09-1.91,.03-.01,.06-.02,.09-.03Z"/><path class="cls-3" d="M363.57,53.44c-.21-.79-.42-1.58-.63-2.37-.75-2.85-1.5-5.69-2.27-8.53-.09-.33-.04-.42,.31-.41,1.08,.01,2.16,0,3.24-.02,.27,0,.36,.05,.33,.35-.3,3.51-.58,7.02-.86,10.53-.01,.15-.03,.31-.05,.46-.02,0-.05,0-.07,0Z"/><path class="cls-3" d="M378.53,47.09c.16,.08,.2,.2,.26,.31,1.05,1.78,2.09,3.56,3.14,5.33,.12,.2,.17,.39,.14,.62-.31,2.94-.61,5.88-.91,8.83,0,.1-.04,.19-.11,.29-.83-5.11-1.67-10.22-2.51-15.38Z"/></g></g></g><g><path class="cls-2" d="M88.63,97.51l-18.53,35.91v38.85h-19.76v-38.85l-21.57-35.34,19.76-1.81,10.17,16.15,9.59-16.15,20.33,1.23Z"/><path class="cls-2" d="M137.93,172.27h-41.42V97.51h39.52v19.19l-19.76,1.24,.67,9.88h18.52v15.39h-17.29v8.65h19.76v20.42Z"/><path class="cls-2" d="M184.1,172.27h-38.67V98.08l18.43-1.81v55.19h20.24v20.81Z"/><path class="cls-2" d="M228.56,172.27h-38.67V98.08l18.43-1.81v55.19h20.24v20.81Z"/><path class="cls-2" d="M257.44,96.27c4.31,0,8.2,1.14,11.68,3.42,3.48,2.28,6.44,5.42,8.88,9.41,2.44,3.99,4.31,8.71,5.61,14.15,1.3,5.45,1.95,11.34,1.95,17.67,0,4.88-.59,9.25-1.76,13.11-1.17,3.86-2.88,7.14-5.13,9.83-2.25,2.69-5.04,4.77-8.36,6.22-3.32,1.46-7.11,2.19-11.35,2.19-9.31,0-16.36-3.33-21.14-9.98-4.78-6.65-7.17-16.59-7.17-29.83,0-5.32,.58-10.21,1.76-14.68,1.17-4.46,2.9-8.28,5.18-11.45,2.28-3.17,5.08-5.64,8.41-7.41,3.33-1.77,7.14-2.66,11.45-2.66Zm1.24,55.29c1.14,0,2.2-.41,3.18-1.23,.98-.82,1.82-1.9,2.52-3.23,.7-1.33,1.24-2.87,1.62-4.61,.38-1.74,.57-3.56,.57-5.46,0-12.16-3.23-18.24-9.69-18.24-4.5,0-6.75,4.65-6.75,13.96,0,2.79,.19,5.34,.57,7.65,.38,2.31,.95,4.29,1.71,5.94,.76,1.65,1.66,2.93,2.71,3.85,1.04,.92,2.23,1.38,3.56,1.38Z"/><path class="cls-2" d="M370.77,96.27l-14.92,75.43h-19.76l-5.98-30.59-6.56,31.16-19.19-1.23-12.54-72.39,18.52-1.14,4.85,32.3,7.69-33.54,15.58,1.23,6.65,33.44,6.55-34.67h19.09Z"/></g><rect class="cls-1" x="2.24" y=".47" width="393.54" height="268"/><g><path class="cls-4" d="M84.1,93.19l-18.53,35.91v38.85h-19.76v-38.85l-21.57-35.34,19.76-1.81,10.17,16.15,9.59-16.15,20.33,1.23Z"/><path class="cls-4" d="M133.41,167.95h-41.42V93.19h39.52v19.19l-19.76,1.24,.67,9.88h18.52v15.39h-17.29v8.65h19.76v20.42Z"/><path class="cls-4" d="M179.58,167.95h-38.67V93.76l18.43-1.81v55.19h20.24v20.81Z"/><path class="cls-4" d="M224.04,167.95h-38.67V93.76l18.43-1.81v55.19h20.24v20.81Z"/><path class="cls-4" d="M252.91,91.95c4.31,0,8.2,1.14,11.68,3.42,3.48,2.28,6.44,5.42,8.88,9.41,2.44,3.99,4.31,8.71,5.61,14.15,1.3,5.45,1.95,11.34,1.95,17.67,0,4.88-.59,9.25-1.76,13.11-1.17,3.86-2.88,7.14-5.13,9.83-2.25,2.69-5.04,4.77-8.36,6.22-3.32,1.46-7.11,2.19-11.35,2.19-9.31,0-16.36-3.33-21.14-9.98-4.78-6.65-7.17-16.59-7.17-29.83,0-5.32,.58-10.21,1.76-14.68,1.17-4.46,2.9-8.28,5.18-11.45,2.28-3.17,5.08-5.64,8.41-7.41,3.33-1.77,7.14-2.66,11.45-2.66Zm1.24,55.29c1.14,0,2.2-.41,3.18-1.23,.98-.82,1.82-1.9,2.52-3.23,.7-1.33,1.24-2.87,1.62-4.61,.38-1.74,.57-3.56,.57-5.46,0-12.16-3.23-18.24-9.69-18.24-4.5,0-6.75,4.65-6.75,13.96,0,2.79,.19,5.34,.57,7.65,.38,2.31,.95,4.29,1.71,5.94,.76,1.65,1.66,2.93,2.71,3.85,1.04,.92,2.23,1.38,3.56,1.38Z"/><path class="cls-4" d="M366.25,91.95l-14.92,75.43h-19.76l-5.98-30.59-6.56,31.16-19.19-1.23-12.54-72.39,18.52-1.14,4.85,32.3,7.69-33.54,15.58,1.23,6.65,33.44,6.55-34.67h19.09Z"/></g></g></g></g></g></svg>