<?xml version="1.0" encoding="utf-8"?>
<!-- Generator: Adobe Illustrator 25.4.1, SVG Export Plug-In . SVG Version: 6.00 Build 0)  -->
<svg version="1.1" xmlns="http://www.w3.org/2000/svg" xmlns:xlink="http://www.w3.org/1999/xlink" x="0px" y="0px"
	 viewBox="0 0 392 268" style="enable-background:new 0 0 392 268;" xml:space="preserve">
<style type="text/css">
	.st0{fill:#24BFF6;}
	.st1{fill:#FB8484;stroke:#5F0591;stroke-width:2;stroke-miterlimit:10;}
	.st2{fill:#FB8484;}
	.st3{clip-path:url(#SVGID_00000009578524986985844720000010112320453006781374_);}
	.st4{fill:#FDA3A2;}
	.st5{fill:#F76E6E;}
	.st6{fill:#5F0591;}
	.st7{clip-path:url(#SVGID_00000125592307459087836290000016238922844486350764_);}
	.st8{fill:#FD4F33;}
	.st9{fill:#FDA847;}
	.st10{fill:#FFFFFF;}
	.st11{fill:#4AF264;}
	.st12{fill:#421872;}
	.st13{fill:#22BFF6;stroke:#421872;stroke-width:2;stroke-linejoin:round;stroke-miterlimit:10;}
	.st14{fill:#FFF4DF;}
	.st15{fill:#F9E700;stroke:#421872;stroke-width:2;stroke-linejoin:round;stroke-miterlimit:10;}
	.st16{fill:#F02536;}
	.st17{fill:#12804E;}
	.st18{font-family:'FatFrank-Heavy';}
	.st19{font-size:10px;}
	.st20{clip-path:url(#SVGID_00000088854248139816265250000015091597439512792997_);}
</style>
<g id="Capa_1">
	<rect class="st0" width="392" height="268"/>
	<g>
		<path class="st1" d="M241.24,188.11c0,0,11.28-42.91,11.84-62.36c0,0,0,0,0,0c0.24-0.88,0.5-1.75,0.81-2.61
			c-0.07-2.09,0.44-4.19,1.52-6.11c-1.96,0.22-3.79,0.9-5.16,1.9c-2.16-2.41-3.99-4.96-5.46-7.61c-1.99,0.88-3.99,1.77-5.98,2.65
			c-1.7,0.76-3.66,1.54-5.65,1.17c-2.67-0.49-3.99-2.8-6.53-3.59c-4.39-1.36-8.49,2.48-13.22,2.52c-2.67,0.02-5.06-1.17-7.46-2.05
			c-2.41-0.88-5.51-1.44-7.57-0.27c-0.56,0.32-0.99,0.74-1.59,1.01c-3.56,1.62-8.54-3.03-12.1-1.41c-1.38,0.63-2.07,2.09-3.36,2.6
			c-0.64,0.01-1.29,0.02-1.93,0.03c-0.31-0.09-0.61-0.21-0.9-0.34l-6.61-2.77c-0.59-0.25-1.21-0.5-1.88-0.48
			c-0.48,0.01-0.92,0.16-1.34,0.32c-3,1.09-5.83,2.42-8.42,3.95c-0.68,0.04-1.51,0.1-2.19,0.14c-2.22-0.99-4.43-1.98-6.65-2.96
			c-0.45-0.2-0.97-0.41-1.48-0.33c-0.5,0.08-0.82,0.41-1.09,0.72c-1.07,1.22-2.14,2.43-3.21,3.65c-0.65,0.08-1.3,0.17-1.95,0.27
			c-1.39-1.02-2.97-1.92-4.69-2.64c0.15,1.48-0.24,2.72-0.8,3.93c-1.44,0.29-2.84,0.37-4.1-0.15c0.1,1.21,1.25,2.22,2.74,2.87
			c-0.08,0.18-0.17,0.37-0.24,0.55c0.07,0.06,0.13,0.12,0.19,0.18c0,0,0,0,0,0c-0.24,0.78-0.36,1.61-0.47,2.42
			c-1.11,7.92-4.7,17.82-5.8,25.74c-1.16,8.33-2.33,16.74-1.36,25.31c1.04,9.21,9.31,15.94,15.81,23.63
			c4.39,5.19,20.16,10.14,37.01,11.63c15.49,1.37,30.97-2.61,43.9-11.25L241.24,188.11z M253.12,123.51c0-0.34,0-0.68,0-1.01
			C253.12,122.83,253.12,123.17,253.12,123.51z M253.12,121.82c-0.01-0.58-0.01-1.16-0.03-1.75
			C253.11,120.66,253.11,121.24,253.12,121.82z M137.38,119.56c-0.08,0.13-0.15,0.26-0.22,0.39
			C137.23,119.81,137.31,119.68,137.38,119.56z M137.11,120.07c-0.04,0.09-0.09,0.19-0.13,0.29
			C137.02,120.26,137.06,120.16,137.11,120.07z M136.93,120.49c-0.04,0.11-0.08,0.23-0.12,0.35
			C136.84,120.72,136.88,120.6,136.93,120.49z"/>
	</g>
	<g>
		<g>
			<g>
				<path class="st2" d="M131.94,51.61c-2.24-3.92-4.56-7.83-6.14-12.07c-1.21-3.24-1.9-7.07-0.08-10.01
					c1.06-1.71,2.82-2.84,4.54-3.86c4.15-2.47,8.37-3.93,12.8-5.85c2.31-1,4.79-1.95,7.29-1.6c4.22,0.58,7.55,5.26,9.6,9
					c4.93,8.99,8.46,18.67,11.97,28.31c1.53,4.2,3.06,8.41,4.59,12.61c3.27,8.97,6.57,18.09,7.16,27.61
					c0.06,0.9,0.08,1.84-0.28,2.66c-0.3,0.7-0.86,1.26-1.41,1.78c-4.78,4.47-11.73,8.12-18.38,8.49c-6.9,0.38-7.8-7.37-9.98-12.55
					C147.4,81.37,139.88,65.52,131.94,51.61z"/>
			</g>
			<g>
				<defs>
					<path id="SVGID_1_" d="M131.97,51.83c-2.24-3.92-4.56-7.83-6.14-12.07c-1.21-3.24-1.9-7.07-0.08-10.01
						c1.06-1.71,2.82-2.84,4.54-3.86c4.15-2.47,8.37-3.93,12.8-5.85c2.31-1,4.79-1.95,7.29-1.6c4.22,0.58,7.55,5.26,9.6,9
						c4.93,8.99,8.46,18.67,11.97,28.31c1.53,4.2,3.06,8.41,4.59,12.61c3.27,8.97,6.57,18.09,7.16,27.61
						c0.06,0.9,0.08,1.84-0.28,2.66c-0.3,0.7-0.86,1.26-1.41,1.78c-4.78,4.47-11.73,8.12-18.38,8.49c-6.9,0.38-7.8-7.37-9.98-12.55
						C147.44,81.58,139.92,65.74,131.97,51.83z"/>
				</defs>
				<clipPath id="SVGID_00000058571647208082647060000006534803584639216263_">
					<use xlink:href="#SVGID_1_"  style="overflow:visible;"/>
				</clipPath>
				<g style="clip-path:url(#SVGID_00000058571647208082647060000006534803584639216263_);">
					<path class="st4" d="M131.28,35.64c0.01,2.2,0.85,4.07,1.4,6.2c0.4,1.52,1.29,2.66,2.35,3.81c1.07,1.16,3.56-0.67,4.84-1.59
						c-1.47,0.67-2.83,4.77-2.84,6.38c-0.01,1.62,0.59,3.17,1.18,4.67c1.1,2.8,2.2,5.61,3.3,8.41c0.88,2.25,1.79,4.54,3.36,6.38
						s3.95,3.17,6.34,2.85c-1.88,0.97-2.91,2.05-3.35,4.12c-0.6,2.83,2.14,5.1,3.66,7.57c0.97,1.58,5.64,12.53,7.85,16.6
						c1.13,2.09,0.91,5.65,2.68,7.23c5.07,4.51,12.73,3.92,19.47,3.07c-4.63,4.03-10.12,7.06-15.99,8.84
						c-1.93,0.58-4.17,0.98-5.83-0.15c-0.9-0.62-1.48-1.6-1.99-2.57c-1.31-2.49-2.38-5.1-3.21-7.79c-1.38-4.52-2.07-9.31-4.28-13.49
						c-1.29-2.45-3.07-4.61-4.44-7.01c-1.6-2.78-2.64-5.83-3.79-8.81c-1.68-4.34-3.6-8.59-5.53-12.83
						c-1.16-2.56-2.32-5.12-3.74-7.54c-1.26-2.15-2.73-4.2-3.53-6.56c-0.89-2.63-0.88-5.49-1.77-8.12c-0.65-1.92-1.77-3.67-2.4-5.6
						c-1.34-4.11-0.27-8.81,2.32-12.28c2.43-3.24,7.05-6.58,11.18-6.81C134.95,24.65,131.27,29.92,131.28,35.64z"/>
				</g>
				<g style="clip-path:url(#SVGID_00000058571647208082647060000006534803584639216263_);">
					<path class="st5" d="M170.62,51.95c-1.62-0.47,2.42,14.82,0.92,14.96c-1.3,0.12-4.67,1.93-5.61,1.69
						c5.19,1.29,9.5,7.07,10.95,12.45c0.95,3.55,1.53,4.99,2.38,8.52c-0.95,0.1-1.92,0.07-2.89,0.06c2.44,1.18,4.68,3.55,4.36,6.24
						c-0.26,2.17-1.84,3.2-3.08,4.73c-1.38,1.69-2.46,5.1-4.23,6.32c4.71-3.25,10.7-4.59,16.35-3.66
						c-0.77-7.81-3.36-15.3-5.94-22.71c-1.27-3.66-2.54-10.99-6.02-12.89C177.46,67.49,171.03,52.07,170.62,51.95z"/>
				</g>
			</g>
			<g>
				<path class="st6" d="M182.42,100.84c-5.34,4.99-12.52,8.3-18.75,8.64c-5.97,0.33-7.77-4.98-9.36-9.66
					c-0.39-1.16-0.76-2.25-1.19-3.25c-4.8-11.39-12.46-28.35-21.66-44.45l-0.57-1c-2.04-3.56-4.15-7.24-5.61-11.16
					c-1.63-4.39-1.64-7.93-0.02-10.52c1.13-1.81,2.96-3,4.74-4.06c3.08-1.83,6.13-3.09,9.37-4.42c1.14-0.47,2.32-0.96,3.5-1.47
					c2.38-1.03,4.93-2.01,7.6-1.65c3.54,0.49,6.91,3.62,10.03,9.3c4.97,9.05,8.55,18.88,12.01,28.39l4.59,12.61
					c3.24,8.89,6.59,18.09,7.19,27.78c0.06,0.97,0.08,1.99-0.32,2.93c-0.28,0.64-0.72,1.16-1.17,1.61
					C182.67,100.6,182.54,100.72,182.42,100.84z M126.25,30.06c-1.42,2.27-1.37,5.47,0.13,9.5c1.43,3.83,3.51,7.47,5.53,10.99
					l0.57,1c9.23,16.14,16.9,33.15,21.72,44.57c0.44,1.04,0.83,2.21,1.22,3.33c1.53,4.5,3.1,9.15,8.2,8.87
					c5.97-0.33,12.87-3.52,18.02-8.33c0.5-0.47,1.01-0.98,1.28-1.59c0.31-0.71,0.28-1.54,0.23-2.4c-0.59-9.52-3.91-18.63-7.13-27.45
					l-4.59-12.61c-3.45-9.47-7.01-19.26-11.94-28.23c-2.01-3.67-5.24-8.16-9.17-8.7c-2.37-0.33-4.74,0.59-6.97,1.56
					c-1.19,0.52-2.38,1-3.53,1.48c-3.19,1.31-6.21,2.55-9.21,4.34c-1.18,0.7-2.38,1.46-3.34,2.41
					C126.87,29.19,126.53,29.6,126.25,30.06z"/>
			</g>
			<g>
				<g>
					<path class="st6" d="M142.66,46.08c-1.06,0.46-2.12,0.92-3.19,1.38c-0.28,0.12-0.64,0.08-0.79-0.22
						c-0.13-0.26-0.08-0.66,0.22-0.79c1.06-0.46,2.12-0.92,3.19-1.38c0.28-0.12,0.64-0.08,0.79,0.22
						C143.01,45.55,142.96,45.95,142.66,46.08L142.66,46.08z"/>
				</g>
			</g>
			<g>
				<g>
					<path class="st6" d="M162.61,66.76c-2.74,0.12-5.47,0.46-8.15,1.02c-0.31,0.06-0.63-0.06-0.73-0.38
						c-0.09-0.28,0.07-0.67,0.38-0.73c2.78-0.58,5.61-0.94,8.45-1.07C163.31,65.57,163.36,66.73,162.61,66.76L162.61,66.76z"/>
				</g>
			</g>
			<g>
				<g>
					<path class="st6" d="M163.34,69.64c-4.06,0.51-8.06,1.39-11.95,2.64c-0.71,0.23-1.06-0.88-0.35-1.11
						c3.99-1.27,8.09-2.17,12.25-2.69c0.31-0.04,0.59,0.26,0.61,0.56C163.91,69.36,163.65,69.6,163.34,69.64L163.34,69.64z"/>
				</g>
			</g>
			<g>
				<g>
					<path class="st6" d="M158.28,41.13c-4.06,0.51-8.06,1.39-11.95,2.64c-0.71,0.23-1.06-0.88-0.35-1.11
						c3.99-1.27,8.09-2.17,12.25-2.69c0.31-0.04,0.59,0.26,0.61,0.56C158.85,40.86,158.59,41.09,158.28,41.13L158.28,41.13z"/>
				</g>
			</g>
		</g>
		<g>
			<g>
				<path class="st2" d="M174.8,38.7c-0.7-4.46-1.48-8.94-1.45-13.45c0.02-3.46,0.73-7.28,3.48-9.38c1.6-1.22,3.64-1.65,5.62-2
					c4.76-0.84,9.21-0.7,14.04-0.92c2.51-0.12,5.17-0.12,7.37,1.09c3.74,2.04,5.18,7.59,5.77,11.81
					c1.42,10.15,1.28,20.44,1.14,30.69c-0.06,4.47-0.12,8.94-0.18,13.41c-0.13,9.53-0.28,19.23-3.11,28.33
					c-0.27,0.86-0.58,1.74-1.2,2.39c-0.53,0.55-1.25,0.87-1.95,1.16c-6.05,2.48-13.84,3.42-20.18,1.41
					c-6.58-2.09-4.67-9.65-4.87-15.27C178.7,71.98,177.29,54.51,174.8,38.7z"/>
			</g>
			<g>
				<defs>
					<path id="SVGID_00000155137264570940158870000004227751037243509381_" d="M174.75,38.92c-0.7-4.46-1.48-8.94-1.45-13.45
						c0.02-3.46,0.73-7.28,3.48-9.38c1.6-1.22,3.64-1.65,5.62-2c4.76-0.84,9.21-0.7,14.04-0.92c2.51-0.12,5.17-0.12,7.37,1.09
						c3.74,2.04,5.18,7.59,5.77,11.81c1.42,10.15,1.28,20.44,1.14,30.69c-0.06,4.47-0.12,8.94-0.18,13.41
						c-0.13,9.53-0.28,19.23-3.11,28.33c-0.27,0.86-0.58,1.74-1.2,2.39c-0.53,0.55-1.25,0.87-1.95,1.16
						c-6.05,2.48-13.84,3.42-20.18,1.41c-6.58-2.09-4.67-9.65-4.87-15.27C178.65,72.19,177.24,54.73,174.75,38.92z"/>
				</defs>
				<clipPath id="SVGID_00000123406828761910936760000009642577640301222561_">
					<use xlink:href="#SVGID_00000155137264570940158870000004227751037243509381_"  style="overflow:visible;"/>
				</clipPath>
				<g style="clip-path:url(#SVGID_00000123406828761910936760000009642577640301222561_);">
					<path class="st4" d="M179.85,23.55c-0.78,2.06-0.65,4.1-0.89,6.29c-0.17,1.56,0.26,2.94,0.85,4.4
						c0.59,1.46,3.56,0.63,5.08,0.23c-1.61,0.1-4.33,3.45-4.92,4.96c-0.58,1.51-0.57,3.17-0.55,4.78c0.03,3.01,0.07,6.02,0.1,9.03
						c0.03,2.41,0.06,4.88,0.88,7.15s2.56,4.36,4.91,4.91c-2.1,0.24-3.45,0.89-4.59,2.66c-1.56,2.43,0.19,5.53,0.73,8.37
						c0.34,1.81,0.83,13.7,1.44,18.29c0.32,2.35-1.16,5.6-0.06,7.7c3.14,6.01,10.5,8.18,17.09,9.77
						c-5.75,2.12-11.96,3.01-18.07,2.58c-2.01-0.14-4.24-0.56-5.39-2.21c-0.62-0.9-0.81-2.02-0.94-3.11
						c-0.34-2.79-0.42-5.61-0.23-8.41c0.31-4.71,1.37-9.43,0.79-14.12c-0.34-2.74-1.23-5.39-1.67-8.12
						c-0.51-3.16-0.4-6.38-0.42-9.58c-0.03-4.65-0.32-9.3-0.61-13.94c-0.18-2.8-0.35-5.61-0.82-8.37c-0.42-2.45-1.06-4.89-0.97-7.38
						c0.11-2.77,1.13-5.44,1.23-8.21c0.07-2.03-0.36-4.05-0.26-6.08c0.2-4.32,2.87-8.33,6.52-10.64c3.42-2.17,8.92-3.65,12.86-2.4
						C187.18,14.59,181.87,18.2,179.85,23.55z"/>
				</g>
				<g style="clip-path:url(#SVGID_00000123406828761910936760000009642577640301222561_);">
					<path class="st5" d="M210.81,52.74c-1.34-1.01-3,14.7-4.44,14.3c-1.25-0.35-5.05,0.14-5.84-0.41
						c4.39,3.05,6.37,9.98,5.81,15.51c-0.37,3.66-0.34,5.2-0.8,8.8c-0.92-0.24-1.82-0.61-2.72-0.96c1.86,1.96,3.12,4.98,1.86,7.37
						c-1.02,1.93-2.85,2.34-4.55,3.32c-1.89,1.09-4.11,3.89-6.19,4.41c5.55-1.37,11.63-0.49,16.57,2.39
						c2.05-7.56,2.28-15.49,2.51-23.32c0.11-3.87,1.53-11.16-1.05-14.17C211.69,69.68,211.16,53,210.81,52.74z"/>
				</g>
			</g>
			<g>
				<path class="st6" d="M204.5,102.59c-6.76,2.77-14.64,3.31-20.58,1.42c-5.7-1.81-5.5-7.41-5.32-12.34
					c0.04-1.22,0.08-2.37,0.05-3.46c-0.45-12.35-1.58-30.9-4.47-49.2L174,37.88c-0.64-4.05-1.31-8.23-1.28-12.41
					c0.03-4.68,1.28-7.98,3.71-9.84c1.69-1.29,3.83-1.75,5.87-2.11c3.53-0.62,6.83-0.71,10.32-0.8c1.23-0.03,2.51-0.07,3.79-0.13
					c2.59-0.12,5.32-0.13,7.68,1.16c3.13,1.71,5.17,5.83,6.07,12.24c1.43,10.22,1.29,20.67,1.15,30.78l-0.18,13.41
					c-0.13,9.46-0.26,19.24-3.13,28.5c-0.29,0.92-0.63,1.89-1.34,2.62c-0.01,0.01-0.02,0.02-0.04,0.04
					C206,101.94,205.2,102.3,204.5,102.59z M173.88,25.47c-0.03,4.09,0.63,8.22,1.27,12.22l0.18,1.13
					c2.89,18.35,4.03,36.96,4.48,49.34c0.04,1.13,0,2.36-0.05,3.54c-0.17,4.74-0.34,9.64,4.51,11.19
					c5.69,1.81,13.27,1.28,19.78-1.39c0.63-0.26,1.3-0.56,1.75-1.03c0.54-0.55,0.82-1.37,1.06-2.16c2.82-9.1,2.95-18.79,3.08-28.17
					l0.18-13.41c0.14-10.07,0.28-20.47-1.14-30.6c-0.58-4.14-2-9.48-5.47-11.38c-2.09-1.14-4.64-1.13-7.07-1.02
					c-1.3,0.06-2.58,0.1-3.82,0.13c-3.45,0.09-6.71,0.18-10.15,0.79c-1.9,0.33-3.88,0.76-5.36,1.89c-0.22,0.17-0.44,0.36-0.64,0.56
					C174.78,18.82,173.91,21.62,173.88,25.47z"/>
			</g>
			<g>
				<g>
					<path class="st6" d="M200.49,36.05c-1.15-0.11-2.3-0.22-3.45-0.33c-0.3-0.03-0.55-0.36-0.49-0.66
						c0.06-0.32,0.33-0.53,0.66-0.49c1.15,0.11,2.3,0.22,3.45,0.33c0.3,0.03,0.55,0.36,0.49,0.66
						C201.09,35.88,200.81,36.08,200.49,36.05L200.49,36.05z"/>
				</g>
			</g>
			<g>
				<g>
					<path class="st6" d="M198,62.26c-2.78-0.29-5.57-0.36-8.36-0.21c-0.75,0.04-0.75-1.12,0-1.16c2.79-0.15,5.58-0.08,8.36,0.21
						c0.31,0.03,0.58,0.24,0.58,0.58C198.58,61.97,198.31,62.3,198,62.26L198,62.26z"/>
				</g>
			</g>
			<g>
				<g>
					<path class="st6" d="M194.68,35.49c-2.78-0.29-5.57-0.36-8.36-0.21c-0.75,0.04-0.75-1.12,0-1.16c2.79-0.15,5.58-0.08,8.36,0.21
						c0.31,0.03,0.58,0.24,0.58,0.58C195.26,35.2,194.99,35.53,194.68,35.49L194.68,35.49z"/>
				</g>
			</g>
			<g>
				<g>
					<path class="st6" d="M198.28,65.21c-4.08-0.11-8.17,0.16-12.2,0.8c-0.31,0.05-0.63-0.09-0.71-0.42
						c-0.07-0.28,0.1-0.66,0.42-0.71c4.13-0.66,8.31-0.95,12.5-0.84C199.03,64.06,199.03,65.23,198.28,65.21L198.28,65.21z"/>
				</g>
			</g>
		</g>
	</g>
	<path class="st8" d="M134.59,116.34l6.32-10.11c-1.24-1.22-2.63-2.38-4.19-3.48c-2.14,4.09-4.92,8.59-7.62,12.95
		c-0.59,0.96-1.19,1.92-1.78,2.89c1.14,0.5,2.4,0.63,3.64,0.35C132.47,118.59,133.76,117.67,134.59,116.34z"/>
	<g>
		<path class="st9" d="M273.91,127.29c-11.29-4.76-24.35,0.55-29.11,11.84s0.55,24.35,11.84,29.11c10.41,4.39,22.32,0.22,27.85-9.3
			c0,0,0-0.01,0.01-0.01c0.08-0.15,0.17-0.29,0.25-0.44c0.01-0.03,0.03-0.05,0.04-0.08c0.08-0.15,0.16-0.3,0.24-0.45
			c0,0,0.01-0.01,0.01-0.01c0.08-0.15,0.16-0.31,0.23-0.47c0.02-0.04,0.04-0.08,0.05-0.11c0.06-0.12,0.11-0.24,0.17-0.36
			c0.02-0.04,0.04-0.09,0.06-0.13c0.07-0.16,0.14-0.31,0.21-0.47l0,0c0.07-0.16,0.14-0.33,0.2-0.49c0.03-0.07,0.05-0.14,0.08-0.21
			c0.04-0.09,0.07-0.19,0.11-0.28c0.03-0.09,0.07-0.18,0.1-0.28c0.02-0.07,0.05-0.13,0.07-0.2c0.04-0.11,0.07-0.22,0.11-0.33
			c0.01-0.04,0.03-0.08,0.04-0.13c0.04-0.13,0.08-0.26,0.12-0.4c0-0.01,0.01-0.02,0.01-0.03c0.62-2.11,0.92-4.29,0.91-6.47
			c0-0.12,0-0.23,0-0.35c0-0.02,0-0.05,0-0.07C287.24,138.72,282.18,130.78,273.91,127.29z"/>
		<g>
			<g>
				<circle class="st8" cx="270.94" cy="136.61" r="6.95"/>
			</g>
			<g>
				
					<ellipse transform="matrix(0.4817 -0.8763 0.8763 0.4817 -5.8012 311.8264)" class="st8" cx="260.73" cy="160.82" rx="6.95" ry="6.95"/>
			</g>
			<g>
				
					<ellipse transform="matrix(0.9809 -0.1945 0.1945 0.9809 -23.0871 52.0965)" class="st8" cx="253.73" cy="143.61" rx="6.95" ry="6.95"/>
			</g>
			<g>
				
					<ellipse transform="matrix(0.9809 -0.1945 0.1945 0.9809 -24.6109 57.0012)" class="st8" cx="277.94" cy="153.82" rx="6.95" ry="6.95"/>
			</g>
		</g>
		
			<ellipse transform="matrix(0.2142 -0.9768 0.9768 0.2142 16.159 353.4452)" class="st10" cx="227.76" cy="166.68" rx="15.3" ry="15.3"/>
		
			<ellipse transform="matrix(0.9018 -0.4322 0.4322 0.9018 -45.0316 88.6857)" class="st10" cx="172.58" cy="143.4" rx="15.3" ry="15.3"/>
		<path class="st11" d="M255.95,169.87c-12.19-5.14-17.92-19.24-12.78-31.43c5.14-12.19,19.24-17.92,31.43-12.78
			c5.63,2.38,9.89,6.67,12.33,11.8c0.74-5.67-0.25-9.31-1.25-11.4c-0.86-1.81-1.87-2.78-2.3-3.15l-23.79-10.03l0.01-0.01
			c-0.06-0.02-0.11-0.03-0.17-0.06l-34.46-13.38l-2.28-0.96l-33.6-15.33l-23.97-10.11c-0.56-0.06-1.96-0.1-3.86,0.55
			c-2.19,0.75-5.49,2.58-9.04,7.07c5.38-1.83,11.42-1.78,17.05,0.59c12.19,5.14,17.92,19.24,12.78,31.43
			c-5.14,12.19-19.24,17.92-31.43,12.78c-8.89-3.75-14.34-12.26-14.65-21.32c-7.71,11.64-22.37,34.33-26.36,44.54
			c-2.79,7.14-3.94,13.31-3.39,18.35c0.52,4.85,2.59,8.39,6.15,10.51c3.69,2.2,8.73,2.6,13.83,1.1c4.07-1.19,10.13-4.14,15.87-11.41
			c4.45-5.63,11.85-7.82,22.01-6.51c8.06,1.04,17.76,4.18,29.65,9.61c12.19,4.73,21.21,9.48,27.58,14.53
			c8.03,6.36,11.63,13.2,10.7,20.31c-1.2,9.18,0.92,15.58,2.91,19.33c2.49,4.7,6.3,8.03,10.44,9.14c4,1.07,7.98,0.08,11.82-2.93
			c3.99-3.13,7.61-8.26,10.77-15.24c4.52-9.99,10.54-36.32,13.5-49.97C274.74,171.59,264.84,173.62,255.95,169.87z M234.82,120.42
			l6.16,2.6c2.27,0.96,3.33,3.58,2.38,5.85c-0.96,2.27-3.58,3.33-5.85,2.38l-6.16-2.6c-2.27-0.96-3.33-3.58-2.38-5.85
			C229.93,120.53,232.55,119.47,234.82,120.42z M194.62,103.47l6.16,2.6c2.27,0.96,3.33,3.58,2.38,5.85
			c-0.96,2.27-3.58,3.33-5.85,2.38l-6.16-2.6c-2.27-0.96-3.33-3.58-2.38-5.85C189.73,103.58,192.35,102.51,194.62,103.47z
			 M165.95,159.13c-8.67-3.66-12.75-13.68-9.09-22.35c3.66-8.67,13.68-12.75,22.35-9.09c8.67,3.66,12.75,13.68,9.09,22.35
			C184.65,158.71,174.62,162.79,165.95,159.13z M208.39,135.66l-0.04-0.02l-0.04-0.02c-3.89-1.64-5.72-6.14-4.08-10.03
			c1.64-3.89,6.14-5.72,10.03-4.08l0.04,0.02l0.03,0.01c3.89,1.64,5.72,6.14,4.08,10.03C216.78,135.47,212.28,137.3,208.39,135.66z
			 M221.13,182.4c-8.67-3.66-12.75-13.68-9.09-22.35c3.66-8.67,13.68-12.75,22.35-9.09c8.67,3.66,12.75,13.68,9.09,22.35
			S229.8,186.06,221.13,182.4z"/>
		<g>
			<circle class="st12" cx="270.38" cy="135.66" r="6.95"/>
		</g>
		<g>
			
				<ellipse transform="matrix(0.9938 -0.1116 0.1116 0.9938 -16.211 30.0216)" class="st12" cx="260.17" cy="159.87" rx="6.95" ry="6.95"/>
		</g>
		<g>
			<circle class="st12" cx="253.16" cy="142.66" r="6.95"/>
		</g>
		<g>
			<circle class="st12" cx="277.38" cy="152.87" r="6.95"/>
		</g>
		<g>
			
				<ellipse transform="matrix(0.9263 -0.3767 0.3767 0.9263 -46.0135 98.0906)" class="st12" cx="227.76" cy="166.68" rx="10.59" ry="10.59"/>
		</g>
		<g>
			
				<ellipse transform="matrix(0.9992 -0.0404 0.0404 0.9992 -6.5406 9.3269)" class="st13" cx="227.76" cy="166.68" rx="7.38" ry="7.38"/>
		</g>
		<path class="st14" d="M222.97,166.44c1.23-2.92,4.6-4.29,7.52-3.06c1.39,0.59,2.43,1.66,3.01,2.94c-0.13-2.11-1.42-4.06-3.5-4.94
			c-2.92-1.23-6.29,0.14-7.52,3.06c-0.64,1.53-0.58,3.17,0.05,4.57C222.47,168.17,222.61,167.29,222.97,166.44z"/>
		<g>
			<path class="st12" d="M184.1,143.38l-3.3-1.39c-1.29-0.54-1.89-2.03-1.35-3.32l1.39-3.3c0.54-1.29-0.06-2.77-1.35-3.32
				l-3.63-1.53c-1.29-0.54-2.77,0.06-3.32,1.35l-1.39,3.3c-0.54,1.29-2.03,1.89-3.32,1.35l-3.3-1.39c-1.29-0.54-2.77,0.06-3.32,1.35
				l-1.53,3.63c-0.54,1.29,0.06,2.77,1.35,3.32l3.3,1.39c1.29,0.54,1.89,2.03,1.35,3.32l-1.39,3.3c-0.54,1.29,0.06,2.77,1.35,3.32
				l3.63,1.53c1.29,0.54,2.77-0.06,3.32-1.35l1.39-3.3c0.54-1.29,2.03-1.89,3.32-1.35l3.3,1.39c1.29,0.54,2.77-0.06,3.32-1.35
				l1.53-3.63C185.99,145.41,185.39,143.93,184.1,143.38z"/>
		</g>
		<path class="st9" d="M191.84,110.07l6.16,2.6c1.37,0.58,2.95-0.07,3.53-1.44c0.58-1.37-0.07-2.95-1.44-3.53l-6.16-2.6
			c-1.37-0.58-2.95,0.07-3.53,1.44C189.83,107.9,190.47,109.49,191.84,110.07z"/>
		<path class="st9" d="M139.22,95.32c-0.05,0.12-0.1,0.25-0.14,0.37c-0.01,0.04-0.03,0.08-0.04,0.12c-0.06,0.16-0.12,0.33-0.17,0.49
			c0,0,0,0.01,0,0.01c-0.05,0.16-0.11,0.32-0.16,0.49c-0.01,0.03-0.02,0.06-0.03,0.09c-0.05,0.16-0.1,0.32-0.14,0.48
			c0,0,0,0.01,0,0.01c-2.96,10.61,2.37,22.05,12.78,26.44c11.29,4.76,24.35-0.55,29.11-11.84s-0.55-24.35-11.84-29.11
			c-8.28-3.49-17.5-1.57-23.71,4.15c-0.02,0.02-0.03,0.03-0.05,0.05c-0.09,0.08-0.17,0.16-0.25,0.24c-1.57,1.51-2.93,3.25-4,5.17
			c-0.01,0.01-0.01,0.02-0.02,0.03c-0.07,0.12-0.13,0.24-0.2,0.37c-0.02,0.04-0.04,0.08-0.06,0.12c-0.05,0.1-0.11,0.21-0.16,0.31
			c-0.03,0.06-0.06,0.13-0.09,0.19c-0.04,0.09-0.09,0.18-0.13,0.26c-0.04,0.09-0.08,0.18-0.13,0.27c-0.03,0.07-0.06,0.13-0.09,0.2
			c-0.07,0.16-0.14,0.32-0.21,0.49c-0.07,0.16-0.13,0.32-0.19,0.48C139.25,95.23,139.24,95.27,139.22,95.32z M165.39,90.42
			c7.12,3,10.48,11.25,7.47,18.37c-3,7.12-11.25,10.48-18.37,7.47c-7.12-3-10.48-11.25-7.47-18.37
			C150.03,90.77,158.27,87.42,165.39,90.42z"/>
		<path class="st9" d="M232.04,127.02l6.16,2.6c1.37,0.58,2.95-0.07,3.53-1.44c0.58-1.37-0.07-2.95-1.44-3.53l-6.16-2.6
			c-1.37-0.58-2.95,0.07-3.53,1.44C230.02,124.86,230.67,126.44,232.04,127.02z"/>
		<path class="st14" d="M190.75,107.31c0.58-1.37,2.16-2.01,3.53-1.44l6.16,2.6c0.52,0.22,0.93,0.58,1.22,1.02
			c-0.21-0.78-0.76-1.46-1.56-1.8l-6.16-2.6c-1.37-0.58-2.95,0.07-3.53,1.44c-0.36,0.85-0.25,1.78,0.22,2.51
			C190.48,108.49,190.5,107.88,190.75,107.31z"/>
		<path class="st14" d="M230.94,124.26c0.58-1.37,2.16-2.01,3.53-1.44l6.16,2.6c0.52,0.22,0.93,0.58,1.22,1.02
			c-0.21-0.78-0.76-1.46-1.56-1.8l-6.16-2.6c-1.37-0.58-2.95,0.07-3.53,1.44c-0.36,0.85-0.25,1.78,0.22,2.51
			C230.67,125.44,230.7,124.83,230.94,124.26z"/>
		
			<ellipse transform="matrix(0.3606 -0.9327 0.9327 0.3606 5.8807 215.2635)" class="st12" cx="159.94" cy="103.34" rx="12.25" ry="12.25"/>
		
			<ellipse transform="matrix(0.4171 -0.9089 0.9089 0.4171 -0.6907 205.6084)" class="st15" cx="159.94" cy="103.34" rx="9.59" ry="9.59"/>
		<path class="st14" d="M153.09,102.75c1.74-4.12,6.49-6.05,10.61-4.32c1.97,0.83,3.44,2.35,4.24,4.16
			c-0.18-2.97-2.01-5.73-4.94-6.97c-4.12-1.74-8.87,0.19-10.61,4.32c-0.91,2.15-0.81,4.48,0.07,6.45
			C152.39,105.18,152.59,103.94,153.09,102.75z"/>
		<path class="st8" d="M282.23,120.2l0.55-1.3c0.13-0.31-0.02-0.67-0.33-0.81l-18.07-7.62c-0.88-0.37-1.89,0.04-2.26,0.92
			l-0.14,0.34c-0.03,0.07-0.06,0.14-0.1,0.2l20.26,8.54C282.16,120.38,282.19,120.29,282.23,120.2z"/>
		<path class="st8" d="M188.05,80.55l0.14-0.34c0.37-0.88-0.04-1.89-0.92-2.26l-18.07-7.62c-0.31-0.13-0.67,0.02-0.81,0.33
			l-0.55,1.3c-0.04,0.09-0.08,0.17-0.13,0.25l20.26,8.54C188,80.69,188.02,80.62,188.05,80.55z"/>
		<path class="st16" d="M213.65,123.18l-0.03-0.01l-0.04-0.02c-2.99-1.26-6.45,0.15-7.72,3.14c-1.26,2.99,0.15,6.45,3.14,7.72
			l0.04,0.02l0.04,0.02c2.99,1.26,6.45-0.15,7.72-3.14C218.05,127.9,216.64,124.44,213.65,123.18z"/>
		<path class="st12" d="M191.15,111.69l6.16,2.6c2.27,0.96,4.89-0.11,5.85-2.38c0.96-2.27-0.11-4.89-2.38-5.85l-6.16-2.6
			c-2.27-0.96-4.89,0.11-5.85,2.38C187.82,108.12,188.89,110.74,191.15,111.69z M193.93,105.1l6.16,2.6
			c1.37,0.58,2.01,2.16,1.44,3.53c-0.58,1.37-2.16,2.01-3.53,1.44l-6.16-2.6c-1.37-0.58-2.01-2.16-1.44-3.53
			C190.98,105.17,192.57,104.52,193.93,105.1z"/>
		<path class="st12" d="M154.49,116.26c7.12,3,15.37-0.35,18.37-7.47c3-7.12-0.35-15.37-7.47-18.37c-7.12-3-15.37,0.35-18.37,7.47
			C144.02,105.02,147.37,113.26,154.49,116.26z M164.71,92.05c6.23,2.63,9.16,9.83,6.53,16.05c-2.63,6.23-9.83,9.16-16.05,6.53
			c-6.23-2.63-9.16-9.83-6.53-16.05C151.28,92.35,158.48,89.43,164.71,92.05z"/>
		<path class="st12" d="M214.34,121.55l-0.03-0.01l-0.04-0.02c-3.89-1.64-8.39,0.19-10.03,4.08c-1.64,3.89,0.19,8.39,4.08,10.03
			l0.04,0.02l0.04,0.02c3.89,1.64,8.39-0.19,10.03-4.08C220.06,127.69,218.23,123.19,214.34,121.55z M209.07,134.03l-0.04-0.02
			L209,134c-2.99-1.26-4.4-4.72-3.14-7.72c1.26-2.99,4.72-4.4,7.72-3.14l0.04,0.02l0.03,0.01c2.99,1.26,4.4,4.72,3.14,7.72
			C215.53,133.89,212.07,135.3,209.07,134.03z"/>
		<path class="st12" d="M234.39,150.96c-8.67-3.66-18.7,0.42-22.35,9.09c-3.66,8.67,0.42,18.7,9.09,22.35
			c8.67,3.66,18.7-0.42,22.35-9.09S243.06,154.61,234.39,150.96z M221.82,180.77c-7.77-3.28-11.43-12.27-8.15-20.04
			c3.28-7.77,12.27-11.43,20.04-8.15c7.77,3.28,11.43,12.27,8.15,20.04C238.58,180.4,229.59,184.05,221.82,180.77z"/>
		<path class="st12" d="M231.35,128.65l6.16,2.6c2.27,0.96,4.89-0.11,5.85-2.38c0.96-2.27-0.11-4.89-2.38-5.85l-6.16-2.6
			c-2.27-0.96-4.89,0.11-5.85,2.38C228.02,125.07,229.08,127.69,231.35,128.65z M234.13,122.05l6.16,2.6
			c1.37,0.58,2.01,2.16,1.44,3.53c-0.58,1.37-2.16,2.01-3.53,1.44l-6.16-2.6c-1.37-0.58-2.01-2.16-1.44-3.53
			C231.18,122.12,232.76,121.48,234.13,122.05z"/>
		<path class="st12" d="M179.21,127.68c-8.67-3.66-18.7,0.42-22.35,9.09c-3.66,8.67,0.42,18.7,9.09,22.35
			c8.67,3.66,18.7-0.42,22.35-9.09C191.96,141.37,187.88,131.34,179.21,127.68z M166.63,157.5c-7.77-3.28-11.43-12.27-8.15-20.04
			c3.28-7.77,12.27-11.43,20.04-8.15c7.77,3.28,11.43,12.27,8.15,20.04C183.39,157.12,174.41,160.78,166.63,157.5z"/>
		<path class="st12" d="M285.7,160.35c0-0.01,0.01-0.01,0.01-0.02c0.2-0.33,0.39-0.66,0.58-1c0.02-0.03,0.03-0.06,0.05-0.09
			c0.08-0.14,0.15-0.28,0.23-0.43c0.01-0.03,0.03-0.06,0.04-0.08c0.08-0.16,0.17-0.33,0.25-0.5c0.02-0.03,0.03-0.07,0.05-0.1
			c0.06-0.14,0.13-0.27,0.19-0.41c0.02-0.05,0.04-0.09,0.06-0.14c0.08-0.17,0.15-0.34,0.22-0.51l0,0c0,0,0,0,0,0s0,0,0,0
			c0.07-0.18,0.15-0.35,0.22-0.53c0.03-0.07,0.06-0.14,0.08-0.22c0.04-0.1,0.08-0.2,0.12-0.31c0.04-0.1,0.07-0.19,0.1-0.29
			c0.03-0.07,0.05-0.15,0.08-0.22c0.04-0.12,0.08-0.23,0.12-0.35c0.02-0.05,0.03-0.09,0.04-0.14c0.04-0.14,0.09-0.28,0.13-0.42
			c0,0,0-0.01,0-0.01c0.65-2.17,0.97-4.38,0.99-6.56c0-0.06,0-0.11,0-0.17c0-0.09,0-0.18,0-0.28c0-0.11,0-0.23,0-0.34
			c0-0.05,0-0.1,0-0.15c-0.06-2.16-0.41-4.32-1.06-6.41c0.12-0.69,0.23-1.32,0.32-1.88c1.92-11.88-2.97-16.46-4.16-17.38l0.01-0.02
			l-0.08-0.03c-0.09-0.07-0.15-0.11-0.18-0.12l-0.06-0.04l-0.07-0.03c-0.11-0.05-0.17-0.18-0.12-0.29l0.55-1.3
			c0.51-1.21-0.06-2.61-1.27-3.12l-18.07-7.62c-1.77-0.75-3.83,0.09-4.57,1.86l-0.14,0.34c-0.05,0.11-0.17,0.17-0.29,0.12
			L225.63,97.8l-2.24-0.94l-33.6-15.33c-0.11-0.05-0.16-0.18-0.11-0.29l0.14-0.34c0.75-1.77-0.09-3.83-1.86-4.57l-18.07-7.62
			c-1.21-0.51-2.61,0.06-3.12,1.27l-0.55,1.3c-0.05,0.11-0.18,0.17-0.29,0.12l-0.07-0.03l-0.07-0.02c-0.31-0.07-7.68-1.64-15.65,9.1
			c-0.34,0.45-0.72,0.97-1.13,1.54c-1.95,1-3.74,2.25-5.33,3.72c-0.04,0.03-0.07,0.07-0.11,0.1c-0.08,0.08-0.17,0.16-0.25,0.23
			c-0.07,0.06-0.13,0.13-0.2,0.19c-0.04,0.04-0.08,0.08-0.12,0.12c-1.55,1.54-2.91,3.31-4.01,5.29c0,0,0,0.01-0.01,0.01
			c-0.07,0.13-0.14,0.26-0.21,0.39c-0.02,0.04-0.05,0.09-0.07,0.13c-0.06,0.11-0.11,0.22-0.17,0.33c-0.04,0.07-0.07,0.14-0.1,0.21
			c-0.05,0.09-0.09,0.18-0.14,0.28c-0.05,0.1-0.09,0.2-0.14,0.29c-0.03,0.07-0.07,0.14-0.1,0.21c-0.08,0.17-0.15,0.35-0.23,0.52
			c-0.07,0.17-0.14,0.34-0.21,0.51c-0.02,0.05-0.04,0.09-0.06,0.14c-0.05,0.14-0.11,0.28-0.16,0.42c-0.01,0.03-0.03,0.07-0.04,0.1
			c-0.06,0.17-0.12,0.35-0.18,0.52c-0.01,0.03-0.02,0.06-0.03,0.09c-0.05,0.15-0.1,0.31-0.15,0.46c-0.01,0.03-0.02,0.07-0.03,0.1
			c-0.11,0.37-0.22,0.74-0.31,1.12c0,0.01,0,0.01,0,0.02c-0.27,1.07-0.47,2.16-0.59,3.26c-7.1,10.65-23.77,36.14-28.13,47.27
			c-2.9,7.4-4.08,13.86-3.51,19.19c0.58,5.36,3,9.46,7,11.84c0.58,0.34,1.18,0.65,1.81,0.91c3.86,1.63,8.63,1.77,13.43,0.37
			c6.19-1.82,11.98-5.97,16.76-12.01c4.03-5.1,10.9-7.07,20.4-5.85c7.89,1.01,17.42,4.11,29.17,9.47l0.02,0.01l0.02,0.01
			c12.03,4.67,20.91,9.34,27.14,14.27c7.51,5.95,10.89,12.24,10.05,18.69c-0.99,7.63,0.08,14.68,3.1,20.38
			c2.72,5.13,6.93,8.79,11.55,10.02c4.51,1.2,9.13,0.08,13.37-3.25c4.21-3.31,8.01-8.66,11.29-15.9
			c4.93-10.88,11.55-40.61,14.22-53.13C284.48,162.19,285.12,161.3,285.7,160.35z M287.49,147.17c0,0.02,0,0.05,0,0.07
			c0,0.12,0,0.23,0,0.35c0.02,2.18-0.29,4.36-0.91,6.47c0,0.01-0.01,0.02-0.01,0.03c-0.04,0.13-0.08,0.27-0.12,0.4
			c-0.01,0.04-0.03,0.08-0.04,0.13c-0.04,0.11-0.07,0.22-0.11,0.33c-0.02,0.07-0.05,0.13-0.07,0.2c-0.03,0.09-0.07,0.18-0.1,0.28
			c-0.03,0.09-0.07,0.19-0.11,0.28c-0.03,0.07-0.05,0.14-0.08,0.21c-0.06,0.16-0.13,0.33-0.2,0.49l0,0
			c-0.07,0.16-0.14,0.32-0.21,0.47c-0.02,0.04-0.04,0.09-0.06,0.13c-0.06,0.12-0.11,0.24-0.17,0.36c-0.02,0.04-0.04,0.08-0.05,0.11
			c-0.08,0.16-0.15,0.31-0.23,0.47c0,0-0.01,0.01-0.01,0.01c-0.08,0.15-0.16,0.3-0.24,0.45c-0.01,0.03-0.03,0.05-0.04,0.08
			c-0.08,0.15-0.16,0.29-0.25,0.44c0,0,0,0.01-0.01,0.01c-5.53,9.52-17.44,13.69-27.85,9.3c-11.29-4.76-16.6-17.82-11.84-29.11
			s17.82-16.6,29.11-11.84C282.18,130.78,287.24,138.72,287.49,147.17z M261.97,111.72l0.14-0.34c0.37-0.88,1.38-1.29,2.26-0.92
			l18.07,7.62c0.31,0.13,0.46,0.49,0.33,0.81l-0.55,1.3c-0.04,0.09-0.07,0.18-0.09,0.27l-20.26-8.54
			C261.91,111.86,261.94,111.79,261.97,111.72z M167.85,71.96l0.55-1.3c0.13-0.31,0.49-0.46,0.81-0.33l18.07,7.62
			c0.88,0.37,1.29,1.38,0.92,2.26l-0.14,0.34c-0.03,0.07-0.05,0.14-0.07,0.21l-20.26-8.54C167.77,72.13,167.81,72.05,167.85,71.96z
			 M139.68,94.22c0.03-0.07,0.06-0.13,0.09-0.2c0.04-0.09,0.08-0.18,0.13-0.27c0.04-0.09,0.09-0.18,0.13-0.26
			c0.03-0.06,0.06-0.13,0.09-0.19c0.05-0.1,0.11-0.21,0.16-0.31c0.02-0.04,0.04-0.08,0.06-0.12c0.07-0.12,0.13-0.24,0.2-0.37
			c0.01-0.01,0.01-0.02,0.02-0.03c1.08-1.92,2.43-3.66,4-5.17c0.08-0.08,0.17-0.16,0.25-0.24c0.02-0.02,0.03-0.03,0.05-0.05
			c6.21-5.72,15.44-7.64,23.71-4.15c11.29,4.76,16.6,17.82,11.84,29.11s-17.82,16.6-29.11,11.84
			c-10.41-4.39-15.74-15.83-12.78-26.44c0,0,0-0.01,0-0.01c0.05-0.16,0.09-0.32,0.14-0.48c0.01-0.03,0.02-0.06,0.03-0.09
			c0.05-0.16,0.1-0.32,0.16-0.49c0,0,0-0.01,0-0.01c0.06-0.16,0.11-0.33,0.17-0.49c0.01-0.04,0.03-0.08,0.04-0.12
			c0.05-0.12,0.09-0.25,0.14-0.37c0.02-0.05,0.03-0.09,0.05-0.13c0.06-0.16,0.13-0.32,0.19-0.48
			C139.53,94.54,139.61,94.38,139.68,94.22z M267.95,215.45c-3.16,6.98-6.79,12.11-10.77,15.24c-3.84,3.01-7.82,4-11.82,2.93
			c-4.15-1.11-7.95-4.44-10.44-9.14c-1.99-3.75-4.1-10.14-2.91-19.33c0.93-7.11-2.68-13.94-10.7-20.31
			c-6.37-5.05-15.39-9.8-27.58-14.53c-11.89-5.43-21.59-8.57-29.65-9.61c-10.16-1.31-17.57,0.88-22.01,6.51
			c-5.74,7.27-11.8,10.21-15.87,11.41c-5.1,1.5-10.15,1.1-13.83-1.1c-3.56-2.12-5.63-5.66-6.15-10.51
			c-0.54-5.04,0.6-11.22,3.39-18.35c4-10.21,18.65-32.9,26.36-44.54c0.31,9.06,5.77,17.57,14.65,21.32
			c12.19,5.14,26.29-0.59,31.43-12.78c5.14-12.19-0.59-26.29-12.78-31.43c-5.63-2.38-11.68-2.43-17.05-0.59
			c3.55-4.48,6.84-6.32,9.04-7.07c1.9-0.65,3.3-0.6,3.86-0.55l23.97,10.11l33.6,15.33l2.28,0.96l34.46,13.38
			c0.06,0.02,0.11,0.04,0.17,0.06l-0.01,0.01l23.79,10.03c0.44,0.37,1.44,1.34,2.3,3.15c1,2.09,1.98,5.73,1.25,11.4
			c-2.44-5.13-6.69-9.42-12.33-11.8c-12.19-5.14-26.29,0.59-31.43,12.78c-5.14,12.19,0.59,26.29,12.78,31.43
			c8.89,3.75,18.79,1.71,25.49-4.39C278.49,179.13,272.47,205.46,267.95,215.45z"/>
		
			<ellipse transform="matrix(0.3886 -0.9214 0.9214 0.3886 13.9205 272.4731)" class="st10" cx="212.28" cy="125.75" rx="2.15" ry="3.66"/>
		<path class="st17" d="M208.22,138.58c4.34,1.83,9.35-0.2,11.18-4.55c1.21-2.87,0.73-6.03-0.99-8.37c0.77,1.83,0.83,3.96,0,5.93
			c-1.64,3.89-6.14,5.72-10.03,4.08l-0.04-0.02l-0.04-0.02c-3.36-1.42-5.18-4.97-4.56-8.41c-0.03,0.06-0.05,0.11-0.08,0.17
			C201.84,131.74,203.88,136.74,208.22,138.58z"/>
		<text transform="matrix(0.9214 0.3886 -0.3886 0.9214 247.7378 143.8322)" class="st10 st18 st19">M</text>
		<text transform="matrix(0.9214 0.3886 -0.3886 0.9214 265.7349 137.361)" class="st10 st18 st19">O</text>
		<text transform="matrix(0.9214 0.3886 -0.3886 0.9214 255.3999 161.527)" class="st10 st18 st19">O</text>
		<text transform="matrix(0.9214 0.3886 -0.3886 0.9214 273.0362 154.6955)" class="st10 st18 st19">C</text>
	</g>
	<path class="st2" d="M250.92,108.75c-0.44-0.51-1.29-1.3-2.83-2.14c-2.6-1.42-5.49-0.75-5.79-0.36c-1.65,3.46-1.78,5.6-1.74,6.44
		c2.69,2.26,5.46,2.67,6.15,2.61c1.78-1.52,3.62-4.59,4.33-5.86l0,0C251.17,109.25,251.12,108.98,250.92,108.75z"/>
	<path class="st2" d="M228.17,83.69c-0.79-0.43-1.59-0.82-2.4-1.16c-4.34-1.83-8.74-2.27-11.47-1.05c-1.62,0.72-2.65,2.01-3.08,3.83
		c-1.34,5.75-2.04,19.86,2.44,26.43c1.32,1.93,3,3.06,5.01,3.35c5.25,0.77,8.3-0.23,9.92-1.21c1.72-1.03,2.23-2.21,2.26-2.26
		l0.01-0.02l0.01-0.01c3.56-7.73,4.9-14.1,3.99-18.95C234.1,88.67,231.92,85.74,228.17,83.69z M229.36,112.2l-0.11,0.12
		c-1.4,1.56-6.55,3.01-12.11,0.66c-0.24-0.1-0.49-0.21-0.73-0.33l-0.31-0.15l-0.13-0.34c-0.58-1.48-1.55-3.86-1.21-12.82
		c0.05-0.99,1.07,0.53,2.5-0.65c1.13-0.93,1.51,1.31,5.41,1.87c2.96,0.43,3.68-0.83,4.75-0.07c1.01,0.72,1.89-1.92,1.78-0.68
		c-0.27,3.11,1.93,7.76,0.22,12.23L229.36,112.2z"/>
	<path class="st2" d="M227.41,100.5c-0.94-0.58-2.58-1.38-5.12-1.95c-3.11-0.69-5.34,0.34-6.16,0.82c-1.08,0.63-1.41,1.25-1.4,1.43
		c0.59,6.04,2.11,9.28,2.75,10.41c5.24,2.32,9.09,1.61,9.87,1.14c1.04-3.02,0.99-8.4,0.91-10.6
		C228.26,101.3,227.93,100.82,227.41,100.5z"/>
	<path class="st2" d="M252.63,94.86c-1.62-1.46-3.41-2.6-5.13-3.33c-1.79-0.75-3.5-1.06-4.86-0.8c-1.32,0.25-2.26,0.99-2.89,2.25
		c-2.04,4.11-5.08,14.65-2.88,20.39c0.64,1.68,1.66,2.77,3.1,3.34c7.15,2.83,9.56-0.26,9.66-0.39l0.02-0.03l0,0
		c4.07-5.21,6.22-9.78,6.39-13.59C256.19,99.62,255.07,97.06,252.63,94.86z M252.32,110.15L252.32,110.15
		c-1,1.92-2.08,3.9-4.38,6.32l-0.11,0.12l-0.15,0.07c-0.87,0.41-2.71,0.39-4.7-0.45c-1.3-0.55-2.68-1.45-3.89-2.81l-0.23-0.26
		l0.01-0.35c0.02-1.12,0.48-1.52,3.1-7.18c0.48-1.02,3.91,0.87,4.39,0.73c1-0.3,1.92,0.42,4.35,1.87c1.82,1.09,0.85,0.55,1.34,1.34
		C252.55,110.36,252.76,109.31,252.32,110.15z"/>
	<path class="st12" d="M253.82,93.55c-2.85-2.57-7.57-5.3-11.5-4.55c-1.84,0.35-3.28,1.46-4.14,3.2c-0.36,0.72-0.82,1.81-1.29,3.14
		c-0.02-1.06-0.12-2.08-0.3-3.04c-0.84-4.45-3.38-7.87-7.57-10.16c-4.25-2.33-10.85-4.33-15.44-2.28c-2.12,0.95-3.53,2.69-4.08,5.04
		c-0.6,2.59-1.23,7.61-1.01,13.24c0.18,4.43,0.96,10.56,3.7,14.59c1.14,1.67,2.52,2.85,4.13,3.53c0.66,0.28,1.36,0.47,2.09,0.58
		c11.17,1.63,13.85-4.03,14.06-4.53c0.71-1.55,1.34-3.04,1.88-4.49c-0.06,2.24,0.18,4.38,0.88,6.19c0.8,2.08,2.13,3.52,3.95,4.29
		c0.05,0.02,0.1,0.04,0.15,0.06c8.29,3.28,11.44-0.59,11.73-0.99c4.29-5.5,6.57-10.41,6.76-14.59
		C257.98,99.19,256.63,96.08,253.82,93.55z M230.86,111.58l-0.01,0.01l-0.01,0.02c-0.02,0.05-0.54,1.23-2.26,2.26
		c-1.63,0.98-4.67,1.98-9.92,1.21c-2.01-0.29-3.69-1.42-5.01-3.35c-4.47-6.57-3.78-20.68-2.44-26.43c0.42-1.82,1.46-3.1,3.08-3.83
		c2.73-1.22,7.13-0.78,11.47,1.05c0.81,0.34,1.61,0.73,2.4,1.16c3.75,2.06,5.94,4.98,6.68,8.94
		C235.76,97.48,234.42,103.85,230.86,111.58z M249.66,116.3L249.66,116.3l-0.02,0.03c-0.1,0.13-2.51,3.22-9.66,0.39
		c-1.44-0.57-2.46-1.66-3.1-3.34c-2.21-5.74,0.84-16.28,2.88-20.39c0.63-1.27,1.57-2,2.89-2.25c1.36-0.26,3.07,0.04,4.86,0.8
		c1.72,0.73,3.51,1.87,5.13,3.33c2.44,2.19,3.56,4.76,3.41,7.85C255.88,106.52,253.72,111.09,249.66,116.3z"/>
	<path class="st12" d="M228.39,99.16c-1.09-0.69-3-1.64-5.89-2.25c-3.8-0.81-6.53,0.54-7.52,1.16c-1.26,0.78-1.98,1.7-1.94,2.47
		c0.51,6.95,2.18,10.49,2.88,11.7l0.16,0.27l0.32,0.15c0.25,0.11,0.49,0.22,0.73,0.33c5.56,2.35,10.37,1.7,11.57,0.62l0.09-0.08
		l0.04-0.11c1.22-3.32,1.28-9.24,1.25-11.63C230.08,100.81,229.43,99.81,228.39,99.16z M217.31,111.63
		c-0.62-1.17-2.09-4.54-2.56-10.87c-0.01-0.19,0.33-0.84,1.44-1.53c0.83-0.52,3.11-1.65,6.23-0.99c2.54,0.54,4.19,1.35,5.12,1.94
		c0.52,0.32,0.84,0.82,0.85,1.3c0.03,2.3-0.03,7.95-1.14,11.14C226.45,113.13,222.54,113.96,217.31,111.63z"/>
	<path class="st12" d="M251.81,109.25c-0.56-0.63-1.62-1.58-3.48-2.58c-2.48-1.33-4.87-1.25-5.78-1.15
		c-0.44,0.05-1.91,0.26-2.25,0.93c-1.81,3.76-1.75,6.01-1.64,6.81l0.03,0.25l0.25,0.21c1.31,1.12,2.72,1.93,4.03,2.48
		c2,0.84,3.75,1.08,4.52,0.88l0.13-0.03l0.09-0.07c1.89-1.46,3.78-4.55,4.5-5.8l0,0C252.55,110.63,252.39,109.89,251.81,109.25z
		 M250.64,110.42L250.64,110.42c-0.68,1.19-2.44,4.06-4.17,5.46c-0.69,0.04-3.44-0.41-6.15-2.61c-0.06-0.8,0.02-2.82,1.59-6.07
		c0.28-0.36,3.13-0.94,5.74,0.46c1.55,0.83,2.4,1.6,2.85,2.09C250.7,109.97,250.75,110.22,250.64,110.42z"/>
	<path class="st4" d="M230.51,94.86c-1.57-1.52-4.18-3.35-8.17-4.17c-7.46-1.53-10.03,2.47-9.9,5.05c0.12,2.38,2.95-1.19,6.35,0.22
		c1.05-0.13,2.27-0.12,3.62,0.16c2.89,0.61,4.8,1.56,5.89,2.25c1.04,0.66,1.69,1.66,1.7,2.62c0.02,2.41-0.06,8.38-1.29,11.73
		l-0.04,0.11l-0.09,0.09c-1.21,1.1-6.02,1.76-11.59-0.58c-0.24-0.1-0.49-0.21-0.73-0.33l-0.32-0.15l-0.16-0.28
		c-0.17-0.3-0.4-0.74-0.65-1.33c-0.57-0.46-1.29-1.4-1.98-2.89c-1.36-2.9-2.13-0.65-0.78,2.14c0.36,0.55,0.75,1.06,1.17,1.54
		c1.44,1.63,3.17,2.67,5.12,3.09c5.12,1.08,7.96,0.57,9.43-0.05c1.56-0.65,1.95-1.53,1.96-1.57l0.01-0.02l0-0.01
		c2.72-5.73,3.43-10.61,2.11-14.5C231.78,96.87,231.23,95.83,230.51,94.86z"/>
	<path class="st4" d="M250.37,100.25c-0.85-0.65-1.74-1.24-2.62-1.76c-0.77-0.1-1.29,0.23-0.78,1.66c1.19,3.36,0.31,2.82,1.59,3.86
		c1.28,1.04-0.65,0.22-2.77-0.53c-2.12-0.75-5.09,0.36-5.64,2.13c-0.55,1.77-1.92,4.61-2,5.92c-0.06,0.93-0.84,1.54-1.52,1.24
		c0.09,0.19,0.18,0.38,0.28,0.56c0.77,1.37,1.85,2.32,3.29,2.9c7.13,2.87,9.17,0.67,9.25,0.57l0.02-0.02l0,0
		c3.44-3.71,5.09-7.1,4.91-10.07C254.23,104.3,252.92,102.19,250.37,100.25z M252.66,110.2L252.66,110.2
		c-0.79,1.41-2.84,4.88-4.83,6.57l-0.1,0.08l-0.14,0.04c-0.79,0.24-2.57,0.06-4.56-0.78c-1.3-0.55-2.71-1.38-3.99-2.56l-0.25-0.22
		l-0.02-0.27c-0.08-0.88-0.05-3.35,1.95-7.56c0.37-0.76,1.88-1.05,2.33-1.12c0.93-0.15,3.36-0.34,5.83,1.02
		c1.85,1.02,2.89,2.02,3.43,2.69C252.88,108.77,253.01,109.58,252.66,110.2z"/>
	<g>
		<g>
			<path class="st2" d="M133.25,184.14c-2.88-2.54-4.76-6.41-6.59-9.74c-1.83-3.32-4.11-6.08-5.31-9.69
				c-1.31-3.95-2.01-8.09-3.55-11.97c-1.61-4.06-4.13-7.75-7.3-10.75c-2.78-2.64-6.45-3.6-9.75-5.53c-3.18-1.86-6.31-4.67-6.52-8.34
				c-0.24-4.33,3.4-9.51,5.81-12.92c5.03-7.1,13.49-7.31,21.01-4.68c6.81,2.38,13.77,8.78,17.59,14.83
				c7.99,12.67,2.79,25.77-0.96,38.84c-1.33,4.64-1.83,9.04-2.54,13.8C134.8,180.39,133.91,181.96,133.25,184.14z"/>
		</g>
		<g>
			<defs>
				<path id="SVGID_00000011007489972107824160000011696814119265647500_" d="M133.25,184.14c-2.88-2.54-4.76-6.41-6.59-9.74
					c-1.83-3.32-4.11-6.08-5.31-9.69c-1.31-3.95-2.01-8.09-3.55-11.97c-1.61-4.06-4.13-7.75-7.3-10.75
					c-2.78-2.64-6.45-3.6-9.75-5.53c-3.18-1.86-6.31-4.67-6.52-8.34c-0.24-4.33,3.4-9.51,5.81-12.92c5.03-7.1,13.49-7.31,21.01-4.68
					c6.81,2.38,13.77,8.78,17.59,14.83c7.99,12.67,2.79,25.77-0.96,38.84c-1.33,4.64-1.83,9.04-2.54,13.8
					C134.8,180.39,133.91,181.96,133.25,184.14z"/>
			</defs>
			<clipPath id="SVGID_00000114775484831488390080000017762280640281681046_">
				<use xlink:href="#SVGID_00000011007489972107824160000011696814119265647500_"  style="overflow:visible;"/>
			</clipPath>
			<g style="clip-path:url(#SVGID_00000114775484831488390080000017762280640281681046_);">
				<path class="st5" d="M131.09,156.12c0.03-0.92-0.08-2.16-0.99-2.28c-0.41-0.05-0.8,0.19-1.14,0.42
					c-1.43,0.99-2.8,2.07-4.08,3.24c1.33-2.59,2.69-5.35,2.51-8.26c-0.21-3.43-2.5-6.33-4.69-8.97c-1.58-1.91-3.19-3.85-5.22-5.28
					c-3.13-2.21-7-3.05-10.54-4.53c-5.17-2.16-9.9-6.04-11.77-11.32c-3.35,0.39-6.09,3.22-7.03,6.46c-0.94,3.24-0.3,6.77,1.07,9.85
					c1.38,3.08,3.45,5.78,5.5,8.45c1.28,1.67,2.57,3.34,3.85,5.02c1.2,1.56,2.41,3.13,3.8,4.52c2.22,2.22,4.88,3.94,7.23,6.02
					c2.18,1.94,4.07,4.17,5.96,6.39c6.06,7.16,12.12,14.32,18.18,21.47c2.21-4.14,3.51-8.76,3.76-13.45
					c0.09-1.59,1.03-3.79,0.84-5.29c-0.23-1.81-1.29-1.96-2.66-3.06C132.85,163.25,130.97,159.8,131.09,156.12z"/>
			</g>
		</g>
		<g>
			<path class="st6" d="M133.64,185.5l-0.89-0.79c-2.62-2.32-4.45-5.69-6.07-8.68c-0.23-0.43-0.46-0.85-0.69-1.26
				c-0.6-1.08-1.26-2.13-1.9-3.14c-1.3-2.05-2.64-4.18-3.47-6.68c-0.56-1.69-1.01-3.43-1.45-5.11c-0.59-2.27-1.21-4.62-2.08-6.82
				c-1.55-3.92-4.01-7.55-7.11-10.48c-1.71-1.62-3.78-2.58-5.97-3.59c-1.2-0.56-2.45-1.13-3.64-1.83c-3.01-1.76-6.66-4.75-6.89-8.95
				c-0.26-4.63,3.48-9.91,5.95-13.4c4.55-6.42,12.52-8.23,21.88-4.96c7.47,2.61,14.41,9.49,17.98,15.14
				c7.38,11.7,3.77,23.83,0.27,35.57c-0.38,1.28-0.77,2.59-1.14,3.89c-1.1,3.84-1.63,7.52-2.19,11.42
				c-0.11,0.75-0.22,1.51-0.33,2.28c-0.24,1.64-0.73,2.92-1.2,4.17c-0.25,0.66-0.51,1.35-0.73,2.09L133.64,185.5z M110.38,140.87
				c0.22,0.18,0.44,0.37,0.65,0.58c3.26,3.09,5.84,6.9,7.48,11.03c0.91,2.29,1.53,4.68,2.14,7c0.43,1.66,0.88,3.37,1.42,5.01
				c0.77,2.32,2,4.28,3.31,6.34c0.65,1.03,1.32,2.1,1.94,3.22c0.23,0.42,0.46,0.84,0.69,1.27c1.43,2.65,2.91,5.37,4.89,7.44
				c0.12-0.35,0.25-0.69,0.38-1.02c0.46-1.22,0.9-2.38,1.11-3.86c0.11-0.77,0.22-1.52,0.33-2.27c0.56-3.95,1.1-7.68,2.23-11.63
				c0.37-1.3,0.77-2.62,1.15-3.9c3.55-11.93,6.91-23.2-0.1-34.32c-3.43-5.43-10.07-12.03-17.19-14.52
				c-4.1-1.43-14.28-3.87-20.13,4.4c-2.21,3.12-5.9,8.33-5.67,12.43c0.2,3.53,3.45,6.15,6.14,7.72c1.13,0.66,2.34,1.22,3.51,1.77
				C106.62,138.48,108.63,139.42,110.38,140.87z"/>
		</g>
		<g>
			<g>
				<path class="st6" d="M112.02,141.74c-1.23-3.06-2.26-6.24-3.99-9.07c-0.81-1.33-1.82-2.61-3.1-3.53
					c-1.47-1.05-3.15-1.75-4.78-2.51c-1.72-0.8-3.47-1.7-4.61-3.28c-0.58-0.8-1.83,0.08-1.25,0.87c2.14,2.97,5.84,3.81,8.85,5.57
					c2.76,1.61,4.25,4.55,5.45,7.4c0.71,1.67,1.31,3.38,1.99,5.07C110.96,143.18,112.39,142.66,112.02,141.74L112.02,141.74z"/>
			</g>
		</g>
	</g>
	<path class="st12" d="M224.48,208.23c-0.43-2.1-0.62-4.18-0.57-6.19c-1.44-0.16-2.88-0.33-4.31-0.49
		c-1.23-0.14-2.61-0.35-3.63-1.22c-1.36-1.18-1.34-2.94-2.53-4.25c-2.06-2.25-5.7-1.43-8.42-2.99c-1.54-0.88-2.5-2.37-3.59-3.68
		s-2.67-2.67-4.24-2.7c-0.42-0.01-0.81,0.09-1.25,0.05c-2.58-0.26-3.87-4.6-6.46-4.87c-1-0.1-1.88,0.5-2.8,0.36
		c-0.37-0.21-0.74-0.42-1.12-0.63c-0.15-0.16-0.28-0.33-0.4-0.49l-2.86-3.81c-0.25-0.34-0.53-0.69-0.92-0.91
		c-0.28-0.15-0.58-0.21-0.88-0.27c-2.09-0.38-4.16-0.57-6.16-0.56c-0.43-0.22-0.86-0.44-1.29-0.66c-0.94-1.31-1.88-2.62-2.81-3.93
		c-0.19-0.27-0.42-0.56-0.73-0.68c-0.31-0.12-0.61-0.04-0.87,0.05c-0.51,0.17-1.03,0.34-1.54,0.51
		c-7.09-13.84-12.26-22.44-15.99-27.78c-1.35-2.41-4.2-5.92-6.21-7.39c-1.66-1.39-2.39-1.28-2.55-1.23c-0.15-0.07-0.3-0.12-0.44-0.2
		c-1.39-0.12-2.72-0.63-3.9-1.49c-0.01,1.31,0.29,2.57,0.84,3.55c-1.76,1.23-3.59,2.23-5.45,2.99c0.42,1.38,0.84,2.77,1.27,4.15
		c0.36,1.18,0.72,2.54,0.32,3.82c-0.54,1.72-2.16,2.4-2.89,4.01c-1.25,2.78,0.96,5.79,0.6,8.91c-0.2,1.76-1.17,3.24-1.95,4.75
		s-1.39,3.52-0.79,4.97c0.16,0.39,0.41,0.71,0.54,1.13c0.79,2.47-2.68,5.39-1.9,7.86c0.26,0.83,8.74,19.02,11.4,24.09l10.35,26.09
		c0,0,42.69,36.29,45.27,15.58l0.47,0.12c0,0,20.87-20.78,27.71-31.73c0,0,0,0,0,0c0.43-0.42,0.87-0.84,1.34-1.22
		c0.66-1.22,1.66-2.25,2.92-2.99C226.87,208.35,225.6,208.12,224.48,208.23z"/>
	<path class="st12" d="M94.99,269.71c0,0,17.95-45.27,45.01-66.68s83.8,10.06,83.8,10.06s16.7,23.46,12.82,56.72L94.99,269.71z"/>
</g>
<g id="OBJECTS">
</g>
</svg>
