<?xml version="1.0" encoding="utf-8"?>
<!-- Generator: Adobe Illustrator 25.4.1, SVG Export Plug-In . SVG Version: 6.00 Build 0)  -->
<svg version="1.1" id="Capa_1" xmlns="http://www.w3.org/2000/svg" xmlns:xlink="http://www.w3.org/1999/xlink" x="0px" y="0px"
	 viewBox="0 0 393 268.5" style="enable-background:new 0 0 393 268.5;" xml:space="preserve">
<style type="text/css">
	.st0{fill:#33BEF0;}
	.st1{fill:#F02B3C;}
	.st2{fill:none;stroke:#4E2583;stroke-width:3;stroke-linecap:round;stroke-linejoin:round;stroke-miterlimit:10;}
	.st3{fill:#FFFFFF;}
	.st4{fill:none;stroke:#3F3679;stroke-width:3;stroke-linecap:round;stroke-linejoin:round;stroke-miterlimit:10;}
	.st5{fill:#F48875;}
	.st6{fill:#0097CE;}
</style>
<rect class="st0" width="393" height="268.5"/>
<g id="Layer_1_00000072279158009460592050000008443207075297264818_">
	<g>
		<ellipse class="st1" cx="196.67" cy="199.51" rx="108.85" ry="31.92"/>
		<ellipse class="st2" cx="196.67" cy="199.51" rx="108.85" ry="31.92"/>
		<g>
			<g>
				<path class="st3" d="M103.8,122.6l2.69,5.45c0.28,0.56,0.81,0.95,1.43,1.04l6.01,0.87c1.56,0.23,2.18,2.14,1.05,3.24l-4.35,4.24
					c-0.45,0.44-0.65,1.07-0.55,1.68l1.03,5.99c0.27,1.55-1.36,2.74-2.76,2l-5.38-2.83c-0.55-0.29-1.22-0.29-1.77,0l-5.38,2.83
					c-1.39,0.73-3.02-0.45-2.76-2l1.03-5.99c0.11-0.62-0.1-1.25-0.55-1.68l-4.35-4.24c-1.13-1.1-0.51-3.02,1.05-3.24l6.01-0.87
					c0.62-0.09,1.15-0.48,1.43-1.04l2.69-5.45C101.09,121.18,103.1,121.18,103.8,122.6z"/>
				<path class="st2" d="M103.8,122.6l2.69,5.45c0.28,0.56,0.81,0.95,1.43,1.04l6.01,0.87c1.56,0.23,2.18,2.14,1.05,3.24l-4.35,4.24
					c-0.45,0.44-0.65,1.07-0.55,1.68l1.03,5.99c0.27,1.55-1.36,2.74-2.76,2l-5.38-2.83c-0.55-0.29-1.22-0.29-1.77,0l-5.38,2.83
					c-1.39,0.73-3.02-0.45-2.76-2l1.03-5.99c0.11-0.62-0.1-1.25-0.55-1.68l-4.35-4.24c-1.13-1.1-0.51-3.02,1.05-3.24l6.01-0.87
					c0.62-0.09,1.15-0.48,1.43-1.04l2.69-5.45C101.09,121.18,103.1,121.18,103.8,122.6z"/>
			</g>
			<g>
				<path class="st3" d="M291.95,122.6l2.69,5.45c0.28,0.56,0.81,0.95,1.43,1.04l6.01,0.87c1.56,0.23,2.18,2.14,1.05,3.24
					l-4.35,4.24c-0.45,0.44-0.65,1.07-0.55,1.68l1.03,5.99c0.27,1.55-1.36,2.74-2.76,2l-5.38-2.83c-0.55-0.29-1.22-0.29-1.77,0
					l-5.38,2.83c-1.39,0.73-3.02-0.45-2.76-2l1.03-5.99c0.11-0.62-0.1-1.25-0.55-1.68l-4.35-4.24c-1.13-1.1-0.51-3.02,1.05-3.24
					l6.01-0.87c0.62-0.09,1.15-0.48,1.43-1.04l2.69-5.45C289.24,121.18,291.26,121.18,291.95,122.6z"/>
				<path class="st2" d="M291.95,122.6l2.69,5.45c0.28,0.56,0.81,0.95,1.43,1.04l6.01,0.87c1.56,0.23,2.18,2.14,1.05,3.24
					l-4.35,4.24c-0.45,0.44-0.65,1.07-0.55,1.68l1.03,5.99c0.27,1.55-1.36,2.74-2.76,2l-5.38-2.83c-0.55-0.29-1.22-0.29-1.77,0
					l-5.38,2.83c-1.39,0.73-3.02-0.45-2.76-2l1.03-5.99c0.11-0.62-0.1-1.25-0.55-1.68l-4.35-4.24c-1.13-1.1-0.51-3.02,1.05-3.24
					l6.01-0.87c0.62-0.09,1.15-0.48,1.43-1.04l2.69-5.45C289.24,121.18,291.26,121.18,291.95,122.6z"/>
			</g>
			<g>
				<path class="st3" d="M103.8,38.98l2.69,5.45c0.28,0.56,0.81,0.95,1.43,1.04l6.01,0.87c1.56,0.23,2.18,2.14,1.05,3.24l-4.35,4.24
					c-0.45,0.44-0.65,1.07-0.55,1.68l1.03,5.99c0.27,1.55-1.36,2.74-2.76,2l-5.38-2.83c-0.55-0.29-1.22-0.29-1.77,0l-5.38,2.83
					c-1.39,0.73-3.02-0.45-2.76-2l1.03-5.99c0.11-0.62-0.1-1.25-0.55-1.68l-4.35-4.24c-1.13-1.1-0.51-3.02,1.05-3.24l6.01-0.87
					c0.62-0.09,1.15-0.48,1.43-1.04l2.69-5.45C101.09,37.56,103.1,37.56,103.8,38.98z"/>
				<path class="st2" d="M103.8,38.98l2.69,5.45c0.28,0.56,0.81,0.95,1.43,1.04l6.01,0.87c1.56,0.23,2.18,2.14,1.05,3.24l-4.35,4.24
					c-0.45,0.44-0.65,1.07-0.55,1.68l1.03,5.99c0.27,1.55-1.36,2.74-2.76,2l-5.38-2.83c-0.55-0.29-1.22-0.29-1.77,0l-5.38,2.83
					c-1.39,0.73-3.02-0.45-2.76-2l1.03-5.99c0.11-0.62-0.1-1.25-0.55-1.68l-4.35-4.24c-1.13-1.1-0.51-3.02,1.05-3.24l6.01-0.87
					c0.62-0.09,1.15-0.48,1.43-1.04l2.69-5.45C101.09,37.56,103.1,37.56,103.8,38.98z"/>
			</g>
			<g>
				<path class="st3" d="M291.95,38.98l2.69,5.45c0.28,0.56,0.81,0.95,1.43,1.04l6.01,0.87c1.56,0.23,2.18,2.14,1.05,3.24
					l-4.35,4.24c-0.45,0.44-0.65,1.07-0.55,1.68l1.03,5.99c0.27,1.55-1.36,2.74-2.76,2l-5.38-2.83c-0.55-0.29-1.22-0.29-1.77,0
					l-5.38,2.83c-1.39,0.73-3.02-0.45-2.76-2l1.03-5.99c0.11-0.62-0.1-1.25-0.55-1.68l-4.35-4.24c-1.13-1.1-0.51-3.02,1.05-3.24
					l6.01-0.87c0.62-0.09,1.15-0.48,1.43-1.04l2.69-5.45C289.24,37.56,291.26,37.56,291.95,38.98z"/>
				<path class="st2" d="M291.95,38.98l2.69,5.45c0.28,0.56,0.81,0.95,1.43,1.04l6.01,0.87c1.56,0.23,2.18,2.14,1.05,3.24
					l-4.35,4.24c-0.45,0.44-0.65,1.07-0.55,1.68l1.03,5.99c0.27,1.55-1.36,2.74-2.76,2l-5.38-2.83c-0.55-0.29-1.22-0.29-1.77,0
					l-5.38,2.83c-1.39,0.73-3.02-0.45-2.76-2l1.03-5.99c0.11-0.62-0.1-1.25-0.55-1.68l-4.35-4.24c-1.13-1.1-0.51-3.02,1.05-3.24
					l6.01-0.87c0.62-0.09,1.15-0.48,1.43-1.04l2.69-5.45C289.24,37.56,291.26,37.56,291.95,38.98z"/>
			</g>
		</g>
		<g>
			<path class="st1" d="M196.1,212.05c38.09,0,68.96-5.61,68.96-12.54V62.73H127.14v136.78
				C127.14,206.44,158.02,212.05,196.1,212.05z"/>
		</g>
		<g>
			<path class="st1" d="M142.14,199.51V62.73h-15v136.78c0,6.92,30.87,12.54,68.96,12.54c2.54,0,5.04-0.03,7.5-0.08
				C169.05,211.3,142.14,205.98,142.14,199.51z"/>
		</g>
		<g>
			<path class="st1" d="M250.06,199.51V62.73h15v136.78c0,6.92-30.87,12.54-68.96,12.54c-2.54,0-5.04-0.03-7.5-0.08
				C223.16,211.3,250.06,205.98,250.06,199.51z"/>
		</g>
		<g>
			<path class="st4" d="M196.1,212.05c38.09,0,68.96-5.61,68.96-12.54V62.73H127.14v136.78
				C127.14,206.44,158.02,212.05,196.1,212.05z"/>
		</g>
		<g>
			<rect x="137.12" y="65.58" class="st3" width="17.75" height="112.84"/>
			<rect x="170.52" y="65.58" class="st3" width="17.75" height="112.84"/>
			<rect x="203.93" y="65.58" class="st3" width="17.75" height="112.84"/>
			<rect x="237.34" y="65.58" class="st3" width="17.75" height="112.84"/>
		</g>
		<g>
			<rect x="137.12" y="65.58" class="st2" width="17.75" height="112.84"/>
			<rect x="170.52" y="65.58" class="st2" width="17.75" height="112.84"/>
			<rect x="203.93" y="65.58" class="st2" width="17.75" height="112.84"/>
			<rect x="237.34" y="65.58" class="st2" width="17.75" height="112.84"/>
		</g>
		<ellipse class="st1" cx="196.1" cy="62.73" rx="68.96" ry="12.54"/>
		<g>
			<path class="st5" d="M250.06,62.73c0-6.46-26.9-11.78-61.46-12.46c2.46-0.05,4.96-0.08,7.5-0.08c38.09,0,68.96,5.61,68.96,12.54
				s-30.87,12.54-68.96,12.54c-2.54,0-5.04-0.03-7.5-0.08C223.16,74.52,250.06,69.2,250.06,62.73z"/>
		</g>
		<ellipse class="st2" cx="196.1" cy="62.73" rx="68.96" ry="12.54"/>
		<g>
			<path class="st6" d="M196.1,170.81c-38.09,0-68.96-5.61-68.96-12.54v41.24c0,6.92,30.87,12.54,68.96,12.54
				c38.09,0,68.96-5.61,68.96-12.54v-41.24C265.06,165.2,234.19,170.81,196.1,170.81z"/>
		</g>
		<g>
			<path class="st0" d="M250.06,199.51v-33.44c9.38-2.14,15-4.85,15-7.8v41.24c0,6.92-30.87,12.54-68.96,12.54
				c-2.54,0-5.04-0.03-7.5-0.08C223.16,211.3,250.06,205.98,250.06,199.51z"/>
		</g>
		<g>
			<path class="st2" d="M196.1,170.81c-38.09,0-68.96-5.61-68.96-12.54v41.24c0,6.92,30.87,12.54,68.96,12.54
				c38.09,0,68.96-5.61,68.96-12.54v-41.24C265.06,165.2,234.19,170.81,196.1,170.81z"/>
		</g>
		<g>
			<g>
				<path class="st3" d="M197.81,179.24l2.69,5.45c0.28,0.56,0.81,0.95,1.43,1.04l6.01,0.87c1.56,0.23,2.18,2.14,1.05,3.24
					l-4.35,4.24c-0.45,0.44-0.65,1.07-0.55,1.68l1.03,5.99c0.27,1.55-1.36,2.74-2.76,2l-5.38-2.83c-0.55-0.29-1.22-0.29-1.77,0
					l-5.38,2.83c-1.39,0.73-3.02-0.45-2.76-2l1.03-5.99c0.11-0.62-0.1-1.25-0.55-1.68l-4.35-4.24c-1.13-1.1-0.51-3.02,1.05-3.24
					l6.01-0.87c0.62-0.09,1.15-0.48,1.43-1.04l2.69-5.45C195.09,177.83,197.11,177.83,197.81,179.24z"/>
				<path class="st2" d="M197.81,179.24l2.69,5.45c0.28,0.56,0.81,0.95,1.43,1.04l6.01,0.87c1.56,0.23,2.18,2.14,1.05,3.24
					l-4.35,4.24c-0.45,0.44-0.65,1.07-0.55,1.68l1.03,5.99c0.27,1.55-1.36,2.74-2.76,2l-5.38-2.83c-0.55-0.29-1.22-0.29-1.77,0
					l-5.38,2.83c-1.39,0.73-3.02-0.45-2.76-2l1.03-5.99c0.11-0.62-0.1-1.25-0.55-1.68l-4.35-4.24c-1.13-1.1-0.51-3.02,1.05-3.24
					l6.01-0.87c0.62-0.09,1.15-0.48,1.43-1.04l2.69-5.45C195.09,177.83,197.11,177.83,197.81,179.24z"/>
			</g>
			<g>
				<g>
					<path class="st3" d="M156.64,175.79l2.69,5.45c0.28,0.56,0.81,0.95,1.43,1.04l6.01,0.87c1.56,0.23,2.18,2.14,1.05,3.24
						l-4.35,4.24c-0.45,0.44-0.65,1.07-0.55,1.68l1.03,5.99c0.27,1.55-1.36,2.74-2.76,2l-5.38-2.83c-0.55-0.29-1.22-0.29-1.77,0
						l-5.38,2.83c-1.39,0.73-3.02-0.45-2.76-2l1.03-5.99c0.11-0.62-0.1-1.25-0.55-1.68l-4.35-4.24c-1.13-1.1-0.51-3.02,1.05-3.24
						l6.01-0.87c0.62-0.09,1.15-0.48,1.43-1.04l2.69-5.45C153.93,174.37,155.94,174.37,156.64,175.79z"/>
					<path class="st2" d="M156.64,175.79l2.69,5.45c0.28,0.56,0.81,0.95,1.43,1.04l6.01,0.87c1.56,0.23,2.18,2.14,1.05,3.24
						l-4.35,4.24c-0.45,0.44-0.65,1.07-0.55,1.68l1.03,5.99c0.27,1.55-1.36,2.74-2.76,2l-5.38-2.83c-0.55-0.29-1.22-0.29-1.77,0
						l-5.38,2.83c-1.39,0.73-3.02-0.45-2.76-2l1.03-5.99c0.11-0.62-0.1-1.25-0.55-1.68l-4.35-4.24c-1.13-1.1-0.51-3.02,1.05-3.24
						l6.01-0.87c0.62-0.09,1.15-0.48,1.43-1.04l2.69-5.45C153.93,174.37,155.94,174.37,156.64,175.79z"/>
				</g>
				<g>
					<path class="st3" d="M238.97,175.79l2.69,5.45c0.28,0.56,0.81,0.95,1.43,1.04l6.01,0.87c1.56,0.23,2.18,2.14,1.05,3.24
						l-4.35,4.24c-0.45,0.44-0.65,1.07-0.55,1.68l1.03,5.99c0.27,1.55-1.36,2.74-2.76,2l-5.38-2.83c-0.55-0.29-1.22-0.29-1.77,0
						l-5.38,2.83c-1.39,0.73-3.02-0.45-2.76-2l1.03-5.99c0.11-0.62-0.1-1.25-0.55-1.68l-4.35-4.24c-1.13-1.1-0.51-3.02,1.05-3.24
						l6.01-0.87c0.62-0.09,1.15-0.48,1.43-1.04l2.69-5.45C236.26,174.37,238.28,174.37,238.97,175.79z"/>
					<path class="st2" d="M238.97,175.79l2.69,5.45c0.28,0.56,0.81,0.95,1.43,1.04l6.01,0.87c1.56,0.23,2.18,2.14,1.05,3.24
						l-4.35,4.24c-0.45,0.44-0.65,1.07-0.55,1.68l1.03,5.99c0.27,1.55-1.36,2.74-2.76,2l-5.38-2.83c-0.55-0.29-1.22-0.29-1.77,0
						l-5.38,2.83c-1.39,0.73-3.02-0.45-2.76-2l1.03-5.99c0.11-0.62-0.1-1.25-0.55-1.68l-4.35-4.24c-1.13-1.1-0.51-3.02,1.05-3.24
						l6.01-0.87c0.62-0.09,1.15-0.48,1.43-1.04l2.69-5.45C236.26,174.37,238.28,174.37,238.97,175.79z"/>
				</g>
			</g>
		</g>
	</g>
</g>
</svg>
