<?xml version="1.0" encoding="utf-8"?>
<!-- Generator: Adobe Illustrator 26.5.0, SVG Export Plug-In . SVG Version: 6.00 Build 0)  -->
<svg version="1.1" id="Capa_1" xmlns="http://www.w3.org/2000/svg" xmlns:xlink="http://www.w3.org/1999/xlink" x="0px" y="0px"
	 viewBox="0 0 392 268" enable-background="new 0 0 392 268" xml:space="preserve">
<g>
	<rect fill="#EE293C" width="392" height="268"/>
	<polygon fill="#D31818" points="369.947,102.784 363.582,119.754 346.612,102.784 346.924,108.712 343.818,104.966 
		333.594,119.752 315.615,101.773 309.761,110.154 315.203,131.108 313.22,131.306 308.963,135.43 294.463,134 292.172,120.639 
		295.194,118.335 278.632,101.773 276.802,116.551 276.104,116.666 268.656,122.794 247.635,101.773 252.956,125.22 262.916,125.22 
		245.374,132.104 238.766,129.222 215.308,105.764 215.808,131.353 212.248,132.503 196.723,128.906 198.732,117.273 
		185.243,102.784 166.352,110.154 166.352,133.851 160.219,136.375 165.088,131.506 137.617,104.034 134.025,117.205 
		140.265,126.497 139.017,126.987 113.671,101.64 110.536,127.506 103.826,120.797 102.328,121.913 85.291,104.876 67.659,108.065 
		67.659,133.247 55.668,109.755 38.394,108.065 33.304,121.567 46.373,139.366 43.375,145.362 31.456,149.798 20.235,149.835 
		142.777,268.344 392.267,268.344 392.267,139.103 	"/>
	<g>
		<g>
			<path fill="#0D5EB6" stroke="#000000" stroke-width="2" stroke-miterlimit="10" d="M55.761,145.129
				c0,1.54-0.409,3.114-1.225,4.724c-0.817,1.61-1.867,3.057-3.149,4.34c-1.284,1.283-2.719,2.333-4.305,3.149
				c-1.587,0.816-3.149,1.225-4.689,1.225c-10.452,0-18.57-4.479-24.355-13.438l12.178-6.509c0.466,0.747,1.05,1.505,1.75,2.274
				s1.435,1.47,2.205,2.1c0.77,0.63,1.55,1.155,2.344,1.575c0.793,0.42,1.516,0.63,2.17,0.63c1.445,0,2.17-1.073,2.17-3.22
				c0-0.513-0.21-1.025-0.63-1.54c-0.42-0.513-0.969-1.015-1.645-1.505c-0.678-0.489-1.447-0.979-2.31-1.47
				c-0.864-0.489-1.739-0.968-2.625-1.435c-1.727-1.025-3.313-2.215-4.759-3.569c-1.447-1.353-2.684-2.799-3.71-4.339
				c-1.026-1.54-1.831-3.138-2.414-4.794c-0.584-1.655-0.875-3.324-0.875-5.004c0-2.333,0.408-4.467,1.225-6.404
				c0.816-1.936,1.936-3.592,3.359-4.969c1.423-1.375,3.126-2.45,5.109-3.219c1.982-0.77,4.14-1.155,6.474-1.155
				c1.819,0,3.615,0.21,5.389,0.63s3.43,1.015,4.97,1.785c1.54,0.77,2.915,1.691,4.129,2.764c1.213,1.074,2.17,2.24,2.87,3.5
				l-8.679,9.519c-0.42-0.746-0.945-1.458-1.575-2.135c-0.63-0.676-1.295-1.271-1.994-1.785c-0.7-0.513-1.424-0.921-2.17-1.225
				c-0.747-0.303-1.446-0.455-2.1-0.455c-2.334,0-3.499,1.284-3.499,3.849c0,1.727,1.749,3.64,5.249,5.739
				c2.52,1.54,4.572,2.894,6.159,4.059c1.585,1.167,2.799,2.169,3.639,3.009C53.987,135.518,55.761,139.95,55.761,145.129z"/>
			<path fill="#0D5EB6" stroke="#000000" stroke-width="2" stroke-miterlimit="10" d="M73.816,102.577
				c5.505,0,9.739,1.691,12.702,5.074c2.963,3.384,4.444,8.201,4.444,14.453c0,9.705-3.966,15.958-11.897,18.756
				c-1.96,0.747-3.967,1.12-6.02,1.12l0.49,16.587H56.949v-54.94l13.928-0.84c0.513-0.046,0.955-0.093,1.329-0.14
				c0.373-0.046,0.676-0.07,0.91-0.07h0.77H73.816z M72.557,128.612c1.726-0.14,3.23-0.711,4.514-1.715
				c1.283-1.002,1.925-2.32,1.925-3.954c0-2.1-0.7-3.791-2.1-5.074c-1.399-1.283-3.149-1.924-5.249-1.924h-0.14L72.557,128.612z"/>
			<path fill="#0D5EB6" stroke="#000000" stroke-width="2" stroke-miterlimit="10" d="M112.869,102.577v55.99H95.232v-55.99H112.869
				z"/>
			<path fill="#0D5EB6" stroke="#000000" stroke-width="2" stroke-miterlimit="10" d="M125.186,102.577
				c8.491,0,14.907,2.508,19.246,7.523c4.34,5.016,6.509,12.237,6.509,21.661c0,8.678-2.158,15.316-6.474,19.912
				c-4.316,4.596-10.743,6.894-19.281,6.894c-1.447,0-2.789-0.058-4.024-0.175c-1.237-0.116-2.369-0.291-3.395-0.525l-2.729-54.03
				C117.977,102.997,121.359,102.577,125.186,102.577z M130.015,141.069c1.119-0.325,2.122-0.851,3.009-1.574
				c0.886-0.723,1.646-1.575,2.275-2.555s1.119-2.053,1.47-3.22c0.35-1.166,0.524-2.355,0.524-3.569c0-1.212-0.187-2.379-0.56-3.499
				c-0.374-1.12-0.91-2.123-1.61-3.01c-0.699-0.886-1.517-1.632-2.449-2.239c-0.934-0.606-1.96-1.003-3.079-1.19L130.015,141.069z"
				/>
			<path fill="#0D5EB6" stroke="#000000" stroke-width="2" stroke-miterlimit="10" d="M185.934,158.566h-30.515v-55.08h29.114
				v14.138l-14.558,0.91l0.49,7.279h13.647v11.338h-12.737v6.369h14.558V158.566z"/>
			<path fill="#0D5EB6" stroke="#000000" stroke-width="2" stroke-miterlimit="10" d="M225.477,156.327l-12.528,1.819l-9.308-14.277
				v13.787l-14.697,0.91l-1.54-55.22c-0.28-0.046-0.42-0.14-0.42-0.28c0-0.326,1.562-0.49,4.689-0.49
				c5.085,0,9.483,0.199,13.192,0.595c3.709,0.397,6.754,1.272,9.133,2.625c2.38,1.354,4.141,3.313,5.284,5.879
				c1.144,2.566,1.715,6.019,1.715,10.358c0,4.619-2.076,9.075-6.229,13.367L225.477,156.327z M202.311,126.512
				c3.545-0.7,5.319-2.355,5.319-4.969v-0.42c-0.141-1.353-0.725-2.52-1.75-3.499c-1.026-0.98-2.52-1.586-4.479-1.82
				L202.311,126.512z"/>
			<path fill="#0D5EB6" stroke="#000000" stroke-width="2" stroke-miterlimit="10" d="M277.825,158.566h-12.948v-25.405
				l-9.448,16.377l-7.769-12.527v20.716h-14.207v-53.68l13.787-1.05l6.929,19.386l9.028-19.806h14.628V158.566z"/>
			<path fill="#0D5EB6" stroke="#000000" stroke-width="2" stroke-miterlimit="10" d="M326.815,156.957h-16.798l-2.169-9.729h-8.818
				l-1.82,11.338h-16.307l12.808-55.99h21.206L326.815,156.957z M306.799,132.531l-2.939-15.397l-3.08,15.397H306.799z"/>
			<path fill="#0D5EB6" stroke="#000000" stroke-width="2" stroke-miterlimit="10" d="M369.577,158.146l-13.229-0.84l-10.708-17.986
				l1.33,19.246h-14.558v-54.31h13.647l9.868,22.676v-24.355l13.648,0.84V158.146z"/>
		</g>
	</g>
	<g>
		<path fill="#FFFFFF" d="M104.093,173.012h2.005v7.68h8.569v-7.68h2.005v16.385h-2.005v-6.858h-8.569v6.858h-2.005V173.012z"/>
		<path fill="#FFFFFF" d="M127.293,188.901c-1.028-0.429-1.897-1.014-2.606-1.757c-0.71-0.743-1.266-1.628-1.667-2.652
			s-0.603-2.123-0.603-3.294s0.201-2.269,0.603-3.294c0.401-1.024,0.957-1.906,1.667-2.646c0.709-0.74,1.578-1.323,2.606-1.752
			c1.028-0.428,2.144-0.642,3.345-0.642c1.142,0,2.215,0.203,3.221,0.608s1.871,0.967,2.596,1.684s1.297,1.597,1.717,2.641
			c0.421,1.043,0.631,2.177,0.631,3.4s-0.21,2.357-0.631,3.401c-0.42,1.043-0.992,1.926-1.717,2.646s-1.59,1.283-2.596,1.688
			s-2.079,0.608-3.221,0.608C129.437,189.543,128.321,189.329,127.293,188.901z M133.02,187.15c0.747-0.319,1.393-0.759,1.937-1.318
			c0.545-0.559,0.975-1.24,1.29-2.044c0.315-0.803,0.473-1.666,0.473-2.59c0-0.923-0.157-1.786-0.473-2.59s-0.745-1.484-1.29-2.044
			c-0.544-0.56-1.189-0.996-1.937-1.312s-1.541-0.474-2.382-0.474c-0.713,0-1.391,0.109-2.032,0.327
			c-0.643,0.218-1.211,0.523-1.706,0.918c-0.496,0.394-0.924,0.855-1.284,1.385s-0.636,1.116-0.827,1.763
			c-0.191,0.646-0.287,1.321-0.287,2.026c0,0.886,0.149,1.722,0.45,2.506c0.3,0.784,0.715,1.466,1.244,2.044
			s1.179,1.036,1.948,1.374s1.601,0.507,2.494,0.507C131.479,187.629,132.272,187.469,133.02,187.15z"/>
		<path fill="#FFFFFF" d="M160.659,173.012v16.385h-2.004v-12.556h-0.034l-5.337,9.256h-1.363l-5.338-9.256h-0.033v12.556h-2.005
			v-16.385h2.016l6.014,10.597h0.067l6.002-10.597H160.659z"/>
		<path fill="#FFFFFF" d="M167.113,173.012h10.022v1.847h-8.007v5.484h6.577v1.847h-6.577v5.36h8.491v1.847h-10.507V173.012z"/>
		<path fill="#FFFFFF" d="M187.477,189.183c-0.811-0.226-1.558-0.567-2.24-1.024c-0.684-0.458-1.276-1.012-1.779-1.661
			s-0.896-1.421-1.177-2.314c-0.282-0.894-0.423-1.861-0.423-2.905c0-0.931,0.113-1.818,0.338-2.663
			c0.226-0.845,0.567-1.616,1.025-2.314s1.01-1.303,1.655-1.812c0.646-0.511,1.407-0.909,2.285-1.194
			c0.879-0.285,1.832-0.428,2.86-0.428c0.773,0,1.526,0.105,2.258,0.315c0.732,0.21,1.459,0.554,2.18,1.03s1.37,1.072,1.948,1.785
			l-1.498,1.25c-0.631-0.788-1.368-1.396-2.213-1.824s-1.736-0.643-2.675-0.643c-1.224,0-2.297,0.278-3.22,0.834
			c-0.924,0.556-1.63,1.323-2.117,2.303c-0.488,0.979-0.732,2.1-0.732,3.361c0,0.766,0.1,1.482,0.299,2.15
			c0.198,0.669,0.48,1.256,0.845,1.763c0.363,0.507,0.795,0.942,1.295,1.307c0.499,0.364,1.057,0.64,1.672,0.827
			s1.269,0.282,1.959,0.282c1.938,0,3.566-0.815,4.888-2.444l1.498,1.262c-0.766,0.953-1.68,1.708-2.742,2.264
			c-1.062,0.555-2.276,0.833-3.644,0.833C189.136,189.521,188.288,189.408,187.477,189.183z"/>
		<path fill="#FFFFFF" d="M205.823,188.901c-1.028-0.429-1.897-1.014-2.606-1.757c-0.71-0.743-1.266-1.628-1.667-2.652
			s-0.603-2.123-0.603-3.294s0.201-2.269,0.603-3.294c0.401-1.024,0.957-1.906,1.667-2.646c0.709-0.74,1.578-1.323,2.606-1.752
			c1.029-0.428,2.144-0.642,3.345-0.642c1.142,0,2.215,0.203,3.221,0.608s1.871,0.967,2.596,1.684s1.297,1.597,1.718,2.641
			c0.42,1.043,0.63,2.177,0.63,3.4s-0.21,2.357-0.63,3.401c-0.421,1.043-0.993,1.926-1.718,2.646s-1.59,1.283-2.596,1.688
			s-2.079,0.608-3.221,0.608C207.967,189.543,206.853,189.329,205.823,188.901z M211.55,187.15c0.747-0.319,1.393-0.759,1.937-1.318
			c0.545-0.559,0.975-1.24,1.29-2.044c0.315-0.803,0.473-1.666,0.473-2.59c0-0.923-0.157-1.786-0.473-2.59s-0.745-1.484-1.29-2.044
			c-0.544-0.56-1.189-0.996-1.937-1.312s-1.541-0.474-2.382-0.474c-0.713,0-1.391,0.109-2.032,0.327
			c-0.643,0.218-1.211,0.523-1.706,0.918c-0.496,0.394-0.924,0.855-1.284,1.385s-0.636,1.116-0.827,1.763
			c-0.191,0.646-0.287,1.321-0.287,2.026c0,0.886,0.149,1.722,0.45,2.506c0.3,0.784,0.715,1.466,1.244,2.044
			s1.179,1.036,1.948,1.374s1.601,0.507,2.494,0.507C210.009,187.629,210.803,187.469,211.55,187.15z"/>
		<path fill="#FFFFFF" d="M239.19,173.012v16.385h-2.005v-12.556h-0.034l-5.337,9.256h-1.363l-5.338-9.256h-0.033v12.556h-2.005
			v-16.385h2.016l6.014,10.597h0.067l6.002-10.597H239.19z"/>
		<path fill="#FFFFFF" d="M245.757,173.012h2.016v16.385h-2.016V173.012z"/>
		<path fill="#FFFFFF" d="M267.62,173.012v16.385h-2.038l-9.178-12.916h-0.045v12.916h-2.005v-16.385h1.982l9.233,13.052h0.046
			v-13.052H267.62z"/>
		<path fill="#FFFFFF" d="M287.914,180.951v6.475c-0.773,0.661-1.716,1.175-2.827,1.543c-1.11,0.367-2.293,0.552-3.547,0.552
			c-1.171,0-2.258-0.195-3.26-0.586c-1.003-0.391-1.866-0.94-2.591-1.649c-0.724-0.71-1.293-1.584-1.706-2.624
			c-0.412-1.04-0.619-2.183-0.619-3.429c0-1.201,0.193-2.318,0.58-3.351s0.928-1.918,1.622-2.657s1.55-1.317,2.567-1.734
			c1.017-0.417,2.13-0.625,3.339-0.625c1.171,0,2.297,0.21,3.378,0.631c1.081,0.42,2.038,1.066,2.872,1.937l-1.431,1.239
			c-1.299-1.262-2.909-1.893-4.831-1.893c-0.855,0-1.653,0.154-2.393,0.462s-1.374,0.738-1.903,1.29s-0.946,1.232-1.25,2.043
			c-0.304,0.812-0.456,1.697-0.456,2.658c0,1.224,0.25,2.321,0.749,3.294c0.499,0.972,1.212,1.734,2.14,2.286
			c0.927,0.552,1.991,0.827,3.192,0.827c1.779,0,3.235-0.417,4.369-1.25v-3.592h-4.752v-1.847H287.914z"/>
	</g>
</g>
</svg>
