<?xml version="1.0" encoding="utf-8"?>
<!-- Generator: Adobe Illustrator 25.0.0, SVG Export Plug-In . SVG Version: 6.00 Build 0)  -->
<svg version="1.1" id="Capa_1" xmlns="http://www.w3.org/2000/svg" xmlns:xlink="http://www.w3.org/1999/xlink" x="0px" y="0px"
	 viewBox="0 0 393 268.5" style="enable-background:new 0 0 393 268.5;" xml:space="preserve">
<style type="text/css">
	.st0{fill:#F02B3C;}
	.st1{clip-path:url(#SVGID_2_);}
	.st2{fill:#E10D17;}
	.st3{fill:#FFFFFF;}
</style>
<rect class="st0" width="393" height="268.5"/>
<g>
	<defs>
		<rect id="SVGID_1_" x="0.84" y="0.16" width="393" height="268.5"/>
	</defs>
	<clipPath id="SVGID_2_">
		<use xlink:href="#SVGID_1_"  style="overflow:visible;"/>
	</clipPath>
	<g class="st1">
		<g>
			<path class="st2" d="M45.02,395.16c1.55-3.13,1.79-6.95-0.22-9.73c-1.42-1.97-3.85-3.16-6.28-3.12
				c-2.43,0.04-4.81,1.28-6.26,3.23c-1.45-1.95-3.83-3.19-6.26-3.23c-2.43-0.04-4.86,1.15-6.28,3.12c-2.01,2.78-1.77,6.6-0.22,9.73
				H45.02z"/>
			<path class="st2" d="M92.26,395.16c1.55-3.13,1.79-6.95-0.22-9.73c-1.42-1.97-3.85-3.16-6.28-3.12
				c-2.43,0.04-4.81,1.28-6.26,3.23c-1.45-1.95-3.83-3.19-6.26-3.23c-2.43-0.04-4.86,1.15-6.28,3.12c-2.01,2.78-1.77,6.6-0.22,9.73
				H92.26z"/>
			<path class="st2" d="M139.51,395.16c1.55-3.13,1.79-6.95-0.22-9.73c-1.42-1.97-3.85-3.16-6.28-3.12
				c-2.43,0.04-4.81,1.28-6.26,3.23c-1.45-1.95-3.83-3.19-6.26-3.23c-2.43-0.04-4.86,1.15-6.28,3.12c-2.01,2.78-1.77,6.6-0.22,9.73
				H139.51z"/>
			<path class="st2" d="M186.75,395.16c1.55-3.13,1.79-6.95-0.22-9.73c-1.42-1.97-3.85-3.16-6.28-3.12
				c-2.43,0.04-4.81,1.28-6.26,3.23c-1.45-1.95-3.83-3.19-6.26-3.23c-2.43-0.04-4.86,1.15-6.28,3.12c-2.01,2.78-1.77,6.6-0.22,9.73
				H186.75z"/>
			<path class="st2" d="M234,395.16c1.55-3.13,1.79-6.95-0.22-9.73c-1.42-1.97-3.85-3.16-6.28-3.12c-2.43,0.04-4.81,1.28-6.26,3.23
				c-1.45-1.95-3.83-3.19-6.26-3.23c-2.43-0.04-4.86,1.15-6.28,3.12c-2.01,2.78-1.77,6.6-0.22,9.73H234z"/>
			<path class="st2" d="M281.24,395.16c1.55-3.13,1.79-6.95-0.22-9.73c-1.42-1.97-3.85-3.16-6.28-3.12
				c-2.43,0.04-4.81,1.28-6.26,3.23c-1.45-1.95-3.83-3.19-6.26-3.23c-2.43-0.04-4.86,1.15-6.28,3.12c-2.01,2.78-1.77,6.6-0.22,9.73
				H281.24z"/>
			<path class="st2" d="M328.49,395.16c1.55-3.13,1.79-6.95-0.22-9.73c-1.42-1.97-3.85-3.16-6.28-3.12
				c-2.43,0.04-4.81,1.28-6.26,3.23c-1.45-1.95-3.83-3.19-6.26-3.23c-2.43-0.04-4.86,1.15-6.28,3.12c-2.01,2.78-1.77,6.6-0.22,9.73
				H328.49z"/>
			<path class="st2" d="M375.73,395.16c1.55-3.13,1.79-6.95-0.22-9.73c-1.42-1.97-3.85-3.16-6.28-3.12
				c-2.43,0.04-4.81,1.28-6.26,3.23c-1.45-1.95-3.83-3.19-6.26-3.23c-2.43-0.04-4.86,1.15-6.28,3.12c-2.01,2.78-1.77,6.6-0.22,9.73
				H375.73z"/>
			<path class="st2" d="M21.17,355.18c-1.42-1.97-3.85-3.16-6.28-3.12c-2.43,0.04-4.81,1.28-6.26,3.23
				c-1.45-1.95-3.83-3.19-6.26-3.23c-0.51-0.01-1.03,0.04-1.53,0.14v18.07c2.45,1.64,5.32,2.91,7.79,4.15
				c3.84-1.92,8.68-3.94,11.36-7.3C22.68,363.76,23.69,358.66,21.17,355.18z"/>
			<path class="st2" d="M68.42,355.18c-1.42-1.97-3.85-3.16-6.28-3.12c-2.43,0.04-4.81,1.28-6.26,3.23
				c-1.45-1.95-3.83-3.19-6.26-3.23c-2.43-0.04-4.86,1.15-6.28,3.12c-2.52,3.48-1.5,8.58,1.18,11.94c2.68,3.36,7.52,5.38,11.37,7.3
				c3.84-1.92,8.68-3.94,11.36-7.3C69.92,363.76,70.94,358.66,68.42,355.18z"/>
			<path class="st2" d="M115.66,355.18c-1.42-1.97-3.85-3.16-6.28-3.12c-2.43,0.04-4.81,1.28-6.26,3.23
				c-1.45-1.95-3.83-3.19-6.26-3.23c-2.43-0.04-4.86,1.15-6.28,3.12c-2.52,3.48-1.5,8.58,1.18,11.94c2.68,3.36,7.52,5.38,11.37,7.3
				c3.84-1.92,8.68-3.94,11.36-7.3C117.17,363.76,118.18,358.66,115.66,355.18z"/>
			<path class="st2" d="M162.91,355.18c-1.42-1.97-3.85-3.16-6.28-3.12c-2.43,0.04-4.81,1.28-6.26,3.23
				c-1.45-1.95-3.83-3.19-6.26-3.23c-2.43-0.04-4.86,1.15-6.28,3.12c-2.52,3.48-1.5,8.58,1.18,11.94c2.68,3.36,7.52,5.38,11.37,7.3
				c3.84-1.92,8.68-3.94,11.36-7.3C164.41,363.76,165.43,358.66,162.91,355.18z"/>
			<path class="st2" d="M210.15,355.18c-1.42-1.97-3.85-3.16-6.28-3.12c-2.43,0.04-4.81,1.28-6.26,3.23
				c-1.45-1.95-3.83-3.19-6.26-3.23c-2.43-0.04-4.86,1.15-6.28,3.12c-2.52,3.48-1.5,8.58,1.18,11.94c2.68,3.36,7.52,5.38,11.36,7.3
				c3.84-1.92,8.68-3.94,11.37-7.3C211.66,363.76,212.67,358.66,210.15,355.18z"/>
			<path class="st2" d="M257.4,355.18c-1.42-1.97-3.85-3.16-6.28-3.12c-2.43,0.04-4.81,1.28-6.26,3.23
				c-1.45-1.95-3.83-3.19-6.26-3.23c-2.43-0.04-4.86,1.15-6.28,3.12c-2.52,3.48-1.5,8.58,1.18,11.94c2.68,3.36,7.52,5.38,11.36,7.3
				c3.84-1.92,8.68-3.94,11.37-7.3C258.9,363.76,259.92,358.66,257.4,355.18z"/>
			<path class="st2" d="M304.64,355.18c-1.42-1.97-3.85-3.16-6.28-3.12c-2.43,0.04-4.81,1.28-6.26,3.23
				c-1.45-1.95-3.83-3.19-6.26-3.23c-2.43-0.04-4.86,1.15-6.28,3.12c-2.52,3.48-1.5,8.58,1.18,11.94c2.68,3.36,7.52,5.38,11.36,7.3
				c3.84-1.92,8.68-3.94,11.37-7.3C306.15,363.76,307.16,358.66,304.64,355.18z"/>
			<path class="st2" d="M351.89,355.18c-1.42-1.97-3.85-3.16-6.28-3.12c-2.43,0.04-4.81,1.28-6.26,3.23
				c-1.45-1.95-3.83-3.19-6.26-3.23c-2.43-0.04-4.86,1.15-6.28,3.12c-2.52,3.48-1.5,8.58,1.18,11.94c2.68,3.36,7.52,5.38,11.36,7.3
				c3.84-1.92,8.68-3.94,11.37-7.3C353.39,363.76,354.41,358.66,351.89,355.18z"/>
			<path class="st2" d="M395.84,352.63c-0.95-0.39-1.97-0.59-2.99-0.57c-2.43,0.04-4.81,1.28-6.26,3.23
				c-1.45-1.95-3.83-3.19-6.26-3.23c-2.43-0.04-4.86,1.15-6.28,3.12c-2.52,3.48-1.5,8.58,1.18,11.94c2.68,3.36,7.52,5.38,11.36,7.3
				c2.98-1.49,6.54-3.03,9.25-5.21V352.63z"/>
			<path class="st2" d="M44.8,324.94c-1.42-1.97-3.85-3.16-6.28-3.12c-2.43,0.04-4.81,1.28-6.26,3.23
				c-1.45-1.95-3.83-3.19-6.26-3.23c-2.43-0.04-4.86,1.15-6.28,3.12c-2.52,3.48-1.5,8.58,1.18,11.94c2.68,3.36,7.52,5.38,11.36,7.3
				c3.84-1.92,8.68-3.94,11.37-7.3C46.3,333.52,47.32,328.42,44.8,324.94z"/>
			<path class="st2" d="M92.04,324.94c-1.42-1.97-3.85-3.16-6.28-3.12c-2.43,0.04-4.81,1.28-6.26,3.23
				c-1.45-1.95-3.83-3.19-6.26-3.23c-2.43-0.04-4.86,1.15-6.28,3.12c-2.52,3.48-1.5,8.58,1.18,11.94c2.68,3.36,7.52,5.38,11.36,7.3
				c3.84-1.92,8.68-3.94,11.37-7.3C93.55,333.52,94.56,328.42,92.04,324.94z"/>
			<path class="st2" d="M139.29,324.94c-1.42-1.97-3.85-3.16-6.28-3.12c-2.43,0.04-4.81,1.28-6.26,3.23
				c-1.45-1.95-3.83-3.19-6.26-3.23c-2.43-0.04-4.86,1.15-6.28,3.12c-2.52,3.48-1.5,8.58,1.18,11.94c2.68,3.36,7.52,5.38,11.36,7.3
				c3.84-1.92,8.68-3.94,11.37-7.3C140.79,333.52,141.81,328.42,139.29,324.94z"/>
			<path class="st2" d="M186.53,324.94c-1.42-1.97-3.85-3.16-6.28-3.12c-2.43,0.04-4.81,1.28-6.26,3.23
				c-1.45-1.95-3.83-3.19-6.26-3.23c-2.43-0.04-4.86,1.15-6.28,3.12c-2.52,3.48-1.5,8.58,1.18,11.94c2.68,3.36,7.52,5.38,11.37,7.3
				c3.84-1.92,8.68-3.94,11.37-7.3C188.04,333.52,189.05,328.42,186.53,324.94z"/>
			<path class="st2" d="M233.78,324.94c-1.42-1.97-3.85-3.16-6.28-3.12c-2.43,0.04-4.81,1.28-6.26,3.23
				c-1.45-1.95-3.83-3.19-6.26-3.23c-2.43-0.04-4.86,1.15-6.28,3.12c-2.52,3.48-1.5,8.58,1.18,11.94c2.68,3.36,7.52,5.38,11.37,7.3
				c3.84-1.92,8.68-3.94,11.36-7.3C235.28,333.52,236.3,328.42,233.78,324.94z"/>
			<path class="st2" d="M281.02,324.94c-1.42-1.97-3.85-3.16-6.28-3.12c-2.43,0.04-4.81,1.28-6.26,3.23
				c-1.45-1.95-3.83-3.19-6.26-3.23c-2.43-0.04-4.86,1.15-6.28,3.12c-2.52,3.48-1.5,8.58,1.18,11.94c2.68,3.36,7.52,5.38,11.37,7.3
				c3.84-1.92,8.68-3.94,11.37-7.3C282.53,333.52,283.54,328.42,281.02,324.94z"/>
			<path class="st2" d="M328.27,324.94c-1.42-1.97-3.85-3.16-6.28-3.12c-2.43,0.04-4.81,1.28-6.26,3.23
				c-1.45-1.95-3.83-3.19-6.26-3.23c-2.43-0.04-4.86,1.15-6.28,3.12c-2.52,3.48-1.5,8.58,1.18,11.94c2.68,3.36,7.52,5.38,11.37,7.3
				c3.84-1.92,8.68-3.94,11.37-7.3C329.77,333.52,330.79,328.42,328.27,324.94z"/>
			<path class="st2" d="M375.51,324.94c-1.42-1.97-3.85-3.16-6.28-3.12c-2.43,0.04-4.81,1.28-6.26,3.23
				c-1.45-1.95-3.83-3.19-6.26-3.23c-2.43-0.04-4.86,1.15-6.28,3.12c-2.52,3.48-1.5,8.58,1.18,11.94c2.68,3.36,7.52,5.38,11.37,7.3
				c3.84-1.92,8.68-3.94,11.37-7.3C377.02,333.52,378.03,328.42,375.51,324.94z"/>
			<path class="st2" d="M21.17,294.69c-1.42-1.97-3.85-3.16-6.28-3.12c-2.43,0.04-4.81,1.28-6.26,3.23
				c-1.45-1.95-3.83-3.19-6.26-3.23c-0.51-0.01-1.03,0.04-1.53,0.14v18.07c2.45,1.64,5.32,2.91,7.79,4.15
				c3.84-1.92,8.68-3.94,11.36-7.3C22.68,303.27,23.69,298.17,21.17,294.69z"/>
			<path class="st2" d="M68.42,294.69c-1.42-1.97-3.85-3.16-6.28-3.12c-2.43,0.04-4.81,1.28-6.26,3.23
				c-1.45-1.95-3.83-3.19-6.26-3.23c-2.43-0.04-4.86,1.15-6.28,3.12c-2.52,3.48-1.5,8.58,1.18,11.94c2.68,3.36,7.52,5.38,11.37,7.3
				c3.84-1.92,8.68-3.94,11.36-7.3C69.92,303.27,70.94,298.17,68.42,294.69z"/>
			<path class="st2" d="M115.66,294.69c-1.42-1.97-3.85-3.16-6.28-3.12c-2.43,0.04-4.81,1.28-6.26,3.23
				c-1.45-1.95-3.83-3.19-6.26-3.23c-2.43-0.04-4.86,1.15-6.28,3.12c-2.52,3.48-1.5,8.58,1.18,11.94c2.68,3.36,7.52,5.38,11.37,7.3
				c3.84-1.92,8.68-3.94,11.36-7.3C117.17,303.27,118.18,298.17,115.66,294.69z"/>
			<path class="st2" d="M162.91,294.69c-1.42-1.97-3.85-3.16-6.28-3.12c-2.43,0.04-4.81,1.28-6.26,3.23
				c-1.45-1.95-3.83-3.19-6.26-3.23c-2.43-0.04-4.86,1.15-6.28,3.12c-2.52,3.48-1.5,8.58,1.18,11.94c2.68,3.36,7.52,5.38,11.37,7.3
				c3.84-1.92,8.68-3.94,11.36-7.3C164.41,303.27,165.43,298.17,162.91,294.69z"/>
			<path class="st2" d="M210.15,294.69c-1.42-1.97-3.85-3.16-6.28-3.12c-2.43,0.04-4.81,1.28-6.26,3.23
				c-1.45-1.95-3.83-3.19-6.26-3.23c-2.43-0.04-4.86,1.15-6.28,3.12c-2.52,3.48-1.5,8.58,1.18,11.94c2.68,3.36,7.52,5.38,11.36,7.3
				c3.84-1.92,8.68-3.94,11.37-7.3C211.66,303.27,212.67,298.17,210.15,294.69z"/>
			<path class="st2" d="M257.4,294.69c-1.42-1.97-3.85-3.16-6.28-3.12c-2.43,0.04-4.81,1.28-6.26,3.23
				c-1.45-1.95-3.83-3.19-6.26-3.23c-2.43-0.04-4.86,1.15-6.28,3.12c-2.52,3.48-1.5,8.58,1.18,11.94c2.68,3.36,7.52,5.38,11.36,7.3
				c3.84-1.92,8.68-3.94,11.37-7.3C258.9,303.27,259.92,298.17,257.4,294.69z"/>
			<path class="st2" d="M304.64,294.69c-1.42-1.97-3.85-3.16-6.28-3.12c-2.43,0.04-4.81,1.28-6.26,3.23
				c-1.45-1.95-3.83-3.19-6.26-3.23c-2.43-0.04-4.86,1.15-6.28,3.12c-2.52,3.48-1.5,8.58,1.18,11.94c2.68,3.36,7.52,5.38,11.36,7.3
				c3.84-1.92,8.68-3.94,11.37-7.3C306.15,303.27,307.16,298.17,304.64,294.69z"/>
			<path class="st2" d="M351.89,294.69c-1.42-1.97-3.85-3.16-6.28-3.12c-2.43,0.04-4.81,1.28-6.26,3.23
				c-1.45-1.95-3.83-3.19-6.26-3.23c-2.43-0.04-4.86,1.15-6.28,3.12c-2.52,3.48-1.5,8.58,1.18,11.94c2.68,3.36,7.52,5.38,11.36,7.3
				c3.84-1.92,8.68-3.94,11.37-7.3C353.39,303.27,354.41,298.17,351.89,294.69z"/>
			<path class="st2" d="M395.84,292.14c-0.95-0.39-1.97-0.59-2.99-0.57c-2.43,0.04-4.81,1.28-6.26,3.23
				c-1.45-1.95-3.83-3.19-6.26-3.23c-2.43-0.04-4.86,1.15-6.28,3.12c-2.52,3.48-1.5,8.58,1.18,11.94c2.68,3.36,7.52,5.38,11.36,7.3
				c2.98-1.49,6.54-3.03,9.25-5.21V292.14z"/>
			<path class="st2" d="M44.8,264.45c-1.42-1.97-3.85-3.16-6.28-3.12c-2.43,0.04-4.81,1.28-6.26,3.23
				c-1.45-1.95-3.83-3.19-6.26-3.23c-2.43-0.04-4.86,1.15-6.28,3.12c-2.52,3.48-1.5,8.58,1.18,11.94c2.68,3.36,7.52,5.38,11.36,7.3
				c3.84-1.92,8.68-3.94,11.37-7.3C46.3,273.03,47.32,267.93,44.8,264.45z"/>
			<path class="st2" d="M92.04,264.45c-1.42-1.97-3.85-3.16-6.28-3.12c-2.43,0.04-4.81,1.28-6.26,3.23
				c-1.45-1.95-3.83-3.19-6.26-3.23c-2.43-0.04-4.86,1.15-6.28,3.12c-2.52,3.48-1.5,8.58,1.18,11.94c2.68,3.36,7.52,5.38,11.36,7.3
				c3.84-1.92,8.68-3.94,11.37-7.3C93.55,273.03,94.56,267.93,92.04,264.45z"/>
			<path class="st2" d="M139.29,264.45c-1.42-1.97-3.85-3.16-6.28-3.12c-2.43,0.04-4.81,1.28-6.26,3.23
				c-1.45-1.95-3.83-3.19-6.26-3.23c-2.43-0.04-4.86,1.15-6.28,3.12c-2.52,3.48-1.5,8.58,1.18,11.94c2.68,3.36,7.52,5.38,11.36,7.3
				c3.84-1.92,8.68-3.94,11.37-7.3C140.79,273.03,141.81,267.93,139.29,264.45z"/>
			<path class="st2" d="M186.53,264.45c-1.42-1.97-3.85-3.16-6.28-3.12c-2.43,0.04-4.81,1.28-6.26,3.23
				c-1.45-1.95-3.83-3.19-6.26-3.23c-2.43-0.04-4.86,1.15-6.28,3.12c-2.52,3.48-1.5,8.58,1.18,11.94c2.68,3.36,7.52,5.38,11.37,7.3
				c3.84-1.92,8.68-3.94,11.37-7.3C188.04,273.03,189.05,267.93,186.53,264.45z"/>
			<path class="st2" d="M233.78,264.45c-1.42-1.97-3.85-3.16-6.28-3.12c-2.43,0.04-4.81,1.28-6.26,3.23
				c-1.45-1.95-3.83-3.19-6.26-3.23c-2.43-0.04-4.86,1.15-6.28,3.12c-2.52,3.48-1.5,8.58,1.18,11.94c2.68,3.36,7.52,5.38,11.37,7.3
				c3.84-1.92,8.68-3.94,11.36-7.3C235.28,273.03,236.3,267.93,233.78,264.45z"/>
			<path class="st2" d="M281.02,264.45c-1.42-1.97-3.85-3.16-6.28-3.12c-2.43,0.04-4.81,1.28-6.26,3.23
				c-1.45-1.95-3.83-3.19-6.26-3.23c-2.43-0.04-4.86,1.15-6.28,3.12c-2.52,3.48-1.5,8.58,1.18,11.94c2.68,3.36,7.52,5.38,11.37,7.3
				c3.84-1.92,8.68-3.94,11.37-7.3C282.53,273.03,283.54,267.93,281.02,264.45z"/>
			<path class="st2" d="M328.27,264.45c-1.42-1.97-3.85-3.16-6.28-3.12c-2.43,0.04-4.81,1.28-6.26,3.23
				c-1.45-1.95-3.83-3.19-6.26-3.23c-2.43-0.04-4.86,1.15-6.28,3.12c-2.52,3.48-1.5,8.58,1.18,11.94c2.68,3.36,7.52,5.38,11.37,7.3
				c3.84-1.92,8.68-3.94,11.37-7.3C329.77,273.03,330.79,267.93,328.27,264.45z"/>
			<path class="st2" d="M375.51,264.45c-1.42-1.97-3.85-3.16-6.28-3.12c-2.43,0.04-4.81,1.28-6.26,3.23
				c-1.45-1.95-3.83-3.19-6.26-3.23c-2.43-0.04-4.86,1.15-6.28,3.12c-2.52,3.48-1.5,8.58,1.18,11.94c2.68,3.36,7.52,5.38,11.37,7.3
				c3.84-1.92,8.68-3.94,11.37-7.3C377.02,273.03,378.03,267.93,375.51,264.45z"/>
			<path class="st2" d="M21.17,234.2c-1.42-1.97-3.85-3.16-6.28-3.12c-2.43,0.04-4.81,1.28-6.26,3.23
				c-1.45-1.95-3.83-3.19-6.26-3.23c-0.51-0.01-1.03,0.04-1.53,0.14v18.07c2.45,1.64,5.32,2.91,7.79,4.15
				c3.84-1.92,8.68-3.94,11.36-7.3C22.68,242.78,23.69,237.68,21.17,234.2z"/>
			<path class="st2" d="M68.42,234.2c-1.42-1.97-3.85-3.16-6.28-3.12c-2.43,0.04-4.81,1.28-6.26,3.23
				c-1.45-1.95-3.83-3.19-6.26-3.23c-2.43-0.04-4.86,1.15-6.28,3.12c-2.52,3.48-1.5,8.58,1.18,11.94c2.68,3.36,7.52,5.38,11.37,7.3
				c3.84-1.92,8.68-3.94,11.36-7.3C69.92,242.78,70.94,237.68,68.42,234.2z"/>
			<path class="st2" d="M115.66,234.2c-1.42-1.97-3.85-3.16-6.28-3.12c-2.43,0.04-4.81,1.28-6.26,3.23
				c-1.45-1.95-3.83-3.19-6.26-3.23c-2.43-0.04-4.86,1.15-6.28,3.12c-2.52,3.48-1.5,8.58,1.18,11.94c2.68,3.36,7.52,5.38,11.37,7.3
				c3.84-1.92,8.68-3.94,11.36-7.3C117.17,242.78,118.18,237.68,115.66,234.2z"/>
			<path class="st2" d="M162.91,234.2c-1.42-1.97-3.85-3.16-6.28-3.12c-2.43,0.04-4.81,1.28-6.26,3.23
				c-1.45-1.95-3.83-3.19-6.26-3.23c-2.43-0.04-4.86,1.15-6.28,3.12c-2.52,3.48-1.5,8.58,1.18,11.94c2.68,3.36,7.52,5.38,11.37,7.3
				c3.84-1.92,8.68-3.94,11.36-7.3C164.41,242.78,165.43,237.68,162.91,234.2z"/>
			<path class="st2" d="M210.15,234.2c-1.42-1.97-3.85-3.16-6.28-3.12c-2.43,0.04-4.81,1.28-6.26,3.23
				c-1.45-1.95-3.83-3.19-6.26-3.23c-2.43-0.04-4.86,1.15-6.28,3.12c-2.52,3.48-1.5,8.58,1.18,11.94c2.68,3.36,7.52,5.38,11.36,7.3
				c3.84-1.92,8.68-3.94,11.37-7.3C211.66,242.78,212.67,237.68,210.15,234.2z"/>
			<path class="st2" d="M257.4,234.2c-1.42-1.97-3.85-3.16-6.28-3.12c-2.43,0.04-4.81,1.28-6.26,3.23
				c-1.45-1.95-3.83-3.19-6.26-3.23c-2.43-0.04-4.86,1.15-6.28,3.12c-2.52,3.48-1.5,8.58,1.18,11.94c2.68,3.36,7.52,5.38,11.36,7.3
				c3.84-1.92,8.68-3.94,11.37-7.3C258.9,242.78,259.92,237.68,257.4,234.2z"/>
			<path class="st2" d="M304.64,234.2c-1.42-1.97-3.85-3.16-6.28-3.12c-2.43,0.04-4.81,1.28-6.26,3.23
				c-1.45-1.95-3.83-3.19-6.26-3.23c-2.43-0.04-4.86,1.15-6.28,3.12c-2.52,3.48-1.5,8.58,1.18,11.94c2.68,3.36,7.52,5.38,11.36,7.3
				c3.84-1.92,8.68-3.94,11.37-7.3C306.15,242.78,307.16,237.68,304.64,234.2z"/>
			<path class="st2" d="M351.89,234.2c-1.42-1.97-3.85-3.16-6.28-3.12c-2.43,0.04-4.81,1.28-6.26,3.23
				c-1.45-1.95-3.83-3.19-6.26-3.23c-2.43-0.04-4.86,1.15-6.28,3.12c-2.52,3.48-1.5,8.58,1.18,11.94c2.68,3.36,7.52,5.38,11.36,7.3
				c3.84-1.92,8.68-3.94,11.37-7.3C353.39,242.78,354.41,237.68,351.89,234.2z"/>
			<path class="st2" d="M395.84,231.65c-0.95-0.39-1.97-0.59-2.99-0.57c-2.43,0.04-4.81,1.28-6.26,3.23
				c-1.45-1.95-3.83-3.19-6.26-3.23c-2.43-0.04-4.86,1.15-6.28,3.12c-2.52,3.48-1.5,8.58,1.18,11.94c2.68,3.36,7.52,5.38,11.36,7.3
				c2.98-1.49,6.54-3.03,9.25-5.21V231.65z"/>
			<path class="st2" d="M44.8,203.95c-1.42-1.97-3.85-3.16-6.28-3.12c-2.43,0.04-4.81,1.28-6.26,3.23
				c-1.45-1.95-3.83-3.19-6.26-3.23c-2.43-0.04-4.86,1.15-6.28,3.12c-2.52,3.48-1.5,8.58,1.18,11.94c2.68,3.36,7.52,5.38,11.36,7.3
				c3.84-1.92,8.68-3.94,11.37-7.3C46.3,212.54,47.32,207.44,44.8,203.95z"/>
			<path class="st2" d="M92.04,203.95c-1.42-1.97-3.85-3.16-6.28-3.12c-2.43,0.04-4.81,1.28-6.26,3.23
				c-1.45-1.95-3.83-3.19-6.26-3.23c-2.43-0.04-4.86,1.15-6.28,3.12c-2.52,3.48-1.5,8.58,1.18,11.94c2.68,3.36,7.52,5.38,11.36,7.3
				c3.84-1.92,8.68-3.94,11.37-7.3C93.55,212.54,94.56,207.44,92.04,203.95z"/>
			<path class="st2" d="M139.29,203.95c-1.42-1.97-3.85-3.16-6.28-3.12c-2.43,0.04-4.81,1.28-6.26,3.23
				c-1.45-1.95-3.83-3.19-6.26-3.23c-2.43-0.04-4.86,1.15-6.28,3.12c-2.52,3.48-1.5,8.58,1.18,11.94c2.68,3.36,7.52,5.38,11.36,7.3
				c3.84-1.92,8.68-3.94,11.37-7.3C140.79,212.54,141.81,207.44,139.29,203.95z"/>
			<path class="st2" d="M186.53,203.95c-1.42-1.97-3.85-3.16-6.28-3.12c-2.43,0.04-4.81,1.28-6.26,3.23
				c-1.45-1.95-3.83-3.19-6.26-3.23c-2.43-0.04-4.86,1.15-6.28,3.12c-2.52,3.48-1.5,8.58,1.18,11.94c2.68,3.36,7.52,5.38,11.37,7.3
				c3.84-1.92,8.68-3.94,11.37-7.3C188.04,212.54,189.05,207.44,186.53,203.95z"/>
			<path class="st2" d="M233.78,203.95c-1.42-1.97-3.85-3.16-6.28-3.12c-2.43,0.04-4.81,1.28-6.26,3.23
				c-1.45-1.95-3.83-3.19-6.26-3.23c-2.43-0.04-4.86,1.15-6.28,3.12c-2.52,3.48-1.5,8.58,1.18,11.94c2.68,3.36,7.52,5.38,11.37,7.3
				c3.84-1.92,8.68-3.94,11.36-7.3C235.28,212.54,236.3,207.44,233.78,203.95z"/>
			<path class="st2" d="M281.02,203.95c-1.42-1.97-3.85-3.16-6.28-3.12c-2.43,0.04-4.81,1.28-6.26,3.23
				c-1.45-1.95-3.83-3.19-6.26-3.23c-2.43-0.04-4.86,1.15-6.28,3.12c-2.52,3.48-1.5,8.58,1.18,11.94c2.68,3.36,7.52,5.38,11.37,7.3
				c3.84-1.92,8.68-3.94,11.37-7.3C282.53,212.54,283.54,207.44,281.02,203.95z"/>
			<path class="st2" d="M328.27,203.95c-1.42-1.97-3.85-3.16-6.28-3.12c-2.43,0.04-4.81,1.28-6.26,3.23
				c-1.45-1.95-3.83-3.19-6.26-3.23c-2.43-0.04-4.86,1.15-6.28,3.12c-2.52,3.48-1.5,8.58,1.18,11.94c2.68,3.36,7.52,5.38,11.37,7.3
				c3.84-1.92,8.68-3.94,11.37-7.3C329.77,212.54,330.79,207.44,328.27,203.95z"/>
			<path class="st2" d="M375.51,203.95c-1.42-1.97-3.85-3.16-6.28-3.12c-2.43,0.04-4.81,1.28-6.26,3.23
				c-1.45-1.95-3.83-3.19-6.26-3.23c-2.43-0.04-4.86,1.15-6.28,3.12c-2.52,3.48-1.5,8.58,1.18,11.94c2.68,3.36,7.52,5.38,11.37,7.3
				c3.84-1.92,8.68-3.94,11.37-7.3C377.02,212.54,378.03,207.44,375.51,203.95z"/>
			<path class="st2" d="M21.17,173.71c-1.42-1.97-3.85-3.16-6.28-3.12c-2.43,0.04-4.81,1.28-6.26,3.23
				c-1.45-1.95-3.83-3.19-6.26-3.23c-0.51-0.01-1.03,0.04-1.53,0.14v18.07c2.45,1.64,5.32,2.91,7.79,4.15
				c3.84-1.92,8.68-3.94,11.36-7.3C22.68,182.29,23.69,177.19,21.17,173.71z"/>
			<path class="st2" d="M68.42,173.71c-1.42-1.97-3.85-3.16-6.28-3.12c-2.43,0.04-4.81,1.28-6.26,3.23
				c-1.45-1.95-3.83-3.19-6.26-3.23c-2.43-0.04-4.86,1.15-6.28,3.12c-2.52,3.48-1.5,8.58,1.18,11.94c2.68,3.36,7.52,5.38,11.37,7.3
				c3.84-1.92,8.68-3.94,11.36-7.3C69.92,182.29,70.94,177.19,68.42,173.71z"/>
			<path class="st2" d="M115.66,173.71c-1.42-1.97-3.85-3.16-6.28-3.12c-2.43,0.04-4.81,1.28-6.26,3.23
				c-1.45-1.95-3.83-3.19-6.26-3.23c-2.43-0.04-4.86,1.15-6.28,3.12c-2.52,3.48-1.5,8.58,1.18,11.94c2.68,3.36,7.52,5.38,11.37,7.3
				c3.84-1.92,8.68-3.94,11.36-7.3C117.17,182.29,118.18,177.19,115.66,173.71z"/>
			<path class="st2" d="M162.91,173.71c-1.42-1.97-3.85-3.16-6.28-3.12c-2.43,0.04-4.81,1.28-6.26,3.23
				c-1.45-1.95-3.83-3.19-6.26-3.23c-2.43-0.04-4.86,1.15-6.28,3.12c-2.52,3.48-1.5,8.58,1.18,11.94c2.68,3.36,7.52,5.38,11.37,7.3
				c3.84-1.92,8.68-3.94,11.36-7.3C164.41,182.29,165.43,177.19,162.91,173.71z"/>
			<path class="st2" d="M210.15,173.71c-1.42-1.97-3.85-3.16-6.28-3.12c-2.43,0.04-4.81,1.28-6.26,3.23
				c-1.45-1.95-3.83-3.19-6.26-3.23c-2.43-0.04-4.86,1.15-6.28,3.12c-2.52,3.48-1.5,8.58,1.18,11.94c2.68,3.36,7.52,5.38,11.36,7.3
				c3.84-1.92,8.68-3.94,11.37-7.3C211.66,182.29,212.67,177.19,210.15,173.71z"/>
			<path class="st2" d="M257.4,173.71c-1.42-1.97-3.85-3.16-6.28-3.12c-2.43,0.04-4.81,1.28-6.26,3.23
				c-1.45-1.95-3.83-3.19-6.26-3.23c-2.43-0.04-4.86,1.15-6.28,3.12c-2.52,3.48-1.5,8.58,1.18,11.94c2.68,3.36,7.52,5.38,11.36,7.3
				c3.84-1.92,8.68-3.94,11.37-7.3C258.9,182.29,259.92,177.19,257.4,173.71z"/>
			<path class="st2" d="M304.64,173.71c-1.42-1.97-3.85-3.16-6.28-3.12c-2.43,0.04-4.81,1.28-6.26,3.23
				c-1.45-1.95-3.83-3.19-6.26-3.23c-2.43-0.04-4.86,1.15-6.28,3.12c-2.52,3.48-1.5,8.58,1.18,11.94c2.68,3.36,7.52,5.38,11.36,7.3
				c3.84-1.92,8.68-3.94,11.37-7.3C306.15,182.29,307.16,177.19,304.64,173.71z"/>
			<path class="st2" d="M351.89,173.71c-1.42-1.97-3.85-3.16-6.28-3.12c-2.43,0.04-4.81,1.28-6.26,3.23
				c-1.45-1.95-3.83-3.19-6.26-3.23c-2.43-0.04-4.86,1.15-6.28,3.12c-2.52,3.48-1.5,8.58,1.18,11.94c2.68,3.36,7.52,5.38,11.36,7.3
				c3.84-1.92,8.68-3.94,11.37-7.3C353.39,182.29,354.41,177.19,351.89,173.71z"/>
			<path class="st2" d="M395.84,171.16c-0.95-0.39-1.97-0.59-2.99-0.57c-2.43,0.04-4.81,1.28-6.26,3.23
				c-1.45-1.95-3.83-3.19-6.26-3.23c-2.43-0.04-4.86,1.15-6.28,3.12c-2.52,3.48-1.5,8.58,1.18,11.94c2.68,3.36,7.52,5.38,11.36,7.3
				c2.98-1.49,6.54-3.03,9.25-5.21V171.16z"/>
			<path class="st2" d="M44.8,143.46c-1.42-1.97-3.85-3.16-6.28-3.12c-2.43,0.04-4.81,1.28-6.26,3.23
				c-1.45-1.95-3.83-3.19-6.26-3.23c-2.43-0.04-4.86,1.15-6.28,3.12c-2.52,3.48-1.5,8.58,1.18,11.94c2.68,3.36,7.52,5.38,11.36,7.3
				c3.84-1.92,8.68-3.94,11.37-7.3C46.3,152.04,47.32,146.95,44.8,143.46z"/>
			<path class="st2" d="M92.04,143.46c-1.42-1.97-3.85-3.16-6.28-3.12c-2.43,0.04-4.81,1.28-6.26,3.23
				c-1.45-1.95-3.83-3.19-6.26-3.23c-2.43-0.04-4.86,1.15-6.28,3.12c-2.52,3.48-1.5,8.58,1.18,11.94c2.68,3.36,7.52,5.38,11.36,7.3
				c3.84-1.92,8.68-3.94,11.37-7.3C93.55,152.04,94.56,146.95,92.04,143.46z"/>
			<path class="st2" d="M139.29,143.46c-1.42-1.97-3.85-3.16-6.28-3.12c-2.43,0.04-4.81,1.28-6.26,3.23
				c-1.45-1.95-3.83-3.19-6.26-3.23c-2.43-0.04-4.86,1.15-6.28,3.12c-2.52,3.48-1.5,8.58,1.18,11.94c2.68,3.36,7.52,5.38,11.36,7.3
				c3.84-1.92,8.68-3.94,11.37-7.3C140.79,152.04,141.81,146.95,139.29,143.46z"/>
			<path class="st2" d="M186.53,143.46c-1.42-1.97-3.85-3.16-6.28-3.12c-2.43,0.04-4.81,1.28-6.26,3.23
				c-1.45-1.95-3.83-3.19-6.26-3.23c-2.43-0.04-4.86,1.15-6.28,3.12c-2.52,3.48-1.5,8.58,1.18,11.94c2.68,3.36,7.52,5.38,11.37,7.3
				c3.84-1.92,8.68-3.94,11.37-7.3C188.04,152.04,189.05,146.95,186.53,143.46z"/>
			<path class="st2" d="M233.78,143.46c-1.42-1.97-3.85-3.16-6.28-3.12c-2.43,0.04-4.81,1.28-6.26,3.23
				c-1.45-1.95-3.83-3.19-6.26-3.23c-2.43-0.04-4.86,1.15-6.28,3.12c-2.52,3.48-1.5,8.58,1.18,11.94c2.68,3.36,7.52,5.38,11.37,7.3
				c3.84-1.92,8.68-3.94,11.36-7.3C235.28,152.04,236.3,146.95,233.78,143.46z"/>
			<path class="st2" d="M281.02,143.46c-1.42-1.97-3.85-3.16-6.28-3.12c-2.43,0.04-4.81,1.28-6.26,3.23
				c-1.45-1.95-3.83-3.19-6.26-3.23c-2.43-0.04-4.86,1.15-6.28,3.12c-2.52,3.48-1.5,8.58,1.18,11.94c2.68,3.36,7.52,5.38,11.37,7.3
				c3.84-1.92,8.68-3.94,11.37-7.3C282.53,152.04,283.54,146.95,281.02,143.46z"/>
			<path class="st2" d="M328.27,143.46c-1.42-1.97-3.85-3.16-6.28-3.12c-2.43,0.04-4.81,1.28-6.26,3.23
				c-1.45-1.95-3.83-3.19-6.26-3.23c-2.43-0.04-4.86,1.15-6.28,3.12c-2.52,3.48-1.5,8.58,1.18,11.94c2.68,3.36,7.52,5.38,11.37,7.3
				c3.84-1.92,8.68-3.94,11.37-7.3C329.77,152.04,330.79,146.95,328.27,143.46z"/>
			<path class="st2" d="M375.51,143.46c-1.42-1.97-3.85-3.16-6.28-3.12c-2.43,0.04-4.81,1.28-6.26,3.23
				c-1.45-1.95-3.83-3.19-6.26-3.23c-2.43-0.04-4.86,1.15-6.28,3.12c-2.52,3.48-1.5,8.58,1.18,11.94c2.68,3.36,7.52,5.38,11.37,7.3
				c3.84-1.92,8.68-3.94,11.37-7.3C377.02,152.04,378.03,146.95,375.51,143.46z"/>
			<path class="st2" d="M21.17,113.22c-1.42-1.97-3.85-3.16-6.28-3.12c-2.43,0.04-4.81,1.28-6.26,3.23
				c-1.45-1.95-3.83-3.19-6.26-3.23c-0.51-0.01-1.03,0.04-1.53,0.14v18.07c2.45,1.64,5.32,2.91,7.79,4.15
				c3.84-1.92,8.68-3.94,11.36-7.3C22.68,121.8,23.69,116.7,21.17,113.22z"/>
			<path class="st2" d="M68.42,113.22c-1.42-1.97-3.85-3.16-6.28-3.12c-2.43,0.04-4.81,1.28-6.26,3.23
				c-1.45-1.95-3.83-3.19-6.26-3.23c-2.43-0.04-4.86,1.15-6.28,3.12c-2.52,3.48-1.5,8.58,1.18,11.94c2.68,3.36,7.52,5.38,11.37,7.3
				c3.84-1.92,8.68-3.94,11.36-7.3C69.92,121.8,70.94,116.7,68.42,113.22z"/>
			<path class="st2" d="M115.66,113.22c-1.42-1.97-3.85-3.16-6.28-3.12c-2.43,0.04-4.81,1.28-6.26,3.23
				c-1.45-1.95-3.83-3.19-6.26-3.23c-2.43-0.04-4.86,1.15-6.28,3.12c-2.52,3.48-1.5,8.58,1.18,11.94c2.68,3.36,7.52,5.38,11.37,7.3
				c3.84-1.92,8.68-3.94,11.36-7.3C117.17,121.8,118.18,116.7,115.66,113.22z"/>
			<path class="st2" d="M162.91,113.22c-1.42-1.97-3.85-3.16-6.28-3.12c-2.43,0.04-4.81,1.28-6.26,3.23
				c-1.45-1.95-3.83-3.19-6.26-3.23c-2.43-0.04-4.86,1.15-6.28,3.12c-2.52,3.48-1.5,8.58,1.18,11.94c2.68,3.36,7.52,5.38,11.37,7.3
				c3.84-1.92,8.68-3.94,11.36-7.3C164.41,121.8,165.43,116.7,162.91,113.22z"/>
			<path class="st2" d="M210.15,113.22c-1.42-1.97-3.85-3.16-6.28-3.12c-2.43,0.04-4.81,1.28-6.26,3.23
				c-1.45-1.95-3.83-3.19-6.26-3.23c-2.43-0.04-4.86,1.15-6.28,3.12c-2.52,3.48-1.5,8.58,1.18,11.94c2.68,3.36,7.52,5.38,11.36,7.3
				c3.84-1.92,8.68-3.94,11.37-7.3C211.66,121.8,212.67,116.7,210.15,113.22z"/>
			<path class="st2" d="M257.4,113.22c-1.42-1.97-3.85-3.16-6.28-3.12c-2.43,0.04-4.81,1.28-6.26,3.23
				c-1.45-1.95-3.83-3.19-6.26-3.23c-2.43-0.04-4.86,1.15-6.28,3.12c-2.52,3.48-1.5,8.58,1.18,11.94c2.68,3.36,7.52,5.38,11.36,7.3
				c3.84-1.92,8.68-3.94,11.37-7.3C258.9,121.8,259.92,116.7,257.4,113.22z"/>
			<path class="st2" d="M304.64,113.22c-1.42-1.97-3.85-3.16-6.28-3.12c-2.43,0.04-4.81,1.28-6.26,3.23
				c-1.45-1.95-3.83-3.19-6.26-3.23c-2.43-0.04-4.86,1.15-6.28,3.12c-2.52,3.48-1.5,8.58,1.18,11.94c2.68,3.36,7.52,5.38,11.36,7.3
				c3.84-1.92,8.68-3.94,11.37-7.3C306.15,121.8,307.16,116.7,304.64,113.22z"/>
			<path class="st2" d="M351.89,113.22c-1.42-1.97-3.85-3.16-6.28-3.12c-2.43,0.04-4.81,1.28-6.26,3.23
				c-1.45-1.95-3.83-3.19-6.26-3.23c-2.43-0.04-4.86,1.15-6.28,3.12c-2.52,3.48-1.5,8.58,1.18,11.94c2.68,3.36,7.52,5.38,11.36,7.3
				c3.84-1.92,8.68-3.94,11.37-7.3C353.39,121.8,354.41,116.7,351.89,113.22z"/>
			<path class="st2" d="M395.84,110.67c-0.95-0.39-1.97-0.59-2.99-0.57c-2.43,0.04-4.81,1.28-6.26,3.23
				c-1.45-1.95-3.83-3.19-6.26-3.23c-2.43-0.04-4.86,1.15-6.28,3.12c-2.52,3.48-1.5,8.58,1.18,11.94c2.68,3.36,7.52,5.38,11.36,7.3
				c2.98-1.49,6.54-3.03,9.25-5.21V110.67z"/>
			<path class="st2" d="M44.8,82.97c-1.42-1.97-3.85-3.16-6.28-3.12c-2.43,0.04-4.81,1.28-6.26,3.23c-1.45-1.95-3.83-3.19-6.26-3.23
				c-2.43-0.04-4.86,1.15-6.28,3.12c-2.52,3.48-1.5,8.58,1.18,11.94c2.68,3.36,7.52,5.38,11.36,7.3c3.84-1.92,8.68-3.94,11.37-7.3
				C46.3,91.55,47.32,86.45,44.8,82.97z"/>
			<path class="st2" d="M92.04,82.97c-1.42-1.97-3.85-3.16-6.28-3.12c-2.43,0.04-4.81,1.28-6.26,3.23
				c-1.45-1.95-3.83-3.19-6.26-3.23c-2.43-0.04-4.86,1.15-6.28,3.12c-2.52,3.48-1.5,8.58,1.18,11.94c2.68,3.36,7.52,5.38,11.36,7.3
				c3.84-1.92,8.68-3.94,11.37-7.3C93.55,91.55,94.56,86.45,92.04,82.97z"/>
			<path class="st2" d="M139.29,82.97c-1.42-1.97-3.85-3.16-6.28-3.12c-2.43,0.04-4.81,1.28-6.26,3.23
				c-1.45-1.95-3.83-3.19-6.26-3.23c-2.43-0.04-4.86,1.15-6.28,3.12c-2.52,3.48-1.5,8.58,1.18,11.94c2.68,3.36,7.52,5.38,11.36,7.3
				c3.84-1.92,8.68-3.94,11.37-7.3C140.79,91.55,141.81,86.45,139.29,82.97z"/>
			<path class="st2" d="M186.53,82.97c-1.42-1.97-3.85-3.16-6.28-3.12c-2.43,0.04-4.81,1.28-6.26,3.23
				c-1.45-1.95-3.83-3.19-6.26-3.23c-2.43-0.04-4.86,1.15-6.28,3.12c-2.52,3.48-1.5,8.58,1.18,11.94c2.68,3.36,7.52,5.38,11.37,7.3
				c3.84-1.92,8.68-3.94,11.37-7.3C188.04,91.55,189.05,86.45,186.53,82.97z"/>
			<path class="st2" d="M233.78,82.97c-1.42-1.97-3.85-3.16-6.28-3.12c-2.43,0.04-4.81,1.28-6.26,3.23
				c-1.45-1.95-3.83-3.19-6.26-3.23c-2.43-0.04-4.86,1.15-6.28,3.12c-2.52,3.48-1.5,8.58,1.18,11.94c2.68,3.36,7.52,5.38,11.37,7.3
				c3.84-1.92,8.68-3.94,11.36-7.3C235.28,91.55,236.3,86.45,233.78,82.97z"/>
			<path class="st2" d="M281.02,82.97c-1.42-1.97-3.85-3.16-6.28-3.12c-2.43,0.04-4.81,1.28-6.26,3.23
				c-1.45-1.95-3.83-3.19-6.26-3.23c-2.43-0.04-4.86,1.15-6.28,3.12c-2.52,3.48-1.5,8.58,1.18,11.94c2.68,3.36,7.52,5.38,11.37,7.3
				c3.84-1.92,8.68-3.94,11.37-7.3C282.53,91.55,283.54,86.45,281.02,82.97z"/>
			<path class="st2" d="M328.27,82.97c-1.42-1.97-3.85-3.16-6.28-3.12c-2.43,0.04-4.81,1.28-6.26,3.23
				c-1.45-1.95-3.83-3.19-6.26-3.23c-2.43-0.04-4.86,1.15-6.28,3.12c-2.52,3.48-1.5,8.58,1.18,11.94c2.68,3.36,7.52,5.38,11.37,7.3
				c3.84-1.92,8.68-3.94,11.37-7.3C329.77,91.55,330.79,86.45,328.27,82.97z"/>
			<path class="st2" d="M375.51,82.97c-1.42-1.97-3.85-3.16-6.28-3.12c-2.43,0.04-4.81,1.28-6.26,3.23
				c-1.45-1.95-3.83-3.19-6.26-3.23c-2.43-0.04-4.86,1.15-6.28,3.12c-2.52,3.48-1.5,8.58,1.18,11.94c2.68,3.36,7.52,5.38,11.37,7.3
				c3.84-1.92,8.68-3.94,11.37-7.3C377.02,91.55,378.03,86.45,375.51,82.97z"/>
			<path class="st2" d="M21.17,52.73c-1.42-1.97-3.85-3.16-6.28-3.12c-2.43,0.04-4.81,1.28-6.26,3.23
				c-1.45-1.95-3.83-3.19-6.26-3.23c-0.51-0.01-1.03,0.04-1.53,0.14v18.07c2.45,1.64,5.32,2.91,7.79,4.15
				c3.84-1.92,8.68-3.94,11.36-7.3C22.68,61.31,23.69,56.21,21.17,52.73z"/>
			<path class="st2" d="M68.42,52.73c-1.42-1.97-3.85-3.16-6.28-3.12c-2.43,0.04-4.81,1.28-6.26,3.23
				c-1.45-1.95-3.83-3.19-6.26-3.23c-2.43-0.04-4.86,1.15-6.28,3.12c-2.52,3.48-1.5,8.58,1.18,11.94c2.68,3.36,7.52,5.38,11.37,7.3
				c3.84-1.92,8.68-3.94,11.36-7.3C69.92,61.31,70.94,56.21,68.42,52.73z"/>
			<path class="st2" d="M115.66,52.73c-1.42-1.97-3.85-3.16-6.28-3.12c-2.43,0.04-4.81,1.28-6.26,3.23
				c-1.45-1.95-3.83-3.19-6.26-3.23c-2.43-0.04-4.86,1.15-6.28,3.12c-2.52,3.48-1.5,8.58,1.18,11.94c2.68,3.36,7.52,5.38,11.37,7.3
				c3.84-1.92,8.68-3.94,11.36-7.3C117.17,61.31,118.18,56.21,115.66,52.73z"/>
			<path class="st2" d="M162.91,52.73c-1.42-1.97-3.85-3.16-6.28-3.12c-2.43,0.04-4.81,1.28-6.26,3.23
				c-1.45-1.95-3.83-3.19-6.26-3.23c-2.43-0.04-4.86,1.15-6.28,3.12c-2.52,3.48-1.5,8.58,1.18,11.94c2.68,3.36,7.52,5.38,11.37,7.3
				c3.84-1.92,8.68-3.94,11.36-7.3C164.41,61.31,165.43,56.21,162.91,52.73z"/>
			<path class="st2" d="M210.15,52.73c-1.42-1.97-3.85-3.16-6.28-3.12c-2.43,0.04-4.81,1.28-6.26,3.23
				c-1.45-1.95-3.83-3.19-6.26-3.23c-2.43-0.04-4.86,1.15-6.28,3.12c-2.52,3.48-1.5,8.58,1.18,11.94c2.68,3.36,7.52,5.38,11.36,7.3
				c3.84-1.92,8.68-3.94,11.37-7.3C211.66,61.31,212.67,56.21,210.15,52.73z"/>
			<path class="st2" d="M257.4,52.73c-1.42-1.97-3.85-3.16-6.28-3.12c-2.43,0.04-4.81,1.28-6.26,3.23
				c-1.45-1.95-3.83-3.19-6.26-3.23c-2.43-0.04-4.86,1.15-6.28,3.12c-2.52,3.48-1.5,8.58,1.18,11.94c2.68,3.36,7.52,5.38,11.36,7.3
				c3.84-1.92,8.68-3.94,11.37-7.3C258.9,61.31,259.92,56.21,257.4,52.73z"/>
			<path class="st2" d="M304.64,52.73c-1.42-1.97-3.85-3.16-6.28-3.12c-2.43,0.04-4.81,1.28-6.26,3.23
				c-1.45-1.95-3.83-3.19-6.26-3.23c-2.43-0.04-4.86,1.15-6.28,3.12c-2.52,3.48-1.5,8.58,1.18,11.94c2.68,3.36,7.52,5.38,11.36,7.3
				c3.84-1.92,8.68-3.94,11.37-7.3C306.15,61.31,307.16,56.21,304.64,52.73z"/>
			<path class="st2" d="M351.89,52.73c-1.42-1.97-3.85-3.16-6.28-3.12c-2.43,0.04-4.81,1.28-6.26,3.23
				c-1.45-1.95-3.83-3.19-6.26-3.23c-2.43-0.04-4.86,1.15-6.28,3.12c-2.52,3.48-1.5,8.58,1.18,11.94c2.68,3.36,7.52,5.38,11.36,7.3
				c3.84-1.92,8.68-3.94,11.37-7.3C353.39,61.31,354.41,56.21,351.89,52.73z"/>
			<path class="st2" d="M395.84,50.18c-0.95-0.39-1.97-0.59-2.99-0.57c-2.43,0.04-4.81,1.28-6.26,3.23
				c-1.45-1.95-3.83-3.19-6.26-3.23c-2.43-0.04-4.86,1.15-6.28,3.12c-2.52,3.48-1.5,8.58,1.18,11.94c2.68,3.36,7.52,5.38,11.36,7.3
				c2.98-1.49,6.54-3.03,9.25-5.21V50.18z"/>
			<path class="st2" d="M44.8,22.48c-1.42-1.97-3.85-3.16-6.28-3.12c-2.43,0.04-4.81,1.28-6.26,3.23c-1.45-1.95-3.83-3.19-6.26-3.23
				c-2.43-0.04-4.86,1.15-6.28,3.12c-2.52,3.48-1.5,8.58,1.18,11.94c2.68,3.36,7.52,5.38,11.36,7.3c3.84-1.92,8.68-3.94,11.37-7.3
				C46.3,31.06,47.32,25.96,44.8,22.48z"/>
			<path class="st2" d="M92.04,22.48c-1.42-1.97-3.85-3.16-6.28-3.12c-2.43,0.04-4.81,1.28-6.26,3.23
				c-1.45-1.95-3.83-3.19-6.26-3.23c-2.43-0.04-4.86,1.15-6.28,3.12c-2.52,3.48-1.5,8.58,1.18,11.94c2.68,3.36,7.52,5.38,11.36,7.3
				c3.84-1.92,8.68-3.94,11.37-7.3C93.55,31.06,94.56,25.96,92.04,22.48z"/>
			<path class="st2" d="M139.29,22.48c-1.42-1.97-3.85-3.16-6.28-3.12c-2.43,0.04-4.81,1.28-6.26,3.23
				c-1.45-1.95-3.83-3.19-6.26-3.23c-2.43-0.04-4.86,1.15-6.28,3.12c-2.52,3.48-1.5,8.58,1.18,11.94c2.68,3.36,7.52,5.38,11.36,7.3
				c3.84-1.92,8.68-3.94,11.37-7.3C140.79,31.06,141.81,25.96,139.29,22.48z"/>
			<path class="st2" d="M186.53,22.48c-1.42-1.97-3.85-3.16-6.28-3.12c-2.43,0.04-4.81,1.28-6.26,3.23
				c-1.45-1.95-3.83-3.19-6.26-3.23c-2.43-0.04-4.86,1.15-6.28,3.12c-2.52,3.48-1.5,8.58,1.18,11.94c2.68,3.36,7.52,5.38,11.37,7.3
				c3.84-1.92,8.68-3.94,11.37-7.3C188.04,31.06,189.05,25.96,186.53,22.48z"/>
			<path class="st2" d="M233.78,22.48c-1.42-1.97-3.85-3.16-6.28-3.12c-2.43,0.04-4.81,1.28-6.26,3.23
				c-1.45-1.95-3.83-3.19-6.26-3.23c-2.43-0.04-4.86,1.15-6.28,3.12c-2.52,3.48-1.5,8.58,1.18,11.94c2.68,3.36,7.52,5.38,11.37,7.3
				c3.84-1.92,8.68-3.94,11.36-7.3C235.28,31.06,236.3,25.96,233.78,22.48z"/>
			<path class="st2" d="M281.02,22.48c-1.42-1.97-3.85-3.16-6.28-3.12c-2.43,0.04-4.81,1.28-6.26,3.23
				c-1.45-1.95-3.83-3.19-6.26-3.23c-2.43-0.04-4.86,1.15-6.28,3.12c-2.52,3.48-1.5,8.58,1.18,11.94c2.68,3.36,7.52,5.38,11.37,7.3
				c3.84-1.92,8.68-3.94,11.37-7.3C282.53,31.06,283.54,25.96,281.02,22.48z"/>
			<path class="st2" d="M328.27,22.48c-1.42-1.97-3.85-3.16-6.28-3.12c-2.43,0.04-4.81,1.28-6.26,3.23
				c-1.45-1.95-3.83-3.19-6.26-3.23c-2.43-0.04-4.86,1.15-6.28,3.12c-2.52,3.48-1.5,8.58,1.18,11.94c2.68,3.36,7.52,5.38,11.37,7.3
				c3.84-1.92,8.68-3.94,11.37-7.3C329.77,31.06,330.79,25.96,328.27,22.48z"/>
			<path class="st2" d="M375.51,22.48c-1.42-1.97-3.85-3.16-6.28-3.12c-2.43,0.04-4.81,1.28-6.26,3.23
				c-1.45-1.95-3.83-3.19-6.26-3.23c-2.43-0.04-4.86,1.15-6.28,3.12c-2.52,3.48-1.5,8.58,1.18,11.94c2.68,3.36,7.52,5.38,11.37,7.3
				c3.84-1.92,8.68-3.94,11.37-7.3C377.02,31.06,378.03,25.96,375.51,22.48z"/>
			<path class="st2" d="M0.84,0.16v7.16c2.45,1.64,5.32,2.91,7.79,4.15c3.84-1.92,8.68-3.94,11.36-7.3
				c0.94-1.17,1.67-2.56,2.12-4.01H0.84z"/>
			<path class="st2" d="M42.39,0.16c0.45,1.46,1.18,2.84,2.12,4.01c2.68,3.36,7.52,5.38,11.37,7.3c3.84-1.92,8.68-3.94,11.36-7.3
				c0.94-1.17,1.67-2.56,2.12-4.01H42.39z"/>
			<path class="st2" d="M89.64,0.16c0.45,1.46,1.18,2.84,2.12,4.01c2.68,3.36,7.52,5.38,11.37,7.3c3.84-1.92,8.68-3.94,11.36-7.3
				c0.94-1.17,1.67-2.56,2.12-4.01H89.64z"/>
			<path class="st2" d="M136.88,0.16c0.45,1.46,1.18,2.84,2.12,4.01c2.68,3.36,7.52,5.38,11.37,7.3c3.84-1.92,8.68-3.94,11.36-7.3
				c0.94-1.17,1.67-2.56,2.12-4.01H136.88z"/>
			<path class="st2" d="M184.13,0.16c0.45,1.46,1.18,2.84,2.12,4.01c2.68,3.36,7.52,5.38,11.36,7.3c3.84-1.92,8.68-3.94,11.37-7.3
				c0.94-1.17,1.67-2.56,2.12-4.01H184.13z"/>
			<path class="st2" d="M231.37,0.16c0.45,1.46,1.18,2.84,2.12,4.01c2.68,3.36,7.52,5.38,11.36,7.3c3.84-1.92,8.68-3.94,11.37-7.3
				c0.94-1.17,1.67-2.56,2.12-4.01H231.37z"/>
			<path class="st2" d="M278.62,0.16c0.45,1.46,1.18,2.84,2.12,4.01c2.68,3.36,7.52,5.38,11.36,7.3c3.84-1.92,8.68-3.94,11.37-7.3
				c0.94-1.17,1.67-2.56,2.12-4.01H278.62z"/>
			<path class="st2" d="M325.86,0.16c0.45,1.46,1.18,2.84,2.12,4.01c2.68,3.36,7.52,5.38,11.36,7.3c3.84-1.92,8.68-3.94,11.37-7.3
				c0.94-1.17,1.67-2.56,2.12-4.01H325.86z"/>
			<path class="st2" d="M395.84,0.16h-22.74c0.45,1.46,1.18,2.84,2.12,4.01c2.68,3.36,7.52,5.38,11.36,7.3
				c2.98-1.49,6.54-3.03,9.25-5.21V0.16z"/>
		</g>
	</g>
</g>
<g>
	<g>
		<path class="st3" d="M34.51,131.62c0-5.13,1.03-9.66,3.08-13.59c2.05-3.93,4.95-6.96,8.7-9.11s8.07-3.22,12.97-3.22
			c2.65,0,5.31,0.37,7.98,1.11s5.06,1.76,7.17,3.08c0.66,0.33,0.87,0.76,0.63,1.3l-4.75,9.98c-0.3,0.7-0.76,0.9-1.37,0.6
			c-2.37-1.34-5.16-2-8.37-2c-3.23,0-5.84,1.08-7.82,3.25c-1.98,2.17-2.97,5.03-2.97,8.6c0,3.56,0.99,6.43,2.97,8.61
			s4.59,3.27,7.82,3.27c3.21,0,6-0.67,8.37-2c0.61-0.3,1.07-0.12,1.37,0.56l4.75,10.02c0.23,0.54,0.02,0.97-0.63,1.3
			c-2.11,1.31-4.5,2.34-7.17,3.08s-5.33,1.11-7.98,1.11c-7.41,0-13.38-2.38-17.93-7.14C36.79,145.67,34.51,139.41,34.51,131.62z"/>
		<path class="st3" d="M83.08,112.76c4.68-4.75,10.85-7.12,18.53-7.12c7.67,0,13.86,2.37,18.54,7.12
			c4.69,4.74,7.03,11.01,7.03,18.79c0,5.12-1.06,9.65-3.18,13.57c-2.12,3.92-5.12,6.97-8.98,9.13s-8.34,3.24-13.41,3.24
			c-5.07,0-9.54-1.08-13.4-3.24s-6.85-5.21-8.97-9.13s-3.18-8.45-3.18-13.57C76.07,123.77,78.41,117.5,83.08,112.76z M101.61,143.44
			c2.96,0,5.35-1.09,7.17-3.28c1.82-2.19,2.73-5.05,2.73-8.6s-0.91-6.41-2.73-8.58c-1.82-2.17-4.21-3.26-7.17-3.26
			c-2.96,0-5.34,1.09-7.15,3.26c-1.81,2.18-2.71,5.04-2.71,8.58s0.9,6.42,2.71,8.6C96.27,142.34,98.65,143.44,101.61,143.44z"/>
		<path class="st3" d="M130.98,131.55c0-7.78,2.34-14.05,7.03-18.79c4.69-4.75,10.86-7.12,18.53-7.12s13.84,2.37,18.53,7.12
			c4.69,4.74,7.03,11.01,7.03,18.79c0,5.84-1.36,10.9-4.08,15.17l5.91,4.77c0.63,0.5,0.68,0.98,0.14,1.45l-8.86,8.8
			c-0.52,0.4-1,0.34-1.44-0.18l-5.34-6.54c-3.56,1.65-7.52,2.47-11.88,2.47c-5.06,0-9.53-1.08-13.39-3.24s-6.86-5.21-8.98-9.13
			S130.98,136.68,130.98,131.55z M149.07,122.96c-1.89,2.17-2.83,5.03-2.83,8.6c0,3.56,0.94,6.43,2.83,8.61s4.38,3.27,7.47,3.27
			c0.8,0,1.55-0.07,2.25-0.21l-2.18-2.67c-0.42-0.49-0.4-0.97,0.07-1.44l4.71-4.61c0.49-0.49,0.94-0.56,1.34-0.21l3.2,2.6
			c0.61-1.52,0.91-3.3,0.91-5.34c0-3.56-0.94-6.43-2.83-8.6c-1.89-2.17-4.38-3.25-7.47-3.25S150.96,120.79,149.07,122.96z"/>
		<path class="st3" d="M186.6,138.06v-30.02c0-0.33,0.12-0.62,0.37-0.86s0.53-0.37,0.86-0.37h12.41c0.35,0,0.64,0.12,0.86,0.37
			s0.33,0.53,0.33,0.86v31.27c0,1.64,0.45,2.92,1.34,3.84s2.13,1.39,3.73,1.39c1.57,0,2.8-0.46,3.69-1.37s1.34-2.18,1.34-3.79
			v-31.34c0-0.33,0.13-0.61,0.39-0.86s0.54-0.37,0.84-0.37h12.38c0.35,0,0.64,0.12,0.88,0.37s0.35,0.53,0.35,0.86v30.02
			c0,6.38-1.68,11.21-5.04,14.5c-3.36,3.29-8.3,4.94-14.82,4.94c-6.45,0-11.35-1.65-14.73-4.94
			C188.39,149.27,186.67,144.43,186.6,138.06z"/>
		<path class="st3" d="M230.97,155.39v-47.57c0-0.68,0.33-1.02,0.98-1.02h32.77c0.3,0,0.57,0.11,0.81,0.32s0.35,0.45,0.35,0.7v10.86
			c0,0.3-0.11,0.56-0.33,0.77c-0.22,0.21-0.5,0.32-0.82,0.32h-18.71v5.66h15.26c0.3,0,0.54,0.1,0.72,0.3
			c0.18,0.2,0.24,0.42,0.19,0.65l-0.98,10.09c-0.05,0.23-0.19,0.45-0.42,0.63c-0.23,0.19-0.5,0.28-0.81,0.28h-13.96v6.12h19.59
			c0.28,0,0.53,0.09,0.74,0.28c0.21,0.19,0.31,0.41,0.31,0.67v11c0,0.26-0.11,0.49-0.32,0.7s-0.46,0.32-0.74,0.32h-33.5
			c-0.23,0-0.46-0.12-0.69-0.35C231.18,155.89,231.04,155.65,230.97,155.39z"/>
		<path class="st3" d="M268.09,118.76v-10.86c0-0.28,0.11-0.53,0.32-0.76c0.21-0.22,0.45-0.33,0.7-0.33h38.71
			c0.3,0,0.56,0.11,0.77,0.32s0.29,0.45,0.25,0.7l-1.09,10.93c-0.02,0.28-0.15,0.52-0.39,0.72c-0.23,0.2-0.48,0.3-0.74,0.3H295.9
			v35.68c0,0.26-0.1,0.49-0.3,0.7s-0.44,0.32-0.72,0.32h-12.76c-0.28,0-0.53-0.11-0.74-0.32s-0.32-0.44-0.32-0.7v-35.68h-11.95
			c-0.26,0-0.49-0.1-0.7-0.3C268.2,119.28,268.09,119.04,268.09,118.76z"/>
		<path class="st3" d="M315.57,112.76c4.68-4.75,10.85-7.12,18.53-7.12s13.86,2.37,18.54,7.12c4.69,4.74,7.03,11.01,7.03,18.79
			c0,5.12-1.06,9.65-3.18,13.57s-5.12,6.97-8.98,9.13c-3.87,2.16-8.34,3.24-13.41,3.24s-9.54-1.08-13.4-3.24
			c-3.86-2.16-6.85-5.21-8.97-9.13s-3.18-8.45-3.18-13.57C308.56,123.77,310.9,117.5,315.57,112.76z M334.1,143.44
			c2.96,0,5.35-1.09,7.17-3.28c1.82-2.19,2.73-5.05,2.73-8.6s-0.91-6.41-2.73-8.58c-1.82-2.17-4.21-3.26-7.17-3.26
			s-5.34,1.09-7.15,3.26c-1.81,2.18-2.71,5.04-2.71,8.58s0.9,6.42,2.71,8.6C328.76,142.34,331.14,143.44,334.1,143.44z"/>
	</g>
</g>
</svg>
