<?xml version="1.0" encoding="utf-8"?>
<!-- Generator: Adobe Illustrator 25.4.1, SVG Export Plug-In . SVG Version: 6.00 Build 0)  -->
<svg version="1.1" id="Capa_1" xmlns="http://www.w3.org/2000/svg" xmlns:xlink="http://www.w3.org/1999/xlink" x="0px" y="0px"
	 viewBox="0 0 393 268.5" style="enable-background:new 0 0 393 268.5;" xml:space="preserve">
<style type="text/css">
	.st0{fill:#38D430;}
	.st1{fill:#81EF31;}
	.st2{fill:#016037;}
	.st3{opacity:0.5;fill:#03814F;enable-background:new    ;}
	.st4{fill:#59B7A6;}
	.st5{fill:#FFFFFF;}
</style>
<rect class="st0" width="393" height="268.5"/>
<circle class="st1" cx="203.29" cy="123.02" r="105.5"/>
<g>
	<g>
		<path class="st2" d="M199.64,256.4c0,0,9-51.76,38.21-66.78c28.26-14.54,31.35,14.05,55.57-5.37s49.07-43.91,68.88-13.43
			c21.02,32.34-62.12,26.19-65.94,60.36C292.54,265.34,260.17,250.1,199.64,256.4z"/>
		<path class="st3" d="M360.24,167.87c0.7,0.92,1.39,1.9,2.07,2.95c21.02,32.34-62.12,26.19-65.94,60.36
			c-3.79,33.89-35.67,19.16-95.27,25.08C290.99,186.02,355.36,169.08,360.24,167.87z"/>
	</g>
	<g>
		<g>
			<g>
				<path class="st4" d="M349.56,171.47c-3.25,1.1-6.46,2.36-9.66,3.61c-8.7,3.43-17.29,7.15-25.77,11.09
					c-12.68,5.87-25.13,12.22-37.35,19c-15.35,8.51-30.32,17.7-44.83,27.58c-16.5,11.23-32.4,23.35-47.5,36.4
					c-2.01,1.73-4,3.49-5.98,5.25c-0.27,0.24,0.98,0.1,1.22-0.11c15.13-13.5,31.09-26.05,47.71-37.67
					c14.57-10.18,29.63-19.66,45.09-28.44c12.58-7.15,25.42-13.83,38.5-20.02c8.96-4.23,18.02-8.25,27.22-11.93
					c3.85-1.55,7.8-2.86,11.65-4.41c0.05-0.02,0.1-0.03,0.15-0.05C350.94,171.44,350.07,171.29,349.56,171.47L349.56,171.47z"/>
			</g>
		</g>
		<g>
			<g>
				<path class="st4" d="M347.67,186.73c-7.97-1.01-15.95-2.02-23.92-3.03c-1.13-0.14-2.25-0.29-3.38-0.43
					c0.07,0.12,0.14,0.23,0.21,0.35c3.18-5.86,6.35-11.72,9.53-17.58c0.45-0.84,0.91-1.67,1.36-2.51c0.29-0.53-1.06-0.36-1.25,0
					c-3.18,5.86-6.35,11.72-9.53,17.58c-0.45,0.84-0.91,1.67-1.36,2.51c-0.1,0.19,0,0.32,0.21,0.35c7.97,1.01,15.95,2.02,23.92,3.03
					c1.13,0.14,2.25,0.29,3.38,0.43C347.22,187.47,348.41,186.82,347.67,186.73L347.67,186.73z"/>
			</g>
		</g>
		<g>
			<g>
				<path class="st4" d="M286.22,231.03c-4.37-0.89-8.8-1.53-13.22-2.08c-8.33-1.03-16.81-1.69-25.2-1.02
					c-4.12,0.33-8.33,0.99-12.13,2.68c0.27,0.14,0.54,0.27,0.82,0.41c6.26-6.59,11.45-14.69,14.96-23.04
					c1.61-3.83,2.83-7.82,3.46-11.93c0.08-0.54-1.28-0.31-1.36,0.16c-1.85,12.03-8.48,23.16-16.22,32.37
					c-0.63,0.75-1.26,1.49-1.94,2.2c-0.5,0.53,0.51,0.54,0.82,0.41c3.31-1.48,6.96-2.07,10.54-2.41c4.21-0.4,8.46-0.38,12.69-0.18
					c7.21,0.33,14.41,1.19,21.53,2.38c1.48,0.25,2.96,0.5,4.43,0.8C285.84,231.88,286.99,231.19,286.22,231.03L286.22,231.03z"/>
			</g>
		</g>
	</g>
</g>
<g>
	<g>
		<path class="st2" d="M200.73,255.09c0,0-10.2-51.54-39.75-65.88c-28.59-13.88-31.01,14.78-55.68-4.08
			c-24.67-18.85-50.08-42.76-69.18-11.82c-20.27,32.82,62.71,24.75,67.33,58.81C108.06,266.18,140.07,250.19,200.73,255.09z"/>
		<path class="st3" d="M38.12,170.31c-0.67,0.94-1.34,1.93-2,3c-20.27,32.82,62.71,24.75,67.33,58.81
			c4.58,33.79,36.11,18.33,95.83,22.86C107.77,186.85,43.02,171.41,38.12,170.31z"/>
	</g>
	<g>
		<g>
			<g>
				<path class="st4" d="M48.25,174.23c3.22,1.01,6.4,2.16,9.57,3.33c8.71,3.19,17.3,6.69,25.8,10.39
					c12.84,5.58,25.46,11.66,37.86,18.16c15.52,8.15,30.68,16.98,45.4,26.51c16.76,10.85,32.93,22.6,48.33,35.31
					c2,1.65,3.98,3.31,5.95,4.99c0.42,0.36,1.62-0.26,1.05-0.74c-15.44-13.15-31.7-25.33-48.59-36.56
					c-14.88-9.9-30.25-19.08-46-27.54c-12.72-6.83-25.68-13.2-38.87-19.07c-9.11-4.06-18.33-7.88-27.68-11.38
					c-2.71-1.02-5.43-2-8.17-2.95c-1.21-0.42-2.46-0.97-3.71-1.24c-0.05-0.01-0.1-0.03-0.15-0.05
					C48.51,173.21,47.45,173.98,48.25,174.23L48.25,174.23z"/>
			</g>
		</g>
		<g>
			<g>
				<path class="st4" d="M51.42,189.45c7.95-1.19,15.9-2.39,23.84-3.58c1.12-0.17,2.25-0.34,3.37-0.51c0.06-0.01,0.92-0.23,0.8-0.43
					c-3.31-5.78-6.62-11.57-9.93-17.35c-0.47-0.83-0.95-1.65-1.42-2.48c-0.19-0.33-1.46,0.18-1.35,0.36
					c3.31,5.78,6.62,11.57,9.93,17.35c0.47,0.83,0.95,1.65,1.42,2.48c0.27-0.14,0.54-0.28,0.8-0.43c-7.95,1.19-15.9,2.39-23.84,3.58
					c-1.12,0.17-2.25,0.34-3.37,0.51C51.14,189.04,50.47,189.59,51.42,189.45L51.42,189.45z"/>
			</g>
		</g>
		<g>
			<g>
				<path class="st4" d="M114.12,232.57c4.12-0.93,8.29-1.65,12.46-2.27c8.16-1.22,16.5-2.11,24.76-1.69
					c4.09,0.21,8.3,0.7,12.11,2.3c0.34,0.14,1.47-0.29,1.01-0.75c-6.37-6.4-11.76-14.38-15.41-22.62c-1.64-3.72-2.91-7.59-3.62-11.6
					c-0.11-0.63-1.47-0.28-1.35,0.36c2.14,12.06,9.1,23.15,17.1,32.23c0.67,0.76,1.34,1.51,2.05,2.22c0.34-0.25,0.67-0.5,1.01-0.75
					c-7.19-3.01-15.76-2.72-23.38-2.24c-7.52,0.48-15,1.55-22.39,2.95c-1.53,0.29-3.06,0.59-4.58,0.94
					C113.03,231.83,113.28,232.76,114.12,232.57L114.12,232.57z"/>
			</g>
		</g>
	</g>
</g>
<g>
	<g>
		<path class="st5" d="M105.68,134.23c0-4.63,0.93-8.72,2.78-12.27c1.85-3.54,4.47-6.28,7.86-8.22c3.38-1.94,7.29-2.9,11.71-2.9
			c2.39,0,4.79,0.33,7.21,1c2.41,0.67,4.57,1.59,6.47,2.78c0.59,0.3,0.78,0.69,0.57,1.17l-4.28,9.01c-0.28,0.63-0.69,0.81-1.24,0.54
			c-2.14-1.21-4.66-1.81-7.55-1.81c-2.92,0-5.27,0.98-7.06,2.94c-1.79,1.96-2.68,4.54-2.68,7.76c0,3.22,0.89,5.81,2.68,7.78
			c1.79,1.97,4.14,2.95,7.06,2.95c2.9,0,5.42-0.6,7.55-1.81c0.55-0.27,0.96-0.11,1.24,0.51l4.28,9.05c0.21,0.49,0.02,0.88-0.57,1.17
			c-1.9,1.19-4.06,2.11-6.47,2.78c-2.41,0.67-4.81,1-7.21,1c-6.69,0-12.08-2.15-16.19-6.44
			C107.73,146.92,105.68,141.26,105.68,134.23z"/>
		<path class="st5" d="M152.45,155.75v-42.94c0-0.25,0.09-0.48,0.27-0.68c0.18-0.2,0.39-0.3,0.62-0.3h12.16c0.28,0,0.51,0.1,0.7,0.3
			c0.19,0.2,0.29,0.43,0.29,0.68v16.95h9.11v-16.95c0-0.25,0.08-0.48,0.25-0.68c0.17-0.2,0.38-0.3,0.63-0.3h12.16
			c0.27,0,0.51,0.1,0.7,0.3c0.19,0.2,0.29,0.43,0.29,0.68v42.94c0,0.23-0.09,0.44-0.29,0.63c-0.19,0.19-0.42,0.29-0.7,0.29h-12.16
			c-0.25,0-0.47-0.09-0.63-0.28c-0.17-0.19-0.25-0.39-0.25-0.62v-14.3h-9.11v14.3c0,0.23-0.1,0.44-0.29,0.62
			c-0.19,0.19-0.42,0.28-0.7,0.28h-12.16c-0.21,0-0.41-0.1-0.6-0.29C152.55,156.2,152.45,155.99,152.45,155.75z"/>
		<path class="st5" d="M200.78,155.75v-42.94c0-0.25,0.09-0.48,0.27-0.68c0.18-0.2,0.39-0.3,0.62-0.3h11.52c0.28,0,0.51,0.1,0.7,0.3
			c0.19,0.2,0.29,0.43,0.29,0.68v42.94c0,0.23-0.1,0.44-0.29,0.63c-0.19,0.19-0.42,0.29-0.7,0.29h-11.52c-0.21,0-0.41-0.1-0.6-0.29
			C200.88,156.2,200.78,155.99,200.78,155.75z"/>
		<path class="st5" d="M225.35,155.75v-42.94c0-0.25,0.09-0.48,0.28-0.68c0.19-0.2,0.41-0.3,0.66-0.3h11.47
			c0.25,0,0.48,0.1,0.68,0.3c0.2,0.2,0.3,0.43,0.3,0.68v32.15h12.15c0.23,0,0.43,0.09,0.59,0.27s0.24,0.4,0.24,0.65l-0.89,9.87
			c-0.04,0.23-0.16,0.44-0.36,0.63c-0.2,0.19-0.43,0.29-0.68,0.29H226.3c-0.25,0-0.48-0.1-0.67-0.29
			C225.44,156.2,225.35,155.99,225.35,155.75z"/>
		<path class="st5" d="M260.95,155.75v-42.94c0-0.25,0.09-0.48,0.28-0.68c0.19-0.2,0.41-0.3,0.66-0.3h11.47
			c0.25,0,0.48,0.1,0.68,0.3c0.2,0.2,0.3,0.43,0.3,0.68v32.15h12.15c0.23,0,0.43,0.09,0.59,0.27s0.24,0.4,0.24,0.65l-0.89,9.87
			c-0.04,0.23-0.16,0.44-0.36,0.63c-0.2,0.19-0.43,0.29-0.68,0.29H261.9c-0.25,0-0.48-0.1-0.67-0.29
			C261.04,156.2,260.95,155.99,260.95,155.75z"/>
	</g>
</g>
</svg>
