<?xml version="1.0" encoding="utf-8"?>
<!-- Generator: Adobe Illustrator 25.0.0, SVG Export Plug-In . SVG Version: 6.00 Build 0)  -->
<svg version="1.1" id="Capa_1" xmlns="http://www.w3.org/2000/svg" xmlns:xlink="http://www.w3.org/1999/xlink" x="0px" y="0px"
	 viewBox="0 0 393 268.5" style="enable-background:new 0 0 393 268.5;" xml:space="preserve">
<style type="text/css">
	.st0{fill:#0097CE;}
	.st1{fill:#8C80B2;}
	.st2{fill:#816DAF;}
	.st3{fill:#FF9C31;}
	.st4{fill:#FFD200;}
	.st5{fill:#AED180;}
	.st6{fill:#38D430;}
	.st7{fill:#03814F;}
	.st8{fill:#4E2583;}
</style>
<rect class="st0" width="393" height="268.5"/>
<g>
	<polygon class="st1" points="149.8,189.73 148.31,194.24 108.24,234.32 96.17,222.25 136.25,182.18 140.77,180.69 	"/>
	<path class="st2" d="M147.05,186.98l-31.01,31.01c-4.31,4.31-11.29,4.31-15.6,0l0,0l35.81-35.81l4.52-1.49L147.05,186.98z"/>
	<path class="st3" d="M292.64,63.24c-2.3-5.67-5.67-10.85-10.1-15.28c-22.06-22.06-62.31-17.59-89.89,10
		c-20.76,20.76-28.44,48.69-21.55,70.64c0.06,0.17,0.11,0.34,0.17,0.51c0.92,2.83,1.39,5.73,1.39,8.63c0,6.93-2.64,13.71-7.7,18.76
		l-22.06,22.06l-2.13,2.13l9.04,9.04L174,165.53c7.16-7.16,17.76-9.46,27.39-6.31c0.17,0.06,0.34,0.11,0.51,0.17
		c21.96,6.88,49.88-0.79,70.64-21.55C294.58,115.8,301.87,85.7,292.64,63.24z M180.31,98.83c0.11-0.51,0.23-1,0.36-1.51
		c1.13-4.16,2.71-8.29,4.73-12.38c1.79-3.62,3.96-7.18,6.48-10.64c2.34-3.2,4.97-6.27,7.91-9.21c2.94-2.94,6.01-5.56,9.21-7.91
		c3.45-2.52,7.01-4.69,10.64-6.48c4.09-2.03,8.23-3.6,12.38-4.73c0.51-0.13,1-0.26,1.51-0.36c4.58-1.13,9.19-1.68,13.62-1.64
		c1.62,0.02,3.24,0.11,4.82,0.32c4.75,0.49,9.25,1.75,13.39,3.73c3.69,1.75,7.08,4.11,10.04,7.08c2.96,2.96,5.33,6.35,7.08,10.04
		c1.98,4.14,3.24,8.63,3.73,13.39c0.21,1.58,0.3,3.2,0.32,4.82c0.04,4.43-0.51,9.04-1.64,13.62c-0.11,0.51-0.23,1-0.36,1.51
		c-1.13,4.16-2.71,8.29-4.73,12.38c-1.79,3.62-3.96,7.18-6.48,10.64c-2.34,3.2-4.97,6.27-7.91,9.21c-2.94,2.94-6.01,5.56-9.21,7.91
		c-3.45,2.52-7.01,4.69-10.64,6.48c-4.09,2.02-8.23,3.6-12.38,4.73c-0.51,0.13-1,0.26-1.51,0.36c-4.58,1.13-9.19,1.68-13.62,1.64
		c-1.62-0.02-3.24-0.11-4.82-0.32c-4.75-0.49-9.25-1.75-13.39-3.73c-3.69-1.75-7.08-4.11-10.04-7.08
		c-2.96-2.96-5.33-6.35-7.08-10.04c-1.98-4.14-3.24-8.63-3.73-13.39c-0.21-1.58-0.3-3.2-0.32-4.82
		C178.62,108.02,179.18,103.42,180.31,98.83z"/>
	<path class="st4" d="M292.64,63.24c-2.3-5.67-5.67-10.85-10.1-15.28c-22.06-22.06-62.31-17.59-89.89,10
		c-20.76,20.76-28.44,48.69-21.55,70.64c0.06,0.17,0.11,0.34,0.17,0.51c0.92,2.83,1.39,5.73,1.39,8.63c0,6.93-2.64,13.71-7.7,18.76
		l-22.06,22.06l4.77,4.77l24.19-24.19c7.16-7.16,17.76-9.46,27.39-6.31c0.17,0.06,0.34,0.11,0.51,0.17
		c21.96,6.88,49.88-0.79,70.64-21.55C290.4,111.45,298.27,84.79,292.64,63.24z M284.88,96.96c-0.11,0.51-0.23,1-0.36,1.51
		c-1.13,4.16-2.71,8.29-4.73,12.38c-1.79,3.62-3.96,7.18-6.48,10.64c-2.34,3.2-4.97,6.27-7.91,9.21c-2.94,2.94-6.01,5.56-9.21,7.91
		c-3.45,2.52-7.01,4.69-10.64,6.48c-4.09,2.02-8.23,3.6-12.38,4.73c-0.51,0.13-1,0.26-1.51,0.36c-4.58,1.13-9.19,1.68-13.62,1.64
		c-1.62-0.02-3.24-0.11-4.82-0.32c-4.75-0.49-9.25-1.75-13.39-3.73c-3.69-1.75-7.08-4.11-10.04-7.08
		c-2.96-2.96-5.33-6.35-7.08-10.04c-1.98-4.14-3.24-8.63-3.73-13.39c-0.21-1.58-0.3-3.2-0.32-4.82c-0.04-4.43,0.51-9.04,1.64-13.62
		c0.11-0.51,0.23-1,0.36-1.51c1.13-4.16,2.71-8.29,4.73-12.38c1.79-3.62,3.96-7.18,6.48-10.64c2.34-3.2,4.97-6.27,7.91-9.21
		c2.94-2.94,6.01-5.56,9.21-7.91c3.45-2.52,7.01-4.69,10.64-6.48c4.09-2.03,8.23-3.6,12.38-4.73c0.51-0.13,1-0.26,1.51-0.36
		c4.58-1.13,9.19-1.68,13.62-1.64c1.62,0.02,3.24,0.11,4.82,0.32c4.75,0.49,9.25,1.75,13.39,3.73c3.69,1.75,7.08,4.11,10.04,7.08
		c2.96,2.96,5.33,6.35,7.08,10.04c1.98,4.14,3.24,8.63,3.73,13.39c0.21,1.58,0.3,3.2,0.32,4.82
		C286.57,87.77,286.01,92.38,284.88,96.96z"/>
	<path class="st1" d="M283.96,83.79l1.06,1.06c0.42,0.42,0.96,0.62,1.51,0.62c0.55,0,1.09-0.21,1.51-0.62
		c0.83-0.83,0.83-2.18,0-3.01l-1.06-1.06l0.75-0.75c0.83-0.83,0.83-2.18,0-3.01c-0.83-0.83-2.18-0.83-3.01,0l-0.75,0.75l-5.55-5.55
		l5.57-5.57c0.83-0.83,0.83-2.18,0-3.01c-0.83-0.83-2.18-0.83-3.01,0l-5.57,5.57l-5.55-5.55l7.05-7.05c0.83-0.83,0.83-2.18,0-3.01
		s-2.18-0.83-3.01,0l-7.05,7.05l-5.55-5.55l5.57-5.57c0.83-0.83,0.83-2.18,0-3.01c-0.83-0.83-2.18-0.83-3.01,0l-5.57,5.57
		l-5.55-5.55l0.75-0.75c0.83-0.83,0.83-2.18,0-3.01c-0.83-0.83-2.18-0.83-3.01,0l-0.75,0.75l-1.06-1.06c-0.83-0.83-2.18-0.83-3.01,0
		c-0.83,0.83-0.83,2.18,0,3.01l1.06,1.06l-5.55,5.55l-5.66-5.66c0.32-0.77,0.16-1.69-0.46-2.32c-0.74-0.74-1.87-0.78-2.7-0.21
		c-0.64-0.09-1.32,0.07-1.81,0.57c-0.47,0.47-0.65,1.11-0.58,1.72l-5.9,5.9l-2.89-2.89c-0.83-0.83-2.18-0.83-3.01,0
		s-0.83,2.18,0,3.01l2.89,2.89l-5.55,5.55l-4.97-4.97c-0.83-0.83-2.18-0.83-3.01,0c-0.83,0.83-0.83,2.18,0,3.01l4.97,4.97
		l-5.55,5.55l-5.63-5.63c-0.83-0.83-2.18-0.83-3.01,0c-0.83,0.83-0.83,2.18,0,3.01l5.63,5.63l-5.55,5.55l-4.97-4.97
		c-0.83-0.83-2.18-0.83-3.01,0c-0.83,0.83-0.83,2.18,0,3.01l4.97,4.97l-5.55,5.55l-2.89-2.89c-0.83-0.83-2.18-0.83-3.01,0
		c-0.83,0.83-0.83,2.18,0,3.01l2.89,2.89l-5.9,5.9c-0.62-0.06-1.25,0.11-1.72,0.58c-0.5,0.5-0.66,1.17-0.57,1.81
		c-0.57,0.83-0.53,1.96,0.21,2.7c0.42,0.42,0.96,0.62,1.51,0.62c0.28,0,0.55-0.05,0.81-0.16l5.66,5.66l-5.55,5.55l-1.06-1.06
		c-0.83-0.83-2.18-0.83-3.01,0c-0.83,0.83-0.83,2.18,0,3.01l1.06,1.06l-0.75,0.75c-0.83,0.83-0.83,2.18,0,3.01
		c0.42,0.42,0.96,0.62,1.51,0.62c0.55,0,1.09-0.21,1.51-0.62l0.75-0.75l5.55,5.55l-5.57,5.57c-0.83,0.83-0.83,2.18,0,3.01
		c0.42,0.42,0.96,0.62,1.51,0.62c0.55,0,1.09-0.21,1.51-0.62l5.57-5.57l5.55,5.55l-7.05,7.05c-0.83,0.83-0.83,2.18,0,3.01
		c0.42,0.42,0.96,0.62,1.51,0.62c0.55,0,1.09-0.21,1.51-0.62l7.05-7.05l5.55,5.55l-5.57,5.57c-0.83,0.83-0.83,2.18,0,3.01
		c0.42,0.42,0.96,0.62,1.51,0.62c0.55,0,1.09-0.21,1.51-0.62l5.57-5.57l5.55,5.55l-0.75,0.75c-0.83,0.83-0.83,2.18,0,3.01
		c0.42,0.42,0.96,0.62,1.51,0.62c0.55,0,1.09-0.21,1.51-0.62l0.75-0.75l1.06,1.06c0.42,0.42,0.96,0.62,1.51,0.62
		c0.55,0,1.09-0.21,1.51-0.62c0.83-0.83,0.83-2.18,0-3.01l-1.06-1.06l5.55-5.55l5.66,5.66c-0.32,0.77-0.16,1.69,0.46,2.32
		c0.42,0.42,0.96,0.63,1.51,0.63c0.42,0,0.83-0.16,1.19-0.42c0.1,0.02,0.2,0.06,0.31,0.06c0.55,0,1.09-0.21,1.51-0.62
		c0.47-0.47,0.65-1.11,0.58-1.72l5.9-5.9l2.89,2.89c0.42,0.42,0.96,0.62,1.51,0.62c0.55,0,1.09-0.21,1.51-0.62
		c0.83-0.83,0.83-2.18,0-3.01l-2.89-2.89l5.55-5.55l4.97,4.97c0.42,0.42,0.96,0.62,1.51,0.62s1.09-0.21,1.51-0.62
		c0.83-0.83,0.83-2.18,0-3.01l-4.97-4.97l5.55-5.55l5.63,5.63c0.42,0.42,0.96,0.62,1.51,0.62c0.55,0,1.09-0.21,1.51-0.62
		c0.83-0.83,0.83-2.18,0-3.01l-5.63-5.63l5.55-5.55l4.97,4.97c0.42,0.42,0.96,0.62,1.51,0.62c0.55,0,1.09-0.21,1.51-0.62
		c0.83-0.83,0.83-2.18,0-3.01l-4.97-4.97l5.55-5.55l2.89,2.89c0.42,0.42,0.96,0.62,1.51,0.62c0.55,0,1.09-0.21,1.51-0.62
		c0.83-0.83,0.83-2.18,0-3.01l-2.89-2.89l5.9-5.9c0.07,0.01,0.14,0.04,0.22,0.04c0.55,0,1.09-0.21,1.51-0.62
		c0.5-0.5,0.66-1.17,0.57-1.81c0.57-0.83,0.53-1.96-0.21-2.7c-0.63-0.63-1.55-0.78-2.32-0.46l-5.66-5.66L283.96,83.79z
		 M280.94,80.78l-5.55,5.55l-5.55-5.55l5.55-5.55L280.94,80.78z M238.14,89.34l-5.55,5.55l-5.55-5.55l5.55-5.55L238.14,89.34z
		 M235.61,80.78l5.55-5.55l5.55,5.55l-5.55,5.55L235.61,80.78z M229.58,97.9l-5.55,5.55l-5.55-5.55l5.55-5.55L229.58,97.9z
		 M221.02,106.46l-5.55,5.55l-5.55-5.55l5.55-5.55L221.02,106.46z M224.04,109.47l5.55,5.55l-5.55,5.55l-5.55-5.55L224.04,109.47z
		 M227.05,106.46l5.55-5.55l5.55,5.55L232.6,112L227.05,106.46z M235.61,97.9l5.55-5.55l5.55,5.55l-5.55,5.55L235.61,97.9z
		 M244.17,89.34l5.55-5.55l5.55,5.55l-5.55,5.55L244.17,89.34z M252.73,80.78l5.55-5.55l5.55,5.55l-5.55,5.55L252.73,80.78z
		 M249.72,77.76l-5.55-5.55l5.55-5.55l5.55,5.55L249.72,77.76z M241.16,69.2l-5.55-5.55l5.55-5.55l5.55,5.55L241.16,69.2z
		 M238.14,72.22l-5.55,5.55l-5.55-5.55l5.55-5.55L238.14,72.22z M229.58,80.78l-5.55,5.55l-5.55-5.55l5.55-5.55L229.58,80.78z
		 M221.02,89.34l-5.55,5.55l-5.55-5.55l5.55-5.55L221.02,89.34z M212.46,97.9l-5.55,5.55l-5.55-5.55l5.55-5.55L212.46,97.9z
		 M203.9,106.46l-5.55,5.55l-5.55-5.55l5.55-5.55L203.9,106.46z M206.92,109.47l5.55,5.55l-5.55,5.55l-5.55-5.55L206.92,109.47z
		 M215.48,118.03l5.55,5.55l-5.55,5.55l-5.55-5.55L215.48,118.03z M224.04,126.59l5.55,5.55l-5.55,5.55l-5.55-5.55L224.04,126.59z
		 M227.05,123.58l5.55-5.55l5.55,5.55l-5.55,5.55L227.05,123.58z M235.61,115.02l5.55-5.55l5.55,5.55l-5.55,5.55L235.61,115.02z
		 M244.17,106.46l5.55-5.55l5.55,5.55l-5.55,5.55L244.17,106.46z M252.73,97.9l5.55-5.55l5.55,5.55l-5.55,5.55L252.73,97.9z
		 M261.29,89.34l5.55-5.55l5.55,5.55l-5.55,5.55L261.29,89.34z M272.38,72.22l-5.55,5.55l-5.55-5.55l5.55-5.55L272.38,72.22z
		 M263.82,63.66l-5.55,5.55l-5.55-5.55l5.55-5.55L263.82,63.66z M249.72,49.55l5.55,5.55l-5.55,5.55l-5.55-5.55L249.72,49.55z
		 M232.6,49.55l5.55,5.55l-5.55,5.55l-5.55-5.55L232.6,49.55z M224.04,58.11l5.55,5.55l-5.55,5.55l-5.55-5.55L224.04,58.11z
		 M215.48,66.67l5.55,5.55l-5.55,5.55l-5.55-5.55L215.48,66.67z M206.92,75.23l5.55,5.55l-5.55,5.55l-5.55-5.55L206.92,75.23z
		 M198.36,83.79l5.55,5.55l-5.55,5.55l-5.55-5.55L198.36,83.79z M184.25,97.9l5.55-5.55l5.55,5.55l-5.55,5.55L184.25,97.9z
		 M184.25,115.02l5.55-5.55l5.55,5.55l-5.55,5.55L184.25,115.02z M192.81,123.58l5.55-5.55l5.55,5.55l-5.55,5.55L192.81,123.58z
		 M201.37,132.14l5.55-5.55l5.55,5.55l-5.55,5.55L201.37,132.14z M215.48,146.24l-5.55-5.55l5.55-5.55l5.55,5.55L215.48,146.24z
		 M232.59,146.24l-5.55-5.55l5.55-5.55l5.55,5.55L232.59,146.24z M241.16,137.68l-5.55-5.55l5.55-5.55l5.55,5.55L241.16,137.68z
		 M249.72,129.12l-5.55-5.55l5.55-5.55l5.55,5.55L249.72,129.12z M258.28,120.56l-5.55-5.55l5.55-5.55l5.55,5.55L258.28,120.56z
		 M266.83,112l-5.55-5.55l5.55-5.55l5.55,5.55L266.83,112z M280.94,97.9l-5.55,5.55l-5.55-5.55l5.55-5.55L280.94,97.9z"/>
	<circle class="st5" cx="253.91" cy="195.95" r="21.32"/>
	<ellipse class="st6" cx="253.91" cy="191.69" rx="19.18" ry="17.05"/>
	<g>
		<path class="st7" d="M273.15,200.2c-5.66,0-11.58-2.62-16.23-7.26c-5.26-5.26-7.92-12.17-7.12-18.48
			c0.13-0.99,0.92-1.76,1.92-1.85c6.99-0.63,13.83,1.83,18.76,6.76c4.94,4.94,7.4,11.78,6.76,18.76c-0.09,1-0.86,1.79-1.85,1.92
			C274.66,200.15,273.91,200.2,273.15,200.2z M275.13,197.94h0.02H275.13z M253.93,176.77c0.03,4.49,2.24,9.38,6.01,13.15
			c3.77,3.77,8.66,5.97,13.15,6.01c-0.01-5.08-2-9.93-5.62-13.55C263.87,178.77,259.01,176.78,253.93,176.77z"/>
	</g>
	<g>
		<path class="st7" d="M253.92,219.39c-6.22,0-12.17-2.44-16.59-6.86c-4.94-4.94-7.4-11.78-6.76-18.76c0.09-1,0.86-1.79,1.85-1.92
			c6.31-0.82,13.21,1.85,18.48,7.12c5.26,5.26,7.92,12.17,7.12,18.48c-0.13,0.99-0.92,1.76-1.92,1.85
			C255.37,219.36,254.64,219.39,253.92,219.39z M255.9,217.17h0.02H255.9z M234.73,195.97c0.01,5.08,2,9.93,5.62,13.55
			c3.61,3.61,8.47,5.6,13.55,5.62c-0.03-4.49-2.24-9.38-6.01-13.15C244.11,198.21,239.22,196,234.73,195.97z"/>
	</g>
	<g>
		<path class="st8" d="M218.53,153.96c-0.17,0-0.34,0-0.51,0c-1.94-0.03-3.59-0.14-5.07-0.33c-4.96-0.52-9.7-1.85-14.04-3.93
			c-3.96-1.88-7.54-4.4-10.63-7.49c-3.09-3.09-5.61-6.67-7.49-10.64c-2.08-4.33-3.41-9.06-3.93-14.07
			c-0.18-1.43-0.29-3.09-0.33-5.01c-0.04-4.68,0.53-9.45,1.7-14.18c0.08-0.43,0.22-0.95,0.35-1.48c1.18-4.36,2.83-8.66,4.9-12.84
			c1.85-3.73,4.09-7.41,6.66-10.95c2.45-3.35,5.18-6.53,8.12-9.47c2.94-2.94,6.12-5.67,9.46-8.12c3.54-2.57,7.22-4.81,10.95-6.67
			c4.18-2.07,8.48-3.72,12.77-4.88c0.59-0.15,1.11-0.29,1.64-0.39c4.64-1.15,9.4-1.72,14.06-1.68c1.94,0.03,3.59,0.14,5.07,0.33
			c4.96,0.52,9.7,1.85,14.04,3.93c3.96,1.88,7.54,4.4,10.63,7.49s5.61,6.67,7.49,10.64c2.08,4.33,3.41,9.07,3.93,14.07
			c0.18,1.43,0.29,3.08,0.33,5.01c0.04,4.68-0.53,9.44-1.7,14.18c-0.08,0.43-0.22,0.95-0.35,1.47c-1.18,4.36-2.83,8.66-4.9,12.84
			c-1.85,3.73-4.09,7.42-6.66,10.95c-2.45,3.35-5.18,6.53-8.12,9.47c-2.94,2.94-6.12,5.67-9.46,8.12
			c-3.54,2.57-7.23,4.82-10.95,6.67c-4.18,2.07-8.48,3.72-12.77,4.88c-0.59,0.15-1.12,0.29-1.64,0.39
			C227.62,153.39,223.03,153.96,218.53,153.96z M246.65,46.1c-4.14,0-8.38,0.53-12.61,1.58c-0.55,0.11-1,0.23-1.44,0.34
			c-4.04,1.1-8.07,2.64-12,4.59c-3.52,1.75-7,3.86-10.34,6.29c-3.16,2.31-6.18,4.9-8.96,7.69c-2.79,2.79-5.37,5.8-7.69,8.97
			c-2.43,3.34-4.54,6.82-6.29,10.33c-1.95,3.93-3.5,7.97-4.59,12c-0.12,0.46-0.23,0.9-0.32,1.35c-1.11,4.48-1.64,8.89-1.6,13.19
			c0.03,1.75,0.13,3.25,0.3,4.57c0.48,4.57,1.67,8.83,3.54,12.73c1.68,3.54,3.92,6.72,6.66,9.46c2.74,2.74,5.92,4.98,9.45,6.66
			c3.9,1.88,8.17,3.07,12.69,3.54c1.37,0.17,2.87,0.27,4.64,0.3c4.27,0.04,8.69-0.49,13.07-1.58c0.55-0.11,1-0.23,1.44-0.34
			c4.04-1.1,8.07-2.64,12-4.59c3.52-1.74,6.99-3.86,10.34-6.29c3.16-2.31,6.18-4.9,8.96-7.69l0,0c2.79-2.79,5.37-5.8,7.69-8.97
			c2.43-3.33,4.54-6.81,6.29-10.33c1.95-3.93,3.5-7.97,4.59-12c0.12-0.46,0.23-0.91,0.32-1.36c1.11-4.48,1.64-8.88,1.6-13.19
			c-0.03-1.75-0.13-3.25-0.3-4.57c-0.48-4.57-1.67-8.83-3.54-12.73c-1.68-3.54-3.92-6.72-6.66-9.46c-2.74-2.74-5.92-4.98-9.45-6.66
			c-3.9-1.88-8.17-3.07-12.69-3.54c-1.37-0.17-2.87-0.27-4.64-0.3C246.95,46.1,246.8,46.1,246.65,46.1z"/>
	</g>
	<path class="st8" d="M284.05,46.44c-22.85-22.85-64.54-18.37-92.92,10c-20.76,20.76-29.42,49.35-22.06,72.79l0.17,0.53
		c2.94,9.04,0.72,18.69-5.8,25.22l-23.85,23.85l-4.03,1.34c-0.3,0.09-0.6,0.28-0.83,0.51l-40.07,40.07c-0.83,0.83-0.83,2.17,0,3.01
		l12.06,12.06c0.43,0.41,0.96,0.62,1.51,0.62c0.53,0,1.09-0.21,1.49-0.62l40.07-40.07c0.23-0.23,0.43-0.53,0.51-0.83l1.34-4.03
		l23.85-23.85c6.52-6.52,16.18-8.74,25.2-5.8l0.55,0.17c5.54,1.75,11.38,2.58,17.33,2.58c19.21,0,39.6-8.78,55.46-24.64
		C302.43,110.98,306.9,69.31,284.05,46.44z M146.44,193.09l-38.2,38.22l-9.06-9.06l38.22-38.2l1.6-0.53l1.19-0.4l7.18,7.18
		l-0.41,1.19L146.44,193.09z M271.03,136.33c-19.65,19.65-46.53,27.92-68.49,21.04l-0.49-0.17c-10.57-3.45-21.89-0.83-29.57,6.82
		L149.8,186.7l-6.01-6.01l22.68-22.68c7.65-7.67,10.27-18.99,6.82-29.57l-0.17-0.49c-6.88-21.96,1.39-48.83,21.04-68.49
		c26.71-26.71,65.67-31.21,86.86-10c9.02,9,13.39,21.21,13.39,34.32C294.41,101.54,286.4,120.96,271.03,136.33z"/>
	<g>
		<path class="st8" d="M253.92,219.39c-6.22,0-12.17-2.44-16.59-6.86c-4.94-4.94-7.4-11.78-6.76-18.76c0.5-5.42,2.9-10.53,6.76-14.4
			c3.87-3.87,8.98-6.27,14.4-6.76c7-0.63,13.83,1.83,18.76,6.76c4.94,4.94,7.4,11.78,6.77,18.76c-0.5,5.42-2.9,10.53-6.77,14.4l0,0
			c-3.87,3.87-8.98,6.27-14.4,6.76C255.37,219.36,254.64,219.39,253.92,219.39z M253.9,176.77c-0.59,0-1.19,0.03-1.78,0.08
			c-4.42,0.4-8.61,2.37-11.77,5.53c-3.16,3.16-5.13,7.35-5.53,11.77c-0.52,5.72,1.49,11.32,5.53,15.36
			c4.04,4.04,9.63,6.07,15.36,5.53c4.42-0.4,8.61-2.37,11.77-5.53c3.16-3.16,5.13-7.35,5.53-11.77c0.52-5.72-1.49-11.32-5.53-15.36
			C263.86,178.76,258.99,176.77,253.9,176.77z M268.98,211.02h0.02H268.98z"/>
	</g>
</g>
</svg>
