<?xml version="1.0" encoding="utf-8"?>
<!-- Generator: Adobe Illustrator 25.0.0, SVG Export Plug-In . SVG Version: 6.00 Build 0)  -->
<svg version="1.1" id="Capa_1" xmlns="http://www.w3.org/2000/svg" xmlns:xlink="http://www.w3.org/1999/xlink" x="0px" y="0px"
	 viewBox="0 0 393 268.5" style="enable-background:new 0 0 393 268.5;" xml:space="preserve">
<style type="text/css">
	.st0{fill:#FFD200;}
	.st1{fill:#FF8A00;}
	.st2{fill:#816DAF;}
	.st3{fill:#FFA039;}
	.st4{fill:#816DAF;stroke:#FFFFFF;stroke-miterlimit:10;}
	.st5{fill:#4E2583;}
</style>
<rect x="-0.04" y="0.34" class="st0" width="393" height="268.5"/>
<g>
	<g>
		<path class="st1" d="M248.23,72.98c-3.24,0-6.41,0.49-9.48,1.41c19.55,11.49,33.58,42.91,33.58,79.89s-14.03,68.4-33.58,79.89
			c3.07,0.92,6.24,1.41,9.48,1.41c28.28,0,51.21-36.4,51.21-81.3S276.51,72.98,248.23,72.98z"/>
	</g>
	<g>
		<path class="st1" d="M144.69,235.57c3.24,0,6.41-0.49,9.48-1.41c-19.55-11.49-33.58-42.91-33.58-79.89s14.03-68.4,33.58-79.89
			c-3.07-0.92-6.24-1.41-9.48-1.41c-28.28,0-51.21,36.4-51.21,81.3S116.41,235.57,144.69,235.57z"/>
	</g>
	<g>
		<path class="st2" d="M221.64,37.61l-6.68-6.26c-1.51-1.42-3.88-1.3-5.27,0.24c-7.3,8.09-16.21,21.73-18.35,41.56
			c1.68-0.45,3.39-0.68,5.12-0.68c1.87,0,3.7,0.27,5.5,0.79c2.94-9.43,8.64-22.03,19.33-29.99
			C223.14,41.89,223.33,39.19,221.64,37.61z"/>
	</g>
	<g>
		<path class="st1" d="M222.34,69.72c-5.9,0-11.57,1.74-16.83,4.92c12.55,6.09,22.79,24.56,27.56,48.85l25.75-12.49
			c4.17-2.02,8.74,1.94,7.31,6.36c-3.85,11.96-12.52,29.07-30.41,28.14c0.15,2.89,0.23,5.81,0.23,8.78c0,6.55-0.38,12.92-1.08,19.02
			c4.28-1.04,8.41-2.25,12.36-3.62c2.43-0.84,4.74,1.56,3.77,3.95c-3.75,9.27-11.09,17.25-20.72,22.89
			c-5.42,18.56-14.29,32.31-24.78,37.4c5.26,3.18,10.92,4.92,16.83,4.92c27.61,0,49.99-37.86,49.99-84.55
			C272.32,107.57,249.94,69.72,222.34,69.72z"/>
	</g>
	<g>
		<path class="st1" d="M162.59,196.4c-9.68-5.71-17.03-13.79-20.7-23.17c-0.94-2.39,1.33-4.8,3.75-3.93
			c3.94,1.41,8.07,2.66,12.36,3.74c-0.68-6.03-1.05-12.3-1.05-18.76c0-2.97,0.09-5.9,0.23-8.78c-17.89,0.93-26.55-16.18-30.41-28.14
			c-1.42-4.42,3.14-8.38,7.31-6.36l25.75,12.49c4.77-24.29,15.02-42.76,27.56-48.85c-5.26-3.18-10.92-4.92-16.83-4.92
			c-27.61,0-49.99,37.86-49.99,84.55c0,46.7,22.38,84.55,49.99,84.55c5.9,0,11.57-1.74,16.83-4.92
			C176.9,228.81,168.01,215.01,162.59,196.4z"/>
	</g>
	<g>
		<path class="st3" d="M196.99,177.71c4.41,0,8.75-0.17,13.01-0.5c1.03-0.08,1.91,0.73,1.91,1.76v4.12c0,0.98,0.79,1.77,1.77,1.77
			h7.36c0.98,0,1.77-0.79,1.77-1.77v-5.88c0-0.87,0.63-1.6,1.49-1.74c3.62-0.61,7.15-1.34,10.59-2.18c0.7-6.1,1.08-12.47,1.08-19.02
			c0-2.97-0.08-5.9-0.23-8.78c-5.05-0.26-10.83-1.96-17.44-5.61c-3.74-2.06-3.59-7.49,0.25-9.35l14.52-7.04
			c-5.88-29.91-20.05-51.01-36.61-51.01s-30.74,21.09-36.61,51.01l14.52,7.04c3.84,1.86,3.99,7.29,0.25,9.35
			c-6.62,3.65-12.4,5.35-17.44,5.61c-0.15,2.89-0.23,5.82-0.23,8.78c0,6.45,0.36,12.73,1.05,18.76
			C169.94,176.04,183.12,177.71,196.99,177.71z"/>
	</g>
	<g>
		<path class="st3" d="M196.53,205.32c-2.9,0-5.74-0.18-8.53-0.51c-0.89-0.11-1.55-0.87-1.55-1.76v-6.4c0-0.98-0.79-1.77-1.77-1.77
			h-7.36c-0.98,0-1.77,0.79-1.77,1.77v3.03c0,1.23-1.22,2.09-2.38,1.67c-3.76-1.35-7.31-3.01-10.59-4.95
			c6.91,23.77,19.5,39.68,33.87,39.68c14.36,0,26.92-15.85,33.84-39.56C220.84,202.04,209.17,205.32,196.53,205.32z"/>
	</g>
	<g>
		<path class="st0" d="M218.55,130.52l40.28-19.53c4.17-2.02,8.74,1.94,7.31,6.36c-4.94,15.34-17.78,39.13-47.84,22.53
			C214.56,137.81,214.71,132.39,218.55,130.52z"/>
	</g>
	<g>
		<path class="st0" d="M174.37,130.52l-40.28-19.53c-4.17-2.02-8.74,1.94-7.31,6.36c4.94,15.34,17.78,39.13,47.84,22.53
			C178.35,137.81,178.21,132.39,174.37,130.52z"/>
	</g>
	<g>
		<path class="st4" d="M247.24,169.68c-7.11,2.47-14.81,4.43-22.94,5.79c-0.86,0.14-1.49,0.88-1.49,1.74v5.88
			c0,0.98-0.79,1.77-1.77,1.77h-7.36c-0.98,0-1.77-0.79-1.77-1.77v-4.12c0-1.04-0.88-1.84-1.91-1.76c-4.26,0.33-8.6,0.5-13.01,0.5
			c-18.84,0-36.43-3.08-51.35-8.42c-2.42-0.87-4.69,1.54-3.75,3.93c4.91,12.57,16.42,22.8,31.29,28.12
			c1.16,0.41,2.38-0.44,2.38-1.67v-3.03c0-0.98,0.79-1.77,1.77-1.77h7.36c0.98,0,1.77,0.79,1.77,1.77v6.4
			c0,0.89,0.66,1.66,1.55,1.76c2.78,0.33,5.63,0.51,8.53,0.51c25.48,0,47.06-13.3,54.48-31.69
			C251.98,171.24,249.67,168.83,247.24,169.68z"/>
	</g>
	<g>
		<path class="st5" d="M248.23,237.84c-3.23,0-6.5-0.46-9.71-1.38c-1.21-0.34-1.91-1.6-1.56-2.81c0.34-1.21,1.6-1.91,2.81-1.56
			c2.81,0.8,5.65,1.21,8.46,1.21c26.99,0,48.94-35.45,48.94-79.02s-21.95-79.02-48.94-79.02c-2.81,0-5.66,0.41-8.46,1.21
			c-1.21,0.34-2.46-0.36-2.81-1.56c-0.34-1.21,0.36-2.46,1.56-2.81c3.21-0.92,6.48-1.38,9.71-1.38c29.49,0,53.48,37.49,53.48,83.57
			C301.71,200.35,277.72,237.84,248.23,237.84z"/>
	</g>
	<g>
		<path class="st5" d="M144.69,237.84c-29.49,0-53.48-37.49-53.48-83.57S115.2,70.7,144.69,70.7c3.22,0,6.47,0.46,9.68,1.37
			c1.21,0.34,1.91,1.6,1.56,2.81c-0.34,1.21-1.6,1.91-2.81,1.56c-2.8-0.8-5.63-1.2-8.43-1.2c-26.99,0-48.94,35.45-48.94,79.02
			s21.95,79.02,48.94,79.02c2.8,0,5.64-0.4,8.43-1.2c1.2-0.34,2.46,0.36,2.81,1.56c0.34,1.21-0.36,2.46-1.56,2.81
			C151.16,237.38,147.91,237.84,144.69,237.84z"/>
	</g>
	<g>
		<path class="st5" d="M191.42,74.74c-0.09,0-0.18,0-0.27-0.02c-1.25-0.15-2.14-1.27-1.99-2.52c2.36-20.19,11.55-34.06,18.85-42.14
			c1.09-1.21,2.58-1.91,4.2-1.98c1.6-0.07,3.14,0.5,4.31,1.6l6.68,6.26c1.29,1.2,1.97,2.9,1.87,4.66c-0.1,1.78-0.98,3.41-2.42,4.49
			c-10.03,7.48-15.47,19.39-18.27,28.07c-0.38,1.19-1.67,1.85-2.86,1.46c-1.19-0.39-1.85-1.67-1.46-2.86
			c3-9.31,8.89-22.13,19.88-30.32c0.36-0.27,0.57-0.67,0.6-1.1c0.01-0.24-0.02-0.7-0.44-1.09l-6.68-6.26
			c-0.28-0.26-0.64-0.4-1.01-0.38c-0.39,0.02-0.75,0.19-1.02,0.48c-6.85,7.59-15.49,20.62-17.71,39.62
			C193.54,73.89,192.55,74.74,191.42,74.74z"/>
	</g>
	<g>
		<path class="st5" d="M187.37,62.05c-5.02,0-9.59-2.97-11.63-7.56c-0.51-1.15,0.01-2.49,1.15-3c1.15-0.51,2.49,0.01,3,1.15
			c1.31,2.95,4.25,4.86,7.48,4.86c2.25,0,4.35-0.9,5.91-2.52c0.87-0.9,2.31-0.94,3.21-0.07c0.91,0.87,0.94,2.31,0.07,3.21
			C194.13,60.66,190.87,62.05,187.37,62.05z"/>
	</g>
	<g>
		<path class="st5" d="M222.34,241.1c-6.02,0-11.91-1.67-17.52-4.96c-1.08-0.63-1.45-2.03-0.81-3.11c0.63-1.08,2.03-1.45,3.11-0.81
			c4.91,2.88,10.03,4.33,15.22,4.33c26.31,0,47.72-36.91,47.72-82.28s-21.41-82.28-47.72-82.28c-5.18,0-10.28,1.45-15.17,4.3
			c-1.08,0.63-2.47,0.27-3.11-0.82c-0.63-1.08-0.27-2.47,0.82-3.11c5.59-3.26,11.47-4.92,17.46-4.92c14.19,0,27.44,9.19,37.3,25.88
			c9.65,16.32,14.96,37.96,14.96,60.94s-5.31,44.63-14.96,60.94C249.77,231.91,236.52,241.1,222.34,241.1z"/>
	</g>
	<g>
		<path class="st5" d="M170.58,241.1c-14.19,0-27.44-9.19-37.3-25.88c-9.65-16.32-14.96-37.96-14.96-60.94s5.31-44.63,14.96-60.94
			c9.87-16.69,23.11-25.88,37.3-25.88c5.92,0,11.73,1.62,17.26,4.81c1.09,0.63,1.46,2.02,0.83,3.1c-0.63,1.09-2.02,1.46-3.1,0.83
			c-4.83-2.79-9.88-4.2-14.99-4.2c-26.31,0-47.72,36.91-47.72,82.28s21.4,82.28,47.72,82.28c5.18,0,10.28-1.45,15.17-4.3
			c1.08-0.63,2.48-0.27,3.11,0.82c0.63,1.08,0.27,2.47-0.82,3.11C182.45,239.44,176.57,241.1,170.58,241.1z"/>
	</g>
	<g>
		<path class="st5" d="M234.96,174.98c-0.08,0-0.17,0-0.25-0.01c-1.25-0.14-2.15-1.26-2.01-2.51c0.66-5.94,1-12.06,1-18.19
			c0-2.61-0.06-5.28-0.19-7.92c-0.06-1.25,0.91-2.32,2.16-2.38c1.25-0.06,2.32,0.91,2.38,2.16c0.13,2.71,0.19,5.45,0.19,8.14
			c0,6.3-0.34,12.58-1.02,18.69C237.09,174.12,236.1,174.98,234.96,174.98z"/>
	</g>
	<g>
		<path class="st5" d="M157.93,174.72c-1.14,0-2.13-0.86-2.26-2.02c-0.66-6.02-0.99-12.21-0.99-18.42c0-2.74,0.07-5.54,0.2-8.31
			c0.06-1.25,1.12-2.23,2.38-2.16c1.25,0.06,2.22,1.12,2.16,2.38c-0.13,2.7-0.2,5.42-0.2,8.09c0,6.05,0.33,12.08,0.97,17.93
			c0.14,1.25-0.76,2.37-2.01,2.51C158.09,174.72,158.01,174.72,157.93,174.72z"/>
	</g>
	<g>
		<path class="st5" d="M159.96,125.22c-0.15,0-0.3-0.01-0.45-0.04c-1.23-0.25-2.03-1.44-1.78-2.67c6.37-31.77,21.57-52.3,38.73-52.3
			c17.15,0,32.35,20.51,38.72,52.24c0.25,1.23-0.55,2.43-1.78,2.68c-1.23,0.25-2.43-0.55-2.68-1.78
			c-5.84-29.06-19.61-48.59-34.27-48.59c-14.67,0-28.45,19.55-34.28,48.64C161.96,124.47,161.02,125.22,159.96,125.22z"/>
	</g>
	<g>
		<path class="st5" d="M196.46,238.34c-14.96,0-28.4-15.3-35.94-40.93c-0.35-1.2,0.33-2.47,1.54-2.82c1.2-0.35,2.47,0.33,2.82,1.54
			c6.84,23.24,18.94,37.67,31.58,37.67c12.64,0,24.73-14.42,31.57-37.63c0.36-1.2,1.62-1.89,2.82-1.54c1.2,0.35,1.89,1.62,1.54,2.82
			C224.85,223.05,211.41,238.34,196.46,238.34z"/>
	</g>
	<g>
		<path class="st5" d="M237.13,147.8c-6.11,0-12.78-1.98-19.93-5.93c-2.47-1.37-3.96-3.97-3.89-6.8c0.07-2.83,1.7-5.35,4.25-6.59
			l40.28-19.53c2.76-1.34,5.92-0.92,8.24,1.09c2.32,2.01,3.17,5.08,2.23,8.01c-3.27,10.14-9.67,23.23-21.63,27.97
			C243.67,147.2,240.48,147.8,237.13,147.8z M219.54,132.57c-1.03,0.5-1.66,1.48-1.69,2.62c-0.03,1.14,0.55,2.15,1.54,2.7
			c9.82,5.43,18.44,6.74,25.6,3.9c10.31-4.09,16.01-15.92,18.98-25.14c0.38-1.18,0.05-2.37-0.89-3.18
			c-0.93-0.81-2.16-0.97-3.27-0.43L219.54,132.57z"/>
	</g>
	<g>
		<path class="st5" d="M155.78,147.8c-3.35,0-6.53-0.59-9.54-1.78c-11.96-4.74-18.36-17.82-21.63-27.97
			c-0.94-2.92-0.09-5.99,2.23-8.01c2.32-2.01,5.47-2.43,8.24-1.09l40.28,19.53l0,0c2.54,1.23,4.17,3.76,4.25,6.59
			c0.07,2.83-1.42,5.43-3.89,6.8C168.57,145.82,161.9,147.8,155.78,147.8z M131.77,112.72c-0.69,0-1.37,0.25-1.94,0.75
			c-0.93,0.81-1.27,2-0.89,3.18c2.97,9.21,8.67,21.05,18.98,25.14c7.16,2.84,15.77,1.53,25.6-3.9c1-0.55,1.57-1.56,1.54-2.7
			c-0.03-1.14-0.66-2.12-1.69-2.62l-40.28-19.53C132.67,112.82,132.21,112.72,131.77,112.72z"/>
	</g>
	<g>
		<path class="st5" d="M196.53,207.59c-2.92,0-5.88-0.18-8.8-0.53c-2.02-0.24-3.55-1.97-3.55-4.02v-5.9h-6.36v2.53
			c0,1.31-0.64,2.55-1.72,3.31c-1.08,0.76-2.46,0.95-3.7,0.5c-15.61-5.59-27.51-16.31-32.64-29.43c-0.77-1.96-0.34-4.12,1.13-5.62
			c1.44-1.48,3.55-1.97,5.5-1.27c15.15,5.42,32.64,8.29,50.58,8.29c4.25,0,8.57-0.17,12.83-0.5c1.12-0.09,2.24,0.3,3.07,1.06
			c0.82,0.76,1.29,1.84,1.29,2.96v3.62h6.36v-5.38c0-1.98,1.42-3.66,3.38-3.99c7.93-1.33,15.52-3.25,22.57-5.7v0
			c1.98-0.69,4.11-0.17,5.56,1.35c1.44,1.51,1.85,3.66,1.07,5.59C245.12,194.28,222.38,207.59,196.53,207.59z M188.73,202.6
			c2.59,0.29,5.21,0.44,7.8,0.44c24.01,0,45.06-12.17,52.38-30.27c0.14-0.35,0-0.61-0.15-0.76c-0.12-0.13-0.39-0.32-0.77-0.19
			c-7.17,2.49-14.87,4.45-22.9,5.82v5.45c0,2.23-1.82,4.05-4.05,4.05h-7.36c-2.23,0-4.05-1.82-4.05-4.05v-3.58
			c-22.75,1.69-45.58-1.22-64.76-8.08c-0.27-0.1-0.51-0.04-0.71,0.16c-0.12,0.13-0.31,0.4-0.15,0.8
			c4.58,11.71,15.23,21.36,29.28,26.56v-2.32c0-2.23,1.82-4.05,4.05-4.05h7.36c2.23,0,4.05,1.82,4.05,4.05V202.6z"/>
	</g>
</g>
</svg>
