<?xml version="1.0" encoding="utf-8"?>
<!-- Generator: Adobe Illustrator 25.4.1, SVG Export Plug-In . SVG Version: 6.00 Build 0)  -->
<svg version="1.1" id="Capa_1" xmlns="http://www.w3.org/2000/svg" xmlns:xlink="http://www.w3.org/1999/xlink" x="0px" y="0px"
	 viewBox="0 0 392 268" style="enable-background:new 0 0 392 268;" xml:space="preserve">
<style type="text/css">
	.st0{fill:none;}
	.st1{fill:#C97A2A;}
	.st2{fill:#0F121A;}
	.st3{fill:#FF8901;}
	.st4{fill:#421872;}
	.st5{fill:#A9B3D6;stroke:#532778;stroke-width:2;stroke-miterlimit:10;}
	.st6{fill:#8990A6;}
	.st7{fill:#B4BCD9;stroke:#5F0591;stroke-width:2;stroke-miterlimit:10;}
	.st8{fill:url(#SVGID_1_);stroke:#542779;stroke-width:2;stroke-miterlimit:10;}
	.st9{fill:#1A1F2E;}
	.st10{fill:url(#SVGID_00000078037673229934703720000013764044807551325830_);stroke:#532778;stroke-width:2;stroke-miterlimit:10;}
	.st11{fill:url(#SVGID_00000183218934563265093170000008954838875587356307_);}
	.st12{fill:#FFFFFF;}
	.st13{fill:url(#SVGID_00000096754347669442043590000000851208534176422329_);stroke:#5F0591;stroke-width:2;stroke-miterlimit:10;}
	.st14{fill:url(#SVGID_00000008827410360745120710000009382603745800106380_);}
	.st15{fill:#EBF0FF;}
	.st16{fill:#D6DCF0;stroke:#56267D;stroke-width:2;stroke-miterlimit:10;}
	.st17{fill:#A9B3D6;}
	.st18{fill:#D6DCF0;}
	.st19{fill:#151924;stroke:#55267B;stroke-width:2;stroke-miterlimit:10;}
	.st20{fill:#222733;}
	.st21{fill:#424C63;}
	.st22{fill:#2E3240;}
	.st23{fill:#151924;}
	.st24{fill:none;stroke:#191E2B;stroke-width:0.25;stroke-miterlimit:10;}
	.st25{opacity:0.7;fill:url(#SVGID_00000129901268393487426510000016234195279900313225_);}
	.st26{fill:#B1B6C7;}
	.st27{fill:#D6DCF0;stroke:#5F0591;stroke-width:2;stroke-miterlimit:10;}
	.st28{fill:#FFFFFF;stroke:#582680;stroke-width:2;stroke-miterlimit:10;}
	.st29{fill:#D6DCF0;stroke:#582680;stroke-width:2;stroke-miterlimit:10;}
	.st30{fill:#592582;}
	.st31{fill:#DB285B;}
	.st32{fill:#D6DCF0;stroke:#57267F;stroke-width:2;stroke-miterlimit:10;}
	.st33{fill:#B1B6C7;stroke:#57267F;stroke-width:2;stroke-miterlimit:10;}
	.st34{fill:url(#SVGID_00000054965706391632066850000012929225619131179660_);}
	.st35{fill:#EEBB1D;}
	.st36{opacity:0.7;fill:url(#SVGID_00000060751269557125490870000017698539820465769105_);}
	.st37{fill:none;stroke:#FFFFFF;stroke-linecap:round;stroke-miterlimit:10;}
	.st38{fill:none;stroke:#FFFFFF;stroke-linecap:round;stroke-miterlimit:10;stroke-dasharray:3.9912,3.9912;}
	.st39{opacity:0.7;fill:url(#SVGID_00000124138875481274569460000008320906881970221983_);}
	.st40{fill:#532778;}
</style>
<pattern  width="4.7" height="4.7" patternUnits="userSpaceOnUse" id="New_Pattern_3" viewBox="0 -4.7 4.7 4.7" style="overflow:visible;">
	<g>
		<rect y="-4.7" class="st0" width="4.7" height="4.7"/>
		<path class="st1" d="M3.69-0.17c-0.23,0.23-0.61,0.23-0.84,0l0,0c-0.23-0.23-0.23-0.61,0-0.84l0.84-0.84
			c0.23-0.23,0.61-0.23,0.84,0l0,0c0.23,0.23,0.23,0.61,0,0.84L3.69-0.17z"/>
		<path class="st1" d="M1.96-3.58c0.23,0.23,0.23,0.61,0,0.84l0,0c-0.23,0.23-0.61,0.23-0.84,0L0.28-3.58
			c-0.23-0.23-0.23-0.61,0-0.84l0,0c0.23-0.23,0.61-0.23,0.84,0L1.96-3.58z"/>
	</g>
</pattern>
<pattern  width="4.7" height="4.7" patternUnits="userSpaceOnUse" id="New_Pattern_4" viewBox="0 -4.7 4.7 4.7" style="overflow:visible;">
	<g>
		<rect y="-4.7" class="st0" width="4.7" height="4.7"/>
		<path class="st2" d="M3.69-0.17c-0.23,0.23-0.61,0.23-0.84,0l0,0c-0.23-0.23-0.23-0.61,0-0.84l0.84-0.84
			c0.23-0.23,0.61-0.23,0.84,0l0,0c0.23,0.23,0.23,0.61,0,0.84L3.69-0.17z"/>
		<path class="st2" d="M1.96-3.58c0.23,0.23,0.23,0.61,0,0.84l0,0c-0.23,0.23-0.61,0.23-0.84,0L0.28-3.58
			c-0.23-0.23-0.23-0.61,0-0.84l0,0c0.23-0.23,0.61-0.23,0.84,0L1.96-3.58z"/>
	</g>
</pattern>
<rect class="st3" width="392" height="268"/>
<path class="st4" d="M22.11,147.43C22.11,91.42,62.06,0,62.06,0l269.66,0.69c0,0,39.52,91.05,39.52,146.74
	c0,44.17-25.5,120.57-25.5,120.57l-298.12,0C47.61,268,22.11,191.6,22.11,147.43z"/>
<g>
	<g>
		<path class="st5" d="M116.73,144.87h-9.39c-0.95,0-2.26,0.56-2.92,1.25l-1.69,1.77c-0.66,0.69-0.66,1.81,0,2.49l1.69,1.77
			c0.66,0.69,1.97,1.25,2.92,1.25h9.39c0.95,0,1.72-0.78,1.72-1.72v-5.08C118.45,145.65,117.68,144.87,116.73,144.87z
			 M106.09,150.52c-0.77,0-1.39-0.62-1.39-1.39c0-0.77,0.62-1.39,1.39-1.39c0.77,0,1.39,0.62,1.39,1.39
			C107.48,149.9,106.86,150.52,106.09,150.52z"/>
		<path class="st5" d="M264.05,146.6v5.08c0,0.95,0.78,1.72,1.72,1.72h9.39c0.95,0,2.26-0.56,2.92-1.25l1.69-1.77
			c0.66-0.69,0.66-1.81,0-2.49l-1.69-1.77c-0.66-0.69-1.97-1.25-2.92-1.25h-9.39C264.83,144.87,264.05,145.65,264.05,146.6z
			 M275.02,149.13c0-0.77,0.62-1.39,1.39-1.39c0.77,0,1.39,0.62,1.39,1.39c0,0.77-0.62,1.39-1.39,1.39
			C275.64,150.52,275.02,149.9,275.02,149.13z"/>
	</g>
	<rect x="144.06" y="131.63" class="st6" width="26.09" height="7.33"/>
	<rect x="123.11" y="131.63" class="st6" width="15.23" height="7.33"/>
	<path class="st7" d="M171.68,132.33c0,0.68-0.55,1.24-1.24,1.24h-26.69c-0.68,0-1.24-0.55-1.24-1.24v-4.54
		c0-0.68,0.56-1.24,1.24-1.24h26.69c0.68,0,1.24,0.56,1.24,1.24V132.33z"/>
	<path class="st7" d="M139.97,132.33c0,0.68-0.56,1.24-1.24,1.24h-16.01c-0.68,0-1.24-0.55-1.24-1.24v-4.54
		c0-0.68,0.56-1.24,1.24-1.24h16.01c0.68,0,1.24,0.56,1.24,1.24V132.33z"/>
	<g>
		<linearGradient id="SVGID_1_" gradientUnits="userSpaceOnUse" x1="191.2513" y1="167.1134" x2="191.2513" y2="218.8324">
			<stop  offset="0" style="stop-color:#EBF0FF"/>
			<stop  offset="1" style="stop-color:#D8DEF2"/>
		</linearGradient>
		<path class="st8" d="M110.75,159.75v61.7c0,1.56,1.27,2.83,2.83,2.83h155.34c1.56,0,2.83-1.27,2.83-2.83v-61.7H110.75z"/>
		<path class="st9" d="M108.95,154.3v63.09c0,1.59,1.3,2.89,2.89,2.89h158.81c1.59,0,2.89-1.3,2.89-2.89V154.3H108.95z"/>
		
			<pattern  id="SVGID_00000134935799065477672480000003162865080933791421_" xlink:href="#New_Pattern_4" patternTransform="matrix(0.7188 0 0 0.7188 -2250.5754 -2198.3867)">
		</pattern>
		
			<path style="fill:url(#SVGID_00000134935799065477672480000003162865080933791421_);stroke:#532778;stroke-width:2;stroke-miterlimit:10;" d="
			M108.95,154.3v63.09c0,1.59,1.3,2.89,2.89,2.89h158.81c1.59,0,2.89-1.3,2.89-2.89V154.3H108.95z"/>
		
			<linearGradient id="SVGID_00000011724790998814057880000002184651392292430721_" gradientUnits="userSpaceOnUse" x1="224.2704" y1="190.7668" x2="258.0513" y2="216.7998">
			<stop  offset="0" style="stop-color:#878FAB"/>
			<stop  offset="1" style="stop-color:#FFFFFF;stop-opacity:0.1"/>
		</linearGradient>
		<path style="fill:url(#SVGID_00000011724790998814057880000002184651392292430721_);" d="M223.24,152.67l-22.38,33.87v33.75h69.8
			c1.59,0,2.89-1.3,2.89-2.89v-36.2L223.24,152.67z"/>
		<path class="st12" d="M110.75,217.39V154.3h-1.8v63.09c0,1.59,1.3,2.89,2.89,2.89h1.8C112.05,220.28,110.75,218.98,110.75,217.39z
			"/>
		
			<linearGradient id="SVGID_00000147180820836643507800000006071879508241521594_" gradientUnits="userSpaceOnUse" x1="191.2513" y1="126.6178" x2="191.2513" y2="161.356">
			<stop  offset="0" style="stop-color:#EBF0FF"/>
			<stop  offset="1" style="stop-color:#D8DEF2"/>
		</linearGradient>
		
			<path style="fill:url(#SVGID_00000147180820836643507800000006071879508241521594_);stroke:#5F0591;stroke-width:2;stroke-miterlimit:10;" d="
			M273.55,128.41c0-1.59-1.3-2.89-2.89-2.89h-97.24c-1.59,0-3.81,0.92-4.94,2.05l-5,5c-1.13,1.12-3.35,2.05-4.94,2.05h-46.69
			c-1.59,0-2.89,1.3-2.89,2.89v16.8h164.6V128.41z"/>
		
			<linearGradient id="SVGID_00000140704380098820955100000002313005058835101828_" gradientUnits="userSpaceOnUse" x1="191.2513" y1="153.6414" x2="191.2513" y2="154.4727">
			<stop  offset="0" style="stop-color:#EBF0FF"/>
			<stop  offset="1" style="stop-color:#FFFFFF"/>
		</linearGradient>
		
			<rect x="108.95" y="153.62" style="fill:url(#SVGID_00000140704380098820955100000002313005058835101828_);" width="164.6" height="0.69"/>
	</g>
	<g>
		
			<ellipse transform="matrix(0.9246 -0.3809 0.3809 0.9246 -55.2948 90.3831)" class="st15" cx="200.69" cy="184.88" rx="39.32" ry="39.32"/>
		
			<ellipse transform="matrix(0.95 -0.3121 0.3121 0.95 -47.6793 71.8736)" class="st16" cx="200.69" cy="184.88" rx="39.01" ry="39.02"/>
		<path class="st15" d="M236.98,184.88c0,20.04-16.25,36.29-36.29,36.29c-20.04,0-36.29-16.25-36.29-36.29
			c0-20.04,16.25-36.3,36.29-36.3C220.73,148.59,236.98,164.84,236.98,184.88z"/>
		<path class="st17" d="M236.74,184.88c0,19.91-16.14,36.05-36.05,36.05c-19.91,0-36.05-16.14-36.05-36.05
			c0-19.91,16.14-36.05,36.05-36.05C220.6,148.83,236.74,164.97,236.74,184.88z"/>
		<path class="st18" d="M234.02,184.88c0,18.41-14.92,33.33-33.33,33.33c-18.41,0-33.33-14.92-33.33-33.33
			c0-18.41,14.92-33.33,33.33-33.33C219.1,151.55,234.02,166.47,234.02,184.88z"/>
		<path class="st19" d="M233.81,184.88c0,18.29-14.83,33.13-33.13,33.13c-18.3,0-33.13-14.83-33.13-33.13
			c0-18.3,14.83-33.13,33.13-33.13C218.98,151.76,233.81,166.59,233.81,184.88z"/>
		<path class="st20" d="M230.09,184.88c0,16.24-13.17,29.41-29.41,29.41c-16.24,0-29.41-13.17-29.41-29.41
			c0-16.24,13.17-29.41,29.41-29.41C216.93,155.47,230.09,168.64,230.09,184.88z"/>
		<path class="st21" d="M223.24,184.88c0,12.46-10.1,22.56-22.56,22.56c-12.46,0-22.56-10.1-22.56-22.56
			c0-12.46,10.1-22.56,22.56-22.56C213.14,162.33,223.24,172.43,223.24,184.88z"/>
		<path class="st22" d="M222.93,184.88c0,12.29-9.96,22.25-22.25,22.25c-12.29,0-22.25-9.96-22.25-22.25
			c0-12.29,9.96-22.25,22.25-22.25C212.97,162.64,222.93,172.6,222.93,184.88z"/>
		<path class="st23" d="M215.08,184.88c0,7.95-6.44,14.39-14.39,14.39c-7.95,0-14.39-6.44-14.39-14.39
			c0-7.95,6.44-14.39,14.39-14.39C208.64,170.49,215.08,176.93,215.08,184.88z"/>
		<g>
			<path class="st24" d="M222.93,184.88c0,12.29-9.96,22.25-22.25,22.25c-12.29,0-22.25-9.96-22.25-22.25
				c0-12.29,9.96-22.25,22.25-22.25C212.97,162.64,222.93,172.6,222.93,184.88z"/>
			<path class="st24" d="M221.81,184.88c0,11.67-9.46,21.12-21.12,21.12c-11.67,0-21.12-9.46-21.12-21.12
				c0-11.67,9.46-21.12,21.12-21.12C212.35,163.76,221.81,173.22,221.81,184.88z"/>
			
				<ellipse transform="matrix(0.2264 -0.974 0.974 0.2264 -24.8271 338.5058)" class="st24" cx="200.69" cy="184.88" rx="20" ry="20"/>
			<path class="st24" d="M219.57,184.88c0,10.43-8.45,18.88-18.88,18.88c-10.43,0-18.88-8.45-18.88-18.88
				c0-10.43,8.45-18.88,18.88-18.88C211.11,166,219.57,174.46,219.57,184.88z"/>
			<path class="st24" d="M218.45,184.88c0,9.81-7.95,17.76-17.76,17.76c-9.81,0-17.76-7.95-17.76-17.76
				c0-9.81,7.95-17.76,17.76-17.76C210.49,167.12,218.45,175.07,218.45,184.88z"/>
			<path class="st24" d="M217.32,184.88c0,9.19-7.45,16.64-16.64,16.64c-9.19,0-16.64-7.45-16.64-16.64
				c0-9.19,7.45-16.64,16.64-16.64C209.87,168.25,217.32,175.69,217.32,184.88z"/>
			<path class="st24" d="M216.2,184.88c0,8.57-6.95,15.51-15.52,15.51c-8.57,0-15.51-6.95-15.51-15.51
				c0-8.57,6.95-15.52,15.51-15.52C209.25,169.37,216.2,176.31,216.2,184.88z"/>
			<path class="st24" d="M215.08,184.88c0,7.95-6.44,14.39-14.39,14.39c-7.95,0-14.39-6.44-14.39-14.39
				c0-7.95,6.44-14.39,14.39-14.39C208.64,170.49,215.08,176.93,215.08,184.88z"/>
		</g>
		<path class="st22" d="M210.67,184.88c0,5.52-4.47,9.99-9.99,9.99c-5.51,0-9.99-4.47-9.99-9.99c0-5.52,4.47-9.99,9.99-9.99
			C206.2,174.9,210.67,179.37,210.67,184.88z"/>
		<path class="st23" d="M206.68,184.88c0,3.31-2.68,5.99-5.99,5.99c-3.31,0-5.99-2.68-5.99-5.99c0-3.31,2.68-5.99,5.99-5.99
			C204,178.89,206.68,181.57,206.68,184.88z"/>
		<path class="st12" d="M194.6,165.85c3.57,3.57,3.57,9.37,0,12.94c-3.57,3.57-9.37,3.57-12.94,0c-3.57-3.57-3.57-9.37,0-12.94
			S191.03,162.28,194.6,165.85z"/>
		<path class="st12" d="M217.9,194.31c2.15,2.15,2.15,5.64,0,7.79c-2.15,2.15-5.64,2.15-7.79,0c-2.15-2.15-2.15-5.64,0-7.79
			C212.26,192.16,215.75,192.16,217.9,194.31z"/>
		
			<linearGradient id="SVGID_00000155130816824214472090000005367107617545497271_" gradientUnits="userSpaceOnUse" x1="218.1923" y1="160.7793" x2="187.8207" y2="214.8079">
			<stop  offset="0" style="stop-color:#FFFFFF"/>
			<stop  offset="1" style="stop-color:#000000"/>
		</linearGradient>
		<path style="opacity:0.7;fill:url(#SVGID_00000155130816824214472090000005367107617545497271_);" d="M200.69,218.01
			c-6.72,0-12.96-2-18.18-5.44l45.87-45.87c3.43,5.22,5.44,11.46,5.44,18.18C233.81,203.18,218.98,218.01,200.69,218.01z
			 M205.46,152.1l-37.55,37.55c0.95,6.62,3.86,12.6,8.12,17.34l46.77-46.77C218.06,155.97,212.07,153.06,205.46,152.1z"/>
	</g>
	<path class="st26" d="M142.7,145.63c0,0.68-0.55,1.24-1.24,1.24h-15.98c-0.68,0-1.24-0.55-1.24-1.24v-2.41
		c0-0.68,0.55-1.24,1.24-1.24h15.98c0.68,0,1.24,0.56,1.24,1.24V145.63z"/>
	<path class="st27" d="M125.48,146.45c-0.46,0-0.83-0.37-0.83-0.83v-2.41c0-0.46,0.37-0.83,0.83-0.83h15.98
		c0.46,0,0.83,0.37,0.83,0.83v2.41c0,0.46-0.37,0.83-0.83,0.83H125.48z"/>
	<g>
		<path class="st26" d="M209.91,138.52c0,0.68-0.55,1.24-1.24,1.24H192.7c-0.68,0-1.24-0.55-1.24-1.24v-5.65
			c0-0.68,0.55-1.24,1.24-1.24h15.98c0.68,0,1.24,0.55,1.24,1.24V138.52z"/>
		<path class="st28" d="M192.7,139.34c-0.46,0-0.83-0.37-0.83-0.83v-5.65c0-0.46,0.37-0.83,0.83-0.83h15.98
			c0.46,0,0.83,0.37,0.83,0.83v5.65c0,0.46-0.37,0.83-0.83,0.83H192.7z"/>
	</g>
	<g>
		
			<ellipse transform="matrix(0.2217 -0.9751 0.9751 0.2217 -18.4939 267.943)" class="st26" cx="158.61" cy="145.56" rx="7.01" ry="7.01"/>
		<path class="st29" d="M160.02,139.17v-2.41c0-0.78-0.63-1.41-1.41-1.41c-0.78,0-1.41,0.63-1.41,1.41v2.41
			c-2.93,0.65-5.13,3.26-5.13,6.39c0,3.61,2.93,6.54,6.54,6.54c3.61,0,6.54-2.93,6.54-6.54
			C165.15,142.43,162.95,139.82,160.02,139.17z"/>
		<path class="st26" d="M163.55,145.56c0,2.73-2.21,4.94-4.94,4.94s-4.94-2.21-4.94-4.94s2.21-4.94,4.94-4.94
			S163.55,142.83,163.55,145.56z"/>
		<g>
			<path class="st15" d="M158.61,149.16c-1.98,0-3.6-1.62-3.6-3.6c0-1.98,1.62-3.6,3.6-3.6c1.99,0,3.6,1.62,3.6,3.6
				C162.21,147.54,160.59,149.16,158.61,149.16z"/>
			<path class="st30" d="M158.61,142.96c1.43,0,2.6,1.17,2.6,2.6c0,1.43-1.17,2.6-2.6,2.6c-1.43,0-2.6-1.17-2.6-2.6
				C156.01,144.12,157.17,142.96,158.61,142.96 M158.61,140.96c-2.54,0-4.6,2.06-4.6,4.6c0,2.54,2.06,4.6,4.6,4.6
				c2.54,0,4.6-2.06,4.6-4.6C163.21,143.02,161.15,140.96,158.61,140.96L158.61,140.96z"/>
		</g>
		<path class="st31" d="M158.61,139.22c-0.32,0-0.59-0.26-0.59-0.59v-1.88c0-0.32,0.26-0.59,0.59-0.59c0.32,0,0.59,0.26,0.59,0.59
			v1.88C159.19,138.96,158.93,139.22,158.61,139.22z"/>
	</g>
	<path class="st26" d="M179.3,135.09c0,1.91-1.55,3.46-3.46,3.46c-1.91,0-3.46-1.55-3.46-3.46c0-1.91,1.55-3.46,3.46-3.46
		C177.75,131.63,179.3,133.18,179.3,135.09z"/>
	<path class="st32" d="M175.84,138.13c-1.68,0-3.05-1.37-3.05-3.05s1.37-3.05,3.05-3.05c1.68,0,3.04,1.37,3.04,3.05
		S177.52,138.13,175.84,138.13z"/>
	<path class="st33" d="M259.91,149.9c0,0.68-0.55,1.24-1.24,1.24h-28.31c-0.68,0-1.24-0.56-1.24-1.24v-19.63
		c0-0.68,0.56-1.24,1.24-1.24h28.31c0.68,0,1.24,0.56,1.24,1.24V149.9z"/>
	<path class="st23" d="M230.37,150.31c-0.23,0-0.41-0.19-0.41-0.41v-19.63c0-0.23,0.19-0.41,0.41-0.41h28.31
		c0.23,0,0.41,0.19,0.41,0.41v19.63c0,0.23-0.19,0.41-0.41,0.41H230.37z"/>
	
		<linearGradient id="SVGID_00000116952856005647117250000013899431561280430998_" gradientUnits="userSpaceOnUse" x1="254.9894" y1="133.5117" x2="236.7042" y2="151.1772">
		<stop  offset="0" style="stop-color:#FFFFFF"/>
		<stop  offset="1" style="stop-color:#FFFFFF;stop-opacity:0.1"/>
	</linearGradient>
	<path style="fill:url(#SVGID_00000116952856005647117250000013899431561280430998_);" d="M252.24,129.85l-20.45,20.45h-1.41
		c-0.23,0-0.41-0.19-0.41-0.41v-12.46l7.58-7.58H252.24z M259.09,130.58l-19.73,19.73h19.32c0.23,0,0.41-0.19,0.41-0.41V130.58z"/>
</g>
<g>
	<path class="st35" d="M312.22,106.7c-0.21,0.98-1.18,1.61-2.16,1.39l-26.28-5.7c-0.98-0.21-1.61-1.18-1.39-2.16l36.65-168.92
		c0.21-0.98,1.18-1.61,2.16-1.39l26.29,5.7c0.98,0.21,1.61,1.18,1.39,2.16L312.22,106.7z"/>
	
		<pattern  id="SVGID_00000005957172621627354510000001654903624746111630_" xlink:href="#New_Pattern_3" patternTransform="matrix(0.7414 0.1609 -0.1609 0.7414 -3323.749 -726.9542)">
	</pattern>
	<path style="opacity:0.7;fill:url(#SVGID_00000005957172621627354510000001654903624746111630_);" d="M311.93,109.8
		c-0.21,0.98-1.18,1.61-2.16,1.39l-26.28-5.7c-0.98-0.21-1.61-1.18-1.39-2.16L318.74-65.6c0.21-0.98,1.18-1.61,2.16-1.39l26.29,5.7
		c0.98,0.21,1.61,1.18,1.39,2.16L311.93,109.8z"/>
	<g>
		<g>
			<line class="st37" x1="345.85" y1="-64.74" x2="345.42" y2="-62.78"/>
			<path class="st38" d="M344.58-58.88l-35.77,164.85c-0.21,0.98-1,1.65-1.76,1.48l-20.28-4.4c-0.76-0.16-1.2-1.09-0.99-2.08
				l36.19-166.8"/>
			<line class="st37" x1="322.4" y1="-67.78" x2="322.82" y2="-69.73"/>
		</g>
	</g>
	<path class="st12" d="M312.42,111.25c-0.21,0.98-1.18,1.61-2.16,1.39l-28.56-6.2c-0.98-0.21-1.61-1.18-1.39-2.16l2.87-13.24
		c0.21-0.98,1.18-1.61,2.17-1.39l28.56,6.2c0.98,0.21,1.61,1.18,1.39,2.16L312.42,111.25z"/>
	<g>
		<path class="st12" d="M293.21,122.29c-1.61-0.35-2.28-1.6-2.93-2.81l-0.1-0.18c-0.64-1.19-6.57-13.03-6.82-13.54l2.17-1.09
			c0.06,0.12,6.16,12.31,6.78,13.47l0.1,0.19c0.57,1.07,0.84,1.48,1.31,1.59c0.47,0.1,0.89-0.17,1.85-0.9l0.17-0.13
			c1.05-0.79,11.65-9.36,11.75-9.45l1.53,1.89c-0.44,0.35-10.74,8.68-11.81,9.49l-0.17,0.13
			C295.95,121.78,294.82,122.64,293.21,122.29z"/>
	</g>
	<g>
		<path class="st12" d="M276.62,150.27c-0.36,0-0.73-0.14-1-0.41c-0.57-0.56-0.58-1.47-0.02-2.03
			c12.38-12.66,16.79-28.69,16.83-28.85c0.21-0.77,1-1.22,1.76-1.02c0.77,0.21,1.22,0.99,1.02,1.76
			c-0.18,0.68-4.65,16.93-17.55,30.12C277.36,150.12,276.99,150.27,276.62,150.27z"/>
	</g>
</g>
<g>
	<path class="st35" d="M70.29,106.7c0.21,0.98,1.18,1.61,2.16,1.39l26.28-5.7c0.98-0.21,1.61-1.18,1.39-2.16L63.48-68.69
		c-0.21-0.98-1.18-1.61-2.16-1.39l-26.29,5.7c-0.98,0.21-1.61,1.18-1.39,2.16L70.29,106.7z"/>
	
		<pattern  id="SVGID_00000145052002215434986410000016887868927665066370_" xlink:href="#New_Pattern_3" patternTransform="matrix(-0.7414 0.1609 0.1609 0.7414 -12668.9971 -729.334)">
	</pattern>
	<path style="opacity:0.7;fill:url(#SVGID_00000145052002215434986410000016887868927665066370_);" d="M70.12,106.57
		c0.21,0.98,1.18,1.61,2.16,1.39l26.28-5.7c0.98-0.21,1.61-1.18,1.39-2.16L63.31-68.83c-0.21-0.98-1.18-1.61-2.16-1.39l-26.29,5.7
		c-0.98,0.21-1.61,1.18-1.39,2.16L70.12,106.57z"/>
	<g>
		<g>
			<line class="st37" x1="36.66" y1="-64.74" x2="37.08" y2="-62.78"/>
			<path class="st38" d="M37.93-58.88L73.7,105.97c0.21,0.98,1,1.65,1.76,1.48l20.28-4.4c0.76-0.16,1.2-1.09,0.99-2.08L60.53-65.83"
				/>
			<line class="st37" x1="60.1" y1="-67.78" x2="59.68" y2="-69.73"/>
		</g>
	</g>
	<path class="st12" d="M70.08,111.25c0.21,0.98,1.18,1.61,2.16,1.39l28.56-6.2c0.98-0.21,1.61-1.18,1.39-2.16l-2.87-13.24
		c-0.21-0.98-1.18-1.61-2.17-1.39l-28.56,6.2c-0.98,0.21-1.61,1.18-1.39,2.16L70.08,111.25z"/>
	<g>
		<path class="st12" d="M89.29,122.29c1.61-0.35,2.28-1.6,2.93-2.81l0.1-0.18c0.64-1.19,6.57-13.03,6.82-13.54l-2.17-1.09
			c-0.06,0.12-6.16,12.31-6.78,13.47l-0.1,0.19c-0.57,1.07-0.84,1.48-1.31,1.59c-0.47,0.1-0.89-0.17-1.85-0.9l-0.17-0.13
			c-1.05-0.79-11.65-9.36-11.75-9.45l-1.53,1.89c0.44,0.35,10.74,8.68,11.81,9.49l0.17,0.13C86.55,121.78,87.68,122.64,89.29,122.29
			z"/>
	</g>
	<g>
		<path class="st12" d="M105.89,150.27c0.36,0,0.73-0.14,1-0.41c0.57-0.56,0.58-1.47,0.02-2.03
			c-12.38-12.66-16.79-28.69-16.83-28.85c-0.21-0.77-1-1.22-1.76-1.02c-0.77,0.21-1.22,0.99-1.02,1.76
			c0.18,0.68,4.65,16.93,17.55,30.12C105.14,150.12,105.51,150.27,105.89,150.27z"/>
	</g>
</g>
<g>
	<g>
		<path class="st40" d="M253.41,56.95c-6.31,0.22-13.17-0.03-18.51-3.84c-3.98-2.84-7.7-8.93-4.7-13.72c1.39-2.22,4-2.5,6.22-1.4
			c2.31,1.14,3.85,3.29,4.55,5.73c1.41,4.91-0.44,10.48-4.01,14.02c-4.71,4.67-11.65,6.14-18.08,5.9c-1.93-0.07-1.93,2.93,0,3
			c6.93,0.26,14.2-1.41,19.49-6.11c4.71-4.19,7.19-11.09,5.58-17.27c-0.8-3.08-2.66-5.86-5.41-7.52c-2.66-1.6-6.17-2.02-8.81-0.14
			c-5.79,4.12-3.64,12.62,0.32,17.15c5.8,6.64,15.08,7.5,23.35,7.2C255.34,59.88,255.35,56.88,253.41,56.95L253.41,56.95z"/>
	</g>
</g>
<g>
	<g>
		<path class="st40" d="M215.22,81.39c-6.31,0.22-13.17-0.03-18.51-3.84c-3.98-2.84-7.7-8.93-4.7-13.72c1.39-2.22,4-2.5,6.22-1.4
			c2.31,1.14,3.85,3.29,4.55,5.73c1.41,4.91-0.44,10.48-4.01,14.02c-4.71,4.67-11.65,6.14-18.08,5.9c-1.93-0.07-1.93,2.93,0,3
			c6.93,0.26,14.2-1.41,19.49-6.11c4.71-4.19,7.19-11.09,5.58-17.27c-0.8-3.08-2.66-5.86-5.41-7.52c-2.66-1.6-6.17-2.02-8.81-0.14
			c-5.79,4.12-3.64,12.62,0.32,17.15c5.8,6.64,15.08,7.5,23.35,7.2C217.14,84.32,217.15,81.32,215.22,81.39L215.22,81.39z"/>
	</g>
</g>
<g>
	<g>
		<path class="st40" d="M168.83,66.72c-6.31,0.22-13.17-0.03-18.51-3.84c-3.98-2.84-7.7-8.93-4.7-13.72c1.39-2.22,4-2.5,6.22-1.4
			c2.31,1.14,3.85,3.29,4.55,5.73c1.41,4.91-0.44,10.48-4.01,14.02c-4.71,4.67-11.65,6.14-18.08,5.9c-1.93-0.07-1.93,2.93,0,3
			c6.93,0.26,14.2-1.41,19.49-6.11c4.71-4.19,7.19-11.09,5.58-17.27c-0.8-3.08-2.66-5.86-5.41-7.52c-2.66-1.6-6.17-2.02-8.81-0.14
			c-5.79,4.12-3.64,12.62,0.32,17.15c5.8,6.64,15.08,7.5,23.35,7.2C170.76,69.65,170.77,66.65,168.83,66.72L168.83,66.72z"/>
	</g>
</g>
</svg>
